<?xml version="1.0" encoding="UTF-8" standalone="no"?>
<svg
   xmlns:dc="http://purl.org/dc/elements/1.1/"
   xmlns:cc="http://creativecommons.org/ns#"
   xmlns:rdf="http://www.w3.org/1999/02/22-rdf-syntax-ns#"
   xmlns:svg="http://www.w3.org/2000/svg"
   xmlns="http://www.w3.org/2000/svg"
   viewBox="0 0 153.92497 77.006981"
   height="77.006981"
   width="153.92497"
   xml:space="preserve"
   id="svg2"
   version="1.1"><metadata
     id="metadata8"><rdf:RDF><cc:Work
         rdf:about=""><dc:format>image/svg+xml</dc:format><dc:type
           rdf:resource="http://purl.org/dc/dcmitype/StillImage" /><dc:title></dc:title></cc:Work></rdf:RDF></metadata><defs
     id="defs6" /><g
     transform="matrix(1.3333333,0,0,-1.3333333,1.839123,78.147902)"
     id="g10"><g
       style="display:inline"
       transform="scale(0.1)"
       id="g12"><g
   style="fill:#388442;fill-opacity:1"
   transform="matrix(10.353663,0,0,10.353663,-4.2913723,-5.3575374)"
   id="g14"><g
   id="text18"
   style="font-style:normal;font-variant:normal;font-weight:normal;font-stretch:normal;font-size:15px;font-family:Manjari;-inkscape-font-specification:Manjari;writing-mode:lr-tb;fill:#388442;fill-opacity:1;fill-rule:nonzero;stroke:none"
   transform="matrix(1,1e-8,-1e-8,-1,2,5.15625)"
   aria-label="Suchen   Finden"><path
     id="path833"
     style=""
     d="m 4.9072266,-10.114746 c -1.7944336,0 -3.9038086,1.0034179 -3.9038086,2.8784179 0,2.2338867 2.4755859,2.6074219 4.387207,2.8784179 1.0620117,0.1391602 2.3876953,0.4174805 2.3876953,1.5893555 0,1.3256836 -1.6259766,1.91162111 -2.8710937,1.91162111 -1.4208985,0 -2.5634766,-0.62988281 -3.0249024,-1.67724611 -0.073242,-0.1757812 -0.2929687,-0.3222656 -0.4833984,-0.3222656 -0.2856446,0 -0.52001955,0.234375 -0.52001955,0.5200195 0,0.058594 0.0219727,0.1538086 0.0439453,0.2124024 0.61523434,1.41357418 2.17529294,2.29248043 3.98437504,2.29248043 1.7358398,0 3.9038086,-0.94482422 3.9038086,-2.93701173 0,-1.8237305 -1.7211915,-2.409668 -3.28125,-2.6220703 -1.303711,-0.1831055 -3.4790039,-0.402832 -3.4790039,-1.8383789 0,-1.237793 1.6040039,-1.8383789 2.8564453,-1.8383789 1.171875,0 2.1459961,0.5639648 2.5488281,1.4575195 0.073242,0.1757813 0.2929687,0.3149414 0.4833984,0.3149414 0.2856446,0 0.5200196,-0.234375 0.5200196,-0.5200195 0,-0.065918 -0.021973,-0.1611328 -0.05127,-0.2197266 -0.5639648,-1.2451172 -1.9042969,-2.080078 -3.5009765,-2.080078 z" /><path
     id="path835"
     style=""
     d="m 16.230469,0.19042969 c 0.314941,0 0.549316,-0.24902344 0.549316,-0.55664063 l -0.0073,-6.57714846 C 16.772461,-7.2509766 16.530762,-7.5 16.223145,-7.5 c -0.300293,0 -0.549317,0.2490234 -0.549317,0.5493164 v 3.5888672 c 0,1.5454102 -0.820312,2.43164062 -2.409668,2.43164062 -1.26709,0 -1.589355,-1.15722652 -1.589355,-2.45361332 l 0.0073,-3.5449218 c 0,-0.3076172 -0.241699,-0.5566407 -0.549316,-0.5566407 -0.300293,0 -0.549317,0.2490235 -0.549317,0.5493164 l -0.0073,3.5522461 c 0,1.8676758 0.74707,3.55224613 2.687988,3.55224613 1.120606,0 1.896973,-0.76171875 2.416992,-1.39892573 l 0.03662,0.87158198 c 0,0.30029297 0.212403,0.54931641 0.512696,0.54931641 z" /><path
     id="path837"
     style=""
     d="m 18.398437,-3.684082 c 0,2.0361328 1.574708,3.80859372 3.618165,3.80859372 1.49414,0 2.636718,-0.93017578 3.127441,-2.00683592 0.0293,-0.058594 0.05127,-0.1611328 0.05127,-0.2270508 0,-0.300293 -0.249023,-0.5493164 -0.549316,-0.5493164 -0.197754,0 -0.41748,0.1464844 -0.498047,0.3295898 -0.336914,0.7324219 -1.113281,1.36230472 -2.131347,1.36230472 -1.428223,0 -2.526856,-1.27441402 -2.526856,-2.70996092 0,-1.4355469 1.105957,-2.7099609 2.526856,-2.7099609 1.018066,0 1.787109,0.637207 2.124023,1.3696289 0.08057,0.1831054 0.300293,0.3222656 0.498047,0.3222656 0.300293,0 0.549316,-0.2416992 0.549316,-0.5419922 0,-0.065918 -0.0293,-0.1757813 -0.05859,-0.234375 -0.490723,-1.0766602 -1.618653,-2.0068359 -3.112793,-2.0068359 -2.028809,0 -3.618165,1.7651367 -3.618165,3.7939453 z" /><path
     id="path839"
     style=""
     d="m 26.806641,-9.5800781 v 9.20654294 c 0,0.28564454 0.241699,0.54931641 0.563964,0.54931641 0.300293,0 0.549317,-0.24902344 0.549317,-0.54931641 V -4.519043 c 0,-0.9082031 0.849609,-1.9042968 2.211914,-1.9042968 1.435547,0 1.816406,0.9667968 1.816406,2.5634765 l -0.0073,3.47167971 v 0.007324 c 0,0.30029297 0.249023,0.54931641 0.549316,0.54931641 0.300293,0 0.549317,-0.24902344 0.549317,-0.54931641 v -0.007324 l 0.0073,-3.45703121 v -0.065918 c 0,-2.1972656 -0.827637,-3.6035156 -3.00293,-3.6035156 -0.783691,0 -1.655273,0.4980468 -2.138672,1.3037109 v -3.3691406 c 0,-0.300293 -0.249023,-0.5493169 -0.549316,-0.5493169 -0.307617,0 -0.549316,0.2490239 -0.549316,0.5493169 z" /><path
     id="path841"
     style=""
     d="m 38.452148,0.14648437 c 1.105957,0 2.182618,-0.49804687 2.885743,-1.36230467 0.07324,-0.087891 0.131836,-0.2490234 0.131836,-0.3588867 0,-0.300293 -0.249024,-0.5493164 -0.549317,-0.5493164 -0.146484,0 -0.344238,0.095215 -0.432129,0.2124023 -0.483398,0.5932617 -1.281738,0.95947266 -2.050781,0.95947266 -1.362305,0 -2.402344,-1.05468746 -2.629395,-2.27050786 h 5.332032 c 0.432129,0 0.563965,-0.3662109 0.563965,-0.8203124 0,-1.9042969 -1.574707,-3.4350586 -3.435059,-3.4350586 -2.021484,0 -3.61084,1.743164 -3.61084,3.75 0,2.109375 1.669922,3.87451167 3.793945,3.87451167 z m 2.131348,-4.45312497 h -4.760742 c 0.241699,-1.1206055 1.201172,-2.0727539 2.453613,-2.0727539 1.201172,0 2.167969,0.9301758 2.307129,2.0727539 z" /><path
     id="path843"
     style=""
     d="m 43.879395,-7.5219727 c -0.314942,0 -0.549317,0.2490235 -0.549317,0.5566407 l 0.0073,6.57714841 c 0,0.30761718 0.2417,0.55664062 0.549317,0.55664062 0.300293,0 0.549316,-0.24902344 0.549316,-0.54931641 V -3.9697266 c 0,-1.5454101 0.820313,-2.4316406 2.409668,-2.4316406 1.26709,0 1.589356,1.1572266 1.589356,2.4536133 l -0.0073,3.54492187 c 0,0.30761719 0.2417,0.55664062 0.549317,0.55664062 0.300293,0 0.549316,-0.24902343 0.549316,-0.5493164 l 0.0073,-3.55224609 C 49.533691,-5.8154297 48.786621,-7.5 46.845703,-7.5 c -1.120605,0 -1.896973,0.7617188 -2.416992,1.3989258 l -0.03662,-0.871582 c 0,-0.300293 -0.212403,-0.5493165 -0.512695,-0.5493165 z" /><path
     id="path845"
     style=""
     d="m 62.285156,-9.5874023 0.02197,9.1186523 v 0.007324 c 0,0.30029297 0.249023,0.5493164 0.549316,0.5493164 0.300293,0 0.549317,-0.24902343 0.549317,-0.5493164 v -0.0146484 l -0.0073,-4.38720698 h 0.06592 l 3.933106,-0.036621 c 0.322266,0 0.549316,-0.2563477 0.549316,-0.5932618 0,-0.2050781 -0.219726,-0.5053711 -0.476074,-0.5053711 h -0.08057 l -3.94043,0.036621 c -0.02197,0.00732 -0.03662,0.00732 -0.05859,0.00732 l -0.0073,-3.0834961 5.419922,-0.00732 h 0.0073 c 0.300293,0 0.549317,-0.2490234 0.549317,-0.5493164 0,-0.3002929 -0.249024,-0.5493164 -0.549317,-0.5493164 h -0.0073 l -5.969238,0.0073 c -0.300293,0 -0.549317,0.2490237 -0.549317,0.5493167 z" /><path
     id="path847"
     style=""
     d="m 71.25,-8.6206055 c 0.424805,0 0.791016,-0.3442383 0.791016,-0.7763672 0,-0.4321289 -0.366211,-0.7763673 -0.791016,-0.7763673 -0.424805,0 -0.791016,0.3442384 -0.791016,0.7763673 0,0.4321289 0.366211,0.7763672 0.791016,0.7763672 z m -0.534668,1.5893555 0.01465,6.64306641 c 0,0.30761718 0.2417,0.55664062 0.549317,0.55664062 0.300293,0 0.549316,-0.24902344 0.549316,-0.54931641 l -0.01465,-6.56982422 c 0,-0.3295898 -0.249024,-0.5566406 -0.593262,-0.5566406 -0.205078,0 -0.505371,0.2197265 -0.505371,0.4760742 z" /><path
     id="path849"
     style=""
     d="m 74.348145,-7.5219727 c -0.314942,0 -0.549317,0.2490235 -0.549317,0.5566407 l 0.0073,6.57714841 c 0,0.30761718 0.2417,0.55664062 0.549317,0.55664062 0.300293,0 0.549316,-0.24902344 0.549316,-0.54931641 V -3.9697266 c 0,-1.5454101 0.820313,-2.4316406 2.409668,-2.4316406 1.26709,0 1.589356,1.1572266 1.589356,2.4536133 l -0.0073,3.54492187 c 0,0.30761719 0.2417,0.55664062 0.549317,0.55664062 0.300293,0 0.549316,-0.24902343 0.549316,-0.5493164 l 0.0073,-3.55224609 C 80.002441,-5.8154297 79.255371,-7.5 77.314453,-7.5 c -1.120605,0 -1.896973,0.7617188 -2.416992,1.3989258 l -0.03662,-0.871582 c 0,-0.300293 -0.212403,-0.5493165 -0.512695,-0.5493165 z" /><path
     id="path851"
     style=""
     d="m 85.03418,0.15380859 c 1.02539,0 1.860351,-0.68115234 2.416992,-1.24511719 l 0.03662,0.70312501 c 0,0.30029297 0.212402,0.5493164 0.512695,0.5493164 0.300293,0 0.549317,-0.24902343 0.549317,-0.5493164 V -9.609375 c 0,-0.300293 -0.2417,-0.549316 -0.549317,-0.549316 -0.300293,0 -0.549316,0.249023 -0.549316,0.549316 v 3.3105469 c -0.593262,-0.6225586 -1.391602,-1.1865235 -2.351074,-1.1865235 -2.021485,0 -3.479004,1.8823243 -3.479004,3.8745118 0,1.9848632 1.420898,3.76464839 3.413086,3.76464839 z m 0.02197,-1.09863281 c -1.391601,0 -2.321777,-1.25244138 -2.321777,-2.64404298 0,-1.40625 0.930176,-2.7978515 2.351074,-2.7978515 1.472168,0 2.358399,1.3037109 2.358399,2.6733398 0,1.3842773 -0.900879,2.76855468 -2.387696,2.76855468 z" /><path
     id="path853"
     style=""
     d="m 93.969727,0.14648437 c 1.105957,0 2.182617,-0.49804687 2.885742,-1.36230467 0.07324,-0.087891 0.131836,-0.2490234 0.131836,-0.3588867 0,-0.300293 -0.249024,-0.5493164 -0.549317,-0.5493164 -0.146484,0 -0.344238,0.095215 -0.432129,0.2124023 -0.483398,0.5932617 -1.281738,0.95947266 -2.050781,0.95947266 -1.362305,0 -2.402344,-1.05468746 -2.629394,-2.27050786 h 5.332031 c 0.432129,0 0.563965,-0.3662109 0.563965,-0.8203124 0,-1.9042969 -1.574707,-3.4350586 -3.435059,-3.4350586 -2.021484,0 -3.61084,1.743164 -3.61084,3.75 0,2.109375 1.669922,3.87451167 3.793946,3.87451167 z m 2.131347,-4.45312497 h -4.760742 c 0.241699,-1.1206055 1.201172,-2.0727539 2.453613,-2.0727539 1.201172,0 2.167969,0.9301758 2.307129,2.0727539 z" /><path
     id="path855"
     style=""
     d="m 99.396973,-7.5219727 c -0.314942,0 -0.549317,0.2490235 -0.549317,0.5566407 l 0.0073,6.57714841 c 0,0.30761718 0.2417,0.55664062 0.549317,0.55664062 0.300293,0 0.549316,-0.24902344 0.549316,-0.54931641 V -3.9697266 c 0,-1.5454101 0.820317,-2.4316406 2.409667,-2.4316406 1.26709,0 1.58936,1.1572266 1.58936,2.4536133 l -0.007,3.54492187 c 0,0.30761719 0.2417,0.55664062 0.54932,0.55664062 0.30029,0 0.54932,-0.24902343 0.54932,-0.5493164 l 0.007,-3.55224609 C 105.05127,-5.8154297 104.3042,-7.5 102.36328,-7.5 c -1.1206,0 -1.89697,0.7617188 -2.416991,1.3989258 l -0.03662,-0.871582 c 0,-0.300293 -0.212402,-0.5493165 -0.512695,-0.5493165 z" /></g>




</g><g
   id="text849"
   style="font-style:normal;font-variant:normal;font-weight:normal;font-stretch:normal;font-size:416.32217407px;line-height:125%;font-family:'DejaVu Sans';-inkscape-font-specification:'DejaVu Sans';letter-spacing:0px;word-spacing:0px;fill:#86cf3c;fill-opacity:1;stroke:none;stroke-width:10.4080534px;stroke-linecap:butt;stroke-linejoin:miter;stroke-opacity:1"
   transform="matrix(1.0093894,0,0,-0.99435547,-0.04372098,-1.0117755)"
   aria-label="BOSS"><path
     id="path830"
     style="fill:#86cf3c;fill-opacity:1;stroke-width:10.4080534px"
     d="m 64.592398,-388.6922 v 111.19543 h 65.863472 q 33.13501,0 48.99103,-13.61992 16.05931,-13.82319 16.05931,-42.07943 0,-28.45953 -16.05931,-41.87616 -15.85602,-13.61992 -48.99103,-13.61992 z m 0,-124.81533 v 91.47704 h 60.781412 q 30.08578,0 44.72211,-11.18053 14.83961,-11.38381 14.83961,-34.55799 0,-22.97091 -14.83961,-34.35472 -14.63633,-11.3838 -44.72211,-11.3838 z M 23.529371,-547.2524 H 128.42304 q 46.95822,0 72.36851,19.5151 25.41029,19.51511 25.41029,55.49607 0,27.84968 -13.01007,44.31555 -13.01007,16.46587 -38.21708,20.53151 30.28907,6.50504 46.95822,27.23983 16.87243,20.53152 16.87243,51.43043 0,40.65646 -27.6464,62.81423 -27.64639,22.15777 -78.67025,22.15777 H 23.529371 Z" /><path
     id="path832"
     style="fill:#86cf3c;fill-opacity:1;stroke-width:10.4080534px"
     d="m 424.80866,-519.40272 q -44.72211,0 -71.14881,33.3383 -26.22342,33.3383 -26.22342,90.86719 0,57.32561 26.22342,90.66391 26.4267,33.3383 71.14881,33.3383 44.72211,0 70.74225,-33.3383 26.22341,-33.3383 26.22341,-90.66391 0,-57.52889 -26.22341,-90.86719 -26.02014,-33.3383 -70.74225,-33.3383 z m 0,-33.3383 q 63.83065,0 102.04772,42.89257 38.21708,42.68928 38.21708,114.65122 0,71.75866 -38.21708,114.65122 -38.21707,42.68929 -102.04772,42.68929 -64.03393,0 -102.45428,-42.68929 -38.21708,-42.68928 -38.21708,-114.65122 0,-71.96194 38.21708,-114.65122 38.42035,-42.89257 102.45428,-42.89257 z" /><path
     id="path834"
     style="fill:#86cf3c;fill-opacity:1;stroke-width:10.4080534px"
     d="m 811.24835,-537.29157 v 40.04662 q -23.37747,-11.18053 -44.11226,-16.66915 -20.7348,-5.48862 -40.04662,-5.48862 -33.54158,0 -51.83699,13.01007 -18.09212,13.01006 -18.09212,36.99738 0,20.12495 11.99365,30.49234 12.19694,10.16412 45.94181,16.46587 l 24.80044,5.08206 q 45.9418,8.74114 67.69301,30.89891 21.95449,21.95449 21.95449,58.95187 0,44.11226 -29.67922,66.87988 -29.47593,22.76762 -86.59826,22.76762 -21.54793,0 -45.94181,-4.87878 -24.19059,-4.87877 -50.21073,-14.43304 v -42.28272 q 25.00373,14.02648 48.99104,21.14136 23.98731,7.11488 47.1615,7.11488 35.16784,0 54.27637,-13.8232 19.10854,-13.82319 19.10854,-39.43677 0,-22.36105 -13.8232,-34.96455 -13.61991,-12.60351 -44.92539,-18.90526 l -25.00372,-4.87877 q -45.9418,-9.14771 -66.47332,-28.66281 -20.53151,-19.5151 -20.53151,-54.27638 0,-40.24989 28.25624,-63.42408 28.45952,-23.17418 78.26369,-23.17418 21.34464,0 43.50242,3.86236 22.15777,3.86237 45.33195,11.58709 z" /><path
     id="path836"
     style="fill:#86cf3c;fill-opacity:1;stroke-width:10.4080534px"
     d="m 1075.5154,-537.29157 v 40.04662 q -23.3775,-11.18053 -44.1123,-16.66915 -20.7348,-5.48862 -40.0466,-5.48862 -33.54158,0 -51.83699,13.01007 -18.09212,13.01006 -18.09212,36.99738 0,20.12495 11.99365,30.49234 12.19694,10.16412 45.94181,16.46587 l 24.80045,5.08206 q 45.9418,8.74114 67.693,30.89891 21.9545,21.95449 21.9545,58.95187 0,44.11226 -29.6792,66.87988 -29.476,22.76762 -86.59829,22.76762 -21.54793,0 -45.94181,-4.87878 -24.19059,-4.87877 -50.21073,-14.43304 v -42.28272 q 25.00373,14.02648 48.99104,21.14136 23.98731,7.11488 47.1615,7.11488 35.16779,0 54.27639,-13.8232 19.1085,-13.82319 19.1085,-39.43677 0,-22.36105 -13.8232,-34.96455 -13.6199,-12.60351 -44.92537,-18.90526 l -25.00372,-4.87877 q -45.9418,-9.14771 -66.47332,-28.66281 -20.53151,-19.5151 -20.53151,-54.27638 0,-40.24989 28.25624,-63.42408 28.45952,-23.17418 78.26369,-23.17418 21.34469,0 43.50239,3.86236 22.1578,3.86237 45.332,11.58709 z" /></g>
<rect
   rx="18.64249"
   transform="matrix(0.51575295,-0.85673735,-0.8519156,-0.52367911,0,0)"
   y="-595.70984"
   x="58.148495"
   height="58.959656"
   width="162.23251"
   id="rect860"
   style="fill:#388442;fill-opacity:1;stroke:#388442;stroke-width:11.42171288;stroke-opacity:1" /><path
   id="path20"
   transform="matrix(7.5000002,0,0,-7.5000002,0,650.00002)"
   d="m 69.107422,39.753906 c -0.3357,1.017495 -1.155893,2.018539 -1.820313,2.962891 -1.003452,1.426225 -2.125681,2.863606 -3.58789,3.849609 a 9.2697263,5.3474949 0 0 1 -0.0078,0.0059 9.2697263,5.3474949 0 0 1 -7.478515,2.195312 9.2697263,5.3474949 0 0 1 -0.494141,-0.01367 c -0.143372,-0.0027 -0.287752,-0.0052 -0.417969,-0.01367 -0.0042,-2.75e-4 -0.0075,2.81e-4 -0.01172,0 A 9.2697263,5.3474949 0 0 1 47.183606,44.5977 c -0.03798,-0.01722 -0.07016,-0.02943 -0.07227,-0.01367 -0.04896,0.36726 0.838295,1.881899 2.621094,3.302735 0.623001,0.496513 1.490619,0.932191 2.33789,1.396484 0.848775,0.473049 1.82549,0.68373 2.884766,0.84375 1.944411,0.293732 4.149478,0.178546 6.169922,-0.521484 2.018109,-0.699222 3.852091,-1.982745 5.119141,-3.679688 1.273158,-1.705125 2.7464,-4.299407 2.863281,-6.171875 z"
   style="fill:#388442;fill-opacity:1;fill-rule:nonzero;stroke:none;stroke-width:0.13333333" /></g></g></svg>