<?xml version="1.0" encoding="UTF-8" standalone="no"?>
<svg
   xmlns:dc="http://purl.org/dc/elements/1.1/"
   xmlns:cc="http://creativecommons.org/ns#"
   xmlns:rdf="http://www.w3.org/1999/02/22-rdf-syntax-ns#"
   xmlns:svg="http://www.w3.org/2000/svg"
   xmlns="http://www.w3.org/2000/svg"
   version="1.1"
   id="svg2"
   xml:space="preserve"
   width="64"
   height="64"
   viewBox="0 0 63.999998 64.000001"><metadata
     id="metadata8"><rdf:RDF><cc:Work
         rdf:about=""><dc:format>image/svg+xml</dc:format><dc:type
           rdf:resource="http://purl.org/dc/dcmitype/StillImage" /><dc:title></dc:title></cc:Work></rdf:RDF></metadata><defs
     id="defs6" /><g
     id="g10"
     transform="matrix(1.3333333,0,0,-1.3333333,1.8391232,91.181901)"><g
       id="g12"
       transform="scale(0.1)"
       style="display:inline"><g
   aria-label="BOSS"
   transform="matrix(1.0093894,0,0,-0.99435547,-0.04372098,-1.0117755)"
   style="font-style:normal;font-variant:normal;font-weight:normal;font-stretch:normal;font-size:416.32217407px;line-height:125%;font-family:'DejaVu Sans';-inkscape-font-specification:'DejaVu Sans';letter-spacing:0px;word-spacing:0px;fill:#86cf3c;fill-opacity:1;stroke:none;stroke-width:10.4080534px;stroke-linecap:butt;stroke-linejoin:miter;stroke-opacity:1"
   id="text849"><path
     d="m 151.82069,-431.04438 v 143.68722 h 85.10907 q 42.8172,0 63.30642,-17.59972 20.75191,-17.86239 20.75191,-54.37523 0,-36.77552 -20.75191,-54.11255 -20.48922,-17.59972 -63.30642,-17.59972 z m 0,-161.28691 v 118.20703 h 78.54201 q 38.87697,0 57.7901,-14.44753 19.17581,-14.71021 19.17581,-44.65599 0,-29.6831 -19.17581,-44.39331 -18.91313,-14.7102 -57.7901,-14.7102 z M 98.758868,-635.93656 H 234.30292 q 60.67962,0 93.51491,25.2175 32.83528,25.21751 32.83528,71.71226 0,35.98748 -16.81167,57.26475 -16.81167,21.27727 -49.38427,26.5309 39.13966,8.40584 60.67961,35.19943 21.80263,26.53092 21.80263,66.45862 0,52.53646 -35.7248,81.16882 -35.72478,28.63237 -101.65804,28.63237 H 98.758868 Z"
     style="fill:#86cf3c;fill-opacity:1;stroke-width:13.44933128px"
     id="path830" /></g>
</g></g></svg>