<?xml version="1.0" encoding="UTF-8" standalone="no"?>
<!-- Created with Inkscape (http://www.inkscape.org/) -->

<svg
   xmlns:dc="http://purl.org/dc/elements/1.1/"
   xmlns:cc="http://creativecommons.org/ns#"
   xmlns:rdf="http://www.w3.org/1999/02/22-rdf-syntax-ns#"
   xmlns:svg="http://www.w3.org/2000/svg"
   xmlns="http://www.w3.org/2000/svg"
   xmlns:sodipodi="http://sodipodi.sourceforge.net/DTD/sodipodi-0.dtd"
   xmlns:inkscape="http://www.inkscape.org/namespaces/inkscape"
   version="1.1"
   id="svg2"
   xml:space="preserve"
   width="226"
   height="86.666664"
   viewBox="0 0 226 86.666664"
   sodipodi:docname="VF.svg"
   inkscape:version="0.92.3 (2405546, 2018-03-11)"><metadata
     id="metadata8"><rdf:RDF><cc:Work
         rdf:about=""><dc:format>image/svg+xml</dc:format><dc:type
           rdf:resource="http://purl.org/dc/dcmitype/StillImage" /><dc:title></dc:title></cc:Work></rdf:RDF></metadata><defs
     id="defs6" /><sodipodi:namedview
     pagecolor="#ffffff"
     bordercolor="#666666"
     borderopacity="1"
     objecttolerance="10"
     gridtolerance="10"
     guidetolerance="10"
     inkscape:pageopacity="0"
     inkscape:pageshadow="2"
     inkscape:window-width="1868"
     inkscape:window-height="1016"
     id="namedview4"
     showgrid="false"
     inkscape:zoom="5.4440965"
     inkscape:cx="61.927017"
     inkscape:cy="45.982863"
     inkscape:window-x="52"
     inkscape:window-y="27"
     inkscape:window-maximized="1"
     inkscape:current-layer="g12" /><g
     id="g10"
     inkscape:groupmode="layer"
     inkscape:label="ink_ext_XXXXXX"
     transform="matrix(1.3333333,0,0,-1.3333333,0,86.666667)"><g
       id="g12"
       transform="scale(0.1)"><g
         id="g14"
         transform="scale(10)"><text
           transform="matrix(1,1e-8,-1e-8,-1,2,5.15625)"
           style="font-variant:normal;font-weight:normal;font-size:15px;font-family:Arial;-inkscape-font-specification:ArialMT;writing-mode:lr-tb;fill:#3b6abc;fill-opacity:1;fill-rule:nonzero;stroke:none"
           id="text18"><tspan
             x="0 10.005 18.344999 26.684999 31.68 39.18 47.52 51.689999 55.860001 66.690002 70.019997 77.519997 85.027344 93.369141 100.86914 109.21094 113.3961 117.56407 121.73106 131.73607 140.07884 148.42062 153.41563 161.75841"
             y="0"
             sodipodi:role="line"
             id="tspan16">Search. Discover. Share.</tspan></text>
</g><path
         d="m 413.69002,383.30592 c -40.24,0 -72.85,27.602 -72.85,61.652 0,20.551 11.94,38.704 30.2,49.899 -28.11,-8.551 -48.24,-31.227 -48.24,-57.969 0,-34.027 32.6,-61.652 72.86,-61.652 15.96,0 30.67,4.39 42.66,11.754 -7.69,-2.332 -15.97,-3.684 -24.63,-3.684"
         style="fill:#388442;fill-opacity:1;fill-rule:nonzero;stroke:none"
         id="path20"
         inkscape:connector-curvature="0" /><path
         d="m 498.75569,358.80765 -41.68285,-18.72048 86.38453,-101.03012 41.68285,18.72048 -86.38453,101.03012"
         style="fill:#388442;fill-opacity:1;fill-rule:nonzero;stroke:none"
         id="path34"
         inkscape:connector-curvature="0" /><g
         aria-label="BOSS"
         transform="scale(1.0290702,-0.97175099)"
         style="font-style:normal;font-weight:normal;font-size:383.69650269px;line-height:125%;font-family:Sans;letter-spacing:0px;word-spacing:0px;fill:#86cf3c;fill-opacity:1;stroke:none;stroke-width:9.59241295px;stroke-linecap:butt;stroke-linejoin:miter;stroke-opacity:1"
         id="text3744"><path
           d="m 69.134123,-423.85174 v 102.48144 h 60.701987 q 30.53834,0 45.15178,-12.55257 14.8008,-12.73992 14.8008,-38.78182 0,-26.22926 -14.8008,-38.59448 -14.61344,-12.55257 -45.15178,-12.55257 z m 0,-115.03401 v 84.30832 h 56.018187 q 27.72807,0 41.2174,-10.30435 13.67668,-10.4917 13.67668,-31.84981 0,-21.17075 -13.67668,-31.66246 -13.48933,-10.4917 -41.2174,-10.4917 z m -37.845065,-31.1004 h 96.673532 q 43.27827,0 66.69724,17.98578 23.41898,17.98577 23.41898,51.14704 0,25.6672 -11.99051,40.84269 -11.99052,15.1755 -35.22214,18.92254 27.91541,5.99525 43.27826,25.10514 15.5502,18.92253 15.5502,47.40001 0,37.47036 -25.47984,57.89171 -25.47985,20.42134 -72.50515,20.42134 H 31.289058 Z"
           style="fill:#86cf3c;fill-opacity:1;stroke-width:9.59241295px"
           id="path3950" /><path
           d="m 394.46065,-554.99543 q -41.2124,0 -65.56519,24.2678 -24.16545,24.26779 -24.16545,66.14452 0,41.72876 24.16545,65.99656 24.35279,24.26779 65.56519,24.26779 41.21241,0 65.19053,-24.26779 24.16546,-24.2678 24.16546,-65.99656 0,-41.87673 -24.16546,-66.14452 -23.97812,-24.2678 -65.19053,-24.2678 z m 0,-24.26778 q 58.82134,0 94.03922,31.22258 35.21787,31.07461 35.21787,83.45752 0,52.23494 -35.21787,83.45753 -35.21788,31.07461 -94.03922,31.07461 -59.00867,0 -94.41387,-31.07461 -35.21788,-31.07461 -35.21788,-83.45753 0,-52.38291 35.21788,-83.45752 35.4052,-31.22258 94.41387,-31.22258 z"
           style="font-size:383.65002441px;line-height:218.99998188%;stroke-width:8.52547169px"
           id="path3952"
           inkscape:connector-curvature="0" /><path
           d="m 763.98541,-560.80591 v 36.90831 q -21.54546,-10.30435 -40.65535,-15.36285 -19.10988,-5.0585 -36.9083,-5.0585 -30.91305,0 -47.77471,11.99052 -16.67431,11.99051 -16.67431,34.09803 0,18.54782 11.05375,28.10277 11.24111,9.36759 42.34151,15.17549 l 22.85692,4.6838 q 42.34151,8.05613 62.38815,28.47747 20.234,20.234 20.234,54.33203 0,40.65534 -27.35337,61.63874 -27.16601,20.9834 -79.81187,20.9834 -19.85929,0 -42.3415,-4.49644 -22.29487,-4.49644 -46.2759,-13.30198 v -38.96917 q 23.04427,12.92727 45.15178,19.48459 22.10752,6.55731 43.46562,6.55731 32.41187,0 50.02294,-12.73992 17.61107,-12.73993 17.61107,-36.34626 0,-20.60869 -12.73993,-32.22451 -12.55257,-11.61581 -41.40475,-17.42371 l -23.04427,-4.49645 q -42.34151,-8.43083 -61.26404,-26.4166 -18.92253,-17.98578 -18.92253,-50.02294 0,-37.09565 26.0419,-58.45376 26.22925,-21.35811 72.13045,-21.35811 19.67194,0 40.09328,3.55969 20.42135,3.55968 41.77946,10.67905 z"
           style="fill:#86cf3c;fill-opacity:1;stroke-width:9.59241295px"
           id="path3954" /><path
           d="m 1007.5427,-560.80591 v 36.90831 q -21.54544,-10.30435 -40.65532,-15.36285 -19.10989,-5.0585 -36.90831,-5.0585 -30.91305,0 -47.77471,11.99052 -16.67431,11.99051 -16.67431,34.09803 0,18.54782 11.05375,28.10277 11.24111,9.36759 42.34151,15.17549 l 22.85692,4.6838 q 42.34151,8.05613 62.38817,28.47747 20.234,20.234 20.234,54.33203 0,40.65534 -27.35338,61.63874 -27.16602,20.9834 -79.81187,20.9834 -19.8593,0 -42.34151,-4.49644 -22.29487,-4.49644 -46.2759,-13.30198 v -38.96917 q 23.04427,12.92727 45.15179,19.48459 22.10751,6.55731 43.46562,6.55731 32.41186,0 50.02293,-12.73992 17.61107,-12.73993 17.61107,-36.34626 0,-20.60869 -12.73992,-32.22451 -12.55258,-11.61581 -41.40475,-17.42371 l -23.04428,-4.49645 q -42.3415,-8.43083 -61.26404,-26.4166 -18.92253,-17.98578 -18.92253,-50.02294 0,-37.09565 26.0419,-58.45376 26.22925,-21.35811 72.13045,-21.35811 19.67194,0 40.09328,3.55969 20.42135,3.55968 41.77944,10.67905 z"
           style="fill:#86cf3c;fill-opacity:1;stroke-width:9.59241295px"
           id="path3956" /></g></g></g></svg>