<?xml version="1.0" encoding="utf-8"?>
<!-- Generator: Adobe Illustrator 13.0.0, SVG Export Plug-In . SVG Version: 6.00 Build 14948)  -->
<!DOCTYPE svg PUBLIC "-//W3C//DTD SVG 1.1//EN" "http://www.w3.org/Graphics/SVG/1.1/DTD/svg11.dtd" [
<!ENTITY ns_extend "http://ns.adobe.com/Extensibility/1.0/">
<!ENTITY ns_ai "http://ns.adobe.com/AdobeIllustrator/10.0/">
<!ENTITY ns_graphs "http://ns.adobe.com/Graphs/1.0/">
<!ENTITY ns_vars "http://ns.adobe.com/Variables/1.0/">
<!ENTITY ns_imrep "http://ns.adobe.com/ImageReplacement/1.0/">
<!ENTITY ns_sfw "http://ns.adobe.com/SaveForWeb/1.0/">
<!ENTITY ns_custom "http://ns.adobe.com/GenericCustomNamespace/1.0/">
<!ENTITY ns_adobe_xpath "http://ns.adobe.com/XPath/1.0/">
]>
<svg xmlns="http://www.w3.org/2000/svg" xmlns:default="&ns_sfw;" xmlns:xlink="http://www.w3.org/1999/xlink" version="1.1" width="340" height="67"><svg xmlns:x="&ns_extend;" xmlns:i="&ns_ai;" xmlns:graph="&ns_graphs;" xmlns:xlink="http://www.w3.org/1999/xlink" xmlns:default="&ns_sfw;" version="1.1" id="Ebene_1" x="0" y="0" width="340" height="67" viewBox="0 0 264 52" enable-background="new 0 0 264 52" xml:space="preserve">
<metadata>
	<default:sfw xmlns="&ns_sfw;">
		<default:slices/>
		<default:sliceSourceBounds height="792.001" width="612" y="264.355" x="276" bottomLeftOrigin="true"/>
	</default:sfw>
</metadata>
<g>
	<path fill="#FFFFFF" d="M-13,59.92h289.602V-5.725H-13V59.92L-13,59.92z M-13,59.92"/>
	<g>
		<defs>
			<rect id="SVGID_1_" x="-13" y="-6.082" width="290" height="66"/>
		</defs>
		<defs>
			<path id="SVGID_2_" d="M-13-5.725h289.602V59.92H-13V-5.725L-13-5.725z M-13-5.725"/>
		</defs>
		<defs>
			<rect id="SVGID_3_" x="-13" y="-732.082" width="612" height="792"/>
		</defs>
		<clipPath id="SVGID_4_">
			<use xlink:href="#SVGID_1_" overflow="visible"/>
		</clipPath>
		<clipPath id="SVGID_5_" clip-path="url(#SVGID_4_)">
			<use xlink:href="#SVGID_2_" overflow="visible"/>
		</clipPath>
		<clipPath id="SVGID_6_" clip-path="url(#SVGID_5_)">
			<use xlink:href="#SVGID_3_" overflow="visible"/>
		</clipPath>
		<path clip-path="url(#SVGID_6_)" fill="#231F20" d="M10.406,15.146c1.407,0,3.508,0,6.207,0c4.903,0,6.282,0.254,6.282,3.27    c0,3.769-0.543,5.152-3.684,5.152h-8.895v4.562h8.895c3.391,0,4.187,1.301,4.187,4.652c0,0.043-0.003,0.461-0.003,0.504h5.695    c0-0.043,0.004-0.078,0.004-0.121c0-4.105-1.129-6.96-5.446-7.253v-0.168c4.231-0.418,4.946-3.602,4.946-7.328    c0-8.168-6.031-8.211-11.981-8.211c-4.625,0-9.808,0-11.906,0c0,2.172,0.004,5.683,0.004,10.347l5.695-0.031    C10.406,18.19,10.406,16.424,10.406,15.146"/>
		<path clip-path="url(#SVGID_6_)" fill="#ED1443" d="M4.773,42.119c3.215,0,7.25,0.004,11.84,0.004    c7.86,0,12.313-0.668,12.469-8.914h-5.695c-0.114,3.918-1.801,3.973-6.774,3.973c-2.828,0-3.229-0.023-6.207-0.023V23.569H4.773    V42.119L4.773,42.119z M4.773,42.119"/>
		<path clip-path="url(#SVGID_6_)" fill="#231F20" d="M39.879,31.514h-6.125v1.516c0,9.285,6.293,9.07,13.351,9.07    c5.211,0,9.801,0.023,12.461,0.023c0-2.617-0.003-6.586-0.003-9.914c0-8.253-2.676-8.769-12.5-9.375    c-5.797-0.364-6.883-0.618-7.004-3.872h-6.121c0.281,8.665,5.613,8.547,12.316,8.969c4.762,0.258,7.187-0.347,7.187,4.277    c0,1.695-0.011,3.402-0.011,4.777c-1.27,0-3.27,0.016-6.325,0.016c-5.656,0-7.226-0.258-7.226-3.973V31.514L39.879,31.514z     M39.879,31.514"/>
		<path clip-path="url(#SVGID_6_)" fill="#66C430" d="M52.801,18.948h6.125v-1.039c0-8.508-5.313-8.723-11.821-8.723    c-7.656,0-13.183,0.258-13.183,9.156c0,0.254,0.008,0.496,0.016,0.735h6.121c-0.008-0.231-0.012-0.473-0.012-0.735    c0-3.457,0.976-4.062,7.058-4.062c4.293,0,5.696,0.133,5.696,3.629V18.948L52.801,18.948z M52.801,18.948"/>
		<path clip-path="url(#SVGID_6_)" fill="#231F20" d="M90.152,15.366v-5.188H65.918v5.188h17.434    c-0.254,1.859-7.989,6.969-13.286,12.812h8.473C83.719,23.409,90.043,18.635,90.152,15.366"/>
		<path clip-path="url(#SVGID_6_)" fill="#0994DC" d="M65.207,36.885v5.219h25.16v-5.219H71.941c0.481-2.68,3.387-5.766,6.743-8.839    h-8.496C67.566,30.908,65.512,33.955,65.207,36.885"/>
		<path clip-path="url(#SVGID_6_)" fill="#FCD205" d="M102.965,42.154h5.551V19.143h-5.551V42.154L102.965,42.154z M102.965,42.154"/>
		<path clip-path="url(#SVGID_6_)" fill="#231F20" d="M216.777,36.064c-0.199-0.059-0.418-0.086-0.66-0.086    c-0.66,0-1.207,0.207-1.637,0.621c-0.426,0.414-0.641,0.941-0.641,1.582c0,0.43,0.105,0.82,0.316,1.168    c0.215,0.344,0.508,0.605,0.879,0.781c-0.246,0.152-0.438,0.32-0.57,0.504c-0.133,0.18-0.199,0.359-0.199,0.539    c0,0.109,0.02,0.207,0.063,0.293c0.043,0.09,0.098,0.152,0.172,0.191c-0.262,0.199-0.453,0.398-0.57,0.598    s-0.176,0.426-0.176,0.672c0,0.527,0.238,0.945,0.719,1.25c0.48,0.301,1.145,0.453,1.988,0.453c0.848,0,1.531-0.176,2.043-0.531    c0.512-0.359,0.766-0.824,0.766-1.398c0-0.473-0.207-0.848-0.621-1.125s-1.016-0.441-1.797-0.488    c-0.125-0.008-0.289-0.016-0.492-0.02c-0.52-0.012-0.777-0.121-0.777-0.328c0-0.07,0.027-0.141,0.082-0.207    c0.059-0.066,0.141-0.133,0.25-0.191c0.027,0.004,0.055,0.008,0.082,0.008c0.027,0.004,0.051,0.004,0.07,0.004    c0.66,0,1.195-0.203,1.605-0.609c0.41-0.402,0.617-0.934,0.617-1.59c0-0.145-0.016-0.293-0.047-0.449    c-0.031-0.152-0.074-0.309-0.137-0.473h0.918v-0.891h-1.676C217.164,36.217,216.977,36.123,216.777,36.064 M216.766,37.232    c0.207,0.316,0.309,0.715,0.309,1.195c0,0.375-0.078,0.664-0.23,0.867c-0.156,0.211-0.367,0.313-0.645,0.313    c-0.313,0-0.57-0.16-0.773-0.48s-0.309-0.727-0.309-1.219c0-0.359,0.082-0.641,0.238-0.844c0.16-0.203,0.375-0.305,0.648-0.305    C216.309,36.76,216.563,36.916,216.766,37.232 M217.699,42.4c0.32,0.141,0.48,0.34,0.48,0.598c0,0.273-0.156,0.496-0.465,0.68    c-0.309,0.18-0.699,0.27-1.176,0.27c-0.5,0-0.898-0.094-1.191-0.281c-0.293-0.184-0.441-0.434-0.441-0.75    c0-0.234,0.121-0.414,0.359-0.539s0.59-0.184,1.051-0.184C216.918,42.193,217.379,42.264,217.699,42.4 M210.914,35.803    c-0.035-0.043-0.086-0.063-0.145-0.063c-0.012,0-0.035,0.004-0.059,0.012c-0.027,0.008-0.051,0.016-0.078,0.023l-1.73,0.711    c-0.043,0.02-0.082,0.051-0.113,0.094c-0.031,0.039-0.047,0.078-0.047,0.121c0,0.063,0.02,0.113,0.063,0.152    s0.098,0.059,0.172,0.059l0.324-0.012c0.113,0,0.188,0.02,0.227,0.059c0.039,0.035,0.055,0.113,0.055,0.227v4.012    c0,0.133-0.012,0.223-0.043,0.27s-0.098,0.09-0.203,0.129l-0.348,0.125c-0.09,0.031-0.156,0.066-0.191,0.105    c-0.039,0.039-0.055,0.086-0.055,0.141c0,0.063,0.02,0.109,0.063,0.141s0.102,0.047,0.184,0.047h2.574    c0.078,0,0.141-0.016,0.188-0.047c0.051-0.031,0.074-0.074,0.074-0.129s-0.02-0.105-0.063-0.148    c-0.039-0.043-0.105-0.078-0.199-0.109l-0.332-0.125c-0.109-0.039-0.184-0.082-0.215-0.129s-0.047-0.137-0.047-0.27v-2.895    c0-0.227,0.031-0.418,0.094-0.574s0.164-0.289,0.301-0.398c0.09-0.066,0.184-0.121,0.289-0.152    c0.102-0.035,0.207-0.055,0.313-0.055h0.047l0.383,0.785c0.039,0.09,0.098,0.16,0.176,0.215s0.156,0.082,0.238,0.082    c0.094,0,0.176-0.039,0.238-0.113c0.063-0.078,0.094-0.184,0.094-0.313v-0.098l-0.164-1.645c-0.004,0-0.016,0-0.035-0.004    c-0.16-0.031-0.273-0.043-0.348-0.043c-0.285,0-0.57,0.066-0.852,0.203c-0.281,0.141-0.539,0.336-0.773,0.59v-0.816    C210.969,35.896,210.949,35.842,210.914,35.803 M207.277,36.74c-0.434-0.508-1-0.762-1.707-0.762c-0.781,0-1.453,0.316-2.02,0.949    s-0.848,1.398-0.848,2.297c0,0.887,0.262,1.617,0.785,2.191c0.527,0.574,1.203,0.859,2.023,0.859c0.59,0,1.137-0.184,1.641-0.551    s0.758-0.695,0.758-0.984c0-0.07-0.016-0.121-0.043-0.152c-0.031-0.031-0.074-0.047-0.133-0.047    c-0.797,0.488-1.414,0.734-1.852,0.734c-0.473,0-0.867-0.148-1.18-0.445c-0.316-0.297-0.504-0.699-0.563-1.211l3.867-0.77    C207.953,37.951,207.711,37.248,207.277,36.74 M204.141,38.717c0.047-0.59,0.203-1.051,0.465-1.395    c0.258-0.344,0.586-0.512,0.977-0.512c0.281,0,0.52,0.105,0.715,0.324c0.195,0.215,0.297,0.461,0.297,0.742    c0,0.129-0.031,0.227-0.086,0.289c-0.059,0.063-0.16,0.105-0.309,0.137L204.141,38.717L204.141,38.717z M197.898,33.693    c-0.031-0.035-0.09-0.055-0.18-0.055c-0.02,0-0.047,0.008-0.086,0.02c-0.035,0.012-0.074,0.027-0.113,0.043l-1.555,0.688    c-0.074,0.031-0.125,0.063-0.156,0.098s-0.047,0.078-0.047,0.125c0,0.066,0.023,0.113,0.066,0.145    c0.043,0.027,0.117,0.043,0.223,0.043l0.285-0.012c0.078,0,0.141,0.012,0.18,0.035s0.055,0.055,0.055,0.098    c0,0.012,0.004,0.035,0.008,0.066c0.004,0.035,0.004,0.063,0.004,0.086v6.137c0,0.133-0.016,0.223-0.047,0.27    c-0.035,0.047-0.098,0.09-0.199,0.133l-0.324,0.117c-0.094,0.039-0.156,0.078-0.191,0.113c-0.039,0.039-0.059,0.086-0.059,0.137    c0,0.059,0.023,0.102,0.066,0.133c0.043,0.027,0.105,0.043,0.184,0.043h1.938v-0.605c0.211,0.246,0.445,0.43,0.703,0.551    c0.262,0.117,0.547,0.176,0.867,0.176c0.641,0,1.176-0.281,1.605-0.852c0.426-0.566,0.641-1.297,0.641-2.188    c0-0.949-0.227-1.73-0.68-2.336c-0.453-0.609-1.031-0.91-1.73-0.91c-0.289,0-0.555,0.055-0.785,0.164    c-0.238,0.113-0.445,0.277-0.621,0.496v-2.727C197.949,33.803,197.934,33.725,197.898,33.693 M199.957,37.514    c0.219,0.414,0.328,0.973,0.328,1.676c0,0.648-0.105,1.168-0.324,1.547c-0.219,0.387-0.508,0.574-0.879,0.574    c-0.367,0-0.648-0.18-0.84-0.539c-0.195-0.359-0.293-0.883-0.293-1.57c0-0.773,0.098-1.352,0.293-1.738    c0.191-0.383,0.48-0.574,0.867-0.574C199.457,36.889,199.738,37.096,199.957,37.514 M187.68,35.803    c-0.035-0.043-0.086-0.063-0.145-0.063c-0.012,0-0.031,0.004-0.059,0.012s-0.051,0.016-0.074,0.023l-1.73,0.711    c-0.047,0.02-0.086,0.051-0.117,0.094c-0.031,0.039-0.047,0.078-0.047,0.121c0,0.063,0.02,0.113,0.063,0.152    s0.102,0.059,0.172,0.059l0.324-0.012c0.113,0,0.188,0.02,0.227,0.059c0.039,0.035,0.059,0.113,0.059,0.227v4.012    c0,0.133-0.016,0.223-0.047,0.27s-0.098,0.09-0.203,0.129l-0.348,0.125c-0.094,0.035-0.164,0.07-0.203,0.105    c-0.035,0.039-0.059,0.086-0.059,0.141c0,0.063,0.027,0.109,0.074,0.141c0.043,0.031,0.109,0.047,0.188,0.047h2.477    c0.078,0,0.141-0.016,0.188-0.055c0.051-0.035,0.074-0.082,0.074-0.145c0-0.043-0.016-0.086-0.051-0.121s-0.098-0.074-0.191-0.113    l-0.254-0.098c-0.105-0.043-0.176-0.086-0.211-0.129s-0.051-0.141-0.051-0.285v-2.906c0-0.395,0.102-0.699,0.301-0.922    s0.473-0.336,0.816-0.336c0.285,0,0.504,0.086,0.656,0.258c0.148,0.172,0.223,0.422,0.223,0.75v3.156    c0,0.133-0.016,0.227-0.051,0.277s-0.109,0.094-0.223,0.137l-0.262,0.098c-0.078,0.031-0.137,0.066-0.172,0.102    s-0.051,0.082-0.051,0.133c0,0.063,0.023,0.109,0.07,0.145c0.047,0.039,0.105,0.055,0.18,0.055h2.391    c0.07,0,0.133-0.016,0.18-0.055c0.047-0.035,0.066-0.082,0.066-0.145c0-0.047-0.016-0.09-0.051-0.129    c-0.031-0.035-0.09-0.07-0.172-0.105l-0.262-0.098c-0.109-0.039-0.18-0.082-0.219-0.133c-0.035-0.051-0.055-0.145-0.055-0.281    v-2.906c0-0.395,0.102-0.699,0.305-0.922s0.477-0.336,0.824-0.336c0.289,0,0.504,0.086,0.652,0.258    c0.145,0.172,0.215,0.422,0.215,0.75v3.156c0,0.137-0.016,0.23-0.051,0.281c-0.031,0.051-0.102,0.094-0.207,0.133l-0.262,0.098    c-0.086,0.035-0.145,0.07-0.18,0.105s-0.051,0.078-0.051,0.129c0,0.063,0.023,0.109,0.07,0.145    c0.047,0.039,0.109,0.055,0.191,0.055h2.469c0.082,0,0.145-0.016,0.191-0.043c0.047-0.031,0.07-0.074,0.07-0.133    c0-0.055-0.023-0.105-0.063-0.148s-0.105-0.078-0.199-0.109l-0.332-0.125c-0.109-0.043-0.176-0.09-0.211-0.137    c-0.035-0.051-0.051-0.137-0.051-0.262v-3.32c0-0.605-0.16-1.074-0.473-1.406c-0.316-0.328-0.766-0.492-1.344-0.492    c-0.371,0-0.719,0.082-1.043,0.254c-0.324,0.168-0.598,0.414-0.82,0.727c-0.145-0.313-0.348-0.559-0.617-0.727    c-0.262-0.172-0.57-0.254-0.922-0.254c-0.273,0-0.535,0.063-0.789,0.188c-0.258,0.129-0.504,0.32-0.742,0.57v-0.77    C187.734,35.896,187.715,35.842,187.68,35.803 M184.043,36.74c-0.434-0.508-1-0.762-1.703-0.762c-0.781,0-1.457,0.316-2.023,0.949    s-0.848,1.398-0.848,2.297c0,0.887,0.262,1.617,0.789,2.191c0.523,0.574,1.199,0.859,2.02,0.859c0.59,0,1.141-0.184,1.641-0.551    c0.504-0.367,0.758-0.695,0.758-0.984c0-0.07-0.016-0.121-0.043-0.152s-0.074-0.047-0.133-0.047    c-0.797,0.488-1.414,0.734-1.852,0.734c-0.473,0-0.867-0.148-1.18-0.445c-0.316-0.297-0.504-0.699-0.563-1.211l3.867-0.77    C184.719,37.951,184.477,37.248,184.043,36.74 M180.906,38.717c0.047-0.59,0.203-1.051,0.465-1.395s0.586-0.512,0.98-0.512    c0.277,0,0.516,0.105,0.711,0.324c0.195,0.215,0.297,0.461,0.297,0.742c0,0.129-0.027,0.227-0.086,0.289    c-0.055,0.063-0.16,0.105-0.309,0.137L180.906,38.717L180.906,38.717z M175.801,40.389c0,0.68,0.121,1.168,0.363,1.453    c0.238,0.289,0.637,0.434,1.191,0.434c0.41,0,0.781-0.102,1.121-0.313c0.336-0.207,0.504-0.406,0.504-0.602    c0-0.074-0.023-0.137-0.078-0.184c-0.051-0.051-0.117-0.078-0.195-0.078c-0.031,0-0.16,0.047-0.383,0.137    c-0.227,0.09-0.43,0.137-0.609,0.137c-0.199,0-0.34-0.055-0.422-0.164s-0.125-0.305-0.125-0.582v-3.641h1.254l0.137-0.883h-1.391    v-1.219c0-0.109-0.031-0.191-0.09-0.25c-0.059-0.055-0.145-0.086-0.258-0.086c-0.207,0-0.367,0.18-0.48,0.535    c-0.117,0.352-0.238,0.617-0.367,0.797c-0.148,0.199-0.344,0.371-0.586,0.523c-0.246,0.152-0.367,0.266-0.367,0.344    c0,0.074,0.031,0.129,0.094,0.172s0.148,0.066,0.262,0.066h0.426V40.389L175.801,40.389z M171.664,40.389    c0,0.68,0.117,1.168,0.359,1.453c0.242,0.289,0.641,0.434,1.191,0.434c0.41,0,0.781-0.102,1.121-0.313    c0.34-0.207,0.508-0.406,0.508-0.602c0-0.074-0.027-0.137-0.078-0.184c-0.055-0.051-0.117-0.078-0.195-0.078    c-0.035,0-0.16,0.047-0.387,0.137c-0.223,0.09-0.426,0.137-0.609,0.137c-0.199,0-0.34-0.055-0.422-0.164s-0.125-0.305-0.125-0.582    v-3.641h1.258l0.133-0.883h-1.391v-1.219c0-0.109-0.027-0.191-0.086-0.25c-0.063-0.055-0.145-0.086-0.262-0.086    c-0.203,0-0.367,0.18-0.48,0.535c-0.117,0.352-0.238,0.617-0.367,0.797c-0.145,0.199-0.34,0.371-0.586,0.523    s-0.367,0.266-0.367,0.344c0,0.074,0.031,0.129,0.094,0.172s0.152,0.066,0.266,0.066h0.426V40.389L171.664,40.389z     M168.359,35.803c-0.035-0.043-0.086-0.063-0.145-0.063c-0.012,0-0.031,0.004-0.059,0.012s-0.051,0.016-0.074,0.023l-1.73,0.711    c-0.047,0.02-0.082,0.051-0.117,0.094c-0.031,0.039-0.047,0.078-0.047,0.121c0,0.063,0.02,0.113,0.063,0.152    s0.102,0.059,0.176,0.059l0.32-0.012c0.113,0,0.191,0.02,0.227,0.059c0.039,0.035,0.059,0.113,0.059,0.227v4.012    c0,0.133-0.016,0.223-0.047,0.27c-0.027,0.047-0.098,0.09-0.203,0.129l-0.344,0.125c-0.094,0.031-0.16,0.066-0.195,0.105    s-0.055,0.086-0.055,0.141c0,0.063,0.02,0.109,0.063,0.141s0.105,0.047,0.188,0.047h2.57c0.078,0,0.141-0.016,0.191-0.047    c0.047-0.031,0.07-0.074,0.07-0.129s-0.02-0.105-0.059-0.148s-0.109-0.078-0.203-0.109l-0.332-0.125    c-0.109-0.039-0.18-0.082-0.211-0.129c-0.035-0.047-0.051-0.137-0.051-0.27v-2.895c0-0.227,0.031-0.418,0.094-0.574    s0.164-0.289,0.301-0.398c0.09-0.066,0.188-0.121,0.289-0.152c0.102-0.035,0.207-0.055,0.313-0.055h0.051l0.379,0.785    c0.043,0.09,0.102,0.16,0.18,0.215c0.074,0.055,0.152,0.082,0.234,0.082c0.098,0,0.176-0.039,0.242-0.113    c0.063-0.078,0.094-0.184,0.094-0.313v-0.098l-0.168-1.645c-0.004,0-0.016,0-0.035-0.004c-0.156-0.031-0.273-0.043-0.344-0.043    c-0.289,0-0.574,0.066-0.855,0.203c-0.281,0.141-0.539,0.336-0.773,0.59v-0.816C168.414,35.896,168.398,35.842,168.359,35.803     M160.746,33.732c-0.152,0.148-0.227,0.32-0.227,0.516c0,0.211,0.074,0.391,0.223,0.535c0.145,0.148,0.324,0.223,0.535,0.223    s0.387-0.07,0.531-0.215s0.215-0.324,0.215-0.543c0-0.203-0.074-0.379-0.223-0.523c-0.145-0.145-0.32-0.219-0.523-0.219    S160.898,33.58,160.746,33.732 M163.016,33.729c-0.152,0.148-0.227,0.32-0.227,0.52c0,0.211,0.07,0.391,0.219,0.535    c0.145,0.148,0.32,0.223,0.527,0.223c0.215,0,0.395-0.07,0.535-0.215s0.211-0.324,0.211-0.543c0-0.203-0.074-0.379-0.219-0.523    s-0.32-0.219-0.527-0.219C163.336,33.506,163.164,33.58,163.016,33.729 M161.258,36.045c-0.035-0.047-0.082-0.066-0.145-0.066    c-0.004,0-0.016,0-0.035,0.008s-0.059,0.023-0.117,0.047l-1.711,0.703c-0.043,0.02-0.082,0.047-0.113,0.086    s-0.043,0.082-0.043,0.125c0,0.063,0.02,0.109,0.059,0.145c0.043,0.039,0.102,0.055,0.176,0.055h0.324    c0.113,0,0.188,0.02,0.227,0.059c0.039,0.035,0.059,0.109,0.059,0.215v2.625c0,0.746,0.156,1.309,0.473,1.676    c0.316,0.371,0.789,0.555,1.426,0.555c0.348,0,0.664-0.066,0.941-0.207s0.492-0.336,0.637-0.586v0.672h1.98    c0.074,0,0.137-0.016,0.188-0.047c0.047-0.031,0.07-0.074,0.07-0.129c0-0.059-0.02-0.109-0.055-0.148s-0.102-0.074-0.191-0.109    l-0.348-0.125c-0.105-0.039-0.172-0.082-0.211-0.121c-0.031-0.043-0.051-0.137-0.051-0.277v-4.984c0-0.066-0.02-0.125-0.055-0.168    c-0.035-0.047-0.082-0.066-0.145-0.066c-0.008,0-0.027,0.004-0.059,0.016c-0.031,0.016-0.059,0.023-0.078,0.031l-1.641,0.688    c-0.047,0.02-0.086,0.051-0.117,0.094c-0.031,0.039-0.047,0.086-0.047,0.129c0,0.066,0.02,0.117,0.063,0.156    s0.102,0.055,0.172,0.055h0.238c0.117,0,0.195,0.02,0.23,0.059c0.035,0.035,0.055,0.109,0.055,0.215v2.41    c0,0.473-0.102,0.832-0.309,1.086c-0.203,0.258-0.492,0.383-0.871,0.383c-0.313,0-0.547-0.094-0.695-0.277    c-0.148-0.188-0.227-0.477-0.227-0.867v-3.941C161.313,36.146,161.297,36.088,161.258,36.045 M147.563,33.701    c-0.07,0.039-0.105,0.098-0.105,0.176c0,0.063,0.02,0.113,0.059,0.152s0.105,0.078,0.203,0.109l0.371,0.137    c0.164,0.059,0.281,0.215,0.352,0.469l2.074,7.473h1.168l1.605-6.5l1.652,6.5h1.176l2.055-7.473c0-0.012,0.008-0.031,0.016-0.059    c0.063-0.219,0.172-0.355,0.336-0.41l0.367-0.137c0.109-0.043,0.184-0.078,0.215-0.117c0.031-0.035,0.047-0.082,0.047-0.145    c0-0.078-0.035-0.137-0.109-0.176c-0.07-0.043-0.176-0.063-0.309-0.063h-1.879c-0.125,0-0.215,0.023-0.277,0.066    s-0.094,0.102-0.094,0.184c0,0.063,0.016,0.109,0.055,0.145c0.035,0.031,0.094,0.063,0.18,0.094l0.293,0.098    c0.059,0.02,0.105,0.047,0.137,0.082c0.031,0.039,0.043,0.082,0.043,0.129c0,0.004,0,0.016-0.004,0.039s-0.016,0.074-0.039,0.16    l-1.449,5.656l-1.43-5.633c-0.016-0.047-0.027-0.094-0.035-0.141c-0.012-0.047-0.016-0.078-0.016-0.094    c0-0.047,0.012-0.078,0.035-0.105c0.027-0.027,0.078-0.059,0.164-0.094l0.25-0.125c0.008-0.004,0.023-0.008,0.043-0.016    c0.129-0.051,0.195-0.129,0.195-0.23c0-0.07-0.035-0.121-0.094-0.156c-0.066-0.039-0.16-0.059-0.285-0.059h-2.148    c-0.133,0-0.23,0.02-0.289,0.059c-0.063,0.035-0.09,0.09-0.09,0.168c0,0.09,0.063,0.16,0.191,0.219    c0.016,0.008,0.031,0.012,0.043,0.016l0.254,0.125c0.074,0.027,0.125,0.059,0.148,0.086c0.027,0.031,0.039,0.066,0.039,0.113    c0,0.059-0.012,0.133-0.035,0.234l-1.391,5.633l-1.395-5.66c-0.008-0.031-0.02-0.074-0.031-0.121    c-0.012-0.051-0.02-0.078-0.02-0.086c0-0.047,0.016-0.09,0.047-0.121s0.074-0.059,0.133-0.078l0.309-0.098    c0.082-0.031,0.145-0.063,0.18-0.094c0.035-0.035,0.055-0.082,0.055-0.145c0-0.082-0.031-0.141-0.094-0.184    s-0.156-0.066-0.281-0.066h-2.27C147.742,33.639,147.633,33.658,147.563,33.701 M144.762,39.666h2.473v-1.238h-2.473V39.666    L144.762,39.666z M139.824,35.803c-0.039-0.039-0.082-0.063-0.137-0.063c-0.023,0-0.047,0.004-0.07,0.008    c-0.027,0.008-0.051,0.016-0.074,0.027l-1.73,0.711c-0.043,0.016-0.082,0.047-0.113,0.094c-0.031,0.043-0.051,0.086-0.051,0.133    c0,0.059,0.023,0.109,0.063,0.145c0.043,0.035,0.102,0.055,0.176,0.055l0.32-0.012c0.109,0,0.184,0.02,0.227,0.059    c0.039,0.043,0.059,0.117,0.059,0.227v4.012c0,0.133-0.016,0.223-0.047,0.27c-0.027,0.047-0.094,0.09-0.199,0.129l-0.348,0.125    c-0.094,0.031-0.156,0.066-0.195,0.105c-0.035,0.039-0.055,0.086-0.055,0.141c0,0.063,0.023,0.109,0.063,0.141    c0.043,0.031,0.105,0.047,0.188,0.047h2.477c0.074,0,0.141-0.016,0.188-0.051s0.074-0.078,0.074-0.137    c0-0.055-0.02-0.102-0.055-0.141c-0.039-0.035-0.098-0.07-0.184-0.105l-0.262-0.098c-0.105-0.043-0.176-0.086-0.207-0.129    c-0.035-0.043-0.051-0.141-0.051-0.285v-2.906c0-0.379,0.109-0.68,0.328-0.91s0.5-0.348,0.836-0.348    c0.289,0,0.516,0.086,0.672,0.262c0.16,0.172,0.238,0.422,0.238,0.746v3.156c0,0.137-0.02,0.23-0.055,0.281    c-0.035,0.047-0.109,0.09-0.219,0.133l-0.262,0.098c-0.086,0.035-0.145,0.07-0.176,0.105c-0.031,0.039-0.047,0.082-0.047,0.129    c0,0.063,0.02,0.109,0.066,0.145c0.043,0.039,0.102,0.055,0.18,0.055h2.484c0.074,0,0.137-0.016,0.18-0.051    c0.047-0.035,0.066-0.078,0.066-0.137c0-0.055-0.016-0.102-0.055-0.141c-0.035-0.039-0.098-0.074-0.191-0.105l-0.348-0.125    c-0.109-0.043-0.18-0.086-0.211-0.129s-0.051-0.133-0.051-0.27v-3.32c0-0.605-0.16-1.074-0.484-1.406    c-0.324-0.328-0.781-0.492-1.379-0.492c-0.297,0-0.582,0.066-0.855,0.207c-0.27,0.141-0.512,0.34-0.719,0.598v-0.816    C139.879,35.9,139.859,35.846,139.824,35.803 M136.188,36.74c-0.434-0.508-1.004-0.762-1.707-0.762    c-0.781,0-1.453,0.316-2.02,0.949c-0.566,0.633-0.852,1.398-0.852,2.297c0,0.887,0.262,1.617,0.789,2.191    c0.528,0.574,1.2,0.859,2.024,0.859c0.59,0,1.137-0.184,1.641-0.551s0.758-0.695,0.758-0.984c0-0.07-0.016-0.121-0.047-0.152    c-0.027-0.031-0.07-0.047-0.133-0.047c-0.797,0.488-1.414,0.734-1.852,0.734c-0.473,0-0.863-0.148-1.18-0.445    c-0.313-0.297-0.5-0.699-0.563-1.211l3.867-0.77C136.863,37.951,136.621,37.248,136.188,36.74 M133.047,38.717    c0.051-0.59,0.207-1.051,0.465-1.395c0.262-0.344,0.59-0.512,0.98-0.512c0.281,0,0.516,0.105,0.715,0.324    c0.195,0.215,0.293,0.461,0.293,0.742c0,0.129-0.027,0.227-0.086,0.289c-0.055,0.063-0.16,0.105-0.309,0.137L133.047,38.717    L133.047,38.717z M130.016,33.697c-0.032-0.039-0.102-0.059-0.196-0.059c-0.015,0-0.039,0.008-0.07,0.016    c-0.031,0.012-0.066,0.027-0.113,0.047l-1.571,0.688c-0.074,0.031-0.125,0.063-0.156,0.098c-0.031,0.035-0.047,0.078-0.047,0.125    c0,0.066,0.024,0.113,0.071,0.145c0.046,0.027,0.125,0.043,0.23,0.043l0.289-0.012c0.078,0,0.137,0.012,0.176,0.035    c0.043,0.023,0.062,0.055,0.062,0.098c0,0.012,0,0.035,0.004,0.066c0.004,0.035,0.008,0.063,0.008,0.086v1.578    c-0.152-0.215-0.344-0.379-0.578-0.492s-0.504-0.168-0.805-0.168c-0.711,0-1.293,0.301-1.754,0.906s-0.691,1.371-0.691,2.305    c0,0.918,0.211,1.66,0.641,2.227c0.429,0.566,0.98,0.848,1.656,0.848c0.305,0,0.586-0.063,0.848-0.188    c0.261-0.125,0.488-0.309,0.683-0.551v0.617h1.938c0.07,0,0.129-0.016,0.175-0.051c0.047-0.035,0.071-0.074,0.071-0.125    c0-0.055-0.016-0.102-0.055-0.137c-0.035-0.039-0.102-0.074-0.191-0.113l-0.325-0.117c-0.097-0.043-0.16-0.082-0.195-0.129    c-0.035-0.043-0.051-0.137-0.051-0.273v-7.285C130.07,33.807,130.051,33.732,130.016,33.697 M128.422,37.455    c0.187,0.379,0.281,0.973,0.281,1.781c0,0.68-0.098,1.195-0.297,1.547c-0.195,0.352-0.484,0.527-0.863,0.527    c-0.355,0-0.641-0.195-0.855-0.586c-0.215-0.395-0.321-0.922-0.321-1.594c0-0.684,0.106-1.227,0.324-1.633    c0.215-0.406,0.5-0.609,0.852-0.609C127.941,36.889,128.234,37.076,128.422,37.455 M119.344,37.58    c-0.004,0.012-0.008,0.023-0.008,0.031c-0.012,0.059-0.016,0.102-0.016,0.133c0,0.109,0.032,0.195,0.094,0.262    c0.063,0.063,0.149,0.094,0.25,0.094c0.09,0,0.168-0.023,0.234-0.074c0.067-0.051,0.129-0.129,0.18-0.234l0.242-0.496    c0.055-0.102,0.157-0.18,0.309-0.238c0.156-0.055,0.348-0.086,0.578-0.086c0.324,0,0.559,0.066,0.707,0.195    c0.149,0.129,0.223,0.336,0.223,0.613v0.438c-1.11,0.258-1.91,0.578-2.399,0.957c-0.488,0.383-0.734,0.871-0.734,1.465    c0,0.465,0.152,0.855,0.465,1.168c0.308,0.313,0.695,0.469,1.156,0.469c0.301,0,0.582-0.059,0.848-0.176    c0.261-0.121,0.484-0.289,0.664-0.504v0.559h1.883c0.105,0,0.183-0.016,0.234-0.043c0.047-0.031,0.074-0.082,0.074-0.156    c-0.008-0.063-0.027-0.113-0.062-0.152c-0.036-0.035-0.106-0.074-0.211-0.109l-0.336-0.121c-0.125-0.043-0.199-0.098-0.223-0.156    c-0.023-0.063-0.035-0.18-0.035-0.352V37.92c0-0.637-0.18-1.117-0.535-1.449c-0.352-0.328-0.867-0.492-1.543-0.492    c-0.309,0-0.61,0.043-0.91,0.125c-0.301,0.086-0.602,0.215-0.903,0.383L119.344,37.58L119.344,37.58z M122.137,40.256    c0,0.344-0.086,0.613-0.25,0.813c-0.164,0.195-0.391,0.293-0.68,0.293c-0.23,0-0.422-0.078-0.57-0.227    c-0.149-0.152-0.227-0.348-0.227-0.582c0-0.324,0.137-0.602,0.41-0.836c0.274-0.23,0.711-0.441,1.317-0.633V40.256L122.137,40.256    z M111.824,33.697c-0.051,0.035-0.074,0.082-0.074,0.145c0,0.055,0.023,0.105,0.063,0.148c0.039,0.043,0.105,0.078,0.199,0.109    l0.406,0.137c0.105,0.031,0.172,0.07,0.203,0.121c0.031,0.047,0.047,0.129,0.047,0.242v6.598c0,0.109-0.016,0.188-0.043,0.234    s-0.098,0.09-0.207,0.129l-0.406,0.133c-0.094,0.035-0.16,0.07-0.199,0.113c-0.04,0.043-0.063,0.094-0.063,0.148    c0,0.066,0.023,0.113,0.074,0.148c0.047,0.035,0.114,0.051,0.199,0.051h2.825c1.125,0,1.972-0.211,2.535-0.633    c0.562-0.422,0.844-1.059,0.844-1.902c0-0.547-0.161-1.008-0.477-1.383c-0.316-0.379-0.766-0.637-1.352-0.777    c0.438-0.195,0.766-0.441,0.989-0.746c0.218-0.301,0.332-0.652,0.332-1.059c0-0.664-0.235-1.164-0.696-1.504    c-0.46-0.34-1.14-0.512-2.043-0.512h-2.957C111.938,33.639,111.871,33.658,111.824,33.697 M114.871,34.541    c0.442,0,0.774,0.102,0.996,0.309c0.223,0.203,0.332,0.516,0.332,0.926c0,0.43-0.117,0.754-0.351,0.977    c-0.235,0.219-0.578,0.328-1.028,0.328h-0.707v-2.539H114.871L114.871,34.541z M114.945,37.967c0.582,0,1.02,0.137,1.313,0.414    c0.293,0.277,0.441,0.684,0.441,1.227c0,0.531-0.148,0.938-0.445,1.227c-0.297,0.285-0.715,0.43-1.262,0.43h-0.25    c-0.285,0-0.465-0.02-0.531-0.063c-0.066-0.039-0.098-0.133-0.098-0.277v-2.957H114.945L114.945,37.967z M114.945,37.967"/>
		<path clip-path="url(#SVGID_6_)" fill="#231F20" d="M251.359,22.292c-0.035-0.043-0.082-0.063-0.145-0.063    c-0.012,0-0.031,0.004-0.059,0.012c-0.023,0.008-0.051,0.015-0.074,0.027l-1.73,0.707c-0.047,0.024-0.082,0.051-0.117,0.094    c-0.031,0.039-0.047,0.078-0.047,0.121c0,0.063,0.02,0.113,0.063,0.152s0.102,0.059,0.176,0.059l0.32-0.012    c0.113,0,0.188,0.02,0.227,0.059s0.059,0.113,0.059,0.226v4.012c0,0.133-0.016,0.223-0.047,0.27    c-0.031,0.046-0.098,0.09-0.203,0.132l-0.344,0.121c-0.098,0.035-0.164,0.07-0.203,0.109c-0.039,0.035-0.059,0.082-0.059,0.137    c0,0.063,0.023,0.109,0.07,0.141c0.047,0.035,0.109,0.051,0.191,0.051h2.473c0.078,0,0.141-0.02,0.191-0.055    c0.047-0.039,0.07-0.086,0.07-0.148c0-0.043-0.016-0.082-0.051-0.121c-0.035-0.035-0.098-0.074-0.191-0.113l-0.254-0.098    c-0.105-0.043-0.176-0.082-0.211-0.128c-0.035-0.043-0.051-0.137-0.051-0.285v-2.906c0-0.395,0.102-0.7,0.301-0.922    c0.199-0.223,0.473-0.336,0.816-0.336c0.289,0,0.508,0.086,0.656,0.258c0.148,0.171,0.223,0.421,0.223,0.75v3.156    c0,0.133-0.016,0.226-0.051,0.277s-0.109,0.094-0.223,0.137l-0.258,0.098c-0.082,0.031-0.141,0.066-0.176,0.102    c-0.031,0.035-0.051,0.082-0.051,0.133c0,0.063,0.023,0.109,0.07,0.148c0.047,0.035,0.105,0.055,0.18,0.055h2.391    c0.074,0,0.133-0.02,0.18-0.055c0.047-0.039,0.07-0.086,0.07-0.148c0-0.047-0.02-0.09-0.055-0.125    c-0.031-0.039-0.09-0.074-0.172-0.109l-0.258-0.098c-0.109-0.039-0.184-0.082-0.219-0.133c-0.039-0.051-0.059-0.141-0.059-0.281    v-2.906c0-0.395,0.105-0.7,0.305-0.922c0.203-0.223,0.48-0.336,0.828-0.336c0.285,0,0.504,0.086,0.648,0.258    c0.145,0.171,0.219,0.421,0.219,0.75v3.156c0,0.14-0.02,0.23-0.051,0.281c-0.035,0.051-0.105,0.094-0.211,0.133l-0.262,0.098    c-0.086,0.035-0.145,0.07-0.18,0.105c-0.031,0.035-0.051,0.078-0.051,0.129c0,0.063,0.023,0.109,0.07,0.148    c0.047,0.035,0.109,0.055,0.191,0.055h2.469c0.082,0,0.145-0.016,0.191-0.047s0.07-0.074,0.07-0.133    c0-0.055-0.02-0.105-0.059-0.145c-0.043-0.043-0.109-0.082-0.203-0.113l-0.332-0.121c-0.105-0.047-0.176-0.093-0.211-0.14    c-0.035-0.051-0.051-0.137-0.051-0.262v-3.32c0-0.606-0.156-1.074-0.473-1.406c-0.316-0.329-0.762-0.493-1.344-0.493    c-0.371,0-0.719,0.086-1.043,0.254c-0.324,0.172-0.598,0.414-0.82,0.731c-0.145-0.317-0.352-0.559-0.613-0.731    c-0.266-0.168-0.574-0.254-0.926-0.254c-0.273,0-0.535,0.063-0.789,0.192c-0.254,0.125-0.504,0.316-0.742,0.566v-0.769    C251.414,22.385,251.398,22.331,251.359,22.292 M244.258,22.534c-0.035-0.043-0.086-0.067-0.145-0.067    c-0.004,0-0.016,0.004-0.035,0.008c-0.023,0.008-0.059,0.024-0.117,0.047l-1.711,0.703c-0.043,0.02-0.082,0.051-0.113,0.086    c-0.027,0.039-0.043,0.082-0.043,0.125c0,0.063,0.02,0.11,0.059,0.149c0.039,0.035,0.102,0.054,0.176,0.054h0.324    c0.109,0,0.188,0.016,0.227,0.055c0.039,0.035,0.059,0.109,0.059,0.219v2.621c0,0.746,0.156,1.304,0.473,1.675    s0.789,0.559,1.426,0.559c0.348,0,0.66-0.07,0.941-0.211c0.277-0.141,0.488-0.336,0.637-0.586v0.676h1.977    c0.078,0,0.141-0.016,0.191-0.051c0.047-0.031,0.07-0.074,0.07-0.129c0-0.059-0.016-0.109-0.055-0.145    c-0.035-0.039-0.102-0.078-0.191-0.113l-0.348-0.121c-0.105-0.042-0.176-0.082-0.211-0.125c-0.031-0.042-0.051-0.136-0.051-0.277    v-4.984c0-0.067-0.016-0.125-0.055-0.168c-0.035-0.043-0.086-0.067-0.145-0.067c-0.008,0-0.027,0.004-0.059,0.016    c-0.031,0.016-0.059,0.023-0.082,0.031l-1.637,0.688c-0.047,0.019-0.082,0.051-0.117,0.094c-0.035,0.042-0.047,0.085-0.047,0.128    c0,0.067,0.02,0.118,0.063,0.157s0.102,0.058,0.172,0.058h0.238c0.117,0,0.195,0.016,0.23,0.055    c0.035,0.035,0.055,0.109,0.055,0.219v2.406c0,0.473-0.102,0.832-0.305,1.09c-0.207,0.254-0.496,0.379-0.871,0.379    c-0.316,0-0.551-0.09-0.699-0.278c-0.152-0.187-0.227-0.476-0.227-0.867v-3.941C244.313,22.635,244.297,22.577,244.258,22.534     M239.551,22.292c-0.039-0.043-0.086-0.063-0.148-0.063c-0.012,0-0.031,0.004-0.055,0.012c-0.027,0.008-0.055,0.015-0.078,0.027    l-1.73,0.707c-0.043,0.024-0.082,0.051-0.113,0.094c-0.031,0.039-0.051,0.078-0.051,0.121c0,0.063,0.023,0.113,0.066,0.152    c0.039,0.039,0.098,0.059,0.172,0.059l0.32-0.012c0.113,0,0.191,0.02,0.23,0.059c0.035,0.039,0.055,0.113,0.055,0.226v4.012    c0,0.133-0.016,0.223-0.043,0.27c-0.031,0.046-0.098,0.09-0.203,0.132l-0.348,0.121c-0.094,0.031-0.16,0.066-0.195,0.105    s-0.055,0.086-0.055,0.141c0,0.063,0.023,0.109,0.066,0.141c0.039,0.035,0.102,0.051,0.184,0.051h2.574    c0.074,0,0.141-0.016,0.188-0.051c0.051-0.031,0.074-0.074,0.074-0.129s-0.02-0.105-0.063-0.145    c-0.039-0.043-0.105-0.082-0.199-0.113l-0.336-0.121c-0.105-0.042-0.18-0.086-0.211-0.132c-0.031-0.047-0.047-0.137-0.047-0.27    v-2.894c0-0.227,0.027-0.418,0.094-0.575c0.063-0.156,0.16-0.289,0.297-0.398c0.09-0.066,0.188-0.117,0.289-0.152    c0.105-0.036,0.211-0.055,0.313-0.055h0.051l0.383,0.785c0.039,0.09,0.098,0.16,0.176,0.215c0.074,0.055,0.156,0.082,0.234,0.082    c0.098,0,0.18-0.039,0.242-0.117c0.063-0.074,0.094-0.18,0.094-0.309v-0.097l-0.164-1.645c-0.004,0-0.016,0-0.039-0.004    c-0.156-0.027-0.273-0.043-0.344-0.043c-0.285,0-0.57,0.07-0.852,0.207c-0.281,0.137-0.539,0.332-0.773,0.586v-0.816    C239.605,22.385,239.586,22.331,239.551,22.292 M233.887,26.877c0,0.679,0.121,1.164,0.359,1.457    c0.242,0.289,0.641,0.434,1.195,0.434c0.406,0,0.781-0.105,1.117-0.313c0.34-0.211,0.508-0.409,0.508-0.605    c0-0.07-0.023-0.133-0.078-0.183c-0.055-0.051-0.117-0.079-0.195-0.079c-0.031,0-0.16,0.047-0.383,0.137    c-0.227,0.09-0.43,0.137-0.613,0.137c-0.195,0-0.34-0.055-0.422-0.164c-0.082-0.11-0.125-0.305-0.125-0.582v-3.641h1.258    l0.133-0.883h-1.391v-1.218c0-0.11-0.027-0.192-0.086-0.25c-0.059-0.055-0.145-0.082-0.258-0.082c-0.207,0-0.367,0.175-0.48,0.531    c-0.117,0.351-0.238,0.617-0.371,0.797c-0.145,0.199-0.34,0.375-0.586,0.523c-0.242,0.153-0.367,0.266-0.367,0.344    c0,0.074,0.035,0.133,0.098,0.172c0.063,0.043,0.148,0.066,0.262,0.066h0.426V26.877L233.887,26.877z M228.426,22.292    c-0.039-0.039-0.082-0.063-0.137-0.063c-0.023,0-0.047,0.004-0.074,0.012c-0.023,0.004-0.047,0.012-0.07,0.027l-1.73,0.707    c-0.043,0.02-0.082,0.047-0.113,0.094c-0.035,0.043-0.051,0.086-0.051,0.133c0,0.058,0.023,0.109,0.066,0.144    c0.039,0.035,0.098,0.055,0.172,0.055l0.32-0.012c0.109,0,0.184,0.02,0.227,0.063c0.039,0.039,0.059,0.113,0.059,0.222v4.012    c0,0.133-0.016,0.223-0.043,0.27c-0.031,0.046-0.102,0.09-0.203,0.132l-0.348,0.121c-0.094,0.031-0.16,0.066-0.195,0.105    s-0.055,0.086-0.055,0.141c0,0.063,0.023,0.109,0.066,0.141c0.039,0.035,0.102,0.051,0.184,0.051h2.477    c0.074,0,0.141-0.02,0.188-0.055c0.047-0.031,0.074-0.078,0.074-0.137c0-0.055-0.02-0.102-0.055-0.137    c-0.039-0.039-0.098-0.074-0.184-0.109l-0.262-0.098c-0.102-0.043-0.176-0.082-0.207-0.128c-0.035-0.043-0.051-0.137-0.051-0.285    v-2.906c0-0.375,0.109-0.68,0.328-0.911c0.223-0.23,0.5-0.347,0.836-0.347c0.293,0,0.516,0.086,0.672,0.262    c0.16,0.175,0.238,0.421,0.238,0.746v3.156c0,0.14-0.02,0.23-0.055,0.281c-0.039,0.047-0.109,0.09-0.219,0.133l-0.262,0.098    c-0.082,0.035-0.145,0.07-0.176,0.109c-0.031,0.035-0.047,0.078-0.047,0.125c0,0.063,0.02,0.109,0.066,0.148    c0.043,0.035,0.105,0.055,0.18,0.055h2.484c0.078,0,0.137-0.02,0.184-0.055c0.043-0.031,0.066-0.078,0.066-0.137    c0-0.055-0.02-0.102-0.055-0.141c-0.039-0.039-0.105-0.074-0.195-0.105l-0.348-0.121c-0.109-0.047-0.18-0.089-0.211-0.132    c-0.035-0.043-0.047-0.133-0.047-0.27v-3.32c0-0.606-0.164-1.074-0.488-1.406c-0.324-0.329-0.781-0.493-1.375-0.493    c-0.301,0-0.586,0.071-0.859,0.207c-0.27,0.141-0.508,0.34-0.719,0.598v-0.816C228.48,22.389,228.461,22.334,228.426,22.292     M224.789,23.229c-0.434-0.508-1.004-0.762-1.707-0.762c-0.781,0-1.453,0.317-2.02,0.95c-0.566,0.632-0.852,1.398-0.852,2.296    c0,0.887,0.266,1.618,0.789,2.192c0.527,0.574,1.199,0.863,2.023,0.863c0.59,0,1.137-0.184,1.641-0.555    c0.504-0.367,0.754-0.695,0.754-0.98c0-0.074-0.012-0.125-0.039-0.156c-0.031-0.031-0.074-0.047-0.137-0.047    c-0.797,0.492-1.414,0.734-1.852,0.734c-0.473,0-0.867-0.148-1.18-0.445c-0.313-0.297-0.5-0.699-0.559-1.211l3.863-0.77    C225.465,24.44,225.223,23.737,224.789,23.229 M221.652,25.206c0.047-0.59,0.199-1.055,0.461-1.395    c0.262-0.344,0.59-0.512,0.98-0.512c0.281,0,0.52,0.106,0.715,0.325c0.195,0.214,0.293,0.464,0.293,0.742    c0,0.129-0.027,0.226-0.086,0.289c-0.055,0.062-0.156,0.109-0.309,0.137L221.652,25.206L221.652,25.206z M213.691,21.689    c-0.012,0.047-0.02,0.09-0.023,0.129c-0.008,0.035-0.012,0.066-0.012,0.09c0,0.097,0.031,0.172,0.086,0.226    c0.055,0.055,0.133,0.082,0.23,0.082c0.066,0,0.125-0.015,0.176-0.046c0.051-0.036,0.113-0.098,0.184-0.192l0.535-0.691    c0.078-0.11,0.152-0.18,0.215-0.211c0.066-0.031,0.176-0.047,0.328-0.047h1.93l-4.301,7.617h5.656l0.406-1.641    c0.012-0.039,0.023-0.082,0.031-0.128c0.008-0.043,0.012-0.079,0.012-0.11c0-0.109-0.027-0.187-0.078-0.242    c-0.051-0.051-0.125-0.078-0.227-0.078c-0.063,0-0.125,0.019-0.184,0.055c-0.055,0.035-0.117,0.105-0.188,0.207l-0.547,0.738    c-0.094,0.129-0.176,0.211-0.25,0.25c-0.074,0.035-0.191,0.055-0.355,0.055h-2.277l4.309-7.622h-5.289L213.691,21.689    L213.691,21.689z M209.832,26.155h2.473v-1.238h-2.473V26.155L209.832,26.155z M208.242,23.229c-0.434-0.508-1-0.762-1.703-0.762    c-0.781,0-1.457,0.317-2.023,0.95c-0.566,0.632-0.852,1.398-0.852,2.296c0,0.887,0.266,1.618,0.793,2.192    c0.523,0.574,1.199,0.863,2.02,0.863c0.59,0,1.137-0.184,1.641-0.555c0.504-0.367,0.758-0.695,0.758-0.98    c0-0.074-0.016-0.125-0.043-0.156c-0.027-0.031-0.074-0.047-0.133-0.047c-0.797,0.492-1.414,0.734-1.852,0.734    c-0.473,0-0.867-0.148-1.18-0.445c-0.316-0.297-0.5-0.699-0.563-1.211l3.867-0.77C208.918,24.44,208.676,23.737,208.242,23.229     M205.105,25.206c0.047-0.59,0.203-1.055,0.465-1.395c0.258-0.344,0.586-0.512,0.98-0.512c0.277,0,0.516,0.106,0.711,0.325    c0.199,0.214,0.293,0.464,0.293,0.742c0,0.129-0.027,0.226-0.082,0.289c-0.059,0.062-0.16,0.109-0.313,0.137L205.105,25.206    L205.105,25.206z M201.801,22.588c-0.266-0.082-0.578-0.121-0.945-0.121c-0.836,0-1.535,0.313-2.098,0.938    c-0.566,0.625-0.848,1.414-0.848,2.371c0,0.871,0.25,1.594,0.746,2.16c0.496,0.566,1.121,0.848,1.879,0.848    c0.59,0,1.129-0.188,1.617-0.566s0.73-0.73,0.73-1.05c0-0.067-0.02-0.118-0.055-0.157c-0.039-0.039-0.094-0.058-0.156-0.058    c-0.02,0-0.078,0.039-0.176,0.117c-0.457,0.355-0.922,0.531-1.391,0.531c-0.531,0-0.965-0.215-1.297-0.648    c-0.34-0.434-0.508-0.996-0.508-1.688c0-0.59,0.141-1.062,0.41-1.414c0.273-0.351,0.641-0.527,1.098-0.527    c0.223,0,0.402,0.031,0.535,0.098c0.137,0.062,0.254,0.175,0.355,0.339l0.34,0.532c0.063,0.101,0.121,0.175,0.176,0.214    c0.059,0.04,0.121,0.059,0.195,0.059c0.09,0,0.168-0.031,0.234-0.102c0.066-0.07,0.098-0.144,0.098-0.23    c0-0.008,0-0.023-0.004-0.047c-0.004-0.027-0.016-0.082-0.031-0.168l-0.211-1.055C202.297,22.796,202.066,22.671,201.801,22.588     M195.047,20.424c-0.16,0.164-0.242,0.356-0.242,0.575c0,0.214,0.086,0.406,0.254,0.574s0.355,0.25,0.566,0.25    c0.219,0,0.41-0.082,0.574-0.246s0.246-0.356,0.246-0.578c0-0.227-0.078-0.422-0.238-0.582c-0.156-0.161-0.352-0.239-0.582-0.239    C195.402,20.178,195.211,20.26,195.047,20.424 M196.316,22.538c-0.035-0.047-0.082-0.071-0.133-0.071    c-0.016,0-0.039,0.004-0.063,0.012c-0.027,0.008-0.059,0.02-0.09,0.035l-1.723,0.711c-0.047,0.016-0.082,0.047-0.117,0.086    c-0.031,0.043-0.047,0.09-0.047,0.141c0,0.054,0.02,0.101,0.063,0.133c0.043,0.035,0.102,0.054,0.172,0.054h0.32    c0.117,0,0.191,0.016,0.23,0.055c0.039,0.035,0.059,0.109,0.059,0.219v3.773c0,0.133-0.016,0.223-0.047,0.27    c-0.031,0.046-0.098,0.09-0.203,0.132l-0.348,0.121c-0.09,0.031-0.156,0.066-0.191,0.105c-0.039,0.039-0.055,0.086-0.055,0.141    c0,0.063,0.02,0.109,0.063,0.141c0.043,0.035,0.105,0.051,0.184,0.051h2.574c0.078,0,0.141-0.02,0.188-0.055    c0.051-0.039,0.074-0.082,0.074-0.137s-0.02-0.102-0.059-0.137c-0.039-0.039-0.105-0.074-0.203-0.109l-0.332-0.121    c-0.109-0.047-0.18-0.089-0.215-0.132c-0.031-0.043-0.047-0.133-0.047-0.27v-4.984C196.371,22.639,196.352,22.584,196.316,22.538     M187.676,22.663c-0.059,0.039-0.086,0.093-0.086,0.168c0,0.058,0.016,0.101,0.047,0.136c0.031,0.036,0.09,0.067,0.176,0.094    l0.293,0.078c0.113,0.039,0.191,0.078,0.234,0.121c0.039,0.039,0.086,0.129,0.137,0.262l1.836,5.16h1.094l1.813-5.16    c0.055-0.141,0.105-0.23,0.152-0.273c0.047-0.039,0.121-0.075,0.227-0.11l0.277-0.07c0.086-0.027,0.145-0.055,0.18-0.094    c0.035-0.035,0.051-0.082,0.051-0.144c0-0.075-0.027-0.129-0.086-0.168s-0.145-0.055-0.254-0.055h-1.875    c-0.113,0-0.195,0.016-0.25,0.051c-0.055,0.039-0.082,0.094-0.082,0.172c0,0.058,0.016,0.101,0.047,0.136    c0.031,0.036,0.094,0.067,0.184,0.094l0.254,0.09c0.059,0.023,0.098,0.047,0.117,0.074c0.02,0.028,0.031,0.067,0.031,0.113    c0,0.016-0.004,0.028-0.004,0.043c-0.004,0.02-0.012,0.047-0.023,0.094l-1.188,3.555l-1.148-3.543c0-0.008,0-0.02-0.008-0.035    c-0.012-0.059-0.016-0.094-0.016-0.114c0-0.05,0.012-0.089,0.031-0.121c0.023-0.027,0.059-0.046,0.102-0.066l0.266-0.09    c0.086-0.027,0.148-0.062,0.18-0.098c0.035-0.035,0.051-0.082,0.051-0.132c0-0.078-0.023-0.133-0.078-0.172    c-0.059-0.035-0.141-0.051-0.254-0.051h-2.172C187.82,22.608,187.734,22.624,187.676,22.663 M185.621,22.292    c-0.035-0.043-0.086-0.063-0.145-0.063c-0.012,0-0.031,0.004-0.059,0.012s-0.051,0.015-0.074,0.027l-1.73,0.707    c-0.047,0.024-0.082,0.051-0.117,0.094c-0.031,0.039-0.047,0.078-0.047,0.121c0,0.063,0.023,0.113,0.066,0.152    c0.039,0.039,0.098,0.059,0.172,0.059l0.32-0.012c0.113,0,0.188,0.02,0.227,0.059s0.059,0.113,0.059,0.226v4.012    c0,0.133-0.016,0.223-0.047,0.27c-0.027,0.046-0.098,0.09-0.203,0.132l-0.344,0.121c-0.094,0.031-0.16,0.066-0.195,0.105    c-0.039,0.039-0.055,0.086-0.055,0.141c0,0.063,0.023,0.109,0.066,0.141c0.039,0.035,0.102,0.051,0.184,0.051h2.57    c0.078,0,0.141-0.016,0.191-0.051c0.047-0.031,0.07-0.074,0.07-0.129s-0.02-0.105-0.059-0.145    c-0.043-0.043-0.109-0.082-0.203-0.113l-0.332-0.121c-0.109-0.042-0.18-0.086-0.211-0.132c-0.035-0.047-0.051-0.137-0.051-0.27    v-2.894c0-0.227,0.031-0.418,0.094-0.575c0.063-0.156,0.164-0.289,0.301-0.398c0.09-0.066,0.188-0.117,0.289-0.152    c0.102-0.036,0.207-0.055,0.313-0.055h0.051l0.383,0.785c0.039,0.09,0.098,0.16,0.176,0.215c0.074,0.055,0.152,0.082,0.234,0.082    c0.098,0,0.176-0.039,0.238-0.117c0.063-0.074,0.098-0.18,0.098-0.309v-0.097l-0.168-1.645c-0.004,0-0.016,0-0.035-0.004    c-0.156-0.027-0.273-0.043-0.344-0.043c-0.289,0-0.574,0.07-0.855,0.207c-0.277,0.137-0.539,0.332-0.773,0.586v-0.816    C185.676,22.385,185.66,22.331,185.621,22.292 M181.988,23.229c-0.434-0.508-1.004-0.762-1.707-0.762    c-0.781,0-1.457,0.317-2.02,0.95c-0.566,0.632-0.852,1.398-0.852,2.296c0,0.887,0.262,1.618,0.789,2.192    c0.523,0.574,1.199,0.863,2.02,0.863c0.59,0,1.141-0.184,1.645-0.555c0.504-0.367,0.754-0.695,0.754-0.98    c0-0.074-0.012-0.125-0.043-0.156c-0.027-0.031-0.07-0.047-0.133-0.047c-0.797,0.492-1.414,0.734-1.852,0.734    c-0.473,0-0.867-0.148-1.18-0.445c-0.316-0.297-0.5-0.699-0.563-1.211l3.867-0.77C182.664,24.44,182.418,23.737,181.988,23.229     M178.848,25.206c0.047-0.59,0.203-1.055,0.465-1.395c0.262-0.344,0.59-0.512,0.98-0.512c0.277,0,0.516,0.106,0.715,0.325    c0.195,0.214,0.293,0.464,0.293,0.742c0,0.129-0.027,0.226-0.086,0.289c-0.055,0.062-0.16,0.109-0.309,0.137L178.848,25.206    L178.848,25.206z M175.359,22.584c-0.27-0.079-0.559-0.118-0.875-0.118c-0.617,0-1.121,0.153-1.504,0.461    c-0.379,0.309-0.57,0.707-0.57,1.196c0,0.625,0.57,1.281,1.715,1.972l0.063,0.035c0.359,0.219,0.605,0.407,0.734,0.555    c0.133,0.152,0.199,0.317,0.199,0.488c0,0.235-0.086,0.422-0.254,0.575c-0.172,0.148-0.391,0.222-0.656,0.222    c-0.215,0-0.383-0.035-0.512-0.105c-0.121-0.07-0.227-0.192-0.309-0.36l-0.297-0.664c-0.051-0.109-0.102-0.183-0.152-0.222    c-0.047-0.043-0.105-0.063-0.18-0.063c-0.117,0-0.211,0.039-0.277,0.117c-0.066,0.075-0.102,0.184-0.102,0.321v0.086l0.117,1.218    c0.211,0.156,0.461,0.277,0.746,0.352c0.289,0.078,0.613,0.117,0.977,0.117c0.66,0,1.203-0.172,1.629-0.516    c0.426-0.343,0.637-0.773,0.637-1.281c0-0.39-0.102-0.722-0.309-1.004c-0.203-0.277-0.656-0.629-1.355-1.05    c-0.477-0.293-0.781-0.508-0.906-0.645c-0.129-0.137-0.191-0.277-0.191-0.43c0-0.171,0.07-0.316,0.215-0.425    c0.145-0.114,0.332-0.168,0.566-0.168c0.211,0,0.375,0.031,0.488,0.097c0.117,0.067,0.207,0.176,0.273,0.328l0.188,0.418    c0.051,0.118,0.109,0.204,0.168,0.254c0.063,0.051,0.137,0.075,0.23,0.075c0.09,0,0.172-0.036,0.242-0.102    c0.07-0.07,0.105-0.148,0.105-0.238c0-0.067-0.004-0.121-0.004-0.153c0-0.031-0.004-0.058-0.008-0.078l-0.098-0.91    C175.871,22.784,175.625,22.663,175.359,22.584 M170.223,22.584c-0.266-0.079-0.559-0.118-0.871-0.118    c-0.621,0-1.121,0.153-1.504,0.461c-0.383,0.309-0.574,0.707-0.574,1.196c0,0.625,0.574,1.281,1.719,1.972l0.059,0.035    c0.363,0.219,0.609,0.407,0.738,0.555c0.133,0.152,0.199,0.317,0.199,0.488c0,0.235-0.086,0.422-0.258,0.575    c-0.168,0.148-0.387,0.222-0.656,0.222c-0.211,0-0.383-0.035-0.508-0.105s-0.23-0.192-0.309-0.36l-0.297-0.664    c-0.055-0.109-0.105-0.183-0.152-0.222c-0.051-0.043-0.109-0.063-0.184-0.063c-0.117,0-0.207,0.039-0.273,0.117    c-0.07,0.075-0.102,0.184-0.102,0.321v0.086l0.117,1.218c0.207,0.156,0.457,0.277,0.746,0.352    c0.285,0.078,0.613,0.117,0.977,0.117c0.66,0,1.199-0.172,1.625-0.516c0.426-0.343,0.637-0.773,0.637-1.281    c0-0.39-0.102-0.722-0.305-1.004c-0.203-0.277-0.656-0.629-1.355-1.05c-0.48-0.293-0.781-0.508-0.91-0.645    c-0.125-0.137-0.191-0.277-0.191-0.43c0-0.171,0.074-0.316,0.219-0.425c0.141-0.114,0.332-0.168,0.566-0.168    c0.211,0,0.375,0.031,0.488,0.097c0.113,0.067,0.203,0.176,0.27,0.328l0.188,0.418c0.055,0.118,0.109,0.204,0.172,0.254    c0.059,0.051,0.137,0.075,0.23,0.075c0.09,0,0.168-0.036,0.238-0.102c0.07-0.07,0.105-0.148,0.105-0.238    c0-0.067,0-0.121-0.004-0.153c0-0.031-0.004-0.058-0.008-0.078l-0.098-0.91C170.738,22.784,170.492,22.663,170.223,22.584     M162.254,20.194c-0.031-0.043-0.074-0.063-0.121-0.063c-0.027,0-0.055,0-0.082,0.008c-0.023,0.008-0.051,0.016-0.074,0.028    l-1.719,0.711c-0.047,0.015-0.09,0.043-0.117,0.085c-0.031,0.043-0.047,0.09-0.047,0.137c0,0.063,0.02,0.11,0.059,0.145    c0.043,0.039,0.102,0.054,0.18,0.054l0.309-0.011h0.035c0.098,0,0.168,0.023,0.203,0.062c0.039,0.039,0.059,0.113,0.059,0.223    v6.113c0,0.137-0.016,0.227-0.047,0.27c-0.035,0.043-0.105,0.085-0.215,0.132l-0.344,0.121c-0.09,0.031-0.152,0.066-0.188,0.102    s-0.051,0.086-0.051,0.145c0,0.063,0.023,0.109,0.066,0.141c0.039,0.035,0.102,0.051,0.184,0.051h2.57    c0.078,0,0.141-0.016,0.184-0.051c0.047-0.031,0.066-0.078,0.066-0.141c0-0.055-0.016-0.102-0.055-0.141    c-0.035-0.039-0.098-0.074-0.195-0.105l-0.348-0.121c-0.105-0.042-0.176-0.086-0.211-0.132c-0.035-0.047-0.051-0.137-0.051-0.27    v-2.223h0.102l1.801,2.352c0.039,0.051,0.063,0.094,0.078,0.121c0.016,0.027,0.02,0.055,0.02,0.078    c0,0.032-0.012,0.059-0.039,0.082c-0.023,0.023-0.07,0.043-0.129,0.063l-0.152,0.051c-0.07,0.023-0.121,0.055-0.156,0.098    c-0.039,0.043-0.055,0.09-0.055,0.137c0,0.066,0.023,0.117,0.074,0.148c0.051,0.035,0.121,0.055,0.211,0.055h2.359    c0.129,0,0.227-0.02,0.285-0.059c0.063-0.039,0.09-0.098,0.09-0.18c0-0.059-0.016-0.105-0.051-0.145    c-0.039-0.035-0.113-0.074-0.23-0.117l-0.391-0.121c-0.117-0.039-0.227-0.125-0.328-0.254l-0.008-0.008l-1.93-2.523l1.398-1.695    c0.156-0.192,0.32-0.317,0.484-0.375c0.027-0.008,0.047-0.016,0.063-0.02l0.246-0.09h0.016c0.195-0.066,0.297-0.156,0.297-0.262    c0-0.066-0.027-0.117-0.082-0.148c-0.055-0.031-0.145-0.043-0.266-0.043h-2.227c-0.113,0-0.199,0.016-0.254,0.047    c-0.055,0.031-0.082,0.082-0.082,0.144c0,0.11,0.07,0.192,0.215,0.243c0.008,0.004,0.016,0.007,0.023,0.007l0.223,0.079    c0.043,0.011,0.078,0.035,0.105,0.066c0.027,0.035,0.043,0.066,0.043,0.105c0,0.032-0.035,0.094-0.105,0.188l-0.023,0.031    l-1.523,1.832h-0.102v-4.996C162.305,20.292,162.285,20.237,162.254,20.194 M158.68,23.229c-0.434-0.508-1-0.762-1.703-0.762    c-0.785,0-1.457,0.317-2.023,0.95c-0.566,0.632-0.848,1.398-0.848,2.296c0,0.887,0.262,1.618,0.789,2.192    c0.523,0.574,1.199,0.863,2.02,0.863c0.59,0,1.137-0.184,1.641-0.555c0.504-0.367,0.758-0.695,0.758-0.98    c0-0.074-0.016-0.125-0.043-0.156c-0.031-0.031-0.074-0.047-0.133-0.047c-0.797,0.492-1.414,0.734-1.852,0.734    c-0.477,0-0.867-0.148-1.18-0.445c-0.316-0.297-0.504-0.699-0.563-1.211l3.863-0.77C159.355,24.44,159.113,23.737,158.68,23.229     M155.543,25.206c0.047-0.59,0.203-1.055,0.465-1.395c0.258-0.344,0.586-0.512,0.98-0.512c0.277,0,0.516,0.106,0.711,0.325    c0.195,0.214,0.293,0.464,0.293,0.742c0,0.129-0.027,0.226-0.082,0.289c-0.059,0.062-0.16,0.109-0.309,0.137L155.543,25.206    L155.543,25.206z M149.117,20.189c-0.035-0.039-0.078-0.059-0.137-0.059c-0.023,0-0.047,0-0.074,0.008    c-0.023,0.008-0.047,0.016-0.07,0.028l-1.73,0.711c-0.043,0.015-0.082,0.043-0.117,0.085c-0.031,0.043-0.047,0.09-0.047,0.137    c0,0.059,0.023,0.106,0.07,0.145s0.105,0.054,0.18,0.054l0.309-0.011h0.035c0.098,0,0.168,0.023,0.203,0.062    c0.039,0.039,0.059,0.113,0.059,0.223v6.113c0,0.137-0.016,0.227-0.047,0.27c-0.035,0.043-0.105,0.085-0.215,0.132l-0.344,0.121    c-0.102,0.035-0.168,0.07-0.203,0.105c-0.031,0.035-0.047,0.082-0.047,0.141c0,0.063,0.023,0.109,0.066,0.141    c0.043,0.035,0.105,0.051,0.184,0.051h2.473c0.074,0,0.137-0.02,0.188-0.055c0.051-0.039,0.078-0.082,0.078-0.137    c0-0.059-0.02-0.109-0.055-0.145s-0.09-0.07-0.172-0.102l-0.262-0.098c-0.109-0.039-0.18-0.082-0.219-0.133    c-0.035-0.051-0.055-0.141-0.055-0.281v-2.906c0-0.375,0.113-0.68,0.336-0.911c0.219-0.23,0.504-0.347,0.84-0.347    c0.293,0,0.516,0.086,0.672,0.262c0.152,0.175,0.23,0.421,0.23,0.746v3.156c0,0.148-0.02,0.242-0.055,0.289    c-0.039,0.046-0.105,0.085-0.207,0.125l-0.262,0.098c-0.086,0.035-0.145,0.07-0.184,0.109c-0.035,0.035-0.055,0.078-0.055,0.125    c0,0.063,0.023,0.109,0.07,0.148c0.043,0.035,0.102,0.055,0.18,0.055h2.484c0.078,0,0.145-0.02,0.191-0.055    c0.043-0.031,0.07-0.078,0.07-0.137c0-0.055-0.02-0.102-0.055-0.133c-0.035-0.035-0.105-0.074-0.207-0.113l-0.336-0.121    c-0.109-0.047-0.18-0.089-0.211-0.132c-0.035-0.043-0.047-0.133-0.047-0.27v-3.32c0-0.606-0.164-1.074-0.488-1.406    c-0.324-0.329-0.781-0.493-1.375-0.493c-0.305,0-0.594,0.071-0.871,0.207c-0.273,0.141-0.516,0.34-0.723,0.598v-2.918    C149.168,20.284,149.152,20.233,149.117,20.189 M143.477,26.877c0,0.679,0.121,1.164,0.359,1.457    c0.242,0.289,0.641,0.434,1.195,0.434c0.406,0,0.781-0.105,1.117-0.313c0.34-0.211,0.508-0.409,0.508-0.605    c0-0.07-0.027-0.133-0.078-0.183c-0.051-0.051-0.117-0.079-0.195-0.079c-0.031,0-0.16,0.047-0.387,0.137    c-0.223,0.09-0.426,0.137-0.609,0.137c-0.195,0-0.34-0.055-0.422-0.164c-0.082-0.11-0.125-0.305-0.125-0.582v-3.641h1.258    l0.133-0.883h-1.391v-1.218c0-0.11-0.027-0.192-0.086-0.25c-0.059-0.055-0.145-0.082-0.258-0.082    c-0.207,0-0.367,0.175-0.484,0.531c-0.113,0.351-0.234,0.617-0.367,0.797c-0.145,0.199-0.34,0.375-0.586,0.523    c-0.242,0.153-0.367,0.266-0.367,0.344c0,0.074,0.035,0.133,0.098,0.172c0.063,0.043,0.148,0.066,0.262,0.066h0.426V26.877    L143.477,26.877z M137.344,23.354c-0.52,0.594-0.781,1.352-0.781,2.27s0.258,1.672,0.777,2.261    c0.52,0.586,1.176,0.883,1.977,0.883s1.465-0.297,1.984-0.883c0.52-0.589,0.777-1.343,0.777-2.261s-0.258-1.676-0.777-2.27    c-0.52-0.59-1.184-0.887-1.984-0.887C138.52,22.467,137.863,22.764,137.344,23.354 M140.262,23.924    c0.215,0.395,0.324,0.957,0.324,1.7c0,0.738-0.109,1.304-0.324,1.699c-0.215,0.39-0.531,0.59-0.945,0.59    c-0.406,0-0.719-0.2-0.938-0.59c-0.215-0.395-0.324-0.961-0.324-1.699c0-0.743,0.109-1.305,0.324-1.7    c0.219-0.386,0.531-0.586,0.938-0.586C139.73,23.338,140.047,23.538,140.262,23.924 M133.699,20.424    c-0.164,0.164-0.242,0.356-0.242,0.575c0,0.214,0.082,0.406,0.25,0.574s0.359,0.25,0.566,0.25c0.219,0,0.41-0.082,0.574-0.246    s0.246-0.356,0.246-0.578c0-0.227-0.078-0.422-0.234-0.582c-0.16-0.161-0.355-0.239-0.586-0.239    C134.051,20.178,133.859,20.26,133.699,20.424 M134.965,22.538c-0.035-0.047-0.078-0.071-0.133-0.071    c-0.016,0-0.039,0.004-0.063,0.012c-0.027,0.008-0.055,0.02-0.09,0.035l-1.722,0.711c-0.043,0.016-0.082,0.047-0.113,0.086    c-0.035,0.043-0.051,0.09-0.051,0.141c0,0.054,0.022,0.101,0.062,0.133c0.043,0.035,0.103,0.054,0.176,0.054h0.32    c0.113,0,0.191,0.016,0.227,0.055c0.039,0.035,0.059,0.109,0.059,0.219v3.773c0,0.133-0.016,0.223-0.047,0.27    c-0.027,0.046-0.098,0.09-0.199,0.132l-0.348,0.121c-0.094,0.031-0.156,0.066-0.195,0.105c-0.035,0.039-0.055,0.086-0.055,0.141    c0,0.063,0.022,0.109,0.062,0.141c0.043,0.035,0.106,0.051,0.188,0.051h2.574c0.074,0,0.141-0.02,0.188-0.055    c0.047-0.039,0.07-0.082,0.07-0.137s-0.016-0.102-0.055-0.137c-0.039-0.039-0.105-0.074-0.203-0.109l-0.336-0.121    c-0.109-0.047-0.18-0.089-0.211-0.132s-0.051-0.133-0.051-0.27v-4.984C135.02,22.639,135.004,22.584,134.965,22.538     M131.375,20.194c-0.035-0.043-0.074-0.063-0.121-0.063c-0.031,0-0.059,0-0.082,0.008c-0.027,0.008-0.055,0.016-0.078,0.028    l-1.719,0.711c-0.051,0.019-0.094,0.05-0.125,0.093c-0.035,0.043-0.051,0.086-0.051,0.129c0,0.059,0.024,0.106,0.071,0.145    c0.046,0.039,0.105,0.054,0.179,0.054l0.309-0.011c0.109,0,0.187,0.023,0.229,0.062c0.047,0.039,0.067,0.113,0.067,0.223v6.113    c0,0.129-0.016,0.219-0.047,0.266c-0.031,0.047-0.102,0.089-0.211,0.136l-0.348,0.121c-0.094,0.031-0.156,0.066-0.195,0.105    c-0.035,0.039-0.055,0.086-0.055,0.141c0,0.063,0.024,0.109,0.071,0.141c0.043,0.035,0.105,0.051,0.191,0.051h2.562    c0.075,0,0.141-0.02,0.188-0.055c0.047-0.039,0.074-0.082,0.074-0.137s-0.019-0.102-0.055-0.141    c-0.039-0.039-0.101-0.074-0.195-0.105l-0.351-0.121c-0.106-0.047-0.176-0.089-0.211-0.132s-0.051-0.133-0.051-0.27v-7.332    C131.422,20.292,131.406,20.237,131.375,20.194 M124.637,20.182c-0.032-0.035-0.094-0.051-0.184-0.051    c-0.019,0-0.047,0.004-0.086,0.016c-0.035,0.012-0.074,0.027-0.113,0.043l-1.555,0.688c-0.07,0.031-0.125,0.066-0.152,0.097    c-0.031,0.035-0.047,0.078-0.047,0.125c0,0.067,0.02,0.113,0.063,0.145c0.042,0.027,0.117,0.043,0.222,0.043l0.285-0.012    c0.082,0,0.141,0.012,0.18,0.035c0.039,0.02,0.059,0.055,0.059,0.102c0,0.008,0,0.031,0.004,0.066    c0.003,0.031,0.007,0.059,0.007,0.082v6.137c0,0.133-0.015,0.223-0.05,0.269c-0.032,0.047-0.098,0.09-0.2,0.133l-0.32,0.121    c-0.094,0.035-0.16,0.074-0.195,0.113c-0.035,0.035-0.055,0.082-0.055,0.133c0,0.059,0.02,0.102,0.063,0.133    c0.042,0.031,0.105,0.047,0.187,0.047h1.934v-0.609c0.211,0.246,0.445,0.43,0.707,0.551c0.257,0.117,0.547,0.18,0.867,0.18    c0.637,0,1.172-0.285,1.601-0.855c0.43-0.567,0.645-1.297,0.645-2.188c0-0.949-0.227-1.73-0.68-2.336    c-0.453-0.605-1.031-0.91-1.73-0.91c-0.293,0-0.555,0.055-0.789,0.168c-0.235,0.109-0.442,0.274-0.621,0.492v-2.722    C124.684,20.296,124.668,20.217,124.637,20.182 M126.695,24.002c0.219,0.418,0.328,0.976,0.328,1.675    c0,0.653-0.109,1.168-0.328,1.551c-0.215,0.383-0.507,0.574-0.875,0.574c-0.367,0-0.648-0.179-0.843-0.543    c-0.196-0.359-0.293-0.882-0.293-1.57c0-0.773,0.097-1.352,0.293-1.738c0.195-0.383,0.484-0.574,0.867-0.574    C126.191,23.377,126.477,23.584,126.695,24.002 M119.836,20.424c-0.16,0.164-0.242,0.356-0.242,0.575    c0,0.214,0.082,0.406,0.25,0.574s0.355,0.25,0.57,0.25s0.406-0.082,0.57-0.246s0.246-0.356,0.246-0.578    c0-0.227-0.078-0.422-0.234-0.582c-0.16-0.161-0.351-0.239-0.582-0.239C120.191,20.178,119.996,20.26,119.836,20.424     M121.105,22.538c-0.039-0.047-0.082-0.071-0.136-0.071c-0.016,0-0.035,0.004-0.063,0.012c-0.027,0.008-0.054,0.02-0.09,0.035    l-1.722,0.711c-0.043,0.016-0.082,0.047-0.114,0.086c-0.035,0.043-0.05,0.09-0.05,0.141c0,0.054,0.023,0.101,0.066,0.133    c0.039,0.035,0.098,0.054,0.172,0.054h0.32c0.114,0,0.192,0.016,0.231,0.055c0.035,0.035,0.054,0.109,0.054,0.219v3.773    c0,0.133-0.015,0.223-0.043,0.27c-0.031,0.046-0.097,0.09-0.203,0.132l-0.347,0.121c-0.094,0.031-0.157,0.066-0.196,0.105    c-0.035,0.039-0.054,0.086-0.054,0.141c0,0.063,0.023,0.109,0.066,0.141c0.039,0.035,0.102,0.051,0.184,0.051h2.574    c0.078,0,0.141-0.02,0.187-0.055c0.047-0.039,0.075-0.082,0.075-0.137s-0.02-0.102-0.059-0.137    c-0.039-0.039-0.105-0.074-0.203-0.109l-0.336-0.121c-0.109-0.047-0.18-0.089-0.211-0.132s-0.051-0.133-0.051-0.27v-4.984    C121.156,22.639,121.141,22.584,121.105,22.538 M111.824,20.186c-0.051,0.035-0.074,0.082-0.074,0.145    c0,0.054,0.02,0.105,0.063,0.148c0.039,0.043,0.105,0.078,0.199,0.113l0.406,0.133c0.105,0.031,0.172,0.074,0.203,0.121    c0.031,0.047,0.047,0.129,0.047,0.242v6.598c0,0.11-0.016,0.188-0.043,0.235c-0.027,0.046-0.098,0.089-0.207,0.128l-0.406,0.133    c-0.094,0.035-0.16,0.07-0.199,0.113c-0.043,0.043-0.063,0.094-0.063,0.148c0,0.066,0.023,0.117,0.074,0.148    c0.047,0.035,0.114,0.055,0.199,0.055h2.825c1.129,0,1.972-0.211,2.535-0.637c0.562-0.422,0.844-1.054,0.844-1.902    c0-0.547-0.161-1.008-0.477-1.383s-0.766-0.637-1.352-0.777c0.438-0.195,0.766-0.442,0.989-0.742    c0.222-0.305,0.332-0.657,0.332-1.063c0-0.66-0.235-1.164-0.696-1.504c-0.46-0.34-1.14-0.508-2.043-0.508h-2.957    C111.938,20.131,111.871,20.146,111.824,20.186 M114.871,21.03c0.442,0,0.774,0.101,0.996,0.308    c0.223,0.208,0.332,0.516,0.332,0.93c0,0.426-0.117,0.754-0.351,0.973c-0.235,0.219-0.578,0.332-1.024,0.332h-0.711V21.03H114.871    L114.871,21.03z M114.941,24.456c0.586,0,1.024,0.14,1.317,0.414c0.293,0.277,0.441,0.683,0.441,1.226    c0,0.532-0.148,0.938-0.445,1.227c-0.293,0.285-0.715,0.43-1.262,0.43h-0.25c-0.285,0-0.465-0.02-0.531-0.059    c-0.066-0.043-0.098-0.137-0.098-0.281v-2.957H114.941L114.941,24.456z M114.941,24.456"/>
	</g>
</g>
</svg></svg>
