<?xml version="1.0" encoding="UTF-8" standalone="no"?>
<svg
   xmlns:dc="http://purl.org/dc/elements/1.1/"
   xmlns:cc="http://creativecommons.org/ns#"
   xmlns:rdf="http://www.w3.org/1999/02/22-rdf-syntax-ns#"
   xmlns:svg="http://www.w3.org/2000/svg"
   xmlns="http://www.w3.org/2000/svg"
   xmlns:sodipodi="http://sodipodi.sourceforge.net/DTD/sodipodi-0.dtd"
   xmlns:inkscape="http://www.inkscape.org/namespaces/inkscape"
   id="Ebene_1"
   data-name="Ebene 1"
   viewBox="0 0 678.17124 83.244127"
   version="1.1"
   sodipodi:docname="bwms_mhka_desktop.svg"
   width="678.17126"
   height="83.244125"
   inkscape:version="0.92.5 (2060ec1f9f, 2020-04-08)">
  <metadata
     id="metadata49">
    <rdf:RDF>
      <cc:Work
         rdf:about="">
        <dc:format>image/svg+xml</dc:format>
        <dc:type
           rdf:resource="http://purl.org/dc/dcmitype/StillImage" />
        <dc:title></dc:title>
      </cc:Work>
    </rdf:RDF>
  </metadata>
  <defs
     id="defs47" />
  <sodipodi:namedview
     pagecolor="#ffffff"
     bordercolor="#666666"
     borderopacity="1"
     objecttolerance="10"
     gridtolerance="10"
     guidetolerance="10"
     inkscape:pageopacity="0"
     inkscape:pageshadow="2"
     inkscape:window-width="1976"
     inkscape:window-height="1088"
     id="namedview45"
     showgrid="false"
     fit-margin-top="15"
     fit-margin-left="15"
     fit-margin-right="15"
     fit-margin-bottom="15"
     inkscape:zoom="0.89937416"
     inkscape:cx="238.15401"
     inkscape:cy="29.865501"
     inkscape:window-x="72"
     inkscape:window-y="27"
     inkscape:window-maximized="1"
     inkscape:current-layer="Ebene_1" />
  <path
     d="m 363.94204,47.955221 c 0,1.962651 -2.16469,3.561634 -4.83158,3.561634 -2.6669,0 -4.8287,-1.598983 -4.8287,-3.561634 0,-1.962652 2.16469,-3.554419 4.8287,-3.554419 2.66401,0 4.83158,1.590324 4.83158,3.554419 z"
     id="path2"
     inkscape:connector-curvature="0"
     style="fill:#1e1e1c;stroke-width:1.44312584" />
  <path
     d="m 380.18298,44.400802 c 0,1.961208 -2.16469,3.554419 -4.83303,3.554419 -2.66834,0 -4.8287,-1.587439 -4.8287,-3.554419 0,-1.966981 2.16469,-3.561635 4.8287,-3.561635 2.66401,0 4.83303,1.596097 4.83303,3.561635 z"
     id="path4"
     inkscape:connector-curvature="0"
     style="fill:#1e1e1c;stroke-width:1.44312584" />
  <rect
     x="361.54211"
     y="30.415468"
     width="2.4663019"
     height="17.539751"
     id="rect6"
     style="fill:#1e1e1c;stroke-width:1.44312584" />
  <rect
     x="377.74698"
     y="26.85961"
     width="2.4663019"
     height="17.539751"
     id="rect8"
     style="fill:#1e1e1c;stroke-width:1.44312584" />
  <rect
     x="362.77457"
     y="27.875566"
     width="16.204859"
     height="5.2399898"
     id="rect10"
     style="fill:#1e1e1c;stroke-width:1.44312584" />
  <path
     d="m 380.21184,34.349431 h -18.66972 v -7.706292 h 18.66972 z m -16.20486,-2.466302 h 13.74 v -2.775131 h -13.74 z"
     id="path12"
     inkscape:connector-curvature="0"
     style="fill:#1e1e1c;stroke-width:1.44312584" />
  <path
     d="m 31.932195,44.11362 a 12.039998,12.039998 0 0 0 -1.076572,-5.974541 4.0191053,4.0191053 0 0 0 -3.720378,-1.757727 q -0.821139,0 -1.698559,0.08659 -0.877421,0.08659 -1.700002,0.206367 V 60.458462 H 15 v -29.76014 q 1.114093,-0.288625 2.607728,-0.614771 1.493635,-0.326147 3.163332,-0.585909 1.67114,-0.264092 3.427424,-0.409848 1.756284,-0.145756 3.463502,-0.144313 a 14.536606,14.536606 0 0 1 5.417494,0.848558 12.227605,12.227605 0 0 1 3.427424,2.020377 16.307321,16.307321 0 0 1 8.779977,-2.870378 15.41547,15.41547 0 0 1 6.061128,1.02462 9.1191118,9.1191118 0 0 1 3.77666,2.899239 10.967756,10.967756 0 0 1 1.933789,4.452043 28.702329,28.702329 0 0 1 0.526741,5.740755 V 60.458462 H 48.861503 V 44.11362 a 12.039998,12.039998 0 0 0 -1.083787,-5.974541 4.0162191,4.0162191 0 0 0 -3.720378,-1.757727 7.8809099,7.8809099 0 0 0 -1.961208,0.350679 7.6283629,7.6283629 0 0 0 -2.080988,0.878864 13.344584,13.344584 0 0 1 0.528184,2.841515 q 0.116894,1.493635 0.118337,3.192194 v 16.813858 h -8.729468 z"
     id="path14"
     inkscape:connector-curvature="0"
     style="fill:#1e1e1c;stroke-width:1.44312584" />
  <path
     d="m 91.801711,59.403537 a 48.620351,48.620351 0 0 1 -5.740754,1.200681 47.204645,47.204645 0 0 1 -7.383032,0.557047 17.519547,17.519547 0 0 1 -6.530144,-1.054925 9.9186035,9.9186035 0 0 1 -4.130226,-2.958408 11.545006,11.545006 0 0 1 -2.164689,-4.540074 24.401814,24.401814 0 0 1 -0.645077,-5.799922 V 29.643397 h 8.729468 v 16.111057 a 12.480152,12.480152 0 0 0 1.11265,6.092877 4.4275099,4.4275099 0 0 0 4.159089,1.876063 q 0.936588,0 1.991513,-0.08947 1.054925,-0.08947 1.876064,-0.204924 V 29.6434 h 8.729468 z"
     id="path16"
     inkscape:connector-curvature="0"
     style="fill:#1e1e1c;stroke-width:1.44312584" />
  <path
     d="m 108.84936,54.189524 a 8.7222523,8.7222523 0 0 0 3.39567,-0.467573 1.812566,1.812566 0 0 0 0.9972,-1.816895 2.2238568,2.2238568 0 0 0 -1.29015,-1.845758 24.596636,24.596636 0 0 0 -3.92386,-1.78659 39.851919,39.851919 0 0 1 -3.72038,-1.587438 10.931678,10.931678 0 0 1 -2.84152,-1.962651 7.8924549,7.8924549 0 0 1 -1.814,-2.724622 10.035497,10.035497 0 0 1 -0.64652,-3.806966 8.2330326,8.2330326 0 0 1 3.2225,-6.844745 14.018524,14.018524 0 0 1 8.84636,-2.518255 28.482974,28.482974 0 0 1 5.38863,0.496436 25.370151,25.370151 0 0 1 4.10136,1.083787 l -1.52394,6.795679 a 31.803606,31.803606 0 0 0 -3.30909,-0.936588 17.953928,17.953928 0 0 0 -4.01333,-0.409848 q -4.10136,0 -4.10136,2.284468 a 2.3609538,2.3609538 0 0 0 0.17606,0.936589 1.9886273,1.9886273 0 0 0 0.7028,0.790833 9.9777717,9.9777717 0 0 0 1.44313,0.824025 q 0.90917,0.441596 2.309,0.97411 a 35.780861,35.780861 0 0 1 4.74355,2.089646 11.348741,11.348741 0 0 1 2.95697,2.231072 6.8764944,6.8764944 0 0 1 1.52394,2.659681 11.817757,11.817757 0 0 1 0.43294,3.389902 7.8145261,7.8145261 0 0 1 -3.42599,6.898142 17.093825,17.093825 0 0 1 -9.69491,2.342193 27.852328,27.852328 0 0 1 -6.82599,-0.702802 27.549271,27.549271 0 0 1 -3.7781,-1.171819 l 1.46621,-7.088633 a 28.383398,28.383398 0 0 0 4.56894,1.376742 22.20249,22.20249 0 0 0 4.63388,0.497878 z"
     id="path18"
     inkscape:connector-curvature="0"
     style="fill:#1e1e1c;stroke-width:1.44312584" />
  <path
     d="m 137.96153,20.739311 a 4.7882914,4.7882914 0 0 1 -1.5528,3.778103 5.5560343,5.5560343 0 0 1 -7.32242,0 4.7882914,4.7882914 0 0 1 -1.5528,-3.778103 4.7940639,4.7940639 0 0 1 1.5528,-3.778103 5.5560343,5.5560343 0 0 1 7.32242,0 4.7940639,4.7940639 0 0 1 1.5528,3.778103 z m -0.81969,39.719151 h -8.73091 V 29.643397 h 8.72946 z"
     id="path20"
     inkscape:connector-curvature="0"
     style="fill:#1e1e1c;stroke-width:1.44312584" />
  <path
     d="m 143.87835,45.055981 a 18.199259,18.199259 0 0 1 1.08234,-6.299244 14.737201,14.737201 0 0 1 8.1147,-8.639994 16.432873,16.432873 0 0 1 6.67734,-1.287269 21.564629,21.564629 0 0 1 4.51121,0.432938 22.032201,22.032201 0 0 1 3.98447,1.259849 l -1.81689,6.971741 a 21.965818,21.965818 0 0 0 -2.69432,-0.819696 14.045943,14.045943 0 0 0 -3.28167,-0.352122 6.9154588,6.9154588 0 0 0 -5.7725,2.401361 9.8868548,9.8868548 0 0 0 -1.9006,6.332436 10.236091,10.236091 0 0 0 1.78659,6.443556 q 1.78371,2.283025 6.23719,2.284469 a 21.323627,21.323627 0 0 0 3.40001,-0.288626 14.2754,14.2754 0 0 0 3.33795,-0.936588 l 1.23098,7.147802 a 20.53568,20.53568 0 0 1 -3.8084,1.11265 25.152239,25.152239 0 0 1 -5.03796,0.469016 18.967002,18.967002 0 0 1 -7.26469,-1.259849 13.695264,13.695264 0 0 1 -5.00909,-3.425981 13.367674,13.367674 0 0 1 -2.86894,-5.127426 21.730588,21.730588 0 0 1 -0.90772,-6.419023 z"
     id="path22"
     inkscape:connector-curvature="0"
     style="fill:#1e1e1c;stroke-width:1.44312584" />
  <path
     d="m 183.18621,56.650053 a 13.610119,13.610119 0 0 0 2.48939,-0.233786 7.4580741,7.4580741 0 0 0 2.22674,-0.763413 4.4736899,4.4736899 0 0 0 1.58744,-1.434468 3.9253021,3.9253021 0 0 0 0.61333,-2.254162 3.8459302,3.8459302 0 0 0 -0.28862,-1.552803 3.729037,3.729037 0 0 0 -0.93515,-1.259849 9.3630001,9.3630001 0 0 0 -1.61197,-1.141513 q -0.96834,-0.555603 -2.309,-1.261292 -1.34788,-0.640747 -2.45332,-1.287268 a 8.9473799,8.9473799 0 0 1 -1.9612,-1.523941 6.1448296,6.1448296 0 0 1 -1.31758,-2.079544 7.9371918,7.9371918 0 0 1 -0.47046,-2.89924 8.7727617,8.7727617 0 0 1 3.16478,-7.059771 q 3.16477,-2.66401 9.19704,-2.665453 a 19.756392,19.756392 0 0 1 4.94992,0.557046 13.543736,13.543736 0 0 1 2.95696,1.02462 l -2.04923,4.452043 a 13.132445,13.132445 0 0 0 -2.63515,-0.995757 14.520732,14.520732 0 0 0 -4.04075,-0.526741 10.796024,10.796024 0 0 0 -2.2253,0.233786 6.3497535,6.3497535 0 0 0 -2.02038,0.792276 4.3755574,4.3755574 0 0 0 -1.46622,1.46333 4.130226,4.130226 0 0 0 -0.55416,2.19788 3.2398174,3.2398174 0 0 0 1.2281,2.604843 16.595947,16.595947 0 0 0 3.69152,2.140155 26.742564,26.742564 0 0 1 2.72462,1.434467 9.7584166,9.7584166 0 0 1 2.04924,1.640834 6.1044221,6.1044221 0 0 1 1.29015,2.137269 8.765546,8.765546 0 0 1 0.43294,2.928103 9.5664808,9.5664808 0 0 1 -0.93803,4.329377 8.5433047,8.5433047 0 0 1 -2.60629,3.10705 11.774463,11.774463 0 0 1 -3.9556,1.844315 19.104099,19.104099 0 0 1 -4.97879,0.614771 22.381438,22.381438 0 0 1 -3.60781,-0.264092 23.323799,23.323799 0 0 1 -2.80977,-0.614771 13.100696,13.100696 0 0 1 -1.99295,-0.731665 q -0.78939,-0.380985 -1.20068,-0.614772 l 2.1084,-4.452043 q 0.40985,0.233787 1.14296,0.584466 a 16.027355,16.027355 0 0 0 1.75772,0.702802 16.391023,16.391023 0 0 0 2.25417,0.587353 13.800612,13.800612 0 0 0 2.56299,0.239558 z"
     id="path24"
     inkscape:connector-curvature="0"
     style="fill:#1e1e1c;stroke-width:1.44312584" />
  <path
     d="m 211.59703,61.21899 a 14.110884,14.110884 0 0 1 -5.15341,-0.848558 10.246193,10.246193 0 0 1 -3.63379,-2.343637 9.3514551,9.3514551 0 0 1 -2.16469,-3.485148 12.610033,12.610033 0 0 1 -0.70135,-4.218257 25.576518,25.576518 0 0 1 1.2281,-7.908329 21.716157,21.716157 0 0 1 3.51545,-6.736512 17.089496,17.089496 0 0 1 5.56469,-4.65841 15.730071,15.730071 0 0 1 7.44076,-1.731751 12.311306,12.311306 0 0 1 4.12878,0.616215 7.6124885,7.6124885 0 0 1 2.81265,1.668254 6.7134212,6.7134212 0 0 1 1.61053,2.430223 7.9083293,7.9083293 0 0 1 0.52819,2.841515 9.9330348,9.9330348 0 0 1 -0.9972,4.65841 9.7338834,9.7338834 0 0 1 -2.63515,3.192194 12.16988,12.16988 0 0 1 -3.83583,1.991514 33.868719,33.868719 0 0 1 -4.57038,1.11265 43.539105,43.539105 0 0 1 -4.80416,0.557047 q -2.43167,0.144312 -4.5978,0.262648 a 6.470976,6.470976 0 0 0 -0.0592,0.763414 v 0.467573 a 9.7598597,9.7598597 0 0 0 0.32182,2.547117 4.7406682,4.7406682 0 0 0 1.20068,2.10985 6.0048464,6.0048464 0 0 0 2.43166,1.43591 12.939066,12.939066 0 0 0 4.07106,0.526741 13.709695,13.709695 0 0 0 2.309,-0.204924 20.011825,20.011825 0 0 0 2.28591,-0.526741 q 1.08235,-0.32326 1.93379,-0.643634 a 4.4000905,4.4000905 0 0 0 1.20068,-0.616215 l 0.46758,4.628105 a 19.193573,19.193573 0 0 1 -3.77811,1.376742 22.782627,22.782627 0 0 1 -6.12029,0.735994 z m -5.56614,-16.754691 q 3.39856,-0.11545 6.20544,-0.432937 a 19.806901,19.806901 0 0 0 4.86189,-1.11265 7.7163936,7.7163936 0 0 0 3.19364,-2.138713 5.2529779,5.2529779 0 0 0 1.14151,-3.515454 3.3971181,3.3971181 0 0 0 -0.20348,-1.11265 2.8747066,2.8747066 0 0 0 -0.70424,-1.083788 3.7434683,3.7434683 0 0 0 -1.3753,-0.819695 6.3800591,6.3800591 0 0 0 -2.16469,-0.321817 8.6010297,8.6010297 0 0 0 -3.83872,0.87742 11.641696,11.641696 0 0 0 -3.19075,2.309002 14.014195,14.014195 0 0 0 -2.4028,3.339393 18.215134,18.215134 0 0 0 -1.5225,4.011889 z"
     id="path26"
     inkscape:connector-curvature="0"
     style="fill:#1e1e1c;stroke-width:1.44312584" />
  <path
     d="m 248.56125,60.809142 c -0.19627,-0.432938 -0.38964,-0.907726 -0.58591,-1.434467 a 11.045685,11.045685 0 0 1 -0.46757,-1.67114 17.630668,17.630668 0 0 1 -3.4635,2.343637 11.096194,11.096194 0 0 1 -5.33091,1.171818 10.84509,10.84509 0 0 1 -4.42462,-0.821139 7.8693649,7.8693649 0 0 1 -3.01614,-2.284468 9.5246302,9.5246302 0 0 1 -1.73175,-3.454843 16.245267,16.245267 0 0 1 -0.55849,-4.394318 22.9457,22.9457 0 0 1 1.32046,-7.6731 19.574558,19.574558 0 0 1 3.95417,-6.678786 19.788141,19.788141 0 0 1 6.61962,-4.744998 22.283305,22.283305 0 0 1 9.31393,-1.815452 22.872101,22.872101 0 0 1 3.69007,0.35068 11.70808,11.70808 0 0 1 3.63235,1.171818 l -4.49822,18.395524 c -0.19771,0.897624 -0.36223,1.756284 -0.49933,2.577423 a 15.608849,15.608849 0 0 0 -0.20492,2.577422 16.083637,16.083637 0 0 0 0.23523,2.723179 16.633468,16.633468 0 0 0 0.81825,2.958408 z m -8.72947,-4.216814 a 8.0439831,8.0439831 0 0 0 4.2197,-1.056368 13.43983,13.43983 0 0 0 3.045,-2.453314 q 0.0577,-0.994313 0.20492,-2.078101 0.1472,-1.083787 0.38099,-2.19788 l 3.51401,-14.527948 a 3.7247077,3.7247077 0 0 0 -0.96545,-0.174618 q -0.6725,-0.05773 -1.20213,-0.05917 a 13.800612,13.800612 0 0 0 -6.03082,1.288711 14.385078,14.385078 0 0 0 -4.60069,3.425981 15.118186,15.118186 0 0 0 -2.9281,4.980227 17.340599,17.340599 0 0 0 -1.02606,5.947122 13.722683,13.722683 0 0 0 0.23379,2.487948 6.1895665,6.1895665 0 0 0 0.85144,2.226743 4.8546751,4.8546751 0 0 0 1.64083,1.587439 5.1144378,5.1144378 0 0 0 2.66257,0.603226 z"
     id="path28"
     inkscape:connector-curvature="0"
     style="fill:#1e1e1c;stroke-width:1.44312584" />
  <path
     d="m 275.85942,29.351886 c 0.46901,0 0.9972,0.01876 1.58744,0.05772 a 16.981261,16.981261 0 0 1 1.73175,0.204924 q 0.84855,0.144313 1.55136,0.288625 a 4.5357443,4.5357443 0 0 1 1.05492,0.320374 l -1.58744,4.744998 a 12.325737,12.325737 0 0 0 -2.69431,-0.702803 19.502402,19.502402 0 0 0 -2.9281,-0.233786 16.825404,16.825404 0 0 0 -2.43311,0.176061 12.23915,12.23915 0 0 0 -2.07811,0.467573 l -6.20544,25.777113 h -5.44924 l 7.03091,-29.295454 a 33.86006,33.86006 0 0 1 5.03795,-1.317573 29.597067,29.597067 0 0 1 5.38142,-0.487777 z"
     id="path30"
     inkscape:connector-curvature="0"
     style="fill:#1e1e1c;stroke-width:1.44312584" />
  <path
     d="m 280.13684,49.56142 a 24.596636,24.596636 0 0 1 1.20068,-7.674543 19.404269,19.404269 0 0 1 3.54432,-6.502725 17.028884,17.028884 0 0 1 13.53219,-6.150602 24.821764,24.821764 0 0 1 3.69007,0.264092 11.618606,11.618606 0 0 1 3.3394,1.024619 l -2.05069,4.576152 a 8.3369377,8.3369377 0 0 0 -2.19643,-0.819696 14.805027,14.805027 0 0 0 -3.24992,-0.288625 10.501626,10.501626 0 0 0 -5.15485,1.259849 12.514787,12.514787 0 0 0 -3.89644,3.339393 15.028712,15.028712 0 0 0 -2.45331,4.802723 18.863097,18.863097 0 0 0 -0.85145,5.652724 12.295432,12.295432 0 0 0 0.32326,2.87182 5.9355764,5.9355764 0 0 0 1.14296,2.372499 5.4983092,5.4983092 0 0 0 2.19499,1.610528 8.9574818,8.9574818 0 0 0 3.48804,0.585909 12.904431,12.904431 0 0 0 2.2253,-0.204924 19.736188,19.736188 0 0 0 2.16469,-0.497878 18.783725,18.783725 0 0 0 1.78226,-0.624874 4.4809056,4.4809056 0 0 0 1.14295,-0.614771 l 0.46758,4.628104 a 14.063261,14.063261 0 0 1 -3.4635,1.375299 19.274388,19.274388 0 0 1 -5.33091,0.67394 13.584143,13.584143 0 0 1 -4.97879,-0.848558 9.8507766,9.8507766 0 0 1 -3.63379,-2.402805 10.390506,10.390506 0 0 1 -2.2253,-3.690072 13.965128,13.965128 0 0 1 -0.75331,-4.717578 z"
     id="path32"
     inkscape:connector-curvature="0"
     style="fill:#1e1e1c;stroke-width:1.44312584" />
  <path
     d="M 303.97728,60.458462 314.69826,15.936589 320.38129,15 316.62916,30.405368 a 20.897905,20.897905 0 0 1 2.85162,-0.761971 15.666574,15.666574 0 0 1 3.01758,-0.288625 12.660543,12.660543 0 0 1 4.53863,0.731665 8.100265,8.100265 0 0 1 3.07674,1.992957 7.8289574,7.8289574 0 0 1 1.73175,3.044995 13.096367,13.096367 0 0 1 0.55561,3.89644 24.45088,24.45088 0 0 1 -0.8197,5.859091 l -3.75213,15.585758 h -5.46223 l 3.4635,-14.412497 q 0.40985,-1.639391 0.79084,-3.33795 a 14.734314,14.734314 0 0 0 0.38098,-3.2225 5.8951688,5.8951688 0 0 0 -1.28871,-3.89644 q -1.29015,-1.55136 -4.80417,-1.552803 a 16.507916,16.507916 0 0 0 -2.89923,0.264092 10.006634,10.006634 0 0 0 -2.4894,0.731665 l -6.09287,25.42499 z"
     id="path34"
     inkscape:connector-curvature="0"
     style="fill:#1e1e1c;stroke-width:1.44312584" />
  <g
     id="_-Symbols"
     data-name="💎-Symbols"
     transform="matrix(1.4431258,0,0,1.4431258,-9.551899,-5.4534221)">
    <g
       id="Logo">
      <g
         id="Bildmarke">
        <path
           id="Combined-Shape"
           d="m 320.461,42.974 h -1.471 v 2.208 h -1.474 v -2.208 h -2.208 V 41.5 h 2.208 v -1.472 h -2.208 v -1.471 h 2.208 v -1.47 h -15.457 v -1.475 h 15.457 v -1.471 h -15.457 v -1.47 h 15.457 V 31.2 h -15.457 v -1.475 h 15.457 V 28.254 H 302.059 V 26.78 h 15.457 v -1.471 h -15.457 v -1.471 h 15.457 V 21.63 h 1.474 v 2.208 h 1.471 V 21.63 h 1.471 v 2.208 h 2.208 v 1.471 h -2.208 v 1.471 h 2.208 v 1.474 h -2.208 v 1.471 h 15.456 V 31.2 h -15.456 v 1.475 h 15.456 v 1.47 h -15.456 v 1.471 h 15.456 v 1.475 h -15.456 v 1.47 h 15.456 v 1.471 H 321.932 V 41.5 h 15.456 v 1.471 h -15.456 v 2.208 h -1.471 z m 0,-1.471 V 40.028 H 318.99 V 41.5 Z m 0,-2.946 v -1.47 h -1.471 v 1.47 z m 0,-2.945 v -1.471 h -1.471 v 1.471 z m 0,-2.941 V 31.2 h -1.471 v 1.475 z m 0,-2.946 v -1.471 h -1.471 v 1.471 z m 0,-2.945 v -1.471 h -1.471 v 1.471 z"
           inkscape:connector-curvature="0"
           style="fill:#1e1e1c;fill-rule:evenodd" />
        <path
           id="Combined-Shape-2"
           data-name="Combined-Shape"
           d="m 323.771,28.254 h -6.255 V 22 a 6.256,6.256 0 1 1 6.255,6.255 z m 0,-1.474 A 4.783,4.783 0 1 0 318.99,22 v 4.78 z m -8.1,24.288 a 6.256,6.256 0 0 1 0,-12.511 h 6.256 v 6.256 a 6.253,6.253 0 0 1 -6.251,6.255 z m 0,-1.47 a 4.783,4.783 0 0 0 4.785,-4.785 v -4.785 h -4.785 a 4.785,4.785 0 1 0 0,9.57 z"
           inkscape:connector-curvature="0"
           style="fill:#1e1e1c;fill-rule:evenodd" />
        <path
           id="Combined-Shape-3"
           data-name="Combined-Shape"
           d="m 323.771,25.309 h -3.31 V 22 a 3.312,3.312 0 1 1 3.31,3.31 z m 0,-1.471 A 1.841,1.841 0 1 0 321.932,22 v 1.839 z m -8.1,24.289 a 3.312,3.312 0 0 1 0,-6.624 h 3.314 v 3.31 a 3.315,3.315 0 0 1 -3.309,3.314 z m 0,-1.475 a 1.838,1.838 0 0 0 1.84,-1.839 v -1.839 h -1.84 a 1.839,1.839 0 1 0 0,3.678 z"
           inkscape:connector-curvature="0"
           style="fill:#1e1e1c;fill-rule:evenodd" />
      </g>
      <g
         id="Wortmarke">
        <path
           id="Hochschule-für-Musik"
           d="m 350.949,31.2 v -3.187 h -2.533 V 31.2 h -1.359 v -7.12 h 1.359 v 2.85 h 2.533 v -2.854 h 1.372 V 31.2 Z m 6.244,-5.606 a 2.38,2.38 0 0 1 1.883,0.77 3.089,3.089 0 0 1 0.674,2.109 3.493,3.493 0 0 1 -0.309,1.506 2.342,2.342 0 0 1 -0.888,1.015 2.513,2.513 0 0 1 -1.368,0.36 2.385,2.385 0 0 1 -1.887,-0.765 3.084,3.084 0 0 1 -0.678,-2.116 3.413,3.413 0 0 1 0.31,-1.507 2.32,2.32 0 0 1 0.888,-1.011 2.583,2.583 0 0 1 1.375,-0.365 z m 0,1 c -0.789,0 -1.185,0.622 -1.185,1.875 a 2.745,2.745 0 0 0 0.292,1.431 0.982,0.982 0 0 0 0.884,0.455 0.968,0.968 0 0 0 0.88,-0.463 2.709,2.709 0 0 0 0.294,-1.419 2.693,2.693 0 0 0 -0.294,-1.42 0.966,0.966 0 0 0 -0.871,-0.459 z m 7.017,-1 a 2.787,2.787 0 0 1 0.963,0.155 2.594,2.594 0 0 1 0.813,0.488 l -0.591,0.792 a 2.079,2.079 0 0 0 -0.535,-0.3 1.729,1.729 0 0 0 -0.567,-0.091 q -1.226,0 -1.225,1.863 a 2.27,2.27 0 0 0 0.321,1.368 1.067,1.067 0 0 0 0.9,0.416 1.533,1.533 0 0 0 0.531,-0.091 3.316,3.316 0 0 0 0.571,-0.3 l 0.591,0.836 a 2.718,2.718 0 0 1 -1.764,0.626 2.593,2.593 0 0 1 -1.36,-0.344 2.249,2.249 0 0 1 -0.888,-0.984 3.41,3.41 0 0 1 -0.309,-1.5 3.575,3.575 0 0 1 0.309,-1.53 2.357,2.357 0 0 1 0.888,-1.031 2.451,2.451 0 0 1 1.352,-0.377 z m 6.668,0 a 1.471,1.471 0 0 1 1.133,0.445 1.723,1.723 0 0 1 0.413,1.217 V 31.2 H 371.1 v -3.742 a 1.04,1.04 0 0 0 -0.17,-0.682 0.616,0.616 0 0 0 -0.5,-0.194 1,1 0 0 0 -0.607,0.21 2.38,2.38 0 0 0 -0.535,0.6 v 3.8 h -1.32 v -7.619 l 1.32,-0.135 V 26.4 a 1.992,1.992 0 0 1 1.59,-0.81 z m 5.831,0 a 3.062,3.062 0 0 1 1.938,0.651 l -0.515,0.773 a 2.577,2.577 0 0 0 -1.372,-0.444 1.064,1.064 0 0 0 -0.606,0.15 0.462,0.462 0 0 0 -0.218,0.4 0.5,0.5 0 0 0 0.1,0.309 0.876,0.876 0 0 0 0.333,0.234 6.163,6.163 0 0 0 0.717,0.242 3.084,3.084 0 0 1 1.313,0.626 1.411,1.411 0 0 1 0.428,1.094 1.463,1.463 0 0 1 -0.658,1.273 2.807,2.807 0 0 1 -1.637,0.455 3.417,3.417 0 0 1 -1.222,-0.206 2.92,2.92 0 0 1 -0.955,-0.567 l 0.658,-0.741 a 2.452,2.452 0 0 0 1.487,0.539 1.237,1.237 0 0 0 0.7,-0.178 0.549,0.549 0 0 0 0.262,-0.484 0.634,0.634 0 0 0 -0.1,-0.376 0.767,0.767 0 0 0 -0.349,-0.246 7.5,7.5 0 0 0 -0.789,-0.262 A 2.69,2.69 0 0 1 375,28.2 a 1.412,1.412 0 0 1 -0.392,-1.015 1.35,1.35 0 0 1 0.262,-0.816 1.786,1.786 0 0 1 0.745,-0.567 2.772,2.772 0 0 1 1.094,-0.212 z m 6.41,0 a 2.82,2.82 0 0 1 0.963,0.155 2.533,2.533 0 0 1 0.809,0.488 l -0.587,0.792 a 2.2,2.2 0 0 0 -0.535,-0.3 1.729,1.729 0 0 0 -0.567,-0.091 q -1.224,0 -1.225,1.863 a 2.3,2.3 0 0 0 0.317,1.368 1.081,1.081 0 0 0 0.908,0.416 1.549,1.549 0 0 0 0.531,-0.091 3.316,3.316 0 0 0 0.571,-0.3 l 0.587,0.836 a 2.705,2.705 0 0 1 -1.76,0.626 2.6,2.6 0 0 1 -1.36,-0.344 2.255,2.255 0 0 1 -0.888,-0.984 3.41,3.41 0 0 1 -0.309,-1.5 3.575,3.575 0 0 1 0.309,-1.53 2.363,2.363 0 0 1 0.888,-1.031 2.446,2.446 0 0 1 1.348,-0.377 z m 6.668,0 a 1.481,1.481 0 0 1 1.134,0.445 1.728,1.728 0 0 1 0.412,1.217 V 31.2 h -1.32 v -3.742 a 1.039,1.039 0 0 0 -0.171,-0.682 0.616,0.616 0 0 0 -0.5,-0.194 1,1 0 0 0 -0.607,0.21 2.38,2.38 0 0 0 -0.535,0.6 v 3.8 h -1.32 v -7.619 l 1.32,-0.135 V 26.4 a 1.992,1.992 0 0 1 1.587,-0.81 z m 8.471,5.606 h -1.145 l -0.072,-0.761 a 2.022,2.022 0 0 1 -0.7,0.69 1.976,1.976 0 0 1 -0.964,0.225 1.426,1.426 0 0 1 -1.13,-0.447 1.8,1.8 0 0 1 -0.4,-1.241 v -3.921 h 1.32 V 29.5 a 1.046,1.046 0 0 0 0.159,0.658 0.621,0.621 0 0 0 0.511,0.194 1.335,1.335 0 0 0 1.1,-0.772 v -3.835 h 1.32 z m 3.905,0.154 a 1.306,1.306 0 0 1 -0.987,-0.364 1.43,1.43 0 0 1 -0.353,-1.035 v -6.39 l 1.316,-0.143 v 6.49 c 0,0.257 0.1,0.384 0.309,0.384 a 1.044,1.044 0 0 0 0.31,-0.052 l 0.281,0.928 a 2.126,2.126 0 0 1 -0.876,0.178 z m 7.2,-3.008 c 0,0.071 -0.012,0.249 -0.032,0.539 h -3.421 a 1.714,1.714 0 0 0 0.412,1.13 1.267,1.267 0 0 0 0.928,0.34 1.926,1.926 0 0 0 0.678,-0.118 3.185,3.185 0 0 0 0.682,-0.365 l 0.547,0.753 a 3.146,3.146 0 0 1 -2.022,0.729 2.436,2.436 0 0 1 -1.923,-0.761 3.039,3.039 0 0 1 -0.674,-2.081 3.7,3.7 0 0 1 0.29,-1.5 2.406,2.406 0 0 1 0.832,-1.043 2.243,2.243 0 0 1 1.3,-0.377 2.212,2.212 0 0 1 1.772,0.73 2.984,2.984 0 0 1 0.634,2.02 z m -1.312,-0.381 q 0,-1.432 -1.059,-1.431 a 0.9,0.9 0 0 0 -0.757,0.357 2.081,2.081 0 0 0 -0.325,1.137 h 2.141 z m 9.335,-3.544 a 0.734,0.734 0 0 0 -0.559,0.182 0.806,0.806 0 0 0 -0.17,0.571 v 0.575 h 1.308 l -0.142,0.951 h -1.163 v 4.5 h -1.32 v -4.5 h -0.884 v -0.951 h 0.884 v -0.6 a 1.653,1.653 0 0 1 0.5,-1.252 1.961,1.961 0 0 1 1.42,-0.48 3.318,3.318 0 0 1 1.411,0.321 l -0.381,0.884 a 2.092,2.092 0 0 0 -0.901,-0.205 z m 6.763,6.779 h -1.145 l -0.072,-0.761 a 2.022,2.022 0 0 1 -0.7,0.69 1.976,1.976 0 0 1 -0.964,0.225 1.423,1.423 0 0 1 -1.129,-0.447 1.8,1.8 0 0 1 -0.4,-1.241 v -3.921 h 1.32 V 29.5 a 1.046,1.046 0 0 0 0.159,0.658 0.621,0.621 0 0 0 0.511,0.194 1.334,1.334 0 0 0 1.1,-0.772 v -3.835 h 1.32 z M 420.8,23.109 a 0.674,0.674 0 0 1 0.5,0.206 0.723,0.723 0 0 1 0,1.011 0.69,0.69 0 0 1 -0.5,0.206 0.737,0.737 0 0 1 -0.524,-0.206 0.713,0.713 0 0 1 0,-1.011 0.72,0.72 0 0 1 0.524,-0.206 z m 2.275,0 a 0.714,0.714 0 0 1 0.515,1.217 0.737,0.737 0 0 1 -1.022,0 0.7,0.7 0 0 1 0,-1.011 0.688,0.688 0 0 1 0.51,-0.206 z m 6.378,2.493 a 1.935,1.935 0 0 1 0.548,0.072 l -0.227,1.276 a 2.091,2.091 0 0 0 -0.483,-0.059 0.916,0.916 0 0 0 -0.761,0.345 2.6,2.6 0 0 0 -0.444,1.054 v 2.91 h -1.32 v -5.455 h 1.145 l 0.123,1.074 a 1.948,1.948 0 0 1 0.567,-0.9 1.274,1.274 0 0 1 0.855,-0.319 z m 12.8,5.594 h -1.332 l -0.182,-2.977 c -0.064,-1.063 -0.1,-1.911 -0.1,-2.533 v -0.373 l -1.3,5.11 h -1.288 l -1.38,-5.118 c 0.012,0.452 0.02,0.8 0.02,1.031 q 0,0.933 -0.063,1.926 l -0.175,2.934 h -1.32 l 0.567,-7.12 h 1.752 l 1.269,4.987 1.193,-4.987 h 1.786 z m 6.656,0 h -1.146 l -0.071,-0.761 a 1.991,1.991 0 0 1 -0.706,0.69 1.95,1.95 0 0 1 -0.963,0.225 1.425,1.425 0 0 1 -1.13,-0.447 1.815,1.815 0 0 1 -0.4,-1.241 v -3.917 h 1.321 V 29.5 a 1.074,1.074 0 0 0 0.158,0.658 0.623,0.623 0 0 0 0.512,0.194 1.331,1.331 0 0 0 1.1,-0.772 v -3.835 h 1.32 z m 4.337,-5.606 a 3.062,3.062 0 0 1 1.938,0.651 l -0.515,0.773 a 2.577,2.577 0 0 0 -1.372,-0.444 1.051,1.051 0 0 0 -0.606,0.15 0.454,0.454 0 0 0 -0.219,0.4 0.491,0.491 0 0 0 0.1,0.309 0.837,0.837 0 0 0 0.333,0.234 6.1,6.1 0 0 0 0.717,0.242 3.074,3.074 0 0 1 1.312,0.626 1.408,1.408 0 0 1 0.428,1.094 1.463,1.463 0 0 1 -0.662,1.275 2.811,2.811 0 0 1 -1.641,0.455 3.443,3.443 0 0 1 -1.221,-0.206 2.922,2.922 0 0 1 -0.951,-0.567 l 0.658,-0.741 a 2.449,2.449 0 0 0 1.486,0.539 1.239,1.239 0 0 0 0.706,-0.178 0.551,0.551 0 0 0 0.262,-0.484 0.634,0.634 0 0 0 -0.1,-0.376 0.8,0.8 0 0 0 -0.349,-0.246 7.931,7.931 0 0 0 -0.789,-0.262 2.69,2.69 0 0 1 -1.225,-0.634 1.408,1.408 0 0 1 -0.393,-1.015 1.356,1.356 0 0 1 0.262,-0.816 1.776,1.776 0 0 1 0.742,-0.567 2.8,2.8 0 0 1 1.103,-0.212 z m 5.534,0.155 V 31.2 h -1.32 v -5.455 z m -0.67,-2.759 a 0.813,0.813 0 0 1 0.6,0.23 0.777,0.777 0 0 1 0.234,0.571 0.756,0.756 0 0 1 -0.234,0.567 0.817,0.817 0 0 1 -0.6,0.23 0.8,0.8 0 0 1 -0.591,-0.23 0.756,0.756 0 0 1 -0.234,-0.567 0.777,0.777 0 0 1 0.234,-0.571 0.793,0.793 0 0 1 0.595,-0.23 z m 4.606,0.432 V 31.2 H 461.4 v -7.639 z m 3.267,2.327 -1.816,2.4 1.99,3.049 h -1.514 l -1.875,-2.977 1.823,-2.474 z M 348.416,36.591 v 7.12 h -1.359 v -7.12 z m 4,0 -2.461,3.223 2.66,3.9 h -1.618 l -2.517,-3.8 2.466,-3.318 z m 5.9,5.677 a 0.86,0.86 0 0 0 0.1,0.468 0.632,0.632 0 0 0 0.313,0.233 l -0.277,0.873 a 1.6,1.6 0 0 1 -0.757,-0.226 1.139,1.139 0 0 1 -0.448,-0.567 1.758,1.758 0 0 1 -0.7,0.614 2.1,2.1 0 0 1 -0.931,0.2 1.765,1.765 0 0 1 -1.289,-0.463 1.621,1.621 0 0 1 -0.472,-1.217 1.575,1.575 0 0 1 0.643,-1.356 3.082,3.082 0 0 1 1.839,-0.468 h 0.682 V 40.05 a 0.943,0.943 0 0 0 -0.246,-0.738 1.178,1.178 0 0 0 -0.777,-0.21 4.572,4.572 0 0 0 -1.443,0.29 l -0.309,-0.9 a 5.576,5.576 0 0 1 1.978,-0.389 c 1.395,0 2.093,0.623 2.093,1.876 z m -2.351,0.638 a 1.172,1.172 0 0 0 1.055,-0.67 v -1.1 h -0.547 q -1.28,0 -1.281,0.948 a 0.87,0.87 0 0 0 0.2,0.606 0.728,0.728 0 0 0 0.564,0.216 z m 7.667,-4.793 a 1.947,1.947 0 0 1 0.547,0.072 l -0.226,1.28 a 1.908,1.908 0 0 0 -0.483,-0.063 0.929,0.929 0 0 0 -0.765,0.345 2.646,2.646 0 0 0 -0.44,1.058 v 2.906 h -1.321 V 38.26 h 1.142 l 0.127,1.07 a 1.914,1.914 0 0 1 0.567,-0.9 1.273,1.273 0 0 1 0.843,-0.317 z m 3.691,5.752 a 1.293,1.293 0 0 1 -0.983,-0.368 1.414,1.414 0 0 1 -0.357,-1.035 v -6.386 l 1.32,-0.147 v 6.493 q 0,0.381 0.309,0.381 a 0.928,0.928 0 0 0 0.309,-0.052 l 0.278,0.928 a 2.133,2.133 0 0 1 -0.885,0.186 z m 4.5,-5.76 a 3.064,3.064 0 0 1 1.935,0.647 l -0.516,0.773 a 2.555,2.555 0 0 0 -1.367,-0.44 1.081,1.081 0 0 0 -0.611,0.146 0.463,0.463 0 0 0 -0.214,0.4 0.506,0.506 0 0 0 0.091,0.309 0.851,0.851 0 0 0 0.337,0.234 6.27,6.27 0 0 0 0.714,0.242 3.2,3.2 0 0 1 1.316,0.626 1.411,1.411 0 0 1 0.428,1.094 1.467,1.467 0 0 1 -0.662,1.273 2.8,2.8 0 0 1 -1.637,0.459 3.518,3.518 0 0 1 -1.221,-0.206 2.977,2.977 0 0 1 -0.952,-0.567 l 0.658,-0.741 a 2.427,2.427 0 0 0 1.483,0.535 1.267,1.267 0 0 0 0.706,-0.174 0.565,0.565 0 0 0 0.265,-0.488 0.643,0.643 0 0 0 -0.1,-0.372 0.786,0.786 0 0 0 -0.353,-0.25 7.135,7.135 0 0 0 -0.785,-0.262 2.638,2.638 0 0 1 -1.229,-0.634 1.407,1.407 0 0 1 -0.392,-1.015 1.347,1.347 0 0 1 0.266,-0.813 1.693,1.693 0 0 1 0.741,-0.566 2.736,2.736 0 0 1 1.093,-0.215 z m 6.9,0.008 a 1.952,1.952 0 0 1 0.547,0.072 l -0.226,1.28 a 1.915,1.915 0 0 0 -0.484,-0.063 0.931,0.931 0 0 0 -0.765,0.345 2.66,2.66 0 0 0 -0.44,1.058 v 2.906 h -1.32 V 38.26 h 1.142 l 0.127,1.07 a 1.876,1.876 0 0 1 0.567,-0.9 1.271,1.271 0 0 1 0.848,-0.317 z m 6.759,5.6 h -1.142 l -0.071,-0.765 a 2.046,2.046 0 0 1 -0.706,0.689 1.92,1.92 0 0 1 -0.963,0.23 1.435,1.435 0 0 1 -1.13,-0.448 1.808,1.808 0 0 1 -0.4,-1.244 V 38.26 h 1.32 v 3.75 a 1.049,1.049 0 0 0 0.158,0.658 0.624,0.624 0 0 0 0.512,0.2 1.334,1.334 0 0 0 1.1,-0.773 V 38.26 h 1.316 z M 391,38.1 a 1.488,1.488 0 0 1 1.134,0.44 1.731,1.731 0 0 1 0.412,1.217 v 3.949 h -1.32 v -3.737 a 1.058,1.058 0 0 0 -0.171,-0.678 0.629,0.629 0 0 0 -0.5,-0.2 1,1 0 0 0 -0.611,0.21 2.593,2.593 0 0 0 -0.535,0.606 v 3.8 H 388.1 v -7.623 l 1.316,-0.135 v 2.957 A 2,2 0 0 1 391,38.1 Z m 8.582,2.752 c 0,0.067 -0.012,0.245 -0.031,0.535 h -3.421 a 1.723,1.723 0 0 0 0.412,1.134 1.283,1.283 0 0 0 0.927,0.34 1.926,1.926 0 0 0 0.682,-0.119 3.238,3.238 0 0 0 0.678,-0.368 l 0.547,0.753 a 3.139,3.139 0 0 1 -2.022,0.733 2.414,2.414 0 0 1 -1.918,-0.765 3.016,3.016 0 0 1 -0.678,-2.081 3.772,3.772 0 0 1 0.289,-1.5 2.381,2.381 0 0 1 0.837,-1.039 2.48,2.48 0 0 1 3.068,0.349 2.988,2.988 0 0 1 0.634,2.033 z m -1.308,-0.381 c 0,-0.955 -0.357,-1.435 -1.062,-1.435 a 0.9,0.9 0 0 0 -0.758,0.357 2.12,2.12 0 0 0 -0.324,1.138 h 2.144 z"
           inkscape:connector-curvature="0"
           style="fill:#1e1e1c;fill-rule:evenodd" />
      </g>
    </g>
  </g>
</svg>
