<?xml version="1.0" encoding="UTF-8" standalone="no"?>
<svg
   xmlns:dc="http://purl.org/dc/elements/1.1/"
   xmlns:cc="http://creativecommons.org/ns#"
   xmlns:rdf="http://www.w3.org/1999/02/22-rdf-syntax-ns#"
   xmlns:svg="http://www.w3.org/2000/svg"
   xmlns="http://www.w3.org/2000/svg"
   xmlns:sodipodi="http://sodipodi.sourceforge.net/DTD/sodipodi-0.dtd"
   xmlns:inkscape="http://www.inkscape.org/namespaces/inkscape"
   id="Ebene_1"
   data-name="Ebene 1"
   viewBox="0 0 714.81229 97.058145"
   version="1.1"
   sodipodi:docname="bwms_hfmfr_desktop.svg"
   width="714.81232"
   height="97.058144"
   inkscape:version="0.92.5 (2060ec1f9f, 2020-04-08)">
  <metadata
     id="metadata72">
    <rdf:RDF>
      <cc:Work
         rdf:about="">
        <dc:format>image/svg+xml</dc:format>
        <dc:type
           rdf:resource="http://purl.org/dc/dcmitype/StillImage" />
        <dc:title></dc:title>
      </cc:Work>
    </rdf:RDF>
  </metadata>
  <defs
     id="defs70" />
  <sodipodi:namedview
     pagecolor="#ffffff"
     bordercolor="#666666"
     borderopacity="1"
     objecttolerance="10"
     gridtolerance="10"
     guidetolerance="10"
     inkscape:pageopacity="0"
     inkscape:pageshadow="2"
     inkscape:window-width="1976"
     inkscape:window-height="1088"
     id="namedview68"
     showgrid="false"
     fit-margin-top="15"
     fit-margin-left="15"
     fit-margin-right="15"
     fit-margin-bottom="15"
     inkscape:zoom="0.89937416"
     inkscape:cx="218.11201"
     inkscape:cy="33.026937"
     inkscape:window-x="72"
     inkscape:window-y="27"
     inkscape:window-maximized="1"
     inkscape:current-layer="Ebene_1" />
  <path
     d="m 419.78699,53.229558 c 0,2.276764 -2.51113,4.131658 -5.60318,4.131658 -3.09205,0 -5.60151,-1.854894 -5.60151,-4.131658 0,-2.276765 2.51113,-4.123288 5.60151,-4.123288 3.09037,0 5.60318,1.844849 5.60318,4.123288 z"
     id="path2"
     inkscape:connector-curvature="0"
     style="fill:#1e1e1c;stroke-width:1.6740917" />
  <path
     d="m 438.62889,49.10627 c 0,2.27509 -2.51113,4.123288 -5.6082,4.123288 -3.09707,0 -5.60151,-1.841501 -5.60151,-4.123288 0,-2.281787 2.51113,-4.131658 5.60151,-4.131658 3.09037,0 5.6082,1.851545 5.6082,4.131658 z"
     id="path4"
     inkscape:connector-curvature="0"
     style="fill:#1e1e1c;stroke-width:1.6740917" />
  <rect
     x="417.00299"
     y="32.882648"
     width="2.8610227"
     height="20.34691"
     id="rect6"
     style="fill:#1e1e1c;stroke-width:1.6740917" />
  <rect
     x="435.80133"
     y="28.757687"
     width="2.8610227"
     height="20.34691"
     id="rect8"
     style="fill:#1e1e1c;stroke-width:1.6740917" />
  <rect
     x="418.43265"
     y="29.936245"
     width="18.798376"
     height="6.0786271"
     id="rect10"
     style="fill:#1e1e1c;stroke-width:1.6740917" />
  <path
     d="m 438.6607,37.446222 h -21.65772 v -8.93965 h 21.65772 z m -18.79,-2.861023 h 15.93735 V 31.365921 H 419.8707 Z"
     id="path12"
     inkscape:connector-curvature="0"
     style="fill:#1e1e1c;stroke-width:1.6740917" />
  <path
     d="m 34.638769,48.7748 a 13.970295,13.970295 0 0 0 -1.257243,-6.932414 4.6589971,4.6589971 0 0 0 -4.315808,-2.039043 c -0.634481,0 -1.28905,0.03515 -1.970406,0.102119 -0.681355,0.06696 -1.339273,0.14732 -1.968732,0.237721 V 67.733888 H 15 V 33.212444 q 1.290725,-0.334819 3.025084,-0.714837 1.734359,-0.380019 3.667934,-0.678008 1.936925,-0.306358 3.975968,-0.477116 2.039044,-0.170757 4.01782,-0.167409 a 16.87317,16.87317 0 0 1 6.286214,0.984366 14.197971,14.197971 0 0 1 3.974294,2.343728 18.928954,18.928954 0 0 1 10.193544,-3.328094 17.877625,17.877625 0 0 1 7.031185,1.188605 10.58863,10.58863 0 0 1 4.384446,3.364924 12.723097,12.723097 0 0 1 2.234912,5.162899 33.131948,33.131948 0 0 1 0.614392,6.657863 V 67.733888 H 54.279213 V 48.7748 a 13.970295,13.970295 0 0 0 -1.257243,-6.932414 4.6589971,4.6589971 0 0 0 -4.315809,-2.039043 9.1405405,9.1405405 0 0 0 -2.276764,0.406804 8.8358558,8.8358558 0 0 0 -2.412366,1.021196 15.44517,15.44517 0 0 1 0.611043,3.294612 q 0.137276,1.732685 0.137276,3.703091 V 67.733888 H 34.638769 Z"
     id="path14"
     inkscape:connector-curvature="0"
     style="fill:#1e1e1c;stroke-width:1.6740917" />
  <path
     d="m 104.09181,66.510127 a 56.438652,56.438652 0 0 1 -6.66121,1.392844 54.732753,54.732753 0 0 1 -8.56131,0.646199 20.363651,20.363651 0 0 1 -7.57693,-1.222086 11.514402,11.514402 0 0 1 -4.792929,-3.433562 13.392733,13.392733 0 0 1 -2.511137,-5.266693 28.292149,28.292149 0 0 1 -0.746645,-6.7265 V 31.987009 H 83.36823 v 18.689559 a 14.511027,14.511027 0 0 0 1.28905,7.068015 5.1411355,5.1411355 0 0 0 4.82641,2.176319 q 1.08648,0 2.31024,-0.103794 1.22376,-0.103793 2.17632,-0.236047 V 31.987009 h 10.12658 z"
     id="path16"
     inkscape:connector-curvature="0"
     style="fill:#1e1e1c;stroke-width:1.6740917" />
  <path
     d="m 123.86618,60.461634 a 10.106491,10.106491 0 0 0 3.94249,-0.542406 2.1026591,2.1026591 0 0 0 1.15345,-2.107681 2.5797752,2.5797752 0 0 0 -1.49329,-2.13949 28.323957,28.323957 0 0 0 -4.55353,-2.074199 46.050913,46.050913 0 0 1 -4.31581,-1.833131 12.657807,12.657807 0 0 1 -3.29629,-2.278438 9.1907632,9.1907632 0 0 1 -2.10601,-3.159011 11.6567,11.6567 0 0 1 -0.74831,-4.417928 9.5506929,9.5506929 0 0 1 3.74159,-7.946913 16.2638,16.2638 0 0 1 10.26051,-2.92129 32.921012,32.921012 0 0 1 6.25273,0.577561 29.012008,29.012008 0 0 1 4.75609,1.257243 l -1.76616,7.883298 a 36.766401,36.766401 0 0 0 -3.83869,-1.08816 20.926146,20.926146 0 0 0 -4.65733,-0.475442 q -4.75609,0 -4.75442,2.650087 a 2.740488,2.740488 0 0 0 0.20257,1.086486 2.3320097,2.3320097 0 0 0 0.81528,0.917402 11.482595,11.482595 0 0 0 1.67409,0.955906 q 1.05133,0.513947 2.67855,1.130012 a 41.572718,41.572718 0 0 1 5.50441,2.432455 13.242065,13.242065 0 0 1 3.43189,2.588146 7.9887654,7.9887654 0 0 1 1.76449,3.085351 13.709137,13.709137 0 0 1 0.5106,3.934115 9.0601841,9.0601841 0 0 1 -3.97429,8.000485 19.832964,19.832964 0 0 1 -11.24822,2.712028 32.309969,32.309969 0 0 1 -7.91678,-0.815283 31.797697,31.797697 0 0 1 -4.38278,-1.359362 l 1.69921,-8.223138 a 32.926035,32.926035 0 0 0 5.30017,1.597083 25.667173,25.667173 0 0 0 5.36379,0.574214 z"
     id="path18"
     inkscape:connector-curvature="0"
     style="fill:#1e1e1c;stroke-width:1.6740917" />
  <path
     d="m 157.63931,21.657863 a 5.5496139,5.5496139 0 0 1 -1.80133,4.382772 6.4385565,6.4385565 0 0 1 -8.49266,0 5.5445916,5.5445916 0 0 1 -1.803,-4.382772 5.5563102,5.5563102 0 0 1 1.803,-4.382772 6.4435788,6.4435788 0 0 1 8.49266,0 5.5613325,5.5613325 0 0 1 1.80133,4.382772 z m -0.95089,46.076025 H 146.56184 V 31.987009 h 10.12658 z"
     id="path20"
     inkscape:connector-curvature="0"
     style="fill:#1e1e1c;stroke-width:1.6740917" />
  <path
     d="m 164.50308,49.866307 a 21.058399,21.058399 0 0 1 1.25724,-7.305736 17.075735,17.075735 0 0 1 9.41175,-10.02446 19.084645,19.084645 0 0 1 7.74769,-1.49329 24.905462,24.905462 0 0 1 5.23154,0.502227 25.459586,25.459586 0 0 1 4.62049,1.461482 l -2.106,8.087537 a 25.30557,25.30557 0 0 0 -3.12721,-0.952558 16.270497,16.270497 0 0 0 -3.80521,-0.408478 8.0222472,8.0222472 0 0 0 -6.69636,2.785688 11.47255,11.47255 0 0 0 -2.20478,7.347588 11.874332,11.874332 0 0 0 2.07252,7.47482 q 2.07253,2.648413 7.2371,2.650087 a 24.91718,24.91718 0 0 0 3.94249,-0.334818 16.665582,16.665582 0 0 0 3.87217,-1.08816 l 1.428,8.291776 a 23.822324,23.822324 0 0 1 -4.41793,1.290725 29.078972,29.078972 0 0 1 -5.84425,0.544079 21.997564,21.997564 0 0 1 -8.42738,-1.461482 15.851974,15.851974 0 0 1 -5.8091,-3.974293 15.466933,15.466933 0 0 1 -3.32976,-5.948048 25.200102,25.200102 0 0 1 -1.05301,-7.444686 z"
     id="path22"
     inkscape:connector-curvature="0"
     style="fill:#1e1e1c;stroke-width:1.6740917" />
  <path
     d="m 210.10701,63.31596 a 15.816818,15.816818 0 0 0 2.88781,-0.271203 8.6249202,8.6249202 0 0 0 2.58145,-0.88392 5.1896841,5.1896841 0 0 0 1.8415,-1.664047 4.5602257,4.5602257 0 0 0 0.71484,-2.616606 4.4899138,4.4899138 0 0 0 -0.33482,-1.801322 4.3526383,4.3526383 0 0 0 -1.08816,-1.461482 10.935167,10.935167 0 0 0 -1.86829,-1.324207 q -1.12331,-0.644525 -2.67854,-1.461482 -1.5636,-0.744971 -2.84596,-1.494964 a 10.340864,10.340864 0 0 1 -2.27844,-1.767841 7.1885496,7.1885496 0 0 1 -1.52844,-2.412366 9.2393119,9.2393119 0 0 1 -0.54241,-3.36325 10.173455,10.173455 0 0 1 3.66794,-8.187982 q 3.67128,-3.093721 10.66898,-3.093721 a 22.935056,22.935056 0 0 1 5.74381,0.646199 15.74818,15.74818 0 0 1 3.43189,1.190279 l -2.37889,5.164573 a 15.108677,15.108677 0 0 0 -3.05689,-1.156797 16.853081,16.853081 0 0 0 -4.68745,-0.611044 12.639392,12.639392 0 0 0 -2.58145,0.271203 7.3542847,7.3542847 0 0 0 -2.34373,0.919076 5.0607791,5.0607791 0 0 0 -1.6992,1.699203 4.7694871,4.7694871 0 0 0 -0.6462,2.547968 3.7600099,3.7600099 0 0 0 1.428,3.023409 19.240335,19.240335 0 0 0 4.27897,2.481004 30.845139,30.845139 0 0 1 3.16069,1.664047 11.331926,11.331926 0 0 1 2.37888,1.903442 7.1065191,7.1065191 0 0 1 1.49664,2.47933 10.181825,10.181825 0 0 1 0.50223,3.398406 11.129361,11.129361 0 0 1 -1.08649,5.022275 9.8922076,9.8922076 0 0 1 -3.02508,3.602646 13.625432,13.625432 0 0 1 -4.58534,2.139489 22.191759,22.191759 0 0 1 -5.77729,0.713163 25.765945,25.765945 0 0 1 -4.18523,-0.306359 27.401532,27.401532 0 0 1 -3.2628,-0.711489 15.112025,15.112025 0 0 1 -2.31025,-0.850439 q -0.91907,-0.44196 -1.39284,-0.713163 l 2.44585,-5.164572 c 0.3164,0.182476 0.75836,0.406804 1.32588,0.678007 a 18.532195,18.532195 0 0 0 2.03737,0.816956 19.134868,19.134868 0 0 0 2.61828,0.679682 15.977531,15.977531 0 0 0 2.97318,0.277899 z"
     id="path24"
     inkscape:connector-curvature="0"
     style="fill:#1e1e1c;stroke-width:1.6740917" />
  <path
     d="m 243.05816,68.616134 a 16.375965,16.375965 0 0 1 -5.97818,-0.984366 11.824109,11.824109 0 0 1 -4.21369,-2.718725 10.868203,10.868203 0 0 1 -2.51114,-4.042931 14.579664,14.579664 0 0 1 -0.81528,-4.89337 29.631422,29.631422 0 0 1 1.42632,-9.174022 25.186709,25.186709 0 0 1 4.07642,-7.81466 19.829616,19.829616 0 0 1 6.45697,-5.403968 18.237555,18.237555 0 0 1 8.62994,-2.00891 14.335247,14.335247 0 0 1 4.79125,0.714837 8.8442262,8.8442262 0 0 1 3.26281,1.93525 7.7577408,7.7577408 0 0 1 1.86828,2.820845 9.1271477,9.1271477 0 0 1 0.61105,3.294612 11.551232,11.551232 0 0 1 -1.15345,5.403968 11.321882,11.321882 0 0 1 -3.06024,3.703091 14.06237,14.06237 0 0 1 -4.44974,2.31192 39.173745,39.173745 0 0 1 -5.30185,1.289051 49.638492,49.638492 0 0 1 -5.57137,0.646199 q -2.82085,0.167409 -5.33366,0.306359 a 7.1148896,7.1148896 0 0 0 -0.072,0.887268 v 0.542406 a 11.343645,11.343645 0 0 0 0.37333,2.956446 5.5245025,5.5245025 0 0 0 1.39284,2.447522 6.9458063,6.9458063 0 0 0 2.82085,1.664047 15.001535,15.001535 0 0 0 4.72261,0.611044 15.918938,15.918938 0 0 0 2.67855,-0.237721 22.573452,22.573452 0 0 0 2.65008,-0.611044 c 0.83705,-0.247765 1.58537,-0.502227 2.24329,-0.746645 A 5.1562023,5.1562023 0 0 0 253.995,60.7998 l 0.54241,5.368812 a 22.265419,22.265419 0 0 1 -4.38278,1.597084 26.450648,26.450648 0 0 1 -7.09647,0.850438 z m -6.45362,-19.43453 q 3.93746,-0.135601 7.19859,-0.502227 a 22.998671,22.998671 0 0 0 5.64001,-1.289051 8.9965686,8.9965686 0 0 0 3.70309,-2.482678 6.0803009,6.0803009 0 0 0 1.32421,-4.081435 3.9157004,3.9157004 0 0 0 -0.23939,-1.292399 3.3917097,3.3917097 0 0 0 -0.81361,-1.257243 4.3626829,4.3626829 0 0 0 -1.59709,-0.94921 7.3660033,7.3660033 0 0 0 -2.51113,-0.374997 9.9641936,9.9641936 0 0 0 -4.45141,1.017848 13.496527,13.496527 0 0 0 -3.70309,2.678547 16.238689,16.238689 0 0 0 -2.78737,3.873848 20.941213,20.941213 0 0 0 -1.76281,4.658997 z"
     id="path26"
     inkscape:connector-curvature="0"
     style="fill:#1e1e1c;stroke-width:1.6740917" />
  <path
     d="m 285.94336,68.140692 q -0.33481,-0.744971 -0.67968,-1.664047 a 12.793408,12.793408 0 0 1 -0.54408,-1.936924 20.333517,20.333517 0 0 1 -4.00777,2.718725 12.878787,12.878787 0 0 1 -6.18577,1.357688 12.555687,12.555687 0 0 1 -5.12942,-0.950884 9.1422146,9.1422146 0 0 1 -3.50052,-2.650087 11.097554,11.097554 0 0 1 -2.00891,-4.00945 18.838553,18.838553 0 0 1 -0.6462,-5.097609 26.69674,26.69674 0 0 1 1.52844,-8.901145 22.432828,22.432828 0 0 1 12.26607,-13.25211 25.854672,25.854672 0 0 1 10.80459,-2.106007 26.536027,26.536027 0 0 1 4.28233,0.406804 13.560142,13.560142 0 0 1 4.21369,1.359363 l -5.22987,21.339646 q -0.33481,1.561928 -0.57923,2.989928 a 18.106975,18.106975 0 0 0 -0.23772,2.989928 18.828509,18.828509 0 0 0 0.2712,3.159011 19.198483,19.198483 0 0 0 0.95256,3.433562 z m -10.1249,-4.891696 a 9.3447796,9.3447796 0 0 0 4.89337,-1.223761 15.756551,15.756551 0 0 0 3.53233,-2.845956 q 0.067,-1.153449 0.2394,-2.412366 0.17243,-1.258917 0.44028,-2.547967 l 4.07809,-16.854755 a 4.4430393,4.4430393 0 0 0 -1.12164,-0.202565 q -0.78348,-0.06696 -1.39285,-0.06864 a 15.995946,15.995946 0 0 0 -6.99937,1.496638 16.668931,16.668931 0 0 0 -5.33533,3.974294 17.577962,17.577962 0 0 0 -3.39841,5.775616 20.194568,20.194568 0 0 0 -1.1886,6.898932 15.646061,15.646061 0 0 0 0.27287,2.887808 7.1885496,7.1885496 0 0 0 0.98437,2.583123 5.6919116,5.6919116 0 0 0 1.89507,1.82476 5.9497218,5.9497218 0 0 0 3.09707,0.714837 z"
     id="path28"
     inkscape:connector-curvature="0"
     style="fill:#1e1e1c;stroke-width:1.6740917" />
  <path
     d="m 317.60881,31.648842 c 0.5424,0 1.15345,0.02344 1.83313,0.06696 a 19.183416,19.183416 0 0 1 2.00891,0.239395 c 0.65457,0.112164 1.25724,0.226003 1.80132,0.334819 a 5.2683665,5.2683665 0 0 1 1.22209,0.371648 l -1.83313,5.506087 a 14.397188,14.397188 0 0 0 -3.12888,-0.816956 22.600237,22.600237 0 0 0 -3.39673,-0.271203 19.473034,19.473034 0 0 0 -2.81917,0.204239 14.407233,14.407233 0 0 0 -2.41404,0.542406 l -7.1986,29.902625 h -6.31969 l 8.1545,-33.984061 a 39.279213,39.279213 0 0 1 5.84425,-1.528445 34.369102,34.369102 0 0 1 6.24604,-0.567518 z"
     id="path30"
     inkscape:connector-curvature="0"
     style="fill:#1e1e1c;stroke-width:1.6740917" />
  <path
     d="m 322.56914,55.092822 a 28.571722,28.571722 0 0 1 1.39285,-8.901146 22.509836,22.509836 0 0 1 4.11157,-7.543457 19.754282,19.754282 0 0 1 15.69795,-7.136653 28.794377,28.794377 0 0 1 4.28066,0.308033 13.442956,13.442956 0 0 1 3.87384,1.188605 l -2.37888,5.306871 a 9.6578348,9.6578348 0 0 0 -2.54797,-0.952558 17.202966,17.202966 0 0 0 -3.77173,-0.334818 12.185713,12.185713 0 0 0 -5.97985,1.461482 14.536138,14.536138 0 0 0 -4.52005,3.875522 17.450731,17.450731 0 0 0 -2.84596,5.571377 21.818437,21.818437 0 0 0 -0.98604,6.557417 14.259913,14.259913 0 0 0 0.37333,3.329768 6.903954,6.903954 0 0 0 1.32588,2.753881 6.391682,6.391682 0 0 0 2.54796,1.868286 10.401131,10.401131 0 0 0 4.04294,0.678007 14.97475,14.97475 0 0 0 2.58312,-0.237721 22.904922,22.904922 0 0 0 2.51114,-0.575887 q 1.15177,-0.334819 2.07085,-0.714837 a 5.169595,5.169595 0 0 0 1.32588,-0.713163 l 0.54575,5.368812 a 16.360898,16.360898 0 0 1 -4.01782,1.595409 22.350798,22.350798 0 0 1 -6.18409,0.781801 15.768269,15.768269 0 0 1 -5.77729,-0.984366 11.393868,11.393868 0 0 1 -4.21202,-2.787363 11.996541,11.996541 0 0 1 -2.58312,-4.278978 16.216926,16.216926 0 0 1 -0.8789,-5.484324 z"
     id="path32"
     inkscape:connector-curvature="0"
     style="fill:#1e1e1c;stroke-width:1.6740917" />
  <path
     d="M 350.22848,67.733888 362.66531,16.086486 369.25621,15 364.90357,32.872603 a 24.195647,24.195647 0 0 1 3.29461,-0.885594 18.200725,18.200725 0 0 1 3.50053,-0.334819 14.683458,14.683458 0 0 1 5.26669,0.848765 9.4033729,9.4033729 0 0 1 3.56917,2.31192 9.0819473,9.0819473 0 0 1 2.00891,3.532334 15.145507,15.145507 0 0 1 0.6462,4.520047 28.446165,28.446165 0 0 1 -0.95256,6.796812 l -4.35264,18.08019 h -6.3197 l 4.01782,-16.719153 q 0.47544,-1.89842 0.9174,-3.872174 a 17.174506,17.174506 0 0 0 0.44029,-3.736573 6.848709,6.848709 0 0 0 -1.49329,-4.520047 q -1.49664,-1.797975 -5.57305,-1.801323 a 19.282188,19.282188 0 0 0 -3.36325,0.306359 11.526121,11.526121 0 0 0 -2.88948,0.850438 l -7.06802,29.492473 z"
     id="path34"
     inkscape:connector-curvature="0"
     style="fill:#1e1e1c;stroke-width:1.6740917" />
  <g
     id="Ebene_1-2"
     data-name="Ebene_1"
     transform="matrix(1.6740917,0,0,1.6740917,-47.033466,-8.726901)">
    <g
       id="_2821437549184"
       data-name=" 2821437549184">
      <polygon
         points="386.292,31.928 381.251,31.928 381.385,37.565 381.251,39.954 383.308,39.954 383.241,37.366 383.241,36.969 384.104,36.969 385.628,36.969 385.762,35.511 385.628,35.378 384.235,35.378 383.241,35.378 383.308,33.52 384.304,33.52 386.227,33.588 386.359,32.127 "
         id="polygon36"
         style="fill:#c42323" />
      <path
         id="_1"
         data-name="1"
         d="m 390.471,29.142 a 0.84,0.84 0 0 0 -0.927,0.931 0.767,0.767 0 0 0 0.862,0.859 0.838,0.838 0 0 0 0.928,-0.927 0.8,0.8 0 0 0 -0.863,-0.863 z m 2.255,0 a 0.839,0.839 0 0 0 -0.927,0.931 0.767,0.767 0 0 0 0.861,0.859 0.837,0.837 0 0 0 0.929,-0.927 c -0.067,-0.531 -0.332,-0.863 -0.863,-0.863 z m 2.122,2.786 h -2.057 l 0.069,5.041 c 0,1 -0.465,1.458 -1.393,1.458 -0.928,0 -1.393,-0.462 -1.393,-1.523 l 0.065,-4.976 h -1.988 l 0.065,4.045 v 1.2 c -0.065,1.858 1.061,2.854 3.183,2.854 2.122,0 3.384,-1.064 3.318,-2.919 v -1.13 l 0.131,-4.045 z"
         inkscape:connector-curvature="0"
         style="fill:#c42323" />
      <path
         id="_2"
         data-name="2"
         d="m 401.548,36.771 a 3.05,3.05 0 0 0 1.459,-2.454 c 0,-1.591 -1,-2.389 -2.72,-2.389 h -3.382 l 0.134,5.637 -0.134,2.389 h 1.989 l -0.065,-2.588 h 1.061 c 0.4,0.863 0.862,1.725 1.259,2.523 l 0.2,0.133 a 10.8,10.8 0 0 0 1.99,-0.4 v -0.2 c -0.6,-0.794 -1.194,-1.725 -1.791,-2.652 z m -2.654,-3.382 0.664,-0.068 c 0.862,0.068 1.259,0.4 1.259,1.194 a 1.329,1.329 0 0 1 -0.861,1.393 l -1.062,-0.065 z"
         inkscape:connector-curvature="0"
         style="fill:#c42323" />
      <polygon
         id="_3"
         data-name="3"
         points="411.762,36.572 411.697,36.572 410.636,33.123 410.369,31.928 408.049,31.928 407.251,39.954 408.911,39.954 409.043,37.366 409.308,34.913 409.442,34.913 410.834,39.16 412.359,39.16 413.952,34.913 414.084,34.913 414.349,37.5 414.414,39.954 416.206,39.954 415.544,31.928 413.222,31.928 412.89,33.123 "
         style="fill:#c42323" />
      <path
         id="_4"
         data-name="4"
         d="m 424.9,31.928 h -2.06 l 0.065,5.041 c 0,1 -0.465,1.458 -1.392,1.458 -0.927,0 -1.394,-0.462 -1.394,-1.523 l 0.134,-4.976 h -1.99 l 0.067,4.045 v 1.2 c -0.067,1.858 1.06,2.854 3.183,2.854 2.123,0 3.382,-1.064 3.316,-2.919 v -1.13 l 0.066,-4.045 z"
         inkscape:connector-curvature="0"
         style="fill:#c42323" />
      <path
         id="_5"
         data-name="5"
         d="m 430.069,31.8 c -1.857,0 -3.118,1.129 -3.118,2.587 0,2.389 3.449,2.255 3.449,3.45 0,0.332 -0.265,0.729 -0.927,0.729 a 3.564,3.564 0 0 1 -2.19,-0.928 l -0.2,0.134 -0.265,1.79 a 6.674,6.674 0 0 0 2.454,0.465 c 1.923,0 3.184,-1.129 3.184,-2.587 0,-2.389 -3.449,-2.324 -3.449,-3.45 a 0.772,0.772 0 0 1 0.862,-0.664 4,4 0 0 1 1.79,0.664 l 0.267,-0.133 0.332,-1.657 a 7.646,7.646 0 0 0 -2.19,-0.4 z"
         inkscape:connector-curvature="0"
         style="fill:#c42323" />
      <polygon
         id="_6"
         data-name="6"
         points="434.713,39.954 436.768,39.954 436.701,37.366 436.768,31.928 434.713,31.928 434.845,37.565 "
         style="fill:#c42323" />
      <path
         id="_7"
         data-name="7"
         d="m 443.334,35.71 2.652,-3.782 h -2.122 l -0.463,0.8 -1.924,2.785 v -3.585 h -2.055 l 0.065,5.637 -0.065,2.389 h 1.988 l -0.065,-2.588 v -1.393 c 0.794,1.393 1.657,2.656 2.519,3.981 l 0.267,0.133 a 20.025,20.025 0 0 0 1.989,-0.332 v -0.2 c -0.928,-1.26 -1.924,-2.523 -2.786,-3.847 z"
         inkscape:connector-curvature="0"
         style="fill:#c42323" />
      <path
         d="m 333.365,26.555 a 10.351,10.351 0 0 1 1.988,-0.13 4.54,4.54 0 0 1 1.128,0.065 l 0.132,-0.6 v -0.068 c -0.132,0 -0.4,0.068 -0.6,0.068 -0.465,0 -0.6,-0.2 -0.6,-0.931 l 0.067,-2.385 c 0.862,-0.068 1.923,-0.133 2.187,-0.133 h 1.991 v 1.988 c 0,1.194 -0.2,1.393 -1,1.393 l -0.133,0.6 h 1.526 a 14.713,14.713 0 0 1 1.658,0.065 l 0.132,-0.6 v -0.068 c -0.132,0 -0.4,0.068 -0.595,0.068 -0.466,0 -0.6,-0.2 -0.6,-0.8 0,-1.126 0.066,-3.782 0.2,-5.835 0,-0.534 0.2,-0.664 0.862,-0.733 l 0.067,-0.595 A 15.768,15.768 0 0 1 340.184,18.057 6.361,6.361 0 0 1 338.868,18 l -0.065,0.6 v 0.065 h 0.464 c 0.4,0 0.463,0.133 0.463,0.729 v 2.389 a 11.8,11.8 0 0 1 -1.988,0.133 h -2.255 l 0.065,-2.122 c 0.066,-0.931 0.133,-1.064 0.862,-1.194 l 0.067,-0.6 a 11.782,11.782 0 0 1 -1.393,0.133 10.976,10.976 0 0 1 -1.46,-0.065 l -0.065,0.6 v 0.065 h 0.464 c 0.4,0 0.464,0.133 0.464,0.732 v 5.572 c 0,0.729 -0.2,0.992 -1.061,1.126 l -0.065,0.4 z"
         id="path45"
         inkscape:connector-curvature="0"
         style="fill:#6e6e6e" />
      <path
         id="_1-2"
         data-name="1"
         d="m 345.832,26.555 a 3.17,3.17 0 0 0 3.052,-3.381 2.643,2.643 0 0 0 -2.586,-2.92 3.174,3.174 0 0 0 -3.053,3.385 c 0.069,1.725 1.13,2.916 2.587,2.916 z m 0.4,-0.661 c -1.127,0 -1.856,-1.064 -1.856,-2.655 0,-1.393 0.6,-2.256 1.591,-2.256 1.126,0 1.857,1.13 1.857,2.721 0,1.328 -0.6,2.19 -1.592,2.19 z"
         inkscape:connector-curvature="0"
         style="fill:#6e6e6e" />
      <path
         id="_2-2"
         data-name="2"
         d="m 353.526,26.555 a 4.406,4.406 0 0 0 1.792,-0.862 l -0.067,-0.462 h -0.065 a 3.263,3.263 0 0 1 -1.526,0.462 c -1.128,0 -1.79,-0.928 -1.79,-2.519 0,-1.393 0.595,-2.191 1.656,-2.191 a 1.011,1.011 0 0 1 1.061,1.065 v 0.4 l 0.53,-0.069 a 11.534,11.534 0 0 1 0.268,-1.855 l -0.067,-0.068 a 5.082,5.082 0 0 0 -1.525,-0.264 3.171,3.171 0 0 0 -3.053,3.382 c 0.069,1.858 1.13,2.984 2.786,2.984 z"
         inkscape:connector-curvature="0"
         style="fill:#6e6e6e" />
      <path
         id="_3-2"
         data-name="3"
         d="m 357.308,25.894 -0.067,0.531 h 1.326 a 6.967,6.967 0 0 1 1.195,0.065 l 0.133,-0.6 v -0.068 h -0.465 c -0.332,0 -0.464,-0.2 -0.464,-0.729 0,-1.126 0,-2.255 0.067,-3.251 a 3.534,3.534 0 0 1 1.656,-0.729 c 0.731,0 1.13,0.53 1.13,1.393 l -0.067,2.652 a 0.8,0.8 0 0 1 -0.731,0.862 l -0.065,0.531 a 12.381,12.381 0 0 1 1.393,-0.13 7.349,7.349 0 0 1 1.194,0.065 l 0.132,-0.6 v -0.068 h -0.463 c -0.332,0 -0.466,-0.2 -0.466,-0.729 0,-0.8 0.2,-2.652 0.2,-3.118 a 1.622,1.622 0 0 0 -1.79,-1.725 5.7,5.7 0 0 0 -1.99,1.061 25.775,25.775 0 0 1 0.332,-4.575 l -0.067,-0.2 a 12.942,12.942 0 0 1 -1.989,0.4 l -0.267,0.4 0.067,0.065 h 0.265 c 0.332,0 0.466,0.2 0.466,0.664 V 25.1 c 0,0.53 -0.2,0.729 -0.664,0.8 z"
         inkscape:connector-curvature="0"
         style="fill:#6e6e6e" />
      <path
         id="_4-2"
         data-name="4"
         d="m 367.058,26.555 a 2.258,2.258 0 0 0 2.454,-1.923 c 0,-0.661 -0.4,-1.126 -1.858,-1.855 -0.794,-0.4 -1.126,-0.8 -1.126,-1.2 0,-0.4 0.464,-0.729 1.061,-0.729 0.729,0 1.061,0.264 1.061,0.928 v 0.4 l 0.463,-0.065 a 9.594,9.594 0 0 1 0.266,-1.592 v -0.068 a 4.658,4.658 0 0 0 -1.326,-0.2 c -1.393,0 -2.454,0.8 -2.454,1.859 0,0.664 0.463,1.126 1.459,1.656 1.195,0.664 1.525,0.931 1.525,1.393 0,0.462 -0.53,0.8 -1.193,0.8 -0.929,0 -1.261,-0.4 -1.261,-1.591 l -0.464,0.065 c 0,0.465 -0.133,1.526 -0.133,1.79 l 0.067,0.069 c -0.132,0 0.463,0.263 1.459,0.263 z"
         inkscape:connector-curvature="0"
         style="fill:#6e6e6e" />
      <path
         id="_5-2"
         data-name="5"
         d="m 374.287,26.555 a 4.407,4.407 0 0 0 1.791,-0.862 l -0.132,-0.4 h -0.066 a 3.248,3.248 0 0 1 -1.525,0.465 c -1.129,0 -1.793,-0.931 -1.793,-2.522 0,-1.393 0.6,-2.187 1.66,-2.187 a 1.007,1.007 0 0 1 1.06,1.061 v 0.4 l 0.531,-0.065 a 11.59,11.59 0 0 1 0.265,-1.859 l -0.067,-0.065 a 5.013,5.013 0 0 0 -1.524,-0.267 3.173,3.173 0 0 0 -3.051,3.385 2.73,2.73 0 0 0 2.851,2.916 z"
         inkscape:connector-curvature="0"
         style="fill:#6e6e6e" />
      <path
         id="_6-2"
         data-name="6"
         d="m 378,25.894 -0.067,0.531 h 1.328 a 6.967,6.967 0 0 1 1.194,0.065 l 0.132,-0.6 v -0.068 h -0.464 c -0.332,0 -0.465,-0.2 -0.465,-0.729 0,-1.126 0,-2.255 0.066,-3.251 a 3.547,3.547 0 0 1 1.659,-0.729 c 0.729,0 1.127,0.53 1.127,1.393 l -0.067,2.652 a 0.8,0.8 0 0 1 -0.728,0.862 l -0.067,0.531 a 12.381,12.381 0 0 1 1.393,-0.13 7.331,7.331 0 0 1 1.192,0.065 l 0.134,-0.6 v -0.068 h -0.464 c -0.332,0 -0.464,-0.2 -0.464,-0.729 0,-0.8 0.2,-2.652 0.2,-3.118 a 1.623,1.623 0 0 0 -1.792,-1.725 5.724,5.724 0 0 0 -1.99,1.061 25.775,25.775 0 0 1 0.332,-4.575 l -0.065,-0.2 a 12.986,12.986 0 0 1 -1.992,0.4 l -0.263,0.4 0.065,0.065 h 0.267 c 0.33,0 0.462,0.2 0.462,0.664 V 25.1 c 0,0.53 -0.2,0.729 -0.662,0.8 z"
         inkscape:connector-curvature="0"
         style="fill:#6e6e6e" />
      <path
         id="_7-2"
         data-name="7"
         d="m 386.426,21.781 -0.067,3.251 c 0,0.992 0.6,1.523 1.792,1.523 a 5.634,5.634 0 0 0 1.856,-1.126 h 0.067 a 1.047,1.047 0 0 0 1.193,1.061 c 0.464,0 1.128,-1.061 1.128,-1.061 l -0.2,-0.133 a 1.487,1.487 0 0 1 -0.8,0.331 c -0.331,0 -0.531,-0.2 -0.531,-0.595 a 27.644,27.644 0 0 1 0.267,-4.579 l -0.067,-0.2 c 0,0 -1.127,0.267 -2.055,0.4 l -0.068,0.462 h 0.332 c 0.465,0 0.664,0.2 0.664,0.729 V 24.9 a 2.93,2.93 0 0 1 -1.592,0.729 c -0.729,0 -1.061,-0.4 -1.061,-1.327 a 22.271,22.271 0 0 1 0.332,-3.912 l -0.068,-0.134 c 0,0 -1.061,0.267 -1.924,0.4 l -0.065,0.462 a 1.374,1.374 0 0 1 0.332,-0.065 c 0.332,0 0.531,0.263 0.531,0.729 z"
         inkscape:connector-curvature="0"
         style="fill:#6e6e6e" />
      <path
         id="_8"
         data-name="8"
         d="m 393.654,26.555 c 0.531,-0.065 1.063,-0.13 1.393,-0.13 a 7.356,7.356 0 0 1 1.194,0.065 l 0.134,-0.6 v -0.068 h -0.466 c -0.332,0 -0.463,-0.2 -0.463,-0.729 a 56.276,56.276 0 0 1 0.4,-8.357 l -0.066,-0.2 c -0.663,0.2 -1.327,0.264 -1.991,0.4 l -0.065,0.465 h 0.4 c 0.4,0 0.466,0.2 0.466,0.729 v 6.5 c 0,0.862 0,1.194 -0.731,1.392 l -0.2,0.531 z"
         inkscape:connector-curvature="0"
         style="fill:#6e6e6e" />
      <path
         id="_9"
         data-name="9"
         d="m 400.685,26.555 a 4.436,4.436 0 0 0 2.057,-0.928 l -0.132,-0.4 h -0.068 a 4.02,4.02 0 0 1 -1.591,0.4 c -1.26,0 -1.989,-0.927 -1.989,-2.652 h 3.648 l 0.2,-0.133 a 1.888,1.888 0 0 0 0.065,-0.664 1.739,1.739 0 0 0 -1.988,-1.924 3.243,3.243 0 0 0 -2.92,3.385 2.631,2.631 0 0 0 2.719,2.916 z m -1.723,-4.045 a 1.664,1.664 0 0 1 1.657,-1.592 1,1 0 0 1 1.129,1.061 c 0,0.267 -0.068,0.332 -0.332,0.332 l -2.454,0.2 z"
         inkscape:connector-curvature="0"
         style="fill:#6e6e6e" />
      <path
         d="m 352.864,51.1 a 12.131,12.131 0 0 1 1.525,-0.133 c 0.728,0 1.99,0.068 1.99,0.068 l 0.132,-0.6 V 50.37 c 0,0 -0.663,0.065 -0.928,0.065 -0.466,0 -0.6,-0.2 -0.6,-0.927 l 0.066,-2.191 a 4.191,4.191 0 0 1 1,-0.065 c 0.6,0 1.657,0.065 1.657,0.065 l 0.2,-0.794 -0.065,-0.068 c 0,0 -1,0.133 -1.393,0.133 h -1.393 l 0.134,-2.786 c 0,-0.461 0.065,-0.53 0.927,-0.53 1.592,0 1.79,0.069 1.79,0.931 V 44.8 l 0.664,-0.065 a 13.646,13.646 0 0 1 0.332,-2.255 l -0.065,-0.068 c -0.931,0.068 -2.057,0.133 -3.848,0.133 -0.8,0 -1.857,-0.065 -1.857,-0.065 l -0.067,0.6 v 0.065 h 0.464 c 0.4,0 0.466,0.133 0.466,0.732 v 5.572 c 0,0.729 -0.2,0.992 -1.061,1.126 l -0.067,0.53 z"
         id="path56"
         inkscape:connector-curvature="0"
         style="fill:#6e6e6e" />
      <path
         id="_1-3"
         data-name="1"
         d="m 360.094,50.5 -0.067,0.53 a 13.662,13.662 0 0 1 1.393,-0.068 h 1.326 l 0.134,-0.6 V 50.3 h -0.6 c -0.53,0 -0.662,-0.2 -0.662,-0.8 0,-0.267 0.132,-2.721 0.132,-2.721 0.4,-0.531 0.861,-0.928 1.259,-0.928 0.266,0 0.332,0.2 0.332,0.928 l 0.531,-0.065 a 13.7,13.7 0 0 1 0.2,-1.924 l -0.068,-0.065 a 0.939,0.939 0 0 0 -0.4,-0.068 2.884,2.884 0 0 0 -1.856,1.393 l -0.067,-0.065 a 10.233,10.233 0 0 1 0.134,-1.393 l -0.067,-0.068 c 0,0 -0.994,0.266 -1.792,0.4 l -0.065,0.664 0.065,0.065 a 0.708,0.708 0 0 1 0.267,-0.065 c 0.33,0 0.531,0.2 0.531,0.794 v 2.919 c 0,0.928 -0.134,1.126 -0.664,1.2 z"
         inkscape:connector-curvature="0"
         style="fill:#6e6e6e" />
      <path
         id="_2-3"
         data-name="2"
         d="m 368.184,51.1 a 4.416,4.416 0 0 0 2.057,-0.927 l -0.133,-0.332 h -0.065 a 4.039,4.039 0 0 1 -1.592,0.4 c -1.261,0 -1.99,-0.928 -1.99,-2.653 h 3.647 l 0.2,-0.133 a 1.834,1.834 0 0 0 0.067,-0.664 1.74,1.74 0 0 0 -1.991,-1.924 3.24,3.24 0 0 0 -2.917,3.385 2.577,2.577 0 0 0 2.717,2.851 z m -1.723,-4.045 a 1.665,1.665 0 0 1 1.658,-1.592 1,1 0 0 1 1.126,1.061 c 0,0.264 -0.065,0.332 -0.33,0.332 l -2.454,0.2 z"
         inkscape:connector-curvature="0"
         style="fill:#6e6e6e" />
      <path
         id="_3-3"
         data-name="3"
         d="m 373.292,43.27 a 0.766,0.766 0 0 0 0.8,-0.794 0.625,0.625 0 0 0 -0.664,-0.664 0.766,0.766 0 0 0 -0.794,0.794 c 0.066,0.267 0.26,0.664 0.658,0.664 z m -1.127,7.83 a 10.37,10.37 0 0 1 1.393,-0.133 c 0.465,0 1.194,0.068 1.194,0.068 l 0.133,-0.6 V 50.37 h -0.465 c -0.332,0 -0.466,-0.2 -0.466,-0.729 a 22,22 0 0 1 0.333,-4.709 l -0.065,-0.134 c 0,0 -1,0.264 -1.924,0.4 l -0.067,0.465 a 1.373,1.373 0 0 1 0.331,-0.065 c 0.332,0 0.465,0.2 0.465,0.729 V 49.7 c 0,0.466 -0.2,0.729 -0.729,0.863 l -0.133,0.53 z"
         inkscape:connector-curvature="0"
         style="fill:#6e6e6e" />
      <path
         id="_4-3"
         data-name="4"
         d="m 378.931,51.1 a 3.358,3.358 0 0 0 3.316,-3.45 2.621,2.621 0 0 0 -2.587,-2.85 4.77,4.77 0 0 0 -1.592,0.928 23.374,23.374 0 0 1 0.332,-4.442 l -0.066,-0.2 c 0,0 -1.063,0.264 -1.991,0.4 l -0.065,0.465 0.065,0.066 a 0.7,0.7 0 0 1 0.266,-0.066 c 0.332,0 0.463,0.2 0.463,0.73 v 8.159 l 0.134,0.13 a 12.964,12.964 0 0 0 1.725,0.133 z m 0.4,-0.729 A 4.255,4.255 0 0 1 378,50.1 l 0.066,-3.713 a 2.834,2.834 0 0 1 1.393,-0.729 c 1,0 1.725,1.061 1.725,2.454 0.065,1.393 -0.664,2.255 -1.858,2.255 z"
         inkscape:connector-curvature="0"
         style="fill:#6e6e6e" />
      <path
         id="_5-3"
         data-name="5"
         d="m 384.567,46.388 -0.065,3.251 c 0,0.993 0.6,1.523 1.79,1.523 a 5.616,5.616 0 0 0 1.859,-1.126 h 0.065 a 1.048,1.048 0 0 0 1.194,1.064 c 0.466,0 1.128,-1.061 1.128,-1.061 l -0.2,-0.2 a 1.483,1.483 0 0 1 -0.794,0.332 c -0.332,0 -0.531,-0.2 -0.531,-0.6 A 27.965,27.965 0 0 1 389.277,45 l -0.065,-0.134 c 0,0 -1.13,0.268 -2.057,0.4 l -0.065,0.462 h 0.33 c 0.464,0 0.662,0.2 0.662,0.729 v 3.053 a 2.912,2.912 0 0 1 -1.591,0.729 c -0.729,0 -1.061,-0.4 -1.061,-1.325 A 22.184,22.184 0 0 1 385.762,45 l -0.065,-0.134 c 0,0 -1.063,0.268 -1.924,0.4 v 0.462 a 1.373,1.373 0 0 1 0.331,-0.065 c 0.332,0 0.463,0.263 0.463,0.729 z"
         inkscape:connector-curvature="0"
         style="fill:#6e6e6e" />
      <path
         id="_6-3"
         data-name="6"
         d="m 392.063,50.5 -0.066,0.53 a 13.638,13.638 0 0 1 1.393,-0.068 h 1.327 l 0.131,-0.6 V 50.3 h -0.6 c -0.531,0 -0.664,-0.2 -0.664,-0.8 0,-0.267 0.133,-2.721 0.133,-2.721 0.4,-0.531 0.863,-0.928 1.26,-0.928 0.265,0 0.332,0.2 0.332,0.928 l 0.53,-0.065 a 13.77,13.77 0 0 1 0.2,-1.924 l -0.067,-0.065 a 0.941,0.941 0 0 0 -0.4,-0.068 2.885,2.885 0 0 0 -1.855,1.393 l -0.068,-0.065 a 10.307,10.307 0 0 1 0.133,-1.393 l -0.065,-0.068 c 0,0 -1,0.266 -1.791,0.4 l -0.067,0.4 0.067,0.065 a 0.692,0.692 0 0 1 0.265,-0.065 c 0.332,0 0.53,0.2 0.53,0.8 v 2.916 c 0,1.2 -0.133,1.393 -0.663,1.462 z"
         inkscape:connector-curvature="0"
         style="fill:#6e6e6e" />
      <path
         id="_7-3"
         data-name="7"
         d="m 403.339,45.327 0.132,-0.729 -0.067,-0.068 c -0.794,0.2 -1.458,0.331 -1.856,0.4 -0.331,0 -0.8,-0.134 -1.326,-0.134 a 2.478,2.478 0 0 0 -2.454,2.389 1.98,1.98 0 0 0 0.994,1.725 v 0.065 a 6.579,6.579 0 0 0 -1.061,0.863 c 0,0.664 0.53,1.126 1.46,1.324 v 0.069 a 6.089,6.089 0 0 0 -1.328,1.194 1.767,1.767 0 0 0 1.992,1.79 c 1.656,0 3.247,-1.194 3.247,-2.32 0,-1.924 -4.377,-1 -4.377,-2.057 0,-0.2 0.134,-0.4 0.6,-0.6 a 2.322,2.322 0 0 0 0.729,0.133 2.461,2.461 0 0 0 2.587,-2.32 1.978,1.978 0 0 0 -0.532,-1.328 l 0.067,-0.065 a 3.514,3.514 0 0 1 1.194,-0.332 z m -2.984,3.316 a 1.523,1.523 0 0 1 -1.526,-1.725 1.293,1.293 0 0 1 1.326,-1.458 1.556,1.556 0 0 1 1.525,1.725 1.293,1.293 0 0 1 -1.325,1.458 z m -0.664,2.588 c 2.122,0.263 2.587,0.462 2.587,0.995 0,0.73 -0.929,1.325 -1.991,1.325 -0.861,0 -1.393,-0.4 -1.393,-1 a 1.708,1.708 0 0 1 0.8,-1.324 z"
         inkscape:connector-curvature="0"
         style="fill:#6e6e6e" />
    </g>
  </g>
</svg>
