<svg id="Ebene_1" data-name="Ebene 1" xmlns="http://www.w3.org/2000/svg" viewBox="0 0 480.334 72.405"><path d="M264.208,37.009c0,1.36-1.5,2.468-3.348,2.468s-3.345-1.108-3.345-2.468,1.5-2.463,3.345-2.463S264.208,35.648,264.208,37.009Z" fill="#fff"/><path d="M275.462,34.546c0,1.359-1.5,2.463-3.349,2.463s-3.346-1.1-3.346-2.463,1.5-2.468,3.346-2.468S275.462,33.184,275.462,34.546Z" fill="#fff"/><rect x="262.545" y="24.855" width="1.709" height="12.154" fill="#fff"/><rect x="273.774" y="22.391" width="1.709" height="12.154" fill="#fff"/><rect x="263.399" y="23.095" width="11.229" height="3.631" fill="#fff"/><path d="M275.482,27.581H262.545v-5.34h12.937Zm-11.228-1.709h9.52V23.949h-9.52Z" fill="#fff"/><path d="M34.144,34.347a8.35,8.35,0,0,0-.751-4.141,2.784,2.784,0,0,0-2.578-1.217c-.379,0-.77.02-1.176.06s-.8.088-1.177.143v16.48H22.413V25.051c.514-.136,1.116-.277,1.807-.427s1.421-.284,2.191-.4,1.564-.217,2.375-.284,1.61-.1,2.4-.1a10.09,10.09,0,0,1,3.754.588,8.506,8.506,0,0,1,2.374,1.4A11.319,11.319,0,0,1,43.4,23.833a10.7,10.7,0,0,1,4.2.71,6.342,6.342,0,0,1,2.619,2.01,7.619,7.619,0,0,1,1.339,3.085,19.875,19.875,0,0,1,.366,3.977V45.672H45.876V34.347a8.35,8.35,0,0,0-.751-4.141,2.784,2.784,0,0,0-2.578-1.217,5.468,5.468,0,0,0-1.36.243,5.278,5.278,0,0,0-1.441.609,9.162,9.162,0,0,1,.365,1.969c.055.689.082,1.428.082,2.212v11.65H34.144Z" fill="#fff"/><path d="M75.631,44.942a33.713,33.713,0,0,1-3.979.832,32.7,32.7,0,0,1-5.114.385,12.167,12.167,0,0,1-4.526-.73,6.876,6.876,0,0,1-2.863-2.051,8,8,0,0,1-1.5-3.145,16.962,16.962,0,0,1-.446-4.019V24.32H63.25V35.484a8.666,8.666,0,0,0,.77,4.221A3.069,3.069,0,0,0,66.9,41q.649,0,1.38-.061t1.3-.142V24.32h6.049Z" fill="#fff"/><path d="M87.443,41.328A6.037,6.037,0,0,0,89.8,41a1.256,1.256,0,0,0,.689-1.259,1.541,1.541,0,0,0-.892-1.278,17.021,17.021,0,0,0-2.72-1.238,27.77,27.77,0,0,1-2.578-1.1,7.582,7.582,0,0,1-1.969-1.36,5.5,5.5,0,0,1-1.258-1.888,6.956,6.956,0,0,1-.447-2.639A5.705,5.705,0,0,1,82.856,25.5a9.715,9.715,0,0,1,6.129-1.745,19.665,19.665,0,0,1,3.735.345,17.33,17.33,0,0,1,2.841.751l-1.055,4.709a22.21,22.21,0,0,0-2.293-.65,12.5,12.5,0,0,0-2.781-.284q-2.842,0-2.841,1.583a1.645,1.645,0,0,0,.121.65,1.4,1.4,0,0,0,.487.548,6.953,6.953,0,0,0,1,.571q.628.306,1.6.675A24.7,24.7,0,0,1,93.086,34.1a7.865,7.865,0,0,1,2.05,1.546,4.769,4.769,0,0,1,1.054,1.842,8.189,8.189,0,0,1,.305,2.35,5.411,5.411,0,0,1-2.374,4.779A11.847,11.847,0,0,1,87.4,46.24a18.984,18.984,0,0,1-7.347-1.3L81.07,40.03a19.8,19.8,0,0,0,3.166.954A15.4,15.4,0,0,0,87.443,41.328Z" fill="#fff"/><path d="M107.617,18.15a3.318,3.318,0,0,1-1.076,2.618,3.849,3.849,0,0,1-5.073,0,3.314,3.314,0,0,1-1.076-2.618,3.316,3.316,0,0,1,1.076-2.618,3.846,3.846,0,0,1,5.073,0A3.319,3.319,0,0,1,107.617,18.15Zm-.568,27.522H101V24.32h6.049Z" fill="#fff"/><path d="M111.717,35a12.579,12.579,0,0,1,.751-4.364,10.214,10.214,0,0,1,5.622-5.987,11.385,11.385,0,0,1,4.628-.893,14.944,14.944,0,0,1,3.125.3,15.208,15.208,0,0,1,2.76.873l-1.258,4.831a15.119,15.119,0,0,0-1.868-.568,9.719,9.719,0,0,0-2.273-.244,4.789,4.789,0,0,0-4,1.664A6.85,6.85,0,0,0,117.887,35a7.091,7.091,0,0,0,1.238,4.465q1.238,1.584,4.323,1.583a14.767,14.767,0,0,0,2.355-.2,9.99,9.99,0,0,0,2.313-.649l.853,4.953a14.136,14.136,0,0,1-2.639.77,17.37,17.37,0,0,1-3.491.325,13.135,13.135,0,0,1-5.033-.873,9.464,9.464,0,0,1-3.471-2.374,9.248,9.248,0,0,1-1.989-3.552A15.065,15.065,0,0,1,111.717,35Z" fill="#fff"/><path d="M138.955,43.033a9.352,9.352,0,0,0,1.725-.162,5.168,5.168,0,0,0,1.543-.528,3.083,3.083,0,0,0,1.095-.994,2.724,2.724,0,0,0,.427-1.563,2.685,2.685,0,0,0-.2-1.076,2.634,2.634,0,0,0-.649-.873,6.6,6.6,0,0,0-1.117-.791q-.671-.386-1.6-.873-.934-.446-1.705-.892a6.207,6.207,0,0,1-1.361-1.056,4.3,4.3,0,0,1-.913-1.442,5.509,5.509,0,0,1-.324-2.008,6.082,6.082,0,0,1,2.191-4.892q2.193-1.846,6.373-1.848a13.7,13.7,0,0,1,3.431.386,9.407,9.407,0,0,1,2.05.711l-1.421,3.085a9.035,9.035,0,0,0-1.826-.69,10.029,10.029,0,0,0-2.8-.366,7.482,7.482,0,0,0-1.542.163,4.391,4.391,0,0,0-1.4.548,3.023,3.023,0,0,0-1.015,1.015,2.852,2.852,0,0,0-.386,1.522,2.249,2.249,0,0,0,.853,1.806,11.439,11.439,0,0,0,2.557,1.483,18.4,18.4,0,0,1,1.887.994,6.74,6.74,0,0,1,1.421,1.136,4.226,4.226,0,0,1,.894,1.482,6.072,6.072,0,0,1,.3,2.029,6.629,6.629,0,0,1-.649,3,5.909,5.909,0,0,1-1.807,2.152,8.122,8.122,0,0,1-2.739,1.279,13.257,13.257,0,0,1-3.451.425,15.511,15.511,0,0,1-2.5-.182,16.29,16.29,0,0,1-1.948-.426,9,9,0,0,1-1.381-.508c-.366-.176-.643-.317-.832-.426l1.462-3.084q.282.162.791.405a11.164,11.164,0,0,0,1.217.487,11.468,11.468,0,0,0,1.564.406A9.461,9.461,0,0,0,138.955,43.033Z" fill="#fff"/><path d="M158.642,46.2a9.806,9.806,0,0,1-3.572-.587,7.09,7.09,0,0,1-2.517-1.624,6.508,6.508,0,0,1-1.5-2.415,8.713,8.713,0,0,1-.487-2.923,17.73,17.73,0,0,1,.852-5.481,15.057,15.057,0,0,1,2.435-4.668,11.854,11.854,0,0,1,3.857-3.227,10.9,10.9,0,0,1,5.155-1.2,8.569,8.569,0,0,1,2.863.427,5.287,5.287,0,0,1,1.948,1.156,4.643,4.643,0,0,1,1.116,1.685,5.458,5.458,0,0,1,.365,1.969,6.9,6.9,0,0,1-.689,3.227,6.773,6.773,0,0,1-1.827,2.212,8.4,8.4,0,0,1-2.659,1.381,23.546,23.546,0,0,1-3.167.771,29.885,29.885,0,0,1-3.328.385q-1.685.1-3.186.183a4.278,4.278,0,0,0-.041.528v.324a6.771,6.771,0,0,0,.223,1.766,3.294,3.294,0,0,0,.832,1.462,4.149,4.149,0,0,0,1.685.994,8.961,8.961,0,0,0,2.821.365,9.5,9.5,0,0,0,1.6-.141,13.9,13.9,0,0,0,1.583-.365q.75-.224,1.34-.447a3.068,3.068,0,0,0,.832-.426l.324,3.207a13.365,13.365,0,0,1-2.618.954A15.79,15.79,0,0,1,158.642,46.2ZM154.786,34.59q2.352-.081,4.3-.305a13.738,13.738,0,0,0,3.369-.77,5.348,5.348,0,0,0,2.212-1.483,3.632,3.632,0,0,0,.792-2.435,2.344,2.344,0,0,0-.143-.772,2.014,2.014,0,0,0-.486-.751,2.62,2.62,0,0,0-.954-.567,4.415,4.415,0,0,0-1.5-.224,5.953,5.953,0,0,0-2.659.609,8.053,8.053,0,0,0-2.212,1.6,9.69,9.69,0,0,0-1.665,2.315A12.5,12.5,0,0,0,154.786,34.59Z" fill="#fff"/><path d="M184.256,45.915q-.2-.445-.405-.994a7.529,7.529,0,0,1-.326-1.157,12.146,12.146,0,0,1-2.394,1.624,7.693,7.693,0,0,1-3.695.811,7.506,7.506,0,0,1-3.064-.568,5.451,5.451,0,0,1-2.091-1.583,6.624,6.624,0,0,1-1.2-2.394,11.258,11.258,0,0,1-.386-3.045,15.952,15.952,0,0,1,.913-5.318,13.4,13.4,0,0,1,7.327-7.916,15.446,15.446,0,0,1,6.455-1.258,15.852,15.852,0,0,1,2.557.244,8.1,8.1,0,0,1,2.517.811l-3.125,12.747q-.2.933-.346,1.786a10.825,10.825,0,0,0-.142,1.786,11.136,11.136,0,0,0,.163,1.887,11.354,11.354,0,0,0,.568,2.051Zm-6.048-2.922a5.582,5.582,0,0,0,2.923-.731,9.385,9.385,0,0,0,2.11-1.7q.04-.689.143-1.441c.067-.5.155-1.007.263-1.522l2.436-10.067a2.6,2.6,0,0,0-.67-.121c-.312-.028-.589-.041-.832-.041a9.555,9.555,0,0,0-4.181.893,9.986,9.986,0,0,0-3.187,2.374,10.489,10.489,0,0,0-2.029,3.45,12.048,12.048,0,0,0-.71,4.121,9.336,9.336,0,0,0,.162,1.725,4.27,4.27,0,0,0,.589,1.543,3.4,3.4,0,0,0,1.136,1.1A3.554,3.554,0,0,0,178.208,42.993Z" fill="#fff"/><path d="M203.173,24.117c.324,0,.689.014,1.095.04a12.022,12.022,0,0,1,1.2.143c.391.067.751.136,1.076.2a3.19,3.19,0,0,1,.73.223l-1.095,3.288a8.551,8.551,0,0,0-1.868-.487,13.4,13.4,0,0,0-2.03-.162,11.632,11.632,0,0,0-1.684.122,8.508,8.508,0,0,0-1.442.324l-4.3,17.861h-3.776l4.871-20.3a23.586,23.586,0,0,1,3.491-.913A20.628,20.628,0,0,1,203.173,24.117Z" fill="#fff"/><path d="M206.136,38.121a17.072,17.072,0,0,1,.832-5.317,13.446,13.446,0,0,1,2.456-4.506,11.8,11.8,0,0,1,9.377-4.263,17.2,17.2,0,0,1,2.557.184,8.03,8.03,0,0,1,2.314.71L222.251,28.1a5.769,5.769,0,0,0-1.522-.568,10.276,10.276,0,0,0-2.253-.2,7.268,7.268,0,0,0-3.572.873,8.691,8.691,0,0,0-2.7,2.314,10.444,10.444,0,0,0-1.7,3.328,13.038,13.038,0,0,0-.589,3.917,8.518,8.518,0,0,0,.223,1.989,4.124,4.124,0,0,0,.792,1.645,3.8,3.8,0,0,0,1.522,1.116,6.2,6.2,0,0,0,2.415.405,8.931,8.931,0,0,0,1.543-.141,13.676,13.676,0,0,0,1.5-.345A12.979,12.979,0,0,0,219.145,42a3.091,3.091,0,0,0,.792-.425l.326,3.207a9.813,9.813,0,0,1-2.4.953,13.39,13.39,0,0,1-3.694.466,9.435,9.435,0,0,1-3.45-.587,6.834,6.834,0,0,1-2.517-1.665,7.184,7.184,0,0,1-1.543-2.557A9.679,9.679,0,0,1,206.136,38.121Z" fill="#fff"/><path d="M222.656,45.672l7.429-30.85,3.937-.65-2.6,10.676a14.308,14.308,0,0,1,1.968-.528,10.873,10.873,0,0,1,2.091-.2,8.771,8.771,0,0,1,3.146.507,5.617,5.617,0,0,1,2.132,1.381,5.425,5.425,0,0,1,1.2,2.11,9.053,9.053,0,0,1,.386,2.7,16.985,16.985,0,0,1-.569,4.059l-2.6,10.8H235.4l2.4-9.986q.284-1.136.548-2.314a10.259,10.259,0,0,0,.263-2.232,4.088,4.088,0,0,0-.892-2.7q-.894-1.075-3.329-1.076a11.515,11.515,0,0,0-2.009.182,6.885,6.885,0,0,0-1.726.508l-4.221,17.617Z" fill="#fff"/><path d="M460.762,49.885H350.225M460.762,18.4H350.225m110.537,7.873H350.225m110.537,7.869H350.225m110.537,7.873H350.225" fill="none" stroke="#fff" stroke-width="0.21"/><polygon points="340.322 49.991 340.322 18.297 334.972 18.297 324.474 31.667 313.975 18.297 308.627 18.297 308.627 49.991 340.322 49.991 340.322 49.991" fill="#fff"/><path d="M353.7,48.252a1.465,1.465,0,0,0,1.511-1.616V43.7h-.58v2.917c0,.681-.337,1.064-.931,1.064s-.936-.383-.936-1.064V43.7h-.575v2.937a1.465,1.465,0,0,0,1.511,1.616Zm3.015-1.845c0-.459.225-.829.665-.829.5,0,.664.339.664.76v1.818h.556V46.239c0-.674-.337-1.2-1.02-1.2a.962.962,0,0,0-.876.521v-.432h-.545v3.023h.556V46.407Zm3.3,1.749V45.133h-.551v3.023Zm-.676-4.169a.4.4,0,1,0,.4-.428.41.41,0,0,0-.4.428Zm4.081,1.146h-.6L362,47.465l-.813-2.332h-.626l1.153,3.023h.565l1.137-3.023Zm.838,1.2a.792.792,0,0,1,.777-.777.742.742,0,0,1,.784.777Zm1.643.784a.783.783,0,0,1-.8.609.873.873,0,0,1-.859-.917h2.146a1.582,1.582,0,0,0,.012-.189c0-.944-.491-1.584-1.369-1.584a1.623,1.623,0,0,0,.07,3.214,1.3,1.3,0,0,0,1.281-.955l-.48-.178Zm2.811-2.02a1.546,1.546,0,0,0-.185-.017.886.886,0,0,0-.853.579v-.528h-.546v3.023h.557V46.643c0-.667.315-.935.784-.935a1.506,1.506,0,0,1,.243.021V45.1Zm.4,2.273a1.091,1.091,0,0,0,1.162.88.968.968,0,0,0,1.042-.938.9.9,0,0,0-.787-.9l-.464-.106a.363.363,0,0,1-.325-.363.437.437,0,0,1,.474-.4.568.568,0,0,1,.594.5l.491-.2a1.026,1.026,0,0,0-1.085-.811,1,1,0,0,0-1.013.955.845.845,0,0,0,.71.849l.486.113c.238.058.37.2.37.39,0,.215-.173.4-.488.4a.619.619,0,0,1-.664-.565l-.5.188Zm3.476.784V45.133h-.551v3.023Zm-.676-4.169a.4.4,0,1,0,.4-.428.408.408,0,0,0-.4.428Zm2.357.188h-.51v.493a.412.412,0,0,1-.438.465h-.155v.534h.546v1.661a.761.761,0,0,0,.793.859,1.234,1.234,0,0,0,.38-.055v-.5a1.038,1.038,0,0,1-.219.024c-.291,0-.4-.137-.4-.414V45.667h.616v-.534h-.616v-.958Zm2.187,5.248,1.855-4.29h-.6l-.852,2.088-.89-2.088h-.64l1.227,2.691-.712,1.6Zm5.092-1.7c-.474,0-.89-.38-.89-1.082s.416-1.078.89-1.078.888.38.888,1.078-.414,1.082-.888,1.082Zm0-2.687A1.615,1.615,0,1,0,383,46.643a1.486,1.486,0,0,0-1.456-1.605Zm3.609.629v-.534h-.688v-.479c0-.414.257-.517.452-.517a.588.588,0,0,1,.243.038v-.527a.723.723,0,0,0-.332-.062.93.93,0,0,0-.934,1.037v.51h-.529v.534h.529v2.489h.571V45.667Zm6.682,2.489V43.7h-.777l-1.492,3.629L388.08,43.7h-.789v4.457h.575V44.685l1.423,3.471h.534l1.434-3.471v3.471Zm2.887-.363a2.756,2.756,0,0,0,.024.363h.533c-.011-.106-.029-.318-.029-.558V45.133h-.557v1.822c0,.462-.226.773-.676.773-.469,0-.647-.363-.647-.777V45.133h-.556v1.9a1.093,1.093,0,0,0,1.066,1.215.913.913,0,0,0,.842-.459Zm1.209-.421a1.091,1.091,0,0,0,1.162.88.968.968,0,0,0,1.042-.938.9.9,0,0,0-.789-.9l-.462-.106a.363.363,0,0,1-.325-.363.439.439,0,0,1,.474-.4.568.568,0,0,1,.594.5l.491-.2a1.026,1.026,0,0,0-1.085-.811,1,1,0,0,0-1.013.955.843.843,0,0,0,.71.849l.486.113c.238.058.37.2.37.39,0,.215-.173.4-.488.4a.619.619,0,0,1-.664-.565l-.5.188Zm3.476.784V45.133h-.551v3.023Zm-.676-4.169a.4.4,0,1,0,.395-.428.408.408,0,0,0-.395.428Zm2.8,1.6a.762.762,0,0,1,.765.64l.5-.226a1.254,1.254,0,0,0-1.269-.961,1.617,1.617,0,0,0,.006,3.214,1.321,1.321,0,0,0,1.287-.945l-.493-.226a.785.785,0,0,1-.794.623c-.462,0-.872-.369-.872-1.061s.416-1.058.866-1.058Zm3.249,1.76a.911.911,0,0,0,.953.907,1.036,1.036,0,0,0,.921-.5,2.377,2.377,0,0,0,.029.414h.546a2.7,2.7,0,0,1-.038-.5V46.147A1.048,1.048,0,0,0,406,45.038a1.117,1.117,0,0,0-1.167.982l.534.133a.617.617,0,0,1,.645-.612c.433,0,.616.246.616.541,0,.109-.046.2-.219.229l-.772.12a.909.909,0,0,0-.864.917v0Zm1.032.411a.445.445,0,0,1-.462-.442.44.44,0,0,1,.414-.452l.871-.14v.14c0,.661-.368.894-.823.894Zm2.8-1.349c0-.459.225-.829.664-.829.5,0,.664.339.664.76v1.818h.558V46.239c0-.674-.339-1.2-1.02-1.2a.968.968,0,0,0-.879.521v-.432h-.544v3.023h.557V46.407Zm3.125.229c0-.623.332-1.064.842-1.064s.818.427.818,1.05-.315,1.1-.823,1.1c-.534,0-.837-.459-.837-1.082Zm1.667,1.113a2.673,2.673,0,0,0,.029.407h.539a4.6,4.6,0,0,1-.031-.558V43.6h-.549v1.955a.872.872,0,0,0-.871-.507,1.454,1.454,0,0,0-1.352,1.585,1.427,1.427,0,0,0,1.352,1.6.946.946,0,0,0,.883-.541v.052ZM417,45.78V44.25h.842a.739.739,0,0,1,.814.774.73.73,0,0,1-.814.756Zm.949.552a1.317,1.317,0,0,0,0-2.633h-1.528v4.457H417V46.332Zm2.232,0a.792.792,0,0,1,.777-.777.739.739,0,0,1,.782.777Zm1.643.784a.785.785,0,0,1-.8.609.872.872,0,0,1-.859-.917h2.145a1.2,1.2,0,0,0,.014-.189c0-.944-.493-1.584-1.37-1.584a1.623,1.623,0,0,0,.07,3.214,1.3,1.3,0,0,0,1.281-.955l-.48-.178Zm2.809-2.02a1.46,1.46,0,0,0-.183-.017.888.888,0,0,0-.854.579v-.528h-.544v3.023h.554V46.643c0-.667.315-.935.784-.935a1.469,1.469,0,0,1,.243.021V45.1Zm2.187.568v-.534h-.686v-.479c0-.414.255-.517.45-.517a.58.58,0,0,1,.243.038v-.527a.715.715,0,0,0-.332-.062.931.931,0,0,0-.934,1.037v.51h-.529v.534h.529v2.489h.573V45.667Zm1.823,2.058c-.474,0-.89-.38-.89-1.082s.416-1.078.89-1.078.888.38.888,1.078-.414,1.082-.888,1.082Zm0-2.687a1.615,1.615,0,1,0,1.457,1.605,1.486,1.486,0,0,0-1.457-1.605Zm3.752.061a1.5,1.5,0,0,0-.183-.017.89.89,0,0,0-.855.579v-.528h-.544v3.023h.557V46.643c0-.667.315-.935.782-.935a1.487,1.487,0,0,1,.243.021V45.1Zm1.133,3.057V46.332a.686.686,0,0,1,.666-.767c.426,0,.6.3.6.691v1.9h.556V46.328a.691.691,0,0,1,.657-.763c.421,0,.606.3.606.691v1.9h.551V46.2a1.026,1.026,0,0,0-1.939-.579.888.888,0,0,0-.854-.572.97.97,0,0,0-.864.49v-.4h-.533v3.023Zm5.061,0V45.133h-.551v3.023Zm-.675-4.169a.4.4,0,1,0,.4-.428.41.41,0,0,0-.4.428Zm2.136,2.42c0-.459.226-.829.666-.829.5,0,.664.339.664.76v1.818h.556V46.239c0-.674-.338-1.2-1.02-1.2a.962.962,0,0,0-.876.521v-.432H439.5v3.023h.554V46.407Zm2.564,1.913a1.27,1.27,0,0,0,1.315,1.126,1.347,1.347,0,0,0,1.427-1.516v-2.8h-.549v.421a.888.888,0,0,0-.878-.479,1.478,1.478,0,0,0,0,2.937.939.939,0,0,0,.872-.5v.435c0,.653-.273.979-.872.979a.775.775,0,0,1-.776-.743l-.539.133Zm1.4-.8c-.5,0-.823-.377-.823-.969s.332-.969.823-.969.813.384.813.969-.332.969-.813.969Zm6.687.64h.629L449.657,43.7h-.67l-1.671,4.457h.623l.443-1.246h1.862l.457,1.246Zm-1.393-3.817.729,2h-1.448l.719-2Zm4.173.76a1.546,1.546,0,0,0-.185-.017.886.886,0,0,0-.852.579v-.528H451.9v3.023h.555V46.643c0-.667.315-.935.784-.935a1.506,1.506,0,0,1,.243.021V45.1Zm1.5-.924h-.508v.493a.412.412,0,0,1-.44.465h-.154v.534h.546v1.661a.762.762,0,0,0,.794.859,1.205,1.205,0,0,0,.378-.055v-.5a1.023,1.023,0,0,1-.219.024c-.289,0-.4-.137-.4-.414V45.667h.616v-.534h-.616v-.958Zm1.123,3.2a1.088,1.088,0,0,0,1.16.88.969.969,0,0,0,1.043-.938.9.9,0,0,0-.788-.9l-.463-.106a.363.363,0,0,1-.326-.363.439.439,0,0,1,.476-.4.565.565,0,0,1,.592.5l.492-.2a1.025,1.025,0,0,0-1.084-.811,1,1,0,0,0-1.013.955.843.843,0,0,0,.709.849l.486.113c.239.058.369.2.369.39,0,.215-.171.4-.486.4a.616.616,0,0,1-.664-.565l-.5.188Z" fill="#fff"/><path d="M356.786,40.293V35.836h-.776l-1.494,3.629-1.482-3.629h-.789v4.457h.575V36.822l1.424,3.471h.534l1.434-3.471v3.471Zm.936-.808a.909.909,0,0,0,.951.9,1.028,1.028,0,0,0,.921-.5,2.367,2.367,0,0,0,.029.414h.544a2.973,2.973,0,0,1-.036-.5v-1.52a1.049,1.049,0,0,0-1.184-1.109,1.117,1.117,0,0,0-1.167.982l.532.134a.622.622,0,0,1,.647-.613c.433,0,.618.247.618.544,0,.107-.048.2-.221.226l-.772.12a.909.909,0,0,0-.862.921v0Zm1.03.408A.448.448,0,0,1,358.7,39l.873-.136V39c0,.661-.37.894-.825.894Zm2.886-1.345c0-.459.225-.832.664-.832.5,0,.664.339.664.76v1.817h.556V38.376c0-.674-.337-1.194-1.018-1.194a.964.964,0,0,0-.878.52v-.431h-.546v3.022h.558V38.548Zm3.4,0c0-.459.226-.832.664-.832.5,0,.664.339.664.76v1.817h.558V38.376c0-.674-.339-1.194-1.02-1.194a.959.959,0,0,0-.876.52v-.431h-.546v3.022h.556V38.548Zm3.4-.031c.012-.449.238-.8.664-.8.5,0,.664.339.664.76v1.817h.557V38.376c0-.674-.338-1.194-1.019-1.194a.988.988,0,0,0-.866.441V35.741h-.556v4.552h.556V38.517Zm3.242-.045a.788.788,0,0,1,.775-.773.739.739,0,0,1,.784.773Zm1.641.784a.783.783,0,0,1-.8.613.877.877,0,0,1-.861-.921h2.146a1.241,1.241,0,0,0,.012-.188c0-.942-.491-1.585-1.367-1.585a1.623,1.623,0,0,0,.07,3.214,1.3,1.3,0,0,0,1.279-.955l-.48-.178Zm1.857,1.037V37.271h-.549v3.022Zm-.676-4.166a.4.4,0,1,0,.4-.427.41.41,0,0,0-.4.427Zm2.222,4.166V38.472a.687.687,0,0,1,.664-.77c.428,0,.606.3.606.7v1.9h.556V38.465a.691.691,0,0,1,.659-.763c.421,0,.6.3.6.7v1.9h.551V38.332a1.026,1.026,0,0,0-1.939-.579.884.884,0,0,0-.852-.571.972.972,0,0,0-.866.489v-.4h-.533v3.022Z" fill="#fff"/><path d="M356.786,32.434v-4.46h-.776L354.516,31.6l-1.482-3.628h-.789v4.46h.575V28.963l1.424,3.471h.534l1.434-3.471v3.471Zm2.978-.366a3.074,3.074,0,0,0,.022.366h.534a5.281,5.281,0,0,1-.031-.561V29.408h-.555v1.825c0,.458-.225.773-.677.773-.469,0-.647-.366-.647-.78V29.408h-.555v1.907a1.09,1.09,0,0,0,1.066,1.211.917.917,0,0,0,.843-.458Zm1.3-.421a1.091,1.091,0,0,0,1.162.879.964.964,0,0,0,1.042-.934.9.9,0,0,0-.787-.9l-.462-.106a.368.368,0,0,1-.327-.367.439.439,0,0,1,.474-.4.569.569,0,0,1,.594.5l.491-.192a1.02,1.02,0,0,0-1.085-.811.994.994,0,0,0-1.013.955.845.845,0,0,0,.712.849l.486.113c.236.058.368.2.368.39a.432.432,0,0,1-.488.4.623.623,0,0,1-.664-.568l-.5.188Zm3.563.787V29.408h-.549v3.026Zm-.674-4.169a.4.4,0,1,0,.4-.428.409.409,0,0,0-.4.428Zm4.224,1.143h-.77L366.17,30.75V27.881h-.551v4.553h.551V31.52l.4-.421.931,1.335h.7l-1.239-1.749,1.215-1.277Zm4.1,2.66a2.821,2.821,0,0,0,.024.366h.533a5.41,5.41,0,0,1-.029-.561V29.408h-.558v1.825c0,.458-.225.773-.675.773-.469,0-.647-.366-.647-.78V29.408h-.557v1.907a1.091,1.091,0,0,0,1.067,1.211.914.914,0,0,0,.842-.458Zm2.085-1.383c0-.459.226-.832.664-.832.5,0,.664.342.664.763v1.818h.558v-1.92c0-.671-.339-1.2-1.02-1.2a.968.968,0,0,0-.878.524v-.435H373.8v3.026h.556V30.685Zm3.214.226c0-.623.332-1.061.842-1.061s.818.427.818,1.05-.314,1.093-.824,1.093c-.534,0-.836-.459-.836-1.082Zm1.667,1.116a2.813,2.813,0,0,0,.029.407h.54a4.675,4.675,0,0,1-.031-.561V27.881h-.551v1.955a.868.868,0,0,0-.87-.51A1.454,1.454,0,0,0,377,30.911a1.43,1.43,0,0,0,1.352,1.6.953.953,0,0,0,.883-.541v.052Zm3.786-.141V28.522h.873c.775,0,1.417.564,1.417,1.69s-.654,1.674-1.431,1.674Zm.878.548a2.011,2.011,0,0,0,2.01-2.222,2.015,2.015,0,0,0-2-2.238h-1.468v4.46Zm2.686-.811a.909.909,0,0,0,.955.9,1.023,1.023,0,0,0,.917-.5,2.346,2.346,0,0,0,.031.414h.544a3.038,3.038,0,0,1-.036-.5v-1.52a1.046,1.046,0,0,0-1.184-1.105,1.113,1.113,0,0,0-1.167.979l.532.133a.622.622,0,0,1,.647-.613c.431,0,.616.247.616.545,0,.106-.048.2-.219.226l-.77.119a.913.913,0,0,0-.866.921v0Zm1.03.407a.447.447,0,0,1-.048-.893L388.44,31v.137c0,.66-.366.893-.825.893Zm3.912-2.653a.965.965,0,0,0-.184-.017.888.888,0,0,0-.853.575v-.527h-.544v3.026h.555V30.918c0-.668.314-.931.783-.931a1.465,1.465,0,0,1,.243.02v-.63Zm.485,2.27a1.091,1.091,0,0,0,1.162.879.966.966,0,0,0,1.042-.934.9.9,0,0,0-.787-.9l-.464-.106a.366.366,0,0,1-.325-.367.44.44,0,0,1,.476-.4.568.568,0,0,1,.592.5l.491-.192a1.022,1.022,0,0,0-1.083-.811.993.993,0,0,0-1.013.955.843.843,0,0,0,.708.849l.486.113c.238.058.37.2.37.39a.431.431,0,0,1-.486.4.619.619,0,0,1-.664-.568l-.5.188Zm3.858-3.194h-.51v.49a.413.413,0,0,1-.439.465h-.154v.534h.546V31.6a.765.765,0,0,0,.8.863,1.109,1.109,0,0,0,.378-.058v-.5a1.3,1.3,0,0,1-.219.024c-.291,0-.4-.137-.4-.414V29.942h.616v-.534h-.616v-.955Zm1.74,2.157a.789.789,0,0,1,.777-.774.739.739,0,0,1,.782.774Zm1.641.787a.782.782,0,0,1-.8.609.87.87,0,0,1-.859-.917h2.145a1.582,1.582,0,0,0,.012-.189c0-.944-.492-1.584-1.37-1.584a1.621,1.621,0,0,0,.072,3.21,1.3,1.3,0,0,0,1.28-.955l-.481-.174Zm1.871,1.037V27.881h-.558v4.553Zm1.547,0V27.881h-.557v4.553Zm1.4-1.824a.789.789,0,0,1,.777-.774.739.739,0,0,1,.782.774Zm1.643.787a.786.786,0,0,1-.8.609.873.873,0,0,1-.861-.917h2.145a1.222,1.222,0,0,0,.013-.189c0-.944-.493-1.584-1.369-1.584a1.621,1.621,0,0,0,.072,3.21,1.3,1.3,0,0,0,1.28-.955l-.479-.174Zm1.873-.712c0-.459.224-.832.664-.832.5,0,.664.342.664.763v1.818h.554v-1.92c0-.671-.335-1.2-1.016-1.2a.971.971,0,0,0-.88.524v-.435h-.544v3.026h.558V30.685Zm3.214.226c0-.623.332-1.061.842-1.061s.818.427.818,1.05-.315,1.093-.825,1.093c-.534,0-.835-.459-.835-1.082Zm1.665,1.116a2.673,2.673,0,0,0,.029.407h.539a5.437,5.437,0,0,1-.029-.561V27.881h-.551v1.955a.871.871,0,0,0-.873-.51,1.455,1.455,0,0,0-1.35,1.585,1.429,1.429,0,0,0,1.35,1.6.954.954,0,0,0,.885-.541v.052Zm1.929-1.417a.79.79,0,0,1,.777-.774.739.739,0,0,1,.784.774Zm1.643.787a.783.783,0,0,1-.8.609.873.873,0,0,1-.859-.917h2.146a1.582,1.582,0,0,0,.012-.189c0-.944-.491-1.584-1.369-1.584a1.621,1.621,0,0,0,.07,3.21,1.3,1.3,0,0,0,1.28-.955l-.479-.174Zm5.53,1.037h.734l-1.771-2.471,1.747-1.989h-.763l-1.968,2.3v-2.3h-.581v4.46h.581V31.089l.6-.681,1.422,2.026Zm3.12-.366a2.875,2.875,0,0,0,.022.366h.534a5.281,5.281,0,0,1-.031-.561V29.408h-.556v1.825c0,.458-.226.773-.674.773-.469,0-.647-.366-.647-.78V29.408h-.558v1.907a1.092,1.092,0,0,0,1.068,1.211.914.914,0,0,0,.842-.458Zm2.085-1.383c0-.459.224-.832.664-.832.5,0,.664.342.664.763v1.818h.554v-1.92c0-.671-.335-1.2-1.016-1.2a.973.973,0,0,0-.88.524v-.435h-.544v3.026h.558V30.685Zm2.608.962a1.091,1.091,0,0,0,1.162.879.966.966,0,0,0,1.042-.934.9.9,0,0,0-.787-.9l-.462-.106a.368.368,0,0,1-.327-.367.439.439,0,0,1,.474-.4.569.569,0,0,1,.594.5l.491-.192a1.02,1.02,0,0,0-1.085-.811.993.993,0,0,0-1.013.955.845.845,0,0,0,.712.849l.486.113c.236.058.366.2.366.39a.43.43,0,0,1-.486.4.623.623,0,0,1-.664-.568l-.5.188Zm3.858-3.194h-.51v.49a.412.412,0,0,1-.438.465h-.155v.534h.546V31.6a.764.764,0,0,0,.793.863,1.108,1.108,0,0,0,.38-.058v-.5a1.283,1.283,0,0,1-.219.024c-.291,0-.4-.137-.4-.414V29.942h.616v-.534h-.616v-.955Z" fill="#fff"/><path d="M354.925,21.124a1.345,1.345,0,0,0-1.424-1.105,1.374,1.374,0,0,0-1.386,1.328,1.21,1.21,0,0,0,1.025,1.218l.6.137a.714.714,0,0,1,.628.695c0,.39-.284.709-.866.709a.978.978,0,0,1-1.006-.955l-.558.188a1.487,1.487,0,0,0,1.571,1.328,1.357,1.357,0,0,0,1.451-1.321,1.262,1.262,0,0,0-1.088-1.253l-.63-.144a.635.635,0,0,1-.539-.647.759.759,0,0,1,.813-.742.867.867,0,0,1,.888.759l.522-.2Zm1.554-.534h-.508v.493a.412.412,0,0,1-.438.466h-.154v.534h.545v1.66a.762.762,0,0,0,.793.859,1.2,1.2,0,0,0,.38-.055v-.5a1,1,0,0,1-.221.024c-.289,0-.4-.137-.4-.414V22.083h.618v-.534h-.618V20.59Zm1.267,3.17a.911.911,0,0,0,.951.907,1.033,1.033,0,0,0,.921-.5,2.367,2.367,0,0,0,.029.414h.546a2.708,2.708,0,0,1-.038-.5V22.562a1.047,1.047,0,0,0-1.184-1.109,1.114,1.114,0,0,0-1.167.982l.534.13a.617.617,0,0,1,.645-.609c.433,0,.618.247.618.541,0,.106-.048.2-.221.226l-.77.12a.914.914,0,0,0-.864.92v0Zm1.03.411a.445.445,0,0,1-.462-.442.441.441,0,0,1,.414-.452l.873-.14v.14c0,.661-.37.894-.825.894Zm2.157-.411a.911.911,0,0,0,.953.907,1.027,1.027,0,0,0,.919-.5,2.3,2.3,0,0,0,.031.414h.544a2.993,2.993,0,0,1-.036-.5V22.562a1.047,1.047,0,0,0-1.186-1.109,1.115,1.115,0,0,0-1.167.982l.534.13a.619.619,0,0,1,.647-.609c.431,0,.616.247.616.541,0,.106-.048.2-.219.226l-.771.12a.914.914,0,0,0-.865.92v0Zm1.03.411a.445.445,0,0,1-.462-.442.441.441,0,0,1,.414-.452l.873-.14v.14c0,.661-.368.894-.825.894Zm3.091-3.581h-.509v.493a.412.412,0,0,1-.438.466h-.154v.534h.546v1.66a.761.761,0,0,0,.793.859,1.2,1.2,0,0,0,.38-.055v-.5a1,1,0,0,1-.221.024c-.289,0-.4-.137-.4-.414V22.083h.618v-.534h-.618V20.59Zm1.965,3.981V20.019h-.557v4.552Zm1.543,0V21.549h-.551v3.022Zm-.674-4.169a.4.4,0,1,0,.4-.428.409.409,0,0,0-.4.428Zm2.886,1.6a.758.758,0,0,1,.763.64l.5-.226a1.255,1.255,0,0,0-1.268-.962,1.479,1.479,0,0,0-1.435,1.6,1.493,1.493,0,0,0,1.44,1.612,1.322,1.322,0,0,0,1.287-.945l-.493-.225a.787.787,0,0,1-.794.623c-.462,0-.871-.37-.871-1.065s.414-1.054.866-1.054Zm2.588.79c.013-.445.237-.8.664-.8.5,0,.664.339.664.76v1.817h.558V22.654c0-.674-.339-1.194-1.021-1.194a.993.993,0,0,0-.865.438V20.019h-.555v4.552h.555v-1.78Zm3.241-.044a.789.789,0,0,1,.777-.774.744.744,0,0,1,.784.774Zm1.643.787a.785.785,0,0,1-.8.609.873.873,0,0,1-.859-.917h2.146a1.619,1.619,0,0,0,.011-.188c0-.945-.49-1.585-1.37-1.585a1.476,1.476,0,0,0-1.362,1.6,1.47,1.47,0,0,0,1.434,1.615,1.3,1.3,0,0,0,1.28-.958l-.479-.175Zm6.233,1.037V20.115H383.9v1.9h-2.146v-1.9h-.58v4.456h.58V22.589H383.9v1.982Zm2.349-.431c-.473,0-.889-.38-.889-1.085s.416-1.075.889-1.075.89.377.89,1.075-.415,1.085-.89,1.085Zm0-2.687a1.487,1.487,0,0,0-1.459,1.6,1.466,1.466,0,1,0,2.917,0,1.485,1.485,0,0,0-1.458-1.6Zm3.505.548a.764.764,0,0,1,.767.64l.5-.226a1.255,1.255,0,0,0-1.27-.962,1.479,1.479,0,0,0-1.434,1.6,1.494,1.494,0,0,0,1.441,1.612,1.322,1.322,0,0,0,1.287-.945l-.493-.225a.786.786,0,0,1-.794.623c-.462,0-.871-.37-.871-1.065s.415-1.054.864-1.054Zm2.591.79c.01-.445.236-.8.664-.8.5,0,.664.339.664.76v1.817h.555V22.654c0-.674-.337-1.194-1.017-1.194a.988.988,0,0,0-.866.438V20.019h-.558v4.552h.558v-1.78Zm2.608,1a1.092,1.092,0,0,0,1.161.88.969.969,0,0,0,1.044-.938.9.9,0,0,0-.788-.9l-.462-.106a.364.364,0,0,1-.328-.366.44.44,0,0,1,.476-.4.564.564,0,0,1,.592.5l.493-.2a1.026,1.026,0,0,0-1.085-.811.994.994,0,0,0-1.014.955.844.844,0,0,0,.712.849l.486.113c.237.058.367.2.367.39,0,.216-.171.4-.486.4a.62.62,0,0,1-.664-.568l-.5.191ZM399.774,22a.758.758,0,0,1,.763.64l.5-.226a1.251,1.251,0,0,0-1.268-.962,1.479,1.479,0,0,0-1.435,1.6,1.494,1.494,0,0,0,1.441,1.612,1.321,1.321,0,0,0,1.286-.945l-.491-.225a.788.788,0,0,1-.8.623c-.462,0-.873-.37-.873-1.065s.415-1.054.867-1.054Zm2.587.79c.014-.445.24-.8.664-.8.5,0,.666.339.666.76v1.817h.556V22.654c0-.674-.337-1.194-1.02-1.194a1,1,0,0,0-.866.438V20.019h-.554v4.552h.554v-1.78Zm4.724,1.417a2.469,2.469,0,0,0,.024.363h.532a5.323,5.323,0,0,1-.029-.558V21.549h-.558V23.37c0,.462-.224.773-.674.773-.469,0-.647-.362-.647-.777V21.549h-.558v1.9a1.093,1.093,0,0,0,1.068,1.215.921.921,0,0,0,.842-.459Zm2.085.363V20.019h-.557v4.552Zm1.4-1.824a.789.789,0,0,1,.777-.774.743.743,0,0,1,.784.774Zm1.643.787a.785.785,0,0,1-.8.609.872.872,0,0,1-.859-.917h2.145a1.241,1.241,0,0,0,.012-.188c0-.945-.491-1.585-1.37-1.585a1.476,1.476,0,0,0-1.362,1.6,1.47,1.47,0,0,0,1.434,1.615,1.3,1.3,0,0,0,1.281-.958l-.48-.175Zm4.3-1.451v-.534h-.688V21.07c0-.418.255-.517.45-.517a.606.606,0,0,1,.243.037v-.527a.68.68,0,0,0-.332-.061.932.932,0,0,0-.936,1.037v.51h-.527v.534h.527v2.488h.575V22.083Zm2.567,2.125a2.782,2.782,0,0,0,.024.363h.534a5,5,0,0,1-.03-.558V21.549h-.557V23.37c0,.462-.224.773-.676.773-.469,0-.647-.362-.647-.777V21.549h-.556v1.9a1.092,1.092,0,0,0,1.066,1.215.921.921,0,0,0,.842-.459Zm-1.6-3.542a.349.349,0,0,0,.339.366.365.365,0,1,0-.339-.366Zm1.109,0a.345.345,0,1,0,.688,0,.344.344,0,1,0-.688,0Zm3.6.848a1.546,1.546,0,0,0-.185-.017.884.884,0,0,0-.852.579v-.527h-.546v3.022h.556V23.055c0-.668.315-.931.784-.931a1.623,1.623,0,0,1,.243.02v-.63Z" fill="#fff"/></svg>