<svg id="Ebene_1" data-name="Ebene 1" xmlns="http://www.w3.org/2000/svg" viewBox="0 0 480.334 72.405"><path d="M278.85,37.009c0,1.36-1.5,2.468-3.347,2.468s-3.346-1.108-3.346-2.468,1.5-2.463,3.346-2.463S278.85,35.648,278.85,37.009Z" fill="#1e1e1c"/><path d="M290.105,34.546c0,1.359-1.5,2.463-3.35,2.463s-3.346-1.1-3.346-2.463,1.5-2.468,3.346-2.468S290.105,33.184,290.105,34.546Z" fill="#1e1e1c"/><rect x="277.187" y="24.855" width="1.709" height="12.154" fill="#1e1e1c"/><rect x="288.416" y="22.391" width="1.709" height="12.154" fill="#1e1e1c"/><rect x="278.041" y="23.095" width="11.229" height="3.631" fill="#1e1e1c"/><path d="M290.124,27.581H277.187v-5.34h12.937ZM278.9,25.872h9.52V23.949H278.9Z" fill="#1e1e1c"/><path d="M48.786,34.348a8.345,8.345,0,0,0-.751-4.141,2.783,2.783,0,0,0-2.578-1.218c-.379,0-.77.021-1.177.061s-.8.088-1.176.142V45.673H37.055V25.052q.771-.2,1.807-.427t2.191-.405q1.157-.183,2.375-.285t2.4-.1a10.079,10.079,0,0,1,3.755.588,8.481,8.481,0,0,1,2.374,1.4,11.307,11.307,0,0,1,6.089-1.988,10.679,10.679,0,0,1,4.2.71,6.325,6.325,0,0,1,2.619,2.01A7.6,7.6,0,0,1,66.2,29.639a19.791,19.791,0,0,1,.367,3.977V45.673H60.518V34.348a8.345,8.345,0,0,0-.751-4.141,2.783,2.783,0,0,0-2.578-1.218,5.46,5.46,0,0,0-1.36.243,5.278,5.278,0,0,0-1.441.61,9.226,9.226,0,0,1,.365,1.968q.082,1.035.082,2.212V45.673H48.786Z" fill="#1e1e1c"/><path d="M90.273,44.942a33.713,33.713,0,0,1-3.979.832,32.694,32.694,0,0,1-5.114.386,12.164,12.164,0,0,1-4.526-.73,6.878,6.878,0,0,1-2.863-2.051,8,8,0,0,1-1.5-3.146,16.9,16.9,0,0,1-.446-4.018V24.32h6.049V35.484a8.668,8.668,0,0,0,.77,4.222,3.071,3.071,0,0,0,2.883,1.3q.649,0,1.38-.062t1.3-.141V24.32h6.049Z" fill="#1e1e1c"/><path d="M102.085,41.329a6.037,6.037,0,0,0,2.355-.324,1.256,1.256,0,0,0,.689-1.259,1.541,1.541,0,0,0-.892-1.278,16.919,16.919,0,0,0-2.72-1.239,27.508,27.508,0,0,1-2.578-1.095,7.561,7.561,0,0,1-1.969-1.361,5.49,5.49,0,0,1-1.258-1.887,6.963,6.963,0,0,1-.447-2.639A5.705,5.705,0,0,1,97.5,25.5a9.715,9.715,0,0,1,6.129-1.745,19.665,19.665,0,0,1,3.735.345,17.33,17.33,0,0,1,2.841.751l-1.055,4.709a21.962,21.962,0,0,0-2.293-.65,12.5,12.5,0,0,0-2.782-.284q-2.841,0-2.84,1.583a1.637,1.637,0,0,0,.121.649,1.393,1.393,0,0,0,.487.548,6.859,6.859,0,0,0,1,.571q.628.307,1.6.675a24.833,24.833,0,0,1,3.288,1.453,7.91,7.91,0,0,1,2.05,1.546,4.772,4.772,0,0,1,1.054,1.843,8.189,8.189,0,0,1,.305,2.35,5.412,5.412,0,0,1-2.374,4.779,11.847,11.847,0,0,1-6.719,1.62,19.3,19.3,0,0,1-4.729-.487,18.994,18.994,0,0,1-2.618-.812l1.015-4.912a19.668,19.668,0,0,0,3.166.954A15.332,15.332,0,0,0,102.085,41.329Z" fill="#1e1e1c"/><path d="M122.259,18.15a3.315,3.315,0,0,1-1.076,2.618,3.846,3.846,0,0,1-5.073,0,3.312,3.312,0,0,1-1.077-2.618,3.319,3.319,0,0,1,1.077-2.618,3.849,3.849,0,0,1,5.073,0A3.322,3.322,0,0,1,122.259,18.15Zm-.568,27.523h-6.049V24.32h6.049Z" fill="#1e1e1c"/><path d="M126.359,35a12.579,12.579,0,0,1,.751-4.364,10.2,10.2,0,0,1,5.622-5.988,11.4,11.4,0,0,1,4.628-.892,14.877,14.877,0,0,1,3.125.3,15.208,15.208,0,0,1,2.76.873l-1.258,4.831a15.116,15.116,0,0,0-1.868-.569,9.719,9.719,0,0,0-2.273-.244,4.792,4.792,0,0,0-4,1.664A6.853,6.853,0,0,0,132.529,35a7.093,7.093,0,0,0,1.238,4.465q1.238,1.582,4.323,1.583a14.884,14.884,0,0,0,2.355-.2,9.955,9.955,0,0,0,2.313-.65l.853,4.953a14.23,14.23,0,0,1-2.639.771,17.37,17.37,0,0,1-3.491.325,13.14,13.14,0,0,1-5.034-.873,9.469,9.469,0,0,1-3.47-2.374,9.239,9.239,0,0,1-1.989-3.553A15.053,15.053,0,0,1,126.359,35Z" fill="#1e1e1c"/><path d="M153.6,43.034a9.448,9.448,0,0,0,1.725-.162,5.152,5.152,0,0,0,1.542-.528,3.1,3.1,0,0,0,1.1-.994,2.724,2.724,0,0,0,.427-1.563,2.682,2.682,0,0,0-.2-1.076,2.6,2.6,0,0,0-.65-.873,6.532,6.532,0,0,0-1.116-.791q-.671-.385-1.6-.873-.934-.445-1.7-.893a6.177,6.177,0,0,1-1.361-1.056,4.294,4.294,0,0,1-.913-1.441,5.519,5.519,0,0,1-.324-2.009,6.077,6.077,0,0,1,2.191-4.891q2.193-1.848,6.373-1.848a13.7,13.7,0,0,1,3.431.386,9.407,9.407,0,0,1,2.05.711l-1.421,3.085a9.025,9.025,0,0,0-1.826-.691,10.067,10.067,0,0,0-2.8-.365,7.55,7.55,0,0,0-1.542.162,4.393,4.393,0,0,0-1.4.549,3.023,3.023,0,0,0-1.015,1.015,2.849,2.849,0,0,0-.386,1.522,2.246,2.246,0,0,0,.853,1.806,11.493,11.493,0,0,0,2.556,1.482,18.425,18.425,0,0,1,1.888.994,6.769,6.769,0,0,1,1.421,1.137,4.245,4.245,0,0,1,.894,1.481,6.082,6.082,0,0,1,.3,2.03,6.648,6.648,0,0,1-.649,3,5.909,5.909,0,0,1-1.807,2.152,8.139,8.139,0,0,1-2.739,1.278,13.256,13.256,0,0,1-3.451.426,15.391,15.391,0,0,1-2.5-.183,16.368,16.368,0,0,1-1.949-.425,9.027,9.027,0,0,1-1.38-.508q-.549-.264-.832-.426l1.461-3.085c.189.109.453.243.792.405a11.07,11.07,0,0,0,1.217.488,11.43,11.43,0,0,0,1.564.406A9.544,9.544,0,0,0,153.6,43.034Z" fill="#1e1e1c"/><path d="M173.283,46.2a9.782,9.782,0,0,1-3.571-.588,7.063,7.063,0,0,1-2.517-1.624,6.492,6.492,0,0,1-1.5-2.415,8.709,8.709,0,0,1-.487-2.923,17.7,17.7,0,0,1,.852-5.48,15.045,15.045,0,0,1,2.435-4.668,11.845,11.845,0,0,1,3.857-3.228,10.894,10.894,0,0,1,5.155-1.2,8.563,8.563,0,0,1,2.862.427,5.283,5.283,0,0,1,1.949,1.156,4.634,4.634,0,0,1,1.116,1.685,5.452,5.452,0,0,1,.365,1.968,6.9,6.9,0,0,1-.689,3.228,6.763,6.763,0,0,1-1.828,2.212,8.4,8.4,0,0,1-2.658,1.381,23.4,23.4,0,0,1-3.167.77,29.651,29.651,0,0,1-3.328.386q-1.685.1-3.186.183A4.25,4.25,0,0,0,168.9,38v.324a6.776,6.776,0,0,0,.223,1.766,3.3,3.3,0,0,0,.832,1.462,4.149,4.149,0,0,0,1.685.994,8.961,8.961,0,0,0,2.821.365,9.509,9.509,0,0,0,1.6-.142,13.484,13.484,0,0,0,1.583-.365c.5-.148.947-.3,1.34-.446a3.08,3.08,0,0,0,.832-.427l.324,3.207a13.3,13.3,0,0,1-2.618.954A15.8,15.8,0,0,1,173.283,46.2Zm-3.855-11.609q2.352-.081,4.3-.3a13.738,13.738,0,0,0,3.369-.77,5.374,5.374,0,0,0,2.212-1.483A3.632,3.632,0,0,0,180.1,29.6a2.339,2.339,0,0,0-.143-.772,2.026,2.026,0,0,0-.486-.751,2.606,2.606,0,0,0-.954-.567,4.4,4.4,0,0,0-1.5-.224,5.952,5.952,0,0,0-2.659.608,8.062,8.062,0,0,0-2.212,1.6,9.7,9.7,0,0,0-1.665,2.314A12.509,12.509,0,0,0,169.428,34.591Z" fill="#1e1e1c"/><path d="M198.9,45.916q-.2-.445-.406-.994a7.642,7.642,0,0,1-.325-1.157,12.146,12.146,0,0,1-2.394,1.624,7.693,7.693,0,0,1-3.695.811,7.5,7.5,0,0,1-3.064-.568,5.461,5.461,0,0,1-2.091-1.583,6.629,6.629,0,0,1-1.2-2.395,11.253,11.253,0,0,1-.386-3.045,15.947,15.947,0,0,1,.913-5.317,13.4,13.4,0,0,1,7.327-7.916,15.444,15.444,0,0,1,6.454-1.258,15.851,15.851,0,0,1,2.558.243,8.1,8.1,0,0,1,2.517.812L201.984,37.92q-.2.933-.346,1.786a10.816,10.816,0,0,0-.142,1.786,11.247,11.247,0,0,0,.162,1.887,11.468,11.468,0,0,0,.569,2.051Zm-6.048-2.922a5.582,5.582,0,0,0,2.923-.731,9.412,9.412,0,0,0,2.11-1.7q.04-.689.143-1.441t.263-1.522l2.436-10.068a2.654,2.654,0,0,0-.67-.121q-.468-.04-.832-.041a9.555,9.555,0,0,0-4.181.894,9.957,9.957,0,0,0-3.187,2.374,10.5,10.5,0,0,0-2.03,3.45,12.063,12.063,0,0,0-.71,4.121,9.346,9.346,0,0,0,.163,1.725,4.294,4.294,0,0,0,.588,1.543A3.4,3.4,0,0,0,191,42.567,3.554,3.554,0,0,0,192.85,42.994Z" fill="#1e1e1c"/><path d="M217.815,24.118c.324,0,.689.014,1.095.04a11.459,11.459,0,0,1,1.2.143c.391.067.751.135,1.076.2a3.147,3.147,0,0,1,.73.222l-1.095,3.289a8.6,8.6,0,0,0-1.869-.488,13.5,13.5,0,0,0-2.029-.162,11.632,11.632,0,0,0-1.684.122,8.606,8.606,0,0,0-1.442.324l-4.3,17.862h-3.775l4.871-20.3a23.463,23.463,0,0,1,3.491-.913A20.53,20.53,0,0,1,217.815,24.118Z" fill="#1e1e1c"/><path d="M220.778,38.122a17.067,17.067,0,0,1,.832-5.317,13.446,13.446,0,0,1,2.456-4.506,11.8,11.8,0,0,1,9.377-4.263A17.2,17.2,0,0,1,236,24.22a8.03,8.03,0,0,1,2.314.71L236.893,28.1a5.769,5.769,0,0,0-1.522-.569,10.276,10.276,0,0,0-2.253-.2,7.279,7.279,0,0,0-3.572.873,8.683,8.683,0,0,0-2.7,2.315,10.424,10.424,0,0,0-1.7,3.328,13.033,13.033,0,0,0-.589,3.917,8.518,8.518,0,0,0,.223,1.989,4.124,4.124,0,0,0,.792,1.645,3.818,3.818,0,0,0,1.522,1.116,6.213,6.213,0,0,0,2.415.405,8.945,8.945,0,0,0,1.543-.142,13.682,13.682,0,0,0,1.5-.344q.688-.2,1.237-.427a3.088,3.088,0,0,0,.792-.426l.326,3.207a9.773,9.773,0,0,1-2.4.953,13.351,13.351,0,0,1-3.694.467,9.419,9.419,0,0,1-3.451-.588,6.806,6.806,0,0,1-2.516-1.665,7.166,7.166,0,0,1-1.543-2.556A9.687,9.687,0,0,1,220.778,38.122Z" fill="#1e1e1c"/><path d="M237.3,45.673l7.429-30.851,3.937-.649-2.6,10.676a14.453,14.453,0,0,1,1.968-.529,10.872,10.872,0,0,1,2.091-.2,8.771,8.771,0,0,1,3.146.507,5.617,5.617,0,0,1,2.132,1.381,5.425,5.425,0,0,1,1.2,2.11,9.047,9.047,0,0,1,.386,2.7,16.992,16.992,0,0,1-.569,4.06l-2.6,10.8h-3.775l2.4-9.987q.284-1.134.548-2.313a10.259,10.259,0,0,0,.263-2.232,4.091,4.091,0,0,0-.892-2.7q-.894-1.074-3.329-1.076a11.518,11.518,0,0,0-2.009.183,6.885,6.885,0,0,0-1.726.508l-4.222,17.617Z" fill="#1e1e1c"/><g id="Ebene_1-2" data-name="Ebene_1"><g id="_2821437549184" data-name=" 2821437549184"><polygon points="384.304 33.52 386.227 33.588 386.359 32.127 386.292 31.928 381.251 31.928 381.385 37.565 381.251 39.954 383.308 39.954 383.241 37.366 383.241 36.969 384.104 36.969 385.628 36.969 385.762 35.511 385.628 35.378 384.235 35.378 383.241 35.378 383.308 33.52 384.304 33.52" fill="#c42323"/><path id="_1" data-name="1" d="M390.471,29.142a.84.84,0,0,0-.927.931.767.767,0,0,0,.862.859.838.838,0,0,0,.928-.927A.8.8,0,0,0,390.471,29.142Zm2.255,0a.839.839,0,0,0-.927.931.767.767,0,0,0,.861.859.837.837,0,0,0,.929-.927C393.522,29.474,393.257,29.142,392.726,29.142Zm2.122,2.786h-2.057l.069,5.041c0,1-.465,1.458-1.393,1.458s-1.393-.462-1.393-1.523l.065-4.976h-1.988l.065,4.045v1.2c-.065,1.858,1.061,2.854,3.183,2.854s3.384-1.064,3.318-2.919v-1.13l.131-4.045Z" fill="#c42323"/><path id="_2" data-name="2" d="M401.548,36.771a3.05,3.05,0,0,0,1.459-2.454c0-1.591-1-2.389-2.72-2.389h-3.382l.134,5.637-.134,2.389h1.989l-.065-2.588h1.061c.4.863.862,1.725,1.259,2.523l.2.133a10.8,10.8,0,0,0,1.99-.4v-.2c-.6-.794-1.194-1.725-1.791-2.652Zm-2.654-3.382.664-.068c.862.068,1.259.4,1.259,1.194a1.329,1.329,0,0,1-.861,1.393l-1.062-.065Z" fill="#c42323"/><polygon id="_3" data-name="3" points="415.544 31.928 413.222 31.928 412.89 33.123 411.762 36.572 411.697 36.572 410.636 33.123 410.369 31.928 408.049 31.928 407.251 39.954 408.911 39.954 409.043 37.366 409.308 34.913 409.442 34.913 410.834 39.16 412.359 39.16 413.952 34.913 414.084 34.913 414.349 37.5 414.414 39.954 416.206 39.954 415.544 31.928" fill="#c42323"/><path id="_4" data-name="4" d="M424.9,31.928H422.84l.065,5.041c0,1-.465,1.458-1.392,1.458s-1.394-.462-1.394-1.523l.134-4.976h-1.99l.067,4.045v1.2c-.067,1.858,1.06,2.854,3.183,2.854s3.382-1.064,3.316-2.919v-1.13l.066-4.045Z" fill="#c42323"/><path id="_5" data-name="5" d="M430.069,31.8c-1.857,0-3.118,1.129-3.118,2.587,0,2.389,3.449,2.255,3.449,3.45,0,.332-.265.729-.927.729a3.564,3.564,0,0,1-2.19-.928l-.2.134-.265,1.79a6.674,6.674,0,0,0,2.454.465c1.923,0,3.184-1.129,3.184-2.587,0-2.389-3.449-2.324-3.449-3.45a.772.772,0,0,1,.862-.664,4,4,0,0,1,1.79.664l.267-.133.332-1.657a7.646,7.646,0,0,0-2.19-.4Z" fill="#c42323"/><polygon id="_6" data-name="6" points="436.768 31.928 434.713 31.928 434.845 37.565 434.713 39.954 436.768 39.954 436.701 37.366 436.768 31.928" fill="#c42323"/><path id="_7" data-name="7" d="M443.334,35.71l2.652-3.782h-2.122l-.463.8-1.924,2.785V31.928h-2.055l.065,5.637-.065,2.389h1.988l-.065-2.588V35.973c.794,1.393,1.657,2.656,2.519,3.981l.267.133a20.025,20.025,0,0,0,1.989-.332v-.2c-.928-1.26-1.924-2.523-2.786-3.847Z" fill="#c42323"/><path d="M333.365,26.555a10.351,10.351,0,0,1,1.988-.13,4.54,4.54,0,0,1,1.128.065l.132-.6v-.068c-.132,0-.4.068-.6.068-.465,0-.6-.2-.6-.931l.067-2.385c.862-.068,1.923-.133,2.187-.133h1.991v1.988c0,1.194-.2,1.393-1,1.393l-.133.6h1.526a14.713,14.713,0,0,1,1.658.065l.132-.6v-.068c-.132,0-.4.068-.595.068-.466,0-.6-.2-.6-.8,0-1.126.066-3.782.2-5.835,0-.534.2-.664.862-.733l.067-.595a15.768,15.768,0,0,1-1.591.133A6.361,6.361,0,0,1,338.868,18l-.065.6v.065h.464c.4,0,.463.133.463.729v2.389a11.8,11.8,0,0,1-1.988.133h-2.255l.065-2.122c.066-.931.133-1.064.862-1.194l.067-.6a11.782,11.782,0,0,1-1.393.133,10.976,10.976,0,0,1-1.46-.065l-.065.6v.065h.464c.4,0,.464.133.464.732v5.572c0,.729-.2.992-1.061,1.126l-.065.4Z" fill="#6e6e6e"/><path id="_1-2" data-name="1" d="M345.832,26.555a3.17,3.17,0,0,0,3.052-3.381,2.643,2.643,0,0,0-2.586-2.92,3.174,3.174,0,0,0-3.053,3.385C343.314,25.364,344.375,26.555,345.832,26.555Zm.4-.661c-1.127,0-1.856-1.064-1.856-2.655,0-1.393.6-2.256,1.591-2.256,1.126,0,1.857,1.13,1.857,2.721,0,1.328-.6,2.19-1.592,2.19Z" fill="#6e6e6e"/><path id="_2-2" data-name="2" d="M353.526,26.555a4.406,4.406,0,0,0,1.792-.862l-.067-.462h-.065a3.263,3.263,0,0,1-1.526.462c-1.128,0-1.79-.928-1.79-2.519,0-1.393.595-2.191,1.656-2.191a1.011,1.011,0,0,1,1.061,1.065v.4l.53-.069a11.534,11.534,0,0,1,.268-1.855l-.067-.068a5.082,5.082,0,0,0-1.525-.264,3.171,3.171,0,0,0-3.053,3.382c.069,1.858,1.13,2.984,2.786,2.984Z" fill="#6e6e6e"/><path id="_3-2" data-name="3" d="M357.308,25.894l-.067.531h1.326a6.967,6.967,0,0,1,1.195.065l.133-.6v-.068h-.465c-.332,0-.464-.2-.464-.729,0-1.126,0-2.255.067-3.251a3.534,3.534,0,0,1,1.656-.729c.731,0,1.13.53,1.13,1.393l-.067,2.652a.8.8,0,0,1-.731.862l-.065.531a12.381,12.381,0,0,1,1.393-.13,7.349,7.349,0,0,1,1.194.065l.132-.6v-.068h-.463c-.332,0-.466-.2-.466-.729,0-.8.2-2.652.2-3.118a1.622,1.622,0,0,0-1.79-1.725,5.7,5.7,0,0,0-1.99,1.061,25.775,25.775,0,0,1,.332-4.575l-.067-.2a12.942,12.942,0,0,1-1.989.4l-.267.4.067.065h.265c.332,0,.466.2.466.664V25.1c0,.53-.2.729-.664.8Z" fill="#6e6e6e"/><path id="_4-2" data-name="4" d="M367.058,26.555a2.258,2.258,0,0,0,2.454-1.923c0-.661-.4-1.126-1.858-1.855-.794-.4-1.126-.8-1.126-1.2s.464-.729,1.061-.729c.729,0,1.061.264,1.061.928v.4l.463-.065a9.594,9.594,0,0,1,.266-1.592v-.068a4.658,4.658,0,0,0-1.326-.2c-1.393,0-2.454.8-2.454,1.859,0,.664.463,1.126,1.459,1.656,1.195.664,1.525.931,1.525,1.393s-.53.8-1.193.8c-.929,0-1.261-.4-1.261-1.591l-.464.065c0,.465-.133,1.526-.133,1.79l.067.069c-.132,0,.463.263,1.459.263Z" fill="#6e6e6e"/><path id="_5-2" data-name="5" d="M374.287,26.555a4.407,4.407,0,0,0,1.791-.862l-.132-.4h-.066a3.248,3.248,0,0,1-1.525.465c-1.129,0-1.793-.931-1.793-2.522,0-1.393.6-2.187,1.66-2.187a1.007,1.007,0,0,1,1.06,1.061v.4l.531-.065a11.59,11.59,0,0,1,.265-1.859l-.067-.065a5.013,5.013,0,0,0-1.524-.267,3.173,3.173,0,0,0-3.051,3.385,2.73,2.73,0,0,0,2.851,2.916Z" fill="#6e6e6e"/><path id="_6-2" data-name="6" d="M378,25.894l-.067.531h1.328a6.967,6.967,0,0,1,1.194.065l.132-.6v-.068h-.464c-.332,0-.465-.2-.465-.729,0-1.126,0-2.255.066-3.251a3.547,3.547,0,0,1,1.659-.729c.729,0,1.127.53,1.127,1.393l-.067,2.652a.8.8,0,0,1-.728.862l-.067.531a12.381,12.381,0,0,1,1.393-.13,7.331,7.331,0,0,1,1.192.065l.134-.6v-.068h-.464c-.332,0-.464-.2-.464-.729,0-.8.2-2.652.2-3.118a1.623,1.623,0,0,0-1.792-1.725,5.724,5.724,0,0,0-1.99,1.061,25.775,25.775,0,0,1,.332-4.575l-.065-.2a12.986,12.986,0,0,1-1.992.4l-.263.4.065.065h.267c.33,0,.462.2.462.664V25.1c0,.53-.2.729-.662.8Z" fill="#6e6e6e"/><path id="_7-2" data-name="7" d="M386.426,21.781l-.067,3.251c0,.992.6,1.523,1.792,1.523a5.634,5.634,0,0,0,1.856-1.126h.067a1.047,1.047,0,0,0,1.193,1.061c.464,0,1.128-1.061,1.128-1.061l-.2-.133a1.487,1.487,0,0,1-.8.331c-.331,0-.531-.2-.531-.595a27.644,27.644,0,0,1,.267-4.579l-.067-.2s-1.127.267-2.055.4l-.068.462h.332c.465,0,.664.2.664.729V24.9a2.93,2.93,0,0,1-1.592.729c-.729,0-1.061-.4-1.061-1.327a22.271,22.271,0,0,1,.332-3.912l-.068-.134s-1.061.267-1.924.4l-.065.462a1.374,1.374,0,0,1,.332-.065c.332,0,.531.263.531.729Z" fill="#6e6e6e"/><path id="_8" data-name="8" d="M393.654,26.555c.531-.065,1.063-.13,1.393-.13a7.356,7.356,0,0,1,1.194.065l.134-.6v-.068h-.466c-.332,0-.463-.2-.463-.729a56.276,56.276,0,0,1,.4-8.357l-.066-.2c-.663.2-1.327.264-1.991.4l-.065.465h.4c.4,0,.466.2.466.729v6.5c0,.862,0,1.194-.731,1.392l-.2.531Z" fill="#6e6e6e"/><path id="_9" data-name="9" d="M400.685,26.555a4.436,4.436,0,0,0,2.057-.928l-.132-.4h-.068a4.02,4.02,0,0,1-1.591.4c-1.26,0-1.989-.927-1.989-2.652h3.648l.2-.133a1.888,1.888,0,0,0,.065-.664,1.739,1.739,0,0,0-1.988-1.924,3.243,3.243,0,0,0-2.92,3.385,2.631,2.631,0,0,0,2.719,2.916Zm-1.723-4.045a1.664,1.664,0,0,1,1.657-1.592,1,1,0,0,1,1.129,1.061c0,.267-.068.332-.332.332l-2.454.2Z" fill="#6e6e6e"/><path d="M352.864,51.1a12.131,12.131,0,0,1,1.525-.133c.728,0,1.99.068,1.99.068l.132-.6v-.065s-.663.065-.928.065c-.466,0-.6-.2-.6-.927l.066-2.191a4.191,4.191,0,0,1,1-.065c.6,0,1.657.065,1.657.065l.2-.794-.065-.068s-1,.133-1.393.133h-1.393l.134-2.786c0-.461.065-.53.927-.53,1.592,0,1.79.069,1.79.931V44.8l.664-.065a13.646,13.646,0,0,1,.332-2.255l-.065-.068c-.931.068-2.057.133-3.848.133-.8,0-1.857-.065-1.857-.065l-.067.6v.065h.464c.4,0,.466.133.466.732v5.572c0,.729-.2.992-1.061,1.126l-.067.53Z" fill="#6e6e6e"/><path id="_1-3" data-name="1" d="M360.094,50.5l-.067.53a13.662,13.662,0,0,1,1.393-.068h1.326l.134-.6V50.3h-.6c-.53,0-.662-.2-.662-.8,0-.267.132-2.721.132-2.721.4-.531.861-.928,1.259-.928.266,0,.332.2.332.928l.531-.065a13.7,13.7,0,0,1,.2-1.924l-.068-.065a.939.939,0,0,0-.4-.068,2.884,2.884,0,0,0-1.856,1.393l-.067-.065a10.233,10.233,0,0,1,.134-1.393l-.067-.068s-.994.266-1.792.4l-.065.664.065.065a.708.708,0,0,1,.267-.065c.33,0,.531.2.531.794v2.919c0,.928-.134,1.126-.664,1.2Z" fill="#6e6e6e"/><path id="_2-3" data-name="2" d="M368.184,51.1a4.416,4.416,0,0,0,2.057-.927l-.133-.332h-.065a4.039,4.039,0,0,1-1.592.4c-1.261,0-1.99-.928-1.99-2.653h3.647l.2-.133a1.834,1.834,0,0,0,.067-.664,1.74,1.74,0,0,0-1.991-1.924,3.24,3.24,0,0,0-2.917,3.385,2.577,2.577,0,0,0,2.717,2.851Zm-1.723-4.045a1.665,1.665,0,0,1,1.658-1.592,1,1,0,0,1,1.126,1.061c0,.264-.065.332-.33.332l-2.454.2Z" fill="#6e6e6e"/><path id="_3-3" data-name="3" d="M373.292,43.27a.766.766,0,0,0,.8-.794.625.625,0,0,0-.664-.664.766.766,0,0,0-.794.794C372.7,42.873,372.894,43.27,373.292,43.27ZM372.165,51.1a10.37,10.37,0,0,1,1.393-.133c.465,0,1.194.068,1.194.068l.133-.6v-.065h-.465c-.332,0-.466-.2-.466-.729a22,22,0,0,1,.333-4.709l-.065-.134s-1,.264-1.924.4l-.067.465a1.373,1.373,0,0,1,.331-.065c.332,0,.465.2.465.729V49.7c0,.466-.2.729-.729.863l-.133.53Z" fill="#6e6e6e"/><path id="_4-3" data-name="4" d="M378.931,51.1a3.358,3.358,0,0,0,3.316-3.45A2.621,2.621,0,0,0,379.66,44.8a4.77,4.77,0,0,0-1.592.928,23.374,23.374,0,0,1,.332-4.442l-.066-.2s-1.063.264-1.991.4l-.065.465.065.066a.7.7,0,0,1,.266-.066c.332,0,.463.2.463.73v8.159l.134.13a12.964,12.964,0,0,0,1.725.133Zm.4-.729A4.255,4.255,0,0,1,378,50.1l.066-3.713a2.834,2.834,0,0,1,1.393-.729c1,0,1.725,1.061,1.725,2.454.065,1.393-.664,2.255-1.858,2.255Z" fill="#6e6e6e"/><path id="_5-3" data-name="5" d="M384.567,46.388l-.065,3.251c0,.993.6,1.523,1.79,1.523a5.616,5.616,0,0,0,1.859-1.126h.065A1.048,1.048,0,0,0,389.41,51.1c.466,0,1.128-1.061,1.128-1.061l-.2-.2a1.483,1.483,0,0,1-.794.332c-.332,0-.531-.2-.531-.6A27.965,27.965,0,0,1,389.277,45l-.065-.134s-1.13.268-2.057.4l-.065.462h.33c.464,0,.662.2.662.729v3.053a2.912,2.912,0,0,1-1.591.729c-.729,0-1.061-.4-1.061-1.325A22.184,22.184,0,0,1,385.762,45l-.065-.134s-1.063.268-1.924.4v.462a1.373,1.373,0,0,1,.331-.065c.332,0,.463.263.463.729Z" fill="#6e6e6e"/><path id="_6-3" data-name="6" d="M392.063,50.5l-.066.53a13.638,13.638,0,0,1,1.393-.068h1.327l.131-.6V50.3h-.6c-.531,0-.664-.2-.664-.8,0-.267.133-2.721.133-2.721.4-.531.863-.928,1.26-.928.265,0,.332.2.332.928l.53-.065a13.77,13.77,0,0,1,.2-1.924l-.067-.065a.941.941,0,0,0-.4-.068,2.885,2.885,0,0,0-1.855,1.393l-.068-.065a10.307,10.307,0,0,1,.133-1.393l-.065-.068s-1,.266-1.791.4l-.067.4.067.065a.692.692,0,0,1,.265-.065c.332,0,.53.2.53.8V49.04c0,1.2-.133,1.393-.663,1.462Z" fill="#6e6e6e"/><path id="_7-3" data-name="7" d="M403.339,45.327l.132-.729-.067-.068c-.794.2-1.458.331-1.856.4-.331,0-.8-.134-1.326-.134a2.478,2.478,0,0,0-2.454,2.389,1.98,1.98,0,0,0,.994,1.725v.065a6.579,6.579,0,0,0-1.061.863c0,.664.53,1.126,1.46,1.324v.069a6.089,6.089,0,0,0-1.328,1.194,1.767,1.767,0,0,0,1.992,1.79c1.656,0,3.247-1.194,3.247-2.32,0-1.924-4.377-1-4.377-2.057,0-.2.134-.4.6-.6a2.322,2.322,0,0,0,.729.133,2.461,2.461,0,0,0,2.587-2.32,1.978,1.978,0,0,0-.532-1.328l.067-.065a3.514,3.514,0,0,1,1.194-.332Zm-2.984,3.316a1.523,1.523,0,0,1-1.526-1.725,1.293,1.293,0,0,1,1.326-1.458,1.556,1.556,0,0,1,1.525,1.725A1.293,1.293,0,0,1,400.355,48.643Zm-.664,2.588c2.122.263,2.587.462,2.587.995,0,.73-.929,1.325-1.991,1.325-.861,0-1.393-.4-1.393-1a1.708,1.708,0,0,1,.8-1.324Z" fill="#6e6e6e"/></g></g></svg>