<svg id="Ebene_1" data-name="Ebene 1" xmlns="http://www.w3.org/2000/svg" viewBox="0 0 480.334 72.405"><path d="M258.809,37.009c0,1.36-1.5,2.468-3.348,2.468s-3.346-1.108-3.346-2.468,1.5-2.463,3.346-2.463S258.809,35.648,258.809,37.009Z" fill="#1e1e1c"/><path d="M270.063,34.546c0,1.359-1.5,2.463-3.349,2.463s-3.346-1.1-3.346-2.463,1.5-2.468,3.346-2.468S270.063,33.184,270.063,34.546Z" fill="#1e1e1c"/><rect x="257.146" y="24.855" width="1.709" height="12.154" fill="#1e1e1c"/><rect x="268.375" y="22.391" width="1.709" height="12.154" fill="#1e1e1c"/><rect x="258" y="23.095" width="11.229" height="3.631" fill="#1e1e1c"/><path d="M270.083,27.581H257.146v-5.34h12.937Zm-11.229-1.709h9.521V23.949h-9.521Z" fill="#1e1e1c"/><path d="M28.746,34.347A8.343,8.343,0,0,0,28,30.207a2.785,2.785,0,0,0-2.578-1.218q-.569,0-1.177.06t-1.178.143V45.673H17.013V25.051q.772-.2,1.807-.426t2.192-.406q1.158-.183,2.375-.284t2.4-.1a10.073,10.073,0,0,1,3.754.588,8.473,8.473,0,0,1,2.375,1.4A11.3,11.3,0,0,1,38,23.834a10.682,10.682,0,0,1,4.2.71,6.319,6.319,0,0,1,2.617,2.009,7.6,7.6,0,0,1,1.34,3.085,19.889,19.889,0,0,1,.365,3.978V45.673H40.477V34.347a8.343,8.343,0,0,0-.751-4.14,2.783,2.783,0,0,0-2.578-1.218,5.461,5.461,0,0,0-1.359.243,5.286,5.286,0,0,0-1.442.609,9.247,9.247,0,0,1,.366,1.969q.081,1.035.082,2.212V45.673H28.746Z" fill="#1e1e1c"/><path d="M70.232,44.942a33.691,33.691,0,0,1-3.978.832,32.71,32.71,0,0,1-5.116.386,12.14,12.14,0,0,1-4.525-.731,6.873,6.873,0,0,1-2.862-2.05,8,8,0,0,1-1.5-3.146,16.909,16.909,0,0,1-.447-4.019V24.32h6.049V35.484a8.648,8.648,0,0,0,.771,4.222,3.068,3.068,0,0,0,2.882,1.3q.649,0,1.38-.062t1.3-.142V24.32h6.049Z" fill="#1e1e1c"/><path d="M82.045,41.329a6.044,6.044,0,0,0,2.353-.324,1.256,1.256,0,0,0,.691-1.259,1.541,1.541,0,0,0-.894-1.279,17.044,17.044,0,0,0-2.719-1.238,27.615,27.615,0,0,1-2.578-1.1,7.575,7.575,0,0,1-1.969-1.36,5.469,5.469,0,0,1-1.257-1.888,6.954,6.954,0,0,1-.448-2.638A5.705,5.705,0,0,1,77.457,25.5a9.714,9.714,0,0,1,6.13-1.745,19.737,19.737,0,0,1,3.734.344,17.58,17.58,0,0,1,2.842.751l-1.056,4.709a22.038,22.038,0,0,0-2.293-.649,12.441,12.441,0,0,0-2.781-.284q-2.842,0-2.842,1.583a1.636,1.636,0,0,0,.122.649,1.378,1.378,0,0,0,.487.548,6.914,6.914,0,0,0,1,.571q.63.306,1.6.675A24.794,24.794,0,0,1,87.687,34.1a7.864,7.864,0,0,1,2.049,1.546,4.765,4.765,0,0,1,1.056,1.843,8.189,8.189,0,0,1,.3,2.349,5.415,5.415,0,0,1-2.374,4.78A11.845,11.845,0,0,1,82,46.241a19.3,19.3,0,0,1-4.73-.487,19.09,19.09,0,0,1-2.618-.812l1.016-4.912a19.668,19.668,0,0,0,3.166.954A15.385,15.385,0,0,0,82.045,41.329Z" fill="#1e1e1c"/><path d="M102.218,18.15a3.318,3.318,0,0,1-1.076,2.618,3.85,3.85,0,0,1-5.074,0,3.318,3.318,0,0,1-1.076-2.618,3.322,3.322,0,0,1,1.076-2.618,3.85,3.85,0,0,1,5.074,0A3.322,3.322,0,0,1,102.218,18.15Zm-.568,27.523H95.6V24.32h6.049Z" fill="#1e1e1c"/><path d="M106.318,35a12.611,12.611,0,0,1,.75-4.365,10.212,10.212,0,0,1,5.623-5.987,11.387,11.387,0,0,1,4.627-.892,14.943,14.943,0,0,1,3.126.3,15.267,15.267,0,0,1,2.761.873l-1.259,4.831a15.221,15.221,0,0,0-1.867-.568,9.733,9.733,0,0,0-2.274-.244,4.792,4.792,0,0,0-4,1.664A6.851,6.851,0,0,0,112.488,35a7.093,7.093,0,0,0,1.238,4.465q1.236,1.582,4.322,1.583a14.776,14.776,0,0,0,2.356-.2,9.892,9.892,0,0,0,2.313-.649l.853,4.953a14.23,14.23,0,0,1-2.639.771,17.429,17.429,0,0,1-3.491.325,13.143,13.143,0,0,1-5.034-.873,9.49,9.49,0,0,1-3.471-2.374,9.263,9.263,0,0,1-1.988-3.553A15.058,15.058,0,0,1,106.318,35Z" fill="#1e1e1c"/><path d="M133.556,43.034a9.431,9.431,0,0,0,1.725-.162,5.168,5.168,0,0,0,1.543-.529,3.1,3.1,0,0,0,1.1-.994,2.72,2.72,0,0,0,.425-1.562,2.665,2.665,0,0,0-.2-1.076,2.584,2.584,0,0,0-.648-.873,6.488,6.488,0,0,0-1.117-.791q-.671-.385-1.6-.874-.934-.444-1.7-.892a6.2,6.2,0,0,1-1.359-1.056,4.258,4.258,0,0,1-.913-1.441,5.5,5.5,0,0,1-.326-2.009,6.079,6.079,0,0,1,2.193-4.892q2.193-1.846,6.373-1.847a13.69,13.69,0,0,1,3.43.386,9.385,9.385,0,0,1,2.049.71l-1.42,3.085a9.1,9.1,0,0,0-1.826-.69,10.062,10.062,0,0,0-2.8-.365,7.481,7.481,0,0,0-1.542.162,4.4,4.4,0,0,0-1.4.549,3.032,3.032,0,0,0-1.016,1.014,2.862,2.862,0,0,0-.384,1.523,2.245,2.245,0,0,0,.851,1.805,11.5,11.5,0,0,0,2.558,1.483,18.531,18.531,0,0,1,1.888.994,6.762,6.762,0,0,1,1.42,1.137,4.23,4.23,0,0,1,.894,1.481,6.074,6.074,0,0,1,.3,2.029,6.629,6.629,0,0,1-.65,3,5.92,5.92,0,0,1-1.806,2.153,8.159,8.159,0,0,1-2.741,1.278,13.238,13.238,0,0,1-3.45.426,15.509,15.509,0,0,1-2.5-.183,16.162,16.162,0,0,1-1.947-.426,9.078,9.078,0,0,1-1.381-.507q-.547-.264-.832-.426l1.461-3.085q.284.162.792.405a11.106,11.106,0,0,0,1.218.487,11.358,11.358,0,0,0,1.562.407A9.563,9.563,0,0,0,133.556,43.034Z" fill="#1e1e1c"/><path d="M153.243,46.2a9.778,9.778,0,0,1-3.571-.588,7.1,7.1,0,0,1-2.518-1.624,6.48,6.48,0,0,1-1.5-2.415,8.738,8.738,0,0,1-.486-2.923,17.723,17.723,0,0,1,.851-5.48,15.048,15.048,0,0,1,2.436-4.668,11.842,11.842,0,0,1,3.856-3.228,10.9,10.9,0,0,1,5.156-1.2,8.531,8.531,0,0,1,2.861.427,5.275,5.275,0,0,1,1.949,1.156,4.652,4.652,0,0,1,1.116,1.684,5.48,5.48,0,0,1,.366,1.969,6.883,6.883,0,0,1-.691,3.228,6.745,6.745,0,0,1-1.826,2.212,8.433,8.433,0,0,1-2.658,1.38,23.469,23.469,0,0,1-3.167.771,30.17,30.17,0,0,1-3.329.386q-1.685.1-3.186.182a4.484,4.484,0,0,0-.041.529v.324a6.763,6.763,0,0,0,.223,1.765,3.285,3.285,0,0,0,.832,1.462,4.161,4.161,0,0,0,1.685.995,8.966,8.966,0,0,0,2.821.365,9.5,9.5,0,0,0,1.6-.142,13.867,13.867,0,0,0,1.584-.365q.75-.224,1.34-.446a3.049,3.049,0,0,0,.832-.427l.324,3.207a13.3,13.3,0,0,1-2.618.954A15.787,15.787,0,0,1,153.243,46.2Zm-3.857-11.61q2.355-.08,4.3-.3a13.725,13.725,0,0,0,3.369-.771,5.347,5.347,0,0,0,2.213-1.482,3.64,3.64,0,0,0,.791-2.436,2.354,2.354,0,0,0-.141-.771,1.992,1.992,0,0,0-.488-.751,2.594,2.594,0,0,0-.953-.568,4.421,4.421,0,0,0-1.5-.223,5.96,5.96,0,0,0-2.66.608,8.067,8.067,0,0,0-2.211,1.6,9.711,9.711,0,0,0-1.665,2.314A12.622,12.622,0,0,0,149.386,34.59Z" fill="#1e1e1c"/><path d="M178.857,45.916c-.136-.3-.27-.629-.406-.994a7.654,7.654,0,0,1-.324-1.158,12.217,12.217,0,0,1-2.4,1.624,7.689,7.689,0,0,1-3.694.812,7.515,7.515,0,0,1-3.066-.569,5.453,5.453,0,0,1-2.09-1.583,6.6,6.6,0,0,1-1.2-2.394,11.257,11.257,0,0,1-.387-3.045,15.9,15.9,0,0,1,.915-5.317,13.564,13.564,0,0,1,2.74-4.628,13.712,13.712,0,0,1,4.587-3.288,15.441,15.441,0,0,1,6.454-1.258,15.849,15.849,0,0,1,2.557.243,8.113,8.113,0,0,1,2.517.812L181.943,37.92c-.137.622-.251,1.217-.346,1.786a10.816,10.816,0,0,0-.142,1.786,11.145,11.145,0,0,0,.163,1.887,11.526,11.526,0,0,0,.567,2.05Zm-6.049-2.922a5.574,5.574,0,0,0,2.924-.732,9.313,9.313,0,0,0,2.11-1.7q.04-.689.142-1.44t.264-1.523l2.435-10.067a2.581,2.581,0,0,0-.669-.121q-.466-.04-.833-.041a9.563,9.563,0,0,0-4.179.893,9.968,9.968,0,0,0-3.188,2.374,10.476,10.476,0,0,0-2.029,3.451,12.016,12.016,0,0,0-.711,4.121,9.509,9.509,0,0,0,.162,1.724,4.289,4.289,0,0,0,.59,1.543,3.364,3.364,0,0,0,1.137,1.1A3.544,3.544,0,0,0,172.808,42.994Z" fill="#1e1e1c"/><path d="M197.773,24.118c.325,0,.691.013,1.1.04a11.767,11.767,0,0,1,1.2.142q.588.1,1.075.2a3.143,3.143,0,0,1,.731.222l-1.1,3.288a8.541,8.541,0,0,0-1.867-.487,13.514,13.514,0,0,0-2.029-.162,11.659,11.659,0,0,0-1.686.122,8.481,8.481,0,0,0-1.44.324l-4.3,17.862h-3.776l4.872-20.3a23.463,23.463,0,0,1,3.491-.913A20.509,20.509,0,0,1,197.773,24.118Z" fill="#1e1e1c"/><path d="M200.737,38.122a17.044,17.044,0,0,1,.832-5.318,13.446,13.446,0,0,1,2.456-4.506,11.8,11.8,0,0,1,9.377-4.262,17.2,17.2,0,0,1,2.557.183,8.051,8.051,0,0,1,2.314.71L216.852,28.1a5.777,5.777,0,0,0-1.522-.568,10.259,10.259,0,0,0-2.252-.2,7.277,7.277,0,0,0-3.572.873,8.672,8.672,0,0,0-2.7,2.314,10.414,10.414,0,0,0-1.7,3.328,13.071,13.071,0,0,0-.59,3.917,8.52,8.52,0,0,0,.224,1.99,4.113,4.113,0,0,0,.792,1.644,3.81,3.81,0,0,0,1.521,1.116,6.207,6.207,0,0,0,2.417.406,8.942,8.942,0,0,0,1.542-.142,13.676,13.676,0,0,0,1.5-.345A13.016,13.016,0,0,0,213.747,42a3.105,3.105,0,0,0,.792-.426l.324,3.207a9.745,9.745,0,0,1-2.4.953,13.356,13.356,0,0,1-3.694.467,9.413,9.413,0,0,1-3.45-.588,6.826,6.826,0,0,1-2.518-1.665,7.2,7.2,0,0,1-1.542-2.557A9.677,9.677,0,0,1,200.737,38.122Z" fill="#1e1e1c"/><path d="M217.257,45.673l7.429-30.851,3.938-.649-2.6,10.675A14.481,14.481,0,0,1,228,24.32a10.856,10.856,0,0,1,2.091-.2,8.773,8.773,0,0,1,3.145.507,5.613,5.613,0,0,1,2.132,1.381,5.425,5.425,0,0,1,1.2,2.11,9.075,9.075,0,0,1,.385,2.7,16.943,16.943,0,0,1-.568,4.06l-2.6,10.8H230l2.4-9.987q.284-1.136.548-2.313a10.21,10.21,0,0,0,.264-2.233,4.085,4.085,0,0,0-.893-2.7q-.894-1.075-3.329-1.076a11.439,11.439,0,0,0-2.009.183,6.934,6.934,0,0,0-1.725.507l-4.222,17.618Z" fill="#1e1e1c"/><g id="_-Symbols" data-name="💎-Symbols"><g id="Logo"><g id="Bildmarke"><path id="Combined-Shape" d="M320.461,42.974H318.99v2.208h-1.474V42.974h-2.208V41.5h2.208V40.028h-2.208V38.557h2.208v-1.47H302.059V35.612h15.457V34.141H302.059v-1.47h15.457V31.2H302.059V29.725h15.457V28.254H302.059V26.78h15.457V25.309H302.059V23.838h15.457V21.63h1.474v2.208h1.471V21.63h1.471v2.208h2.208v1.471h-2.208V26.78h2.208v1.474h-2.208v1.471h15.456V31.2H321.932v1.475h15.456v1.47H321.932v1.471h15.456v1.475H321.932v1.47h15.456v1.471H321.932V41.5h15.456v1.471H321.932v2.208h-1.471Zm0-1.471V40.028H318.99V41.5Zm0-2.946v-1.47H318.99v1.47Zm0-2.945V34.141H318.99v1.471Zm0-2.941V31.2H318.99v1.475Zm0-2.946V28.254H318.99v1.471Zm0-2.945V25.309H318.99V26.78Z" fill="#1e1e1c" fill-rule="evenodd"/><path id="Combined-Shape-2" data-name="Combined-Shape" d="M323.771,28.254h-6.255V22a6.256,6.256,0,1,1,6.255,6.255Zm0-1.474A4.783,4.783,0,1,0,318.99,22V26.78Zm-8.1,24.288a6.256,6.256,0,0,1,0-12.511h6.256v6.256A6.253,6.253,0,0,1,315.676,51.068Zm0-1.47a4.783,4.783,0,0,0,4.785-4.785V40.028h-4.785a4.785,4.785,0,1,0,0,9.57Z" fill="#1e1e1c" fill-rule="evenodd"/><path id="Combined-Shape-3" data-name="Combined-Shape" d="M323.771,25.309h-3.31V22a3.312,3.312,0,1,1,3.31,3.31Zm0-1.471A1.841,1.841,0,1,0,321.932,22v1.839Zm-8.1,24.289a3.312,3.312,0,0,1,0-6.624h3.314v3.31A3.315,3.315,0,0,1,315.676,48.127Zm0-1.475a1.838,1.838,0,0,0,1.84-1.839V42.974h-1.84a1.839,1.839,0,1,0,0,3.678Z" fill="#1e1e1c" fill-rule="evenodd"/></g><g id="Wortmarke"><path id="Hochschule-für-Musik" d="M350.949,31.2V28.013h-2.533V31.2h-1.359v-7.12h1.359V26.93h2.533V24.076h1.372V31.2Zm6.244-5.606a2.38,2.38,0,0,1,1.883.77,3.089,3.089,0,0,1,.674,2.109,3.493,3.493,0,0,1-.309,1.506,2.342,2.342,0,0,1-.888,1.015,2.513,2.513,0,0,1-1.368.36,2.385,2.385,0,0,1-1.887-.765,3.084,3.084,0,0,1-.678-2.116,3.413,3.413,0,0,1,.31-1.507,2.32,2.32,0,0,1,.888-1.011A2.583,2.583,0,0,1,357.193,25.59Zm0,1c-.789,0-1.185.622-1.185,1.875A2.745,2.745,0,0,0,356.3,29.9a.982.982,0,0,0,.884.455.968.968,0,0,0,.88-.463,2.709,2.709,0,0,0,.294-1.419,2.693,2.693,0,0,0-.294-1.42A.966.966,0,0,0,357.193,26.594Zm7.017-1a2.787,2.787,0,0,1,.963.155,2.594,2.594,0,0,1,.813.488l-.591.792a2.079,2.079,0,0,0-.535-.3,1.729,1.729,0,0,0-.567-.091q-1.226,0-1.225,1.863a2.27,2.27,0,0,0,.321,1.368,1.067,1.067,0,0,0,.9.416,1.533,1.533,0,0,0,.531-.091,3.316,3.316,0,0,0,.571-.3l.591.836a2.718,2.718,0,0,1-1.764.626,2.593,2.593,0,0,1-1.36-.344,2.249,2.249,0,0,1-.888-.984,3.41,3.41,0,0,1-.309-1.5,3.575,3.575,0,0,1,.309-1.53,2.357,2.357,0,0,1,.888-1.031A2.451,2.451,0,0,1,364.21,25.59Zm6.668,0a1.471,1.471,0,0,1,1.133.445,1.723,1.723,0,0,1,.413,1.217V31.2H371.1V27.458a1.04,1.04,0,0,0-.17-.682.616.616,0,0,0-.5-.194,1,1,0,0,0-.607.21,2.38,2.38,0,0,0-.535.6v3.8h-1.32V23.573l1.32-.135V26.4A1.992,1.992,0,0,1,370.878,25.59Zm5.831,0a3.062,3.062,0,0,1,1.938.651l-.515.773a2.577,2.577,0,0,0-1.372-.444,1.064,1.064,0,0,0-.606.15.462.462,0,0,0-.218.4.5.5,0,0,0,.1.309.876.876,0,0,0,.333.234,6.163,6.163,0,0,0,.717.242,3.084,3.084,0,0,1,1.313.626,1.411,1.411,0,0,1,.428,1.094,1.463,1.463,0,0,1-.658,1.273,2.807,2.807,0,0,1-1.637.455,3.417,3.417,0,0,1-1.222-.206,2.92,2.92,0,0,1-.955-.567l.658-.741a2.452,2.452,0,0,0,1.487.539,1.237,1.237,0,0,0,.7-.178.549.549,0,0,0,.262-.484.634.634,0,0,0-.1-.376.767.767,0,0,0-.349-.246,7.5,7.5,0,0,0-.789-.262A2.69,2.69,0,0,1,375,28.2a1.412,1.412,0,0,1-.392-1.015,1.35,1.35,0,0,1,.262-.816,1.786,1.786,0,0,1,.745-.567A2.772,2.772,0,0,1,376.709,25.59Zm6.41,0a2.82,2.82,0,0,1,.963.155,2.533,2.533,0,0,1,.809.488l-.587.792a2.2,2.2,0,0,0-.535-.3,1.729,1.729,0,0,0-.567-.091q-1.224,0-1.225,1.863a2.3,2.3,0,0,0,.317,1.368,1.081,1.081,0,0,0,.908.416,1.549,1.549,0,0,0,.531-.091,3.316,3.316,0,0,0,.571-.3l.587.836a2.705,2.705,0,0,1-1.76.626,2.6,2.6,0,0,1-1.36-.344,2.255,2.255,0,0,1-.888-.984,3.41,3.41,0,0,1-.309-1.5,3.575,3.575,0,0,1,.309-1.53,2.363,2.363,0,0,1,.888-1.031A2.446,2.446,0,0,1,383.119,25.59Zm6.668,0a1.481,1.481,0,0,1,1.134.445,1.728,1.728,0,0,1,.412,1.217V31.2h-1.32V27.458a1.039,1.039,0,0,0-.171-.682.616.616,0,0,0-.5-.194,1,1,0,0,0-.607.21,2.38,2.38,0,0,0-.535.6v3.8h-1.32V23.573l1.32-.135V26.4A1.992,1.992,0,0,1,389.787,25.59Zm8.471,5.606h-1.145l-.072-.761a2.022,2.022,0,0,1-.7.69,1.976,1.976,0,0,1-.964.225,1.426,1.426,0,0,1-1.13-.447,1.8,1.8,0,0,1-.4-1.241V25.745h1.32V29.5a1.046,1.046,0,0,0,.159.658.621.621,0,0,0,.511.194,1.335,1.335,0,0,0,1.1-.772V25.745h1.32Zm3.905.154a1.306,1.306,0,0,1-.987-.364,1.43,1.43,0,0,1-.353-1.035v-6.39l1.316-.143v6.49c0,.257.1.384.309.384a1.044,1.044,0,0,0,.31-.052l.281.928A2.126,2.126,0,0,1,402.163,31.35Zm7.2-3.008c0,.071-.012.249-.032.539h-3.421a1.714,1.714,0,0,0,.412,1.13,1.267,1.267,0,0,0,.928.34,1.926,1.926,0,0,0,.678-.118,3.185,3.185,0,0,0,.682-.365l.547.753a3.146,3.146,0,0,1-2.022.729,2.436,2.436,0,0,1-1.923-.761,3.039,3.039,0,0,1-.674-2.081,3.7,3.7,0,0,1,.29-1.5,2.406,2.406,0,0,1,.832-1.043,2.243,2.243,0,0,1,1.3-.377,2.212,2.212,0,0,1,1.772.73A2.984,2.984,0,0,1,409.366,28.342Zm-1.312-.381q0-1.432-1.059-1.431a.9.9,0,0,0-.757.357,2.081,2.081,0,0,0-.325,1.137h2.141Zm9.335-3.544a.734.734,0,0,0-.559.182.806.806,0,0,0-.17.571v.575h1.308l-.142.951H416.66v4.5h-1.32V26.7h-.884v-.951h.884v-.6a1.653,1.653,0,0,1,.5-1.252,1.961,1.961,0,0,1,1.42-.48,3.318,3.318,0,0,1,1.411.321l-.381.884A2.092,2.092,0,0,0,417.389,24.417Zm6.763,6.779h-1.145l-.072-.761a2.022,2.022,0,0,1-.7.69,1.976,1.976,0,0,1-.964.225,1.423,1.423,0,0,1-1.129-.447,1.8,1.8,0,0,1-.4-1.241V25.745h1.32V29.5a1.046,1.046,0,0,0,.159.658.621.621,0,0,0,.511.194,1.334,1.334,0,0,0,1.1-.772V25.745h1.32ZM420.8,23.109a.674.674,0,0,1,.5.206.723.723,0,0,1,0,1.011.69.69,0,0,1-.5.206.737.737,0,0,1-.524-.206.713.713,0,0,1,0-1.011A.72.72,0,0,1,420.8,23.109Zm2.275,0a.714.714,0,0,1,.515,1.217.737.737,0,0,1-1.022,0,.7.7,0,0,1,0-1.011A.688.688,0,0,1,423.078,23.109Zm6.378,2.493a1.935,1.935,0,0,1,.548.072l-.227,1.276a2.091,2.091,0,0,0-.483-.059.916.916,0,0,0-.761.345,2.6,2.6,0,0,0-.444,1.054V31.2h-1.32V25.745h1.145l.123,1.074a1.948,1.948,0,0,1,.567-.9A1.274,1.274,0,0,1,429.456,25.6Zm12.8,5.594h-1.332l-.182-2.977c-.064-1.063-.1-1.911-.1-2.533v-.373l-1.3,5.11h-1.288l-1.38-5.118c.012.452.02.8.02,1.031q0,.933-.063,1.926l-.175,2.934h-1.32l.567-7.12h1.752l1.269,4.987,1.193-4.987H441.7Zm6.656,0h-1.146l-.071-.761a1.991,1.991,0,0,1-.706.69,1.95,1.95,0,0,1-.963.225,1.425,1.425,0,0,1-1.13-.447,1.815,1.815,0,0,1-.4-1.241V25.745h1.321V29.5a1.074,1.074,0,0,0,.158.658.623.623,0,0,0,.512.194,1.331,1.331,0,0,0,1.1-.772V25.745h1.32Zm4.337-5.606a3.062,3.062,0,0,1,1.938.651l-.515.773a2.577,2.577,0,0,0-1.372-.444,1.051,1.051,0,0,0-.606.15.454.454,0,0,0-.219.4.491.491,0,0,0,.1.309.837.837,0,0,0,.333.234,6.1,6.1,0,0,0,.717.242,3.074,3.074,0,0,1,1.312.626,1.408,1.408,0,0,1,.428,1.094A1.463,1.463,0,0,1,454.7,30.9a2.811,2.811,0,0,1-1.641.455,3.443,3.443,0,0,1-1.221-.206,2.922,2.922,0,0,1-.951-.567l.658-.741a2.449,2.449,0,0,0,1.486.539,1.239,1.239,0,0,0,.706-.178.551.551,0,0,0,.262-.484.634.634,0,0,0-.1-.376.8.8,0,0,0-.349-.246,7.931,7.931,0,0,0-.789-.262,2.69,2.69,0,0,1-1.225-.634,1.408,1.408,0,0,1-.393-1.015,1.356,1.356,0,0,1,.262-.816,1.776,1.776,0,0,1,.742-.567A2.8,2.8,0,0,1,453.25,25.59Zm5.534.155V31.2h-1.32V25.745Zm-.67-2.759a.813.813,0,0,1,.6.23.777.777,0,0,1,.234.571.756.756,0,0,1-.234.567.817.817,0,0,1-.6.23.8.8,0,0,1-.591-.23.756.756,0,0,1-.234-.567.777.777,0,0,1,.234-.571A.793.793,0,0,1,458.114,22.986Zm4.606.432V31.2H461.4V23.561Zm3.267,2.327-1.816,2.4,1.99,3.049h-1.514l-1.875-2.977,1.823-2.474ZM348.416,36.591v7.12h-1.359v-7.12Zm4,0-2.461,3.223,2.66,3.9h-1.618l-2.517-3.8,2.466-3.318Zm5.9,5.677a.86.86,0,0,0,.1.468.632.632,0,0,0,.313.233l-.277.873a1.6,1.6,0,0,1-.757-.226,1.139,1.139,0,0,1-.448-.567,1.758,1.758,0,0,1-.7.614,2.1,2.1,0,0,1-.931.2,1.765,1.765,0,0,1-1.289-.463,1.621,1.621,0,0,1-.472-1.217,1.575,1.575,0,0,1,.643-1.356,3.082,3.082,0,0,1,1.839-.468h.682v-.309a.943.943,0,0,0-.246-.738,1.178,1.178,0,0,0-.777-.21,4.572,4.572,0,0,0-1.443.29l-.309-.9a5.576,5.576,0,0,1,1.978-.389c1.395,0,2.093.623,2.093,1.876Zm-2.351.638a1.172,1.172,0,0,0,1.055-.67v-1.1h-.547q-1.28,0-1.281.948a.87.87,0,0,0,.2.606A.728.728,0,0,0,355.956,42.906Zm7.667-4.793a1.947,1.947,0,0,1,.547.072l-.226,1.28a1.908,1.908,0,0,0-.483-.063.929.929,0,0,0-.765.345,2.646,2.646,0,0,0-.44,1.058v2.906h-1.321V38.26h1.142l.127,1.07a1.914,1.914,0,0,1,.567-.9A1.273,1.273,0,0,1,363.623,38.113Zm3.691,5.752a1.293,1.293,0,0,1-.983-.368,1.414,1.414,0,0,1-.357-1.035V36.076l1.32-.147v6.493q0,.381.309.381a.928.928,0,0,0,.309-.052l.278.928A2.133,2.133,0,0,1,367.314,43.865Zm4.5-5.76a3.064,3.064,0,0,1,1.935.647l-.516.773a2.555,2.555,0,0,0-1.367-.44,1.081,1.081,0,0,0-.611.146.463.463,0,0,0-.214.4.506.506,0,0,0,.091.309.851.851,0,0,0,.337.234,6.27,6.27,0,0,0,.714.242,3.2,3.2,0,0,1,1.316.626,1.411,1.411,0,0,1,.428,1.094,1.467,1.467,0,0,1-.662,1.273,2.8,2.8,0,0,1-1.637.459,3.518,3.518,0,0,1-1.221-.206,2.977,2.977,0,0,1-.952-.567l.658-.741a2.427,2.427,0,0,0,1.483.535,1.267,1.267,0,0,0,.706-.174.565.565,0,0,0,.265-.488.643.643,0,0,0-.1-.372.786.786,0,0,0-.353-.25,7.135,7.135,0,0,0-.785-.262,2.638,2.638,0,0,1-1.229-.634,1.407,1.407,0,0,1-.392-1.015,1.347,1.347,0,0,1,.266-.813,1.693,1.693,0,0,1,.741-.566A2.736,2.736,0,0,1,371.817,38.1Zm6.9.008a1.952,1.952,0,0,1,.547.072l-.226,1.28a1.915,1.915,0,0,0-.484-.063.931.931,0,0,0-.765.345,2.66,2.66,0,0,0-.44,1.058v2.906h-1.32V38.26h1.142l.127,1.07a1.876,1.876,0,0,1,.567-.9A1.271,1.271,0,0,1,378.719,38.113Zm6.759,5.6h-1.142l-.071-.765a2.046,2.046,0,0,1-.706.689,1.92,1.92,0,0,1-.963.23,1.435,1.435,0,0,1-1.13-.448,1.808,1.808,0,0,1-.4-1.244V38.26h1.32v3.75a1.049,1.049,0,0,0,.158.658.624.624,0,0,0,.512.2,1.334,1.334,0,0,0,1.1-.773V38.26h1.316ZM391,38.1a1.488,1.488,0,0,1,1.134.44,1.731,1.731,0,0,1,.412,1.217v3.949h-1.32V39.969a1.058,1.058,0,0,0-.171-.678.629.629,0,0,0-.5-.2,1,1,0,0,0-.611.21,2.593,2.593,0,0,0-.535.606v3.8H388.1V36.084l1.316-.135v2.957A2,2,0,0,1,391,38.1Zm8.582,2.752c0,.067-.012.245-.031.535h-3.421a1.723,1.723,0,0,0,.412,1.134,1.283,1.283,0,0,0,.927.34,1.926,1.926,0,0,0,.682-.119,3.238,3.238,0,0,0,.678-.368l.547.753a3.139,3.139,0,0,1-2.022.733,2.414,2.414,0,0,1-1.918-.765,3.016,3.016,0,0,1-.678-2.081,3.772,3.772,0,0,1,.289-1.5,2.381,2.381,0,0,1,.837-1.039,2.48,2.48,0,0,1,3.068.349A2.988,2.988,0,0,1,399.586,40.857Zm-1.308-.381c0-.955-.357-1.435-1.062-1.435a.9.9,0,0,0-.758.357,2.12,2.12,0,0,0-.324,1.138h2.144Z" fill="#1e1e1c" fill-rule="evenodd"/></g></g></g></svg>