<svg id="Ebene_1" data-name="Ebene 1" xmlns="http://www.w3.org/2000/svg" viewBox="0 0 700 105.5"><path d="M367,54.867c0,1.986-2.192,3.6-4.889,3.6s-4.887-1.618-4.887-3.6,2.189-3.6,4.887-3.6S367,52.878,367,54.867Z" fill="#1e1e1c"/><path d="M383.433,51.269c0,1.986-2.186,3.6-4.893,3.6s-4.886-1.612-4.886-3.6,2.189-3.6,4.886-3.6S383.433,49.28,383.433,51.269Z" fill="#1e1e1c"/><rect x="364.567" y="37.116" width="2.495" height="17.751" fill="#1e1e1c"/><rect x="380.966" y="33.518" width="2.495" height="17.751" fill="#1e1e1c"/><rect x="365.815" y="34.545" width="16.399" height="5.303" fill="#1e1e1c"/><path d="M383.462,41.1H364.567V33.3h18.895Zm-16.4-2.5h13.9V35.793h-13.9Z" fill="#1e1e1c"/><path d="M39.754,55.362q0-4.269-1.1-6.047a4.067,4.067,0,0,0-3.764-1.779c-.555,0-1.127.03-1.72.089s-1.166.129-1.719.207V71.9H22.62V41.785q1.126-.3,2.638-.622t3.2-.593q1.689-.267,3.468-.415t3.5-.148a14.728,14.728,0,0,1,5.484.859,12.4,12.4,0,0,1,3.468,2.046,16.527,16.527,0,0,1,8.893-2.905,15.586,15.586,0,0,1,6.136,1.037,9.252,9.252,0,0,1,3.824,2.935,11.106,11.106,0,0,1,1.957,4.506,29.124,29.124,0,0,1,.533,5.809V71.9H56.888V55.362q0-4.269-1.1-6.047a4.068,4.068,0,0,0-3.765-1.779,7.924,7.924,0,0,0-1.986.356,7.7,7.7,0,0,0-2.1.889,13.645,13.645,0,0,1,.533,2.875q.119,1.512.118,3.232V71.9H39.754Z" fill="#1e1e1c"/><path d="M100.344,70.835a48.854,48.854,0,0,1-5.81,1.216,47.793,47.793,0,0,1-7.47.563,17.741,17.741,0,0,1-6.61-1.067,10.025,10.025,0,0,1-4.18-2.994,11.664,11.664,0,0,1-2.193-4.595,24.643,24.643,0,0,1-.653-5.869V40.718h8.834v16.3q0,4.267,1.126,6.166t4.21,1.9c.631,0,1.3-.029,2.015-.089s1.344-.127,1.9-.207V40.718h8.833Z" fill="#1e1e1c"/><path d="M117.6,65.559a8.789,8.789,0,0,0,3.439-.475,1.831,1.831,0,0,0,1.007-1.838,2.252,2.252,0,0,0-1.3-1.867,24.891,24.891,0,0,0-3.972-1.808A39.925,39.925,0,0,1,113,57.97a11.069,11.069,0,0,1-2.875-1.985,8.048,8.048,0,0,1-1.838-2.758,10.2,10.2,0,0,1-.652-3.853,8.336,8.336,0,0,1,3.26-6.937q3.261-2.548,8.953-2.549a28.79,28.79,0,0,1,5.454.5,25.417,25.417,0,0,1,4.15,1.1l-1.541,6.877a32.839,32.839,0,0,0-3.35-.949A18.252,18.252,0,0,0,120.5,47q-4.151,0-4.15,2.313a2.378,2.378,0,0,0,.178.948,2.016,2.016,0,0,0,.711.8,10.033,10.033,0,0,0,1.453.833q.918.449,2.342.986a36.2,36.2,0,0,1,4.8,2.122,11.45,11.45,0,0,1,2.995,2.259,6.972,6.972,0,0,1,1.541,2.691,11.965,11.965,0,0,1,.445,3.431,7.9,7.9,0,0,1-3.468,6.98q-3.469,2.367-9.812,2.367a28.211,28.211,0,0,1-6.907-.712,27.665,27.665,0,0,1-3.824-1.186l1.482-7.174a28.764,28.764,0,0,0,4.624,1.394A22.484,22.484,0,0,0,117.6,65.559Z" fill="#1e1e1c"/><path d="M147.06,31.707a4.846,4.846,0,0,1-1.571,3.823,5.621,5.621,0,0,1-7.41,0,4.843,4.843,0,0,1-1.572-3.823,4.848,4.848,0,0,1,1.572-3.824,5.621,5.621,0,0,1,7.41,0A4.851,4.851,0,0,1,147.06,31.707Zm-.83,40.2H137.4V40.718h8.834Z" fill="#1e1e1c"/><path d="M153.047,56.311a18.367,18.367,0,0,1,1.1-6.374,14.915,14.915,0,0,1,8.211-8.744,16.619,16.619,0,0,1,6.759-1.3,21.778,21.778,0,0,1,4.565.445,22.208,22.208,0,0,1,4.031,1.274l-1.837,7.055a22.523,22.523,0,0,0-2.728-.83,14.263,14.263,0,0,0-3.32-.355,7,7,0,0,0-5.84,2.43,10.017,10.017,0,0,0-1.926,6.4,10.363,10.363,0,0,0,1.808,6.521q1.808,2.312,6.314,2.312a21.63,21.63,0,0,0,3.439-.3A14.6,14.6,0,0,0,177,63.9l1.245,7.233a20.618,20.618,0,0,1-3.854,1.126,25.426,25.426,0,0,1-5.1.475,19.187,19.187,0,0,1-7.352-1.275,13.836,13.836,0,0,1-5.069-3.469,13.511,13.511,0,0,1-2.905-5.187A22,22,0,0,1,153.047,56.311Z" fill="#1e1e1c"/><path d="M192.828,68.049a13.767,13.767,0,0,0,2.52-.237,7.563,7.563,0,0,0,2.253-.771,4.513,4.513,0,0,0,1.6-1.453,3.981,3.981,0,0,0,.622-2.282,3.9,3.9,0,0,0-.3-1.571,3.791,3.791,0,0,0-.948-1.275,9.483,9.483,0,0,0-1.63-1.156q-.98-.562-2.342-1.275-1.365-.651-2.49-1.3a9,9,0,0,1-1.986-1.542,6.248,6.248,0,0,1-1.334-2.1,8.057,8.057,0,0,1-.475-2.934,8.878,8.878,0,0,1,3.2-7.144q3.2-2.7,9.308-2.7a20.01,20.01,0,0,1,5.009.563,13.73,13.73,0,0,1,2.994,1.038l-2.075,4.5a13.214,13.214,0,0,0-2.668-1.007,14.637,14.637,0,0,0-4.09-.534,10.971,10.971,0,0,0-2.253.237,6.429,6.429,0,0,0-2.045.8,4.437,4.437,0,0,0-1.483,1.483,4.172,4.172,0,0,0-.563,2.223,3.284,3.284,0,0,0,1.245,2.638,16.759,16.759,0,0,0,3.735,2.164,27.619,27.619,0,0,1,2.757,1.452,9.9,9.9,0,0,1,2.075,1.661,6.172,6.172,0,0,1,1.3,2.164,8.816,8.816,0,0,1,.445,2.964,9.7,9.7,0,0,1-.948,4.387,8.635,8.635,0,0,1-2.639,3.142,11.869,11.869,0,0,1-4,1.868,19.337,19.337,0,0,1-5.039.622,22.675,22.675,0,0,1-3.646-.267,23.9,23.9,0,0,1-2.846-.622,13.408,13.408,0,0,1-2.016-.741q-.8-.386-1.215-.623L185,65.914q.414.238,1.157.593a16.456,16.456,0,0,0,1.778.712,16.646,16.646,0,0,0,2.283.593A13.915,13.915,0,0,0,192.828,68.049Z" fill="#1e1e1c"/><path d="M221.582,72.673a14.31,14.31,0,0,1-5.218-.859,10.369,10.369,0,0,1-3.676-2.371,9.48,9.48,0,0,1-2.193-3.529,12.727,12.727,0,0,1-.711-4.268,25.882,25.882,0,0,1,1.245-8,21.921,21.921,0,0,1,3.557-6.818,17.293,17.293,0,0,1,5.632-4.713,15.915,15.915,0,0,1,7.529-1.749,12.5,12.5,0,0,1,4.18.623,7.735,7.735,0,0,1,2.845,1.689,6.808,6.808,0,0,1,1.631,2.461,7.972,7.972,0,0,1,.534,2.875,10.064,10.064,0,0,1-1.008,4.713,9.866,9.866,0,0,1-2.668,3.231,12.256,12.256,0,0,1-3.884,2.016,34.236,34.236,0,0,1-4.624,1.127,44.032,44.032,0,0,1-4.861.563q-2.462.149-4.654.267a6.372,6.372,0,0,0-.059.77v.475a9.888,9.888,0,0,0,.326,2.579,4.807,4.807,0,0,0,1.215,2.134,6.06,6.06,0,0,0,2.461,1.452,13.061,13.061,0,0,0,4.12.534,13.764,13.764,0,0,0,2.342-.208,19.512,19.512,0,0,0,2.312-.533q1.1-.326,1.956-.652a4.441,4.441,0,0,0,1.215-.622l.475,4.683a19.374,19.374,0,0,1-3.824,1.393A23.046,23.046,0,0,1,221.582,72.673Zm-5.633-16.956q3.438-.117,6.285-.444a20.086,20.086,0,0,0,4.92-1.126,7.824,7.824,0,0,0,3.232-2.164,5.318,5.318,0,0,0,1.156-3.558,3.425,3.425,0,0,0-.208-1.126,2.932,2.932,0,0,0-.711-1.1,3.8,3.8,0,0,0-1.394-.83,6.422,6.422,0,0,0-2.193-.326,8.674,8.674,0,0,0-3.883.889,11.755,11.755,0,0,0-3.232,2.342,14.225,14.225,0,0,0-2.43,3.379A18.278,18.278,0,0,0,215.949,55.717Z" fill="#1e1e1c"/><path d="M258.99,72.258q-.3-.653-.593-1.452a11.144,11.144,0,0,1-.474-1.69,17.8,17.8,0,0,1-3.5,2.371,11.221,11.221,0,0,1-5.4,1.186,10.955,10.955,0,0,1-4.476-.83,7.981,7.981,0,0,1-3.054-2.312,9.706,9.706,0,0,1-1.749-3.5,16.463,16.463,0,0,1-.563-4.446,23.273,23.273,0,0,1,1.334-7.767,19.857,19.857,0,0,1,4-6.758,20.074,20.074,0,0,1,6.7-4.8,22.55,22.55,0,0,1,9.426-1.837,23.005,23.005,0,0,1,3.735.356,11.8,11.8,0,0,1,3.676,1.185L263.5,60.579q-.3,1.363-.5,2.609a15.774,15.774,0,0,0-.208,2.608,16.42,16.42,0,0,0,.237,2.757,16.723,16.723,0,0,0,.831,2.994Zm-8.834-4.269a8.143,8.143,0,0,0,4.269-1.067,13.735,13.735,0,0,0,3.083-2.489q.059-1.008.207-2.105t.386-2.223l3.557-14.7a3.8,3.8,0,0,0-.978-.178q-.682-.058-1.216-.059a13.976,13.976,0,0,0-6.106,1.3,14.582,14.582,0,0,0-4.654,3.468,15.286,15.286,0,0,0-2.964,5.04,17.562,17.562,0,0,0-1.038,6.017,13.775,13.775,0,0,0,.237,2.52,6.307,6.307,0,0,0,.86,2.253,4.96,4.96,0,0,0,1.66,1.6A5.187,5.187,0,0,0,250.156,67.989Z" fill="#1e1e1c"/><path d="M286.617,40.422q.711,0,1.6.059a17.238,17.238,0,0,1,1.748.207q.859.148,1.572.3a4.659,4.659,0,0,1,1.067.326l-1.6,4.8a12.471,12.471,0,0,0-2.727-.711,19.522,19.522,0,0,0-2.965-.237,17.042,17.042,0,0,0-2.46.177,12.366,12.366,0,0,0-2.1.475L274.463,71.9H268.95l7.114-29.644a34.393,34.393,0,0,1,5.1-1.334A30.022,30.022,0,0,1,286.617,40.422Z" fill="#1e1e1c"/><path d="M290.945,60.875a24.919,24.919,0,0,1,1.216-7.766,19.631,19.631,0,0,1,3.587-6.581A17.234,17.234,0,0,1,309.442,40.3a25.161,25.161,0,0,1,3.736.267,11.8,11.8,0,0,1,3.379,1.037l-2.075,4.625a8.419,8.419,0,0,0-2.223-.83,14.943,14.943,0,0,0-3.291-.3,10.619,10.619,0,0,0-5.217,1.275,12.686,12.686,0,0,0-3.942,3.379,15.281,15.281,0,0,0-2.491,4.861,19.111,19.111,0,0,0-.859,5.722,12.411,12.411,0,0,0,.326,2.9,6,6,0,0,0,1.156,2.4,5.566,5.566,0,0,0,2.223,1.631,9.066,9.066,0,0,0,3.528.592,12.944,12.944,0,0,0,2.253-.208,19.426,19.426,0,0,0,2.193-.5,18.693,18.693,0,0,0,1.808-.622,4.571,4.571,0,0,0,1.157-.623l.474,4.684a14.256,14.256,0,0,1-3.5,1.393,19.563,19.563,0,0,1-5.395.682,13.758,13.758,0,0,1-5.039-.859,9.946,9.946,0,0,1-3.676-2.431,10.473,10.473,0,0,1-2.253-3.735A14.134,14.134,0,0,1,290.945,60.875Z" fill="#1e1e1c"/><path d="M315.074,71.9l10.849-45.058,5.751-.948-3.795,15.592a21.189,21.189,0,0,1,2.876-.771,15.875,15.875,0,0,1,3.053-.3,12.806,12.806,0,0,1,4.6.741,8.186,8.186,0,0,1,3.112,2.015,7.928,7.928,0,0,1,1.749,3.083,13.221,13.221,0,0,1,.563,3.943A24.789,24.789,0,0,1,343,56.132L339.2,71.9h-5.514l3.5-14.584q.413-1.66.8-3.38a14.979,14.979,0,0,0,.385-3.261,5.967,5.967,0,0,0-1.3-3.942q-1.305-1.57-4.861-1.571a16.972,16.972,0,0,0-2.936.266,10.1,10.1,0,0,0-2.519.742L320.587,71.9Z" fill="#1e1e1c"/><g id="Ebene_1-2" data-name="Ebene_1"><g id="_2821437549184" data-name=" 2821437549184"><polygon points="529.773 54.152 532.582 54.252 532.774 52.117 532.677 51.828 525.314 51.828 525.509 60.06 525.314 63.549 528.318 63.549 528.221 59.77 528.221 59.19 529.48 59.19 531.707 59.19 531.902 57.061 531.707 56.866 529.673 56.866 528.221 56.866 528.318 54.152 529.773 54.152" fill="#c32222"/><path id="_1" data-name="1" d="M538.78,47.759a1.227,1.227,0,0,0-1.355,1.36,1.122,1.122,0,0,0,1.26,1.254,1.222,1.222,0,0,0,1.354-1.354A1.17,1.17,0,0,0,538.78,47.759Zm3.294,0a1.226,1.226,0,0,0-1.355,1.36,1.121,1.121,0,0,0,1.257,1.254,1.223,1.223,0,0,0,1.357-1.354C543.236,48.244,542.849,47.759,542.074,47.759Zm3.1,4.069h-3l.1,7.362c0,1.455-.68,2.13-2.035,2.13S538.2,60.645,538.2,59.1l.095-7.267h-2.9l.1,5.908V59.48c-.1,2.714,1.549,4.169,4.648,4.169s4.944-1.555,4.846-4.264V57.736l.193-5.908Z" fill="#c32222"/><path id="_2" data-name="2" d="M554.957,58.9a4.45,4.45,0,0,0,2.132-3.584c0-2.324-1.454-3.488-3.974-3.488h-4.938l.195,8.232-.195,3.489h2.9l-.1-3.779h1.549c.58,1.26,1.26,2.519,1.84,3.684l.292.2a15.8,15.8,0,0,0,2.907-.585v-.29c-.872-1.159-1.745-2.519-2.617-3.874Zm-3.876-4.938.97-.1c1.259.1,1.839.58,1.839,1.744a1.943,1.943,0,0,1-1.257,2.035l-1.552-.095Z" fill="#c32222"/><polygon id="_3" data-name="3" points="575.398 51.828 572.007 51.828 571.522 53.572 569.875 58.61 569.78 58.61 568.23 53.572 567.841 51.828 564.452 51.828 563.287 63.549 565.711 63.549 565.904 59.77 566.291 56.186 566.486 56.186 568.52 62.389 570.747 62.389 573.074 56.186 573.266 56.186 573.654 59.965 573.749 63.549 576.365 63.549 575.398 51.828" fill="#c32222"/><path id="_4" data-name="4" d="M589.056,51.828h-3l.1,7.362c0,1.455-.68,2.13-2.035,2.13s-2.034-.675-2.034-2.225l.195-7.267h-2.907l.1,5.908V59.48c-.1,2.714,1.549,4.169,4.648,4.169s4.941-1.555,4.844-4.264V57.736l.1-5.908Z" fill="#c32222"/><path id="_5" data-name="5" d="M596.611,51.633c-2.711,0-4.553,1.649-4.553,3.778,0,3.489,5.038,3.3,5.038,5.039,0,.485-.387,1.065-1.354,1.065a5.2,5.2,0,0,1-3.2-1.355l-.29.2-.388,2.614a9.752,9.752,0,0,0,3.584.68c2.809,0,4.651-1.649,4.651-3.779,0-3.489-5.038-3.394-5.038-5.038,0-.485.485-.97,1.26-.97a5.846,5.846,0,0,1,2.614.97l.389-.2.485-2.419a11.159,11.159,0,0,0-3.2-.585Z" fill="#c32222"/><polygon id="_6" data-name="6" points="606.396 51.828 603.394 51.828 603.587 60.06 603.394 63.549 606.396 63.549 606.298 59.77 606.396 51.828" fill="#c32222"/><path id="_7" data-name="7" d="M615.985,57.351l3.874-5.523h-3.1l-.677,1.164-2.809,4.069V51.828h-3l.095,8.232-.095,3.489h2.9l-.1-3.779V57.736c1.16,2.034,2.419,3.879,3.679,5.813l.39.2c.967-.095,1.934-.29,2.9-.485v-.29c-1.355-1.839-2.809-3.684-4.069-5.618Z" fill="#c32222"/><path d="M455.377,43.98a15.111,15.111,0,0,1,2.9-.19,6.625,6.625,0,0,1,1.647.095l.192-.869v-.1c-.192,0-.58.1-.87.1-.68,0-.872-.3-.872-1.36l.1-3.484c1.259-.1,2.809-.2,3.194-.2h2.909v2.9c0,1.744-.293,2.034-1.455,2.034l-.2.875h2.229a21.487,21.487,0,0,1,2.422.095l.193-.869v-.1c-.193,0-.58.1-.87.1-.68,0-.872-.3-.872-1.165,0-1.645.1-5.523.289-8.523,0-.779.293-.969,1.26-1.069l.1-.87a23.071,23.071,0,0,1-2.325.2,9.225,9.225,0,0,1-1.939-.1l-.095.875v.095H464c.583,0,.678.2.678,1.065v3.488a17.18,17.18,0,0,1-2.9.2h-3.293l.094-3.1c.1-1.359.195-1.554,1.26-1.744l.1-.875a17.091,17.091,0,0,1-2.035.195,16,16,0,0,1-2.131-.095l-.1.87v.095h.677c.582,0,.677.2.677,1.069v8.138c0,1.064-.29,1.449-1.549,1.644l-.095.58Z" fill="#6e6f6e"/><path id="_1-2" data-name="1" d="M473.586,43.98a4.628,4.628,0,0,0,4.456-4.938c0-2.519-1.55-4.264-3.777-4.264a4.635,4.635,0,0,0-4.458,4.944C469.907,42.241,471.456,43.98,473.586,43.98Zm.582-.964c-1.647,0-2.712-1.555-2.712-3.879,0-2.035.87-3.294,2.325-3.294,1.644,0,2.711,1.649,2.711,3.974,0,1.939-.872,3.2-2.324,3.2Z" fill="#6e6f6e"/><path id="_2-2" data-name="2" d="M484.822,43.98a6.432,6.432,0,0,0,2.617-1.259l-.1-.675h-.1a4.761,4.761,0,0,1-2.229.675c-1.647,0-2.614-1.355-2.614-3.679,0-2.035.87-3.2,2.419-3.2a1.476,1.476,0,0,1,1.55,1.554v.58l.774-.1a16.854,16.854,0,0,1,.39-2.709l-.1-.1a7.426,7.426,0,0,0-2.227-.385,4.632,4.632,0,0,0-4.459,4.939c.1,2.714,1.65,4.358,4.069,4.358Z" fill="#6e6f6e"/><path id="_3-2" data-name="3" d="M490.345,43.016l-.1.774h1.937a10.152,10.152,0,0,1,1.744.095l.2-.869v-.1h-.68c-.485,0-.677-.29-.677-1.064,0-1.645,0-3.294.1-4.749a5.169,5.169,0,0,1,2.419-1.064c1.067,0,1.649.775,1.649,2.034l-.1,3.874a1.168,1.168,0,0,1-1.067,1.259l-.1.775a18.046,18.046,0,0,1,2.034-.19,10.731,10.731,0,0,1,1.744.095l.193-.869v-.1h-.677c-.485,0-.68-.29-.68-1.064,0-1.165.29-3.874.29-4.554a2.368,2.368,0,0,0-2.615-2.519c-.774,0-2.519,1.26-2.906,1.55a37.712,37.712,0,0,1,.485-6.683l-.1-.29a18.821,18.821,0,0,1-2.9.58l-.389.585.1.094h.387c.485,0,.68.29.68.97V41.851c0,.774-.292,1.064-.97,1.165Z" fill="#6e6f6e"/><path id="_4-2" data-name="4" d="M504.586,43.98c1.937,0,3.584-1.259,3.584-2.809,0-.965-.583-1.644-2.715-2.709-1.159-.585-1.644-1.165-1.644-1.744s.677-1.065,1.55-1.065c1.064,0,1.549.385,1.549,1.354v.58l.677-.1a14.07,14.07,0,0,1,.388-2.324v-.1a6.813,6.813,0,0,0-1.937-.29c-2.035,0-3.584,1.165-3.584,2.714,0,.97.677,1.645,2.132,2.419,1.744.97,2.227,1.36,2.227,2.035s-.775,1.164-1.742,1.164c-1.357,0-1.842-.579-1.842-2.324l-.677.095c0,.68-.195,2.229-.195,2.614l.1.1c-.192,0,.677.385,2.132.385Z" fill="#6e6f6e"/><path id="_5-2" data-name="5" d="M515.142,43.98a6.432,6.432,0,0,0,2.617-1.259l-.192-.58h-.1a4.74,4.74,0,0,1-2.227.679c-1.649,0-2.619-1.359-2.619-3.683,0-2.035.875-3.194,2.425-3.194a1.471,1.471,0,0,1,1.549,1.549v.58l.775-.1a16.8,16.8,0,0,1,.387-2.714l-.1-.095a7.325,7.325,0,0,0-2.227-.39c-2.519,0-4.456,2.134-4.456,4.944.1,2.614,1.644,4.258,4.163,4.258Z" fill="#6e6f6e"/><path id="_6-2" data-name="6" d="M520.568,43.016l-.1.774h1.939a10.181,10.181,0,0,1,1.745.095l.192-.869v-.1h-.677c-.485,0-.68-.29-.68-1.064,0-1.645,0-3.294.1-4.749a5.181,5.181,0,0,1,2.422-1.064c1.065,0,1.647.775,1.647,2.034l-.1,3.874a1.166,1.166,0,0,1-1.065,1.259l-.1.775a18.083,18.083,0,0,1,2.035-.19,10.719,10.719,0,0,1,1.742.095l.2-.869v-.1h-.678c-.484,0-.677-.29-.677-1.064,0-1.165.29-3.874.29-4.554a2.37,2.37,0,0,0-2.617-2.519c-.774,0-2.516,1.26-2.906,1.55a37.494,37.494,0,0,1,.485-6.683l-.1-.29a18.918,18.918,0,0,1-2.909.58l-.385.585.1.094h.39c.482,0,.674.29.674.97V41.851c0,.774-.289,1.064-.967,1.165Z" fill="#6e6f6e"/><path id="_7-2" data-name="7" d="M532.872,37.007l-.1,4.749c0,1.449.873,2.224,2.617,2.224a8.241,8.241,0,0,0,2.712-1.644h.1a1.528,1.528,0,0,0,1.742,1.549c.677,0,1.647-1.549,1.647-1.549l-.29-.2a2.171,2.171,0,0,1-1.165.484c-.482,0-.774-.289-.774-.869a40.464,40.464,0,0,1,.39-6.688l-.1-.29s-1.647.39-3,.585l-.1.675h.484c.68,0,.97.29.97,1.064v4.459a4.285,4.285,0,0,1-2.324,1.064c-1.065,0-1.55-.579-1.55-1.939a32.455,32.455,0,0,1,.485-5.713l-.1-.2s-1.549.39-2.809.585l-.1.675a2,2,0,0,1,.485-.095c.485,0,.775.385.775,1.064Z" fill="#6e6f6e"/><path id="_8" data-name="8" d="M543.428,43.98a20.409,20.409,0,0,1,2.035-.19,10.737,10.737,0,0,1,1.744.095l.2-.869v-.1h-.68c-.484,0-.677-.29-.677-1.064,0-5.713.292-11.816.582-12.206l-.1-.29c-.967.29-1.937.385-2.907.58l-.1.679h.58c.58,0,.68.29.68,1.065v9.492c0,1.26,0,1.744-1.067,2.034l-.293.775Z" fill="#6e6f6e"/><path id="_9" data-name="9" d="M553.7,43.98a6.479,6.479,0,0,0,3-1.355l-.193-.579h-.1a5.854,5.854,0,0,1-2.324.579c-1.84,0-2.9-1.354-2.9-3.873h5.328l.29-.2a2.754,2.754,0,0,0,.1-.97c0-1.839-.97-2.809-2.9-2.809-2.324,0-4.264,2.324-4.264,4.944A3.843,3.843,0,0,0,553.7,43.98Zm-2.517-5.908a2.428,2.428,0,0,1,2.419-2.324,1.457,1.457,0,0,1,1.65,1.549c0,.39-.1.485-.485.485l-3.584.29Z" fill="#6e6f6e"/><path d="M483.855,79.824a17.639,17.639,0,0,1,2.227-.195c1.064,0,2.906.1,2.906.1l.193-.875v-.095s-.968.095-1.355.095c-.68,0-.872-.29-.872-1.355l.1-3.2a6.178,6.178,0,0,1,1.455-.094c.87,0,2.419.094,2.419.094l.29-1.159-.095-.1s-1.454.2-2.034.2h-2.035l.195-4.069c0-.675.1-.775,1.355-.775,2.324,0,2.614.1,2.614,1.36v.87l.97-.095a19.8,19.8,0,0,1,.485-3.294l-.1-.1c-1.36.1-3,.2-5.621.2-1.162,0-2.712-.095-2.712-.095l-.1.869V68.2h.677c.583,0,.68.195.68,1.07v8.138c0,1.064-.29,1.449-1.55,1.644l-.1.775Z" fill="#6e6f6e"/><path id="_1-3" data-name="1" d="M494.414,78.954l-.1.775a19.816,19.816,0,0,1,2.034-.1h1.937l.195-.87v-.095h-.872c-.775,0-.968-.3-.968-1.165,0-.389.193-3.973.193-3.973.582-.775,1.257-1.355,1.839-1.355.388,0,.485.29.485,1.355l.775-.095a20.008,20.008,0,0,1,.292-2.809l-.1-.095a1.356,1.356,0,0,0-.58-.1,4.213,4.213,0,0,0-2.711,2.034l-.1-.095a14.982,14.982,0,0,1,.195-2.034l-.1-.1s-1.452.39-2.617.585l-.095.969.095.095a1.029,1.029,0,0,1,.39-.095c.482,0,.775.29.775,1.16V77.21c0,1.354-.195,1.644-.97,1.744Z" fill="#6e6f6e"/><path id="_2-3" data-name="2" d="M506.23,79.824a6.448,6.448,0,0,0,3-1.355l-.195-.485h-.095a5.873,5.873,0,0,1-2.324.58c-1.842,0-2.906-1.354-2.906-3.874h5.325l.293-.195a2.694,2.694,0,0,0,.1-.969c0-1.84-.969-2.809-2.906-2.809-2.327,0-4.261,2.324-4.261,4.943a3.764,3.764,0,0,0,3.968,4.164Zm-2.516-5.908a2.431,2.431,0,0,1,2.421-2.325,1.454,1.454,0,0,1,1.645,1.55c0,.385-.095.485-.482.485l-3.584.29Z" fill="#6e6f6e"/><path id="_3-3" data-name="3" d="M513.69,68.392a1.119,1.119,0,0,0,1.163-1.159.913.913,0,0,0-.97-.97,1.119,1.119,0,0,0-1.16,1.16C512.818,67.812,513.108,68.392,513.69,68.392Zm-1.647,11.432a15.111,15.111,0,0,1,2.035-.195c.68,0,1.744.1,1.744.1l.2-.875v-.095h-.68c-.484,0-.679-.29-.679-1.065,0-3,.195-6.3.484-6.877l-.094-.195s-1.455.385-2.81.58l-.1.679a2,2,0,0,1,.482-.095c.485,0,.68.29.68,1.065v4.938c0,.68-.29,1.065-1.065,1.26l-.2.775Z" fill="#6e6f6e"/><path id="_4-3" data-name="4" d="M521.925,79.824a4.9,4.9,0,0,0,4.844-5.039c0-2.419-1.55-4.163-3.779-4.163a6.952,6.952,0,0,0-2.324,1.354,34.228,34.228,0,0,1,.484-6.488l-.1-.29s-1.552.385-2.907.58l-.095.68.095.095a1.026,1.026,0,0,1,.388-.095c.485,0,.677.29.677,1.065V79.439l.195.19a18.881,18.881,0,0,0,2.519.195Zm.58-1.065a6.236,6.236,0,0,1-1.937-.39l.1-5.423a4.134,4.134,0,0,1,2.034-1.065c1.455,0,2.519,1.55,2.519,3.584.095,2.034-.969,3.294-2.714,3.294Z" fill="#6e6f6e"/><path id="_5-3" data-name="5" d="M530.158,72.946l-.1,4.748c0,1.45.869,2.225,2.614,2.225a8.213,8.213,0,0,0,2.714-1.645h.1a1.531,1.531,0,0,0,1.744,1.55c.68,0,1.647-1.55,1.647-1.55l-.292-.29a2.167,2.167,0,0,1-1.16.485c-.484,0-.774-.29-.774-.875a40.981,40.981,0,0,1,.384-6.682l-.094-.2s-1.65.39-3,.584l-.1.675h.483c.677,0,.967.29.967,1.065V77.5a4.257,4.257,0,0,1-2.324,1.065c-1.065,0-1.55-.58-1.55-1.934a32.464,32.464,0,0,1,.485-5.718l-.1-.2s-1.552.39-2.809.584v.675a2,2,0,0,1,.482-.095c.485,0,.678.385.678,1.065Z" fill="#6e6f6e"/><path id="_6-3" data-name="6" d="M541.1,78.954l-.1.775a19.767,19.767,0,0,1,2.034-.1h1.937l.193-.87v-.095h-.87c-.775,0-.97-.3-.97-1.165,0-.389.2-3.973.2-3.973.58-.775,1.26-1.355,1.84-1.355.387,0,.485.29.485,1.355l.774-.095a20.141,20.141,0,0,1,.29-2.809l-.1-.095a1.366,1.366,0,0,0-.582-.1,4.209,4.209,0,0,0-2.71,2.034l-.1-.095a14.982,14.982,0,0,1,.2-2.034l-.1-.1s-1.454.39-2.616.585l-.1.579.1.095a1,1,0,0,1,.387-.095c.485,0,.775.29.775,1.165V76.82c0,1.744-.195,2.034-.97,2.134Z" fill="#6e6f6e"/><path id="_7-3" data-name="7" d="M557.574,71.4l.192-1.064-.1-.1c-1.16.3-2.13.485-2.712.585-.482,0-1.162-.195-1.937-.195a3.618,3.618,0,0,0-3.583,3.489,2.891,2.891,0,0,0,1.452,2.519v.095a9.56,9.56,0,0,0-1.55,1.259c0,.97.775,1.645,2.132,1.935v.1a8.907,8.907,0,0,0-1.94,1.744c0,1.645,1.165,2.614,2.909,2.614,2.42,0,4.744-1.744,4.744-3.389,0-2.809-6.393-1.454-6.393-3,0-.29.195-.579.875-.874a3.364,3.364,0,0,0,1.064.194,3.594,3.594,0,0,0,3.779-3.388,2.893,2.893,0,0,0-.777-1.94l.1-.095a5.152,5.152,0,0,1,1.745-.485Zm-4.359,4.844a2.225,2.225,0,0,1-2.229-2.519,1.889,1.889,0,0,1,1.937-2.13,2.273,2.273,0,0,1,2.227,2.52A1.888,1.888,0,0,1,553.215,76.24Zm-.97,3.779c3.1.385,3.779.674,3.779,1.454,0,1.065-1.357,1.935-2.909,1.935-1.257,0-2.034-.58-2.034-1.455a2.493,2.493,0,0,1,1.164-1.934Z" fill="#6e6f6e"/></g></g></svg>