<svg id="Ebene_1" data-name="Ebene 1" xmlns="http://www.w3.org/2000/svg" viewBox="0 0 700 105.5"><path d="M366.9,54.867c0,1.986-2.192,3.6-4.89,3.6s-4.886-1.618-4.886-3.6,2.188-3.6,4.886-3.6S366.9,52.878,366.9,54.867Z" fill="#fff"/><path d="M383.336,51.269c0,1.986-2.186,3.6-4.893,3.6s-4.886-1.612-4.886-3.6,2.188-3.6,4.886-3.6S383.336,49.28,383.336,51.269Z" fill="#fff"/><rect x="364.47" y="37.116" width="2.495" height="17.751" fill="#fff"/><rect x="380.869" y="33.518" width="2.495" height="17.751" fill="#fff"/><rect x="365.718" y="34.545" width="16.399" height="5.303" fill="#fff"/><path d="M383.365,41.1H364.47V33.3h18.895Zm-16.4-2.5h13.9V35.793h-13.9Z" fill="#fff"/><path d="M39.657,55.362q0-4.269-1.1-6.047A4.066,4.066,0,0,0,34.8,47.537a17.042,17.042,0,0,0-1.718.089q-.891.087-1.72.207V71.9H22.523V41.786q1.127-.3,2.639-.623t3.2-.593q1.691-.267,3.469-.415t3.5-.148a14.7,14.7,0,0,1,5.483.86,12.415,12.415,0,0,1,3.469,2.045,16.521,16.521,0,0,1,8.892-2.905,15.586,15.586,0,0,1,6.136,1.037,9.252,9.252,0,0,1,3.824,2.935,11.1,11.1,0,0,1,1.956,4.506,28.977,28.977,0,0,1,.535,5.809V71.9H56.791V55.362q0-4.269-1.1-6.047a4.067,4.067,0,0,0-3.765-1.778,7.953,7.953,0,0,0-1.986.355,7.684,7.684,0,0,0-2.1.89,13.5,13.5,0,0,1,.534,2.875q.118,1.512.119,3.231V71.9H39.657Z" fill="#fff"/><path d="M100.248,70.836a49.146,49.146,0,0,1-5.811,1.215,47.791,47.791,0,0,1-7.47.564,17.74,17.74,0,0,1-6.61-1.068,10.023,10.023,0,0,1-4.18-2.994,11.666,11.666,0,0,1-2.193-4.594,24.659,24.659,0,0,1-.652-5.87V40.718h8.833v16.3q0,4.269,1.127,6.166t4.208,1.9q.948,0,2.016-.089t1.9-.207V40.718h8.834Z" fill="#fff"/><path d="M117.5,65.559a8.812,8.812,0,0,0,3.439-.474,1.833,1.833,0,0,0,1.008-1.838,2.256,2.256,0,0,0-1.3-1.868,24.862,24.862,0,0,0-3.972-1.807,40.3,40.3,0,0,1-3.765-1.6,11.045,11.045,0,0,1-2.875-1.985,8.039,8.039,0,0,1-1.838-2.757,10.178,10.178,0,0,1-.652-3.853,8.332,8.332,0,0,1,3.26-6.937q3.261-2.549,8.952-2.55a28.812,28.812,0,0,1,5.456.5,25.532,25.532,0,0,1,4.149,1.1l-1.541,6.878a32.264,32.264,0,0,0-3.35-.949A18.243,18.243,0,0,0,120.4,47q-4.15,0-4.15,2.313a2.375,2.375,0,0,0,.178.948,2.017,2.017,0,0,0,.711.8,10.025,10.025,0,0,0,1.453.834q.918.449,2.342.985a36.407,36.407,0,0,1,4.8,2.122,11.522,11.522,0,0,1,2.994,2.259,6.989,6.989,0,0,1,1.541,2.692,11.923,11.923,0,0,1,.445,3.43,7.9,7.9,0,0,1-3.469,6.981q-3.468,2.365-9.811,2.366a27.742,27.742,0,0,1-10.732-1.9l1.483-7.174a28.862,28.862,0,0,0,4.624,1.393A22.491,22.491,0,0,0,117.5,65.559Z" fill="#fff"/><path d="M146.963,31.707a4.848,4.848,0,0,1-1.571,3.824,5.624,5.624,0,0,1-7.41,0,4.844,4.844,0,0,1-1.571-3.824,4.846,4.846,0,0,1,1.571-3.824,5.624,5.624,0,0,1,7.41,0A4.849,4.849,0,0,1,146.963,31.707Zm-.83,40.2H137.3V40.718h8.834Z" fill="#fff"/><path d="M152.951,56.311a18.37,18.37,0,0,1,1.1-6.374,14.915,14.915,0,0,1,8.211-8.744,16.636,16.636,0,0,1,6.759-1.3,21.845,21.845,0,0,1,4.565.445,22.168,22.168,0,0,1,4.032,1.275l-1.838,7.055a22.292,22.292,0,0,0-2.728-.83,14.207,14.207,0,0,0-3.32-.356,7,7,0,0,0-5.84,2.431,10.014,10.014,0,0,0-1.927,6.4,10.364,10.364,0,0,0,1.809,6.522q1.807,2.311,6.314,2.311a21.63,21.63,0,0,0,3.439-.3A14.533,14.533,0,0,0,176.9,63.9l1.245,7.233a20.641,20.641,0,0,1-3.854,1.126,25.36,25.36,0,0,1-5.1.475,19.207,19.207,0,0,1-7.352-1.274,13.848,13.848,0,0,1-5.069-3.469,13.52,13.52,0,0,1-2.9-5.188A21.971,21.971,0,0,1,152.951,56.311Z" fill="#fff"/><path d="M192.731,68.049a13.748,13.748,0,0,0,2.519-.237,7.543,7.543,0,0,0,2.253-.77,4.511,4.511,0,0,0,1.6-1.454,3.981,3.981,0,0,0,.622-2.282,3.92,3.92,0,0,0-.3-1.571,3.775,3.775,0,0,0-.948-1.274,9.508,9.508,0,0,0-1.63-1.157q-.978-.562-2.342-1.274-1.365-.653-2.49-1.3a8.973,8.973,0,0,1-1.986-1.542,6.254,6.254,0,0,1-1.334-2.1,8.063,8.063,0,0,1-.475-2.935,8.876,8.876,0,0,1,3.2-7.144q3.2-2.7,9.308-2.7a20.021,20.021,0,0,1,5.01.564,13.782,13.782,0,0,1,2.994,1.037l-2.075,4.506A13.192,13.192,0,0,0,204,45.4a14.645,14.645,0,0,0-4.091-.533,10.909,10.909,0,0,0-2.253.237,6.406,6.406,0,0,0-2.045.8,4.431,4.431,0,0,0-1.482,1.482,4.177,4.177,0,0,0-.564,2.223,3.287,3.287,0,0,0,1.245,2.639,16.746,16.746,0,0,0,3.736,2.164,27.391,27.391,0,0,1,2.756,1.452,9.925,9.925,0,0,1,2.076,1.66,6.169,6.169,0,0,1,1.3,2.164,8.816,8.816,0,0,1,.445,2.964,9.7,9.7,0,0,1-.949,4.388,8.635,8.635,0,0,1-2.637,3.141,11.887,11.887,0,0,1-4,1.868,19.351,19.351,0,0,1-5.04.622,22.682,22.682,0,0,1-3.646-.266A24.3,24.3,0,0,1,186,71.785a13.571,13.571,0,0,1-2.015-.741q-.8-.385-1.216-.624l2.135-4.5q.413.238,1.156.592a16.87,16.87,0,0,0,4.061,1.3A13.922,13.922,0,0,0,192.731,68.049Z" fill="#fff"/><path d="M221.485,72.673a14.31,14.31,0,0,1-5.218-.859,10.351,10.351,0,0,1-3.676-2.371,9.5,9.5,0,0,1-2.193-3.528,12.707,12.707,0,0,1-.711-4.269,25.871,25.871,0,0,1,1.245-8,21.931,21.931,0,0,1,3.557-6.818,17.279,17.279,0,0,1,5.632-4.713,15.9,15.9,0,0,1,7.529-1.749,12.5,12.5,0,0,1,4.18.622,7.727,7.727,0,0,1,2.845,1.689,6.782,6.782,0,0,1,1.631,2.461,7.971,7.971,0,0,1,.533,2.875,10.081,10.081,0,0,1-1.007,4.714,9.884,9.884,0,0,1-2.668,3.231,12.239,12.239,0,0,1-3.883,2.015,34.2,34.2,0,0,1-4.624,1.127,44.079,44.079,0,0,1-4.862.564q-2.46.147-4.654.266a6.4,6.4,0,0,0-.059.771v.474a9.9,9.9,0,0,0,.326,2.58,4.811,4.811,0,0,0,1.216,2.133,6.041,6.041,0,0,0,2.459,1.452,13.068,13.068,0,0,0,4.121.535,13.837,13.837,0,0,0,2.341-.208,19.681,19.681,0,0,0,2.313-.534q1.095-.324,1.956-.652a4.481,4.481,0,0,0,1.216-.622l.474,4.684a19.476,19.476,0,0,1-3.824,1.392A23.051,23.051,0,0,1,221.485,72.673Zm-5.633-16.956q3.438-.117,6.285-.444a20.1,20.1,0,0,0,4.92-1.126,7.824,7.824,0,0,0,3.232-2.164,5.317,5.317,0,0,0,1.156-3.558,3.425,3.425,0,0,0-.208-1.126,2.936,2.936,0,0,0-.711-1.1,3.778,3.778,0,0,0-1.394-.83,6.42,6.42,0,0,0-2.193-.327,8.674,8.674,0,0,0-3.883.889,11.756,11.756,0,0,0-3.231,2.342,14.227,14.227,0,0,0-2.431,3.38A18.27,18.27,0,0,0,215.852,55.717Z" fill="#fff"/><path d="M258.893,72.258q-.3-.651-.593-1.452a11.132,11.132,0,0,1-.474-1.689,17.775,17.775,0,0,1-3.5,2.371,11.23,11.23,0,0,1-5.4,1.185,10.955,10.955,0,0,1-4.476-.83,7.968,7.968,0,0,1-3.053-2.311,9.7,9.7,0,0,1-1.749-3.5,16.47,16.47,0,0,1-.564-4.447,23.288,23.288,0,0,1,1.334-7.766,19.568,19.568,0,0,1,10.7-11.561,22.561,22.561,0,0,1,9.427-1.838,23.12,23.12,0,0,1,3.736.356,11.843,11.843,0,0,1,3.674,1.185L263.4,60.58q-.3,1.364-.5,2.608a15.774,15.774,0,0,0-.208,2.608,16.4,16.4,0,0,0,.237,2.757,16.8,16.8,0,0,0,.83,2.994Zm-8.834-4.268a8.144,8.144,0,0,0,4.269-1.068,13.712,13.712,0,0,0,3.083-2.489q.058-1.008.208-2.1T258,60.105l3.558-14.7a3.8,3.8,0,0,0-.978-.178c-.456-.039-.86-.059-1.215-.059a13.983,13.983,0,0,0-6.107,1.3,14.582,14.582,0,0,0-4.654,3.468,15.269,15.269,0,0,0-2.964,5.04A17.588,17.588,0,0,0,244.605,61a13.756,13.756,0,0,0,.237,2.519,6.292,6.292,0,0,0,.86,2.253,4.953,4.953,0,0,0,1.66,1.6A5.189,5.189,0,0,0,250.059,67.99Z" fill="#fff"/><path d="M286.52,40.422q.713,0,1.6.059a17.043,17.043,0,0,1,1.749.208q.858.148,1.571.3a4.709,4.709,0,0,1,1.067.326l-1.6,4.8a12.4,12.4,0,0,0-2.727-.712,19.642,19.642,0,0,0-2.965-.237,17.042,17.042,0,0,0-2.46.177,12.486,12.486,0,0,0-2.1.475L274.367,71.9h-5.514l7.114-29.643a34.3,34.3,0,0,1,5.1-1.334A29.943,29.943,0,0,1,286.52,40.422Z" fill="#fff"/><path d="M290.848,60.876a24.92,24.92,0,0,1,1.216-7.767,19.634,19.634,0,0,1,3.587-6.58A17.227,17.227,0,0,1,309.345,40.3a25.161,25.161,0,0,1,3.736.267,11.756,11.756,0,0,1,3.378,1.038l-2.074,4.624a8.454,8.454,0,0,0-2.223-.83,15.015,15.015,0,0,0-3.29-.3,10.634,10.634,0,0,0-5.218,1.274,12.726,12.726,0,0,0-3.943,3.379,15.315,15.315,0,0,0-2.49,4.862,19.11,19.11,0,0,0-.859,5.721,12.419,12.419,0,0,0,.326,2.905,6.018,6.018,0,0,0,1.156,2.4,5.566,5.566,0,0,0,2.223,1.631,9.069,9.069,0,0,0,3.528.593,13.042,13.042,0,0,0,2.253-.208,19.944,19.944,0,0,0,2.194-.5c.67-.2,1.274-.405,1.807-.622a4.543,4.543,0,0,0,1.156-.623l.475,4.683a14.211,14.211,0,0,1-3.5,1.394,19.565,19.565,0,0,1-5.4.681,13.767,13.767,0,0,1-5.04-.859,9.93,9.93,0,0,1-3.675-2.431,10.473,10.473,0,0,1-2.253-3.735A14.124,14.124,0,0,1,290.848,60.876Z" fill="#fff"/><path d="M314.977,71.9l10.849-45.058,5.751-.948-3.794,15.592a21.281,21.281,0,0,1,2.875-.771,15.875,15.875,0,0,1,3.053-.3,12.8,12.8,0,0,1,4.595.741,8.207,8.207,0,0,1,3.112,2.016,7.9,7.9,0,0,1,1.749,3.082,13.227,13.227,0,0,1,.563,3.944,24.744,24.744,0,0,1-.829,5.927l-3.8,15.771h-5.514l3.5-14.584q.416-1.66.8-3.38a14.965,14.965,0,0,0,.385-3.261,5.974,5.974,0,0,0-1.3-3.942q-1.305-1.57-4.861-1.571a16.874,16.874,0,0,0-2.936.266,10.176,10.176,0,0,0-2.519.741L320.491,71.9Z" fill="#fff"/><polygon points="451.699 59.574 450.766 65.721 468.791 65.721 468.791 75.22 449.336 75.22 450.435 67.939 449.331 75.22 488.049 75.22 485.691 59.548 451.699 59.574" fill="none" stroke="#fff" stroke-miterlimit="10" stroke-width="0.545" opacity="0.92"/><path d="M452.306,45.67h32.5V40.311h-32.5Zm33.125.591H451.673v-6.54h33.758Z" fill="#fff"/><path d="M452.306,57.392h32.509V48.463H452.306Zm33.141.6H451.673V47.873h33.774Z" fill="#fff"/><path d="M452.331,29.631l-4-2.607,40.474-.011-3.98,2.618v7.908h-32.5Zm38.48-3.214-44.507.016,5.4,3.508,0,8.194h33.758v-8.2Z" fill="#fff"/><polygon points="437.375 65.721 437.375 75.22 449.336 75.22 450.771 65.721 437.375 65.721" fill="none" stroke="#fff" stroke-miterlimit="10" stroke-width="0.545" opacity="0.92"/><polygon points="450.766 65.721 449.336 75.22 468.791 75.22 468.791 65.721 450.766 65.721" fill="none" stroke="#fff" stroke-miterlimit="10" stroke-width="0.545" opacity="0.92"/><path d="M494.128,41.032c-.146-.462-.394-1.016-1.058-1.016a.78.78,0,0,0-.813.834c0,.441.321.736.933,1.016l.2.093a1.674,1.674,0,0,1,1.2,1.529,1.648,1.648,0,0,1-1.814,1.612,2.461,2.461,0,0,1-.793-.135c-.223-.072-.368-.135-.461-.171-.062-.2-.161-.746-.239-1.228l.239-.078c.155.41.585,1.29,1.4,1.29a.833.833,0,0,0,.835-.9c0-.446-.213-.762-.84-1.073l-.254-.124c-.528-.27-1.2-.694-1.2-1.472a1.541,1.541,0,0,1,1.695-1.518,2.4,2.4,0,0,1,.725.114c.124.046.239.062.332.1.031.28.077.627.16,1.073Z" fill="#fff"/><path d="M495.838,41.073c.036-.529.083-1.052.1-1.461h.14c.114.186.192.2.415.2h3.275a.385.385,0,0,0,.378-.2h.13c.015.331.047.932.093,1.446l-.238.015a1.377,1.377,0,0,0-.3-.741c-.134-.15-.388-.2-.881-.2h-.409v3.654c0,.855.062.922.793.969v.223H496.89v-.223c.7-.047.762-.114.762-.969V40.135h-.27c-.684,0-.891.093-1.016.239a1.734,1.734,0,0,0-.29.7Z" fill="#fff"/><path d="M502.409,42.788h1.264l-.621-1.751h-.021Zm1.068-3.067.544,1.476c.357.97.71,1.954,1.01,2.747.27.71.384.767.84.814v.223h-2.089v-.223l.223-.031c.306-.052.321-.13.223-.43-.078-.239-.269-.731-.435-1.146h-1.472c-.1.239-.244.684-.358,1.016-.14.425-.077.529.275.565l.223.026v.223h-1.767v-.223c.492-.062.58-.1.86-.814l1.6-4.13Z" fill="#fff"/><path d="M508.384,42.788h1.259l-.616-1.751H509Zm1.063-3.067L510,41.2c.358.97.705,1.954,1.006,2.747.274.71.383.767.844.814v.223h-2.088v-.223l.222-.031c.3-.052.316-.13.223-.43-.083-.239-.274-.731-.44-1.146H508.3c-.1.239-.249.684-.357,1.016-.145.425-.083.529.269.565l.223.026v.223h-1.762v-.223c.487-.062.575-.1.855-.814l1.607-4.13Z" fill="#fff"/><path d="M512.1,41.073c.031-.529.078-1.052.093-1.461h.145c.109.186.187.2.41.2h3.275c.207,0,.254-.047.378-.2h.13c.015.331.047.932.093,1.446l-.238.015a1.425,1.425,0,0,0-.291-.741c-.134-.15-.388-.2-.886-.2h-.409v3.654c0,.855.062.922.793.969v.223h-2.446v-.223c.7-.047.762-.114.762-.969V40.135h-.27c-.684,0-.891.093-1.016.239a1.678,1.678,0,0,0-.285.7Z" fill="#fff"/><path d="M520.133,39.814v.223c-.638.052-.7.114-.7.969v2.767c0,.461.047.684.181.778a1.317,1.317,0,0,0,.653.108,1.266,1.266,0,0,0,.913-.228,2.343,2.343,0,0,0,.388-.8l.254.047c-.046.254-.223,1.067-.285,1.306h-3.726v-.223c.669-.047.731-.114.731-.969V41.006c0-.855-.062-.917-.7-.969v-.223Z" fill="#fff"/><path d="M525.165,39.814v.223c-.6.052-.664.114-.664.969v2.783c0,.855.063.922.664.969v.223h-2.239v-.223c.617-.047.684-.114.684-.969V41.006c0-.855-.067-.917-.684-.969v-.223Z" fill="#fff"/><path d="M531,41.192a1.372,1.372,0,0,0-1.492-1.176c-1.306,0-1.892,1.088-1.892,2.265,0,1.477.731,2.5,1.892,2.5.855,0,1.254-.44,1.668-1.285l.223.047a11.55,11.55,0,0,1-.4,1.321,6.5,6.5,0,0,1-1.492.239,2.612,2.612,0,0,1-2.923-2.612,2.809,2.809,0,0,1,3.062-2.793,5.881,5.881,0,0,1,1.436.207c.062.446.093.793.14,1.254Z" fill="#fff"/><path d="M534.794,39.814v.223c-.591.052-.653.114-.653.969v1.067h2.415V41.006c0-.855-.062-.917-.669-.969v-.223h2.255v.223c-.633.052-.7.114-.7.969v2.783c0,.855.067.922.684.969v.223h-2.3v-.223c.669-.047.731-.114.731-.969V42.436h-2.415v1.353c0,.855.062.922.684.969v.223H532.55v-.223c.637-.047.7-.114.7-.969V41.006c0-.855-.062-.917-.73-.969v-.223Z" fill="#fff"/><path d="M543.086,39.814c.015.129.046.715.093,1.207l-.238.016a1.44,1.44,0,0,0-.3-.72c-.135-.135-.388-.182-.881-.182h-.4c-.3,0-.316,0-.316.285V42.1h.684c.684,0,.7-.046.777-.658h.254v1.679h-.254c-.077-.627-.093-.658-.777-.658h-.684v1.306c0,.461.031.684.176.783a1.581,1.581,0,0,0,.762.1,1.257,1.257,0,0,0,.928-.228,2.514,2.514,0,0,0,.409-.8l.238.047c-.036.269-.207,1.083-.274,1.306h-3.877v-.223c.684-.047.752-.114.752-.969V41.006c0-.855-.068-.917-.669-.969v-.223Z" fill="#fff"/><path d="M549.486,39.814v.223c-.591.052-.653.114-.653.969v1.067h2.415V41.006c0-.855-.062-.917-.669-.969v-.223h2.255v.223c-.633.052-.695.114-.695.969v2.783c0,.855.062.922.679.969v.223h-2.3v-.223c.669-.047.731-.114.731-.969V42.436h-2.415v1.353c0,.855.062.922.684.969v.223h-2.275v-.223c.637-.047.7-.114.7-.969V41.006c0-.855-.062-.917-.73-.969v-.223Z" fill="#fff"/><path d="M555.249,42.229c0,1.441.637,2.549,1.767,2.549.824,0,1.456-.689,1.456-2.181,0-1.654-.658-2.581-1.721-2.581-.839,0-1.5.808-1.5,2.213m4.26.072a2.647,2.647,0,0,1-2.7,2.8,2.527,2.527,0,0,1-2.6-2.617A2.717,2.717,0,0,1,557,39.7a2.5,2.5,0,0,1,2.509,2.606" fill="#fff"/><path d="M565.448,41.192a1.376,1.376,0,0,0-1.493-1.176c-1.306,0-1.891,1.088-1.891,2.265,0,1.477.73,2.5,1.891,2.5.855,0,1.254-.44,1.664-1.285l.222.047a11.79,11.79,0,0,1-.393,1.321,6.5,6.5,0,0,1-1.493.239,2.613,2.613,0,0,1-2.923-2.612A2.81,2.81,0,0,1,564.1,39.7a5.861,5.861,0,0,1,1.43.207c.063.446.094.793.146,1.254Z" fill="#fff"/><path d="M569.241,39.814v.223c-.585.052-.653.114-.653.969v1.067H571V41.006c0-.855-.062-.917-.663-.969v-.223h2.254v.223c-.637.052-.7.114-.7.969v2.783c0,.855.062.922.684.969v.223h-2.307v-.223c.669-.047.731-.114.731-.969V42.436h-2.415v1.353c0,.855.068.922.684.969v.223H567v-.223c.638-.047.7-.114.7-.969V41.006c0-.855-.062-.917-.731-.969v-.223Z" fill="#fff"/><path d="M576.787,41.032c-.14-.462-.389-1.016-1.057-1.016a.779.779,0,0,0-.809.834c0,.441.316.736.928,1.016l.207.093a1.668,1.668,0,0,1,1.192,1.529,1.643,1.643,0,0,1-1.809,1.612,2.479,2.479,0,0,1-.8-.135c-.223-.072-.363-.135-.461-.171-.062-.2-.156-.746-.238-1.228l.238-.078c.161.41.591,1.29,1.41,1.29a.836.836,0,0,0,.834-.9c0-.446-.218-.762-.845-1.073l-.254-.124c-.523-.27-1.192-.694-1.192-1.472a1.539,1.539,0,0,1,1.695-1.518,2.355,2.355,0,0,1,.72.114c.13.046.239.062.337.1.031.28.078.627.156,1.073Z" fill="#fff"/><path d="M583.063,41.192a1.376,1.376,0,0,0-1.493-1.176c-1.306,0-1.891,1.088-1.891,2.265,0,1.477.73,2.5,1.891,2.5.855,0,1.254-.44,1.664-1.285l.228.047a13.152,13.152,0,0,1-.4,1.321,6.512,6.512,0,0,1-1.493.239,2.613,2.613,0,0,1-2.923-2.612A2.81,2.81,0,0,1,581.71,39.7a5.861,5.861,0,0,1,1.43.207c.063.446.094.793.145,1.254Z" fill="#fff"/><path d="M586.856,39.814v.223c-.586.052-.653.114-.653.969v1.067h2.42V41.006c0-.855-.067-.917-.668-.969v-.223h2.254v.223c-.637.052-.7.114-.7.969v2.783c0,.855.063.922.685.969v.223h-2.307v-.223c.669-.047.736-.114.736-.969V42.436H586.2v1.353c0,.855.067.922.684.969v.223h-2.27v-.223c.638-.047.7-.114.7-.969V41.006c0-.855-.062-.917-.731-.969v-.223Z" fill="#fff"/><path d="M593.7,39.814v.223c-.586.052-.648.1-.648.953v1.679c0,1.26.41,1.97,1.348,1.97.964,0,1.44-.731,1.44-2.125v-.477a12.438,12.438,0,0,0-.072-1.586c-.042-.285-.264-.378-.772-.414v-.223h1.938v.223c-.4.015-.606.129-.643.414a12.438,12.438,0,0,0-.072,1.586V42.6a2.675,2.675,0,0,1-.581,1.9,2.029,2.029,0,0,1-1.466.6,1.844,1.844,0,0,1-2.011-2.275V40.99c0-.855-.062-.9-.7-.953v-.223Z" fill="#fff"/><path d="M600.367,39.814v.223c-.633.052-.7.114-.7.969v2.767c0,.461.047.684.181.778a1.328,1.328,0,0,0,.653.108,1.259,1.259,0,0,0,.913-.228,2.427,2.427,0,0,0,.393-.8l.254.047c-.052.254-.223,1.067-.29,1.306H598.05v-.223c.663-.047.726-.114.726-.969V41.006c0-.855-.063-.917-.695-.969v-.223Z" fill="#fff"/><path d="M606.767,39.814c.015.129.046.715.1,1.207l-.238.016a1.489,1.489,0,0,0-.295-.72c-.135-.135-.389-.182-.881-.182h-.4c-.3,0-.317,0-.317.285V42.1h.684c.685,0,.7-.046.778-.658h.254v1.679H606.2c-.078-.627-.093-.658-.778-.658h-.684v1.306c0,.461.031.684.177.783a1.568,1.568,0,0,0,.761.1,1.257,1.257,0,0,0,.928-.228,2.484,2.484,0,0,0,.4-.8l.239.047c-.031.269-.208,1.083-.27,1.306H603.1v-.223c.684-.047.746-.114.746-.969V41.006c0-.855-.062-.917-.669-.969v-.223Z" fill="#fff"/><path d="M494.889,49.925c.016.124.047.715.093,1.176l-.238.031a1.44,1.44,0,0,0-.3-.71c-.135-.135-.389-.181-.881-.181h-.41c-.305,0-.321,0-.321.29v1.762h.8c.679,0,.695-.047.778-.638h.253v1.628h-.253c-.083-.6-.1-.627-.778-.627h-.8v1.238c0,.861.062.923.8.969v.223H491.3v-.223c.586-.046.653-.108.653-.969V51.117c0-.861-.067-.923-.653-.969v-.223Z" fill="#fff"/><path d="M499.491,49.251a.394.394,0,0,1,.394-.409.4.4,0,0,1,.389.409.392.392,0,0,1-.389.4.387.387,0,0,1-.394-.4m-1.523,0a.392.392,0,0,1,.388-.409.4.4,0,0,1,.394.409.393.393,0,0,1-.394.4.385.385,0,0,1-.388-.4m.508.674v.223c-.586.046-.648.093-.648.953v1.674c0,1.265.409,1.969,1.347,1.969.964,0,1.441-.73,1.441-2.119v-.477a12.38,12.38,0,0,0-.073-1.591c-.041-.285-.264-.378-.772-.409v-.223h1.938v.223c-.393.015-.6.124-.642.409a12.38,12.38,0,0,0-.073,1.591v.565a2.659,2.659,0,0,1-.58,1.9,2.009,2.009,0,0,1-1.467.595,1.836,1.836,0,0,1-2.011-2.269V51.1c0-.86-.062-.907-.7-.953v-.223Z" fill="#fff"/><path d="M504.425,52.562h.306a1.12,1.12,0,0,0,.741-.207,1.243,1.243,0,0,0,.43-1.016,1.02,1.02,0,0,0-1.078-1.114c-.384,0-.4.031-.4.285Zm.6-2.637a2.348,2.348,0,0,1,1.311.269,1.157,1.157,0,0,1,.524,1.011,1.44,1.44,0,0,1-1.058,1.373c.13.223.441.778.695,1.135a8.649,8.649,0,0,0,.658.881,1.1,1.1,0,0,0,.549.368l-.031.207-.337-.015a1.576,1.576,0,0,1-1.446-.736c-.254-.363-.513-.871-.746-1.285-.13-.223-.223-.3-.461-.3h-.254v1.062c0,.861.062.923.668.969v.223h-2.238v-.223c.632-.046.694-.108.694-.969V51.117c0-.861-.062-.923-.663-.969v-.223Z" fill="#fff"/><path d="M512.763,49.925l1.757,3.788,1.659-3.788h1.5v.223c-.642.062-.673.093-.658.969l.078,2.777c.026.892.047.907.689.969v.223h-2.212v-.223c.616-.062.642-.077.637-.969l-.036-3.047h-.032l-1.8,4.146h-.238L512.37,51h-.037l-.052,2.058a11.4,11.4,0,0,0,.021,1.394c.031.3.2.363.726.409v.223h-1.882v-.223c.394-.031.555-.108.612-.409.036-.238.1-.71.14-1.472l.088-1.637c.057-1.058,0-1.135-.684-1.2v-.223Z" fill="#fff"/><path d="M521.247,49.925v.223c-.591.046-.653.093-.653.953v1.674c0,1.265.414,1.969,1.353,1.969.958,0,1.435-.73,1.435-2.119v-.477a12.9,12.9,0,0,0-.067-1.591c-.042-.285-.264-.378-.772-.409v-.223h1.938v.223c-.4.015-.607.124-.643.409a11.527,11.527,0,0,0-.072,1.591v.565a2.682,2.682,0,0,1-.581,1.9,2.012,2.012,0,0,1-1.472.595,1.835,1.835,0,0,1-2-2.269V51.1c0-.86-.068-.907-.7-.953v-.223Z" fill="#fff"/><path d="M528.5,51.137c-.14-.461-.389-1.015-1.057-1.015a.781.781,0,0,0-.808.834c0,.446.316.741.927,1.016l.207.1a1.662,1.662,0,0,1,1.192,1.524,1.642,1.642,0,0,1-1.808,1.611,2.5,2.5,0,0,1-.8-.134c-.218-.073-.363-.135-.457-.166a12.1,12.1,0,0,1-.238-1.233l.238-.078c.156.415.586,1.3,1.4,1.3a.837.837,0,0,0,.834-.9c0-.441-.217-.762-.844-1.068l-.254-.129c-.524-.27-1.192-.69-1.192-1.467a1.538,1.538,0,0,1,1.694-1.518,2.386,2.386,0,0,1,.721.108c.129.052.238.068.337.1.031.28.077.627.155,1.073Z" fill="#fff"/><path d="M532.55,49.925v.223c-.607.046-.669.108-.669.969v2.777c0,.861.062.923.669.969v.223h-2.239v-.223c.617-.046.679-.108.679-.969V51.117c0-.861-.062-.923-.679-.969v-.223Z" fill="#fff"/><path d="M533.944,55.086v-.223c.591-.046.653-.108.653-.969V51.117c0-.861-.062-.923-.7-.969v-.223h2.224v.223c-.6.046-.664.108-.664.969v1.332a25.648,25.648,0,0,0,1.767-1.913c.192-.238.171-.326-.036-.347l-.321-.041v-.223h1.99v.223a1.643,1.643,0,0,0-1.187.564,18.073,18.073,0,0,0-1.415,1.379c.612.772,1.322,1.612,1.819,2.187.394.451.544.539.892.585v.223h-1.415c-.3-.414-1.477-1.84-2.078-2.6h-.016v1.4c0,.861.062.923.71.969v.223Z" fill="#fff"/><path d="M544.739,49.925v.223c-.586.046-.653.093-.653.953v1.674c0,1.265.415,1.969,1.352,1.969.959,0,1.436-.73,1.436-2.119v-.477a12.9,12.9,0,0,0-.067-1.591c-.042-.285-.265-.378-.773-.409v-.223h1.938v.223c-.4.015-.606.124-.642.409a12.38,12.38,0,0,0-.073,1.591v.565a2.682,2.682,0,0,1-.58,1.9,2.009,2.009,0,0,1-1.467.595,2.185,2.185,0,0,1-1.414-.419,2.215,2.215,0,0,1-.6-1.85V51.1c0-.86-.068-.907-.7-.953v-.223Z" fill="#fff"/><path d="M550.284,49.925l3.166,3.731h.021V52.148a12.464,12.464,0,0,0-.072-1.591c-.042-.285-.265-.378-.772-.409v-.223h1.938v.223c-.4.015-.607.124-.643.409a11.455,11.455,0,0,0-.073,1.591v3.006h-.368l-3.27-4.006H550.2v1.715a12.464,12.464,0,0,0,.072,1.591c.042.285.259.378.767.409v.223H549.1v-.223c.4-.015.607-.124.643-.409a11.527,11.527,0,0,0,.072-1.591V51.308c0-.922-.171-1.114-.824-1.16v-.223Z" fill="#fff"/><path d="M557.358,53.879c0,.731.083.881.694.881,1.317,0,2-.928,2-2.249,0-1.7-.86-2.286-2.13-2.286a1.137,1.137,0,0,0-.513.073c-.052.041-.052.181-.052.388Zm.819-3.954a3.147,3.147,0,0,1,2.223.7,2.342,2.342,0,0,1,.669,1.648c0,1.959-1.509,2.814-3.369,2.814h-1.949v-.223c.653-.046.721-.108.721-.969V51.117c0-.861-.068-.923-.653-.969v-.223Z" fill="#fff"/><path d="M492.837,63.99c0,.731.083.881.695.881,1.316,0,2-.928,2-2.249,0-1.7-.86-2.286-2.13-2.286a1.188,1.188,0,0,0-.518.073c-.047.036-.047.181-.047.388Zm.819-3.96a3.143,3.143,0,0,1,2.223.7,2.353,2.353,0,0,1,.669,1.653c0,1.954-1.508,2.814-3.369,2.814h-1.943v-.223c.648-.046.715-.114.715-.969V61.222c0-.855-.067-.922-.653-.969V60.03Z" fill="#fff"/><path d="M499.04,63.005h1.265l-.622-1.752h-.021Zm1.068-3.068.544,1.477c.358.969.71,1.954,1.011,2.747.269.71.383.767.839.813V65.2h-2.088v-.223l.223-.031c.305-.052.321-.129.222-.43-.077-.238-.269-.73-.435-1.145h-1.472c-.1.238-.243.684-.357,1.016-.14.425-.078.523.274.564l.218.026V65.2h-1.762v-.223c.492-.067.58-.1.86-.813l1.6-4.131Z" fill="#fff"/><path d="M505.135,62.668h.3a1.118,1.118,0,0,0,.747-.207,1.251,1.251,0,0,0,.43-1.016,1.022,1.022,0,0,0-1.083-1.109c-.378,0-.394.031-.394.285Zm.6-2.638a2.413,2.413,0,0,1,1.311.27,1.173,1.173,0,0,1,.523,1.01,1.442,1.442,0,0,1-1.057,1.374c.125.223.436.782.69,1.135a8.305,8.305,0,0,0,.658.886,1.115,1.115,0,0,0,.549.363l-.031.207-.332-.016a1.555,1.555,0,0,1-1.446-.73c-.254-.368-.518-.876-.746-1.286-.13-.223-.223-.3-.461-.3h-.254v1.062c0,.855.062.923.663.969V65.2H503.56v-.223c.637-.046.7-.114.7-.969V61.222c0-.855-.062-.922-.668-.969V60.03Z" fill="#fff"/><path d="M512.281,61.248c-.145-.461-.388-1.015-1.057-1.015a.778.778,0,0,0-.808.834c0,.44.316.736.928,1.016l.207.093a1.674,1.674,0,0,1,1.192,1.523,1.648,1.648,0,0,1-1.814,1.617,2.638,2.638,0,0,1-.793-.134c-.223-.073-.363-.135-.461-.171-.063-.2-.156-.747-.239-1.228l.239-.084c.16.415.59,1.3,1.4,1.3a.833.833,0,0,0,.834-.9c0-.446-.212-.762-.839-1.073l-.254-.125c-.524-.269-1.192-.694-1.192-1.471a1.537,1.537,0,0,1,1.69-1.519,2.372,2.372,0,0,1,.725.114c.124.047.238.062.332.1.031.28.083.627.16,1.073Z" fill="#fff"/><path d="M514,61.29c.031-.529.078-1.052.093-1.462h.145c.109.187.192.2.415.2h3.27c.207,0,.254-.046.378-.2h.13c.015.332.047.933.093,1.441l-.238.021a1.379,1.379,0,0,0-.291-.741c-.134-.151-.388-.2-.881-.2H516.7v3.653c0,.855.062.923.793.969V65.2h-2.446v-.223c.7-.046.761-.114.761-.969V60.352h-.269c-.684,0-.886.093-1.016.238a1.756,1.756,0,0,0-.285.7Z" fill="#fff"/><path d="M523.367,60.03c.015.13.051.715.1,1.208l-.238.015a1.478,1.478,0,0,0-.3-.72c-.134-.135-.388-.181-.881-.181h-.4c-.3,0-.316,0-.316.285v1.684h.684c.679,0,.7-.047.778-.658h.254v1.684H522.8c-.078-.632-.1-.663-.778-.663h-.684V63.99c0,.456.031.678.176.782a1.556,1.556,0,0,0,.762.1,1.263,1.263,0,0,0,.928-.228,2.515,2.515,0,0,0,.4-.8l.238.046c-.031.27-.207,1.083-.269,1.306H519.7v-.223c.684-.046.747-.114.747-.969V61.222c0-.855-.063-.922-.669-.969V60.03Z" fill="#fff"/><path d="M527.274,60.03v.223c-.632.047-.7.114-.7.969V63.99c0,.456.052.678.187.777a1.305,1.305,0,0,0,.653.109,1.27,1.27,0,0,0,.912-.228,2.447,2.447,0,0,0,.389-.8l.254.046c-.047.254-.223,1.068-.285,1.306h-3.726v-.223c.668-.046.73-.114.73-.969V61.222c0-.855-.062-.922-.7-.969V60.03Z" fill="#fff"/><path d="M532.342,60.03v.223c-.632.047-.7.114-.7.969V63.99c0,.456.046.678.181.777a1.327,1.327,0,0,0,.653.109,1.255,1.255,0,0,0,.912-.228,2.416,2.416,0,0,0,.394-.8l.254.046c-.052.254-.228,1.068-.29,1.306h-3.726v-.223c.668-.046.73-.114.73-.969V61.222c0-.855-.062-.922-.694-.969V60.03Z" fill="#fff"/><path d="M538.743,60.03c.015.13.046.715.1,1.208l-.238.015a1.489,1.489,0,0,0-.295-.72c-.135-.135-.389-.181-.882-.181h-.4c-.3,0-.316,0-.316.285v1.684h.684c.679,0,.7-.047.778-.658h.254v1.684h-.254c-.083-.632-.1-.663-.778-.663h-.684V63.99c0,.456.031.678.176.782a1.558,1.558,0,0,0,.762.1,1.263,1.263,0,0,0,.928-.228,2.515,2.515,0,0,0,.4-.8l.238.046c-.031.27-.207,1.083-.269,1.306h-3.876v-.223c.684-.046.746-.114.746-.969V61.222c0-.855-.062-.922-.669-.969V60.03Z" fill="#fff"/><path d="M541.531,60.03l3.171,3.737h.016V62.259a12.184,12.184,0,0,0-.073-1.591c-.041-.285-.264-.384-.772-.415V60.03h1.939v.223c-.394.016-.6.13-.643.415a12.38,12.38,0,0,0-.073,1.591v3h-.363l-3.275-4.006h-.015v1.721a12.438,12.438,0,0,0,.072,1.586c.042.285.265.383.773.414V65.2h-1.939v-.223c.394-.015.6-.129.643-.414a12.438,12.438,0,0,0,.072-1.586v-1.56c0-.922-.176-1.114-.829-1.161V60.03Z" fill="#fff"/><path d="M548.61,63.99c0,.731.078.881.689.881,1.317,0,2-.928,2-2.249,0-1.7-.855-2.286-2.13-2.286a1.156,1.156,0,0,0-.513.073c-.047.036-.047.181-.047.388Zm.819-3.96a3.16,3.16,0,0,1,2.223.7,2.372,2.372,0,0,1,.664,1.653c0,1.954-1.509,2.814-3.369,2.814H547v-.223c.653-.046.716-.114.716-.969V61.222c0-.855-.063-.922-.653-.969V60.03Z" fill="#fff"/><path d="M557.322,60.03c.015.13.046.715.093,1.208l-.238.015a1.446,1.446,0,0,0-.291-.72c-.14-.135-.394-.181-.886-.181h-.394c-.3,0-.321,0-.321.285v1.684h.684c.684,0,.7-.047.777-.658h.259v1.684h-.259c-.077-.632-.093-.663-.777-.663h-.684V63.99c0,.456.036.678.176.782a1.578,1.578,0,0,0,.762.1,1.277,1.277,0,0,0,.933-.228,2.515,2.515,0,0,0,.4-.8l.238.046c-.031.27-.207,1.083-.269,1.306h-3.876v-.223c.684-.046.746-.114.746-.969V61.222c0-.855-.062-.922-.669-.969V60.03Z" fill="#fff"/><path d="M561.53,65.2v-.223c.585-.046.653-.114.653-.969V61.222c0-.855-.068-.922-.7-.969V60.03h2.223v.223c-.606.047-.668.114-.668.969v1.337a26,26,0,0,0,1.772-1.917c.192-.233.166-.321-.041-.347l-.316-.042V60.03h1.984v.223a1.648,1.648,0,0,0-1.181.565,18.223,18.223,0,0,0-1.415,1.384c.612.772,1.322,1.612,1.819,2.182.389.456.539.544.891.59V65.2h-1.414c-.3-.414-1.477-1.845-2.084-2.6h-.015v1.409c0,.855.062.923.715.969V65.2Z" fill="#fff"/><path d="M569.78,60.03v.223c-.585.047-.653.1-.653.954v1.679c0,1.259.415,1.969,1.353,1.969.964,0,1.44-.73,1.44-2.119v-.477a12.464,12.464,0,0,0-.072-1.591c-.041-.285-.264-.384-.772-.415V60.03h1.938v.223c-.4.016-.606.13-.643.415a12.464,12.464,0,0,0-.072,1.591v.56a2.675,2.675,0,0,1-.581,1.9,2.028,2.028,0,0,1-1.466.595,1.844,1.844,0,0,1-2.011-2.275V61.207c0-.855-.062-.907-.7-.954V60.03Z" fill="#fff"/><path d="M575.325,60.03l3.172,3.737h.01V62.259a12.9,12.9,0,0,0-.067-1.591c-.042-.285-.264-.384-.772-.415V60.03h1.938v.223c-.4.016-.6.13-.643.415a12.464,12.464,0,0,0-.072,1.591v3h-.363l-3.275-4.006h-.016v1.721a12.355,12.355,0,0,0,.073,1.586c.041.285.259.383.772.414V65.2h-1.943v-.223c.4-.015.606-.129.647-.414a12.355,12.355,0,0,0,.073-1.586v-1.56c0-.922-.176-1.114-.829-1.161V60.03Z" fill="#fff"/><path d="M583.69,61.248c-.145-.461-.389-1.015-1.058-1.015a.782.782,0,0,0-.813.834c0,.44.321.736.933,1.016l.207.093a1.668,1.668,0,0,1,1.187,1.523,1.644,1.644,0,0,1-1.809,1.617,2.638,2.638,0,0,1-.793-.134c-.223-.073-.368-.135-.461-.171-.062-.2-.161-.747-.239-1.228l.239-.084c.156.415.586,1.3,1.4,1.3a.833.833,0,0,0,.835-.9c0-.446-.213-.762-.84-1.073l-.254-.125c-.528-.269-1.192-.694-1.192-1.471a1.537,1.537,0,0,1,1.69-1.519,2.391,2.391,0,0,1,.725.114c.125.047.239.062.332.1.031.28.078.627.161,1.073Z" fill="#fff"/><path d="M585.405,61.29c.031-.529.078-1.052.093-1.462h.145c.109.187.187.2.41.2h3.275a.386.386,0,0,0,.379-.2h.129c.016.332.047.933.093,1.441l-.238.021a1.389,1.389,0,0,0-.29-.741c-.135-.151-.394-.2-.887-.2h-.409v3.653c0,.855.062.923.793.969V65.2h-2.446v-.223c.7-.046.762-.114.762-.969V60.352h-.27c-.684,0-.891.093-1.016.238a1.684,1.684,0,0,0-.285.7Z" fill="#fff"/><path d="M494.128,71.354c-.146-.456-.394-1.016-1.058-1.016a.783.783,0,0,0-.813.834c0,.446.321.742.933,1.016l.2.1a1.6,1.6,0,0,1-.617,3.135,2.461,2.461,0,0,1-.793-.135c-.223-.072-.368-.134-.461-.165-.062-.208-.161-.747-.239-1.234l.239-.078c.155.415.585,1.3,1.4,1.3a.835.835,0,0,0,.835-.9c0-.44-.213-.762-.84-1.067l-.254-.13c-.528-.269-1.2-.689-1.2-1.466a1.541,1.541,0,0,1,1.695-1.519,2.386,2.386,0,0,1,.725.109c.124.052.239.067.332.1.031.279.077.627.16,1.072Z" fill="#fff"/><path d="M495.838,71.4c.036-.523.083-1.046.1-1.461h.14c.114.192.192.207.415.207h3.275c.2,0,.254-.046.378-.207h.13c.015.332.047.938.093,1.446l-.238.015a1.4,1.4,0,0,0-.3-.741c-.134-.15-.388-.2-.881-.2h-.409v3.654c0,.86.062.922.793.969V75.3H496.89V75.08c.7-.047.762-.109.762-.969V70.457h-.27c-.684,0-.891.1-1.016.239a1.814,1.814,0,0,0-.29.7Z" fill="#fff"/><path d="M503.767,70.141v.223c-.591.047-.653.093-.653.954v1.674c0,1.264.414,1.969,1.352,1.969.959,0,1.436-.731,1.436-2.12v-.477a12.769,12.769,0,0,0-.067-1.585c-.042-.291-.265-.384-.773-.415v-.223H507v.223c-.4.016-.606.124-.642.415a11.34,11.34,0,0,0-.073,1.585v.565a2.68,2.68,0,0,1-.58,1.9,2.009,2.009,0,0,1-1.472.6,2.179,2.179,0,0,1-1.41-.42,2.2,2.2,0,0,1-.595-1.85V71.318c0-.861-.068-.907-.7-.954v-.223Z" fill="#fff"/><path d="M508.063,71.4c.031-.523.078-1.046.093-1.461h.145c.114.192.192.207.415.207h3.27c.207,0,.254-.046.384-.207h.124c.015.332.046.938.1,1.446l-.238.015a1.41,1.41,0,0,0-.3-.741c-.135-.15-.389-.2-.881-.2h-.415v3.654c0,.86.062.922.793.969V75.3H509.11V75.08c.7-.047.767-.109.767-.969V70.457H509.6c-.679,0-.886.1-1.016.239a1.831,1.831,0,0,0-.285.7Z" fill="#fff"/><path d="M513.862,71.4c.031-.523.078-1.046.093-1.461h.145c.109.192.187.207.41.207h3.275c.2,0,.254-.046.379-.207h.129c.016.332.047.938.093,1.446l-.238.015a1.461,1.461,0,0,0-.29-.741c-.14-.15-.394-.2-.886-.2h-.41v3.654c0,.86.062.922.793.969V75.3h-2.446V75.08c.7-.047.762-.109.762-.969V70.457h-.27c-.684,0-.891.1-1.016.239a1.752,1.752,0,0,0-.285.7Z" fill="#fff"/><path d="M524.077,74.38a3.08,3.08,0,0,0,.046.71,6.575,6.575,0,0,1-1.731.332,2.655,2.655,0,0,1-2.954-2.643,2.766,2.766,0,0,1,3-2.757,6.357,6.357,0,0,1,1.524.207c.015.27.067.685.129,1.285l-.254.032a1.38,1.38,0,0,0-1.524-1.208c-1.1,0-1.844.834-1.844,2.28,0,1.224.523,2.488,1.969,2.488a1.262,1.262,0,0,0,.534-.088c.15-.062.212-.2.212-.518v-.664c0-.544-.031-.59-.871-.653v-.238h2.208v.238c-.414.063-.445.094-.445.653Z" fill="#fff"/><path d="M527.186,73.111h1.264l-.616-1.747h-.026Zm1.068-3.068.549,1.482c.352.969.705,1.954,1,2.747.27.7.384.761.845.808V75.3h-2.088V75.08l.222-.031c.3-.047.316-.124.223-.43-.083-.239-.275-.731-.44-1.14H527.1c-.1.238-.249.684-.358,1.016-.145.419-.082.523.27.564l.223.021V75.3h-1.767V75.08c.492-.062.58-.093.86-.808l1.607-4.131Z" fill="#fff"/><path d="M533.28,72.779h.3a1.12,1.12,0,0,0,.746-.207,1.242,1.242,0,0,0,.431-1.016,1.022,1.022,0,0,0-1.084-1.114c-.378,0-.394.031-.394.285Zm.6-2.638a2.343,2.343,0,0,1,1.312.27,1.156,1.156,0,0,1,.523,1.01,1.446,1.446,0,0,1-1.057,1.373c.129.223.435.778.694,1.136a8.967,8.967,0,0,0,.658.881,1.1,1.1,0,0,0,.545.368l-.032.2-.331-.015a1.566,1.566,0,0,1-1.446-.726c-.254-.367-.518-.875-.746-1.29-.13-.223-.223-.3-.462-.3h-.254v1.063c0,.86.063.922.669.969V75.3H531.71V75.08c.632-.047.695-.109.695-.969V71.333c0-.86-.063-.922-.669-.969v-.223Z" fill="#fff"/><path d="M537.162,71.4c.036-.523.083-1.046.1-1.461h.146c.108.192.186.207.409.207h3.275c.2,0,.254-.046.379-.207h.129c.016.332.047.938.094,1.446l-.239.015a1.41,1.41,0,0,0-.295-.741c-.13-.15-.389-.2-.881-.2h-.41v3.654c0,.86.063.922.793.969V75.3h-2.446V75.08c.7-.047.762-.109.762-.969V70.457h-.269c-.685,0-.892.1-1.016.239a1.723,1.723,0,0,0-.285.7Z" fill="#fff"/></svg>