<svg id="Ebene_1" data-name="Ebene 1" xmlns="http://www.w3.org/2000/svg" viewBox="0 0 480.334 72.405"><path d="M283.2,37.009c0,1.36-1.5,2.468-3.348,2.468s-3.346-1.108-3.346-2.468,1.5-2.463,3.346-2.463S283.2,35.648,283.2,37.009Z" fill="#fff"/><path d="M294.457,34.546c0,1.359-1.5,2.463-3.35,2.463s-3.346-1.1-3.346-2.463,1.5-2.468,3.346-2.468S294.457,33.184,294.457,34.546Z" fill="#fff"/><rect x="281.539" y="24.855" width="1.709" height="12.154" fill="#fff"/><rect x="292.768" y="22.391" width="1.709" height="12.154" fill="#fff"/><rect x="282.394" y="23.095" width="11.229" height="3.631" fill="#fff"/><path d="M294.477,27.581H281.539v-5.34h12.938Zm-11.229-1.709h9.52V23.949h-9.52Z" fill="#fff"/><path d="M53.139,34.347a8.343,8.343,0,0,0-.751-4.14,2.783,2.783,0,0,0-2.578-1.218q-.569,0-1.177.061c-.406.041-.8.087-1.178.142V45.673H41.407V25.052q.771-.2,1.806-.427t2.193-.406q1.157-.183,2.375-.284t2.4-.1a10.073,10.073,0,0,1,3.754.588,8.473,8.473,0,0,1,2.375,1.4,11.3,11.3,0,0,1,6.089-1.988,10.682,10.682,0,0,1,4.2.71,6.312,6.312,0,0,1,2.617,2.009,7.586,7.586,0,0,1,1.34,3.085,19.889,19.889,0,0,1,.365,3.978V45.673H64.87V34.347a8.343,8.343,0,0,0-.751-4.14,2.782,2.782,0,0,0-2.578-1.218,5.461,5.461,0,0,0-1.359.243,5.234,5.234,0,0,0-1.441.61,9.289,9.289,0,0,1,.365,1.968q.083,1.035.082,2.212V45.673H53.139Z" fill="#fff"/><path d="M94.625,44.942a33.691,33.691,0,0,1-3.978.832,32.7,32.7,0,0,1-5.115.386,12.142,12.142,0,0,1-4.526-.731,6.864,6.864,0,0,1-2.862-2.05,8,8,0,0,1-1.5-3.146,16.9,16.9,0,0,1-.446-4.018V24.32h6.048V35.484a8.645,8.645,0,0,0,.771,4.222,3.07,3.07,0,0,0,2.882,1.3q.649,0,1.381-.062c.486-.04.92-.087,1.3-.141V24.32h6.048Z" fill="#fff"/><path d="M106.438,41.329a6.044,6.044,0,0,0,2.353-.324,1.256,1.256,0,0,0,.691-1.259,1.54,1.54,0,0,0-.894-1.278,16.9,16.9,0,0,0-2.719-1.239,27.893,27.893,0,0,1-2.578-1.095,7.572,7.572,0,0,1-1.968-1.361,5.49,5.49,0,0,1-1.258-1.887,6.963,6.963,0,0,1-.447-2.639A5.707,5.707,0,0,1,101.85,25.5a9.714,9.714,0,0,1,6.13-1.745,19.729,19.729,0,0,1,3.734.344,17.552,17.552,0,0,1,2.842.751L113.5,29.557a21.968,21.968,0,0,0-2.293-.649,12.5,12.5,0,0,0-2.781-.284q-2.841,0-2.842,1.583a1.636,1.636,0,0,0,.122.649,1.381,1.381,0,0,0,.488.548,6.84,6.84,0,0,0,.994.571q.63.306,1.6.675A24.735,24.735,0,0,1,112.08,34.1a7.847,7.847,0,0,1,2.049,1.546,4.765,4.765,0,0,1,1.056,1.843,8.189,8.189,0,0,1,.3,2.35,5.414,5.414,0,0,1-2.374,4.779,11.849,11.849,0,0,1-6.719,1.62,18.952,18.952,0,0,1-7.348-1.3l1.016-4.912a19.668,19.668,0,0,0,3.166.954A15.318,15.318,0,0,0,106.438,41.329Z" fill="#fff"/><path d="M126.612,18.15a3.318,3.318,0,0,1-1.076,2.618,3.852,3.852,0,0,1-5.075,0,3.315,3.315,0,0,1-1.076-2.618,3.322,3.322,0,0,1,1.076-2.618,3.852,3.852,0,0,1,5.075,0A3.325,3.325,0,0,1,126.612,18.15Zm-.569,27.523h-6.049V24.32h6.049Z" fill="#fff"/><path d="M130.711,35a12.6,12.6,0,0,1,.75-4.364,10.21,10.21,0,0,1,5.623-5.988,11.4,11.4,0,0,1,4.627-.892,14.943,14.943,0,0,1,3.126.3,15.4,15.4,0,0,1,2.761.873l-1.259,4.832a15.046,15.046,0,0,0-1.867-.569,9.731,9.731,0,0,0-2.273-.244,4.789,4.789,0,0,0-4,1.664A6.852,6.852,0,0,0,136.881,35a7.093,7.093,0,0,0,1.238,4.465q1.237,1.582,4.323,1.583a14.884,14.884,0,0,0,2.355-.2,9.949,9.949,0,0,0,2.314-.65l.852,4.953a14.24,14.24,0,0,1-2.638.771,17.373,17.373,0,0,1-3.492.325,13.143,13.143,0,0,1-5.034-.873,9.5,9.5,0,0,1-3.471-2.374,9.263,9.263,0,0,1-1.988-3.553A15.053,15.053,0,0,1,130.711,35Z" fill="#fff"/><path d="M157.95,43.034a9.429,9.429,0,0,0,1.724-.162,5.2,5.2,0,0,0,1.543-.528,3.1,3.1,0,0,0,1.1-1,2.72,2.72,0,0,0,.426-1.562,2.682,2.682,0,0,0-.2-1.076,2.587,2.587,0,0,0-.649-.873,6.488,6.488,0,0,0-1.117-.791q-.669-.385-1.6-.873-.934-.445-1.7-.893a6.188,6.188,0,0,1-1.359-1.056,4.263,4.263,0,0,1-.913-1.441,5.5,5.5,0,0,1-.325-2.009,6.075,6.075,0,0,1,2.192-4.891q2.193-1.848,6.373-1.848a13.7,13.7,0,0,1,3.431.386,9.339,9.339,0,0,1,2.049.711l-1.42,3.085a9.039,9.039,0,0,0-1.827-.691,10.054,10.054,0,0,0-2.8-.365,7.535,7.535,0,0,0-1.542.162,4.4,4.4,0,0,0-1.4.549,3.038,3.038,0,0,0-1.015,1.014,2.853,2.853,0,0,0-.385,1.523,2.248,2.248,0,0,0,.851,1.806,11.538,11.538,0,0,0,2.558,1.482,18.531,18.531,0,0,1,1.888.994,6.8,6.8,0,0,1,1.421,1.137,4.243,4.243,0,0,1,.893,1.481,6.076,6.076,0,0,1,.3,2.03,6.648,6.648,0,0,1-.649,3,5.937,5.937,0,0,1-1.807,2.152,8.163,8.163,0,0,1-2.74,1.278,13.245,13.245,0,0,1-3.451.426,15.526,15.526,0,0,1-2.5-.183,16.372,16.372,0,0,1-1.947-.425,9.11,9.11,0,0,1-1.381-.508q-.548-.264-.832-.426l1.461-3.085c.19.108.453.243.792.405a11.3,11.3,0,0,0,1.218.488,11.545,11.545,0,0,0,1.562.406A9.574,9.574,0,0,0,157.95,43.034Z" fill="#fff"/><path d="M177.636,46.2a9.778,9.778,0,0,1-3.571-.588,7.1,7.1,0,0,1-2.518-1.624,6.48,6.48,0,0,1-1.5-2.415,8.738,8.738,0,0,1-.486-2.923,17.694,17.694,0,0,1,.852-5.48,15.024,15.024,0,0,1,2.435-4.668,11.845,11.845,0,0,1,3.857-3.228,10.892,10.892,0,0,1,5.155-1.2,8.531,8.531,0,0,1,2.861.427,5.275,5.275,0,0,1,1.949,1.156,4.667,4.667,0,0,1,1.117,1.684,5.479,5.479,0,0,1,.365,1.969,6.883,6.883,0,0,1-.691,3.228,6.745,6.745,0,0,1-1.826,2.212,8.445,8.445,0,0,1-2.658,1.381,23.431,23.431,0,0,1-3.167.77,30.17,30.17,0,0,1-3.329.386q-1.685.1-3.186.182a4.484,4.484,0,0,0-.041.529v.324a6.819,6.819,0,0,0,.223,1.766,3.291,3.291,0,0,0,.832,1.461,4.158,4.158,0,0,0,1.686.995,8.954,8.954,0,0,0,2.82.365,9.479,9.479,0,0,0,1.6-.142A13.658,13.658,0,0,0,182,42.405c.5-.148.948-.3,1.34-.446a3.049,3.049,0,0,0,.832-.427l.324,3.207a13.3,13.3,0,0,1-2.618.954A15.787,15.787,0,0,1,177.636,46.2ZM173.78,34.591q2.353-.081,4.3-.3a13.745,13.745,0,0,0,3.37-.771,5.35,5.35,0,0,0,2.212-1.482,3.634,3.634,0,0,0,.791-2.436,2.329,2.329,0,0,0-.141-.771,2,2,0,0,0-.487-.751,2.584,2.584,0,0,0-.954-.567,4.395,4.395,0,0,0-1.5-.224,5.96,5.96,0,0,0-2.66.608,8.087,8.087,0,0,0-2.211,1.6,9.711,9.711,0,0,0-1.665,2.314A12.558,12.558,0,0,0,173.78,34.591Z" fill="#fff"/><path d="M203.25,45.916q-.2-.445-.406-.994a7.654,7.654,0,0,1-.324-1.158,12.217,12.217,0,0,1-2.4,1.624,7.689,7.689,0,0,1-3.694.812,7.511,7.511,0,0,1-3.065-.568,5.465,5.465,0,0,1-2.09-1.583,6.614,6.614,0,0,1-1.2-2.395,11.3,11.3,0,0,1-.386-3.045,15.9,15.9,0,0,1,.914-5.317,13.564,13.564,0,0,1,2.74-4.628,13.725,13.725,0,0,1,4.587-3.288,15.441,15.441,0,0,1,6.454-1.258,15.861,15.861,0,0,1,2.558.243,8.116,8.116,0,0,1,2.516.812L206.336,37.92q-.2.933-.345,1.786a10.707,10.707,0,0,0-.143,1.786,11.249,11.249,0,0,0,.163,1.887,11.612,11.612,0,0,0,.567,2.05ZM197.2,42.994a5.573,5.573,0,0,0,2.923-.732,9.341,9.341,0,0,0,2.111-1.7c.026-.459.074-.939.141-1.44s.157-1.008.264-1.523l2.436-10.067a2.59,2.59,0,0,0-.669-.121c-.312-.027-.589-.041-.833-.041a9.554,9.554,0,0,0-4.18.894,9.939,9.939,0,0,0-3.188,2.374,10.479,10.479,0,0,0-2.029,3.45,12.016,12.016,0,0,0-.711,4.121,9.509,9.509,0,0,0,.162,1.724,4.3,4.3,0,0,0,.59,1.543,3.364,3.364,0,0,0,1.137,1.1A3.547,3.547,0,0,0,197.2,42.994Z" fill="#fff"/><path d="M222.166,24.118c.326,0,.691.014,1.1.04a11.459,11.459,0,0,1,1.2.143q.588.1,1.076.2a3.132,3.132,0,0,1,.73.222l-1.1,3.288a8.655,8.655,0,0,0-1.867-.487,13.514,13.514,0,0,0-2.029-.162,11.659,11.659,0,0,0-1.686.122,8.6,8.6,0,0,0-1.44.324l-4.3,17.862H210.07l4.871-20.3a23.463,23.463,0,0,1,3.491-.913A20.509,20.509,0,0,1,222.166,24.118Z" fill="#fff"/><path d="M225.13,38.122a17.078,17.078,0,0,1,.832-5.318,13.432,13.432,0,0,1,2.456-4.505,11.8,11.8,0,0,1,9.377-4.263,17.2,17.2,0,0,1,2.557.183,8.083,8.083,0,0,1,2.314.71L241.245,28.1a5.777,5.777,0,0,0-1.522-.568,10.259,10.259,0,0,0-2.252-.2,7.277,7.277,0,0,0-3.572.873,8.682,8.682,0,0,0-2.7,2.314,10.391,10.391,0,0,0-1.705,3.329,13.06,13.06,0,0,0-.589,3.917,8.518,8.518,0,0,0,.223,1.989,4.126,4.126,0,0,0,.792,1.644,3.818,3.818,0,0,0,1.522,1.117,6.219,6.219,0,0,0,2.416.405,8.962,8.962,0,0,0,1.543-.142,13.682,13.682,0,0,0,1.5-.344q.689-.2,1.237-.427a3.105,3.105,0,0,0,.792-.426l.324,3.207a9.718,9.718,0,0,1-2.394.953,13.363,13.363,0,0,1-3.695.467,9.417,9.417,0,0,1-3.45-.588,6.814,6.814,0,0,1-2.517-1.665,7.174,7.174,0,0,1-1.542-2.557A9.652,9.652,0,0,1,225.13,38.122Z" fill="#fff"/><path d="M241.651,45.673l7.428-30.851,3.938-.649-2.6,10.675a14.668,14.668,0,0,1,1.97-.528,10.856,10.856,0,0,1,2.091-.2,8.769,8.769,0,0,1,3.145.507,5.625,5.625,0,0,1,2.132,1.381,5.412,5.412,0,0,1,1.2,2.11,9.079,9.079,0,0,1,.385,2.7,16.936,16.936,0,0,1-.568,4.06l-2.6,10.8H254.4l2.395-9.987q.284-1.136.548-2.313a10.21,10.21,0,0,0,.264-2.233,4.085,4.085,0,0,0-.893-2.7q-.893-1.075-3.329-1.076a11.535,11.535,0,0,0-2.009.183,6.934,6.934,0,0,0-1.725.507l-4.222,17.618Z" fill="#fff"/><polygon points="335.266 37.232 334.627 41.441 346.968 41.441 346.968 47.945 333.648 47.945 334.4 42.959 333.644 47.945 360.154 47.945 358.54 37.214 335.266 37.232" fill="none" stroke="#fff" stroke-miterlimit="10" stroke-width="0.545" opacity="0.92"/><path d="M335.681,27.712h22.252V24.043H335.681Zm22.681.4H335.248V23.638h23.114Z" fill="#fff"/><path d="M335.681,35.738H357.94V29.624H335.681Zm22.692.409H335.248V29.22h23.125Z" fill="#fff"/><path d="M335.7,16.73l-2.74-1.785,27.713-.007-2.725,1.792v5.414H335.7Zm26.346-2.2-30.473.01,3.694,2.4,0,5.61h23.114V16.939Z" fill="#fff"/><polygon points="325.458 41.441 325.458 47.945 333.648 47.945 334.63 41.441 325.458 41.441" fill="none" stroke="#fff" stroke-miterlimit="10" stroke-width="0.545" opacity="0.92"/><polygon points="334.627 41.441 333.648 47.945 346.968 47.945 346.968 41.441 334.627 41.441" fill="none" stroke="#fff" stroke-miterlimit="10" stroke-width="0.545" opacity="0.92"/><path d="M364.316,24.536c-.1-.316-.269-.7-.724-.7a.534.534,0,0,0-.557.571c0,.3.22.5.639.7l.138.064a1.145,1.145,0,0,1,.82,1.047,1.128,1.128,0,0,1-1.242,1.1,1.686,1.686,0,0,1-.543-.093c-.152-.049-.252-.092-.315-.117-.043-.138-.11-.511-.164-.841l.164-.053c.106.28.4.884.961.884a.571.571,0,0,0,.571-.614c0-.3-.145-.522-.574-.735l-.174-.085c-.362-.184-.82-.475-.82-1.008a1.055,1.055,0,0,1,1.16-1.039,1.619,1.619,0,0,1,.5.078c.085.032.163.042.227.071.022.191.053.429.11.734Z" fill="#fff"/><path d="M365.487,24.565c.025-.363.057-.721.068-1h.1c.078.128.131.138.283.138h2.243a.264.264,0,0,0,.259-.138h.089c.01.227.032.638.064.99l-.164.011a.944.944,0,0,0-.2-.508c-.092-.1-.266-.135-.6-.135h-.28v2.5c0,.585.042.632.543.663v.153h-1.675v-.153c.479-.031.521-.078.521-.663v-2.5h-.184c-.469,0-.611.064-.7.163a1.19,1.19,0,0,0-.2.48Z" fill="#fff"/><path d="M369.987,25.739h.865l-.425-1.2h-.015Zm.731-2.1.372,1.012c.245.663.486,1.337.692,1.88.185.487.263.526.575.557v.153h-1.43v-.153l.153-.021c.209-.035.22-.089.152-.294-.053-.164-.184-.5-.3-.785h-1.008c-.071.164-.166.469-.244.7-.1.291-.054.362.188.387l.152.017v.153h-1.21v-.153c.337-.042.4-.067.589-.557l1.1-2.828Z" fill="#fff"/><path d="M374.078,25.739h.862l-.422-1.2H374.5Zm.727-2.1.377,1.012c.244.663.482,1.337.688,1.88.188.487.263.526.578.557v.153h-1.43v-.153l.153-.021c.206-.035.216-.089.153-.294-.057-.164-.188-.5-.3-.785h-1c-.071.164-.171.469-.245.7-.1.291-.057.362.184.387l.153.017v.153H372.9v-.153c.334-.042.394-.067.586-.557l1.1-2.828Z" fill="#fff"/><path d="M376.619,24.565c.021-.363.053-.721.064-1h.1c.074.128.128.138.28.138h2.243c.142,0,.174-.032.259-.138h.089c.01.227.032.638.063.99l-.163.011a.973.973,0,0,0-.2-.508c-.092-.1-.266-.135-.606-.135h-.281v2.5c0,.585.043.632.543.663v.153h-1.675v-.153c.48-.031.522-.078.522-.663v-2.5h-.184c-.469,0-.611.064-.7.163a1.156,1.156,0,0,0-.195.48Z" fill="#fff"/><path d="M382.122,23.7v.153c-.436.035-.479.078-.479.663v1.895c0,.316.032.469.124.532a.9.9,0,0,0,.447.075.864.864,0,0,0,.625-.156,1.614,1.614,0,0,0,.266-.55l.174.032c-.032.174-.153.731-.195.894h-2.551v-.153c.457-.031.5-.078.5-.663V24.518c0-.585-.043-.628-.479-.663V23.7Z" fill="#fff"/><path d="M385.568,23.7v.153c-.412.035-.455.078-.455.663v1.906c0,.585.043.632.455.663v.153h-1.533v-.153c.422-.031.468-.078.468-.663V24.518c0-.585-.046-.628-.468-.663V23.7Z" fill="#fff"/><path d="M389.56,24.646a.94.94,0,0,0-1.022-.8c-.894,0-1.3.745-1.3,1.55,0,1.012.5,1.711,1.3,1.711.585,0,.859-.3,1.142-.88l.153.031a8.076,8.076,0,0,1-.273.905,4.466,4.466,0,0,1-1.022.164,1.789,1.789,0,0,1-2-1.789,1.924,1.924,0,0,1,2.1-1.912,4.036,4.036,0,0,1,.983.142c.042.3.063.543.095.858Z" fill="#fff"/><path d="M392.161,23.7v.153c-.405.035-.447.078-.447.663v.731h1.653v-.731c0-.585-.042-.628-.458-.663V23.7h1.544v.153c-.433.035-.479.078-.479.663v1.906c0,.585.046.632.468.663v.153h-1.575v-.153c.458-.031.5-.078.5-.663V25.5h-1.653v.926c0,.585.042.632.468.663v.153h-1.558v-.153c.437-.031.479-.078.479-.663V24.518c0-.585-.042-.628-.5-.663V23.7Z" fill="#fff"/><path d="M397.838,23.7c.011.089.032.49.064.827l-.163.011a.983.983,0,0,0-.2-.494c-.092-.092-.266-.124-.6-.124h-.273c-.206,0-.216,0-.216.2v1.154h.468c.468,0,.479-.032.532-.451h.174v1.15h-.174c-.053-.43-.064-.451-.532-.451h-.468v.894c0,.316.021.469.12.536a1.073,1.073,0,0,0,.522.071.859.859,0,0,0,.635-.156,1.722,1.722,0,0,0,.28-.55l.164.032c-.025.184-.142.741-.189.894h-2.654v-.153c.469-.031.515-.078.515-.663V24.518c0-.585-.046-.628-.458-.663V23.7Z" fill="#fff"/><path d="M402.22,23.7v.153c-.4.035-.447.078-.447.663v.731h1.654v-.731c0-.585-.043-.628-.458-.663V23.7h1.544v.153c-.433.035-.476.078-.476.663v1.906c0,.585.043.632.465.663v.153h-1.576v-.153c.458-.031.5-.078.5-.663V25.5h-1.654v.926c0,.585.043.632.469.663v.153h-1.558v-.153c.436-.031.479-.078.479-.663V24.518c0-.585-.043-.628-.5-.663V23.7Z" fill="#fff"/><path d="M406.166,25.356c0,.986.437,1.746,1.21,1.746.564,0,1-.472,1-1.494,0-1.132-.45-1.767-1.178-1.767-.575,0-1.029.553-1.029,1.515m2.917.049a1.813,1.813,0,0,1-1.845,1.917,1.73,1.73,0,0,1-1.778-1.792,1.861,1.861,0,0,1,1.906-1.909,1.711,1.711,0,0,1,1.717,1.784" fill="#fff"/><path d="M413.15,24.646a.942.942,0,0,0-1.022-.8c-.895,0-1.3.745-1.3,1.55,0,1.012.5,1.711,1.3,1.711.585,0,.858-.3,1.139-.88l.152.031a8.1,8.1,0,0,1-.269.905,4.466,4.466,0,0,1-1.022.164,1.789,1.789,0,0,1-2-1.789,1.924,1.924,0,0,1,2.1-1.912,4.031,4.031,0,0,1,.98.142c.042.3.064.543.1.858Z" fill="#fff"/><path d="M415.747,23.7v.153c-.4.035-.447.078-.447.663v.731h1.653v-.731c0-.585-.042-.628-.454-.663V23.7h1.544v.153c-.437.035-.479.078-.479.663v1.906c0,.585.042.632.468.663v.153h-1.579v-.153c.458-.031.5-.078.5-.663V25.5H415.3v.926c0,.585.046.632.468.663v.153h-1.554v-.153c.437-.031.479-.078.479-.663V24.518c0-.585-.042-.628-.5-.663V23.7Z" fill="#fff"/><path d="M420.913,24.536c-.1-.316-.266-.7-.723-.7a.533.533,0,0,0-.554.571c0,.3.216.5.635.7l.142.064a1.142,1.142,0,0,1,.816,1.047,1.125,1.125,0,0,1-1.238,1.1,1.692,1.692,0,0,1-.547-.093c-.152-.049-.248-.092-.315-.117-.043-.138-.107-.511-.164-.841l.164-.053c.109.28.4.884.965.884a.573.573,0,0,0,.571-.614c0-.3-.149-.522-.578-.735l-.174-.085c-.359-.184-.816-.475-.816-1.008a1.053,1.053,0,0,1,1.16-1.039,1.6,1.6,0,0,1,.493.078c.089.032.163.042.231.071.021.191.053.429.106.734Z" fill="#fff"/><path d="M425.211,24.646a.942.942,0,0,0-1.022-.8c-.9,0-1.3.745-1.3,1.55,0,1.012.5,1.711,1.3,1.711.585,0,.858-.3,1.139-.88l.156.031a9.01,9.01,0,0,1-.273.905,4.466,4.466,0,0,1-1.022.164,1.789,1.789,0,0,1-2-1.789,1.924,1.924,0,0,1,2.1-1.912,4.031,4.031,0,0,1,.98.142c.042.3.064.543.1.858Z" fill="#fff"/><path d="M427.808,23.7v.153c-.4.035-.447.078-.447.663v.731h1.657v-.731c0-.585-.046-.628-.458-.663V23.7H430.1v.153c-.437.035-.479.078-.479.663v1.906c0,.585.042.632.468.663v.153h-1.579v-.153c.458-.031.5-.078.5-.663V25.5h-1.657v.926c0,.585.046.632.468.663v.153h-1.554v-.153c.436-.031.479-.078.479-.663V24.518c0-.585-.043-.628-.5-.663V23.7Z" fill="#fff"/><path d="M432.5,23.7v.153c-.4.035-.443.067-.443.653v1.149c0,.863.28,1.349.922,1.349.66,0,.987-.5.987-1.455v-.327a8.483,8.483,0,0,0-.05-1.085c-.028-.2-.181-.259-.529-.284V23.7h1.328v.153c-.274.01-.416.089-.44.284a8.286,8.286,0,0,0-.05,1.085v.387a1.828,1.828,0,0,1-.4,1.3,1.384,1.384,0,0,1-1,.409,1.263,1.263,0,0,1-1.377-1.558V24.508c0-.586-.042-.618-.479-.653V23.7Z" fill="#fff"/><path d="M437.059,23.7v.153c-.433.035-.479.078-.479.663v1.895c0,.316.031.469.124.532a.9.9,0,0,0,.447.075.857.857,0,0,0,.624-.156,1.663,1.663,0,0,0,.27-.55l.174.032c-.036.174-.153.731-.2.894h-2.548v-.153c.455-.031.5-.078.5-.663V24.518c0-.585-.042-.628-.475-.663V23.7Z" fill="#fff"/><path d="M441.441,23.7c.01.089.032.49.067.827l-.163.011a1.032,1.032,0,0,0-.2-.494c-.092-.092-.266-.124-.6-.124h-.274c-.205,0-.216,0-.216.2v1.154h.468c.469,0,.479-.032.533-.451h.173v1.15h-.173c-.054-.43-.064-.451-.533-.451h-.468v.894c0,.316.021.469.12.536a1.066,1.066,0,0,0,.522.071.858.858,0,0,0,.635-.156,1.708,1.708,0,0,0,.277-.55l.163.032c-.021.184-.142.741-.184.894h-2.654v-.153c.468-.031.511-.078.511-.663V24.518c0-.585-.043-.628-.458-.663V23.7Z" fill="#fff"/><path d="M364.838,30.625c.011.085.032.49.064.806l-.163.021a.982.982,0,0,0-.2-.486c-.092-.092-.266-.124-.6-.124h-.28c-.21,0-.22,0-.22.2v1.207h.546c.465,0,.476-.032.533-.437h.173v1.114h-.173c-.057-.408-.068-.429-.533-.429h-.546v.848c0,.589.042.632.546.664v.152h-1.6v-.152c.4-.032.447-.075.447-.664v-1.9c0-.589-.046-.631-.447-.663v-.153Z" fill="#fff"/><path d="M367.989,30.164a.269.269,0,0,1,.27-.28.273.273,0,0,1,.266.28.268.268,0,0,1-.266.277.265.265,0,0,1-.27-.277m-1.043,0a.269.269,0,0,1,.266-.28.274.274,0,0,1,.27.28.27.27,0,0,1-.27.277.264.264,0,0,1-.266-.277m.348.461v.153c-.4.032-.444.064-.444.653v1.146c0,.866.28,1.348.922,1.348.661,0,.987-.5.987-1.451v-.327a8.317,8.317,0,0,0-.05-1.089c-.028-.2-.181-.259-.528-.28v-.153h1.327v.153c-.27.01-.412.085-.44.28a8.317,8.317,0,0,0-.05,1.089v.387a1.822,1.822,0,0,1-.4,1.3,1.375,1.375,0,0,1-1,.408,1.257,1.257,0,0,1-1.376-1.554V31.431c0-.589-.043-.621-.479-.653v-.153Z" fill="#fff"/><path d="M371.367,32.431h.209a.768.768,0,0,0,.508-.142.849.849,0,0,0,.294-.7.7.7,0,0,0-.738-.763c-.262,0-.273.021-.273.2Zm.408-1.806a1.606,1.606,0,0,1,.9.185.792.792,0,0,1,.358.692.985.985,0,0,1-.724.94c.089.153.3.532.476.777a6,6,0,0,0,.451.6.747.747,0,0,0,.376.252l-.022.142-.23-.01a1.078,1.078,0,0,1-.99-.5c-.174-.249-.352-.6-.511-.88-.089-.153-.153-.206-.316-.206h-.174v.727c0,.589.043.632.458.664v.152h-1.533v-.152c.433-.032.475-.075.475-.664v-1.9c0-.589-.042-.631-.454-.663v-.153Z" fill="#fff"/><path d="M377.076,30.625l1.2,2.594,1.136-2.594h1.029v.153c-.44.042-.461.064-.451.663l.053,1.9c.018.611.032.621.472.664v.152H379v-.152c.423-.043.44-.053.437-.664l-.025-2.086h-.021L378.159,34.1H378l-1.189-2.733h-.025l-.036,1.409a7.641,7.641,0,0,0,.015.954c.021.206.138.249.5.281v.152h-1.288v-.152c.27-.022.38-.075.419-.281.025-.163.067-.486.1-1.007l.06-1.121c.039-.724,0-.778-.468-.82v-.153Z" fill="#fff"/><path d="M382.885,30.625v.153c-.4.032-.447.064-.447.653v1.146c0,.866.284,1.348.926,1.348.657,0,.983-.5.983-1.451v-.327a8.863,8.863,0,0,0-.046-1.089c-.028-.2-.181-.259-.529-.28v-.153H385.1v.153c-.273.01-.415.085-.44.28a8.022,8.022,0,0,0-.049,1.089v.387a1.836,1.836,0,0,1-.4,1.3,1.373,1.373,0,0,1-1.007.408,1.257,1.257,0,0,1-1.374-1.554V31.431c0-.589-.046-.621-.479-.653v-.153Z" fill="#fff"/><path d="M387.849,31.455c-.095-.315-.266-.695-.723-.695a.535.535,0,0,0-.554.571c0,.3.216.508.635.7l.142.067a1.137,1.137,0,0,1,.816,1.043,1.125,1.125,0,0,1-1.238,1.1,1.726,1.726,0,0,1-.547-.092c-.149-.05-.248-.092-.312-.114a8.171,8.171,0,0,1-.163-.844l.163-.054c.106.284.4.888.962.888a.574.574,0,0,0,.571-.618c0-.3-.149-.522-.578-.731l-.174-.089c-.359-.184-.816-.472-.816-1a1.053,1.053,0,0,1,1.16-1.039,1.621,1.621,0,0,1,.493.074c.089.036.163.046.231.071.021.192.053.429.106.734Z" fill="#fff"/><path d="M390.624,30.625v.153c-.415.032-.457.074-.457.663v1.9c0,.589.042.632.457.664v.152h-1.533v-.152c.423-.032.465-.075.465-.664v-1.9c0-.589-.042-.631-.465-.663v-.153Z" fill="#fff"/><path d="M391.579,34.159v-.152c.4-.032.447-.075.447-.664v-1.9c0-.589-.043-.631-.479-.663v-.153h1.522v.153c-.412.032-.454.074-.454.663v.912a17.592,17.592,0,0,0,1.21-1.309c.131-.163.117-.224-.025-.238l-.22-.028v-.153h1.363v.153a1.127,1.127,0,0,0-.813.387,12.178,12.178,0,0,0-.969.943c.419.529.9,1.1,1.246,1.5.269.308.372.369.61.4v.152h-.969c-.2-.283-1.011-1.259-1.422-1.777h-.011v.961c0,.589.042.632.486.664v.152Z" fill="#fff"/><path d="M398.97,30.625v.153c-.4.032-.447.064-.447.653v1.146c0,.866.284,1.348.926,1.348s.983-.5.983-1.451v-.327a8.863,8.863,0,0,0-.046-1.089c-.028-.2-.181-.259-.529-.28v-.153h1.327v.153c-.273.01-.415.085-.44.28a8.6,8.6,0,0,0-.049,1.089v.387a1.836,1.836,0,0,1-.4,1.3,1.373,1.373,0,0,1-1,.408,1.5,1.5,0,0,1-.969-.287,1.521,1.521,0,0,1-.408-1.267V31.431c0-.589-.046-.621-.479-.653v-.153Z" fill="#fff"/><path d="M402.767,30.625l2.168,2.555h.014V32.147a8.6,8.6,0,0,0-.049-1.089c-.029-.2-.181-.259-.529-.28v-.153H405.7v.153c-.273.01-.415.085-.44.28a7.777,7.777,0,0,0-.05,1.089v2.059h-.252l-2.239-2.743h-.011v1.174a8.514,8.514,0,0,0,.05,1.089c.029.2.178.259.525.281v.152h-1.327v-.152c.274-.011.415-.085.44-.281a7.777,7.777,0,0,0,.05-1.089V31.573c0-.632-.117-.763-.564-.8v-.153Z" fill="#fff"/><path d="M407.611,33.333c0,.5.056.6.475.6.9,0,1.37-.635,1.37-1.54,0-1.164-.589-1.565-1.459-1.565a.776.776,0,0,0-.351.05c-.035.028-.035.124-.035.266Zm.56-2.708a2.155,2.155,0,0,1,1.522.479,1.6,1.6,0,0,1,.458,1.129c0,1.341-1.033,1.926-2.306,1.926H406.51v-.152c.448-.032.494-.075.494-.664v-1.9c0-.589-.046-.631-.447-.663v-.153Z" fill="#fff"/><path d="M363.433,40.256c0,.5.057.6.475.6.9,0,1.37-.635,1.37-1.54,0-1.164-.589-1.565-1.458-1.565a.808.808,0,0,0-.355.05c-.032.024-.032.124-.032.266Zm.56-2.711a2.153,2.153,0,0,1,1.523.479,1.608,1.608,0,0,1,.458,1.132c0,1.337-1.033,1.926-2.307,1.926h-1.331V40.93c.444-.032.49-.078.49-.664V38.361c0-.586-.046-.632-.447-.664v-.152Z" fill="#fff"/><path d="M367.68,39.581h.866l-.426-1.2h-.014Zm.731-2.1.373,1.011c.245.664.486,1.338.692,1.881.184.486.262.525.575.557v.152h-1.43V40.93l.152-.021c.209-.036.22-.089.153-.3-.053-.163-.185-.5-.3-.784H367.62c-.071.163-.167.468-.245.7-.1.291-.053.359.188.387l.149.018v.152h-1.206V40.93c.337-.046.4-.068.589-.557l1.1-2.828Z" fill="#fff"/><path d="M371.853,39.351h.206a.766.766,0,0,0,.511-.142.859.859,0,0,0,.3-.7.7.7,0,0,0-.742-.759c-.259,0-.27.021-.27.2Zm.408-1.806a1.657,1.657,0,0,1,.9.184.806.806,0,0,1,.358.692.986.986,0,0,1-.723.94,8.984,8.984,0,0,0,.472.777,5.612,5.612,0,0,0,.45.607.764.764,0,0,0,.376.249l-.021.142-.227-.011a1.064,1.064,0,0,1-.99-.5c-.174-.252-.355-.6-.511-.88-.089-.153-.153-.206-.316-.206h-.174v.727c0,.586.043.632.454.664v.152h-1.532V40.93c.436-.032.478-.078.478-.664V38.361c0-.586-.042-.632-.457-.664v-.152Z" fill="#fff"/><path d="M376.746,38.378c-.1-.315-.266-.7-.723-.7a.533.533,0,0,0-.554.571c0,.3.216.5.635.7l.142.064a1.145,1.145,0,0,1,.816,1.043,1.129,1.129,0,0,1-1.242,1.107,1.8,1.8,0,0,1-.543-.092c-.152-.05-.248-.093-.315-.118-.043-.138-.107-.51-.164-.84l.164-.057c.11.284.4.887.961.887a.571.571,0,0,0,.571-.614c0-.3-.145-.522-.574-.734l-.174-.086c-.359-.184-.816-.475-.816-1.007a1.052,1.052,0,0,1,1.156-1.04,1.635,1.635,0,0,1,.5.078c.085.032.163.043.227.071.022.192.057.429.11.734Z" fill="#fff"/><path d="M377.921,38.407c.021-.362.053-.721.064-1h.1c.075.128.132.139.284.139h2.239c.142,0,.174-.032.259-.139h.089c.01.227.032.639.064.987l-.164.014a.958.958,0,0,0-.2-.508c-.093-.1-.266-.134-.6-.134h-.284v2.5c0,.586.042.632.543.664v.152h-1.675V40.93c.479-.032.521-.078.521-.664v-2.5h-.184c-.469,0-.607.063-.7.163a1.2,1.2,0,0,0-.195.479Z" fill="#fff"/><path d="M384.336,37.545c.011.088.036.489.068.826l-.163.011a1.012,1.012,0,0,0-.2-.493c-.092-.092-.266-.124-.6-.124h-.273c-.206,0-.216,0-.216.2v1.153h.468c.465,0,.479-.032.532-.451h.174v1.154h-.174c-.053-.433-.067-.455-.532-.455h-.468v.9c0,.312.021.464.12.535a1.064,1.064,0,0,0,.522.071.865.865,0,0,0,.635-.156,1.738,1.738,0,0,0,.277-.55l.163.032c-.021.185-.142.742-.185.894h-2.654V40.93c.469-.032.511-.078.511-.664V38.361c0-.586-.042-.632-.458-.664v-.152Z" fill="#fff"/><path d="M387.012,37.545V37.7c-.433.032-.479.078-.479.664v1.9c0,.312.035.464.128.532a.888.888,0,0,0,.447.074.868.868,0,0,0,.624-.156,1.642,1.642,0,0,0,.266-.55l.174.032c-.032.174-.152.731-.2.894h-2.551V40.93c.458-.032.5-.078.5-.664V38.361c0-.586-.042-.632-.479-.664v-.152Z" fill="#fff"/><path d="M390.482,37.545V37.7c-.433.032-.479.078-.479.664v1.9c0,.312.032.464.124.532a.91.91,0,0,0,.448.074.857.857,0,0,0,.624-.156,1.672,1.672,0,0,0,.27-.55l.174.032c-.036.174-.156.731-.2.894h-2.551V40.93c.457-.032.5-.078.5-.664V38.361c0-.586-.043-.632-.476-.664v-.152Z" fill="#fff"/><path d="M394.865,37.545c.01.088.031.489.067.826l-.163.011a1.023,1.023,0,0,0-.2-.493c-.093-.092-.267-.124-.6-.124h-.273c-.206,0-.216,0-.216.2v1.153h.468c.465,0,.475-.032.532-.451h.174v1.154h-.174c-.057-.433-.067-.455-.532-.455h-.468v.9c0,.312.021.464.12.535a1.064,1.064,0,0,0,.522.071.864.864,0,0,0,.635-.156,1.718,1.718,0,0,0,.277-.55l.163.032c-.021.185-.142.742-.184.894h-2.655V40.93c.469-.032.511-.078.511-.664V38.361c0-.586-.042-.632-.457-.664v-.152Z" fill="#fff"/><path d="M396.774,37.545l2.171,2.558h.011V39.07a8.317,8.317,0,0,0-.05-1.089c-.028-.2-.181-.263-.529-.284v-.152h1.328V37.7c-.27.011-.412.089-.44.284a8.317,8.317,0,0,0-.05,1.089v2.055h-.249l-2.242-2.743h-.011V39.56a8.5,8.5,0,0,0,.05,1.086c.028.2.181.263.529.284v.152h-1.327V40.93c.269-.011.411-.089.44-.284a8.588,8.588,0,0,0,.049-1.086V38.492c0-.632-.12-.763-.568-.795v-.152Z" fill="#fff"/><path d="M401.621,40.256c0,.5.053.6.472.6.9,0,1.369-.635,1.369-1.54,0-1.164-.585-1.565-1.458-1.565a.789.789,0,0,0-.351.05c-.032.024-.032.124-.032.266Zm.56-2.711a2.164,2.164,0,0,1,1.523.479,1.623,1.623,0,0,1,.454,1.132c0,1.337-1.033,1.926-2.307,1.926h-1.33V40.93c.447-.032.489-.078.489-.664V38.361c0-.586-.042-.632-.447-.664v-.152Z" fill="#fff"/><path d="M407.586,37.545c.01.088.032.489.063.826l-.163.011a.979.979,0,0,0-.2-.493c-.095-.092-.269-.124-.606-.124h-.27c-.206,0-.22,0-.22.2v1.153h.468c.469,0,.48-.032.533-.451h.177v1.154h-.177c-.053-.433-.064-.455-.533-.455h-.468v.9c0,.312.025.464.121.535a1.075,1.075,0,0,0,.521.071.873.873,0,0,0,.639-.156,1.738,1.738,0,0,0,.277-.55l.163.032c-.021.185-.142.742-.184.894h-2.655V40.93c.469-.032.511-.078.511-.664V38.361c0-.586-.042-.632-.457-.664v-.152Z" fill="#fff"/><path d="M410.467,41.082V40.93c.4-.032.447-.078.447-.664V38.361c0-.586-.046-.632-.479-.664v-.152h1.522V37.7c-.415.032-.457.078-.457.664v.915c.273-.245,1.021-1.068,1.213-1.313.131-.159.114-.22-.028-.237l-.217-.029v-.152h1.359V37.7a1.13,1.13,0,0,0-.809.387,12.475,12.475,0,0,0-.969.947c.419.529.905,1.1,1.246,1.494.266.312.369.373.61.405v.152h-.968c-.206-.284-1.012-1.263-1.427-1.781h-.01v.965c0,.586.042.632.489.664v.152Z" fill="#fff"/><path d="M416.116,37.545V37.7c-.4.032-.447.068-.447.653V39.5c0,.862.284,1.348.926,1.348.66,0,.986-.5.986-1.451V39.07a8.6,8.6,0,0,0-.049-1.089c-.029-.2-.181-.263-.529-.284v-.152h1.327V37.7c-.273.011-.415.089-.44.284a8.514,8.514,0,0,0-.05,1.089v.384a1.831,1.831,0,0,1-.4,1.3,1.389,1.389,0,0,1-1,.408,1.263,1.263,0,0,1-1.377-1.558V38.35c0-.585-.042-.621-.479-.653v-.152Z" fill="#fff"/><path d="M419.913,37.545l2.171,2.558h.008V39.07a8.564,8.564,0,0,0-.047-1.089c-.028-.2-.181-.263-.528-.284v-.152h1.327V37.7c-.274.011-.412.089-.44.284a8.317,8.317,0,0,0-.05,1.089v2.055h-.248l-2.243-2.743h-.011V39.56a8.5,8.5,0,0,0,.05,1.086c.028.2.177.263.529.284v.152H419.1V40.93c.273-.011.415-.089.444-.284a8.588,8.588,0,0,0,.049-1.086V38.492c0-.632-.12-.763-.567-.795v-.152Z" fill="#fff"/><path d="M425.64,38.378c-.1-.315-.266-.7-.724-.7a.536.536,0,0,0-.557.571c0,.3.22.5.639.7l.142.064a1.141,1.141,0,0,1,.812,1.043,1.126,1.126,0,0,1-1.238,1.107,1.8,1.8,0,0,1-.543-.092c-.153-.05-.252-.093-.316-.118-.043-.138-.11-.51-.163-.84l.163-.057c.107.284.4.887.962.887a.571.571,0,0,0,.571-.614c0-.3-.146-.522-.575-.734l-.174-.086a1.212,1.212,0,0,1-.816-1.007,1.052,1.052,0,0,1,1.157-1.04,1.659,1.659,0,0,1,.5.078c.085.032.163.043.227.071.021.192.053.429.11.734Z" fill="#fff"/><path d="M426.814,38.407c.022-.362.054-.721.064-1h.1c.074.128.127.139.28.139H429.5c.138,0,.173-.032.259-.139h.088c.011.227.032.639.064.987l-.163.014a.948.948,0,0,0-.2-.508c-.092-.1-.269-.134-.607-.134h-.28v2.5c0,.586.043.632.543.664v.152h-1.675V40.93c.479-.032.522-.078.522-.664v-2.5h-.185c-.468,0-.61.063-.695.163a1.13,1.13,0,0,0-.195.479Z" fill="#fff"/><path d="M364.316,45.3c-.1-.312-.269-.7-.724-.7a.537.537,0,0,0-.557.572c0,.3.22.507.639.7l.138.067a1.1,1.1,0,0,1-.422,2.147,1.687,1.687,0,0,1-.543-.092c-.152-.05-.252-.092-.315-.113-.043-.142-.11-.512-.164-.845l.164-.053c.106.284.4.887.961.887a.572.572,0,0,0,.571-.618c0-.3-.145-.521-.574-.731l-.174-.088c-.362-.185-.82-.472-.82-1a1.055,1.055,0,0,1,1.16-1.04,1.642,1.642,0,0,1,.5.074c.085.036.163.046.227.071.022.192.053.43.11.735Z" fill="#fff"/><path d="M365.487,45.326c.025-.358.057-.717.068-1h.1c.078.131.131.141.283.141h2.243c.139,0,.174-.031.259-.141h.089c.01.227.032.642.064.989l-.164.011a.952.952,0,0,0-.2-.507c-.092-.1-.266-.135-.6-.135h-.28v2.5c0,.589.042.631.543.663V48h-1.675v-.153c.479-.032.521-.074.521-.663v-2.5h-.184c-.469,0-.611.067-.7.163a1.234,1.234,0,0,0-.2.479Z" fill="#fff"/><path d="M370.916,44.467v.153c-.4.032-.447.064-.447.653v1.146c0,.866.284,1.348.927,1.348s.982-.5.982-1.451V45.99a8.586,8.586,0,0,0-.046-1.086c-.028-.2-.181-.263-.528-.284v-.153h1.327v.153c-.274.011-.416.085-.44.284a7.72,7.72,0,0,0-.05,1.086v.386a1.834,1.834,0,0,1-.4,1.3,1.377,1.377,0,0,1-1.008.408,1.257,1.257,0,0,1-1.373-1.554V45.273c0-.589-.047-.621-.48-.653v-.153Z" fill="#fff"/><path d="M373.858,45.326c.021-.358.053-.717.064-1h.1c.078.131.131.141.284.141h2.239c.142,0,.174-.031.263-.141h.085c.011.227.032.642.067.989l-.163.011a.96.96,0,0,0-.2-.507c-.092-.1-.266-.135-.6-.135h-.284v2.5c0,.589.042.631.543.663V48h-1.675v-.153c.479-.032.525-.074.525-.663v-2.5h-.188c-.465,0-.607.067-.7.163a1.244,1.244,0,0,0-.195.479Z" fill="#fff"/><path d="M377.829,45.326c.021-.358.053-.717.064-1h.1c.074.131.128.141.28.141h2.243c.138,0,.174-.031.259-.141h.089c.01.227.032.642.064.989l-.164.011a.981.981,0,0,0-.2-.507c-.1-.1-.269-.135-.606-.135h-.281v2.5c0,.589.043.631.543.663V48h-1.675v-.153c.48-.032.522-.074.522-.663v-2.5h-.184c-.469,0-.611.067-.7.163a1.2,1.2,0,0,0-.195.479Z" fill="#fff"/><path d="M384.823,47.37a2.076,2.076,0,0,0,.032.486,4.507,4.507,0,0,1-1.186.227,1.818,1.818,0,0,1-2.022-1.809,1.894,1.894,0,0,1,2.054-1.888,4.35,4.35,0,0,1,1.044.142c.01.184.046.468.088.88l-.174.021a.945.945,0,0,0-1.043-.827c-.752,0-1.263.572-1.263,1.562,0,.837.358,1.7,1.348,1.7a.848.848,0,0,0,.366-.061c.1-.042.145-.134.145-.354V47c0-.372-.021-.4-.6-.447v-.163h1.512v.163c-.284.043-.305.064-.305.447Z" fill="#fff"/><path d="M386.952,46.5h.865l-.422-1.2h-.018Zm.731-2.1.376,1.015c.241.664.482,1.338.688,1.881.185.482.263.521.579.553V48H387.9v-.153l.152-.021c.206-.032.217-.085.153-.3-.057-.163-.188-.5-.3-.78h-1c-.071.163-.17.468-.245.7-.1.288-.057.358.185.387l.152.014V48h-1.21v-.153c.337-.043.4-.064.589-.553l1.1-2.829Z" fill="#fff"/><path d="M391.124,46.274h.206a.765.765,0,0,0,.511-.142.852.852,0,0,0,.3-.7.7.7,0,0,0-.742-.763c-.259,0-.27.022-.27.2Zm.409-1.807a1.6,1.6,0,0,1,.9.185.792.792,0,0,1,.359.692.99.99,0,0,1-.724.94c.089.153.3.533.475.777a6.048,6.048,0,0,0,.451.6.746.746,0,0,0,.373.252l-.022.138-.227-.011a1.072,1.072,0,0,1-.99-.5c-.174-.251-.355-.6-.511-.883-.089-.153-.152-.206-.316-.206h-.174v.728c0,.589.043.631.458.663V48h-1.533v-.153c.433-.032.476-.074.476-.663v-1.9c0-.589-.043-.632-.458-.664v-.153Z" fill="#fff"/><path d="M393.782,45.326c.025-.358.057-.717.068-1h.1c.075.131.128.141.28.141h2.243c.138,0,.174-.031.259-.141h.089c.01.227.032.642.064.989l-.164.011a.952.952,0,0,0-.2-.507c-.089-.1-.266-.135-.6-.135h-.28v2.5c0,.589.042.631.543.663V48H394.5v-.153c.479-.032.521-.074.521-.663v-2.5h-.184c-.469,0-.611.067-.7.163a1.2,1.2,0,0,0-.195.479Z" fill="#fff"/></svg>