<svg id="Ebene_1" data-name="Ebene 1" xmlns="http://www.w3.org/2000/svg" viewBox="0 0 142.362 47.682"><path d="M15.8,29.446h1.3v7.167H15.8V33.438H12.691v3.175h-1.3V29.446h1.3V32.31H15.8Z" fill="#1e1e1c"/><path d="M21.179,28.014A3.63,3.63,0,0,1,22,28.1a4.819,4.819,0,0,1,.533.15l-.255,1.108a2.122,2.122,0,0,0-.438-.145,2.542,2.542,0,0,0-.538-.054,1.39,1.39,0,0,0-.543.094.884.884,0,0,0-.354.26,1.006,1.006,0,0,0-.189.4,2.274,2.274,0,0,0-.054.515v.388h2.105v1.119H20.16v4.676H18.819v-6.2a2.493,2.493,0,0,1,.587-1.757A2.294,2.294,0,0,1,21.179,28.014Z" fill="#1e1e1c"/><path d="M24.823,29.446q.228.393.507.962T25.9,31.6q.288.625.574,1.273c.19.43.363.829.522,1.194.159-.365.331-.764.517-1.194s.376-.856.569-1.273.382-.815.569-1.194.354-.7.507-.962h1.174q.095.786.178,1.67t.154,1.81q.066.925.126,1.862t.1,1.825H29.606c-.027-.834-.062-1.693-.1-2.575s-.1-1.738-.174-2.565q-.114.237-.269.569t-.33.718c-.118.259-.236.527-.358.8s-.237.543-.351.8-.219.5-.316.723-.179.415-.248.575h-.972c-.069-.16-.152-.352-.248-.579s-.2-.471-.316-.73l-.351-.8c-.12-.275-.24-.541-.357-.8s-.227-.5-.331-.718-.193-.412-.268-.564q-.117,1.24-.175,2.565t-.1,2.575H23.06q.042-.889.1-1.841t.127-1.888q.066-.936.152-1.814t.179-1.624Z" fill="#1e1e1c"/><path d="M40.68,28.934v1.208H38.32v6.471H36.913V30.142h-2.36V28.934Z" fill="#1e1e1c"/><path d="M44.581,32.025a4.6,4.6,0,0,0-.459-.116,3.432,3.432,0,0,0-.682-.061,2.745,2.745,0,0,0-.471.044,2.886,2.886,0,0,0-.348.078v4.643H41.28V31.094a7.5,7.5,0,0,1,.969-.271A6.043,6.043,0,0,1,43.54,30.7c.088,0,.192.006.31.016s.236.026.355.044.233.041.343.067.2.05.266.072Z" fill="#1e1e1c"/><path d="M50.987,33.709a3.732,3.732,0,0,1-.2,1.252,2.787,2.787,0,0,1-.565.965,2.536,2.536,0,0,1-.881.62,2.837,2.837,0,0,1-1.135.222,2.8,2.8,0,0,1-1.131-.222,2.541,2.541,0,0,1-.875-.62,2.83,2.83,0,0,1-.571-.965,3.634,3.634,0,0,1-.2-1.252,3.591,3.591,0,0,1,.2-1.246,2.774,2.774,0,0,1,.577-.959,2.572,2.572,0,0,1,.88-.615,2.86,2.86,0,0,1,1.12-.216,2.894,2.894,0,0,1,1.124.216,2.5,2.5,0,0,1,.88.615,2.843,2.843,0,0,1,.572.959A3.614,3.614,0,0,1,50.987,33.709Zm-1.374,0a2.263,2.263,0,0,0-.371-1.368,1.318,1.318,0,0,0-2.073,0,2.257,2.257,0,0,0-.371,1.368,2.3,2.3,0,0,0,.371,1.385,1.308,1.308,0,0,0,2.073,0A2.308,2.308,0,0,0,49.613,33.709Z" fill="#1e1e1c"/><path d="M53.823,35.649a1.759,1.759,0,0,0,.775-.128.451.451,0,0,0,.244-.437.569.569,0,0,0-.261-.477,3.812,3.812,0,0,0-.858-.41,6.661,6.661,0,0,1-.67-.282,2.259,2.259,0,0,1-.526-.349,1.432,1.432,0,0,1-.35-.482,1.682,1.682,0,0,1-.127-.693,1.513,1.513,0,0,1,.587-1.258,2.528,2.528,0,0,1,1.6-.46,4.869,4.869,0,0,1,.974.1,4.677,4.677,0,0,1,.7.183l-.243,1.086a3.253,3.253,0,0,0-.566-.183,3.382,3.382,0,0,0-.8-.084,1.394,1.394,0,0,0-.665.139.455.455,0,0,0-.255.426.614.614,0,0,0,.05.255.536.536,0,0,0,.172.2,1.778,1.778,0,0,0,.321.189q.2.093.488.194a7.409,7.409,0,0,1,.809.349,2.168,2.168,0,0,1,.548.388,1.306,1.306,0,0,1,.316.493,1.952,1.952,0,0,1,.1.665,1.435,1.435,0,0,1-.615,1.258,3.063,3.063,0,0,1-1.756.426,4.813,4.813,0,0,1-1.231-.128,6.341,6.341,0,0,1-.653-.2l.233-1.119a6.069,6.069,0,0,0,.714.233A3.688,3.688,0,0,0,53.823,35.649Z" fill="#1e1e1c"/><path d="M58.886,35.649a1.764,1.764,0,0,0,.776-.128.451.451,0,0,0,.244-.437.569.569,0,0,0-.261-.477,3.856,3.856,0,0,0-.858-.41,6.564,6.564,0,0,1-.67-.282,2.287,2.287,0,0,1-.527-.349,1.443,1.443,0,0,1-.349-.482,1.682,1.682,0,0,1-.127-.693,1.51,1.51,0,0,1,.587-1.258,2.523,2.523,0,0,1,1.595-.46,4.886,4.886,0,0,1,.975.1,4.658,4.658,0,0,1,.7.183l-.243,1.086a3.239,3.239,0,0,0-.565-.183,3.393,3.393,0,0,0-.8-.084,1.392,1.392,0,0,0-.665.139.455.455,0,0,0-.255.426.6.6,0,0,0,.05.255.527.527,0,0,0,.172.2,1.744,1.744,0,0,0,.321.189c.133.062.3.127.487.194a7.519,7.519,0,0,1,.81.349,2.186,2.186,0,0,1,.548.388,1.318,1.318,0,0,1,.316.493,1.977,1.977,0,0,1,.1.665,1.435,1.435,0,0,1-.616,1.258,3.063,3.063,0,0,1-1.756.426,4.81,4.81,0,0,1-1.23-.128,6.259,6.259,0,0,1-.653-.2l.232-1.119a6.09,6.09,0,0,0,.715.233A3.68,3.68,0,0,0,58.886,35.649Z" fill="#1e1e1c"/><path d="M64,29.123a.764.764,0,0,1-.245.6.823.823,0,0,1-.576.222.84.84,0,0,1-.588-.222.766.766,0,0,1-.243-.6.784.784,0,0,1,.243-.61.843.843,0,0,1,.588-.221.826.826,0,0,1,.576.221A.782.782,0,0,1,64,29.123Zm-.145,7.49H62.509V30.818H63.85Z" fill="#1e1e1c"/><path d="M65.557,31.006a9.054,9.054,0,0,1,1.008-.211,8.763,8.763,0,0,1,1.374-.1,3.16,3.16,0,0,1,1.185.193,1.855,1.855,0,0,1,.76.543,2.081,2.081,0,0,1,.4.843,4.669,4.669,0,0,1,.116,1.08v3.258H69.058V33.566a4.479,4.479,0,0,0-.06-.793,1.424,1.424,0,0,0-.2-.531.8.8,0,0,0-.377-.3,1.581,1.581,0,0,0-.582-.094,4.505,4.505,0,0,0-.532.033c-.184.023-.321.041-.409.056v4.676H65.557Z" fill="#1e1e1c"/><path d="M76.826,36.026a2.624,2.624,0,0,1-.7,2.027,3.111,3.111,0,0,1-2.156.643,6.093,6.093,0,0,1-1.95-.321l.244-1.142a4.07,4.07,0,0,0,.781.233,4.781,4.781,0,0,0,.948.088,1.625,1.625,0,0,0,1.152-.332,1.312,1.312,0,0,0,.344-.986v-.222a3.52,3.52,0,0,1-.527.2,2.546,2.546,0,0,1-.748.1,2.8,2.8,0,0,1-1.014-.178,2.12,2.12,0,0,1-.786-.52,2.391,2.391,0,0,1-.51-.86,3.542,3.542,0,0,1-.183-1.19,3.376,3.376,0,0,1,.194-1.164,2.46,2.46,0,0,1,.565-.908,2.584,2.584,0,0,1,.9-.588,3.267,3.267,0,0,1,1.207-.21,7.468,7.468,0,0,1,1.242.1q.587.1,1,.211Zm-3.734-2.46a1.768,1.768,0,0,0,.371,1.246,1.255,1.255,0,0,0,.958.394,2.016,2.016,0,0,0,.6-.089,1.749,1.749,0,0,0,.46-.21v-3c-.1-.023-.215-.043-.356-.062a4.282,4.282,0,0,0-.531-.027,1.353,1.353,0,0,0-1.119.481A1.968,1.968,0,0,0,73.092,33.566Z" fill="#1e1e1c"/><path d="M78.211,33.743a3.654,3.654,0,0,1,.227-1.341,2.8,2.8,0,0,1,.6-.958,2.486,2.486,0,0,1,.865-.576,2.657,2.657,0,0,1,1-.2,2.387,2.387,0,0,1,1.867.743,3.218,3.218,0,0,1,.67,2.216c0,.074,0,.158,0,.249s-.01.176-.017.249H79.6a1.526,1.526,0,0,0,.493,1.081,1.874,1.874,0,0,0,1.269.382,4.116,4.116,0,0,0,.892-.089,3.525,3.525,0,0,0,.637-.188l.178,1.1a2.185,2.185,0,0,1-.306.116,4.131,4.131,0,0,1-.442.11c-.167.033-.346.062-.538.083a4.948,4.948,0,0,1-.587.034,3.564,3.564,0,0,1-1.33-.227,2.487,2.487,0,0,1-.931-.632,2.6,2.6,0,0,1-.543-.953A3.892,3.892,0,0,1,78.211,33.743Zm3.889-.6a1.741,1.741,0,0,0-.077-.525,1.269,1.269,0,0,0-.228-.433,1.062,1.062,0,0,0-.365-.288,1.168,1.168,0,0,0-.515-.105,1.2,1.2,0,0,0-.543.116,1.242,1.242,0,0,0-.394.3,1.449,1.449,0,0,0-.249.433,2.337,2.337,0,0,0-.122.5Z" fill="#1e1e1c"/><path d="M84.86,31.006a9.054,9.054,0,0,1,1.008-.211,8.763,8.763,0,0,1,1.374-.1,3.164,3.164,0,0,1,1.185.193,1.861,1.861,0,0,1,.76.543,2.093,2.093,0,0,1,.4.843,4.614,4.614,0,0,1,.117,1.08v3.258H88.361V33.566a4.47,4.47,0,0,0-.061-.793,1.407,1.407,0,0,0-.2-.531.8.8,0,0,0-.377-.3,1.581,1.581,0,0,0-.582-.094,4.492,4.492,0,0,0-.532.033c-.185.023-.321.041-.409.056v4.676H84.86Z" fill="#1e1e1c"/><path d="M129.72,18.338c0,.67-.739,1.216-1.649,1.216s-1.649-.546-1.649-1.216.738-1.214,1.649-1.214S129.72,17.667,129.72,18.338Z" fill="#1e1e1c"/><path d="M135.265,17.124c0,.67-.737,1.214-1.65,1.214s-1.649-.544-1.649-1.214.738-1.216,1.649-1.216S135.265,16.453,135.265,17.124Z" fill="#1e1e1c"/><rect x="128.901" y="12.35" width="0.842" height="5.988" fill="#1e1e1c"/><rect x="134.433" y="11.136" width="0.842" height="5.988" fill="#1e1e1c"/><rect x="129.322" y="11.482" width="5.532" height="1.789" fill="#1e1e1c"/><path d="M135.275,13.692H128.9V11.061h6.374Zm-5.533-.841h4.691V11.9h-4.691Z" fill="#1e1e1c"/><path d="M16.37,17.027A4.093,4.093,0,0,0,16,14.987a1.37,1.37,0,0,0-1.269-.6q-.281,0-.58.03c-.2.02-.394.043-.58.07v8.12H10.59V12.447q.38-.1.89-.21t1.08-.2q.57-.09,1.17-.14t1.18-.05a4.965,4.965,0,0,1,1.85.29,4.191,4.191,0,0,1,1.17.69,5.572,5.572,0,0,1,3-.98A5.237,5.237,0,0,1,23,12.2a3.111,3.111,0,0,1,1.291.99,3.752,3.752,0,0,1,.66,1.52,9.8,9.8,0,0,1,.18,1.96v5.94H22.15v-5.58a4.106,4.106,0,0,0-.37-2.04,1.372,1.372,0,0,0-1.27-.6,2.68,2.68,0,0,0-.67.12,2.614,2.614,0,0,0-.71.3,4.587,4.587,0,0,1,.18.97c.026.34.04.7.04,1.09v5.74H16.37Z" fill="#1e1e1c"/><path d="M36.81,22.247a16.423,16.423,0,0,1-1.96.41,16.062,16.062,0,0,1-2.519.19,5.986,5.986,0,0,1-2.231-.36,3.377,3.377,0,0,1-1.41-1.01,3.946,3.946,0,0,1-.74-1.55,8.319,8.319,0,0,1-.22-1.98v-5.86h2.98v5.5a4.253,4.253,0,0,0,.38,2.08,1.511,1.511,0,0,0,1.42.64q.319,0,.68-.03c.24-.02.453-.043.641-.07v-8.12H36.81Z" fill="#1e1e1c"/><path d="M42.63,20.467a2.965,2.965,0,0,0,1.16-.16.617.617,0,0,0,.34-.62.759.759,0,0,0-.439-.63,8.221,8.221,0,0,0-1.341-.61,13.379,13.379,0,0,1-1.269-.54,3.73,3.73,0,0,1-.97-.67,2.682,2.682,0,0,1-.62-.93,3.415,3.415,0,0,1-.221-1.3,2.811,2.811,0,0,1,1.1-2.34,4.785,4.785,0,0,1,3.019-.86,9.7,9.7,0,0,1,1.84.17,8.433,8.433,0,0,1,1.4.37l-.519,2.32a10.951,10.951,0,0,0-1.131-.32,6.093,6.093,0,0,0-1.369-.14q-1.4,0-1.4.78a.808.808,0,0,0,.06.32.681.681,0,0,0,.24.27,3.381,3.381,0,0,0,.49.281c.206.1.47.212.79.333a12.06,12.06,0,0,1,1.621.716,3.883,3.883,0,0,1,1.009.761,2.367,2.367,0,0,1,.521.909,4.062,4.062,0,0,1,.149,1.157,2.663,2.663,0,0,1-1.17,2.354,5.825,5.825,0,0,1-3.309.8,9.509,9.509,0,0,1-2.33-.24,9.351,9.351,0,0,1-1.29-.4l.5-2.42a9.719,9.719,0,0,0,1.559.47A7.546,7.546,0,0,0,42.63,20.467Z" fill="#1e1e1c"/><path d="M52.57,9.047a1.636,1.636,0,0,1-.53,1.29,1.9,1.9,0,0,1-2.5,0,1.633,1.633,0,0,1-.531-1.29,1.636,1.636,0,0,1,.531-1.29,1.9,1.9,0,0,1,2.5,0A1.639,1.639,0,0,1,52.57,9.047Zm-.28,13.56H49.31V12.087h2.98Z" fill="#1e1e1c"/><path d="M54.589,17.347a6.219,6.219,0,0,1,.369-2.15,5.037,5.037,0,0,1,2.771-2.95,5.617,5.617,0,0,1,2.28-.44,7.361,7.361,0,0,1,1.54.15,7.566,7.566,0,0,1,1.36.43l-.62,2.38a7.647,7.647,0,0,0-.92-.28,4.811,4.811,0,0,0-1.121-.12,2.359,2.359,0,0,0-1.969.82,3.373,3.373,0,0,0-.65,2.16,3.5,3.5,0,0,0,.61,2.2,2.556,2.556,0,0,0,2.13.78,7.384,7.384,0,0,0,1.16-.1,4.892,4.892,0,0,0,1.14-.32l.42,2.44a7,7,0,0,1-1.3.38,8.548,8.548,0,0,1-1.72.16,6.466,6.466,0,0,1-2.48-.43,4.674,4.674,0,0,1-1.71-1.17,4.572,4.572,0,0,1-.98-1.75A7.417,7.417,0,0,1,54.589,17.347Z" fill="#1e1e1c"/><path d="M68.009,21.307a4.569,4.569,0,0,0,.85-.08,2.585,2.585,0,0,0,.761-.26,1.527,1.527,0,0,0,.539-.49,1.482,1.482,0,0,0,.11-1.3,1.257,1.257,0,0,0-.32-.43,3.173,3.173,0,0,0-.55-.39q-.33-.191-.79-.43-.46-.219-.84-.44a3.062,3.062,0,0,1-.67-.52,2.1,2.1,0,0,1-.45-.71,2.717,2.717,0,0,1-.16-.99,2.994,2.994,0,0,1,1.08-2.41,4.759,4.759,0,0,1,3.14-.91,6.724,6.724,0,0,1,1.69.19,4.639,4.639,0,0,1,1.01.35l-.7,1.52a4.441,4.441,0,0,0-.9-.34,4.939,4.939,0,0,0-1.38-.18,3.7,3.7,0,0,0-.76.08,2.166,2.166,0,0,0-.69.27,1.485,1.485,0,0,0-.5.5,1.4,1.4,0,0,0-.189.75,1.107,1.107,0,0,0,.419.89,5.671,5.671,0,0,0,1.26.73,9.353,9.353,0,0,1,.93.49,3.31,3.31,0,0,1,.7.56,2.094,2.094,0,0,1,.441.73,3,3,0,0,1,.149,1,3.283,3.283,0,0,1-.319,1.48,2.925,2.925,0,0,1-.891,1.06,4.006,4.006,0,0,1-1.35.63,6.526,6.526,0,0,1-1.7.21,7.662,7.662,0,0,1-1.23-.09,8.1,8.1,0,0,1-.96-.21,4.458,4.458,0,0,1-.68-.25c-.18-.087-.316-.156-.41-.21l.721-1.52c.092.053.222.12.389.2a5.487,5.487,0,0,0,.6.24,5.7,5.7,0,0,0,.77.2A4.646,4.646,0,0,0,68.009,21.307Z" fill="#1e1e1c"/><path d="M77.708,22.867a4.824,4.824,0,0,1-1.76-.29,3.489,3.489,0,0,1-1.24-.8,3.187,3.187,0,0,1-.74-1.19,4.292,4.292,0,0,1-.24-1.44,8.726,8.726,0,0,1,.42-2.7,7.414,7.414,0,0,1,1.2-2.3,5.829,5.829,0,0,1,1.9-1.59,5.37,5.37,0,0,1,2.54-.59,4.222,4.222,0,0,1,1.41.21,2.6,2.6,0,0,1,.96.57,2.288,2.288,0,0,1,.55.83,2.686,2.686,0,0,1,.18.97,3.394,3.394,0,0,1-.34,1.59,3.329,3.329,0,0,1-.9,1.09,4.143,4.143,0,0,1-1.31.68,11.538,11.538,0,0,1-1.56.38,14.882,14.882,0,0,1-1.64.19c-.554.033-1.077.064-1.57.09a2.042,2.042,0,0,0-.02.26v.16a3.318,3.318,0,0,0,.11.87,1.621,1.621,0,0,0,.41.72,2.041,2.041,0,0,0,.83.49,4.418,4.418,0,0,0,1.39.18,4.669,4.669,0,0,0,.79-.07,6.647,6.647,0,0,0,.78-.18q.37-.111.66-.22a1.5,1.5,0,0,0,.41-.21l.16,1.58a6.591,6.591,0,0,1-1.29.47A7.759,7.759,0,0,1,77.708,22.867Zm-1.9-5.72q1.159-.039,2.12-.15a6.8,6.8,0,0,0,1.66-.38,2.639,2.639,0,0,0,1.09-.73,1.791,1.791,0,0,0,.39-1.2,1.167,1.167,0,0,0-.07-.38.97.97,0,0,0-.24-.37,1.273,1.273,0,0,0-.47-.28,2.174,2.174,0,0,0-.74-.11,2.928,2.928,0,0,0-1.31.3,3.954,3.954,0,0,0-1.09.79,4.761,4.761,0,0,0-.82,1.14A6.154,6.154,0,0,0,75.808,17.147Z" fill="#1e1e1c"/><path d="M90.328,22.727c-.067-.146-.133-.31-.2-.49a3.726,3.726,0,0,1-.16-.57,6,6,0,0,1-1.18.8,3.785,3.785,0,0,1-1.82.4,3.7,3.7,0,0,1-1.511-.28,2.708,2.708,0,0,1-1.029-.78,3.247,3.247,0,0,1-.59-1.181,5.548,5.548,0,0,1-.19-1.5,7.848,7.848,0,0,1,.45-2.619,6.6,6.6,0,0,1,3.609-3.9,7.614,7.614,0,0,1,3.181-.62,7.791,7.791,0,0,1,1.26.12,4.008,4.008,0,0,1,1.24.4l-1.54,6.28q-.1.461-.17.88a5.318,5.318,0,0,0-.07.88,5.46,5.46,0,0,0,.08.93,5.59,5.59,0,0,0,.28,1.01Zm-2.98-1.44a2.748,2.748,0,0,0,1.44-.36,4.624,4.624,0,0,0,1.04-.84c.013-.226.037-.463.07-.711s.076-.5.13-.75l1.2-4.959a1.292,1.292,0,0,0-.33-.06c-.153-.013-.29-.02-.41-.02a4.718,4.718,0,0,0-2.06.44,4.92,4.92,0,0,0-1.57,1.17,5.154,5.154,0,0,0-1,1.7,5.915,5.915,0,0,0-.35,2.03,4.663,4.663,0,0,0,.08.85,2.115,2.115,0,0,0,.29.76,1.674,1.674,0,0,0,.56.54A1.749,1.749,0,0,0,87.348,21.287Z" fill="#1e1e1c"/><path d="M99.648,11.987c.159,0,.34.007.539.02a5.48,5.48,0,0,1,.591.07c.192.034.37.067.529.1a1.542,1.542,0,0,1,.36.11l-.54,1.62a4.148,4.148,0,0,0-.92-.24,6.605,6.605,0,0,0-1-.08,5.731,5.731,0,0,0-.83.06,4.275,4.275,0,0,0-.71.16l-2.12,8.8h-1.86l2.4-10a11.515,11.515,0,0,1,1.72-.45A10.05,10.05,0,0,1,99.648,11.987Z" fill="#1e1e1c"/><path d="M101.108,18.887a8.422,8.422,0,0,1,.41-2.62,6.636,6.636,0,0,1,1.21-2.22,5.813,5.813,0,0,1,4.62-2.1,8.5,8.5,0,0,1,1.26.09,3.949,3.949,0,0,1,1.14.35l-.7,1.56a2.863,2.863,0,0,0-.75-.28,5.03,5.03,0,0,0-1.11-.1,3.581,3.581,0,0,0-1.76.43,4.282,4.282,0,0,0-1.33,1.14,5.151,5.151,0,0,0-.84,1.64,6.459,6.459,0,0,0-.29,1.93,4.168,4.168,0,0,0,.11.98,2.023,2.023,0,0,0,.39.81,1.885,1.885,0,0,0,.75.55,3.062,3.062,0,0,0,1.19.2,4.365,4.365,0,0,0,.759-.07,6.772,6.772,0,0,0,.741-.17,6.414,6.414,0,0,0,.61-.21,1.524,1.524,0,0,0,.39-.21l.16,1.58a4.792,4.792,0,0,1-1.18.47,6.572,6.572,0,0,1-1.82.23,4.641,4.641,0,0,1-1.7-.29,3.354,3.354,0,0,1-1.241-.82,3.535,3.535,0,0,1-.759-1.26A4.778,4.778,0,0,1,101.108,18.887Z" fill="#1e1e1c"/><path d="M109.247,22.607l3.66-15.2,1.94-.32-1.28,5.26a7.24,7.24,0,0,1,.97-.26,5.312,5.312,0,0,1,1.03-.1,4.331,4.331,0,0,1,1.55.25,2.762,2.762,0,0,1,1.05.68,2.666,2.666,0,0,1,.59,1.04,4.476,4.476,0,0,1,.19,1.33,8.325,8.325,0,0,1-.28,2l-1.28,5.32h-1.86l1.18-4.92q.139-.56.27-1.14a5.015,5.015,0,0,0,.13-1.1,2.014,2.014,0,0,0-.44-1.33,2.058,2.058,0,0,0-1.64-.53,5.694,5.694,0,0,0-.99.09,3.434,3.434,0,0,0-.85.25l-2.08,8.68Z" fill="#1e1e1c"/></svg>