<svg id="Ebene_1" data-name="Ebene 1" xmlns="http://www.w3.org/2000/svg" viewBox="0 0 142.362 54.252"><path d="M128.669,18.337c0,.67-.74,1.216-1.65,1.216s-1.648-.546-1.648-1.216.738-1.214,1.648-1.214S128.669,17.666,128.669,18.337Z" fill="#1e1e1c"/><path d="M134.213,17.123c0,.67-.737,1.214-1.65,1.214s-1.648-.544-1.648-1.214.738-1.216,1.648-1.216S134.213,16.452,134.213,17.123Z" fill="#1e1e1c"/><rect x="127.849" y="12.349" width="0.842" height="5.988" fill="#1e1e1c"/><rect x="133.381" y="11.135" width="0.842" height="5.988" fill="#1e1e1c"/><rect x="128.27" y="11.482" width="5.532" height="1.789" fill="#1e1e1c"/><path d="M134.223,13.692h-6.374V11.061h6.374Zm-5.532-.842h4.69V11.9h-4.69Z" fill="#1e1e1c"/><path d="M15.318,17.026a4.106,4.106,0,0,0-.37-2.04,1.371,1.371,0,0,0-1.27-.6c-.186,0-.38.01-.58.029s-.393.044-.58.071v8.12H9.539V12.446q.38-.1.889-.21t1.08-.2q.57-.09,1.17-.14c.4-.033.793-.05,1.18-.05a4.971,4.971,0,0,1,1.851.29,4.161,4.161,0,0,1,1.169.69,5.572,5.572,0,0,1,3-.98,5.243,5.243,0,0,1,2.07.35,3.114,3.114,0,0,1,1.29.99,3.748,3.748,0,0,1,.66,1.519,9.815,9.815,0,0,1,.181,1.96v5.941H21.1v-5.58a4.106,4.106,0,0,0-.37-2.04,1.372,1.372,0,0,0-1.269-.6,2.672,2.672,0,0,0-.67.12,2.6,2.6,0,0,0-.71.3,4.651,4.651,0,0,1,.179.97q.041.51.04,1.09v5.74h-2.98Z" fill="#1e1e1c"/><path d="M35.758,22.245a16.161,16.161,0,0,1-1.96.411,16.044,16.044,0,0,1-2.519.19,5.986,5.986,0,0,1-2.231-.36,3.392,3.392,0,0,1-1.41-1.01,3.96,3.96,0,0,1-.74-1.55,8.377,8.377,0,0,1-.22-1.98v-5.86h2.981v5.5a4.246,4.246,0,0,0,.38,2.079,1.508,1.508,0,0,0,1.42.641c.212,0,.439-.01.679-.03s.453-.043.641-.071V12.086h2.979Z" fill="#1e1e1c"/><path d="M41.579,20.466a2.988,2.988,0,0,0,1.16-.16.618.618,0,0,0,.34-.62.76.76,0,0,0-.44-.63,8.221,8.221,0,0,0-1.341-.61,13.6,13.6,0,0,1-1.269-.54,3.771,3.771,0,0,1-.97-.67,2.705,2.705,0,0,1-.62-.93,3.434,3.434,0,0,1-.221-1.3,2.814,2.814,0,0,1,1.1-2.341,4.791,4.791,0,0,1,3.019-.859,9.7,9.7,0,0,1,1.84.17,8.476,8.476,0,0,1,1.4.37l-.52,2.319a11.213,11.213,0,0,0-1.131-.319,6.09,6.09,0,0,0-1.369-.141q-1.4,0-1.4.781a.808.808,0,0,0,.059.32.676.676,0,0,0,.241.27,3.477,3.477,0,0,0,.49.281q.309.152.79.333a12.1,12.1,0,0,1,1.62.716,3.873,3.873,0,0,1,1.01.761,2.352,2.352,0,0,1,.52.909,4.025,4.025,0,0,1,.15,1.157,2.665,2.665,0,0,1-1.17,2.354,5.839,5.839,0,0,1-3.31.8,9.515,9.515,0,0,1-2.33-.24,9.176,9.176,0,0,1-1.29-.4l.5-2.419A9.7,9.7,0,0,0,40,20.3,7.539,7.539,0,0,0,41.579,20.466Z" fill="#1e1e1c"/><path d="M51.518,9.046a1.636,1.636,0,0,1-.53,1.29,1.9,1.9,0,0,1-2.5,0,1.632,1.632,0,0,1-.53-1.29,1.634,1.634,0,0,1,.53-1.29,1.9,1.9,0,0,1,2.5,0A1.637,1.637,0,0,1,51.518,9.046Zm-.28,13.56h-2.98V12.086h2.98Z" fill="#1e1e1c"/><path d="M53.538,17.346a6.215,6.215,0,0,1,.369-2.15,5.037,5.037,0,0,1,2.77-2.951,5.635,5.635,0,0,1,2.281-.439,7.438,7.438,0,0,1,1.54.149,7.64,7.64,0,0,1,1.359.431l-.62,2.38a7.592,7.592,0,0,0-.92-.28,4.808,4.808,0,0,0-1.12-.12,2.361,2.361,0,0,0-1.97.82,3.373,3.373,0,0,0-.649,2.16,3.5,3.5,0,0,0,.609,2.2,2.556,2.556,0,0,0,2.13.78,7.384,7.384,0,0,0,1.16-.1,4.914,4.914,0,0,0,1.141-.32l.42,2.44a7.034,7.034,0,0,1-1.3.38,8.622,8.622,0,0,1-1.72.16,6.438,6.438,0,0,1-2.479-.431,4.643,4.643,0,0,1-1.71-1.169,4.561,4.561,0,0,1-.981-1.75A7.417,7.417,0,0,1,53.538,17.346Z" fill="#1e1e1c"/><path d="M66.958,21.306a4.566,4.566,0,0,0,.849-.08,2.585,2.585,0,0,0,.761-.26,1.519,1.519,0,0,0,.539-.49,1.336,1.336,0,0,0,.211-.771,1.31,1.31,0,0,0-.1-.529,1.27,1.27,0,0,0-.32-.431,3.188,3.188,0,0,0-.55-.389q-.33-.191-.79-.43c-.306-.146-.587-.293-.84-.44a3.118,3.118,0,0,1-.67-.52,2.119,2.119,0,0,1-.45-.71,2.739,2.739,0,0,1-.16-.99,2.994,2.994,0,0,1,1.08-2.41,4.756,4.756,0,0,1,3.141-.91,6.722,6.722,0,0,1,1.689.19,4.618,4.618,0,0,1,1.01.35l-.7,1.52a4.531,4.531,0,0,0-.9-.341,4.977,4.977,0,0,0-1.38-.179,3.693,3.693,0,0,0-.759.08,2.148,2.148,0,0,0-.691.27,1.485,1.485,0,0,0-.5.5,1.4,1.4,0,0,0-.189.75,1.1,1.1,0,0,0,.42.89,5.588,5.588,0,0,0,1.26.729,9.54,9.54,0,0,1,.929.491,3.285,3.285,0,0,1,.7.56,2.07,2.07,0,0,1,.441.73,3,3,0,0,1,.149,1,3.273,3.273,0,0,1-.319,1.48,2.933,2.933,0,0,1-.891,1.06,4.01,4.01,0,0,1-1.349.63,6.534,6.534,0,0,1-1.7.21,7.662,7.662,0,0,1-1.23-.09,8.139,8.139,0,0,1-.96-.21,4.5,4.5,0,0,1-.68-.25c-.179-.087-.316-.156-.41-.21l.721-1.52c.093.053.223.119.39.2a5.546,5.546,0,0,0,.6.24,5.72,5.72,0,0,0,.771.2A4.631,4.631,0,0,0,66.958,21.306Z" fill="#1e1e1c"/><path d="M76.657,22.866a4.826,4.826,0,0,1-1.761-.29,3.485,3.485,0,0,1-1.239-.8,3.194,3.194,0,0,1-.74-1.19,4.268,4.268,0,0,1-.241-1.44,8.726,8.726,0,0,1,.42-2.7,7.424,7.424,0,0,1,1.2-2.3,5.84,5.84,0,0,1,1.9-1.59,5.361,5.361,0,0,1,2.54-.59,4.218,4.218,0,0,1,1.41.21,2.608,2.608,0,0,1,.96.569,2.3,2.3,0,0,1,.551.831,2.707,2.707,0,0,1,.179.97,3.407,3.407,0,0,1-.339,1.59,3.344,3.344,0,0,1-.9,1.09,4.159,4.159,0,0,1-1.309.68,11.552,11.552,0,0,1-1.561.38,14.882,14.882,0,0,1-1.64.19q-.829.05-1.57.09a2.012,2.012,0,0,0-.019.26v.16a3.367,3.367,0,0,0,.109.87,1.627,1.627,0,0,0,.41.72,2.047,2.047,0,0,0,.83.49,4.43,4.43,0,0,0,1.39.179,4.656,4.656,0,0,0,.79-.069,6.451,6.451,0,0,0,.78-.181q.371-.11.66-.219a1.507,1.507,0,0,0,.411-.21l.16,1.58a6.642,6.642,0,0,1-1.29.47A7.764,7.764,0,0,1,76.657,22.866Zm-1.9-5.72c.774-.027,1.48-.076,2.121-.151a6.777,6.777,0,0,0,1.66-.379,2.645,2.645,0,0,0,1.09-.73,1.8,1.8,0,0,0,.389-1.2,1.141,1.141,0,0,0-.07-.38.979.979,0,0,0-.239-.37,1.286,1.286,0,0,0-.471-.28,2.14,2.14,0,0,0-.739-.11,2.933,2.933,0,0,0-1.311.3,3.984,3.984,0,0,0-1.09.79,4.761,4.761,0,0,0-.82,1.14A6.185,6.185,0,0,0,74.756,17.146Z" fill="#1e1e1c"/><path d="M89.276,22.726c-.066-.147-.133-.311-.2-.49a3.6,3.6,0,0,1-.16-.571,5.965,5.965,0,0,1-1.181.8,3.781,3.781,0,0,1-1.819.4,3.7,3.7,0,0,1-1.511-.28,2.692,2.692,0,0,1-1.029-.78,3.24,3.24,0,0,1-.59-1.181,5.546,5.546,0,0,1-.191-1.5,7.874,7.874,0,0,1,.45-2.619,6.7,6.7,0,0,1,1.35-2.28,6.777,6.777,0,0,1,2.26-1.62,7.61,7.61,0,0,1,3.18-.62,7.781,7.781,0,0,1,1.26.12,3.991,3.991,0,0,1,1.24.4l-1.54,6.28c-.067.307-.124.6-.169.879a5.337,5.337,0,0,0-.071.881,5.348,5.348,0,0,0,.361,1.94Zm-2.98-1.44a2.758,2.758,0,0,0,1.44-.36,4.624,4.624,0,0,0,1.04-.84c.014-.226.037-.464.07-.711s.076-.5.13-.75l1.2-4.96a1.292,1.292,0,0,0-.33-.059c-.153-.013-.29-.02-.41-.02a4.713,4.713,0,0,0-2.059.44,4.925,4.925,0,0,0-1.571,1.17,5.179,5.179,0,0,0-1,1.7,5.938,5.938,0,0,0-.349,2.03,4.585,4.585,0,0,0,.08.85,2.079,2.079,0,0,0,.29.76,1.662,1.662,0,0,0,.559.54A1.751,1.751,0,0,0,86.3,21.286Z" fill="#1e1e1c"/><path d="M98.6,11.986c.159,0,.34.007.539.02a5.45,5.45,0,0,1,.591.07c.192.034.37.067.529.1a1.491,1.491,0,0,1,.361.11l-.54,1.62a4.232,4.232,0,0,0-.92-.241,6.753,6.753,0,0,0-1-.079,5.721,5.721,0,0,0-.83.06,4.229,4.229,0,0,0-.71.16l-2.12,8.8H92.635l2.4-10a11.469,11.469,0,0,1,1.719-.45A10.058,10.058,0,0,1,98.6,11.986Z" fill="#1e1e1c"/><path d="M100.056,18.886a8.422,8.422,0,0,1,.41-2.62,6.653,6.653,0,0,1,1.21-2.22,5.813,5.813,0,0,1,4.62-2.1,8.492,8.492,0,0,1,1.26.09,3.94,3.94,0,0,1,1.14.35l-.7,1.56a2.9,2.9,0,0,0-.75-.281,5.11,5.11,0,0,0-1.111-.1,3.585,3.585,0,0,0-1.759.429,4.288,4.288,0,0,0-1.331,1.141,5.128,5.128,0,0,0-.839,1.64,6.421,6.421,0,0,0-.29,1.929,4.225,4.225,0,0,0,.109.981,2,2,0,0,0,.391.809,1.873,1.873,0,0,0,.75.551,3.058,3.058,0,0,0,1.189.2,4.38,4.38,0,0,0,.76-.069,6.806,6.806,0,0,0,.74-.17c.227-.067.431-.137.61-.21a1.524,1.524,0,0,0,.39-.21l.16,1.579a4.732,4.732,0,0,1-1.18.471,6.609,6.609,0,0,1-1.82.23,4.645,4.645,0,0,1-1.7-.29,3.358,3.358,0,0,1-1.24-.82,3.548,3.548,0,0,1-.76-1.261A4.768,4.768,0,0,1,100.056,18.886Z" fill="#1e1e1c"/><path d="M108.2,22.606l3.66-15.2,1.94-.32-1.28,5.26a7.281,7.281,0,0,1,.97-.26,5.319,5.319,0,0,1,1.03-.1,4.327,4.327,0,0,1,1.55.25,2.776,2.776,0,0,1,1.051.679,2.693,2.693,0,0,1,.59,1.04,4.488,4.488,0,0,1,.189,1.331,8.383,8.383,0,0,1-.279,2l-1.281,5.32h-1.86l1.181-4.92q.139-.559.269-1.14a5.015,5.015,0,0,0,.13-1.1,2.011,2.011,0,0,0-.439-1.33,2.061,2.061,0,0,0-1.641-.53,5.711,5.711,0,0,0-.99.09,3.434,3.434,0,0,0-.85.25l-2.08,8.68Z" fill="#1e1e1c"/><g id="Ebene_1-2" data-name="Ebene_1"><g id="_2821437549184" data-name=" 2821437549184"><polygon points="38.128 35.356 39.225 35.395 39.3 34.561 39.262 34.448 36.385 34.448 36.462 37.664 36.385 39.028 37.559 39.028 37.521 37.551 37.521 37.324 38.013 37.324 38.883 37.324 38.96 36.492 38.883 36.416 38.089 36.416 37.521 36.416 37.559 35.356 38.128 35.356" fill="#c42323"/><path id="_1" data-name="1" d="M41.647,32.858a.479.479,0,0,0-.529.531.438.438,0,0,0,.492.49.477.477,0,0,0,.529-.529A.457.457,0,0,0,41.647,32.858Zm1.287,0a.478.478,0,0,0-.529.531.437.437,0,0,0,.491.49.478.478,0,0,0,.53-.529C43.388,33.047,43.237,32.858,42.934,32.858Zm1.211,1.59H42.971l.039,2.876c0,.569-.265.832-.794.832s-.8-.263-.8-.869l.037-2.839H40.323l.037,2.308v.682c-.037,1.06.606,1.629,1.816,1.629s1.932-.608,1.894-1.666v-.645l.075-2.308Z" fill="#c42323"/><path id="_2" data-name="2" d="M47.968,37.211a1.738,1.738,0,0,0,.833-1.4c0-.908-.568-1.363-1.552-1.363h-1.93l.076,3.216-.076,1.364h1.135l-.037-1.477h.6c.227.492.492.984.719,1.439l.114.077a6.2,6.2,0,0,0,1.136-.229v-.113c-.341-.453-.682-.985-1.023-1.514Zm-1.514-1.93.379-.039c.492.039.718.227.718.682a.758.758,0,0,1-.491.8l-.606-.037Z" fill="#c42323"/><polygon id="_3" data-name="3" points="55.956 34.448 54.631 34.448 54.441 35.129 53.798 37.098 53.76 37.098 53.155 35.129 53.003 34.448 51.678 34.448 51.223 39.028 52.171 39.028 52.246 37.551 52.397 36.151 52.473 36.151 53.268 38.574 54.138 38.574 55.048 36.151 55.123 36.151 55.274 37.627 55.311 39.028 56.334 39.028 55.956 34.448" fill="#c42323"/><path id="_4" data-name="4" d="M61.293,34.448H60.12l.037,2.876c0,.569-.266.832-.795.832s-.8-.263-.8-.869l.076-2.839H57.508l.038,2.308v.682c-.038,1.06.605,1.629,1.816,1.629s1.931-.608,1.893-1.666v-.645l.038-2.308Z" fill="#c42323"/><path id="_5" data-name="5" d="M64.245,34.371a1.592,1.592,0,0,0-1.779,1.477c0,1.363,1.968,1.287,1.968,1.969,0,.189-.151.416-.529.416a2.034,2.034,0,0,1-1.25-.53l-.113.077L62.39,38.8a3.827,3.827,0,0,0,1.4.266c1.1,0,1.817-.645,1.817-1.477,0-1.363-1.969-1.326-1.969-1.969a.442.442,0,0,1,.493-.379,2.292,2.292,0,0,1,1.021.379l.152-.076.19-.945a4.378,4.378,0,0,0-1.25-.229Z" fill="#c42323"/><polygon id="_6" data-name="6" points="68.068 34.448 66.895 34.448 66.97 37.664 66.895 39.028 68.068 39.028 68.03 37.551 68.068 34.448" fill="#c42323"/><path id="_7" data-name="7" d="M71.815,36.606l1.514-2.158H72.118l-.265.455-1.1,1.589V34.448H69.583l.037,3.216-.037,1.364h1.134l-.037-1.477v-.8c.453.8.946,1.516,1.438,2.272l.152.076c.378-.037.756-.114,1.135-.19V38.8c-.529-.719-1.1-1.439-1.59-2.2Z" fill="#c42323"/><path d="M9.057,31.381a5.931,5.931,0,0,1,1.135-.074,2.6,2.6,0,0,1,.644.037l.075-.34v-.039c-.075,0-.227.039-.34.039-.266,0-.341-.115-.341-.531l.038-1.361c.492-.039,1.1-.077,1.248-.077h1.137V30.17c0,.682-.114.795-.568.795l-.077.342h.872a8.426,8.426,0,0,1,.946.037L13.9,31v-.039c-.075,0-.226.039-.34.039-.265,0-.341-.115-.341-.455,0-.643.038-2.158.114-3.33,0-.3.114-.379.492-.418l.038-.34a9.056,9.056,0,0,1-.908.076A3.612,3.612,0,0,1,12.2,26.5l-.037.342v.037h.264c.228,0,.265.076.265.416v1.363a6.64,6.64,0,0,1-1.135.077H10.268l.037-1.211c.038-.532.077-.608.493-.682l.038-.342a6.7,6.7,0,0,1-.795.076,6.269,6.269,0,0,1-.833-.037l-.037.34v.037h.264c.228,0,.265.076.265.418v3.18c0,.416-.113.566-.606.643l-.037.226Z" fill="#6e6e6e"/><path id="_1-2" data-name="1" d="M16.173,31.381a1.809,1.809,0,0,0,1.741-1.93,1.509,1.509,0,0,0-1.476-1.666A1.811,1.811,0,0,0,14.7,29.717,1.553,1.553,0,0,0,16.173,31.381ZM16.4,31c-.643,0-1.059-.607-1.059-1.515,0-.8.339-1.288.908-1.288.642,0,1.059.645,1.059,1.553,0,.758-.341,1.25-.908,1.25Z" fill="#6e6e6e"/><path id="_2-2" data-name="2" d="M20.563,31.381a2.516,2.516,0,0,0,1.023-.492l-.038-.264H21.51a1.86,1.86,0,0,1-.871.264c-.643,0-1.021-.529-1.021-1.438,0-.8.34-1.25.945-1.25a.577.577,0,0,1,.606.608v.226l.3-.039a6.523,6.523,0,0,1,.153-1.058l-.038-.039a2.892,2.892,0,0,0-.87-.151,1.81,1.81,0,0,0-1.743,1.93,1.563,1.563,0,0,0,1.59,1.7Z" fill="#6e6e6e"/><path id="_3-2" data-name="3" d="M22.721,31l-.038.3h.757a3.988,3.988,0,0,1,.682.037L24.2,31v-.039h-.266c-.189,0-.264-.113-.264-.416,0-.643,0-1.287.038-1.855a2.013,2.013,0,0,1,.945-.416c.417,0,.645.3.645.8l-.038,1.513a.457.457,0,0,1-.417.492l-.038.3a7.1,7.1,0,0,1,.795-.074,4.21,4.21,0,0,1,.682.037l.075-.34v-.039h-.264c-.19,0-.266-.113-.266-.416,0-.455.113-1.514.113-1.779a.925.925,0,0,0-1.021-.985,3.252,3.252,0,0,0-1.136.606,14.8,14.8,0,0,1,.189-2.611l-.038-.114a7.357,7.357,0,0,1-1.134.227l-.153.228.038.037h.152c.189,0,.265.114.265.379v4.012c0,.3-.114.416-.379.455Z" fill="#6e6e6e"/><path id="_4-2" data-name="4" d="M28.286,31.381a1.288,1.288,0,0,0,1.4-1.1c0-.377-.227-.642-1.06-1.058-.453-.229-.643-.455-.643-.682s.265-.416.606-.416c.416,0,.605.151.605.529v.227l.265-.037a5.5,5.5,0,0,1,.151-.908V27.9a2.649,2.649,0,0,0-.757-.114c-.8,0-1.4.455-1.4,1.061,0,.379.264.643.833.945.681.379.87.532.87.795s-.3.455-.681.455c-.53,0-.719-.226-.719-.908l-.265.037c0,.266-.076.871-.076,1.022l.038.039c-.075,0,.264.15.833.15Z" fill="#6e6e6e"/><path id="_5-2" data-name="5" d="M32.411,31.381a2.51,2.51,0,0,0,1.022-.492l-.075-.227H33.32a1.849,1.849,0,0,1-.87.266c-.645,0-1.024-.531-1.024-1.439,0-.8.342-1.249.948-1.249a.575.575,0,0,1,.6.606v.227l.3-.038a6.588,6.588,0,0,1,.151-1.06l-.038-.037a2.851,2.851,0,0,0-.87-.153,1.811,1.811,0,0,0-1.741,1.932,1.557,1.557,0,0,0,1.627,1.664Z" fill="#6e6e6e"/><path id="_6-2" data-name="6" d="M34.531,31l-.038.3h.758a3.982,3.982,0,0,1,.681.037l.076-.34v-.039h-.265c-.19,0-.266-.113-.266-.416,0-.643,0-1.287.038-1.855a2.019,2.019,0,0,1,.947-.416c.416,0,.643.3.643.8l-.038,1.513a.455.455,0,0,1-.416.492l-.038.3a7.077,7.077,0,0,1,.8-.074,4.21,4.21,0,0,1,.681.037l.076-.34v-.039H37.9c-.189,0-.265-.113-.265-.416,0-.455.114-1.514.114-1.779a.926.926,0,0,0-1.023-.985,3.265,3.265,0,0,0-1.135.606,14.7,14.7,0,0,1,.189-2.611l-.037-.114a7.4,7.4,0,0,1-1.137.227l-.15.228.037.037h.152c.189,0,.264.114.264.379v4.012c0,.3-.113.416-.378.455Z" fill="#6e6e6e"/><path id="_7-2" data-name="7" d="M39.339,28.656,39.3,30.512c0,.566.341.869,1.023.869a3.24,3.24,0,0,0,1.06-.642h.038a.6.6,0,0,0,.68.605c.265,0,.644-.605.644-.605l-.113-.077a.849.849,0,0,1-.456.19c-.188,0-.3-.113-.3-.34a15.84,15.84,0,0,1,.152-2.613l-.038-.114s-.644.153-1.173.229l-.039.264h.19c.265,0,.378.113.378.416v1.742a1.675,1.675,0,0,1-.908.416c-.416,0-.6-.227-.6-.758a12.7,12.7,0,0,1,.189-2.232l-.039-.077s-.605.153-1.1.229l-.037.264a.773.773,0,0,1,.19-.038c.189,0,.3.151.3.416Z" fill="#6e6e6e"/><path id="_8" data-name="8" d="M43.464,31.381c.3-.037.606-.074.794-.074a4.21,4.21,0,0,1,.682.037l.076-.34v-.039h-.265c-.19,0-.265-.113-.265-.416a31.913,31.913,0,0,1,.228-4.769l-.039-.114c-.377.114-.756.151-1.135.227l-.037.265h.226c.227,0,.266.114.266.416v3.709c0,.493,0,.682-.417.795l-.114.3Z" fill="#6e6e6e"/><path id="_9" data-name="9" d="M47.476,31.381a2.537,2.537,0,0,0,1.174-.529l-.075-.227h-.039a2.283,2.283,0,0,1-.908.227c-.719,0-1.135-.529-1.135-1.514h2.082l.113-.076a1.08,1.08,0,0,0,.037-.379.992.992,0,0,0-1.134-1.1,1.85,1.85,0,0,0-1.666,1.932,1.5,1.5,0,0,0,1.551,1.664Zm-.983-2.308a.949.949,0,0,1,.945-.909.57.57,0,0,1,.645.606c0,.152-.039.189-.19.189l-1.4.114Z" fill="#6e6e6e"/><path d="M20.185,45.387a6.905,6.905,0,0,1,.87-.076c.416,0,1.136.039,1.136.039l.075-.342v-.037s-.378.037-.529.037c-.266,0-.341-.113-.341-.529l.038-1.25A2.4,2.4,0,0,1,22,43.192c.339,0,.945.037.945.037l.113-.453-.037-.039s-.568.076-.8.076h-.795l.076-1.59c0-.264.038-.3.53-.3.908,0,1.021.039,1.021.531v.34l.379-.037a7.737,7.737,0,0,1,.19-1.287l-.038-.039c-.531.039-1.173.076-2.2.076-.454,0-1.059-.037-1.059-.037l-.038.34v.037h.264c.228,0,.266.076.266.418v3.18c0,.416-.113.566-.606.642l-.038.3Z" fill="#6e6e6e"/><path id="_1-3" data-name="1" d="M24.311,45.047l-.038.3a7.766,7.766,0,0,1,.8-.039h.757l.076-.34v-.037H25.56c-.3,0-.378-.115-.378-.455,0-.153.076-1.553.076-1.553.227-.3.491-.529.718-.529.152,0,.19.113.19.529l.3-.037a7.773,7.773,0,0,1,.115-1.1l-.039-.037a.537.537,0,0,0-.227-.039,1.644,1.644,0,0,0-1.059.795l-.039-.037a5.8,5.8,0,0,1,.077-.8l-.038-.039s-.568.152-1.023.228l-.037.379.037.037a.4.4,0,0,1,.152-.037c.189,0,.3.114.3.453v1.666c0,.53-.076.643-.379.682Z" fill="#6e6e6e"/><path id="_2-3" data-name="2" d="M28.928,45.387a2.523,2.523,0,0,0,1.174-.529l-.076-.19h-.037a2.291,2.291,0,0,1-.908.227c-.72,0-1.136-.53-1.136-1.514h2.081l.114-.076a1.053,1.053,0,0,0,.038-.379.992.992,0,0,0-1.135-1.1,1.849,1.849,0,0,0-1.665,1.932,1.471,1.471,0,0,0,1.55,1.627Zm-.983-2.309a.95.95,0,0,1,.946-.908.569.569,0,0,1,.643.606c0,.15-.037.189-.189.189l-1.4.113Z" fill="#6e6e6e"/><path id="_3-3" data-name="3" d="M31.843,40.92a.437.437,0,0,0,.455-.453.357.357,0,0,0-.379-.379.437.437,0,0,0-.453.453C31.5,40.694,31.616,40.92,31.843,40.92ZM31.2,45.387a5.914,5.914,0,0,1,.8-.076c.265,0,.681.039.681.039l.077-.342v-.037h-.266c-.189,0-.266-.113-.266-.416a12.607,12.607,0,0,1,.19-2.688l-.037-.076a11.2,11.2,0,0,1-1.1.227l-.038.265a.778.778,0,0,1,.188-.037c.19,0,.266.114.266.416v1.93c0,.266-.113.416-.416.492l-.076.3Z" fill="#6e6e6e"/><path id="_4-3" data-name="4" d="M35.061,45.387a1.916,1.916,0,0,0,1.893-1.969,1.5,1.5,0,0,0-1.477-1.627,2.721,2.721,0,0,0-.908.53,13.366,13.366,0,0,1,.189-2.536l-.038-.113s-.606.151-1.135.227l-.037.265.037.037a.4.4,0,0,1,.151-.037c.189,0,.265.114.265.416v4.657l.076.074a7.388,7.388,0,0,0,.984.076Zm.227-.416a2.438,2.438,0,0,1-.757-.152l.038-2.12a1.625,1.625,0,0,1,.795-.416c.568,0,.984.606.984,1.4.037.8-.379,1.287-1.06,1.287Z" fill="#6e6e6e"/><path id="_5-3" data-name="5" d="M38.278,42.7l-.037,1.856c0,.566.34.869,1.021.869a3.2,3.2,0,0,0,1.061-.643h.037a.6.6,0,0,0,.682.606c.265,0,.643-.606.643-.606l-.114-.113a.847.847,0,0,1-.453.19c-.19,0-.3-.114-.3-.342a15.852,15.852,0,0,1,.151-2.611l-.038-.077s-.644.153-1.173.229l-.038.264h.189c.265,0,.378.113.378.416v1.742a1.669,1.669,0,0,1-.908.416c-.416,0-.606-.227-.606-.756a12.587,12.587,0,0,1,.19-2.234l-.037-.077s-.607.153-1.1.229v.264a.76.76,0,0,1,.188-.038c.19,0,.265.151.265.416Z" fill="#6e6e6e"/><path id="_6-3" data-name="6" d="M42.555,45.047l-.037.3a7.742,7.742,0,0,1,.8-.039h.757l.075-.34v-.037h-.34c-.3,0-.379-.115-.379-.455,0-.153.077-1.553.077-1.553.226-.3.492-.529.718-.529.152,0,.19.113.19.529l.3-.037a7.9,7.9,0,0,1,.113-1.1l-.038-.037a.534.534,0,0,0-.228-.039,1.642,1.642,0,0,0-1.058.795l-.039-.037a5.872,5.872,0,0,1,.076-.8l-.037-.039s-.569.152-1.023.228l-.038.227.038.037a.4.4,0,0,1,.152-.037c.189,0,.3.113.3.455v1.664c0,.682-.076.8-.379.834Z" fill="#6e6e6e"/><path id="_7-3" data-name="7" d="M48.991,42.094l.075-.416-.038-.039c-.453.115-.832.189-1.06.228-.188,0-.454-.076-.756-.076a1.415,1.415,0,0,0-1.4,1.364,1.13,1.13,0,0,0,.568.984v.037a3.755,3.755,0,0,0-.606.492c0,.379.3.643.833.756v.039a3.5,3.5,0,0,0-.758.682,1.008,1.008,0,0,0,1.137,1.021c.945,0,1.854-.681,1.854-1.324,0-1.1-2.5-.568-2.5-1.174,0-.113.076-.226.341-.342a1.323,1.323,0,0,0,.416.077,1.405,1.405,0,0,0,1.477-1.325,1.126,1.126,0,0,0-.3-.757l.038-.038a2.017,2.017,0,0,1,.682-.189Zm-1.7,1.893A.87.87,0,0,1,46.417,43a.738.738,0,0,1,.757-.832.888.888,0,0,1,.87.985A.738.738,0,0,1,47.288,43.987Zm-.379,1.476c1.211.151,1.476.264,1.476.568,0,.417-.53.756-1.136.756-.491,0-.8-.226-.8-.568a.974.974,0,0,1,.455-.756Z" fill="#6e6e6e"/></g></g></svg>