<svg id="Ebene_1" data-name="Ebene 1" xmlns="http://www.w3.org/2000/svg" viewBox="0 0 700 105.5"><path d="M366.916,54.867c0,1.986-2.191,3.6-4.889,3.6s-4.887-1.618-4.887-3.6,2.189-3.6,4.887-3.6S366.916,52.878,366.916,54.867Z" fill="#fff"/><path d="M383.353,51.269c0,1.986-2.186,3.6-4.892,3.6s-4.887-1.612-4.887-3.6,2.189-3.6,4.887-3.6S383.353,49.28,383.353,51.269Z" fill="#fff"/><rect x="364.487" y="37.116" width="2.495" height="17.751" fill="#fff"/><rect x="380.887" y="33.518" width="2.495" height="17.751" fill="#fff"/><rect x="365.735" y="34.545" width="16.399" height="5.303" fill="#fff"/><path d="M383.382,41.1H364.487V33.3h18.895Zm-16.4-2.5h13.9V35.793h-13.9Z" fill="#fff"/><path d="M39.674,55.359q0-4.269-1.1-6.047a4.067,4.067,0,0,0-3.764-1.779c-.555,0-1.127.03-1.72.089s-1.166.129-1.719.207V71.9H22.54V41.782q1.125-.3,2.638-.623t3.2-.592q1.689-.267,3.468-.415t3.5-.148a14.706,14.706,0,0,1,5.484.86A12.393,12.393,0,0,1,44.3,42.908,16.53,16.53,0,0,1,53.19,40a15.588,15.588,0,0,1,6.137,1.037,9.258,9.258,0,0,1,3.824,2.935,11.086,11.086,0,0,1,1.956,4.506,29.047,29.047,0,0,1,.534,5.809V71.9H56.808V55.359q0-4.269-1.1-6.047a4.068,4.068,0,0,0-3.765-1.779,7.971,7.971,0,0,0-1.986.356,7.684,7.684,0,0,0-2.105.89,13.558,13.558,0,0,1,.534,2.875q.119,1.511.118,3.231V71.9H39.674Z" fill="#fff"/><path d="M100.264,70.832a48.9,48.9,0,0,1-5.81,1.216,47.8,47.8,0,0,1-7.471.564,17.744,17.744,0,0,1-6.61-1.068,10.038,10.038,0,0,1-4.18-2.994A11.678,11.678,0,0,1,74,63.955a24.644,24.644,0,0,1-.652-5.869V40.715h8.834v16.3q0,4.267,1.126,6.166t4.21,1.9q.947,0,2.015-.089t1.9-.207V40.715h8.833Z" fill="#fff"/><path d="M117.516,65.556a8.783,8.783,0,0,0,3.438-.475,1.83,1.83,0,0,0,1.008-1.838,2.254,2.254,0,0,0-1.3-1.867,24.815,24.815,0,0,0-3.972-1.807,40.183,40.183,0,0,1-3.765-1.6,11.069,11.069,0,0,1-2.875-1.985,8.054,8.054,0,0,1-1.838-2.757,10.187,10.187,0,0,1-.652-3.854,8.334,8.334,0,0,1,3.26-6.936q3.26-2.549,8.953-2.55a28.79,28.79,0,0,1,5.454.5,25.52,25.52,0,0,1,4.15,1.1l-1.542,6.878a32.436,32.436,0,0,0-3.35-.95,18.3,18.3,0,0,0-4.06-.415q-4.152,0-4.15,2.313a2.392,2.392,0,0,0,.177.948,2.027,2.027,0,0,0,.712.8,10.007,10.007,0,0,0,1.452.834q.919.449,2.342.985a36.289,36.289,0,0,1,4.8,2.122,11.427,11.427,0,0,1,2.994,2.259,7,7,0,0,1,1.542,2.691,11.967,11.967,0,0,1,.444,3.431,7.909,7.909,0,0,1-3.467,6.981q-3.47,2.365-9.813,2.366a28.2,28.2,0,0,1-6.906-.712,27.665,27.665,0,0,1-3.824-1.186l1.482-7.174a28.733,28.733,0,0,0,4.624,1.394A22.476,22.476,0,0,0,117.516,65.556Z" fill="#fff"/><path d="M146.979,31.7a4.849,4.849,0,0,1-1.57,3.825,5.625,5.625,0,0,1-7.411,0,4.847,4.847,0,0,1-1.571-3.825A4.845,4.845,0,0,1,138,27.88a5.625,5.625,0,0,1,7.411,0A4.848,4.848,0,0,1,146.979,31.7Zm-.829,40.2h-8.834V40.715h8.834Z" fill="#fff"/><path d="M152.967,56.308a18.394,18.394,0,0,1,1.1-6.374,14.915,14.915,0,0,1,8.211-8.744,16.642,16.642,0,0,1,6.759-1.3,21.857,21.857,0,0,1,4.566.444,22.264,22.264,0,0,1,4.031,1.276l-1.838,7.054a22.592,22.592,0,0,0-2.728-.83,14.254,14.254,0,0,0-3.319-.355,7,7,0,0,0-5.84,2.431,10.006,10.006,0,0,0-1.926,6.4,10.357,10.357,0,0,0,1.808,6.521q1.807,2.312,6.314,2.312a21.618,21.618,0,0,0,3.438-.3,14.591,14.591,0,0,0,3.38-.949l1.244,7.233a20.583,20.583,0,0,1-3.853,1.126,25.363,25.363,0,0,1-5.1.475,19.187,19.187,0,0,1-7.352-1.275,13.842,13.842,0,0,1-5.068-3.468,13.509,13.509,0,0,1-2.905-5.188A21.971,21.971,0,0,1,152.967,56.308Z" fill="#fff"/><path d="M192.748,68.046a13.775,13.775,0,0,0,2.52-.237,7.545,7.545,0,0,0,2.253-.771,4.51,4.51,0,0,0,1.6-1.453,3.973,3.973,0,0,0,.622-2.282,3.9,3.9,0,0,0-.3-1.571,3.8,3.8,0,0,0-.948-1.275,9.494,9.494,0,0,0-1.631-1.156q-.978-.562-2.342-1.274-1.364-.653-2.49-1.3a9.02,9.02,0,0,1-1.985-1.542,6.233,6.233,0,0,1-1.334-2.1,8.036,8.036,0,0,1-.475-2.934,8.885,8.885,0,0,1,3.2-7.145q3.2-2.7,9.309-2.7a20.013,20.013,0,0,1,5.009.564,13.707,13.707,0,0,1,2.994,1.037l-2.075,4.5a13.239,13.239,0,0,0-2.668-1.007,14.637,14.637,0,0,0-4.09-.534,10.9,10.9,0,0,0-2.253.238,6.4,6.4,0,0,0-2.046.8,4.441,4.441,0,0,0-1.482,1.482,4.172,4.172,0,0,0-.563,2.223,3.284,3.284,0,0,0,1.245,2.638,16.7,16.7,0,0,0,3.735,2.164,27.387,27.387,0,0,1,2.756,1.453,9.867,9.867,0,0,1,2.076,1.66,6.187,6.187,0,0,1,1.3,2.164,8.841,8.841,0,0,1,.445,2.964,9.689,9.689,0,0,1-.949,4.387,8.623,8.623,0,0,1-2.638,3.142,11.869,11.869,0,0,1-4,1.868,19.343,19.343,0,0,1-5.039.622,22.81,22.81,0,0,1-3.647-.266,24.059,24.059,0,0,1-2.845-.623A13.366,13.366,0,0,1,184,71.04c-.533-.257-.94-.465-1.215-.623l2.134-4.506q.414.24,1.156.593a16.859,16.859,0,0,0,4.062,1.3A13.915,13.915,0,0,0,192.748,68.046Z" fill="#fff"/><path d="M221.5,72.67a14.3,14.3,0,0,1-5.217-.859,10.333,10.333,0,0,1-3.676-2.371,9.48,9.48,0,0,1-2.193-3.529,12.7,12.7,0,0,1-.712-4.268,25.871,25.871,0,0,1,1.245-8,21.933,21.933,0,0,1,3.558-6.818,17.268,17.268,0,0,1,5.632-4.713,15.9,15.9,0,0,1,7.529-1.749,12.5,12.5,0,0,1,4.18.622,7.735,7.735,0,0,1,2.845,1.689,6.784,6.784,0,0,1,1.63,2.461,7.95,7.95,0,0,1,.534,2.875,10.071,10.071,0,0,1-1.007,4.714,9.9,9.9,0,0,1-2.668,3.23,12.257,12.257,0,0,1-3.884,2.016,34.159,34.159,0,0,1-4.624,1.127,44.087,44.087,0,0,1-4.861.563q-2.462.149-4.655.267a6.549,6.549,0,0,0-.058.771v.474a9.888,9.888,0,0,0,.326,2.579,4.807,4.807,0,0,0,1.215,2.134,6.053,6.053,0,0,0,2.461,1.452,13.056,13.056,0,0,0,4.12.534,13.764,13.764,0,0,0,2.342-.208,19.45,19.45,0,0,0,2.311-.533q1.1-.325,1.957-.652a4.456,4.456,0,0,0,1.215-.622l.475,4.683a19.389,19.389,0,0,1-3.825,1.393A23.036,23.036,0,0,1,221.5,72.67Zm-5.632-16.956q3.438-.117,6.284-.444a20.1,20.1,0,0,0,4.921-1.126,7.837,7.837,0,0,0,3.232-2.164,5.316,5.316,0,0,0,1.155-3.558,3.423,3.423,0,0,0-.207-1.126,2.93,2.93,0,0,0-.712-1.1,3.8,3.8,0,0,0-1.393-.83,6.452,6.452,0,0,0-2.194-.326,8.674,8.674,0,0,0-3.883.889,11.786,11.786,0,0,0-3.231,2.342,14.214,14.214,0,0,0-2.431,3.38A18.316,18.316,0,0,0,215.869,55.714Z" fill="#fff"/><path d="M258.91,72.255q-.3-.651-.594-1.452a11.048,11.048,0,0,1-.473-1.689,17.8,17.8,0,0,1-3.5,2.371,11.234,11.234,0,0,1-5.4,1.185,10.953,10.953,0,0,1-4.475-.83,7.989,7.989,0,0,1-3.054-2.311,9.722,9.722,0,0,1-1.749-3.5,16.476,16.476,0,0,1-.563-4.447,23.263,23.263,0,0,1,1.334-7.766,19.82,19.82,0,0,1,4-6.759,20.058,20.058,0,0,1,6.7-4.8,22.529,22.529,0,0,1,9.425-1.838,23.007,23.007,0,0,1,3.736.356,11.823,11.823,0,0,1,3.675,1.185l-4.565,18.616q-.3,1.365-.5,2.609a15.776,15.776,0,0,0-.207,2.608,16.42,16.42,0,0,0,.237,2.757,16.8,16.8,0,0,0,.83,2.994Zm-8.834-4.268a8.144,8.144,0,0,0,4.269-1.068,13.757,13.757,0,0,0,3.083-2.489q.058-1.008.207-2.105t.386-2.223l3.556-14.7a3.785,3.785,0,0,0-.977-.178c-.455-.039-.861-.06-1.216-.06a13.984,13.984,0,0,0-6.107,1.3,14.552,14.552,0,0,0-4.653,3.468,15.305,15.305,0,0,0-2.965,5.04,17.585,17.585,0,0,0-1.037,6.017,13.765,13.765,0,0,0,.236,2.52,6.312,6.312,0,0,0,.861,2.253,4.96,4.96,0,0,0,1.66,1.6A5.175,5.175,0,0,0,250.076,67.987Z" fill="#fff"/><path d="M286.536,40.419c.475,0,1.008.02,1.6.059a16.991,16.991,0,0,1,1.748.208c.573.1,1.1.2,1.571.3a4.642,4.642,0,0,1,1.067.326l-1.6,4.8A12.408,12.408,0,0,0,288.2,45.4a19.515,19.515,0,0,0-2.964-.238,17.057,17.057,0,0,0-2.461.178,12.389,12.389,0,0,0-2.1.475L274.383,71.9h-5.514l7.114-29.643a34.181,34.181,0,0,1,5.1-1.334A29.943,29.943,0,0,1,286.536,40.419Z" fill="#fff"/><path d="M290.865,60.872a24.947,24.947,0,0,1,1.215-7.766,19.642,19.642,0,0,1,3.587-6.58,17.227,17.227,0,0,1,13.7-6.226,25.181,25.181,0,0,1,3.736.267,11.75,11.75,0,0,1,3.379,1.038L314.4,46.229a8.411,8.411,0,0,0-2.222-.83,14.957,14.957,0,0,0-3.291-.3,10.63,10.63,0,0,0-5.217,1.274,12.688,12.688,0,0,0-3.942,3.379,15.271,15.271,0,0,0-2.491,4.861,19.116,19.116,0,0,0-.859,5.722,12.465,12.465,0,0,0,.325,2.9,6.022,6.022,0,0,0,1.156,2.4,5.57,5.57,0,0,0,2.224,1.631,9.061,9.061,0,0,0,3.527.592,12.926,12.926,0,0,0,2.253-.208,19.445,19.445,0,0,0,2.194-.5,18.883,18.883,0,0,0,1.808-.622,4.5,4.5,0,0,0,1.156-.623L311.5,70.6a14.24,14.24,0,0,1-3.5,1.394,19.575,19.575,0,0,1-5.4.681,13.763,13.763,0,0,1-5.04-.859,9.938,9.938,0,0,1-3.675-2.431,10.459,10.459,0,0,1-2.253-3.735A14.105,14.105,0,0,1,290.865,60.872Z" fill="#fff"/><path d="M314.993,71.9l10.85-45.058,5.751-.948-3.8,15.592a21.189,21.189,0,0,1,2.876-.771,15.868,15.868,0,0,1,3.053-.3,12.823,12.823,0,0,1,4.594.74,8.205,8.205,0,0,1,3.113,2.017,7.917,7.917,0,0,1,1.749,3.082,13.225,13.225,0,0,1,.563,3.943,24.751,24.751,0,0,1-.83,5.928L339.123,71.9h-5.514l3.5-14.584q.414-1.66.8-3.38a14.921,14.921,0,0,0,.386-3.261,5.969,5.969,0,0,0-1.305-3.942q-1.305-1.57-4.861-1.572a16.875,16.875,0,0,0-2.935.267,10.189,10.189,0,0,0-2.519.741L320.507,71.9Z" fill="#fff"/><path d="M662.743,78.053H501.306M662.743,32.069H501.306m161.437,11.5H501.306M662.743,55.061H501.306m161.437,11.5H501.306" fill="none" stroke="#fff" stroke-width="0.21"/><polygon points="486.843 78.208 486.843 31.919 479.029 31.919 463.696 51.447 448.364 31.919 440.552 31.919 440.552 78.208 486.843 78.208 486.843 78.208" fill="#fff"/><path d="M506.378,75.668a2.139,2.139,0,0,0,2.207-2.36V69.019h-.847v4.26c0,.994-.493,1.554-1.36,1.554s-1.367-.56-1.367-1.554v-4.26h-.84v4.289a2.139,2.139,0,0,0,2.207,2.36Zm4.4-2.694c0-.67.328-1.21.97-1.21.727,0,.97.5.97,1.11v2.654h.812v-2.8c0-.985-.492-1.745-1.489-1.745a1.405,1.405,0,0,0-1.28.76v-.63h-.795v4.414h.812V72.974Zm4.819,2.554V71.114h-.8v4.414Zm-.987-6.089a.586.586,0,1,0,.58-.625.6.6,0,0,0-.58.625Zm5.959,1.675H519.7l-1.2,3.4-1.187-3.4H516.4l1.685,4.414h.825l1.659-4.414Zm1.225,1.754a1.157,1.157,0,0,1,1.135-1.134,1.084,1.084,0,0,1,1.145,1.134Zm2.4,1.145a1.145,1.145,0,0,1-1.17.89,1.276,1.276,0,0,1-1.255-1.34h3.135a2.366,2.366,0,0,0,.017-.274c0-1.38-.717-2.315-2-2.315a2.37,2.37,0,0,0,.1,4.694,1.9,1.9,0,0,0,1.87-1.4l-.7-.26Zm4.1-2.949a2.106,2.106,0,0,0-.27-.025,1.291,1.291,0,0,0-1.244.845v-.77h-.8v4.414h.812v-2.21c0-.974.46-1.364,1.145-1.364a2.238,2.238,0,0,1,.355.03v-.92Zm.578,3.319a1.593,1.593,0,0,0,1.7,1.285A1.414,1.414,0,0,0,532.1,74.3a1.317,1.317,0,0,0-1.15-1.314l-.677-.155a.529.529,0,0,1-.475-.53.639.639,0,0,1,.693-.59.828.828,0,0,1,.867.735l.717-.285a1.5,1.5,0,0,0-1.584-1.185,1.456,1.456,0,0,0-1.48,1.395,1.232,1.232,0,0,0,1.037,1.239l.71.166c.347.085.54.294.54.569,0,.315-.253.59-.712.59a.9.9,0,0,1-.97-.825l-.735.275Zm5.076,1.145V71.114h-.8v4.414Zm-.987-6.089a.585.585,0,1,0,1.168,0,.585.585,0,1,0-1.168,0Zm3.442.275h-.745v.72a.6.6,0,0,1-.64.68H534.8v.78h.8v2.425a1.111,1.111,0,0,0,1.157,1.254,1.8,1.8,0,0,0,.555-.08v-.735a1.454,1.454,0,0,1-.32.035c-.425,0-.58-.2-.58-.605V71.894h.9v-.78h-.9v-1.4Zm3.2,7.664,2.709-6.264h-.875L540.2,74.163l-1.3-3.049h-.935l1.792,3.929-1.04,2.335Zm7.436-2.48c-.692,0-1.3-.555-1.3-1.58s.608-1.574,1.3-1.574,1.3.555,1.3,1.574-.6,1.58-1.3,1.58Zm0-3.924a2.358,2.358,0,1,0,2.127,2.344,2.171,2.171,0,0,0-2.127-2.344Zm5.272.92v-.78h-1v-.7c0-.605.375-.755.66-.755a.872.872,0,0,1,.355.055v-.77a1.056,1.056,0,0,0-.485-.09,1.36,1.36,0,0,0-1.365,1.515v.745H549.7v.78h.772v3.634h.835V71.894Zm9.758,3.634V69.019h-1.134l-2.18,5.3-2.165-5.3h-1.152v6.509h.84V70.459l2.077,5.069h.78l2.095-5.069v5.069Zm4.217-.53a4.114,4.114,0,0,0,.035.53h.778c-.015-.155-.043-.465-.043-.815v-3.6h-.812v2.66c0,.674-.33,1.129-.988,1.129-.684,0-.944-.53-.944-1.135V71.114H563.5v2.779a1.6,1.6,0,0,0,1.558,1.775,1.333,1.333,0,0,0,1.229-.67Zm1.765-.615a1.593,1.593,0,0,0,1.7,1.285,1.415,1.415,0,0,0,1.523-1.37,1.318,1.318,0,0,0-1.153-1.314l-.675-.155a.53.53,0,0,1-.475-.53.641.641,0,0,1,.693-.59.828.828,0,0,1,.867.735l.718-.285a1.5,1.5,0,0,0-1.585-1.185,1.456,1.456,0,0,0-1.48,1.395,1.23,1.23,0,0,0,1.037,1.239l.71.166c.348.085.54.294.54.569,0,.315-.252.59-.712.59a.9.9,0,0,1-.97-.825l-.735.275Zm5.077,1.145V71.114h-.8v4.414Zm-.987-6.089a.584.584,0,1,0,1.167,0,.585.585,0,1,0-1.167,0Zm4.084,2.335a1.113,1.113,0,0,1,1.117.935l.735-.33a1.83,1.83,0,0,0-1.852-1.405,2.362,2.362,0,0,0,.007,4.694,1.928,1.928,0,0,0,1.88-1.38l-.72-.33a1.147,1.147,0,0,1-1.16.91c-.674,0-1.272-.539-1.272-1.55,0-1.029.608-1.544,1.265-1.544Zm4.744,2.569a1.331,1.331,0,0,0,1.393,1.325,1.509,1.509,0,0,0,1.344-.735,3.4,3.4,0,0,0,.043.6h.8a3.992,3.992,0,0,1-.055-.725V72.594a1.531,1.531,0,0,0-1.729-1.62,1.632,1.632,0,0,0-1.705,1.435l.78.195a.9.9,0,0,1,.942-.895c.632,0,.9.36.9.79,0,.16-.068.3-.32.335l-1.127.175a1.328,1.328,0,0,0-1.263,1.339v0Zm1.508.6a.65.65,0,0,1-.675-.645.643.643,0,0,1,.605-.66l1.272-.2v.2c0,.965-.538,1.3-1.2,1.3Zm4.084-1.969c0-.67.33-1.21.97-1.21.727,0,.97.5.97,1.11v2.654h.815v-2.8c0-.985-.5-1.745-1.49-1.745a1.411,1.411,0,0,0-1.283.76v-.63h-.794v4.414h.812V72.974Zm4.564.334c0-.909.485-1.554,1.23-1.554s1.2.625,1.2,1.535-.46,1.6-1.2,1.6c-.78,0-1.223-.67-1.223-1.58Zm2.435,1.625a3.813,3.813,0,0,0,.043.595h.787a6.812,6.812,0,0,1-.045-.815V68.879h-.8v2.855a1.273,1.273,0,0,0-1.272-.74,2.123,2.123,0,0,0-1.974,2.314,2.084,2.084,0,0,0,1.974,2.34,1.382,1.382,0,0,0,1.29-.79v.075Zm5.269-2.874V69.824h1.23a1.079,1.079,0,0,1,1.19,1.13,1.068,1.068,0,0,1-1.19,1.105Zm1.387.805a1.923,1.923,0,0,0,0-3.845h-2.232v6.509h.845V72.864Zm3.26,0a1.157,1.157,0,0,1,1.135-1.134,1.08,1.08,0,0,1,1.142,1.134Zm2.4,1.145a1.149,1.149,0,0,1-1.17.89,1.274,1.274,0,0,1-1.255-1.34h3.132a1.763,1.763,0,0,0,.02-.274c0-1.38-.72-2.315-2-2.315a2.371,2.371,0,0,0,.1,4.694,1.9,1.9,0,0,0,1.87-1.4l-.7-.26Zm4.1-2.949a2.028,2.028,0,0,0-.268-.025,1.3,1.3,0,0,0-1.247.845v-.77h-.795v4.414h.81v-2.21c0-.974.46-1.364,1.145-1.364a2.2,2.2,0,0,1,.355.03v-.92Zm3.194.83v-.78h-1v-.7c0-.605.372-.755.657-.755a.855.855,0,0,1,.355.055v-.77a1.044,1.044,0,0,0-.485-.09,1.36,1.36,0,0,0-1.364,1.515v.745h-.773v.78h.773v3.634h.837V71.894Zm2.662,3c-.692,0-1.3-.555-1.3-1.58s.607-1.574,1.3-1.574,1.3.555,1.3,1.574-.605,1.58-1.3,1.58Zm0-3.924a2.358,2.358,0,1,0,2.128,2.344,2.17,2.17,0,0,0-2.128-2.344Zm5.48.09a2.085,2.085,0,0,0-.268-.025,1.3,1.3,0,0,0-1.247.845v-.77h-.8v4.414h.812v-2.21c0-.974.46-1.364,1.143-1.364a2.228,2.228,0,0,1,.355.03v-.92Zm1.654,4.464V72.864a1,1,0,0,1,.973-1.12c.622,0,.882.44.882,1.01v2.774h.812V72.859a1.01,1.01,0,0,1,.96-1.115c.615,0,.885.435.885,1.01v2.774h.805V72.664a1.5,1.5,0,0,0-2.832-.845,1.3,1.3,0,0,0-1.247-.835,1.417,1.417,0,0,0-1.263.715v-.585h-.777v4.414Zm7.392,0V71.114h-.805v4.414Zm-.985-6.089a.584.584,0,1,0,1.167,0,.585.585,0,1,0-1.167,0Zm3.12,3.535c0-.67.329-1.21.972-1.21.727,0,.97.5.97,1.11v2.654h.812v-2.8c0-.985-.5-1.745-1.49-1.745a1.407,1.407,0,0,0-1.28.76v-.63h-.794v4.414h.81V72.974Zm3.744,2.794a1.855,1.855,0,0,0,1.92,1.645,1.967,1.967,0,0,0,2.084-2.215V71.114h-.8v.615a1.294,1.294,0,0,0-1.282-.7,2.159,2.159,0,0,0,0,4.289,1.37,1.37,0,0,0,1.274-.725v.635c0,.955-.4,1.43-1.274,1.43a1.131,1.131,0,0,1-1.133-1.085l-.787.2Zm2.042-1.175c-.737,0-1.2-.55-1.2-1.415a1.246,1.246,0,0,1,1.2-1.414c.7,0,1.188.56,1.188,1.414s-.485,1.415-1.188,1.415Zm9.766.935h.918l-2.442-6.509h-.98l-2.44,6.509h.91l.647-1.819h2.72l.667,1.819Zm-2.034-5.574,1.065,2.92h-2.115l1.05-2.92Zm6.094,1.11a2.125,2.125,0,0,0-.27-.025,1.3,1.3,0,0,0-1.245.845v-.77h-.8v4.414h.81v-2.21c0-.974.46-1.364,1.145-1.364a2.248,2.248,0,0,1,.355.03v-.92Zm2.19-1.35h-.743v.72a.6.6,0,0,1-.642.68h-.225v.78h.8v2.425a1.113,1.113,0,0,0,1.16,1.254,1.76,1.76,0,0,0,.552-.08v-.735a1.433,1.433,0,0,1-.32.035c-.422,0-.579-.2-.579-.605V71.894h.9v-.78h-.9v-1.4Zm1.639,4.669a1.591,1.591,0,0,0,1.7,1.285,1.414,1.414,0,0,0,1.522-1.37,1.317,1.317,0,0,0-1.15-1.314l-.677-.155a.529.529,0,0,1-.475-.53.642.642,0,0,1,.695-.59.826.826,0,0,1,.865.735l.717-.285a1.5,1.5,0,0,0-1.582-1.185,1.454,1.454,0,0,0-1.48,1.395,1.23,1.23,0,0,0,1.035,1.239l.71.166c.35.085.54.294.54.569,0,.315-.25.59-.71.59a.9.9,0,0,1-.97-.825l-.735.275Z" fill="#fff"/><path d="M510.887,64.045V57.536h-1.132l-2.182,5.3-2.165-5.3h-1.152v6.509h.84V58.976l2.079,5.069h.78l2.1-5.069v5.069Zm1.367-1.18a1.328,1.328,0,0,0,1.39,1.32,1.5,1.5,0,0,0,1.345-.735,3.4,3.4,0,0,0,.043.605h.794a4.434,4.434,0,0,1-.052-.725V61.11a1.532,1.532,0,0,0-1.73-1.619,1.632,1.632,0,0,0-1.7,1.434l.778.2a.909.909,0,0,1,.945-.895c.632,0,.9.36.9.8,0,.155-.07.29-.322.33l-1.128.175a1.328,1.328,0,0,0-1.26,1.345v0Zm1.5.595a.654.654,0,0,1-.07-1.3l1.275-.2v.2c0,.965-.54,1.3-1.205,1.3Zm4.215-1.965c0-.67.33-1.215.97-1.215.727,0,.969.495.969,1.11v2.655h.813v-2.8c0-.985-.493-1.744-1.488-1.744a1.41,1.41,0,0,0-1.282.759v-.629h-.8v4.414h.815V61.5Zm4.969,0c0-.67.33-1.215.97-1.215.73,0,.97.495.97,1.11v2.655h.815v-2.8c0-.985-.5-1.744-1.49-1.744a1.4,1.4,0,0,0-1.28.759v-.629h-.8v4.414h.812V61.5Zm4.972-.045c.017-.655.347-1.17.97-1.17.727,0,.97.495.97,1.11v2.655h.812v-2.8c0-.985-.493-1.744-1.487-1.744a1.442,1.442,0,0,0-1.265.644V57.4H527.1v6.649h.813V61.45Zm4.734-.065a1.152,1.152,0,0,1,1.133-1.13,1.079,1.079,0,0,1,1.144,1.13Zm2.4,1.145a1.142,1.142,0,0,1-1.167.895,1.28,1.28,0,0,1-1.257-1.345h3.134a1.828,1.828,0,0,0,.018-.275c0-1.375-.718-2.314-2-2.314a2.37,2.37,0,0,0,.1,4.694,1.894,1.894,0,0,0,1.867-1.4l-.7-.26Zm2.712,1.515V59.631h-.8v4.414Zm-.987-6.084a.586.586,0,1,0,.58-.625.6.6,0,0,0-.58.625Zm3.245,6.084v-2.66a1,1,0,0,1,.969-1.125c.625,0,.885.445.885,1.015v2.77h.813v-2.67a1.01,1.01,0,0,1,.962-1.115c.615,0,.882.435.882,1.015v2.77h.8V61.18a1.5,1.5,0,0,0-2.832-.845,1.292,1.292,0,0,0-1.245-.834,1.418,1.418,0,0,0-1.264.714v-.584h-.778v4.414Z" fill="#fff"/><path d="M510.887,52.566V46.052h-1.132l-2.182,5.3-2.165-5.3h-1.152v6.514h.84V47.5l2.079,5.069h.78l2.1-5.069v5.069Zm4.35-.535a4.7,4.7,0,0,0,.032.535h.78a7.565,7.565,0,0,1-.045-.819v-3.6h-.81v2.665c0,.67-.33,1.13-.99,1.13-.685,0-.945-.535-.945-1.14V48.147h-.81v2.785a1.593,1.593,0,0,0,1.558,1.769,1.34,1.34,0,0,0,1.23-.67Zm1.892-.614a1.594,1.594,0,0,0,1.7,1.284,1.409,1.409,0,0,0,1.522-1.364,1.313,1.313,0,0,0-1.15-1.315l-.674-.155a.536.536,0,0,1-.478-.535.641.641,0,0,1,.693-.59.83.83,0,0,1,.867.735l.717-.28a1.49,1.49,0,0,0-1.584-1.185,1.452,1.452,0,0,0-1.48,1.395,1.233,1.233,0,0,0,1.04,1.24l.71.165c.345.085.537.3.537.57a.63.63,0,0,1-.713.59.909.909,0,0,1-.969-.83l-.735.275Zm5.2,1.149V48.147h-.8v4.419Zm-.985-6.089a.586.586,0,1,0,.58-.624.6.6,0,0,0-.58.624Zm6.169,1.67h-1.124l-1.8,1.96V45.918h-.8v6.648h.8V51.232l.58-.615,1.36,1.949h1.019l-1.809-2.554,1.774-1.865Zm5.984,3.884a3.986,3.986,0,0,0,.036.535h.777a7.971,7.971,0,0,1-.043-.819v-3.6h-.815v2.665c0,.67-.327,1.13-.984,1.13-.685,0-.945-.535-.945-1.14V48.147h-.815v2.785a1.594,1.594,0,0,0,1.56,1.769,1.335,1.335,0,0,0,1.229-.67Zm3.045-2.019c0-.67.33-1.215.97-1.215.727,0,.97.5.97,1.115v2.654h.815v-2.8c0-.98-.5-1.745-1.49-1.745a1.414,1.414,0,0,0-1.282.765v-.635h-.795v4.419h.812V50.012Zm4.695.33c0-.91.484-1.55,1.229-1.55s1.195.625,1.195,1.535-.46,1.595-1.2,1.595c-.78,0-1.219-.67-1.219-1.58Zm2.434,1.63a3.8,3.8,0,0,0,.043.594h.787a6.908,6.908,0,0,1-.045-.819V45.918h-.805v2.854a1.266,1.266,0,0,0-1.27-.745,2.124,2.124,0,0,0-1.975,2.315,2.089,2.089,0,0,0,1.975,2.345,1.392,1.392,0,0,0,1.29-.79v.075Zm5.529-.2V46.852h1.275c1.132,0,2.07.825,2.07,2.47s-.955,2.445-2.09,2.445Zm1.283.8a2.936,2.936,0,0,0,2.934-3.244,2.943,2.943,0,0,0-2.917-3.27h-2.145v6.514Zm3.922-1.184A1.327,1.327,0,0,0,555.8,52.7a1.5,1.5,0,0,0,1.34-.729,3.472,3.472,0,0,0,.045.6h.795a4.392,4.392,0,0,1-.052-.729v-2.22a1.529,1.529,0,0,0-1.73-1.615,1.628,1.628,0,0,0-1.705,1.43l.778.2a.906.906,0,0,1,.944-.9c.63,0,.9.36.9.8,0,.155-.07.3-.32.33l-1.125.175a1.333,1.333,0,0,0-1.264,1.345v-.005Zm1.5.594a.653.653,0,0,1-.07-1.3l1.275-.2v.2c0,.965-.535,1.3-1.205,1.3Zm5.715-3.874a1.452,1.452,0,0,0-.27-.025,1.3,1.3,0,0,0-1.245.84v-.77h-.8v4.419h.81V50.352c0-.975.46-1.36,1.145-1.36a2.228,2.228,0,0,1,.355.03V48.1Zm.707,3.315a1.594,1.594,0,0,0,1.7,1.284,1.411,1.411,0,0,0,1.523-1.364,1.316,1.316,0,0,0-1.15-1.315l-.678-.155a.534.534,0,0,1-.475-.535.642.642,0,0,1,.7-.59.829.829,0,0,1,.865.735l.717-.28a1.493,1.493,0,0,0-1.582-1.185,1.451,1.451,0,0,0-1.48,1.395,1.232,1.232,0,0,0,1.035,1.24l.71.165c.348.085.54.3.54.57a.629.629,0,0,1-.71.59.9.9,0,0,1-.97-.83l-.737.275Zm5.634-4.665h-.745v.715a.6.6,0,0,1-.64.68h-.225v.78h.8v2.425a1.117,1.117,0,0,0,1.16,1.26,1.616,1.616,0,0,0,.552-.085V51.8a1.849,1.849,0,0,1-.32.035c-.425,0-.58-.2-.58-.605v-2.3h.9v-.78h-.9V46.752Zm2.542,3.15a1.152,1.152,0,0,1,1.135-1.13,1.078,1.078,0,0,1,1.142,1.13Zm2.4,1.15a1.142,1.142,0,0,1-1.167.89,1.273,1.273,0,0,1-1.255-1.34h3.132a2.142,2.142,0,0,0,.018-.275c0-1.38-.718-2.315-2-2.315a2.368,2.368,0,0,0,.105,4.689,1.9,1.9,0,0,0,1.87-1.394l-.7-.255Zm2.733,1.514V45.918h-.815v6.648Zm2.259,0V45.918h-.815v6.648Zm2.04-2.664a1.152,1.152,0,0,1,1.135-1.13,1.078,1.078,0,0,1,1.142,1.13Zm2.4,1.15a1.149,1.149,0,0,1-1.17.89,1.276,1.276,0,0,1-1.258-1.34h3.133a1.778,1.778,0,0,0,.02-.275c0-1.38-.72-2.315-2-2.315a2.368,2.368,0,0,0,.1,4.689,1.9,1.9,0,0,0,1.869-1.394l-.7-.255Zm2.734-1.04c0-.67.328-1.215.97-1.215.725,0,.97.5.97,1.115v2.654h.81v-2.8c0-.98-.49-1.745-1.485-1.745a1.419,1.419,0,0,0-1.285.765v-.635h-.795v4.419h.815V50.012Zm4.694.33c0-.91.486-1.55,1.23-1.55s1.195.625,1.195,1.535-.46,1.595-1.2,1.595c-.78,0-1.22-.67-1.22-1.58Zm2.433,1.63a3.964,3.964,0,0,0,.042.594h.787a8.085,8.085,0,0,1-.042-.819V45.918h-.805v2.854a1.271,1.271,0,0,0-1.275-.745,2.126,2.126,0,0,0-1.972,2.315,2.089,2.089,0,0,0,1.972,2.345,1.4,1.4,0,0,0,1.293-.79v.075Zm2.817-2.07a1.154,1.154,0,0,1,1.135-1.13A1.079,1.079,0,0,1,597.3,49.9Zm2.4,1.15a1.143,1.143,0,0,1-1.169.89,1.275,1.275,0,0,1-1.255-1.34h3.134a2.142,2.142,0,0,0,.018-.275c0-1.38-.718-2.315-2-2.315a2.367,2.367,0,0,0,.1,4.689,1.9,1.9,0,0,0,1.87-1.394l-.7-.255Zm8.077,1.514h1.072l-2.587-3.609,2.552-2.905h-1.115l-2.874,3.355V46.052h-.848v6.514h.848V50.6l.875-.995,2.077,2.959Zm4.557-.535a4.275,4.275,0,0,0,.032.535h.78a7.837,7.837,0,0,1-.045-.819v-3.6h-.812v2.665c0,.67-.33,1.13-.985,1.13-.685,0-.945-.535-.945-1.14V48.147h-.815v2.785a1.594,1.594,0,0,0,1.56,1.769,1.337,1.337,0,0,0,1.23-.67Zm3.044-2.019c0-.67.328-1.215.97-1.215.725,0,.97.5.97,1.115v2.654h.81v-2.8c0-.98-.49-1.745-1.485-1.745a1.422,1.422,0,0,0-1.285.765v-.635h-.794v4.419h.814V50.012Zm3.81,1.405a1.594,1.594,0,0,0,1.7,1.284,1.41,1.41,0,0,0,1.522-1.364,1.313,1.313,0,0,0-1.15-1.315l-.675-.155a.536.536,0,0,1-.477-.535.641.641,0,0,1,.693-.59.83.83,0,0,1,.867.735l.717-.28a1.49,1.49,0,0,0-1.584-1.185,1.451,1.451,0,0,0-1.48,1.395,1.233,1.233,0,0,0,1.04,1.24l.71.165c.344.085.535.3.535.57a.629.629,0,0,1-.711.59.909.909,0,0,1-.969-.83l-.735.275Zm5.634-4.665h-.745v.715a.6.6,0,0,1-.64.68h-.225v.78h.8v2.425a1.115,1.115,0,0,0,1.157,1.26,1.623,1.623,0,0,0,.555-.085V51.8a1.838,1.838,0,0,1-.32.035c-.425,0-.58-.2-.58-.605v-2.3h.9v-.78h-.9V46.752Z" fill="#fff"/><path d="M508.17,36.049a1.964,1.964,0,0,0-2.08-1.615,2.007,2.007,0,0,0-2.024,1.94,1.767,1.767,0,0,0,1.5,1.779l.875.2a1.041,1.041,0,0,1,.917,1.014c0,.57-.415,1.035-1.265,1.035a1.428,1.428,0,0,1-1.469-1.395l-.815.275a2.173,2.173,0,0,0,2.294,1.94,1.982,1.982,0,0,0,2.12-1.93,1.843,1.843,0,0,0-1.59-1.829l-.92-.21a.929.929,0,0,1-.787-.945,1.109,1.109,0,0,1,1.187-1.085,1.268,1.268,0,0,1,1.3,1.11l.762-.285Zm2.27-.78H509.7v.72a.6.6,0,0,1-.64.68h-.225v.78h.8v2.424a1.112,1.112,0,0,0,1.157,1.255,1.8,1.8,0,0,0,.555-.08v-.735a1.474,1.474,0,0,1-.322.035c-.423,0-.58-.2-.58-.6V37.449h.9v-.78h-.9v-1.4Zm1.85,4.629a1.33,1.33,0,0,0,1.389,1.325,1.507,1.507,0,0,0,1.345-.735,3.4,3.4,0,0,0,.043.605h.8a4.015,4.015,0,0,1-.055-.73V38.149a1.529,1.529,0,0,0-1.73-1.62,1.628,1.628,0,0,0-1.7,1.434l.78.19a.9.9,0,0,1,.943-.889c.632,0,.9.36.9.79,0,.154-.07.294-.322.33l-1.125.175A1.334,1.334,0,0,0,512.29,39.9v0Zm1.5.6a.65.65,0,0,1-.675-.645.643.643,0,0,1,.605-.66l1.275-.2v.2c0,.965-.54,1.3-1.205,1.3Zm3.15-.6a1.331,1.331,0,0,0,1.392,1.325,1.5,1.5,0,0,0,1.342-.735,3.426,3.426,0,0,0,.045.605h.8a4.459,4.459,0,0,1-.052-.73V38.149a1.53,1.53,0,0,0-1.732-1.62,1.63,1.63,0,0,0-1.705,1.434l.78.19a.9.9,0,0,1,.945-.889c.63,0,.9.36.9.79,0,.154-.071.294-.32.33l-1.125.175a1.336,1.336,0,0,0-1.265,1.344v0Zm1.5.6a.65.65,0,0,1-.675-.645.643.643,0,0,1,.605-.66l1.275-.2v.2c0,.965-.538,1.3-1.205,1.3Zm4.514-5.229h-.742v.72a.6.6,0,0,1-.64.68h-.225v.78h.8v2.424a1.112,1.112,0,0,0,1.158,1.255,1.794,1.794,0,0,0,.554-.08v-.735a1.474,1.474,0,0,1-.322.035c-.423,0-.58-.2-.58-.6V37.449h.9v-.78h-.9v-1.4Zm2.87,5.814V34.434h-.813v6.649Zm2.254,0V36.669h-.8v4.414Zm-.985-6.089a.584.584,0,1,0,.58-.625.6.6,0,0,0-.58.625Zm4.215,2.335a1.108,1.108,0,0,1,1.115.934l.737-.329a1.833,1.833,0,0,0-1.852-1.4,2.158,2.158,0,0,0-2.1,2.339,2.18,2.18,0,0,0,2.1,2.355,1.93,1.93,0,0,0,1.88-1.38l-.72-.33a1.149,1.149,0,0,1-1.16.91c-.674,0-1.272-.54-1.272-1.555s.605-1.539,1.265-1.539Zm3.779,1.155c.02-.651.348-1.165.97-1.165.73,0,.97.494.97,1.11v2.654h.815v-2.8c0-.984-.5-1.744-1.49-1.744a1.454,1.454,0,0,0-1.265.64V34.434h-.809v6.649h.809v-2.6Zm4.735-.065a1.152,1.152,0,0,1,1.134-1.13,1.085,1.085,0,0,1,1.145,1.13Zm2.4,1.149a1.147,1.147,0,0,1-1.17.89,1.275,1.275,0,0,1-1.254-1.34h3.134a2.253,2.253,0,0,0,.015-.275c0-1.379-.715-2.314-2-2.314a2.155,2.155,0,0,0-1.989,2.334,2.148,2.148,0,0,0,2.094,2.36,1.9,1.9,0,0,0,1.87-1.4l-.7-.255Zm9.1,1.515V34.574h-.845v2.78h-3.134v-2.78h-.848v6.509h.848V38.188h3.134v2.895Zm3.43-.63c-.69,0-1.3-.555-1.3-1.585s.608-1.569,1.3-1.569,1.3.55,1.3,1.569-.605,1.585-1.3,1.585Zm0-3.924a2.358,2.358,0,1,0,2.129,2.339,2.171,2.171,0,0,0-2.129-2.339Zm5.119.8a1.115,1.115,0,0,1,1.12.934l.735-.329a1.834,1.834,0,0,0-1.855-1.4,2.16,2.16,0,0,0-2.1,2.339,2.182,2.182,0,0,0,2.105,2.355,1.929,1.929,0,0,0,1.879-1.38l-.719-.33a1.147,1.147,0,0,1-1.16.91c-.675,0-1.273-.54-1.273-1.555s.608-1.539,1.263-1.539Zm3.784,1.155c.015-.651.345-1.165.97-1.165.725,0,.97.494.97,1.11v2.654h.81v-2.8c0-.984-.493-1.744-1.485-1.744a1.442,1.442,0,0,0-1.265.64V34.434h-.815v6.649h.815v-2.6Zm3.81,1.454a1.594,1.594,0,0,0,1.7,1.285,1.415,1.415,0,0,0,1.524-1.37,1.318,1.318,0,0,0-1.15-1.315l-.674-.154a.532.532,0,0,1-.48-.535.642.642,0,0,1,.695-.585.823.823,0,0,1,.864.735l.72-.285a1.5,1.5,0,0,0-1.584-1.185,1.451,1.451,0,0,0-1.48,1.395,1.233,1.233,0,0,0,1.04,1.239l.709.165c.345.085.535.295.535.57,0,.315-.249.59-.709.59a.906.906,0,0,1-.97-.83l-.735.28Zm6.194-2.609a1.108,1.108,0,0,1,1.115.934l.737-.329a1.827,1.827,0,0,0-1.852-1.4,2.16,2.16,0,0,0-2.1,2.339,2.182,2.182,0,0,0,2.105,2.355,1.929,1.929,0,0,0,1.877-1.38l-.717-.33a1.15,1.15,0,0,1-1.16.91c-.675,0-1.275-.54-1.275-1.555s.605-1.539,1.265-1.539Zm3.779,1.155c.02-.651.35-1.165.97-1.165.73,0,.972.494.972,1.11v2.654h.813v-2.8c0-.984-.493-1.744-1.49-1.744a1.454,1.454,0,0,0-1.265.64V34.434h-.81v6.649h.81v-2.6Zm6.9,2.069a3.687,3.687,0,0,0,.035.53h.778a7.616,7.616,0,0,1-.043-.815v-3.6H584.3v2.659c0,.675-.327,1.13-.985,1.13-.684,0-.944-.53-.944-1.135V36.669h-.815v2.779a1.6,1.6,0,0,0,1.56,1.775,1.346,1.346,0,0,0,1.229-.67Zm3.045.53V34.434h-.813v6.649Zm2.04-2.664a1.152,1.152,0,0,1,1.134-1.13,1.085,1.085,0,0,1,1.145,1.13Zm2.4,1.149a1.147,1.147,0,0,1-1.17.89,1.274,1.274,0,0,1-1.254-1.34h3.132a1.853,1.853,0,0,0,.017-.275c0-1.379-.717-2.314-2-2.314a2.155,2.155,0,0,0-1.989,2.334,2.148,2.148,0,0,0,2.094,2.36,1.9,1.9,0,0,0,1.87-1.4l-.7-.255Zm6.285-2.119v-.78h-1v-.7c0-.61.372-.755.657-.755a.859.859,0,0,1,.355.055V34.5a.981.981,0,0,0-.485-.09,1.362,1.362,0,0,0-1.367,1.515v.745h-.77v.78h.77v3.634h.84V37.449Zm3.749,3.1a4,4,0,0,0,.035.53h.78a7.007,7.007,0,0,1-.045-.815v-3.6h-.813v2.659c0,.675-.327,1.13-.987,1.13-.685,0-.945-.53-.945-1.135V36.669h-.812v2.779a1.6,1.6,0,0,0,1.557,1.775,1.346,1.346,0,0,0,1.23-.67Zm-2.33-5.174a.509.509,0,0,0,.5.535.534.534,0,1,0-.5-.535Zm1.62,0a.5.5,0,1,0,1,0,.515.515,0,0,0-.5-.53.51.51,0,0,0-.5.53Zm5.254,1.24a2.106,2.106,0,0,0-.27-.025,1.292,1.292,0,0,0-1.245.845v-.77h-.8v4.414h.813V38.868c0-.974.459-1.359,1.144-1.359a2.238,2.238,0,0,1,.355.03v-.92Z" fill="#fff"/></svg>