<?xml version="1.0" encoding="UTF-8" standalone="no"?>
<svg
   xmlns:dc="http://purl.org/dc/elements/1.1/"
   xmlns:cc="http://creativecommons.org/ns#"
   xmlns:rdf="http://www.w3.org/1999/02/22-rdf-syntax-ns#"
   xmlns:svg="http://www.w3.org/2000/svg"
   xmlns="http://www.w3.org/2000/svg"
   xmlns:sodipodi="http://sodipodi.sourceforge.net/DTD/sodipodi-0.dtd"
   xmlns:inkscape="http://www.inkscape.org/namespaces/inkscape"
   id="Ebene_1"
   data-name="Ebene 1"
   viewBox="0 0 636.1682 84.750421"
   version="1.1"
   sodipodi:docname="bwms_mhst_desktop.svg"
   width="636.16821"
   height="84.75042"
   inkscape:version="0.92.5 (2060ec1f9f, 2020-04-08)">
  <metadata
     id="metadata167">
    <rdf:RDF>
      <cc:Work
         rdf:about="">
        <dc:format>image/svg+xml</dc:format>
        <dc:type
           rdf:resource="http://purl.org/dc/dcmitype/StillImage" />
        <dc:title></dc:title>
      </cc:Work>
    </rdf:RDF>
  </metadata>
  <defs
     id="defs165" />
  <sodipodi:namedview
     pagecolor="#ffffff"
     bordercolor="#666666"
     borderopacity="1"
     objecttolerance="10"
     gridtolerance="10"
     guidetolerance="10"
     inkscape:pageopacity="0"
     inkscape:pageshadow="2"
     inkscape:window-width="1976"
     inkscape:window-height="1088"
     id="namedview163"
     showgrid="false"
     fit-margin-top="15"
     fit-margin-left="15"
     fit-margin-right="15"
     fit-margin-bottom="15"
     inkscape:zoom="0.89937416"
     inkscape:cx="213.76001"
     inkscape:cy="27.014991"
     inkscape:window-x="72"
     inkscape:window-y="27"
     inkscape:window-maximized="1"
     inkscape:current-layer="Ebene_1" />
  <path
     d="m 403.85191,51.724893 c 0,2.187154 -2.41231,3.969042 -5.38426,3.969042 -2.97196,0 -5.38105,-1.781888 -5.38105,-3.969042 0,-2.187154 2.41231,-3.961001 5.38105,-3.961001 2.96874,0 5.38426,1.772238 5.38426,3.961001 z"
     id="path2"
     inkscape:connector-curvature="0"
     style="fill:#ffffff;stroke-width:1.60820162" />
  <path
     d="m 421.95543,47.763892 c 0,2.185546 -2.4123,3.961001 -5.38747,3.961001 -2.97518,0 -5.38105,-1.769022 -5.38105,-3.961001 0,-2.191979 2.41231,-3.969041 5.38105,-3.969041 2.96874,0 5.38747,1.778671 5.38747,3.969041 z"
     id="path4"
     inkscape:connector-curvature="0"
     style="fill:#ffffff;stroke-width:1.60820162" />
  <rect
     x="401.18069"
     y="32.17881"
     width="2.7484167"
     height="19.546083"
     id="rect6"
     style="fill:#ffffff;stroke-width:1.60820162" />
  <rect
     x="419.23917"
     y="28.216202"
     width="2.7484167"
     height="19.546083"
     id="rect8"
     style="fill:#ffffff;stroke-width:1.60820162" />
  <rect
     x="402.55573"
     y="29.348373"
     width="18.058496"
     height="5.8393803"
     id="rect10"
     style="fill:#ffffff;stroke-width:1.60820162" />
  <path
     d="m 421.9876,36.562768 h -20.80692 v -8.587797 h 20.80692 z m -18.0585,-2.748417 h 15.31008 V 30.721779 H 403.9291 Z"
     id="path12"
     inkscape:connector-curvature="0"
     style="fill:#ffffff;stroke-width:1.60820162" />
  <path
     d="m 33.867422,47.44386 a 13.417227,13.417227 0 0 0 -1.207759,-6.657955 4.4756252,4.4756252 0 0 0 -4.145944,-1.958789 q -0.915067,0 -1.892854,0.0981 c -0.65293,0.06594 -1.286561,0.139913 -1.894461,0.228364 V 65.658352 H 15 V 32.495626 q 1.239923,-0.321641 2.904412,-0.686703 1.664489,-0.365061 3.526786,-0.652929 1.86069,-0.294301 3.819479,-0.456729 1.95879,-0.162429 3.859684,-0.160821 a 16.199415,16.199415 0 0 1 6.037189,0.945623 13.626293,13.626293 0 0 1 3.819479,2.251482 18.172679,18.172679 0 0 1 9.79234,-3.197105 17.17881,17.17881 0 0 1 6.754447,1.141823 10.150969,10.150969 0 0 1 4.208664,3.230878 12.199818,12.199818 0 0 1 2.15499,4.961302 31.985523,31.985523 0 0 1 0.586994,6.397426 V 65.658352 H 52.733236 V 47.44386 a 13.417227,13.417227 0 0 0 -1.20776,-6.657955 4.474017,4.474017 0 0 0 -4.145944,-1.958789 8.7823893,8.7823893 0 0 0 -2.185546,0.390793 8.4173275,8.4173275 0 0 0 -2.317418,0.981003 14.938585,14.938585 0 0 1 0.586993,3.16494 q 0.133481,1.664489 0.131873,3.557343 v 18.737157 h -9.728012 z"
     id="path14"
     inkscape:connector-curvature="0"
     style="fill:#ffffff;stroke-width:1.60820162" />
  <path
     d="m 100.58528,64.482757 a 54.181922,54.181922 0 0 1 -6.39743,1.338024 52.588195,52.588195 0 0 1 -8.225951,0.620765 19.526785,19.526785 0 0 1 -7.278721,-1.175595 11.038696,11.038696 0 0 1 -4.602673,-3.296813 12.865613,12.865613 0 0 1 -2.412303,-5.059403 27.178608,27.178608 0 0 1 -0.717258,-6.461754 V 31.318422 h 9.726404 v 17.953963 a 13.902903,13.902903 0 0 0 1.239923,6.789828 4.9371791,4.9371791 0 0 0 4.634838,2.090662 q 1.043722,0 2.220926,-0.09971 c 0.781586,-0.06433 1.479546,-0.139913 2.090662,-0.226756 V 31.318422 h 9.726403 z"
     id="path16"
     inkscape:connector-curvature="0"
     style="fill:#ffffff;stroke-width:1.60820162" />
  <path
     d="m 119.58296,58.672324 a 9.7199709,9.7199709 0 0 0 3.7841,-0.521057 2.0199013,2.0199013 0 0 0 1.11127,-2.024726 2.4766306,2.4766306 0 0 0 -1.43773,-2.055282 27.178608,27.178608 0 0 0 -4.3727,-1.992562 44.857569,44.857569 0 0 1 -4.14595,-1.760981 12.177303,12.177303 0 0 1 -3.16494,-2.188762 8.8290272,8.8290272 0 0 1 -2.02312,-3.034677 11.197908,11.197908 0 0 1 -0.71886,-4.244044 9.1780069,9.1780069 0 0 1 3.5895,-7.634133 15.622071,15.622071 0 0 1 9.85828,-2.806312 31.728211,31.728211 0 0 1 6.00502,0.553221 28.227156,28.227156 0 0 1 4.57051,1.20776 l -1.69826,7.569805 a 35.328974,35.328974 0 0 0 -3.6876,-1.043723 20.102521,20.102521 0 0 0 -4.47241,-0.456729 q -4.5689,0 -4.57051,2.545783 a 2.6310179,2.6310179 0 0 0 0.1962,1.043723 2.2209265,2.2209265 0 0 0 0.7848,0.881295 11.000099,11.000099 0 0 0 1.59855,0.918283 q 1.01317,0.492109 2.57313,1.085536 a 39.778868,39.778868 0 0 1 5.2942,2.331892 12.619558,12.619558 0 0 1 3.2952,2.48628 7.6630809,7.6630809 0 0 1 1.69826,2.963916 13.169563,13.169563 0 0 1 0.48246,3.779274 8.7068038,8.7068038 0 0 1 -3.81787,7.685595 19.055582,19.055582 0 0 1 -10.8055,2.605287 30.478638,30.478638 0 0 1 -11.81707,-2.090662 l 1.63393,-7.899487 a 31.63011,31.63011 0 0 0 5.09157,1.534225 24.634433,24.634433 0 0 0 5.16554,0.561262 z"
     id="path18"
     inkscape:connector-curvature="0"
     style="fill:#ffffff;stroke-width:1.60820162" />
  <path
     d="m 152.02682,21.395818 a 5.3360131,5.3360131 0 0 1 -1.73042,4.210272 6.1947928,6.1947928 0 0 1 -8.16163,0 5.3311885,5.3311885 0 0 1 -1.73042,-4.210272 5.3424459,5.3424459 0 0 1 1.73042,-4.210272 6.1947928,6.1947928 0 0 1 8.16163,0 5.3472705,5.3472705 0 0 1 1.73042,4.210272 z m -0.91506,44.262534 h -9.72802 v -34.33993 h 9.72802 z"
     id="path20"
     inkscape:connector-curvature="0"
     style="fill:#ffffff;stroke-width:1.60820162" />
  <path
     d="m 158.61884,48.494016 a 20.263341,20.263341 0 0 1 1.20615,-7.018192 16.419739,16.419739 0 0 1 9.04292,-9.629912 18.333499,18.333499 0 0 1 7.44115,-1.434515 24.031358,24.031358 0 0 1 5.02724,0.48246 24.766306,24.766306 0 0 1 4.44024,1.40396 l -2.02472,7.77083 a 24.197002,24.197002 0 0 0 -3.00252,-0.915067 15.64941,15.64941 0 0 0 -3.65544,-0.392401 7.7016778,7.7016778 0 0 0 -6.4328,2.676048 11.019398,11.019398 0 0 0 -2.11961,7.056789 11.406974,11.406974 0 0 0 1.99095,7.18062 q 1.98935,2.544175 6.95226,2.545783 a 23.936474,23.936474 0 0 0 3.78731,-0.32164 15.999998,15.999998 0 0 0 3.72138,-1.045331 l 1.37019,7.965423 a 22.900792,22.900792 0 0 1 -4.24244,1.239923 27.939288,27.939288 0 0 1 -5.61584,0.522666 21.136595,21.136595 0 0 1 -8.09569,-1.40396 15.277916,15.277916 0 0 1 -5.58206,-3.817871 14.896772,14.896772 0 0 1 -3.19711,-5.71394 24.20826,24.20826 0 0 1 -1.01156,-7.151673 z"
     id="path22"
     inkscape:connector-curvature="0"
     style="fill:#ffffff;stroke-width:1.60820162" />
  <path
     d="m 202.42465,61.414308 a 15.163734,15.163734 0 0 0 2.77254,-0.260529 8.3626487,8.3626487 0 0 0 2.48145,-0.84913 4.9854252,4.9854252 0 0 0 1.76902,-1.608202 4.3743085,4.3743085 0 0 0 0.6851,-2.512011 4.3131969,4.3131969 0 0 0 -0.32164,-1.730425 4.1604177,4.1604177 0 0 0 -1.04373,-1.40396 10.434012,10.434012 0 0 0 -1.79636,-1.272087 q -1.07588,-0.619158 -2.57312,-1.40396 -1.50206,-0.71565 -2.73394,-1.436125 a 9.9515519,9.9515519 0 0 1 -2.18555,-1.698261 6.8557637,6.8557637 0 0 1 -1.46829,-2.317418 8.8451092,8.8451092 0 0 1 -0.52266,-3.230877 9.7698251,9.7698251 0 0 1 3.52518,-7.865715 q 3.52678,-2.971956 10.24907,-2.971956 a 22.032363,22.032363 0 0 1 5.51773,0.620766 15.018995,15.018995 0 0 1 3.29521,1.143431 l -2.28365,4.961302 a 14.536535,14.536535 0 0 0 -2.93818,-1.111267 16.16886,16.16886 0 0 0 -4.50297,-0.586994 12.1178,12.1178 0 0 0 -2.47984,0.260529 7.0760873,7.0760873 0 0 0 -2.25148,0.882902 4.8857167,4.8857167 0 0 0 -1.63233,1.630717 4.5881994,4.5881994 0 0 0 -0.61916,2.449291 3.6152373,3.6152373 0 0 0 1.36858,2.904412 18.555431,18.555431 0 0 0 4.11378,2.383355 29.801585,29.801585 0 0 1 3.03629,1.598553 10.935771,10.935771 0 0 1 2.28525,1.828525 6.8235997,6.8235997 0 0 1 1.43613,2.381747 9.7714333,9.7714333 0 0 1 0.48246,3.264649 10.691325,10.691325 0 0 1 -1.04373,4.824605 9.5478933,9.5478933 0 0 1 -2.90602,3.46085 13.12775,13.12775 0 0 1 -4.40647,2.055282 21.300631,21.300631 0 0 1 -5.5499,0.685094 24.968939,24.968939 0 0 1 -4.02051,-0.294301 26.329478,26.329478 0 0 1 -3.13117,-0.683486 14.650717,14.650717 0 0 1 -2.22092,-0.816966 q -0.8813,-0.424566 -1.33803,-0.685094 l 2.34959,-4.961302 c 0.30555,0.173685 0.72851,0.390793 1.27369,0.651321 a 18.172679,18.172679 0 0 0 1.95879,0.784803 18.566688,18.566688 0 0 0 2.51201,0.652929 15.396923,15.396923 0 0 0 2.85778,0.275003 z"
     id="path24"
     inkscape:connector-curvature="0"
     style="fill:#ffffff;stroke-width:1.60820162" />
  <path
     d="m 234.0837,66.505874 a 15.724996,15.724996 0 0 1 -5.74288,-0.945622 11.418232,11.418232 0 0 1 -4.04946,-2.61172 10.421147,10.421147 0 0 1 -2.4123,-3.883807 14.052466,14.052466 0 0 1 -0.78158,-4.700773 28.45552,28.45552 0 0 1 1.37018,-8.812945 24.161622,24.161622 0 0 1 3.91598,-7.507086 19.049149,19.049149 0 0 1 6.20283,-5.191275 17.516533,17.516533 0 0 1 8.29028,-1.929842 13.719568,13.719568 0 0 1 4.60106,0.686702 8.4832638,8.4832638 0 0 1 3.13439,1.859082 7.5054772,7.5054772 0 0 1 1.79636,2.708211 8.8113369,8.8113369 0 0 1 0.58699,3.166549 11.069252,11.069252 0 0 1 -1.11126,5.191275 10.84732,10.84732 0 0 1 -2.93658,3.557342 13.581263,13.581263 0 0 1 -4.2746,2.220927 37.681773,37.681773 0 0 1 -5.09317,1.238315 48.519444,48.519444 0 0 1 -5.35371,0.620766 q -2.70982,0.16082 -5.12373,0.292693 a 7.2111763,7.2111763 0 0 0 -0.0659,0.850738 v 0.521058 a 10.966327,10.966327 0 0 0 0.35862,2.840084 5.2925917,5.2925917 0 0 0 1.33803,2.349582 6.6869025,6.6869025 0 0 0 2.71143,1.600161 14.399838,14.399838 0 0 0 4.53512,0.586994 15.244144,15.244144 0 0 0 2.57313,-0.228365 21.964818,21.964818 0 0 0 2.549,-0.582169 c 0.8041,-0.238014 1.52457,-0.48246 2.15499,-0.717258 a 4.9034069,4.9034069 0 0 0 1.33802,-0.686702 l 0.52106,5.157503 a 21.389082,21.389082 0 0 1 -4.21027,1.534224 25.38868,25.38868 0 0 1 -6.822,0.815358 z m -6.20122,-18.669613 q 3.7841,-0.130264 6.91527,-0.48246 a 22.104732,22.104732 0 0 0 5.41964,-1.239924 8.6038789,8.6038789 0 0 0 3.55734,-2.383355 5.8442049,5.8442049 0 0 0 1.27209,-3.917579 3.7455017,3.7455017 0 0 0 -0.22676,-1.239923 3.2164033,3.2164033 0 0 0 -0.7832,-1.20776 4.1555931,4.1555931 0 0 0 -1.53422,-0.91185 7.0680463,7.0680463 0 0 0 -2.4123,-0.360237 9.5848819,9.5848819 0 0 0 -4.27782,0.977786 13.005527,13.005527 0 0 0 -3.55573,2.573123 15.617246,15.617246 0 0 0 -2.67766,3.721379 20.195797,20.195797 0 0 0 -1.69665,4.4708 z"
     id="path26"
     inkscape:connector-curvature="0"
     style="fill:#ffffff;stroke-width:1.60820162" />
  <path
     d="m 275.27618,66.049145 q -0.32164,-0.71565 -0.65293,-1.598552 a 12.309176,12.309176 0 0 1 -0.52105,-1.862298 19.6474,19.6474 0 0 1 -3.85969,2.61172 12.365463,12.365463 0 0 1 -5.9407,1.305859 12.079203,12.079203 0 0 1 -4.92913,-0.913458 8.7888221,8.7888221 0 0 1 -3.36115,-2.545783 10.636646,10.636646 0 0 1 -1.92984,-3.851643 18.172679,18.172679 0 0 1 -0.62076,-4.896974 25.570407,25.570407 0 0 1 1.46989,-8.550809 21.813647,21.813647 0 0 1 4.40648,-7.442757 22.072568,22.072568 0 0 1 7.37682,-5.287767 24.832242,24.832242 0 0 1 10.37933,-2.023118 25.507687,25.507687 0 0 1 4.11378,0.390793 13.052165,13.052165 0 0 1 4.04624,1.30586 l -5.01438,20.499747 q -0.32164,1.500452 -0.55483,2.872248 a 17.219015,17.219015 0 0 0 -0.22997,2.872248 18.090661,18.090661 0 0 0 0.26214,3.034677 18.674438,18.674438 0 0 0 0.91185,3.296813 z m -9.72962,-4.699165 a 8.9625079,8.9625079 0 0 0 4.70078,-1.177204 15.022212,15.022212 0 0 0 3.39491,-2.733943 c 0.0418,-0.738164 0.11901,-1.510101 0.22676,-2.31581 0.10775,-0.805709 0.25248,-1.621067 0.42456,-2.449291 l 3.91758,-16.189766 a 4.1652423,4.1652423 0 0 0 -1.07589,-0.194593 c -0.50176,-0.04342 -0.94723,-0.06594 -1.33963,-0.06594 a 15.364759,15.364759 0 0 0 -6.72228,1.437732 15.983916,15.983916 0 0 0 -5.12695,3.817871 16.852345,16.852345 0 0 0 -3.26304,5.548296 19.324151,19.324151 0 0 0 -1.14343,6.627399 15.29239,15.29239 0 0 0 0.26053,2.77254 6.9152672,6.9152672 0 0 0 0.94884,2.481455 5.4099904,5.4099904 0 0 0 1.82852,1.769022 5.7042913,5.7042913 0 0 0 2.96874,0.672228 z"
     id="path28"
     inkscape:connector-curvature="0"
     style="fill:#ffffff;stroke-width:1.60820162" />
  <path
     d="m 305.69693,30.993565 c 0.52427,0 1.11126,0.02252 1.76902,0.06433 a 18.428383,18.428383 0 0 1 1.92984,0.229973 q 0.94562,0.16082 1.73042,0.32164 a 5.0368876,5.0368876 0 0 1 1.17399,0.357021 l -1.76902,5.287767 a 13.918985,13.918985 0 0 0 -3.00251,-0.783194 21.733237,21.733237 0 0 0 -3.26304,-0.260529 18.750023,18.750023 0 0 0 -2.71143,0.196201 13.830534,13.830534 0 0 0 -2.31581,0.521057 l -6.91527,28.725699 h -6.079 l 7.83355,-32.646494 a 37.733236,37.733236 0 0 1 5.61423,-1.468288 32.982608,32.982608 0 0 1 6.00503,-0.545181 z"
     id="path30"
     inkscape:connector-curvature="0"
     style="fill:#ffffff;stroke-width:1.60820162" />
  <path
     d="m 310.46363,53.514821 a 27.464868,27.464868 0 0 1 1.33803,-8.552416 21.601365,21.601365 0 0 1 3.94974,-7.244949 18.97678,18.97678 0 0 1 15.08011,-6.855763 27.661069,27.661069 0 0 1 4.11217,0.294301 12.999094,12.999094 0 0 1 3.72138,1.141823 l -2.28526,5.099607 a 9.290581,9.290581 0 0 0 -2.44768,-0.913458 16.498541,16.498541 0 0 0 -3.62167,-0.321641 11.702884,11.702884 0 0 0 -5.74449,1.40396 13.962407,13.962407 0 0 0 -4.34215,3.721379 16.710824,16.710824 0 0 0 -2.74198,5.353703 21.003114,21.003114 0 0 0 -0.94723,6.299326 13.698662,13.698662 0 0 0 0.35863,3.198714 6.6354401,6.6354401 0 0 0 1.27369,2.643883 6.140114,6.140114 0 0 0 2.44768,1.796361 10.001406,10.001406 0 0 0 3.88542,0.651322 14.412703,14.412703 0 0 0 2.48145,-0.228365 22.003415,22.003415 0 0 0 2.41231,-0.553221 q 1.10805,-0.32164 1.98934,-0.686702 a 4.9934662,4.9934662 0 0 0 1.2737,-0.685094 l 0.52106,5.157503 a 15.628504,15.628504 0 0 1 -3.85004,1.532616 21.490399,21.490399 0 0 1 -5.9423,0.75103 15.144435,15.144435 0 0 1 -5.5483,-0.945623 10.958286,10.958286 0 0 1 -4.04784,-2.677655 11.537239,11.537239 0 0 1 -2.47985,-4.112172 15.522362,15.522362 0 0 1 -0.84592,-5.268469 z"
     id="path32"
     inkscape:connector-curvature="0"
     style="fill:#ffffff;stroke-width:1.60820162" />
  <path
     d="M 337.03273,65.658352 348.97846,16.043723 355.31155,15 351.13023,32.167552 a 23.589102,23.589102 0 0 1 3.16816,-0.84913 17.458637,17.458637 0 0 1 3.36275,-0.32164 14.10232,14.10232 0 0 1 5.05779,0.815358 9.0461344,9.0461344 0 0 1 3.42869,2.220926 8.7035874,8.7035874 0 0 1 1.92984,3.393306 14.600863,14.600863 0 0 1 0.61916,4.342144 27.236503,27.236503 0 0 1 -0.91346,6.529299 l -4.18133,17.368578 h -6.06613 l 3.85164,-16.06111 q 0.45673,-1.826917 0.8813,-3.71977 a 16.419739,16.419739 0 0 0 0.42456,-3.591115 6.5695038,6.5695038 0 0 0 -1.43612,-4.342144 q -1.43613,-1.728817 -5.35371,-1.730425 a 18.550606,18.550606 0 0 0 -3.23087,0.294301 11.15127,11.15127 0 0 0 -2.77415,0.815358 l -6.78983,28.333297 z"
     id="path34"
     inkscape:connector-curvature="0"
     style="fill:#ffffff;stroke-width:1.60820162" />
  <polygon
     points="334.627,41.441 346.968,41.441 346.968,47.945 333.648,47.945 334.4,42.959 333.644,47.945 360.154,47.945 358.54,37.214 335.266,37.232 "
     stroke-miterlimit="10"
     id="polygon36"
     style="opacity:0.92000002;fill:none;stroke:#ffffff;stroke-width:0.54500002;stroke-miterlimit:10"
     transform="matrix(1.6082017,0,0,1.6082017,-51.590806,-7.7930427)" />
  <path
     d="m 488.25194,36.773442 h 35.7857 V 30.87295 h -35.7857 z m 36.47562,0.643281 h -37.17197 v -7.195094 h 37.17197 z"
     id="path38"
     inkscape:connector-curvature="0"
     style="fill:#ffffff;stroke-width:1.60820162" />
  <path
     d="m 488.25194,49.680869 h 35.79696 v -9.832545 h -35.79696 z m 36.49331,0.657754 H 487.55559 V 39.19861 h 37.18966 z"
     id="path40"
     inkscape:connector-curvature="0"
     style="fill:#ffffff;stroke-width:1.60820162" />
  <path
     d="m 488.28249,19.112172 -4.40647,-2.87064 44.56809,-0.01126 -4.38235,2.881897 v 8.706804 h -35.77927 z m 42.36968,-3.538044 -49.00673,0.01608 5.9407,3.859684 v 9.022011 h 37.17198 v -9.023619 z"
     id="path42"
     inkscape:connector-curvature="0"
     style="fill:#ffffff;stroke-width:1.60820162" />
  <polygon
     points="334.63,41.441 325.458,41.441 325.458,47.945 333.648,47.945 "
     stroke-miterlimit="10"
     id="polygon44"
     style="opacity:0.92000002;fill:none;stroke:#ffffff;stroke-width:0.54500002;stroke-miterlimit:10"
     transform="matrix(1.6082017,0,0,1.6082017,-51.590806,-7.7930427)" />
  <polygon
     points="346.968,41.441 334.627,41.441 333.648,47.945 346.968,47.945 "
     stroke-miterlimit="10"
     id="polygon46"
     style="opacity:0.92000002;fill:none;stroke:#ffffff;stroke-width:0.54500002;stroke-miterlimit:10"
     transform="matrix(1.6082017,0,0,1.6082017,-51.590806,-7.7930427)" />
  <path
     d="m 534.30279,31.665794 c -0.16082,-0.508192 -0.4326,-1.125741 -1.16434,-1.125741 a 0.85877969,0.85877969 0 0 0 -0.89576,0.918283 c 0,0.48246 0.3538,0.8041 1.02764,1.125741 l 0.22193,0.102925 a 1.8413909,1.8413909 0 0 1 1.31872,1.683787 1.8140515,1.8140515 0 0 1 -1.99738,1.769022 2.711428,2.711428 0 0 1 -0.87326,-0.149563 c -0.24444,-0.0788 -0.40526,-0.147955 -0.50658,-0.18816 -0.0692,-0.221932 -0.1769,-0.821791 -0.26374,-1.352497 l 0.26374,-0.08523 c 0.17047,0.450296 0.64328,1.42165 1.54548,1.42165 a 0.91828315,0.91828315 0 0 0 0.91829,-0.987436 c 0,-0.48246 -0.23319,-0.839481 -0.92311,-1.182028 l -0.27983,-0.136697 c -0.58217,-0.295909 -1.31873,-0.763896 -1.31873,-1.621067 a 1.6966528,1.6966528 0 0 1 1.86552,-1.670922 2.6036785,2.6036785 0 0 1 0.8041,0.12544 c 0.1367,0.05146 0.26214,0.06754 0.36506,0.114183 0.0354,0.307166 0.0852,0.689918 0.1769,1.180419 z"
     id="path48"
     inkscape:connector-curvature="0"
     style="fill:#ffffff;stroke-width:1.60820162" />
  <path
     d="m 536.186,31.712431 c 0.0402,-0.583777 0.0917,-1.159513 0.10935,-1.608201 h 0.16082 c 0.12544,0.20585 0.21068,0.221932 0.45513,0.221932 h 3.60719 a 0.42456524,0.42456524 0 0 0 0.41653,-0.221932 h 0.14313 c 0.0161,0.365062 0.0515,1.026032 0.10292,1.592119 l -0.26374,0.01769 a 1.5181424,1.5181424 0 0 0 -0.32164,-0.816967 c -0.14796,-0.16082 -0.42779,-0.217107 -0.96493,-0.217107 h -0.45029 v 4.020504 c 0,0.940798 0.0675,1.016384 0.87325,1.066238 v 0.246055 h -2.69374 v -0.246055 c 0.77033,-0.04985 0.83788,-0.12544 0.83788,-1.066238 v -4.020503 h -0.29591 c -0.75425,0 -0.98261,0.102925 -1.12574,0.262137 a 1.91376,1.91376 0 0 0 -0.32164,0.771937 z"
     id="path50"
     inkscape:connector-curvature="0"
     style="fill:#ffffff;stroke-width:1.60820162" />
  <path
     d="m 543.4229,33.60046 h 1.3911 l -0.68349,-1.929842 h -0.0241 z m 1.1756,-3.377223 0.59825,1.6275 c 0.39401,1.066237 0.78159,2.150165 1.11288,3.023419 0.29751,0.783194 0.42295,0.845914 0.92471,0.895768 v 0.246055 h -2.29973 v -0.246055 l 0.24606,-0.03377 c 0.33611,-0.05629 0.3538,-0.14313 0.24444,-0.472811 -0.0852,-0.263745 -0.2959,-0.804101 -0.48246,-1.262439 h -1.62106 c -0.11419,0.263745 -0.26696,0.754247 -0.3924,1.125742 -0.16082,0.467986 -0.0868,0.582169 0.30234,0.622374 l 0.24444,0.02734 v 0.246055 h -1.94592 V 35.77636 c 0.54196,-0.06754 0.64328,-0.10775 0.94723,-0.895768 l 1.76902,-4.547994 z"
     id="path52"
     inkscape:connector-curvature="0"
     style="fill:#ffffff;stroke-width:1.60820162" />
  <path
     d="m 550.00206,33.60046 h 1.38627 l -0.67866,-1.929842 h -0.029 z m 1.16916,-3.377223 0.60629,1.6275 c 0.3924,1.066237 0.77515,2.150165 1.10644,3.023419 0.30235,0.783194 0.42296,0.845914 0.92954,0.895768 v 0.246055 h -2.29972 v -0.246055 l 0.24605,-0.03377 c 0.33129,-0.05629 0.34737,-0.14313 0.24606,-0.472811 -0.0917,-0.263745 -0.30235,-0.804101 -0.48246,-1.262439 h -1.60821 c -0.11418,0.263745 -0.275,0.754247 -0.39401,1.125742 -0.16082,0.467986 -0.0917,0.582169 0.29591,0.622374 l 0.24606,0.02734 v 0.246055 H 548.1076 V 35.77636 c 0.53713,-0.06754 0.63363,-0.10775 0.9424,-0.895768 l 1.76902,-4.547994 z"
     id="path54"
     inkscape:connector-curvature="0"
     style="fill:#ffffff;stroke-width:1.60820162" />
  <path
     d="m 554.0885,31.712431 c 0.0338,-0.583777 0.0852,-1.159513 0.10292,-1.608201 h 0.16082 c 0.11901,0.20585 0.20585,0.221932 0.4503,0.221932 h 3.6072 c 0.22836,0 0.27982,-0.05146 0.41652,-0.221932 h 0.14313 c 0.0161,0.365062 0.0515,1.026032 0.10132,1.592119 l -0.26214,0.01769 a 1.5647802,1.5647802 0 0 0 -0.32164,-0.816967 c -0.14796,-0.16082 -0.42778,-0.217107 -0.97457,-0.217107 h -0.45191 v 4.020504 c 0,0.940798 0.0692,1.016384 0.87326,1.066238 v 0.246055 h -2.69374 v -0.246055 c 0.77194,-0.04985 0.83948,-0.12544 0.83948,-1.066238 v -4.020503 h -0.29591 c -0.75424,0 -0.98261,0.102925 -1.12574,0.262137 a 1.8590811,1.8590811 0 0 0 -0.3136,0.771937 z"
     id="path56"
     inkscape:connector-curvature="0"
     style="fill:#ffffff;stroke-width:1.60820162" />
  <path
     d="m 562.93843,30.321337 v 0.246055 c -0.70118,0.05629 -0.77033,0.12544 -0.77033,1.066238 v 3.047542 c 0,0.508191 0.0515,0.754246 0.19942,0.855563 a 1.4473815,1.4473815 0 0 0 0.71887,0.120615 1.3894862,1.3894862 0 0 0 1.00512,-0.250879 2.5956375,2.5956375 0 0 0 0.42778,-0.884511 l 0.27983,0.05146 c -0.0515,0.279827 -0.24605,1.175596 -0.3136,1.437732 H 560.383 v -0.246054 c 0.73495,-0.04986 0.8041,-0.12544 0.8041,-1.066238 v -3.062016 c 0,-0.940798 -0.0692,-1.00995 -0.77033,-1.066237 v -0.24927 z"
     id="path58"
     inkscape:connector-curvature="0"
     style="fill:#ffffff;stroke-width:1.60820162" />
  <path
     d="m 568.48029,30.321337 v 0.246055 c -0.66258,0.05629 -0.73173,0.12544 -0.73173,1.066238 v 3.065232 c 0,0.940798 0.0692,1.016383 0.73173,1.066238 v 0.246054 h -2.46537 V 35.7651 c 0.67866,-0.04986 0.75264,-0.12544 0.75264,-1.066238 v -3.062016 c 0,-0.940798 -0.074,-1.00995 -0.75264,-1.066238 v -0.249271 z"
     id="path60"
     inkscape:connector-curvature="0"
     style="fill:#ffffff;stroke-width:1.60820162" />
  <path
     d="m 574.90023,31.842696 a 1.5117096,1.5117096 0 0 0 -1.64358,-1.286561 c -1.43773,0 -2.09066,1.19811 -2.09066,2.492712 0,1.6275 0.8041,2.751633 2.09066,2.751633 0.9408,0 1.38145,-0.48246 1.83657,-1.415217 l 0.24605,0.04985 a 12.987837,12.987837 0 0 1 -0.43904,1.455422 7.1822286,7.1822286 0 0 1 -1.64358,0.263745 2.8770728,2.8770728 0 0 1 -3.2164,-2.877072 3.09418,3.09418 0 0 1 3.37722,-3.074882 6.4907019,6.4907019 0 0 1 1.58087,0.228365 c 0.0675,0.48246 0.10131,0.873253 0.15277,1.379837 z"
     id="path62"
     inkscape:connector-curvature="0"
     style="fill:#ffffff;stroke-width:1.60820162" />
  <path
     d="m 579.08317,30.321337 v 0.246055 c -0.65132,0.05629 -0.71887,0.12544 -0.71887,1.066238 v 1.175595 h 2.65836 V 31.63363 c 0,-0.940798 -0.0675,-1.009951 -0.73656,-1.066238 v -0.246055 h 2.48307 v 0.246055 c -0.69636,0.05629 -0.77033,0.12544 -0.77033,1.066238 v 3.065232 c 0,0.940798 0.074,1.016383 0.75264,1.066238 v 0.246054 h -2.53292 V 35.7651 c 0.73655,-0.04986 0.8041,-0.12544 0.8041,-1.066238 V 33.2161 h -2.65836 v 1.489195 c 0,0.940798 0.0676,1.016383 0.75264,1.066237 v 0.246055 h -2.50558 v -0.246055 c 0.70279,-0.04985 0.77033,-0.125439 0.77033,-1.066237 v -3.068449 c 0,-0.940798 -0.0675,-1.00995 -0.8041,-1.066238 v -0.249271 z"
     id="path64"
     inkscape:connector-curvature="0"
     style="fill:#ffffff;stroke-width:1.60820162" />
  <path
     d="m 588.21293,30.321337 c 0.0177,0.14313 0.0515,0.788019 0.10292,1.329983 l -0.26213,0.01769 a 1.5808622,1.5808622 0 0 0 -0.32164,-0.794452 c -0.14796,-0.147954 -0.42779,-0.199416 -0.96493,-0.199416 h -0.43903 c -0.33129,0 -0.34738,0 -0.34738,0.32164 v 1.855864 h 0.75264 c 0.75264,0 0.77033,-0.05146 0.85557,-0.725299 h 0.27982 v 1.849432 h -0.27982 c -0.0852,-0.691526 -0.10293,-0.725299 -0.85557,-0.725299 h -0.75264 v 1.437733 c 0,0.508191 0.0338,0.754246 0.19299,0.861996 a 1.7256004,1.7256004 0 0 0 0.83948,0.114182 1.3814452,1.3814452 0 0 0 1.02121,-0.250879 2.7693233,2.7693233 0 0 0 0.45029,-0.884511 l 0.26375,0.05146 c -0.0402,0.295909 -0.22837,1.191678 -0.30395,1.437732 h -4.26817 v -0.246052 c 0.75425,-0.04986 0.82823,-0.12544 0.82823,-1.066238 v -3.070057 c 0,-0.940798 -0.074,-1.00995 -0.73656,-1.066238 v -0.249271 z"
     id="path66"
     inkscape:connector-curvature="0"
     style="fill:#ffffff;stroke-width:1.60820162" />
  <path
     d="m 595.26007,30.321337 v 0.246055 c -0.64328,0.05629 -0.71887,0.12544 -0.71887,1.066238 v 1.175595 h 2.65997 V 31.63363 c 0,-0.940798 -0.0692,-1.009951 -0.73656,-1.066238 v -0.246055 h 2.48306 v 0.246055 c -0.69635,0.05629 -0.7655,0.12544 -0.7655,1.066238 v 3.065232 c 0,0.940798 0.0691,1.016383 0.74781,1.066238 v 0.246054 h -2.53452 V 35.7651 c 0.73655,-0.04986 0.8041,-0.12544 0.8041,-1.066238 V 33.2161 h -2.65997 v 1.489195 c 0,0.940798 0.0692,1.016383 0.75425,1.066237 v 0.246055 h -2.50558 v -0.246055 c 0.70118,-0.04985 0.77033,-0.125439 0.77033,-1.066237 v -3.068449 c 0,-0.940798 -0.0692,-1.00995 -0.8041,-1.066238 v -0.249271 z"
     id="path68"
     inkscape:connector-curvature="0"
     style="fill:#ffffff;stroke-width:1.60820162" />
  <path
     d="m 601.60603,32.984519 c 0,1.585687 0.70279,2.80792 1.94593,2.80792 0.90702,0 1.6082,-0.759071 1.6082,-2.402653 0,-1.820485 -0.72369,-2.841692 -1.89446,-2.841692 -0.92472,0 -1.65484,0.889335 -1.65484,2.436425 m 4.69112,0.0788 a 2.9156696,2.9156696 0 0 1 -2.96713,3.082922 2.7821889,2.7821889 0 0 1 -2.85938,-2.881897 2.9928633,2.9928633 0 0 1 3.06523,-3.070057 2.7516331,2.7516331 0 0 1 2.76128,2.869032"
     id="path70"
     inkscape:connector-curvature="0"
     style="fill:#ffffff;stroke-width:1.60820162" />
  <path
     d="m 612.83771,31.842696 a 1.514926,1.514926 0 0 0 -1.64358,-1.286561 c -1.43934,0 -2.09066,1.19811 -2.09066,2.492712 0,1.6275 0.8041,2.751633 2.09066,2.751633 0.9408,0 1.37984,-0.48246 1.83174,-1.415217 l 0.24445,0.04985 a 13.026434,13.026434 0 0 1 -0.43261,1.455422 7.1822286,7.1822286 0 0 1 -1.64358,0.263745 2.8770728,2.8770728 0 0 1 -3.2164,-2.877072 3.09418,3.09418 0 0 1 3.37722,-3.074882 6.4826609,6.4826609 0 0 1 1.57604,0.228365 c 0.0675,0.48246 0.10292,0.873253 0.16082,1.379837 z"
     id="path72"
     inkscape:connector-curvature="0"
     style="fill:#ffffff;stroke-width:1.60820162" />
  <path
     d="m 617.01421,30.321337 v 0.246055 c -0.64328,0.05629 -0.71886,0.12544 -0.71886,1.066238 v 1.175595 h 2.65835 V 31.63363 c 0,-0.940798 -0.0675,-1.009951 -0.73012,-1.066238 v -0.246055 h 2.48306 v 0.246055 c -0.70278,0.05629 -0.77033,0.12544 -0.77033,1.066238 v 3.065232 c 0,0.940798 0.0675,1.016383 0.75264,1.066238 v 0.246054 H 618.1496 V 35.7651 c 0.73656,-0.04986 0.8041,-0.12544 0.8041,-1.066238 V 33.2161 h -2.65835 v 1.489195 c 0,0.940798 0.074,1.016383 0.75263,1.066237 v 0.246055 h -2.49914 v -0.246055 c 0.70278,-0.04985 0.77033,-0.125439 0.77033,-1.066237 v -3.068449 c 0,-0.940798 -0.0675,-1.00995 -0.8041,-1.066238 v -0.249271 z"
     id="path74"
     inkscape:connector-curvature="0"
     style="fill:#ffffff;stroke-width:1.60820162" />
  <path
     d="m 625.32218,31.665794 c -0.16082,-0.508192 -0.42778,-1.125741 -1.16273,-1.125741 a 0.85717149,0.85717149 0 0 0 -0.89094,0.918283 c 0,0.48246 0.34737,0.8041 1.02121,1.125741 l 0.22836,0.102925 a 1.8365663,1.8365663 0 0 1 1.31229,1.683787 1.8092269,1.8092269 0 0 1 -1.99095,1.769022 2.7210772,2.7210772 0 0 1 -0.87969,-0.149563 c -0.24444,-0.0788 -0.39883,-0.147955 -0.50658,-0.18816 -0.0692,-0.221932 -0.17208,-0.821791 -0.26375,-1.352497 l 0.26375,-0.08523 c 0.17529,0.450296 0.64328,1.42165 1.55191,1.42165 a 0.92149956,0.92149956 0 0 0 0.91829,-0.987436 c 0,-0.48246 -0.23962,-0.839481 -0.92954,-1.182028 l -0.27983,-0.136697 c -0.57734,-0.295909 -1.31229,-0.763896 -1.31229,-1.621067 a 1.6934364,1.6934364 0 0 1 1.86551,-1.670922 2.5731227,2.5731227 0 0 1 0.79284,0.12544 c 0.14313,0.05146 0.26214,0.06754 0.3715,0.114183 0.0338,0.307166 0.0852,0.689918 0.17047,1.180419 z"
     id="path76"
     inkscape:connector-curvature="0"
     style="fill:#ffffff;stroke-width:1.60820162" />
  <path
     d="m 632.23423,31.842696 a 1.514926,1.514926 0 0 0 -1.64358,-1.286561 c -1.44738,0 -2.09066,1.19811 -2.09066,2.492712 0,1.6275 0.8041,2.751633 2.09066,2.751633 0.9408,0 1.37984,-0.48246 1.83174,-1.415217 l 0.25088,0.04985 a 14.489897,14.489897 0 0 1 -0.43904,1.455422 7.1822286,7.1822286 0 0 1 -1.64358,0.263745 2.8770728,2.8770728 0 0 1 -3.2164,-2.877072 3.09418,3.09418 0 0 1 3.37722,-3.074882 6.4826609,6.4826609 0 0 1 1.57604,0.228365 c 0.0675,0.48246 0.10292,0.873253 0.16082,1.379837 z"
     id="path78"
     inkscape:connector-curvature="0"
     style="fill:#ffffff;stroke-width:1.60820162" />
  <path
     d="m 636.41073,30.321337 v 0.246055 c -0.64328,0.05629 -0.71886,0.12544 -0.71886,1.066238 v 1.175595 h 2.66479 V 31.63363 c 0,-0.940798 -0.074,-1.009951 -0.73656,-1.066238 v -0.246055 h 2.47663 v 0.246055 c -0.70278,0.05629 -0.77033,0.12544 -0.77033,1.066238 v 3.065232 c 0,0.940798 0.0675,1.016383 0.75264,1.066238 v 0.246054 h -2.53935 V 35.7651 c 0.73656,-0.04986 0.8041,-0.12544 0.8041,-1.066238 V 33.2161 H 635.679 v 1.489195 c 0,0.940798 0.074,1.016383 0.75264,1.066237 v 0.246055 h -2.49915 v -0.246055 c 0.70118,-0.04985 0.77033,-0.125439 0.77033,-1.066237 v -3.068449 c 0,-0.940798 -0.0691,-1.00995 -0.8041,-1.066238 v -0.249271 z"
     id="path80"
     inkscape:connector-curvature="0"
     style="fill:#ffffff;stroke-width:1.60820162" />
  <path
     d="m 643.95641,30.321337 v 0.246055 c -0.64328,0.05629 -0.71243,0.10775 -0.71243,1.050155 v 1.847824 c 0,1.387878 0.4503,2.169464 1.48276,2.169464 1.06142,0 1.5873,-0.804101 1.5873,-2.339933 V 32.76902 a 13.642375,13.642375 0 0 0 -0.0804,-1.744899 c -0.045,-0.32164 -0.29109,-0.416524 -0.85074,-0.456729 v -0.246055 h 2.13569 v 0.246055 c -0.44065,0.01608 -0.66901,0.14313 -0.70761,0.456729 a 13.325559,13.325559 0 0 0 -0.0804,1.744899 v 0.622374 a 2.9397926,2.9397926 0 0 1 -0.64328,2.090662 2.2257511,2.2257511 0 0 1 -1.6082,0.657755 2.0311587,2.0311587 0 0 1 -2.21449,-2.505579 v -2.013468 c 0,-0.942406 -0.0675,-0.993868 -0.77033,-1.050156 v -0.249271 z"
     id="path82"
     inkscape:connector-curvature="0"
     style="fill:#ffffff;stroke-width:1.60820162" />
  <path
     d="m 651.28821,30.321337 v 0.246055 c -0.69636,0.05629 -0.77033,0.12544 -0.77033,1.066238 v 3.047542 c 0,0.508191 0.0498,0.754246 0.19941,0.855563 a 1.4473815,1.4473815 0 0 0 0.71887,0.120615 1.3782288,1.3782288 0 0 0 1.00352,-0.250879 2.6744394,2.6744394 0 0 0 0.43421,-0.884511 l 0.27983,0.05146 c -0.0579,0.279827 -0.24606,1.175596 -0.32164,1.437732 h -4.0977 v -0.246054 c 0.73173,-0.04986 0.8041,-0.12544 0.8041,-1.066238 v -3.062016 c 0,-0.940798 -0.0675,-1.00995 -0.76389,-1.066237 v -0.24927 z"
     id="path84"
     inkscape:connector-curvature="0"
     style="fill:#ffffff;stroke-width:1.60820162" />
  <path
     d="m 658.33535,30.321337 c 0.0161,0.14313 0.0515,0.788019 0.10775,1.329983 l -0.26214,0.01769 a 1.6596641,1.6596641 0 0 0 -0.32164,-0.794452 c -0.14796,-0.147954 -0.42778,-0.199416 -0.96492,-0.199416 h -0.44065 c -0.32968,0 -0.34737,0 -0.34737,0.32164 v 1.855864 h 0.75264 c 0.75424,0 0.77033,-0.05146 0.85717,-0.725299 h 0.27822 v 1.849432 h -0.27822 c -0.0868,-0.691526 -0.10293,-0.725299 -0.85717,-0.725299 h -0.75264 v 1.437733 c 0,0.508191 0.0338,0.754246 0.19298,0.861996 a 1.714343,1.714343 0 0 0 0.83948,0.114182 1.379837,1.379837 0 0 0 1.02121,-0.250879 2.7468084,2.7468084 0 0 0 0.44547,-0.884511 l 0.26214,0.05146 c -0.0338,0.295909 -0.22836,1.191678 -0.29591,1.437732 h -4.26817 v -0.246052 c 0.75264,-0.04986 0.8218,-0.12544 0.8218,-1.066238 v -3.070057 c 0,-0.940798 -0.0692,-1.00995 -0.73656,-1.066238 v -0.249271 z"
     id="path86"
     inkscape:connector-curvature="0"
     style="fill:#ffffff;stroke-width:1.60820162" />
  <path
     d="m 535.14227,41.458133 c 0.0177,0.136698 0.0515,0.788019 0.10293,1.296211 l -0.26214,0.03377 a 1.579254,1.579254 0 0 0 -0.32164,-0.781586 c -0.14795,-0.147954 -0.42778,-0.199417 -0.96492,-0.199417 h -0.4503 c -0.33772,0 -0.3538,0 -0.3538,0.321641 v 1.941099 h 0.87808 c 0.74781,0 0.7655,-0.05146 0.85717,-0.702784 h 0.27822 v 1.791537 h -0.27822 c -0.0917,-0.656147 -0.10936,-0.689919 -0.85717,-0.689919 h -0.87808 v 1.363755 c 0,0.947231 0.0675,1.016383 0.87808,1.067846 v 0.244447 h -2.57313 v -0.244447 c 0.64329,-0.05146 0.71887,-0.120615 0.71887,-1.067846 v -3.055583 c 0,-0.947231 -0.074,-1.014775 -0.71887,-1.066238 v -0.246055 z"
     id="path88"
     inkscape:connector-curvature="0"
     style="fill:#ffffff;stroke-width:1.60820162" />
  <path
     d="m 540.20972,40.716753 a 0.43260625,0.43260625 0 0 1 0.43421,-0.450297 0.43903906,0.43903906 0 0 1 0.42778,0.450297 0.43099805,0.43099805 0 0 1 -0.42778,0.445471 0.42617344,0.42617344 0 0 1 -0.43421,-0.445471 m -1.67736,0 a 0.43260625,0.43260625 0 0 1 0.42778,-0.450297 0.44064726,0.44064726 0 0 1 0.43422,0.450297 0.43421445,0.43421445 0 0 1 -0.43422,0.445471 0.42456524,0.42456524 0 0 1 -0.42778,-0.445471 m 0.55966,0.74138 v 0.246055 c -0.64328,0.05146 -0.71404,0.102925 -0.71404,1.050156 v 1.842999 c 0,1.392703 0.45029,2.167856 1.48276,2.167856 1.06302,0 1.58729,-0.804101 1.58729,-2.333501 v -0.525882 a 13.375413,13.375413 0 0 0 -0.0804,-1.751331 c -0.045,-0.321641 -0.29108,-0.416524 -0.84913,-0.450297 v -0.246055 h 2.13409 v 0.246055 c -0.43422,0.01608 -0.66258,0.136697 -0.70761,0.450297 a 13.375413,13.375413 0 0 0 -0.0804,1.751331 v 0.622374 a 2.9301434,2.9301434 0 0 1 -0.64328,2.090663 2.2112773,2.2112773 0 0 1 -1.60821,0.656146 2.0215095,2.0215095 0 0 1 -2.21288,-2.499145 v -2.02151 c 0,-0.947231 -0.0691,-0.998693 -0.77033,-1.050156 v -0.246055 z"
     id="path90"
     inkscape:connector-curvature="0"
     style="fill:#ffffff;stroke-width:1.60820162" />
  <path
     d="m 545.64222,44.362546 h 0.33612 a 1.2350989,1.2350989 0 0 0 0.81696,-0.228365 1.3653632,1.3653632 0 0 0 0.47281,-1.125741 1.1257412,1.1257412 0 0 0 -1.18685,-1.227058 c -0.42135,0 -0.43904,0.03377 -0.43904,0.32164 z m 0.65615,-2.904413 a 2.5827719,2.5827719 0 0 1 1.44738,0.297518 1.2736957,1.2736957 0 0 1 0.57574,1.112875 1.5840786,1.5840786 0 0 1 -1.16434,1.51171 c 0.14313,0.246055 0.48246,0.855563 0.7655,1.249573 a 9.64921,9.64921 0 0 0 0.7253,0.964921 1.2013266,1.2013266 0 0 0 0.60468,0.405266 l -0.0354,0.228365 -0.36988,-0.01608 a 1.7336414,1.7336414 0 0 1 -1.59212,-0.804101 c -0.27983,-0.400442 -0.56609,-0.964921 -0.82179,-1.415217 -0.14313,-0.246055 -0.24606,-0.33129 -0.50819,-0.33129 h -0.27983 v 1.169163 c 0,0.947231 0.0692,1.016383 0.73655,1.067846 v 0.244446 h -2.46537 v -0.244446 c 0.69635,-0.05146 0.7639,-0.120615 0.7639,-1.067846 v -3.055585 c 0,-0.947231 -0.0675,-1.014776 -0.73013,-1.066238 v -0.246055 z"
     id="path92"
     inkscape:connector-curvature="0"
     style="fill:#ffffff;stroke-width:1.60820162" />
  <path
     d="m 554.82345,41.458133 1.92984,4.171676 1.82691,-4.171676 h 1.65484 v 0.246055 c -0.7076,0.06755 -0.74138,0.102925 -0.7253,1.066238 l 0.0852,3.055583 c 0.029,0.982611 0.0515,0.998693 0.75907,1.067846 v 0.244447 h -2.43642 v -0.244447 c 0.68026,-0.06915 0.7076,-0.08523 0.70278,-1.067846 l -0.0402,-3.354708 h -0.0338 l -1.9813,4.575333 h -0.25571 l -1.91215,-4.395215 h -0.0402 l -0.0579,2.265956 a 12.288269,12.288269 0 0 0 0.0241,1.534225 c 0.0338,0.331289 0.22194,0.400442 0.80411,0.451904 v 0.244447 h -2.07137 v -0.244447 c 0.43422,-0.03538 0.61112,-0.120615 0.67384,-0.451904 0.0402,-0.262137 0.10775,-0.781586 0.16082,-1.619459 l 0.0965,-1.802794 c 0.0627,-1.164338 0,-1.251181 -0.75264,-1.318726 v -0.246055 z"
     id="path94"
     inkscape:connector-curvature="0"
     style="fill:#ffffff;stroke-width:1.60820162" />
  <path
     d="m 564.16549,41.458133 v 0.246055 c -0.64328,0.05146 -0.71887,0.102925 -0.71887,1.050156 v 1.842999 c 0,1.392703 0.45673,2.167856 1.4892,2.167856 1.05659,0 1.58086,-0.804101 1.58086,-2.333501 v -0.525882 a 14.253491,14.253491 0 0 0 -0.074,-1.751331 c -0.045,-0.321641 -0.29108,-0.416524 -0.85074,-0.450297 v -0.246055 h 2.1357 v 0.246055 c -0.43904,0.01608 -0.66741,0.136697 -0.70761,0.450297 a 12.900994,12.900994 0 0 0 -0.0788,1.751331 v 0.622374 a 2.9526583,2.9526583 0 0 1 -0.64328,2.090663 2.2080609,2.2080609 0 0 1 -1.61945,0.656146 2.0215095,2.0215095 0 0 1 -2.20967,-2.499145 v -2.02151 c 0,-0.947231 -0.074,-0.998693 -0.77033,-1.050156 v -0.246055 z"
     id="path96"
     inkscape:connector-curvature="0"
     style="fill:#ffffff;stroke-width:1.60820162" />
  <path
     d="m 572.1486,42.792941 c -0.15278,-0.506584 -0.42778,-1.1177 -1.16273,-1.1177 a 0.86038789,0.86038789 0 0 0 -0.89094,0.918283 c 0,0.48246 0.34737,0.816966 1.02121,1.125741 l 0.22836,0.10775 a 1.8285253,1.8285253 0 0 1 1.31229,1.677354 1.8092269,1.8092269 0 0 1 -1.99095,1.769022 2.7757561,2.7757561 0 0 1 -0.87969,-0.147955 c -0.23962,-0.08041 -0.39883,-0.147954 -0.50176,-0.183335 a 13.140616,13.140616 0 0 1 -0.26213,-1.357322 l 0.26213,-0.08684 c 0.17047,0.456729 0.64329,1.428083 1.54709,1.428083 a 0.92310776,0.92310776 0 0 0 0.91829,-0.993868 c 0,-0.482461 -0.23962,-0.839482 -0.92954,-1.175596 l -0.27983,-0.14313 c -0.57734,-0.295909 -1.31229,-0.759071 -1.31229,-1.608202 a 1.6934364,1.6934364 0 0 1 1.86551,-1.670921 2.6068949,2.6068949 0 0 1 0.79284,0.119007 c 0.14313,0.05789 0.26214,0.07398 0.3715,0.114182 0.0338,0.308775 0.0852,0.689919 0.17047,1.18042 z"
     id="path98"
     inkscape:connector-curvature="0"
     style="fill:#ffffff;stroke-width:1.60820162" />
  <path
     d="m 576.61136,41.458133 v 0.246055 c -0.6674,0.05146 -0.73495,0.119007 -0.73495,1.066238 v 3.055583 c 0,0.947231 0.0675,1.016384 0.73495,1.067846 v 0.244447 h -2.46537 v -0.244447 c 0.68027,-0.05146 0.74781,-0.120615 0.74781,-1.067846 v -3.055583 c 0,-0.947231 -0.0675,-1.014775 -0.74781,-1.066238 v -0.246055 z"
     id="path100"
     inkscape:connector-curvature="0"
     style="fill:#ffffff;stroke-width:1.60820162" />
  <path
     d="m 578.14719,47.141518 v -0.244446 c 0.64328,-0.05146 0.71887,-0.120616 0.71887,-1.067846 v -3.055584 c 0,-0.94723 -0.0691,-1.014775 -0.77033,-1.066237 V 41.46135 h 2.44768 v 0.246055 c -0.66257,0.05146 -0.73012,0.119007 -0.73012,1.066237 v 1.46668 a 28.291484,28.291484 0 0 0 1.94593,-2.105136 c 0.21067,-0.262136 0.18815,-0.360237 -0.0402,-0.382752 l -0.3538,-0.04503 v -0.246055 h 2.19197 v 0.246055 a 1.8124433,1.8124433 0 0 0 -1.30746,0.622374 19.58468,19.58468 0 0 0 -1.55835,1.516534 c 0.67384,0.850739 1.44738,1.769022 2.00382,2.412302 0.4326,0.495327 0.59825,0.593427 0.981,0.643281 v 0.244447 h -1.55835 c -0.32164,-0.455121 -1.62589,-2.024726 -2.28686,-2.857775 h -0.0177 v 1.545482 c 0,0.947231 0.0675,1.016384 0.78159,1.067846 v 0.244447 z"
     id="path102"
     inkscape:connector-curvature="0"
     style="fill:#ffffff;stroke-width:1.60820162" />
  <path
     d="m 590.03341,41.458133 v 0.246055 c -0.64328,0.05146 -0.71886,0.102925 -0.71886,1.050156 v 1.842999 c 0,1.392703 0.45673,2.167856 1.48919,2.167856 1.03247,0 1.58086,-0.804101 1.58086,-2.333501 v -0.525882 a 14.253491,14.253491 0 0 0 -0.074,-1.751331 c -0.045,-0.321641 -0.29109,-0.416524 -0.85074,-0.450297 v -0.246055 h 2.13408 v 0.246055 c -0.43904,0.01608 -0.6674,0.136697 -0.70761,0.450297 a 13.830534,13.830534 0 0 0 -0.0788,1.751331 v 0.622374 a 2.9526583,2.9526583 0 0 1 -0.64328,2.090663 2.2080609,2.2080609 0 0 1 -1.6082,0.656146 2.4123025,2.4123025 0 0 1 -1.55835,-0.461554 2.4460747,2.4460747 0 0 1 -0.65615,-2.037591 v -2.02151 c 0,-0.947231 -0.074,-0.998693 -0.77032,-1.050156 v -0.246055 z"
     id="path104"
     inkscape:connector-curvature="0"
     style="fill:#ffffff;stroke-width:1.60820162" />
  <path
     d="m 596.13975,41.458133 3.48659,4.108956 h 0.0225 v -1.661273 a 13.830534,13.830534 0 0 0 -0.0788,-1.751331 c -0.0466,-0.321641 -0.29109,-0.416524 -0.85074,-0.450297 v -0.246055 h 2.1373 v 0.246055 c -0.43904,0.01608 -0.6674,0.136697 -0.70761,0.450297 a 12.506984,12.506984 0 0 0 -0.0804,1.751331 v 3.311288 h -0.40527 l -3.60076,-4.411298 h -0.0177 v 1.888029 a 13.692229,13.692229 0 0 0 0.0804,1.751332 c 0.0466,0.32164 0.28626,0.416524 0.84431,0.451905 v 0.244446 h -2.13409 v -0.244446 c 0.44065,-0.01769 0.66741,-0.136698 0.70761,-0.451905 a 12.506984,12.506984 0 0 0 0.0804,-1.751332 v -1.711126 c 0,-1.016384 -0.18816,-1.227058 -0.90702,-1.286562 v -0.246055 z"
     id="path106"
     inkscape:connector-curvature="0"
     style="fill:#ffffff;stroke-width:1.60820162" />
  <path
     d="m 603.92988,45.813144 c 0,0.8041 0.0901,0.964921 0.7639,0.964921 1.44738,0 2.20324,-1.021208 2.20324,-2.476631 0,-1.871947 -0.94724,-2.516836 -2.34637,-2.516836 a 1.2479645,1.2479645 0 0 0 -0.56448,0.08041 c -0.0563,0.04503 -0.0563,0.199417 -0.0563,0.427781 z m 0.9006,-4.355011 a 3.4656746,3.4656746 0 0 1 2.44768,0.770329 2.5731227,2.5731227 0 0 1 0.73656,1.81566 c 0,2.156598 -1.66128,3.097396 -3.70852,3.097396 h -2.14695 v -0.244446 c 0.72048,-0.05146 0.79445,-0.120616 0.79445,-1.067846 v -3.055584 c 0,-0.94723 -0.074,-1.014775 -0.71886,-1.066237 V 41.46135 Z"
     id="path108"
     inkscape:connector-curvature="0"
     style="fill:#ffffff;stroke-width:1.60820162" />
  <path
     d="m 532.88275,56.946724 c 0,0.804101 0.0917,0.964921 0.7639,0.964921 1.44738,0 2.20323,-1.021208 2.20323,-2.476631 0,-1.871947 -0.94723,-2.516835 -2.34476,-2.516835 a 1.2994269,1.2994269 0 0 0 -0.57091,0.08041 c -0.0515,0.0386 -0.0515,0.199417 -0.0515,0.427781 z m 0.90059,-4.359835 a 3.4624582,3.4624582 0 0 1 2.44929,0.770329 2.5859883,2.5859883 0 0 1 0.73656,1.820484 c 0,2.150166 -1.66127,3.097396 -3.71012,3.097396 h -2.14052 v -0.244446 c 0.71404,-0.05146 0.78802,-0.12544 0.78802,-1.067846 v -3.063624 c 0,-0.942407 -0.074,-1.016384 -0.71886,-1.067846 v -0.244447 z"
     id="path110"
     inkscape:connector-curvature="0"
     style="fill:#ffffff;stroke-width:1.60820162" />
  <path
     d="m 539.71278,55.861188 h 1.39271 l -0.6851,-1.929842 h -0.0225 z m 1.1756,-3.377224 0.59986,1.625892 c 0.39401,1.067846 0.78158,2.151774 1.11287,3.025027 0.29591,0.781586 0.42135,0.844306 0.92472,0.895769 v 0.244446 h -2.29973 v -0.244446 l 0.24445,-0.03377 c 0.33611,-0.0579 0.3538,-0.14313 0.24605,-0.48246 -0.0852,-0.262137 -0.29752,-0.804101 -0.48246,-1.26083 h -1.61785 c -0.11418,0.262137 -0.26857,0.752638 -0.39401,1.125741 -0.16082,0.467987 -0.0852,0.577344 0.30234,0.622374 l 0.23962,0.02895 v 0.244446 h -1.93949 v -0.244446 c 0.54197,-0.07398 0.64328,-0.109358 0.94723,-0.895769 l 1.76903,-4.547994 z"
     id="path112"
     inkscape:connector-curvature="0"
     style="fill:#ffffff;stroke-width:1.60820162" />
  <path
     d="m 546.42381,55.491301 h 0.33129 a 1.2318825,1.2318825 0 0 0 0.82179,-0.228364 1.3814452,1.3814452 0 0 0 0.48246,-1.125742 1.1257412,1.1257412 0 0 0 -1.19329,-1.220625 c -0.41652,0 -0.43421,0.03377 -0.43421,0.321641 z m 0.65614,-2.904412 a 2.6647902,2.6647902 0 0 1 1.44739,0.295909 1.2962105,1.2962105 0 0 1 0.57573,1.112876 1.5856868,1.5856868 0 0 1 -1.16273,1.511709 14.448084,14.448084 0 0 0 0.75907,1.249573 9.0252278,9.0252278 0 0 0 0.72369,0.976178 1.2286661,1.2286661 0 0 0 0.60469,0.400443 l -0.0338,0.228364 -0.36507,-0.01769 A 1.7111266,1.7111266 0 0 1 548.0368,57.54015 c -0.27982,-0.405267 -0.57091,-0.964921 -0.82179,-1.415217 -0.14313,-0.246055 -0.24605,-0.33129 -0.50819,-0.33129 h -0.27983 v 1.169163 c 0,0.942406 0.0692,1.016383 0.73013,1.067846 v 0.244446 h -2.46377 v -0.244446 c 0.70118,-0.05146 0.76872,-0.12544 0.76872,-1.067846 v -3.063624 c 0,-0.942407 -0.0675,-1.016384 -0.73494,-1.067846 v -0.244447 z"
     id="path114"
     inkscape:connector-curvature="0"
     style="fill:#ffffff;stroke-width:1.60820162" />
  <path
     d="m 554.29274,53.926521 c -0.16082,-0.506584 -0.42778,-1.125741 -1.16273,-1.125741 a 0.85717149,0.85717149 0 0 0 -0.89094,0.918283 c 0,0.48246 0.34737,0.804101 1.0212,1.125741 l 0.22837,0.102925 a 1.8413909,1.8413909 0 0 1 1.31229,1.677354 1.8156597,1.8156597 0 0 1 -1.99739,1.78028 2.894763,2.894763 0 0 1 -0.87325,-0.147955 c -0.24445,-0.08041 -0.39883,-0.149563 -0.50658,-0.189768 -0.0692,-0.221932 -0.17208,-0.820183 -0.26375,-1.350889 l 0.26375,-0.09167 c 0.1769,0.45673 0.64328,1.426475 1.54548,1.426475 a 0.91828315,0.91828315 0 0 0 0.91828,-0.987436 c 0,-0.48246 -0.23319,-0.839481 -0.92311,-1.18042 l -0.27982,-0.138305 c -0.57735,-0.295909 -1.3123,-0.763896 -1.3123,-1.619459 a 1.6918282,1.6918282 0 0 1 1.85909,-1.67253 2.6294097,2.6294097 0 0 1 0.8041,0.12544 c 0.13669,0.05146 0.26213,0.06915 0.36506,0.114182 0.0354,0.308775 0.0917,0.689919 0.1769,1.18042 z"
     id="path116"
     inkscape:connector-curvature="0"
     style="fill:#ffffff;stroke-width:1.60820162" />
  <path
     d="m 556.18238,53.973159 c 0.0338,-0.582169 0.0852,-1.159514 0.10292,-1.608202 h 0.16082 c 0.12062,0.20585 0.21228,0.22354 0.45673,0.22354 h 3.60076 c 0.22837,0 0.27983,-0.05146 0.41653,-0.22354 h 0.14313 c 0.0161,0.365062 0.0515,1.027641 0.10292,1.587295 l -0.26374,0.02252 a 1.5406572,1.5406572 0 0 0 -0.32164,-0.816966 c -0.14957,-0.160821 -0.42778,-0.215499 -0.96492,-0.215499 h -0.45673 v 4.020504 c 0,0.942406 0.0675,1.016383 0.87325,1.067846 v 0.244446 h -2.69374 v -0.244446 c 0.77033,-0.05146 0.83788,-0.12544 0.83788,-1.067846 v -4.020504 h -0.29591 c -0.75425,0 -0.97618,0.101316 -1.12574,0.262136 a 1.929842,1.929842 0 0 0 -0.3136,0.770329 z"
     id="path118"
     inkscape:connector-curvature="0"
     style="fill:#ffffff;stroke-width:1.60820162" />
  <path
     d="m 566.49899,52.586889 c 0.0177,0.141522 0.0579,0.786411 0.10936,1.328375 l -0.26214,0.01769 a 1.6275001,1.6275001 0 0 0 -0.32164,-0.792844 c -0.14795,-0.147954 -0.42778,-0.199417 -0.96492,-0.199417 h -0.43904 c -0.33129,0 -0.34737,0 -0.34737,0.321641 v 1.854256 h 0.75264 c 0.74781,0 0.77033,-0.05146 0.85556,-0.725299 h 0.27983 v 1.855865 h -0.27983 c -0.0852,-0.696351 -0.10775,-0.731732 -0.85556,-0.731732 h -0.75264 v 1.447382 c 0,0.501759 0.0338,0.746205 0.19298,0.860388 a 1.7111266,1.7111266 0 0 0 0.83948,0.114182 1.3910944,1.3910944 0 0 0 1.02121,-0.250879 2.7950545,2.7950545 0 0 0 0.44547,-0.884511 l 0.26214,0.05146 c -0.0338,0.297517 -0.22836,1.193286 -0.29752,1.437732 h -4.26816 V 58.03065 c 0.75424,-0.05146 0.82179,-0.12544 0.82179,-1.067846 V 53.89918 c 0,-0.942407 -0.0675,-1.016384 -0.73656,-1.067846 v -0.244447 z"
     id="path120"
     inkscape:connector-curvature="0"
     style="fill:#ffffff;stroke-width:1.60820162" />
  <path
     d="m 570.80254,52.586889 v 0.249271 c -0.69635,0.05146 -0.77033,0.12544 -0.77033,1.067846 v 3.055583 c 0,0.501759 0.0563,0.746206 0.20585,0.855564 a 1.4280831,1.4280831 0 0 0 0.71886,0.119007 1.395919,1.395919 0 0 0 1.00352,-0.25088 2.6406671,2.6406671 0 0 0 0.42778,-0.884511 l 0.27983,0.05146 c -0.0515,0.279827 -0.24445,1.175595 -0.32164,1.437732 h -4.10252 v -0.257312 c 0.73655,-0.05146 0.8041,-0.12544 0.8041,-1.067846 v -3.063624 c 0,-0.942407 -0.0675,-1.016384 -0.77033,-1.067846 v -0.244447 z"
     id="path122"
     inkscape:connector-curvature="0"
     style="fill:#ffffff;stroke-width:1.60820162" />
  <path
     d="m 576.383,52.586889 v 0.249271 c -0.69635,0.05146 -0.77033,0.12544 -0.77033,1.067846 v 3.055583 c 0,0.501759 0.0515,0.746206 0.19942,0.855564 a 1.4634635,1.4634635 0 0 0 0.72047,0.119007 1.3782288,1.3782288 0 0 0 1.00352,-0.25088 2.6889132,2.6889132 0 0 0 0.43421,-0.884511 l 0.27983,0.05146 c -0.0579,0.279827 -0.25088,1.175595 -0.32164,1.437732 h -4.10252 v -0.257312 c 0.73494,-0.05146 0.8041,-0.12544 0.8041,-1.067846 v -3.063624 c 0,-0.942407 -0.0692,-1.016384 -0.76551,-1.067846 v -0.244447 z"
     id="path124"
     inkscape:connector-curvature="0"
     style="fill:#ffffff;stroke-width:1.60820162" />
  <path
     d="m 583.43174,52.586889 c 0.0161,0.141522 0.0499,0.786411 0.10775,1.328375 l -0.26213,0.01769 a 1.6451903,1.6451903 0 0 0 -0.32164,-0.792844 c -0.14957,-0.147954 -0.42939,-0.199417 -0.96492,-0.199417 h -0.43904 c -0.33129,0 -0.34737,0 -0.34737,0.321641 v 1.854256 h 0.75263 c 0.74782,0 0.7639,-0.05146 0.85557,-0.725299 h 0.27982 v 1.855865 h -0.27982 c -0.0917,-0.696351 -0.10775,-0.731732 -0.85557,-0.731732 h -0.75263 v 1.447382 c 0,0.501759 0.0338,0.746205 0.19298,0.860388 a 1.7111266,1.7111266 0 0 0 0.83948,0.114182 1.3894862,1.3894862 0 0 0 1.02121,-0.250879 2.7628905,2.7628905 0 0 0 0.44547,-0.884511 l 0.26214,0.05146 c -0.0338,0.297517 -0.22837,1.193286 -0.29591,1.437732 h -4.26978 V 58.03065 c 0.75425,-0.05146 0.82179,-0.12544 0.82179,-1.067846 V 53.89918 c 0,-0.942407 -0.0675,-1.016384 -0.73494,-1.067846 v -0.244447 z"
     id="path126"
     inkscape:connector-curvature="0"
     style="fill:#ffffff;stroke-width:1.60820162" />
  <path
     d="m 586.5018,52.586889 3.49141,4.11378 h 0.0177 v -1.661272 a 13.375413,13.375413 0 0 0 -0.0804,-1.751332 c -0.045,-0.32164 -0.29109,-0.422957 -0.85074,-0.456729 v -0.244447 h 2.13569 v 0.249271 c -0.43421,0.01769 -0.66258,0.14313 -0.70761,0.45673 a 13.375413,13.375413 0 0 0 -0.0804,1.751331 v 3.304855 h -0.40044 l -3.60559,-4.411298 h -0.0177 v 1.889637 a 13.669714,13.669714 0 0 0 0.0804,1.746507 c 0.045,0.321641 0.29109,0.422957 0.85074,0.45673 v 0.244446 h -2.13408 v -0.244446 c 0.4326,-0.01769 0.66097,-0.14313 0.70761,-0.45673 a 13.811236,13.811236 0 0 0 0.0788,-1.746507 v -1.717559 c 0,-1.016383 -0.19299,-1.227058 -0.91346,-1.27852 v -0.244447 z"
     id="path128"
     inkscape:connector-curvature="0"
     style="fill:#ffffff;stroke-width:1.60820162" />
  <path
     d="m 594.29676,56.946724 c 0,0.804101 0.0852,0.964921 0.75907,0.964921 1.44738,0 2.20162,-1.021208 2.20162,-2.476631 0,-1.871947 -0.94079,-2.516835 -2.34475,-2.516835 a 1.2688711,1.2688711 0 0 0 -0.56448,0.08041 c -0.0515,0.0386 -0.0515,0.199417 -0.0515,0.427781 z m 0.90059,-4.359835 a 3.4801484,3.4801484 0 0 1 2.44929,0.770329 2.6101113,2.6101113 0 0 1 0.73012,1.820484 c 0,2.150166 -1.66127,3.097396 -3.71012,3.097396 h -2.13891 v -0.244446 c 0.71887,-0.05146 0.78641,-0.12544 0.78641,-1.067846 v -3.063624 c 0,-0.942407 -0.0675,-1.016384 -0.71886,-1.067846 v -0.244447 z"
     id="path130"
     inkscape:connector-curvature="0"
     style="fill:#ffffff;stroke-width:1.60820162" />
  <path
     d="m 603.88968,52.586889 c 0.0161,0.141522 0.0515,0.786411 0.10131,1.328375 l -0.26213,0.01769 a 1.5744294,1.5744294 0 0 0 -0.32164,-0.792844 c -0.15278,-0.147954 -0.43261,-0.199417 -0.97457,-0.199417 h -0.43422 c -0.33129,0 -0.3538,0 -0.3538,0.321641 v 1.854256 h 0.75264 c 0.75424,0 0.77193,-0.05146 0.85717,-0.725299 h 0.28465 v 1.855865 h -0.28465 c -0.0852,-0.696351 -0.10293,-0.731732 -0.85717,-0.731732 h -0.75264 v 1.447382 c 0,0.501759 0.0402,0.746205 0.19459,0.860388 a 1.7288168,1.7288168 0 0 0 0.83787,0.114182 1.4039601,1.4039601 0 0 0 1.02764,-0.250879 2.7950545,2.7950545 0 0 0 0.44548,-0.884511 l 0.26213,0.05146 c -0.0338,0.297517 -0.22836,1.193286 -0.29591,1.437732 h -4.26977 V 58.03065 c 0.75425,-0.05146 0.82179,-0.12544 0.82179,-1.067846 V 53.89918 c 0,-0.942407 -0.0675,-1.016384 -0.73495,-1.067846 v -0.244447 z"
     id="path132"
     inkscape:connector-curvature="0"
     style="fill:#ffffff;stroke-width:1.60820162" />
  <path
     d="m 608.52291,58.275098 v -0.244446 c 0.64328,-0.05146 0.71886,-0.12544 0.71886,-1.067846 v -3.063624 c 0,-0.942407 -0.074,-1.016384 -0.77033,-1.067846 v -0.244447 h 2.44769 v 0.249271 c -0.66741,0.05146 -0.73495,0.12544 -0.73495,1.067846 v 1.471505 c 0.43904,-0.39401 1.64197,-1.71756 1.95075,-2.111569 0.21067,-0.255704 0.18333,-0.353804 -0.045,-0.381144 l -0.34898,-0.04664 v -0.244446 h 2.18554 v 0.244446 a 1.8172679,1.8172679 0 0 0 -1.30103,0.622374 20.062316,20.062316 0 0 0 -1.55835,1.522967 c 0.67384,0.850739 1.45542,1.769022 2.00382,2.402654 0.42778,0.501759 0.59343,0.599859 0.981,0.651321 v 0.244447 h -1.55673 c -0.33129,-0.456729 -1.6275,-2.031159 -2.29491,-2.864207 h -0.0161 v 1.551914 c 0,0.942407 0.0675,1.016384 0.78641,1.067846 v 0.244447 z"
     id="path134"
     inkscape:connector-curvature="0"
     style="fill:#ffffff;stroke-width:1.60820162" />
  <path
     d="m 617.60764,52.586889 v 0.249271 c -0.64328,0.05146 -0.71887,0.109358 -0.71887,1.050156 v 1.844607 c 0,1.38627 0.45673,2.167856 1.4892,2.167856 1.06141,0 1.58568,-0.804101 1.58568,-2.3335 v -0.525882 a 13.830534,13.830534 0 0 0 -0.0788,-1.751332 c -0.0466,-0.32164 -0.29108,-0.422957 -0.85074,-0.456729 v -0.244447 h 2.13409 v 0.249271 c -0.43904,0.01769 -0.66741,0.14313 -0.70761,0.45673 a 13.692229,13.692229 0 0 0 -0.0804,1.751331 v 0.61755 a 2.9446173,2.9446173 0 0 1 -0.64328,2.090662 2.2337921,2.2337921 0 0 1 -1.6082,0.656146 2.0311587,2.0311587 0 0 1 -2.2145,-2.505578 v -2.02151 c 0,-0.940798 -0.0675,-0.998693 -0.77033,-1.050155 v -0.244447 z"
     id="path136"
     inkscape:connector-curvature="0"
     style="fill:#ffffff;stroke-width:1.60820162" />
  <path
     d="m 623.71398,52.586889 3.49141,4.11378 h 0.0129 v -1.661272 a 13.772639,13.772639 0 0 0 -0.0756,-1.751332 c -0.045,-0.32164 -0.29109,-0.422957 -0.84913,-0.456729 v -0.244447 h 2.13408 v 0.249271 c -0.44065,0.01769 -0.66258,0.14313 -0.70761,0.45673 a 13.375413,13.375413 0 0 0 -0.0804,1.751331 v 3.304855 h -0.39883 l -3.6072,-4.411298 h -0.0177 v 1.889637 a 13.669714,13.669714 0 0 0 0.0804,1.746507 c 0.045,0.321641 0.28465,0.422957 0.85074,0.45673 v 0.244446 h -2.14052 v -0.244446 c 0.43904,-0.01769 0.66741,-0.14313 0.71404,-0.45673 a 13.811236,13.811236 0 0 0 0.0788,-1.746507 v -1.717559 c 0,-1.016383 -0.19299,-1.227058 -0.91185,-1.27852 v -0.244447 z"
     id="path138"
     inkscape:connector-curvature="0"
     style="fill:#ffffff;stroke-width:1.60820162" />
  <path
     d="m 632.92415,53.926521 c -0.16082,-0.506584 -0.42778,-1.125741 -1.16434,-1.125741 a 0.86199609,0.86199609 0 0 0 -0.89577,0.918283 c 0,0.48246 0.35381,0.804101 1.02765,1.125741 l 0.22836,0.102925 a 1.8349581,1.8349581 0 0 1 1.30586,1.677354 1.8108351,1.8108351 0 0 1 -1.99095,1.78028 2.894763,2.894763 0 0 1 -0.87326,-0.147955 c -0.24605,-0.08041 -0.40526,-0.149563 -0.50819,-0.189768 -0.0691,-0.221932 -0.1769,-0.820183 -0.26214,-1.350889 l 0.26214,-0.09167 c 0.17208,0.45673 0.64328,1.426475 1.54709,1.426475 a 0.91828315,0.91828315 0 0 0 0.91828,-0.987436 c 0,-0.48246 -0.23479,-0.839481 -0.92471,-1.18042 l -0.27983,-0.138305 a 1.9491404,1.9491404 0 0 1 -1.31229,-1.619459 1.6918282,1.6918282 0 0 1 1.86069,-1.67253 2.6680066,2.6680066 0 0 1 0.8041,0.12544 c 0.1367,0.05146 0.26214,0.06915 0.36506,0.114182 0.0338,0.308775 0.0852,0.689919 0.1769,1.18042 z"
     id="path140"
     inkscape:connector-curvature="0"
     style="fill:#ffffff;stroke-width:1.60820162" />
  <path
     d="m 634.81218,53.973159 c 0.0354,-0.582169 0.0868,-1.159514 0.10292,-1.608202 h 0.16082 c 0.11901,0.20585 0.20425,0.22354 0.4503,0.22354 h 3.60559 c 0.22193,0 0.27822,-0.05146 0.41652,-0.22354 h 0.14153 c 0.0177,0.365062 0.0515,1.027641 0.10292,1.587295 l -0.26214,0.02252 A 1.5245752,1.5245752 0 0 0 639.209,53.157801 c -0.14795,-0.160821 -0.4326,-0.215499 -0.97618,-0.215499 h -0.45029 v 4.020504 c 0,0.942406 0.0692,1.016383 0.87325,1.067846 v 0.244446 h -2.69374 v -0.244446 c 0.77033,-0.05146 0.83949,-0.12544 0.83949,-1.067846 v -4.020504 h -0.29752 c -0.75264,0 -0.98101,0.101316 -1.1177,0.262136 a 1.8172679,1.8172679 0 0 0 -0.3136,0.770329 z"
     id="path142"
     inkscape:connector-curvature="0"
     style="fill:#ffffff;stroke-width:1.60820162" />
  <path
     d="m 534.30279,65.058493 c -0.16082,-0.501759 -0.4326,-1.125741 -1.16434,-1.125741 a 0.8636043,0.8636043 0 0 0 -0.89576,0.919891 c 0,0.482461 0.3538,0.815358 1.02764,1.125741 l 0.22193,0.10775 a 1.7690218,1.7690218 0 0 1 -0.67866,3.452809 2.7130362,2.7130362 0 0 1 -0.87326,-0.147955 c -0.24444,-0.08041 -0.40526,-0.147954 -0.50658,-0.181727 -0.0692,-0.228364 -0.1769,-0.823399 -0.26374,-1.35893 l 0.26374,-0.08523 c 0.17047,0.45673 0.64328,1.426475 1.54548,1.426475 a 0.91989135,0.91989135 0 0 0 0.91829,-0.993868 c 0,-0.482461 -0.23319,-0.837873 -0.92311,-1.175596 l -0.27983,-0.141522 c -0.58217,-0.297517 -1.31873,-0.759071 -1.31873,-1.608201 a 1.6966528,1.6966528 0 0 1 1.86552,-1.67253 2.6406671,2.6406671 0 0 1 0.8041,0.119007 c 0.1367,0.0579 0.26214,0.07398 0.36506,0.114182 0.0354,0.308775 0.0852,0.691527 0.1769,1.182029 z"
     id="path144"
     inkscape:connector-curvature="0"
     style="fill:#ffffff;stroke-width:1.60820162" />
  <path
     d="m 536.186,65.100306 c 0.0402,-0.575736 0.0917,-1.15308 0.10935,-1.608201 h 0.16082 c 0.12544,0.210674 0.21068,0.226756 0.45513,0.226756 h 3.60719 c 0.22354,0 0.27983,-0.04985 0.41653,-0.226756 h 0.14313 c 0.0161,0.365061 0.0515,1.032465 0.10292,1.590511 l -0.26374,0.01769 a 1.531008,1.531008 0 0 0 -0.32164,-0.815358 c -0.14796,-0.16082 -0.42779,-0.217107 -0.96493,-0.217107 h -0.45029 v 4.020504 c 0,0.947231 0.0675,1.014775 0.87325,1.066238 v 0.246054 h -2.69374 v -0.246054 c 0.77033,-0.05146 0.83788,-0.119007 0.83788,-1.066238 v -4.020504 h -0.29591 c -0.75425,0 -0.98261,0.107749 -1.12574,0.262137 a 1.9845209,1.9845209 0 0 0 -0.32164,0.770328 z"
     id="path146"
     inkscape:connector-curvature="0"
     style="fill:#ffffff;stroke-width:1.60820162" />
  <path
     d="m 544.91692,63.718861 v 0.246055 c -0.64328,0.05146 -0.71886,0.102925 -0.71886,1.050156 v 1.842999 c 0,1.392702 0.45673,2.167855 1.4908,2.167855 1.03407,0 1.57925,-0.8041 1.57925,-2.3335 v -0.524274 a 13.80802,13.80802 0 0 0 -0.074,-1.746507 c -0.045,-0.32164 -0.29109,-0.422957 -0.84913,-0.456729 v -0.246055 h 2.13408 v 0.246055 c -0.44065,0.01769 -0.66901,0.136697 -0.70761,0.456729 a 12.415317,12.415317 0 0 0 -0.0804,1.746507 v 0.620766 a 2.9494419,2.9494419 0 0 1 -0.64328,2.090662 2.2144937,2.2144937 0 0 1 -1.62107,0.656146 2.0215095,2.0215095 0 0 1 -2.20806,-2.499145 v -2.021509 c 0,-0.947231 -0.0756,-0.998694 -0.77193,-1.050156 v -0.246055 z"
     id="path148"
     inkscape:connector-curvature="0"
     style="fill:#ffffff;stroke-width:1.60820162" />
  <path
     d="m 549.64825,65.100306 c 0.0338,-0.575736 0.0852,-1.15308 0.10293,-1.608201 h 0.16082 c 0.12544,0.210674 0.21067,0.226756 0.45673,0.226756 h 3.60076 c 0.22836,0 0.27983,-0.04985 0.42296,-0.226756 h 0.13669 c 0.0177,0.365061 0.0515,1.032465 0.10775,1.590511 l -0.26213,0.01769 a 1.5438736,1.5438736 0 0 0 -0.32164,-0.815358 c -0.14796,-0.16082 -0.42778,-0.217107 -0.96492,-0.217107 h -0.45673 v 4.020504 c 0,0.947231 0.0675,1.014775 0.87325,1.066238 v 0.246054 h -2.69374 v -0.246054 c 0.77033,-0.05146 0.84431,-0.119007 0.84431,-1.066238 v -4.020504 h -0.30234 c -0.74782,0 -0.97618,0.107749 -1.12575,0.262137 a 2.0006029,2.0006029 0 0 0 -0.31359,0.770328 z"
     id="path150"
     inkscape:connector-curvature="0"
     style="fill:#ffffff;stroke-width:1.60820162" />
  <path
     d="m 556.03442,65.100306 c 0.0338,-0.575736 0.0852,-1.15308 0.10293,-1.608201 h 0.16082 c 0.119,0.210674 0.20585,0.226756 0.45029,0.226756 h 3.6072 c 0.22193,0 0.27983,-0.04985 0.41652,-0.226756 h 0.14313 c 0.0161,0.365061 0.0515,1.032465 0.10293,1.590511 l -0.26375,0.01769 a 1.5776458,1.5776458 0 0 0 -0.32164,-0.815358 c -0.16082,-0.16082 -0.4326,-0.217107 -0.97457,-0.217107 h -0.4519 v 4.020504 c 0,0.947231 0.0691,1.014775 0.87325,1.066238 v 0.246054 h -2.69374 v -0.246054 c 0.77194,-0.05146 0.83948,-0.119007 0.83948,-1.066238 v -4.020504 h -0.2959 c -0.75425,0 -0.98262,0.107749 -1.12575,0.262137 a 1.929842,1.929842 0 0 0 -0.31359,0.770328 z"
     id="path152"
     inkscape:connector-curvature="0"
     style="fill:#ffffff;stroke-width:1.60820162" />
  <path
     d="m 567.28218,68.38747 a 3.3386267,3.3386267 0 0 0 0.0515,0.781586 7.2481649,7.2481649 0 0 1 -1.90733,0.365062 2.9237106,2.9237106 0 0 1 -3.25178,-2.909237 3.045934,3.045934 0 0 1 3.30324,-3.036284 6.9956773,6.9956773 0 0 1 1.67896,0.228364 c 0.0161,0.295909 0.074,0.752639 0.14153,1.415218 l -0.27983,0.03377 a 1.5197506,1.5197506 0 0 0 -1.67736,-1.329983 c -1.20936,0 -2.03115,0.919892 -2.03115,2.512011 0,1.346065 0.57573,2.733943 2.16785,2.733943 a 1.363755,1.363755 0 0 0 0.5886,-0.0981 c 0.16082,-0.06755 0.23319,-0.215499 0.23319,-0.569304 v -0.722082 c 0,-0.598251 -0.0338,-0.643281 -0.96492,-0.718866 v -0.262137 h 2.4316 v 0.262137 c -0.45673,0.06915 -0.4905,0.102925 -0.4905,0.718866 z"
     id="path154"
     inkscape:connector-curvature="0"
     style="fill:#ffffff;stroke-width:1.60820162" />
  <path
     d="m 570.70604,66.988335 h 1.3911 l -0.67866,-1.929842 h -0.029 z m 1.1756,-3.377224 0.60468,1.632325 c 0.38758,1.067846 0.77516,2.151774 1.10645,3.025027 0.29751,0.775154 0.42295,0.837874 0.93115,0.889336 v 0.242838 h -2.2933 v -0.246054 l 0.24445,-0.03377 c 0.33129,-0.05146 0.34898,-0.136697 0.24605,-0.48246 -0.0917,-0.262137 -0.30234,-0.804101 -0.48246,-1.254397 h -1.6082 c -0.11418,0.262136 -0.27339,0.752638 -0.39401,1.125741 -0.16082,0.463162 -0.0917,0.575736 0.29752,0.622374 l 0.24444,0.02251 v 0.246054 h -1.94592 v -0.246054 c 0.54196,-0.06915 0.64328,-0.102925 0.94723,-0.889336 l 1.76902,-4.549602 z"
     id="path156"
     inkscape:connector-curvature="0"
     style="fill:#ffffff;stroke-width:1.60820162" />
  <path
     d="m 577.41546,66.624881 h 0.33129 a 1.2302743,1.2302743 0 0 0 0.82179,-0.228364 1.3701878,1.3701878 0 0 0 0.48246,-1.125741 1.1257412,1.1257412 0 0 0 -1.19328,-1.227058 c -0.41653,0 -0.43422,0.03538 -0.43422,0.32164 z m 0.65776,-2.90602 a 2.5731227,2.5731227 0 0 1 1.44738,0.297517 1.2736957,1.2736957 0 0 1 0.57734,1.112876 1.5921197,1.5921197 0 0 1 -1.16434,1.511709 c 0.14313,0.246055 0.48247,0.857172 0.7639,1.249573 a 9.7264037,9.7264037 0 0 0 0.7253,0.964921 1.1997184,1.1997184 0 0 0 0.59986,0.405267 l -0.0354,0.221932 -0.36506,-0.01769 a 1.7239922,1.7239922 0 0 1 -1.59212,-0.804101 c -0.27983,-0.403659 -0.57091,-0.964921 -0.82179,-1.420042 -0.14313,-0.246055 -0.24445,-0.33129 -0.5082,-0.33129 h -0.27982 v 1.170771 c 0,0.947231 0.0691,1.014775 0.73655,1.066238 v 0.254095 h -2.46537 v -0.246054 c 0.69635,-0.05146 0.7655,-0.119007 0.7655,-1.066238 v -3.055583 c 0,-0.947231 -0.0691,-1.016384 -0.73655,-1.067846 v -0.246055 z"
     id="path158"
     inkscape:connector-curvature="0"
     style="fill:#ffffff;stroke-width:1.60820162" />
  <path
     d="m 581.69006,65.100306 c 0.0402,-0.575736 0.0917,-1.15308 0.10936,-1.608201 h 0.16082 c 0.12062,0.210674 0.20585,0.226756 0.4503,0.226756 h 3.60719 c 0.22193,0 0.27983,-0.04985 0.41653,-0.226756 h 0.14313 c 0.0161,0.365061 0.0515,1.032465 0.10292,1.590511 l -0.26374,0.01769 a 1.531008,1.531008 0 0 0 -0.32164,-0.815358 c -0.14313,-0.16082 -0.42778,-0.217107 -0.96492,-0.217107 h -0.4503 v 4.020504 c 0,0.947231 0.0675,1.014775 0.87325,1.066238 v 0.246054 h -2.70821 v -0.246054 c 0.77033,-0.05146 0.83787,-0.119007 0.83787,-1.066238 v -4.020504 h -0.2959 c -0.75425,0 -0.98262,0.107749 -1.12575,0.262137 a 1.929842,1.929842 0 0 0 -0.3136,0.770328 z"
     id="path160"
     inkscape:connector-curvature="0"
     style="fill:#ffffff;stroke-width:1.60820162" />
</svg>
