<?xml version="1.0" encoding="UTF-8" standalone="no"?>
<svg
   xmlns:dc="http://purl.org/dc/elements/1.1/"
   xmlns:cc="http://creativecommons.org/ns#"
   xmlns:rdf="http://www.w3.org/1999/02/22-rdf-syntax-ns#"
   xmlns:svg="http://www.w3.org/2000/svg"
   xmlns="http://www.w3.org/2000/svg"
   xmlns:sodipodi="http://sodipodi.sourceforge.net/DTD/sodipodi-0.dtd"
   xmlns:inkscape="http://www.inkscape.org/namespaces/inkscape"
   id="Ebene_1"
   data-name="Ebene 1"
   viewBox="0 0 592.25938 85.520751"
   version="1.1"
   sodipodi:docname="bwms_mhtr_desktop.svg"
   width="592.2594"
   height="85.520752"
   inkscape:version="0.92.5 (2060ec1f9f, 2020-04-08)">
  <metadata
     id="metadata43">
    <rdf:RDF>
      <cc:Work
         rdf:about="">
        <dc:format>image/svg+xml</dc:format>
        <dc:type
           rdf:resource="http://purl.org/dc/dcmitype/StillImage" />
        <dc:title></dc:title>
      </cc:Work>
    </rdf:RDF>
  </metadata>
  <defs
     id="defs41" />
  <sodipodi:namedview
     pagecolor="#ffffff"
     bordercolor="#666666"
     borderopacity="1"
     objecttolerance="10"
     gridtolerance="10"
     guidetolerance="10"
     inkscape:pageopacity="0"
     inkscape:pageshadow="2"
     inkscape:window-width="1976"
     inkscape:window-height="1088"
     id="namedview39"
     showgrid="false"
     fit-margin-top="15"
     fit-margin-left="15"
     fit-margin-right="15"
     fit-margin-bottom="15"
     inkscape:zoom="1.728"
     inkscape:cx="229.66673"
     inkscape:cy="24.12172"
     inkscape:window-x="72"
     inkscape:window-y="27"
     inkscape:window-maximized="1"
     inkscape:current-layer="Ebene_1" />
  <path
     d="m 399.12566,51.278075 c 0,2.160544 -2.38295,3.920752 -5.31875,3.920752 -2.9358,0 -5.31558,-1.760208 -5.31558,-3.920752 0,-2.160544 2.38296,-3.912809 5.31558,-3.912809 2.93262,0 5.31875,1.750676 5.31875,3.912809 z"
     id="path2"
     inkscape:connector-curvature="0"
     style="fill:#ffffff;stroke-width:1.58863533" />
  <path
     d="m 417.00416,47.365266 c 0,2.158955 -2.38295,3.912809 -5.32193,3.912809 -2.93897,0 -5.31398,-1.747499 -5.31398,-3.912809 0,-2.16531 2.38295,-3.920752 5.31398,-3.920752 2.93103,0 5.32193,1.757031 5.32193,3.920752 z"
     id="path4"
     inkscape:connector-curvature="0"
     style="fill:#ffffff;stroke-width:1.58863533" />
  <rect
     x="396.48376"
     y="31.969799"
     width="2.7149777"
     height="19.308273"
     id="rect6"
     style="fill:#ffffff;stroke-width:1.58863533" />
  <rect
     x="414.32095"
     y="28.055405"
     width="2.7149777"
     height="19.308273"
     id="rect8"
     style="fill:#ffffff;stroke-width:1.58863533" />
  <rect
     x="397.84045"
     y="29.173803"
     width="17.838785"
     height="5.7683349"
     id="rect10"
     style="fill:#ffffff;stroke-width:1.58863533" />
  <path
     d="M 417.03593,36.300421 H 396.48376 V 27.81711 h 20.55217 z m -17.83878,-2.714978 h 15.1238 v -3.054944 h -15.1238 z"
     id="path12"
     inkscape:connector-curvature="0"
     style="fill:#ffffff;stroke-width:1.58863533" />
  <path
     d="m 33.637869,47.049127 a 13.253984,13.253984 0 0 0 -1.193065,-6.57695 4.421172,4.421172 0 0 0 -4.095502,-1.934957 c -0.602092,0 -1.223249,0.03336 -1.869823,0.09691 -0.646575,0.06355 -1.270909,0.1398 -1.869824,0.225587 V 65.042011 H 15 V 32.282762 q 1.224838,-0.317727 2.869075,-0.678347 1.644238,-0.36062 3.483878,-0.643397 1.838051,-0.292309 3.773008,-0.45276 1.934958,-0.160452 3.804782,-0.158864 a 16.002323,16.002323 0 0 1 5.963737,0.934117 13.460507,13.460507 0 0 1 3.773009,2.224089 17.962699,17.962699 0 0 1 9.6732,-3.158206 16.965036,16.965036 0 0 1 6.672268,1.12793 10.017934,10.017934 0 0 1 4.157459,3.193157 12.035501,12.035501 0 0 1 2.128771,4.899352 31.590013,31.590013 0 0 1 0.58144,6.319591 V 65.042011 H 52.275738 V 47.049127 a 13.253984,13.253984 0 0 0 -1.193065,-6.57695 4.4243493,4.4243493 0 0 0 -4.095501,-1.934957 8.6739487,8.6739487 0 0 0 -2.160544,0.386038 8.3355694,8.3355694 0 0 0 -2.289224,0.969068 14.756833,14.756833 0 0 1 0.579852,3.126434 q 0.131857,1.644237 0.130268,3.514061 v 18.50919 h -9.609655 z"
     id="path14"
     inkscape:connector-curvature="0"
     style="fill:#ffffff;stroke-width:1.58863533" />
  <path
     d="m 99.545581,63.880718 a 53.627561,53.627561 0 0 1 -6.321179,1.321745 51.948374,51.948374 0 0 1 -8.12587,0.613213 19.328926,19.328926 0 0 1 -7.190163,-1.159704 10.921868,10.921868 0 0 1 -4.546674,-3.258291 12.709082,12.709082 0 0 1 -2.382953,-4.997846 26.847936,26.847936 0 0 1 -0.708532,-6.383137 V 31.119881 h 9.609655 v 17.735525 a 13.755993,13.755993 0 0 0 1.223249,6.707218 4.8771103,4.8771103 0 0 0 4.578447,2.065226 q 1.034202,0 2.193906,-0.0985 c 0.772076,-0.06354 1.461544,-0.138211 2.065225,-0.223997 V 31.119881 h 9.609655 z"
     id="path16"
     inkscape:connector-curvature="0"
     style="fill:#ffffff;stroke-width:1.58863533" />
  <path
     d="m 118.31054,58.140979 a 9.6112435,9.6112435 0 0 0 3.73965,-0.514718 1.9937373,1.9937373 0 0 0 1.09616,-2.000092 2.4464983,2.4464983 0 0 0 -1.42024,-2.030275 26.817752,26.817752 0 0 0 -4.31791,-1.96832 43.528607,43.528607 0 0 1 -4.09551,-1.739555 12.011671,12.011671 0 0 1 -3.12802,-2.162133 8.7216077,8.7216077 0 0 1 -1.9985,-2.997755 11.061668,11.061668 0 0 1 -0.71012,-4.192408 9.0663416,9.0663416 0 0 1 3.54583,-7.544429 15.432003,15.432003 0 0 1 9.73834,-2.772168 31.342186,31.342186 0 0 1 5.93196,0.54649 27.883727,27.883727 0 0 1 4.5149,1.193065 l -1.67601,7.480883 a 35.121549,35.121549 0 0 0 -3.64274,-1.031024 19.873827,19.873827 0 0 0 -4.41958,-0.451172 q -4.51331,0 -4.51331,2.514809 a 2.5990073,2.5990073 0 0 0 0.19381,1.031025 2.1891394,2.1891394 0 0 0 0.77366,0.870572 10.866265,10.866265 0 0 0 1.57911,0.907111 q 1.00084,0.487711 2.54181,1.072328 a 39.482353,39.482353 0 0 1 5.23456,2.303522 12.481907,12.481907 0 0 1 3.25352,2.45603 7.5698472,7.5698472 0 0 1 1.6776,2.927855 13.009334,13.009334 0 0 1 0.48454,3.733293 8.6008715,8.6008715 0 0 1 -3.77142,7.592088 18.820562,18.820562 0 0 1 -10.67405,2.573589 30.660661,30.660661 0 0 1 -7.51265,-0.773666 30.215843,30.215843 0 0 1 -4.16064,-1.289972 l 1.61406,-7.803376 a 31.245279,31.245279 0 0 0 5.02962,1.515558 24.334715,24.334715 0 0 0 5.09157,0.552845 z"
     id="path18"
     inkscape:connector-curvature="0"
     style="fill:#ffffff;stroke-width:1.58863533" />
  <path
     d="m 150.35967,21.318003 a 5.266326,5.266326 0 0 1 -1.70937,4.159047 6.1162459,6.1162459 0 0 1 -8.06074,0 5.2679146,5.2679146 0 0 1 -1.71413,-4.159047 5.2790351,5.2790351 0 0 1 1.71096,-4.159048 6.1162459,6.1162459 0 0 1 8.06073,0 5.2774464,5.2774464 0 0 1 1.71255,4.159048 z m -0.90235,43.724008 h -9.60965 v -33.92213 h 9.60965 z"
     id="path20"
     inkscape:connector-curvature="0"
     style="fill:#ffffff;stroke-width:1.58863533" />
  <path
     d="m 156.87307,48.086506 a 20.016805,20.016805 0 0 1 1.19148,-6.932804 16.20408,16.20408 0 0 1 8.9329,-9.512748 18.110442,18.110442 0 0 1 7.35061,-1.417062 23.734211,23.734211 0 0 1 4.96449,0.47659 24.30612,24.30612 0 0 1 4.38622,1.388467 l -2.00009,7.674697 a 23.902607,23.902607 0 0 0 -2.96598,-0.903933 15.449478,15.449478 0 0 0 -3.61097,-0.387627 7.6127403,7.6127403 0 0 0 -6.35454,2.643489 10.885329,10.885329 0 0 0 -2.09065,6.970931 11.26819,11.26819 0 0 0 1.96832,7.093257 q 1.96356,2.513221 6.86608,2.51481 a 23.63095,23.63095 0 0 0 3.74124,-0.317727 15.805332,15.805332 0 0 0 3.6761,-1.032613 l 1.35352,7.86851 a 22.622167,22.622167 0 0 1 -4.19082,1.224838 27.594595,27.594595 0 0 1 -5.54593,0.516306 20.888965,20.888965 0 0 1 -7.99878,-1.386878 15.069794,15.069794 0 0 1 -5.51256,-3.77142 14.698054,14.698054 0 0 1 -3.1598,-5.644422 23.913727,23.913727 0 0 1 -1.00084,-7.064661 z"
     id="path22"
     inkscape:connector-curvature="0"
     style="fill:#ffffff;stroke-width:1.58863533" />
  <path
     d="m 200.14432,60.849602 a 14.979242,14.979242 0 0 0 2.73881,-0.257359 8.2609035,8.2609035 0 0 0 2.45126,-0.838799 4.908883,4.908883 0 0 0 1.7475,-1.588635 4.321088,4.321088 0 0 0 0.67676,-2.481449 4.2607198,4.2607198 0 0 0 -0.31773,-1.709371 4.1097995,4.1097995 0 0 0 -1.03102,-1.386879 10.394441,10.394441 0 0 0 -1.77451,-1.25661 q -1.06279,-0.611625 -2.54181,-1.386879 -1.48379,-0.706943 -2.70068,-1.418651 a 9.840007,9.840007 0 0 1 -2.16055,-1.677599 6.7977704,6.7977704 0 0 1 -1.45042,-2.289224 8.7374941,8.7374941 0 0 1 -0.51631,-3.191568 9.6509594,9.6509594 0 0 1 3.48229,-7.770015 q 3.48388,-2.935798 10.12437,-2.935798 a 21.764303,21.764303 0 0 1 5.45061,0.613213 14.92364,14.92364 0 0 1 3.25512,1.12952 l -2.25587,4.90094 a 14.337433,14.337433 0 0 0 -2.90084,-1.097747 15.992791,15.992791 0 0 0 -4.44818,-0.579852 11.983076,11.983076 0 0 0 -2.44968,0.257359 6.9629885,6.9629885 0 0 0 -2.22409,0.87216 4.8215081,4.8215081 0 0 0 -1.61405,1.612465 4.5228447,4.5228447 0 0 0 -0.61163,2.417903 3.5680749,3.5680749 0 0 0 1.35352,2.869076 18.313788,18.313788 0 0 0 4.06214,2.354357 29.439001,29.439001 0 0 1 2.99935,1.579103 10.753472,10.753472 0 0 1 2.25745,1.806279 6.71675,6.71675 0 0 1 1.41865,2.352769 9.6128321,9.6128321 0 0 1 0.47659,3.224929 10.561247,10.561247 0 0 1 -1.03103,4.765906 9.4031323,9.4031323 0 0 1 -2.87066,3.418743 12.939434,12.939434 0 0 1 -4.35286,2.030276 21.038297,21.038297 0 0 1 -5.5078,0.691057 24.638145,24.638145 0 0 1 -3.97159,-0.290721 25.97101,25.97101 0 0 1 -3.09466,-0.67517 14.277065,14.277065 0 0 1 -2.19232,-0.807026 q -0.87216,-0.4194 -1.32333,-0.676759 l 2.321,-4.90094 q 0.45276,0.257359 1.2582,0.643397 a 17.752999,17.752999 0 0 0 1.93495,0.775254 18.304256,18.304256 0 0 0 2.48304,0.644986 15.17941,15.17941 0 0 0 2.85001,0.257359 z"
     id="path24"
     inkscape:connector-curvature="0"
     style="fill:#ffffff;stroke-width:1.58863533" />
  <path
     d="m 231.4182,65.879222 a 15.533676,15.533676 0 0 1 -5.67302,-0.934118 11.226886,11.226886 0 0 1 -4.00018,-2.579944 10.334073,10.334073 0 0 1 -2.38296,-3.836554 13.875141,13.875141 0 0 1 -0.77207,-4.643581 28.118845,28.118845 0 0 1 1.35351,-8.705721 23.901018,23.901018 0 0 1 3.86833,-7.41575 18.817385,18.817385 0 0 1 6.12737,-5.128114 17.303416,17.303416 0 0 1 8.18941,-1.906363 13.592364,13.592364 0 0 1 4.54509,0.678347 8.3879943,8.3879943 0 0 1 3.09784,1.836463 7.3823882,7.3823882 0 0 1 1.76656,2.681616 8.6961896,8.6961896 0 0 1 0.57985,3.126434 10.961583,10.961583 0 0 1 -1.09616,5.128115 10.720111,10.720111 0 0 1 -2.90243,3.514061 13.39855,13.39855 0 0 1 -4.2226,2.193906 37.174066,37.174066 0 0 1 -5.0312,1.223249 47.500195,47.500195 0 0 1 -5.28857,0.613213 q -2.67526,0.158864 -5.0598,0.289132 a 6.7961818,6.7961818 0 0 0 -0.0651,0.840388 v 0.514718 a 10.832904,10.832904 0 0 0 0.35268,2.80553 5.2567942,5.2567942 0 0 0 1.32174,2.322584 6.6039569,6.6039569 0 0 0 2.67844,1.579104 14.232584,14.232584 0 0 0 4.47995,0.579852 15.092035,15.092035 0 0 0 2.54182,-0.225586 21.446576,21.446576 0 0 0 2.5164,-0.579852 c 0.79432,-0.235118 1.50444,-0.476591 2.12718,-0.708532 a 4.843749,4.843749 0 0 0 1.32175,-0.678347 l 0.5163,5.094753 a 21.128849,21.128849 0 0 1 -4.15905,1.515558 25.100438,25.100438 0 0 1 -6.73104,0.805439 z m -6.12101,-18.442467 q 3.73805,-0.12868 6.83113,-0.476591 a 21.764303,21.764303 0 0 0 5.35211,-1.224838 8.5150851,8.5150851 0 0 0 3.51565,-2.354357 5.7826325,5.7826325 0 0 0 1.25661,-3.869916 3.7031089,3.7031089 0 0 0 -0.22559,-1.224838 3.1772706,3.1772706 0 0 0 -0.77366,-1.193065 4.1304518,4.1304518 0 0 0 -1.51397,-0.900756 6.9899953,6.9899953 0 0 0 -2.38295,-0.355854 9.4635004,9.4635004 0 0 0 -4.22577,0.96589 12.799635,12.799635 0 0 0 -3.51248,2.541816 15.339862,15.339862 0 0 0 -2.64507,3.676102 19.954848,19.954848 0 0 0 -1.67601,4.416407 z"
     id="path26"
     inkscape:connector-curvature="0"
     style="fill:#ffffff;stroke-width:1.58863533" />
  <path
     d="m 272.11109,65.428049 q -0.31773,-0.706943 -0.64657,-1.579103 a 12.348462,12.348462 0 0 1 -0.51472,-1.83964 19.390882,19.390882 0 0 1 -3.8032,2.579944 12.202308,12.202308 0 0 1 -5.87,1.289972 11.93224,11.93224 0 0 1 -4.86917,-0.902345 8.6818919,8.6818919 0 0 1 -3.32025,-2.51481 10.505645,10.505645 0 0 1 -1.90636,-3.804781 17.875324,17.875324 0 0 1 -0.6148,-4.837395 25.29584,25.29584 0 0 1 1.45201,-8.446774 21.573667,21.573667 0 0 1 4.35286,-7.352204 21.804019,21.804019 0 0 1 7.28707,-5.223433 24.530117,24.530117 0 0 1 10.25305,-1.998503 25.197344,25.197344 0 0 1 4.06373,0.386039 12.902896,12.902896 0 0 1 3.9986,1.289971 l -4.95972,20.250334 c -0.21764,0.988132 -0.39875,1.934958 -0.54967,2.837303 a 17.009518,17.009518 0 0 0 -0.22717,2.837303 17.870558,17.870558 0 0 0 0.25894,2.997754 18.375744,18.375744 0 0 0 0.90235,3.258291 z m -9.60966,-4.641992 a 8.877294,8.877294 0 0 0 4.64517,-1.161293 14.914108,14.914108 0 0 0 3.35202,-2.710211 q 0.062,-1.09457 0.22559,-2.287635 0.16363,-1.193065 0.41781,-2.417903 l 3.86992,-15.99438 a 4.1145654,4.1145654 0 0 0 -1.0628,-0.192225 c -0.49565,-0.04289 -0.93571,-0.06513 -1.32333,-0.06513 a 15.177822,15.177822 0 0 0 -6.6405,1.42024 15.783092,15.783092 0 0 0 -5.06298,3.77142 16.650486,16.650486 0 0 0 -3.22493,5.480792 19.127169,19.127169 0 0 0 -1.12952,6.546766 15.136517,15.136517 0 0 0 0.25736,2.740396 6.8311317,6.8311317 0 0 0 0.9373,2.449675 5.3584668,5.3584668 0 0 0 1.80627,1.747499 5.6396553,5.6396553 0 0 0 2.93262,0.671993 z"
     id="path28"
     inkscape:connector-curvature="0"
     style="fill:#ffffff;stroke-width:1.58863533" />
  <path
     d="m 302.16171,30.798977 c 0.51631,0 1.09616,0.02224 1.7475,0.06355 a 18.235944,18.235944 0 0 1 1.90637,0.227174 c 0.62115,0.106439 1.19306,0.214466 1.70778,0.317727 a 4.9756057,4.9756057 0 0 1 1.1597,0.352677 l -1.7475,5.223433 a 13.749638,13.749638 0 0 0 -2.96598,-0.773665 21.468817,21.468817 0 0 0 -3.22334,-0.257359 18.539374,18.539374 0 0 0 -2.67844,0.193814 13.662263,13.662263 0 0 0 -2.28763,0.514717 l -6.83113,28.376204 h -5.9971 l 7.73824,-32.249296 a 37.27415,37.27415 0 0 1 5.54593,-1.450425 32.584498,32.584498 0 0 1 5.9256,-0.538547 z"
     id="path30"
     inkscape:connector-curvature="0"
     style="fill:#ffffff;stroke-width:1.58863533" />
  <path
     d="m 306.86884,53.046226 a 27.113238,27.113238 0 0 1 1.32175,-8.446774 21.333783,21.333783 0 0 1 3.90327,-7.158391 18.745896,18.745896 0 0 1 14.89505,-6.772352 27.095763,27.095763 0 0 1 4.06214,0.292309 12.751975,12.751975 0 0 1 3.67769,1.127931 l -2.25745,5.035974 a 9.1553052,9.1553052 0 0 0 -2.41949,-0.903934 16.297809,16.297809 0 0 0 -3.57761,-0.317727 11.563676,11.563676 0 0 0 -5.67461,1.386879 13.776645,13.776645 0 0 0 -4.28931,3.677691 16.478914,16.478914 0 0 0 -2.70068,5.286978 20.698329,20.698329 0 0 0 -0.9373,6.222684 13.446209,13.446209 0 0 0 0.35586,3.159796 6.5531206,6.5531206 0 0 0 1.25661,2.611716 6.0654095,6.0654095 0 0 0 2.4179,1.774506 9.8844888,9.8844888 0 0 0 3.83814,0.643397 14.237349,14.237349 0 0 0 2.45127,-0.225586 21.735708,21.735708 0 0 0 2.38295,-0.546491 q 1.09298,-0.317727 1.96514,-0.678347 a 4.9327126,4.9327126 0 0 0 1.2582,-0.676758 l 0.51472,5.094753 a 15.438358,15.438358 0 0 1 -3.80319,1.513969 21.225756,21.225756 0 0 1 -5.86842,0.741893 14.963356,14.963356 0 0 1 -5.48238,-0.934118 10.818606,10.818606 0 0 1 -3.9986,-2.645077 11.39687,11.39687 0 0 1 -2.44967,-4.062141 15.333508,15.333508 0 0 1 -0.84198,-5.20278 z"
     id="path32"
     inkscape:connector-curvature="0"
     style="fill:#ffffff;stroke-width:1.58863533" />
  <path
     d="M 333.11468,65.042011 344.92142,16.031024 351.17588,15 347.04543,31.958681 a 23.279862,23.279862 0 0 1 3.12802,-0.8388 17.258934,17.258934 0 0 1 3.32184,-0.317727 13.940275,13.940275 0 0 1 4.99784,0.805438 8.929719,8.929719 0 0 1 3.38539,2.193906 8.6215237,8.6215237 0 0 1 1.90636,3.35202 14.424808,14.424808 0 0 1 0.61003,4.289316 26.905127,26.905127 0 0 1 -0.90234,6.449859 l -4.13045,17.157261 h -5.9971 l 3.81272,-15.865701 c 0.29867,-1.201008 0.59098,-2.427434 0.86899,-3.674513 a 16.20408,16.20408 0 0 0 0.4194,-3.547423 6.4975183,6.4975183 0 0 0 -1.41707,-4.289315 q -1.42024,-1.707783 -5.29015,-1.709372 a 18.294724,18.294724 0 0 0 -3.18998,0.290721 11.009243,11.009243 0 0 0 -2.74199,0.805438 l -6.70721,27.988576 z"
     id="path34"
     inkscape:connector-curvature="0"
     style="fill:#ffffff;stroke-width:1.58863533" />
  <path
     d="m 501.14146,30.532087 a 10.008402,10.008402 0 0 1 3.27577,-7.012236 10.492936,10.492936 0 0 1 7.13933,-2.614894 8.8852372,8.8852372 0 0 1 5.56022,1.726847 4.9692512,4.9692512 0 0 1 1.77609,3.884213 3.6141453,3.6141453 0 0 1 -3.58555,3.634798 h -0.0842 a 3.6093794,3.6093794 0 0 1 -3.97159,-3.712641 3.9096314,3.9096314 0 0 1 3.05018,-3.855618 2.0842895,2.0842895 0 0 0 -1.88095,-0.740304 3.1899797,3.1899797 0 0 0 -2.81982,1.369404 c -0.71171,1.042145 -1.03738,3.304361 -1.03738,7.320431 z M 477.8759,26.083908 h 7.18857 V 41.29509 c 0.43052,-5.225021 3.39333,-8.370519 8.28632,-8.370519 5.03757,0 7.71759,3.4108 7.71759,8.810571 v 12.893364 h -7.02176 v -10.45322 c 0,-3.294829 -1.14223,-5.280623 -4.43071,-5.280623 -3.16774,0 -4.55144,2.273337 -4.55144,5.885893 v 9.849539 h -7.18857 z m 61.4643,6.840663 a 7.6254494,7.6254494 0 0 0 -8.12587,7.596854 v -0.147743 c 0,-5.461728 -3.63639,-7.449111 -7.63498,-7.449111 a 8.6199351,8.6199351 0 0 0 -8.16082,7.784313 h -7.14886 v 13.913268 h 7.18857 v -9.833653 c 0,-3.618911 1.18036,-5.892248 4.3481,-5.892248 3.28688,0 4.18129,1.992149 4.18129,5.280624 v 10.45322 h 7.23305 v -9.803468 c 0,-3.614146 1.49967,-5.930376 4.30362,-5.930376 3.33613,0 4.14792,1.992149 4.14792,5.280624 v 10.45322 h 7.22829 v -12.89813 c -0.006,-5.40136 -2.4465,-8.805805 -7.56031,-8.805805 z m -31.07689,27.959981 a 10.008402,10.008402 0 0 1 -3.27735,7.012236 10.500879,10.500879 0 0 1 -7.13933,2.61966 8.9265417,8.9265417 0 0 1 -5.56022,-1.726847 4.9819603,4.9819603 0 0 1 -1.78245,-3.888979 3.610968,3.610968 0 0 1 3.59032,-3.628443 h 0.0937 a 3.5998476,3.5998476 0 0 1 3.96046,3.706286 3.9112201,3.9112201 0 0 1 -3.04541,3.861973 2.0954099,2.0954099 0 0 0 1.88094,0.733949 3.1597956,3.1597956 0 0 0 2.81983,-1.367815 c 0.71171,-1.042144 1.04215,-3.304361 1.04215,-7.320431 z m 7.50313,1.776094 h 1.86982 v 4.607043 h 1.7475 v -4.607043 h 1.90636 v -1.429771 h -5.52845 z m 11.61928,3.844498 -0.33679,-0.892813 a 1.2439014,1.2439014 0 0 0 -1.07551,-0.822913 1.4901399,1.4901399 0 0 0 1.42977,-1.54892 v -0.02859 c 0,-1.312213 -0.83244,-1.969908 -2.47191,-1.969908 h -2.71816 v 6.036814 h 1.7475 V 65.43282 h 0.5735 a 0.7291836,0.7291836 0 0 1 0.81656,0.617979 l 0.17633,0.546491 a 1.5171467,1.5171467 0 0 0 0.38128,0.673581 l 0.0111,0.01112 h 1.95243 l -0.0651,-0.06196 a 1.8650578,1.8650578 0 0 1 -0.40828,-0.711709 z m -3.43781,-3.866738 h 0.83245 c 0.55761,0 0.83403,0.236706 0.83403,0.733949 0,0.497243 -0.24783,0.716475 -0.83403,0.716475 h -0.83245 z m 7.46659,-1.550508 a 3.1772706,3.1772706 0 1 0 3.06288,3.188391 2.8436572,2.8436572 0 0 0 -3.06288,-3.188391 z m 0,4.832628 c -0.79432,0 -1.22484,-0.567143 -1.22484,-1.644237 0,-1.112045 0.41463,-1.676011 1.22484,-1.676011 0.8102,0 1.24231,0.562377 1.24231,1.676011 0,1.077094 -0.43052,1.650592 -1.24231,1.650592 z m 7.08531,-2.300344 -0.85627,-0.176338 c -0.43053,-0.08261 -0.61163,-0.254182 -0.61163,-0.568732 0,-0.31455 0.26371,-0.517895 0.69423,-0.517895 0.50837,0 0.76255,0.19858 0.79432,0.635454 v 0.03972 l 1.68396,-0.200168 v -0.03177 c -0.0334,-1.086626 -0.90553,-1.71096 -2.38296,-1.71096 -0.92776,0 -2.48303,0.254182 -2.48303,1.958787 a 1.7967465,1.7967465 0 0 0 1.61723,1.869824 l 0.91505,0.2097 c 0.59097,0.158864 0.74507,0.238295 0.74507,0.563966 0,0.32567 -0.25895,0.47659 -0.79432,0.47659 a 1.2216605,1.2216605 0 0 1 -1.31857,-0.838799 l -0.0111,-0.04448 -1.35669,0.573497 v 0.0286 c 0.18269,1.026258 1.05327,1.544153 2.60377,1.544153 1.65536,0 2.56565,-0.662461 2.56565,-1.869823 a 1.95561,1.95561 0 0 0 -1.79834,-1.936547 z m 5.92402,0 -0.85469,-0.176338 c -0.43052,-0.08261 -0.61162,-0.254182 -0.61162,-0.568732 0,-0.31455 0.26371,-0.517895 0.69423,-0.517895 0.50837,0 0.75619,0.19858 0.79432,0.635454 v 0.03972 l 1.68872,-0.200168 v -0.03177 c -0.0381,-1.086626 -0.91029,-1.71096 -2.39407,-1.71096 -0.92777,0 -2.47827,0.254182 -2.47827,1.958787 a 1.7935692,1.7935692 0 0 0 1.61723,1.869824 l 0.91505,0.2097 c 0.59097,0.158864 0.74031,0.238295 0.74031,0.563966 0,0.32567 -0.25895,0.47659 -0.79432,0.47659 a 1.215306,1.215306 0 0 1 -1.3138,-0.838799 l -0.0111,-0.04448 -1.3567,0.573497 v 0.0286 c 0.17793,1.026258 1.05485,1.544153 2.60377,1.544153 1.65536,0 2.56565,-0.662461 2.56565,-1.869823 a 1.9635532,1.9635532 0 0 0 -1.8031,-1.936547 z m 3.01841,3.653861 h 1.7475 v -6.036814 h -1.7475 z m 7.66357,-4.130451 c 0,0.743481 0.0334,1.318567 0.0429,1.517146 a 5.2424965,5.2424965 0 0 0 -0.59574,-0.916642 l -1.94131,-2.510044 h -1.84282 v 6.036814 h 1.7475 v -2.074758 c 0,-0.821324 -0.0493,-1.401176 -0.0667,-1.599755 a 7.2600633,7.2600633 0 0 0 0.67834,1.031024 l 2.13513,2.65461 h 1.58863 v -6.036815 h -1.74749 z m 5.97963,-0.657695 c 0.56873,0 0.93253,0.317727 1.11999,0.97701 l 0.0111,0.04448 1.5235,-0.794318 -0.0175,-0.0286 a 2.5052779,2.5052779 0 0 0 -2.59901,-1.599756 2.8754299,2.8754299 0 0 0 -3.05018,3.199512 2.7610481,2.7610481 0 0 0 2.70068,3.139143 1.6410603,1.6410603 0 0 0 1.56163,-0.816558 l 0.23671,0.668815 h 1.15335 v -3.243993 h -2.61489 v 1.202597 h 1.04691 a 0.93411755,0.93411755 0 0 1 -1.03738,0.816558 v 0 c -0.80385,0 -1.28997,-0.673581 -1.28997,-1.798335 0,-1.528267 0.78319,-1.760208 1.25184,-1.760208 z m 4.09868,4.789735 h 4.5848 V 65.84586 h -2.83572 v -0.903933 h 2.46239 v -1.318568 h -2.45603 v -0.953181 h 2.83571 v -1.429771 h -4.5848 z m 10.32613,-6.036814 v 1.906362 c 0,0.743482 0.0334,1.318568 0.0445,1.517147 a 5.1868942,5.1868942 0 0 0 -0.59574,-0.921409 l -1.9429,-2.505277 h -1.84123 v 6.036814 h 1.7475 v -2.076347 c 0,-0.827679 -0.0493,-1.401176 -0.0651,-1.599755 a 6.9899953,6.9899953 0 0 0 0.67835,1.031024 l 2.13513,2.648255 h 1.58863 v -6.036814 z"
     id="path36"
     inkscape:connector-curvature="0"
     style="fill:#ffffff;stroke-width:1.58863533" />
</svg>
