<?xml version="1.0" encoding="UTF-8" standalone="no"?>
<svg
   xmlns:dc="http://purl.org/dc/elements/1.1/"
   xmlns:cc="http://creativecommons.org/ns#"
   xmlns:rdf="http://www.w3.org/1999/02/22-rdf-syntax-ns#"
   xmlns:svg="http://www.w3.org/2000/svg"
   xmlns="http://www.w3.org/2000/svg"
   xmlns:sodipodi="http://sodipodi.sourceforge.net/DTD/sodipodi-0.dtd"
   xmlns:inkscape="http://www.inkscape.org/namespaces/inkscape"
   id="Ebene_1"
   data-name="Ebene 1"
   viewBox="0 0 746.32005 88.532968"
   version="1.1"
   sodipodi:docname="bwms_hsmm_desktop.svg"
   width="746.32007"
   height="88.532967"
   inkscape:version="0.92.5 (2060ec1f9f, 2020-04-08)">
  <metadata
     id="metadata53">
    <rdf:RDF>
      <cc:Work
         rdf:about="">
        <dc:format>image/svg+xml</dc:format>
        <dc:type
           rdf:resource="http://purl.org/dc/dcmitype/StillImage" />
        <dc:title></dc:title>
      </cc:Work>
    </rdf:RDF>
  </metadata>
  <defs
     id="defs51" />
  <sodipodi:namedview
     pagecolor="#ffffff"
     bordercolor="#666666"
     borderopacity="1"
     objecttolerance="10"
     gridtolerance="10"
     guidetolerance="10"
     inkscape:pageopacity="0"
     inkscape:pageshadow="2"
     inkscape:window-width="1976"
     inkscape:window-height="1088"
     id="namedview49"
     showgrid="false"
     fit-margin-top="15"
     fit-margin-left="15"
     fit-margin-right="15"
     fit-margin-bottom="15"
     inkscape:zoom="0.89937416"
     inkscape:cx="232.75401"
     inkscape:cy="28.788501"
     inkscape:window-x="72"
     inkscape:window-y="27"
     inkscape:window-maximized="1"
     inkscape:current-layer="Ebene_1" />
  <path
     d="m 410.12492,52.31867 c 0,2.222419 -2.4512,4.033037 -5.47108,4.033037 -3.01987,0 -5.46617,-1.810618 -5.46617,-4.033037 0,-2.222419 2.4512,-4.024867 5.46617,-4.024867 3.01498,0 5.47108,1.800814 5.47108,4.024867 z"
     id="path2"
     inkscape:connector-curvature="0"
     style="fill:#ffffff;stroke-width:1.63413191" />
  <path
     d="m 428.51544,48.293803 c 0,2.220785 -2.4512,4.024867 -5.47271,4.024867 -3.02151,0 -5.46781,-1.797545 -5.46781,-4.024867 0,-2.227322 2.4512,-4.033037 5.46781,-4.033037 3.01661,0 5.47271,1.80735 5.47271,4.033037 z"
     id="path4"
     inkscape:connector-curvature="0"
     style="fill:#ffffff;stroke-width:1.63413191" />
  <rect
     x="407.40738"
     y="32.457432"
     width="2.7927313"
     height="19.861238"
     id="rect6"
     style="fill:#ffffff;stroke-width:1.63413191" />
  <rect
     x="425.75702"
     y="28.430931"
     width="2.7927313"
     height="19.861238"
     id="rect8"
     style="fill:#ffffff;stroke-width:1.63413191" />
  <rect
     x="408.80289"
     y="29.581358"
     width="18.349667"
     height="5.9335327"
     id="rect10"
     style="fill:#ffffff;stroke-width:1.63413191" />
  <path
     d="M 428.54812,36.912075 H 407.40736 V 28.18581 h 21.14076 z m -18.34803,-2.792732 h 15.55693 v -3.142436 h -15.55693 z"
     id="path12"
     inkscape:connector-curvature="0"
     style="fill:#ffffff;stroke-width:1.63413191" />
  <path
     d="m 34.170001,47.968611 a 13.645001,13.645001 0 0 0 -1.227233,-6.76694 4.5494231,4.5494231 0 0 0 -4.212792,-1.988739 c -0.619336,0 -1.258282,0.03268 -1.921739,0.09805 -0.663458,0.06537 -1.307306,0.143804 -1.923373,0.233681 V 66.475154 H 15 V 32.777721 c 0.839944,-0.222242 1.823691,-0.452655 2.952876,-0.697775 1.129185,-0.24512 2.322102,-0.464093 3.580383,-0.653652 1.258282,-0.18956 2.555782,-0.354607 3.881063,-0.464094 1.325281,-0.109487 2.630953,-0.163413 3.921917,-0.163413 a 16.488391,16.488391 0 0 1 6.134531,0.960869 13.899926,13.899926 0 0 1 3.879429,2.287785 18.496739,18.496739 0 0 1 9.945327,-3.260093 17.485211,17.485211 0 0 1 6.863354,1.160234 10.363664,10.363664 0 0 1 4.279791,3.284605 12.450451,12.450451 0 0 1 2.188103,5.041297 32.478371,32.478371 0 0 1 0.598092,6.498942 v 19.702728 h -9.88323 V 47.968611 a 13.645001,13.645001 0 0 0 -1.227233,-6.76694 4.5494231,4.5494231 0 0 0 -4.212792,-1.988739 8.9354331,8.9354331 0 0 0 -2.222419,0.397094 8.624948,8.624948 0 0 0 -2.354784,0.995187 14.971916,14.971916 0 0 1 0.596458,3.217605 c 0.08988,1.125917 0.133999,2.333541 0.133999,3.6147 v 19.037636 h -9.884864 z"
     id="path14"
     inkscape:connector-curvature="0"
     style="fill:#ffffff;stroke-width:1.63413191" />
  <path
     d="m 101.96523,65.282238 a 55.091488,55.091488 0 0 1 -6.50221,1.359598 53.436112,53.436112 0 0 1 -8.356951,0.629141 19.882483,19.882483 0 0 1 -7.396081,-1.192917 11.236291,11.236291 0 0 1 -4.678519,-3.351604 13.073055,13.073055 0 0 1 -2.451198,-5.139345 27.718145,27.718145 0 0 1 -0.728823,-6.567576 V 31.58317 h 9.881595 v 18.243449 a 14.161387,14.161387 0 0 0 1.258282,6.897671 5.0151507,5.0151507 0 0 0 4.7063,2.1162 q 1.060551,0 2.255102,-0.09968 1.19455,-0.09968 2.124371,-0.232046 V 31.58317 h 9.884862 z"
     id="path16"
     inkscape:connector-curvature="0"
     style="fill:#ffffff;stroke-width:1.63413191" />
  <path
     d="m 121.2676,59.376486 a 9.8652541,9.8652541 0 0 0 3.85164,-0.535996 2.0524696,2.0524696 0 0 0 1.12592,-2.057372 2.5181972,2.5181972 0 0 0 -1.45764,-2.08842 27.814559,27.814559 0 0 0 -4.44484,-2.023056 45.379842,45.379842 0 0 1 -4.21279,-1.797545 12.389988,12.389988 0 0 1 -3.21761,-2.222419 8.9877253,8.9877253 0 0 1 -2.05574,-3.085241 11.367021,11.367021 0 0 1 -0.73046,-4.312474 9.3227223,9.3227223 0 0 1 3.64575,-7.742517 15.875591,15.875591 0 0 1 10.0156,-2.85156 32.135203,32.135203 0 0 1 6.10348,0.563775 28.319505,28.319505 0 0 1 4.64257,1.227233 l -1.72401,7.695128 a 36.294069,36.294069 0 0 0 -3.74707,-1.062186 20.426648,20.426648 0 0 0 -4.54452,-0.464094 q -4.6442,0 -4.64256,2.586831 a 2.6881469,2.6881469 0 0 0 0.19773,1.062186 2.2877846,2.2877846 0 0 0 0.79582,0.895504 11.362119,11.362119 0 0 0 1.63413,0.93309 q 1.02623,0.500044 2.61461,1.103039 a 40.363057,40.363057 0 0 1 5.37139,2.364588 12.852447,12.852447 0 0 1 3.34997,2.526368 7.7931749,7.7931749 0 0 1 1.72238,3.010071 13.381906,13.381906 0 0 1 0.49841,3.84021 8.8422876,8.8422876 0 0 1 -3.87943,7.809516 19.35956,19.35956 0 0 1 -10.983,2.652196 31.02236,31.02236 0 0 1 -12.00597,-2.124371 l 1.66191,-8.023588 a 32.355811,32.355811 0 0 0 5.17366,1.558962 25.165631,25.165631 0 0 0 5.24067,0.562142 z"
     id="path18"
     inkscape:connector-curvature="0"
     style="fill:#ffffff;stroke-width:1.63413191" />
  <path
     d="m 154.23457,21.500577 a 5.4220496,5.4220496 0 0 1 -1.75832,4.278157 6.2897736,6.2897736 0 0 1 -8.28995,0 5.415513,5.415513 0 0 1 -1.75833,-4.278157 5.4187813,5.4187813 0 0 1 1.75833,-4.278158 6.2848712,6.2848712 0 0 1 8.28995,0 5.4236837,5.4236837 0 0 1 1.75832,4.278158 z m -0.92818,44.974577 h -9.88487 V 31.58317 h 9.88487 z"
     id="path20"
     inkscape:connector-curvature="0"
     style="fill:#ffffff;stroke-width:1.63413191" />
  <path
     d="m 160.93451,49.035699 a 20.555745,20.555745 0 0 1 1.22724,-7.131351 16.691023,16.691023 0 0 1 9.18709,-9.783548 18.604591,18.604591 0 0 1 7.56276,-1.45928 24.420467,24.420467 0 0 1 5.10666,0.490239 24.851878,24.851878 0 0 1 4.5102,1.426597 l -2.05573,7.894492 a 24.70644,24.70644 0 0 0 -3.05256,-0.928187 15.882128,15.882128 0 0 0 -3.71438,-0.398728 7.8258576,7.8258576 0 0 0 -6.53653,2.719195 11.193803,11.193803 0 0 0 -2.15215,7.170571 11.587629,11.587629 0 0 0 2.02305,7.296399 q 2.02306,2.588465 7.06435,2.586831 a 24.131225,24.131225 0 0 0 3.84838,-0.326827 16.324977,16.324977 0 0 0 3.77975,-1.060551 l 1.39392,8.093855 a 23.100088,23.100088 0 0 1 -4.31248,1.258281 28.384871,28.384871 0 0 1 -5.70475,0.531093 21.464322,21.464322 0 0 1 -8.22459,-1.426597 15.465424,15.465424 0 0 1 -5.67207,-3.879429 15.112452,15.112452 0 0 1 -3.25029,-5.804436 24.618197,24.618197 0 0 1 -1.02787,-7.268619 z"
     id="path22"
     inkscape:connector-curvature="0"
     style="fill:#ffffff;stroke-width:1.63413191" />
  <path
     d="m 205.445,62.16268 a 15.282401,15.282401 0 0 0 2.81887,-0.264729 8.4451935,8.4451935 0 0 0 2.52147,-0.862822 5.0380286,5.0380286 0 0 0 1.78937,-1.624327 4.4513752,4.4513752 0 0 0 0.69778,-2.554148 4.3876441,4.3876441 0 0 0 -0.32683,-1.758326 4.3043034,4.3043034 0 0 0 -1.06055,-1.426597 10.78527,10.78527 0 0 0 -1.82532,-1.292598 q -1.09651,-0.630775 -2.61462,-1.426597 -1.52627,-0.728823 -2.78619,-1.457646 a 10.143057,10.143057 0 0 1 -2.22405,-1.725643 7.0267671,7.0267671 0 0 1 -1.49197,-2.356418 9.0024325,9.0024325 0 0 1 -0.52946,-3.281337 9.9387901,9.9387901 0 0 1 3.58039,-7.994173 q 3.58365,-3.016608 10.41432,-3.019876 a 22.387607,22.387607 0 0 1 5.60671,0.630774 15.372279,15.372279 0 0 1 3.34997,1.161868 l -2.3221,5.041298 a 14.764381,14.764381 0 0 0 -2.98393,-1.127551 16.388709,16.388709 0 0 0 -4.57557,-0.598093 12.226575,12.226575 0 0 0 -2.51983,0.266364 7.1754731,7.1754731 0 0 0 -2.28778,0.895504 4.9399807,4.9399807 0 0 0 -1.65865,1.658644 4.6605441,4.6605441 0 0 0 -0.63077,2.487149 3.6751626,3.6751626 0 0 0 1.39391,2.951242 18.692835,18.692835 0 0 0 4.17848,2.423417 30.068027,30.068027 0 0 1 3.0836,1.624327 11.014049,11.014049 0 0 1 2.3221,1.856374 6.9058413,6.9058413 0 0 1 1.46092,2.421784 9.9224487,9.9224487 0 0 1 0.49024,3.315653 10.83266,10.83266 0 0 1 -1.06055,4.902396 9.6560853,9.6560853 0 0 1 -2.95288,3.516652 13.272419,13.272419 0 0 1 -4.47589,2.090054 21.663686,21.663686 0 0 1 -5.63939,0.694506 25.34702,25.34702 0 0 1 -4.08533,-0.297412 26.620008,26.620008 0 0 1 -3.18328,-0.69614 14.707187,14.707187 0 0 1 -2.25674,-0.830139 c -0.59809,-0.287607 -1.05075,-0.51802 -1.3596,-0.69614 l 2.3891,-5.039663 q 0.46083,0.26473 1.2926,0.661824 a 18.243448,18.243448 0 0 0 1.98874,0.795822 18.740224,18.740224 0 0 0 2.55578,0.663458 15.460522,15.460522 0 0 0 2.91693,0.271265 z"
     id="path24"
     inkscape:connector-curvature="0"
     style="fill:#ffffff;stroke-width:1.63413191" />
  <path
     d="m 237.61615,67.337976 a 16.024297,16.024297 0 0 1 -5.83712,-0.959235 11.585995,11.585995 0 0 1 -4.11311,-2.653831 10.63493,10.63493 0 0 1 -2.4512,-3.946428 14.238191,14.238191 0 0 1 -0.79582,-4.776567 28.973158,28.973158 0 0 1 1.39228,-8.956677 24.605124,24.605124 0 0 1 3.97911,-7.628128 19.370999,19.370999 0 0 1 6.30285,-5.273344 17.812037,17.812037 0 0 1 8.42395,-1.960958 14.002876,14.002876 0 0 1 4.67852,0.697774 8.6396552,8.6396552 0 0 1 3.18329,1.889057 7.5872743,7.5872743 0 0 1 1.82369,2.753512 8.9190918,8.9190918 0 0 1 0.59646,3.217606 11.27551,11.27551 0 0 1 -1.12592,5.273344 11.067975,11.067975 0 0 1 -2.98556,3.614699 13.726708,13.726708 0 0 1 -4.34515,2.256736 38.477269,38.477269 0 0 1 -5.1753,1.259916 48.836031,48.836031 0 0 1 -5.43839,0.629141 q -2.75351,0.163413 -5.20635,0.299046 a 6.9908162,6.9908162 0 0 0 -0.067,0.862822 v 0.529458 a 11.064707,11.064707 0 0 0 0.36441,2.885877 5.3828304,5.3828304 0 0 0 1.35959,2.389101 6.7800132,6.7800132 0 0 0 2.75352,1.624327 14.643456,14.643456 0 0 0 4.60988,0.596458 15.524253,15.524253 0 0 0 2.61461,-0.230412 22.714433,22.714433 0 0 0 2.58683,-0.596459 q 1.2256,-0.366045 2.18974,-0.730456 a 5.0135166,5.0135166 0 0 0 1.3596,-0.696141 l 0.52946,5.240661 a 21.840173,21.840173 0 0 1 -4.27816,1.558962 25.802942,25.802942 0 0 1 -6.92872,0.830139 z m -6.30121,-18.972271 q 3.84348,-0.132365 7.02677,-0.49841 a 22.449704,22.449704 0 0 0 5.50539,-1.258282 8.7393373,8.7393373 0 0 0 3.6147,-2.423417 5.935167,5.935167 0 0 0 1.29423,-3.979111 3.8304051,3.8304051 0 0 0 -0.23368,-1.26155 3.2911416,3.2911416 0 0 0 -0.79419,-1.227233 4.2814255,4.2814255 0 0 0 -1.55896,-0.926553 7.2146922,7.2146922 0 0 0 -2.4512,-0.366046 9.7279871,9.7279871 0 0 0 -4.34516,0.995187 13.159664,13.159664 0 0 0 -3.6147,2.614611 15.834738,15.834738 0 0 0 -2.72083,3.783015 20.426648,20.426648 0 0 0 -1.72237,4.547789 z"
     id="path26"
     inkscape:connector-curvature="0"
     style="fill:#ffffff;stroke-width:1.63413191" />
  <path
     d="m 279.47281,66.872248 q -0.32683,-0.727188 -0.66183,-1.624327 a 12.303379,12.303379 0 0 1 -0.53273,-1.89069 19.848166,19.848166 0 0 1 -3.91211,2.65383 12.571377,12.571377 0 0 1 -6.03811,1.325281 12.265794,12.265794 0 0 1 -5.00698,-0.928187 8.9076529,8.9076529 0 0 1 -3.41697,-2.586831 10.82449,10.82449 0 0 1 -1.96096,-3.912111 18.397057,18.397057 0 0 1 -0.63078,-4.975932 26.067672,26.067672 0 0 1 1.49197,-8.690313 21.897367,21.897367 0 0 1 11.97328,-12.935789 25.240801,25.240801 0 0 1 10.54832,-2.055738 25.904258,25.904258 0 0 1 4.17848,0.398729 13.236468,13.236468 0 0 1 4.11311,1.325281 l -5.10667,20.830279 q -0.32682,1.524645 -0.56541,2.91856 a 17.689478,17.689478 0 0 0 -0.23204,2.918559 18.197693,18.197693 0 0 0 0.26636,3.083607 18.553933,18.553933 0 0 0 0.92819,3.351604 z m -9.88323,-4.774933 a 9.1217241,9.1217241 0 0 0 4.77656,-1.19455 15.336328,15.336328 0 0 0 3.44802,-2.778024 q 0.0654,-1.125917 0.23368,-2.354784 c 0.10949,-0.817066 0.25329,-1.645571 0.42978,-2.487149 l 3.98074,-16.450806 a 4.2487429,4.2487429 0 0 0 -1.09486,-0.19773 c -0.50985,-0.04575 -0.96251,-0.067 -1.3596,-0.067 a 15.61413,15.61413 0 0 0 -6.83231,1.45928 16.318441,16.318441 0 0 0 -5.20798,3.879429 17.140409,17.140409 0 0 0 -3.31565,5.637755 19.688021,19.688021 0 0 0 -1.16023,6.734257 15.256255,15.256255 0 0 0 0.26473,2.818878 6.9777431,6.9777431 0 0 0 0.9625,2.521465 5.5560484,5.5560484 0 0 0 1.85637,1.797545 5.8077047,5.8077047 0 0 0 3.01825,0.681433 z"
     id="path28"
     inkscape:connector-curvature="0"
     style="fill:#ffffff;stroke-width:1.63413191" />
  <path
     d="m 310.38568,31.251441 c 0.52946,0 1.12591,0.02288 1.78937,0.06536 a 19.645533,19.645533 0 0 1 1.96096,0.233681 c 0.63895,0.109487 1.22723,0.222242 1.75833,0.326827 a 5.2128807,5.2128807 0 0 1 1.19291,0.364411 l -1.78937,5.373026 a 13.973462,13.973462 0 0 0 -3.05256,-0.795822 21.897367,21.897367 0 0 0 -3.31729,-0.264729 19.008222,19.008222 0 0 0 -2.75188,0.199364 13.903194,13.903194 0 0 0 -2.35641,0.529459 l -7.02677,29.187229 h -6.17048 l 7.95985,-33.172878 a 38.542634,38.542634 0 0 1 5.70476,-1.491962 33.708872,33.708872 0 0 1 6.09858,-0.553971 z"
     id="path30"
     inkscape:connector-curvature="0"
     style="fill:#ffffff;stroke-width:1.63413191" />
  <path
     d="m 315.22761,54.135825 a 27.897899,27.897899 0 0 1 1.3596,-8.68868 21.972537,21.972537 0 0 1 4.01343,-7.363398 19.282756,19.282756 0 0 1 15.32325,-6.966304 28.107068,28.107068 0 0 1 4.17848,0.30068 13.122079,13.122079 0 0 1 3.78138,1.160233 l -2.3221,5.181833 a 9.4273068,9.4273068 0 0 0 -2.48715,-0.928187 16.792339,16.792339 0 0 0 -3.6817,-0.326826 11.87687,11.87687 0 0 0 -5.83712,1.426597 14.20224,14.20224 0 0 0 -4.41216,3.781381 17.066873,17.066873 0 0 0 -2.77802,5.438391 21.305811,21.305811 0 0 0 -0.96251,6.400895 13.919535,13.919535 0 0 0 0.36442,3.250288 6.7391599,6.7391599 0 0 0 1.29423,2.688147 6.2097011,6.2097011 0 0 0 2.48715,1.823691 10.131618,10.131618 0 0 0 3.94643,0.661823 14.594432,14.594432 0 0 0 2.52146,-0.230412 22.348388,22.348388 0 0 0 2.4512,-0.563776 21.209398,21.209398 0 0 0 2.01815,-0.707579 5.0511016,5.0511016 0 0 0 1.29423,-0.694506 l 0.53273,5.240661 a 16.035736,16.035736 0 0 1 -3.92191,1.557328 21.881026,21.881026 0 0 1 -6.03649,0.761505 15.418034,15.418034 0 0 1 -5.63775,-0.959235 11.167657,11.167657 0 0 1 -4.11311,-2.72083 11.739603,11.739603 0 0 1 -2.52147,-4.178475 15.816762,15.816762 0 0 1 -0.85465,-5.345245 z"
     id="path32"
     inkscape:connector-curvature="0"
     style="fill:#ffffff;stroke-width:1.63413191" />
  <path
     d="M 342.22347,66.475154 354.36343,16.062186 360.79701,15 356.54827,32.445992 a 23.381159,23.381159 0 0 1 3.21597,-0.862822 17.767916,17.767916 0 0 1 3.41697,-0.326826 14.332971,14.332971 0 0 1 5.14098,0.828505 9.1789187,9.1789187 0 0 1 3.48397,2.256736 8.8651654,8.8651654 0 0 1 1.96096,3.448018 14.793796,14.793796 0 0 1 0.63077,4.412157 27.75573,27.75573 0 0 1 -0.92982,6.632941 l -4.24874,17.648624 h -6.17048 l 3.92191,-16.318441 q 0.4641,-1.856374 0.89551,-3.781381 a 16.764559,16.764559 0 0 0 0.42977,-3.647382 6.6803311,6.6803311 0 0 0 -1.45764,-4.412156 q -1.46092,-1.756692 -5.44003,-1.758326 a 18.817029,18.817029 0 0 0 -3.28297,0.297412 11.250998,11.250998 0 0 0 -2.82051,0.830139 l -6.89767,28.788501 z"
     id="path34"
     inkscape:connector-curvature="0"
     style="fill:#ffffff;stroke-width:1.63413191" />
  <path
     d="M 731.32007,73.359752 H 550.68804 M 731.32007,21.909109 H 550.68804 M 731.32007,34.77463 H 550.68804 M 731.32007,47.633614 H 550.68804 m 180.63203,12.86552 H 550.68804"
     id="path36"
     inkscape:connector-curvature="0"
     style="fill:none;stroke:#ffffff;stroke-width:0.34316769" />
  <polygon
     points="324.474,31.667 313.975,18.297 308.627,18.297 308.627,49.991 340.322,49.991 340.322,18.297 334.972,18.297 "
     id="polygon38"
     transform="matrix(1.6341319,0,0,1.6341319,-21.625798,-8.1589174)"
     style="fill:#ffffff" />
  <path
     d="m 556.36665,70.691215 a 2.3940032,2.3940032 0 0 0 2.46917,-2.640757 v -4.797812 h -0.9478 v 4.766763 c 0,1.112844 -0.5507,1.738716 -1.52137,1.738716 -0.97068,0 -1.52955,-0.625872 -1.52955,-1.738716 v -4.766763 h -0.93963 v 4.799446 a 2.3940032,2.3940032 0 0 0 2.46918,2.640757 z m 4.9269,-3.014974 c 0,-0.750066 0.36768,-1.354695 1.0867,-1.354695 0.81707,0 1.08507,0.553971 1.08507,1.24194 v 2.970852 h 0.90857 v -3.132631 c 0,-1.101405 -0.5507,-1.960958 -1.66681,-1.960958 a 1.5720349,1.5720349 0 0 0 -1.4315,0.851383 v -0.705945 h -0.8906 v 4.93998 h 0.90857 z m 5.39264,2.858097 v -4.939981 h -0.90041 v 4.939981 z m -1.10467,-6.812696 a 0.65365275,0.65365275 0 1 0 0.65365,-0.699408 0.66999407,0.66999407 0 0 0 -0.65365,0.699408 z m 6.66889,1.872715 h -0.98048 l -1.33999,3.810796 -1.32855,-3.810796 h -1.02296 l 1.88415,4.939981 h 0.92328 l 1.85801,-4.939981 z m 1.3694,1.960959 a 1.2942324,1.2942324 0 0 1 1.26972,-1.269721 1.2125259,1.2125259 0 0 1 1.28116,1.269721 z m 2.68488,1.281159 a 1.2795253,1.2795253 0 0 1 -1.30731,0.995186 1.4265971,1.4265971 0 0 1 -1.40372,-1.498499 h 3.50685 a 2.5851966,2.5851966 0 0 0 0.0196,-0.308851 c 0,-1.54262 -0.80236,-2.588464 -2.23713,-2.588464 a 2.652196,2.652196 0 0 0 0.11439,5.252099 2.1243714,2.1243714 0 0 0 2.09333,-1.560596 l -0.78439,-0.290875 z m 4.59354,-3.300946 a 2.5263679,2.5263679 0 0 0 -0.30231,-0.02778 1.4478408,1.4478408 0 0 0 -1.39391,0.946163 V 65.59109 h -0.89224 v 4.93998 h 0.91021 v -2.469174 c 0,-1.089965 0.51475,-1.527913 1.28116,-1.527913 a 2.4610026,2.4610026 0 0 1 0.39709,0.03432 v -1.027869 z m 0.65366,3.714381 a 1.7828379,1.7828379 0 0 0 1.89886,1.438036 1.5818397,1.5818397 0 0 0 1.70276,-1.532815 1.4707187,1.4707187 0 0 0 -1.28606,-1.470719 l -0.75824,-0.173218 a 0.59318987,0.59318987 0 0 1 -0.53109,-0.59319 0.71411563,0.71411563 0 0 1 0.77458,-0.653653 0.92818691,0.92818691 0 0 1 0.97067,0.817066 l 0.80236,-0.326826 a 1.6766193,1.6766193 0 0 0 -1.77303,-1.325281 1.6341319,1.6341319 0 0 0 -1.65538,1.560596 1.3808414,1.3808414 0 0 0 1.16024,1.387378 l 0.79419,0.184657 c 0.38892,0.09478 0.60463,0.326826 0.60463,0.637311 0,0.351339 -0.28271,0.653653 -0.79746,0.653653 a 1.0115276,1.0115276 0 0 1 -1.08506,-0.923284 l -0.81707,0.307216 z m 5.68024,1.28116 v -4.936713 h -0.90041 v 4.939981 z m -1.10467,-6.812696 a 0.65365275,0.65365275 0 1 0 0.65365,-0.699408 0.66672581,0.66672581 0 0 0 -0.65365,0.699408 z m 3.85165,0.307217 h -0.83341 v 0.805627 a 0.67326233,0.67326233 0 0 1 -0.71575,0.759871 h -0.25329 v 0.872627 h 0.89223 v 2.714293 a 1.2435744,1.2435744 0 0 0 1.29587,1.403719 2.0165187,2.0165187 0 0 0 0.62097,-0.08988 v -0.817066 a 1.6962289,1.6962289 0 0 1 -0.35787,0.03922 c -0.47554,0 -0.65366,-0.223876 -0.65366,-0.676531 v -2.570489 h 1.00663 v -0.872627 h -1.00663 v -1.565498 z m 3.57384,8.575924 3.03132,-7.010426 h -0.98048 l -1.39228,3.412067 -1.45438,-3.412067 h -1.04585 l 2.00508,4.397449 -1.1635,2.614611 z m 8.321,-2.778024 c -0.77458,0 -1.45438,-0.62097 -1.45438,-1.768131 0,-1.147161 0.6798,-1.761594 1.45438,-1.761594 0.77458,0 1.45111,0.62097 1.45111,1.761594 0,1.140624 -0.67653,1.768131 -1.45111,1.768131 z m 0,-4.390913 a 2.639123,2.639123 0 1 0 2.37276,2.629318 2.42832,2.42832 0 0 0 -2.3793,-2.622781 z m 5.89758,1.027869 v -0.872626 h -1.12428 v -0.782749 c 0,-0.676531 0.41997,-0.844847 0.73863,-0.844847 a 0.96086954,0.96086954 0 0 1 0.39709,0.0621 v -0.861187 a 1.1814773,1.1814773 0 0 0 -0.54253,-0.101316 1.5197426,1.5197426 0 0 0 -1.52628,1.694595 v 0.833407 h -0.86445 v 0.872626 h 0.86445 v 4.067354 h 0.93309 v -4.060817 z m 10.91927,4.067354 v -7.275155 h -1.26972 l -2.43812,5.930265 -2.43486,-5.930265 h -1.28933 v 7.283326 h 0.93963 v -5.673706 l 2.32537,5.672072 h 0.87262 l 2.34335,-5.672072 v 5.672072 z m 4.71774,-0.593189 a 4.5036674,4.5036674 0 0 0 0.0392,0.593189 h 0.87099 c -0.018,-0.173217 -0.0474,-0.519653 -0.0474,-0.911845 v -4.021599 h -0.91021 v 2.977389 c 0,0.754969 -0.36931,1.263184 -1.10467,1.263184 -0.76641,0 -1.05729,-0.59319 -1.05729,-1.269721 v -2.970852 h -0.90857 v 3.104851 a 1.7861061,1.7861061 0 0 0 1.74198,1.98547 1.4919624,1.4919624 0 0 0 1.37594,-0.750066 z m 1.97567,-0.68797 a 1.7828379,1.7828379 0 0 0 1.89886,1.438036 1.5818397,1.5818397 0 0 0 1.70276,-1.532816 1.4707187,1.4707187 0 0 0 -1.28933,-1.470718 l -0.75497,-0.173218 a 0.59318987,0.59318987 0 0 1 -0.53109,-0.59319 0.71738389,0.71738389 0 0 1 0.77458,-0.653653 0.92818691,0.92818691 0 0 1 0.97067,0.817066 l 0.80236,-0.326826 a 1.6766193,1.6766193 0 0 0 -1.77303,-1.325281 1.6341319,1.6341319 0 0 0 -1.65538,1.560596 1.3775732,1.3775732 0 0 0 1.16024,1.387378 l 0.79419,0.184657 c 0.38892,0.09478 0.60462,0.326826 0.60462,0.637311 0,0.351338 -0.2827,0.653653 -0.79745,0.653653 a 1.0115276,1.0115276 0 0 1 -1.08507,-0.923285 l -0.81706,0.307217 z m 5.68024,1.281159 v -4.933444 h -0.90041 v 4.939981 z m -1.10467,-6.812695 a 0.65365275,0.65365275 0 1 0 0.64548,-0.699409 0.66672581,0.66672581 0 0 0 -0.64548,0.699409 z m 4.57556,2.614611 a 1.2452085,1.2452085 0 0 1 1.25012,1.045844 l 0.81706,-0.369314 a 2.0492014,2.0492014 0 0 0 -2.07371,-1.5704 2.6423912,2.6423912 0 0 0 0.01,5.252099 2.1586882,2.1586882 0 0 0 2.10313,-1.544254 l -0.80563,-0.369314 a 1.2827935,1.2827935 0 0 1 -1.2975,1.018064 c -0.75497,0 -1.42496,-0.602995 -1.42496,-1.733814 0,-1.130819 0.6798,-1.728911 1.41516,-1.728911 z m 5.3093,2.876072 a 1.4886941,1.4886941 0 0 0 1.55733,1.482157 1.6929606,1.6929606 0 0 0 1.50503,-0.817066 3.8843315,3.8843315 0 0 0 0.0474,0.676531 h 0.89224 a 4.4121561,4.4121561 0 0 1 -0.0621,-0.817066 v -2.478978 a 1.7125702,1.7125702 0 0 0 -1.95279,-1.812252 1.8253253,1.8253253 0 0 0 -1.90703,1.604717 l 0.87263,0.21734 a 1.0082594,1.0082594 0 0 1 1.05401,-1.000089 c 0.70758,0 1.00663,0.401997 1.00663,0.884065 0,0.178121 -0.0752,0.326827 -0.35788,0.374217 l -1.26155,0.196096 a 1.4854259,1.4854259 0 0 0 -1.41189,1.498498 v 0 z m 1.68642,0.671628 a 0.72718868,0.72718868 0 0 1 -0.75497,-0.722286 0.71901803,0.71901803 0 0 1 0.67654,-0.738628 l 1.42332,-0.228778 v 0.228778 c 0,1.080161 -0.60136,1.460914 -1.34489,1.460914 z m 4.57557,-2.204444 c 0,-0.750066 0.36768,-1.354695 1.08507,-1.354695 0.81706,0 1.08506,0.55397 1.08506,1.24194 v 2.970852 h 0.91185 v -3.129363 c 0,-1.101405 -0.55398,-1.960958 -1.66682,-1.960958 a 1.5818397,1.5818397 0 0 0 -1.4364,0.851383 v -0.705945 h -0.88897 v 4.93998 h 0.91021 v -2.849926 z m 5.10666,0.374216 c 0,-1.018064 0.54254,-1.738716 1.37594,-1.738716 0.83341,0 1.33672,0.697774 1.33672,1.715838 0,1.018065 -0.51475,1.797546 -1.34489,1.797546 -0.87262,0 -1.36777,-0.750067 -1.36777,-1.768131 z m 2.7241,1.818789 a 4.3680345,4.3680345 0 0 0 0.0474,0.665092 h 0.8808 a 7.5170066,7.5170066 0 0 1 -0.0507,-0.911846 v -6.529991 h -0.89714 v 3.194728 a 1.424963,1.424963 0 0 0 -1.42333,-0.828505 2.3760277,2.3760277 0 0 0 -2.20934,2.590099 2.3319062,2.3319062 0 0 0 2.20934,2.614611 1.5458888,1.5458888 0 0 0 1.44294,-0.884065 v 0.08498 z m 5.8698,-3.214337 v -2.500222 h 1.37594 a 1.2076235,1.2076235 0 0 1 1.33019,1.264818 1.1929163,1.1929163 0 0 1 -1.33019,1.235404 z m 1.5508,0.90204 a 2.1521517,2.1521517 0 0 0 0,-4.302669 h -2.49696 v 7.283326 h 0.94616 v -2.980657 z m 3.64738,0 a 1.2942324,1.2942324 0 0 1 1.26972,-1.26972 1.2076235,1.2076235 0 0 1 1.27789,1.26972 z m 2.68488,1.28116 a 1.2827935,1.2827935 0 0 1 -1.30731,0.995186 1.424963,1.424963 0 0 1 -1.40372,-1.498499 h 3.50521 a 1.9609583,1.9609583 0 0 0 0.0229,-0.308851 c 0,-1.54262 -0.80562,-2.588465 -2.23876,-2.588465 a 2.652196,2.652196 0 0 0 0.11439,5.2521 2.1243714,2.1243714 0 0 0 2.09332,-1.560596 l -0.78438,-0.290875 z m 4.59027,-3.300947 a 2.3858325,2.3858325 0 0 0 -0.29904,-0.02778 1.4511091,1.4511091 0 0 0 -1.39555,0.946163 v -0.862822 h -0.88897 v 4.939981 h 0.90531 v -2.46754 c 0,-1.089965 0.51475,-1.527913 1.28116,-1.527913 a 2.4005397,2.4005397 0 0 1 0.39709,0.03432 v -1.027869 z m 3.57385,0.928187 v -0.872626 h -1.12102 v -0.782749 c 0,-0.676531 0.41671,-0.844846 0.73536,-0.844846 a 0.94779649,0.94779649 0 0 1 0.3971,0.0621 v -0.861188 a 1.1684043,1.1684043 0 0 0 -0.54253,-0.101316 1.5213768,1.5213768 0 0 0 -1.52628,1.694595 v 0.833407 h -0.86446 v 0.872626 h 0.86446 v 4.067355 h 0.93635 v -4.062452 z m 2.97902,3.363044 c -0.77458,0 -1.45438,-0.62097 -1.45438,-1.768131 0,-1.14716 0.6798,-1.761594 1.45438,-1.761594 0.77458,0 1.45111,0.62097 1.45111,1.761594 0,1.140624 -0.67653,1.768131 -1.45111,1.768131 z m 0,-4.390913 a 2.639123,2.639123 0 1 0 2.38093,2.622782 2.42832,2.42832 0 0 0 -2.38093,-2.622782 z m 6.13126,0.09968 a 2.4511978,2.4511978 0 0 0 -0.29904,-0.02778 1.4543774,1.4543774 0 0 0 -1.39718,0.946163 v -0.862822 h -0.88897 v 4.939981 h 0.91021 v -2.46754 c 0,-1.089965 0.51475,-1.527913 1.27789,-1.527913 a 2.4299541,2.4299541 0 0 1 0.39709,0.03432 v -1.027869 z m 1.85148,4.995542 v -2.975755 a 1.1210145,1.1210145 0 0 1 1.08833,-1.253379 c 0.69614,0 0.98048,0.49024 0.98048,1.129185 v 3.104851 h 0.90857 v -2.987193 a 1.1291851,1.1291851 0 0 1 1.07363,-1.246843 c 0.68797,0 0.99028,0.49024 0.99028,1.129185 v 3.104851 h 0.90041 v -3.196362 a 1.6766193,1.6766193 0 0 0 -3.16858,-0.946162 1.4511091,1.4511091 0 0 0 -1.39555,-0.934724 1.5851079,1.5851079 0 0 0 -1.41189,0.800725 V 65.60416 h -0.87099 v 4.939981 z m 8.27034,0 v -4.935079 h -0.90041 v 4.939981 z m -1.10304,-6.812696 a 0.65365275,0.65365275 0 1 0 0.65365,-0.699409 0.66999407,0.66999407 0 0 0 -0.65365,0.699409 z m 3.4905,3.954599 c 0,-0.750067 0.36932,-1.354695 1.08834,-1.354695 0.81706,0 1.08506,0.55397 1.08506,1.24194 v 2.970852 h 0.90858 v -3.127729 c 0,-1.101405 -0.55234,-1.960958 -1.66682,-1.960958 a 1.5720349,1.5720349 0 0 0 -1.4315,0.851383 v -0.705945 h -0.88243 v 4.93998 h 0.90531 v -2.849926 z m 4.18992,3.126094 a 2.0753475,2.0753475 0 0 0 2.14888,1.840033 2.2011756,2.2011756 0 0 0 2.33191,-2.477344 v -4.575569 h -0.89714 v 0.687969 a 1.4511091,1.4511091 0 0 0 -1.43477,-0.782749 2.4152469,2.4152469 0 0 0 0,4.799445 1.5344498,1.5344498 0 0 0 1.42496,-0.817066 v 0.710848 c 0,1.067088 -0.44611,1.599815 -1.42496,1.599815 a 1.2664522,1.2664522 0 0 1 -1.26808,-1.21416 l -0.8808,0.217339 z m 2.28778,-1.307305 c -0.81706,0 -1.34489,-0.616068 -1.34489,-1.583474 0,-0.967406 0.54253,-1.583474 1.34489,-1.583474 0.80236,0 1.32855,0.627507 1.32855,1.583474 0,0.955967 -0.54253,1.583474 -1.32855,1.583474 z m 10.92744,1.045844 h 1.02787 l -2.7339,-7.283326 h -1.09487 l -2.73063,7.283326 h 1.01806 l 0.72392,-2.036128 h 3.04275 z m -2.27634,-6.237481 1.19128,3.268264 h -2.36622 z m 6.81923,1.24194 a 2.5263679,2.5263679 0 0 0 -0.30232,-0.02778 1.4478408,1.4478408 0 0 0 -1.39228,0.946162 v -0.862822 h -0.88896 v 4.939981 h 0.90694 v -2.474076 c 0,-1.089965 0.51475,-1.527913 1.28116,-1.527913 a 2.4610026,2.4610026 0 0 1 0.39709,0.03432 v -1.027869 z m 2.4512,-1.509938 h -0.83014 v 0.805627 a 0.67326233,0.67326233 0 0 1 -0.71902,0.759871 h -0.25166 v 0.872627 h 0.89224 v 2.714293 a 1.2452085,1.2452085 0 0 0 1.2975,1.403719 1.9691289,1.9691289 0 0 0 0.6177,-0.08988 v -0.817066 a 1.6717169,1.6717169 0 0 1 -0.35787,0.03922 c -0.47227,0 -0.65366,-0.223876 -0.65366,-0.67653 V 66.46698 h 1.00663 v -0.872627 h -1.00663 v -1.565498 z m 1.83513,5.229222 a 1.7779355,1.7779355 0 0 0 1.89559,1.438036 1.5834738,1.5834738 0 0 0 1.7044,-1.532816 1.4707187,1.4707187 0 0 0 -1.2877,-1.470718 l -0.7566,-0.173218 a 0.59318987,0.59318987 0 0 1 -0.53273,-0.59319 0.71738389,0.71738389 0 0 1 0.77785,-0.653653 0.92328451,0.92328451 0 0 1 0.96741,0.817066 l 0.80399,-0.326826 a 1.6749852,1.6749852 0 0 0 -1.7714,-1.325281 1.6341319,1.6341319 0 0 0 -1.65538,1.560596 1.3775732,1.3775732 0 0 0 1.1586,1.387378 l 0.79419,0.184657 c 0.39056,0.09478 0.603,0.326826 0.603,0.637311 0,0.351338 -0.27944,0.653653 -0.79419,0.653653 a 1.0066252,1.0066252 0 0 1 -1.08506,-0.923285 l -0.81707,0.307217 z"
     id="path40"
     inkscape:connector-curvature="0"
     style="fill:#ffffff;stroke-width:1.63413191" />
  <path
     d="m 561.40958,57.685159 v -7.283326 h -1.26809 l -2.44139,5.930265 -2.42179,-5.930265 h -1.28933 v 7.283326 h 0.93963 v -5.672072 l 2.327,5.672072 h 0.87263 l 2.34335,-5.672072 v 5.672072 z m 1.52954,-1.320378 a 1.4854259,1.4854259 0 0 0 1.55406,1.470718 1.6798876,1.6798876 0 0 0 1.50504,-0.817066 3.8679901,3.8679901 0 0 0 0.0474,0.676531 h 0.88897 a 4.8582741,4.8582741 0 0 1 -0.0588,-0.817066 v -2.483881 a 1.7142043,1.7142043 0 0 0 -1.93481,-1.812252 1.8253253,1.8253253 0 0 0 -1.90704,1.604718 l 0.86936,0.218973 a 1.01643,1.01643 0 0 1 1.05729,-1.001722 c 0.70758,0 1.00989,0.40363 1.00989,0.888967 0,0.174852 -0.0784,0.326827 -0.36114,0.369314 l -1.26155,0.196096 a 1.4854259,1.4854259 0 0 0 -1.40863,1.505035 v 0 z m 1.68316,0.666725 a 0.73209108,0.73209108 0 0 1 -0.085,-1.459279 l 1.42659,-0.222242 v 0.222242 c 0,1.080161 -0.60463,1.460913 -1.34816,1.460913 z m 4.71611,-2.197907 c 0,-0.750067 0.36768,-1.359598 1.08506,-1.359598 0.81706,0 1.08506,0.553971 1.08506,1.24194 v 2.969218 h 0.90858 v -3.132631 c 0,-1.101405 -0.5507,-1.951153 -1.66355,-1.951153 a 1.5753031,1.5753031 0 0 0 -1.43476,0.849748 v -0.70431 h -0.89224 v 4.938346 h 0.91185 z m 5.55604,0 c 0,-0.750067 0.36932,-1.359598 1.08507,-1.359598 0.81706,0 1.08506,0.553971 1.08506,1.24194 v 2.969218 h 0.91185 v -3.132631 c 0,-1.101405 -0.55397,-1.951153 -1.66682,-1.951153 a 1.5671325,1.5671325 0 0 0 -1.4315,0.849748 v -0.70431 h -0.89223 v 4.938346 h 0.90857 z m 5.55605,-0.05066 c 0.0196,-0.733725 0.38893,-1.307306 1.08507,-1.307306 0.81706,0 1.08506,0.553971 1.08506,1.241941 v 2.969217 h 0.91021 v -3.134265 c 0,-1.101405 -0.55234,-1.951153 -1.66518,-1.951153 a 1.6145223,1.6145223 0 0 0 -1.41516,0.720652 v -3.075436 h -0.90858 v 7.438568 h 0.90858 z m 5.29786,-0.07354 a 1.2876959,1.2876959 0 0 1 1.26645,-1.263184 1.2076235,1.2076235 0 0 1 1.28116,1.263184 z m 2.68161,1.281159 a 1.2795253,1.2795253 0 0 1 -1.30731,1.001723 1.4331337,1.4331337 0 0 1 -1.40698,-1.505035 h 3.50684 a 2.0279577,2.0279577 0 0 0 0.0196,-0.307217 c 0,-1.539352 -0.80236,-2.590099 -2.23386,-2.590099 a 2.652196,2.652196 0 0 0 0.11439,5.2521 2.1243714,2.1243714 0 0 0 2.09006,-1.560596 l -0.78439,-0.290876 z m 3.03458,1.694595 v -4.938346 h -0.89714 v 4.938346 z m -1.10467,-6.807793 a 0.65365275,0.65365275 0 1 0 0.65365,-0.697775 0.66999407,0.66999407 0 0 0 -0.65365,0.697775 z m 3.63104,6.807793 v -2.975754 a 1.1226486,1.1226486 0 0 1 1.08506,-1.258282 c 0.69941,0 0.99029,0.49024 0.99029,1.143893 v 3.10485 h 0.90857 v -3.0019 a 1.1291851,1.1291851 0 0 1 1.0769,-1.246843 c 0.68797,0 0.98048,0.49024 0.98048,1.143893 v 3.10485 h 0.9004 v -3.21924 a 1.6766193,1.6766193 0 0 0 -3.16858,-0.946162 1.4445726,1.4445726 0 0 0 -1.39228,-0.933089 1.5883762,1.5883762 0 0 0 -1.41516,0.79909 v -0.653652 h -0.87099 v 4.938346 z"
     id="path42"
     inkscape:connector-curvature="0"
     style="fill:#ffffff;stroke-width:1.63413191" />
  <path
     d="m 561.40958,44.842517 v -7.288228 h -1.26809 l -2.44139,5.925362 -2.42179,-5.928631 h -1.28933 v 7.288228 h 0.93963 v -5.668803 l 2.327,5.672072 h 0.87263 l 2.34335,-5.672072 v 5.672072 z m 4.86644,-0.598093 a 5.0233214,5.0233214 0 0 0 0.0359,0.598093 h 0.87263 a 8.6298504,8.6298504 0 0 1 -0.0507,-0.916748 V 39.897634 H 566.227 v 2.98229 c 0,0.748433 -0.36768,1.263184 -1.10631,1.263184 -0.76641,0 -1.05728,-0.598092 -1.05728,-1.274623 v -2.970851 h -0.90695 v 3.116289 a 1.7812037,1.7812037 0 0 0 1.74199,1.978934 1.4984989,1.4984989 0 0 0 1.37757,-0.748433 z m 2.12437,-0.687969 a 1.7828379,1.7828379 0 0 0 1.89886,1.436402 1.5753031,1.5753031 0 0 0 1.70277,-1.526279 1.4707187,1.4707187 0 0 0 -1.28606,-1.470719 l -0.75497,-0.173218 a 0.60136053,0.60136053 0 0 1 -0.53436,-0.599726 0.71738389,0.71738389 0 0 1 0.77458,-0.653653 0.92982104,0.92982104 0 0 1 0.97067,0.817066 l 0.80236,-0.313754 a 1.6668145,1.6668145 0 0 0 -1.77303,-1.325281 1.6243271,1.6243271 0 0 0 -1.65538,1.560596 1.3808414,1.3808414 0 0 0 1.1635,1.387378 l 0.79419,0.184657 c 0.38566,0.09478 0.60136,0.326827 0.60136,0.637312 a 0.70594497,0.70594497 0 0 1 -0.79745,0.653652 1.0180642,1.0180642 0 0 1 -1.08507,-0.928186 l -0.81706,0.307216 z m 5.82242,1.286062 v -4.944883 h -0.89714 v 4.944883 z m -1.10141,-6.812696 a 0.65365275,0.65365275 0 1 0 0.65365,-0.699409 0.66835994,0.66835994 0 0 0 -0.65365,0.699409 z m 6.90257,1.867813 h -1.25828 l -2.02142,2.193005 v -4.688325 h -0.90041 v 7.440203 h 0.90041 V 43.34892 l 0.65365,-0.687969 1.52138,2.181566 h 1.14389 L 578.0385,41.98442 Z m 6.69994,4.34679 a 4.609886,4.609886 0 0 0 0.0392,0.598093 h 0.871 a 8.8406534,8.8406534 0 0 1 -0.0474,-0.916748 v -4.028135 h -0.91185 v 2.98229 c 0,0.748433 -0.36768,1.263184 -1.10304,1.263184 -0.76641,0 -1.05728,-0.598092 -1.05728,-1.274623 v -2.970851 h -0.91021 v 3.116289 a 1.7828379,1.7828379 0 0 0 1.74362,1.978934 1.4935965,1.4935965 0 0 0 1.37593,-0.748433 z m 3.40717,-2.260004 c 0,-0.750067 0.36931,-1.359598 1.08506,-1.359598 0.81707,0 1.08507,0.558873 1.08507,1.246843 v 2.970852 h 0.91184 v -3.137534 c 0,-1.096502 -0.55397,-1.960958 -1.66681,-1.960958 a 1.5818397,1.5818397 0 0 0 -1.43477,0.856285 v -0.710847 h -0.89877 v 4.944883 h 0.90857 V 41.98442 Z m 5.2521,0.369314 c 0,-1.018064 0.54253,-1.733814 1.37594,-1.733814 0.83341,0 1.33672,0.697774 1.33672,1.715838 0,1.018065 -0.51312,1.786107 -1.34653,1.786107 -0.87262,0 -1.36613,-0.750067 -1.36613,-1.768131 z m 2.7241,1.823691 a 4.596813,4.596813 0 0 0 0.0474,0.665092 h 0.88243 a 7.6395665,7.6395665 0 0 1 -0.0507,-0.916748 V 37.402314 H 598.086 v 3.194728 a 1.4184265,1.4184265 0 0 0 -1.42169,-0.833407 2.3760277,2.3760277 0 0 0 -2.22242,2.590099 2.3368086,2.3368086 0 0 0 2.20935,2.614611 1.5573277,1.5573277 0 0 0 1.44293,-0.884066 v 0.08498 z m 6.18682,-0.230413 v -5.497219 h 1.4266 c 1.26645,0 2.31556,0.92165 2.31556,2.761683 0,1.840032 -1.06872,2.735536 -2.33844,2.735536 z m 1.43477,0.895505 a 3.2862392,3.2862392 0 0 0 3.2846,-3.631041 3.2927757,3.2927757 0 0 0 -3.26826,-3.657187 h -2.39891 v 7.288228 z m 4.38928,-1.325281 a 1.4854259,1.4854259 0 0 0 1.56059,1.470718 1.6717169,1.6717169 0 0 0 1.4985,-0.817066 3.8336734,3.8336734 0 0 0 0.0507,0.676531 h 0.88897 a 4.9644926,4.9644926 0 0 1 -0.0588,-0.817066 v -2.48388 a 1.7093019,1.7093019 0 0 0 -1.93481,-1.805716 1.8187888,1.8187888 0 0 0 -1.90704,1.599815 l 0.86936,0.21734 a 1.01643,1.01643 0 0 1 1.05729,-1.001723 c 0.70431,0 1.00662,0.40363 1.00662,0.890602 0,0.173218 -0.0784,0.326826 -0.35787,0.369313 l -1.25829,0.194462 a 1.4919624,1.4919624 0 0 0 -1.41515,1.505036 v 0 z m 1.68315,0.665091 a 0.73069316,0.73069316 0 0 1 -0.0784,-1.459279 l 1.41353,-0.223876 v 0.223876 c 0,1.078527 -0.59809,1.459279 -1.34816,1.459279 z m 6.39273,-4.335351 a 1.5769373,1.5769373 0 0 0 -0.30068,-0.02778 1.4511091,1.4511091 0 0 0 -1.39392,0.939626 v -0.861187 h -0.88897 v 4.944883 h 0.90695 v -2.477344 c 0,-1.0916 0.51311,-1.521377 1.27952,-1.521377 a 2.3940032,2.3940032 0 0 1 0.3971,0.03268 z m 0.79255,3.709479 a 1.7828379,1.7828379 0 0 0 1.89886,1.436402 1.5785714,1.5785714 0 0 0 1.70277,-1.526279 1.4707187,1.4707187 0 0 0 -1.28607,-1.470719 l -0.75823,-0.173218 a 0.59809227,0.59809227 0 0 1 -0.5311,-0.599726 0.71901803,0.71901803 0 0 1 0.77785,-0.653653 0.92818691,0.92818691 0 0 1 0.96741,0.817066 l 0.80236,-0.313754 a 1.6700828,1.6700828 0 0 0 -1.76977,-1.325281 1.622693,1.622693 0 0 0 -1.65537,1.560596 1.3775732,1.3775732 0 0 0 1.15696,1.387378 l 0.79419,0.184657 c 0.38892,0.09478 0.60463,0.326827 0.60463,0.637312 a 0.70431084,0.70431084 0 0 1 -0.79419,0.653652 1.0115276,1.0115276 0 0 1 -1.08506,-0.928186 l -0.81707,0.307216 z m 6.30448,-5.219417 h -0.83341 v 0.800724 a 0.67489646,0.67489646 0 0 1 -0.71738,0.759872 h -0.25166 v 0.872626 h 0.89224 v 2.709391 a 1.2501109,1.2501109 0 0 0 1.3073,1.410255 1.8122522,1.8122522 0 0 0 0.61771,-0.09478 V 43.97806 a 2.1243714,2.1243714 0 0 1 -0.35788,0.03922 c -0.47553,0 -0.65365,-0.223876 -0.65365,-0.676531 V 40.77026 h 1.00662 v -0.872626 h -1.00662 v -1.560596 z m 2.84339,3.524822 a 1.28933,1.28933 0 0 1 1.26972,-1.264818 1.2076235,1.2076235 0 0 1 1.27789,1.264818 z m 2.68161,1.286062 a 1.2778911,1.2778911 0 0 1 -1.3073,0.995186 1.4216947,1.4216947 0 0 1 -1.40372,-1.498499 h 3.50521 a 2.5851966,2.5851966 0 0 0 0.0196,-0.308851 c 0,-1.54262 -0.80399,-2.588465 -2.23876,-2.588465 a 2.6489278,2.6489278 0 0 0 0.11766,5.245564 2.1243714,2.1243714 0 0 0 2.09168,-1.560596 l -0.78601,-0.284339 z m 3.05746,1.694595 v -7.440203 h -0.91184 v 7.440203 z m 2.528,0 v -7.440203 h -0.91021 v 7.440203 z m 2.28779,-2.980657 a 1.28933,1.28933 0 0 1 1.26972,-1.264818 1.2076235,1.2076235 0 0 1 1.27789,1.264818 z m 2.68488,1.286062 a 1.2844277,1.2844277 0 0 1 -1.30731,0.995186 1.4265971,1.4265971 0 0 1 -1.40699,-1.498499 h 3.50522 a 1.9969092,1.9969092 0 0 0 0.0212,-0.308851 c 0,-1.54262 -0.80563,-2.588465 -2.23713,-2.588465 a 2.6489278,2.6489278 0 0 0 0.11766,5.245564 2.1243714,2.1243714 0 0 0 2.09169,-1.560596 l -0.78275,-0.284339 z m 3.06073,-1.163502 c 0,-0.750067 0.36604,-1.359598 1.08506,-1.359598 0.81707,0 1.08506,0.558873 1.08506,1.246843 v 2.970852 h 0.90531 v -3.137534 c 0,-1.096502 -0.54743,-1.960958 -1.66028,-1.960958 a 1.5867421,1.5867421 0 0 0 -1.43803,0.856285 v -0.710847 h -0.88897 v 4.944883 h 0.91185 z m 5.2521,0.369314 c 0,-1.018064 0.54253,-1.733814 1.37593,-1.733814 0.83341,0 1.33672,0.697774 1.33672,1.715838 0,1.018065 -0.51475,1.786107 -1.34815,1.786107 -0.87263,0 -1.3645,-0.750067 -1.3645,-1.768131 z m 2.72083,1.823691 a 4.3680345,4.3680345 0 0 0 0.0474,0.665092 h 0.8808 a 8.884775,8.884775 0 0 1 -0.0474,-0.916748 v -6.523455 h -0.9004 v 3.194728 a 1.4233289,1.4233289 0 0 0 -1.4266,-0.833407 2.3776619,2.3776619 0 0 0 -2.20608,2.590099 2.3351744,2.3351744 0 0 0 2.20608,2.614611 1.5589618,1.5589618 0 0 0 1.44621,-0.884066 v 0.08498 z m 3.15224,-2.315565 a 1.2909642,1.2909642 0 0 1 1.26972,-1.264818 1.2076235,1.2076235 0 0 1 1.28116,1.264818 z m 2.68487,1.286062 a 1.2795253,1.2795253 0 0 1 -1.3073,0.995186 1.4265971,1.4265971 0 0 1 -1.40372,-1.498499 h 3.50685 a 2.5851966,2.5851966 0 0 0 0.0196,-0.308851 c 0,-1.54262 -0.80236,-2.588465 -2.23713,-2.588465 a 2.6489278,2.6489278 0 0 0 0.11439,5.245564 2.1243714,2.1243714 0 0 0 2.09169,-1.560596 l -0.78275,-0.284339 z m 9.03675,1.694595 h 1.19946 l -2.89405,-4.03794 2.85483,-3.250288 h -1.24685 l -3.21597,3.758503 v -3.758503 h -0.94943 v 7.288228 h 0.94943 v -2.197908 l 0.98048,-1.112844 2.32374,3.310752 z m 5.09849,-0.598093 a 4.6981291,4.6981291 0 0 0 0.036,0.598093 h 0.87262 a 8.6298504,8.6298504 0 0 1 -0.0507,-0.916748 v -4.028135 h -0.90857 v 2.98229 c 0,0.748433 -0.36932,1.263184 -1.10141,1.263184 -0.76641,0 -1.05728,-0.598092 -1.05728,-1.274623 v -2.970851 h -0.91185 v 3.116289 a 1.784472,1.784472 0 0 0 1.74526,1.978934 1.4935965,1.4935965 0 0 0 1.37593,-0.748433 z m 3.40717,-2.260004 c 0,-0.750067 0.36605,-1.359598 1.08506,-1.359598 0.81707,0 1.08507,0.558873 1.08507,1.246843 v 2.970852 h 0.90531 v -3.137534 c 0,-1.096502 -0.54744,-1.960958 -1.66028,-1.960958 a 1.5900103,1.5900103 0 0 0 -1.43804,0.856285 v -0.710847 h -0.88897 v 4.944883 h 0.91185 z m 4.26182,1.572035 a 1.7828379,1.7828379 0 0 0 1.89886,1.436402 1.5785714,1.5785714 0 0 0 1.70276,-1.526279 1.4707187,1.4707187 0 0 0 -1.28606,-1.470719 l -0.75497,-0.173218 a 0.60136053,0.60136053 0 0 1 -0.53436,-0.599726 0.71738389,0.71738389 0 0 1 0.77458,-0.653653 0.92982104,0.92982104 0 0 1 0.97067,0.817066 l 0.80236,-0.313754 a 1.6668145,1.6668145 0 0 0 -1.77303,-1.325281 1.622693,1.622693 0 0 0 -1.65538,1.560596 1.3808414,1.3808414 0 0 0 1.16351,1.387378 l 0.79418,0.184657 c 0.38566,0.09478 0.5981,0.326827 0.5981,0.637312 a 0.70267671,0.70267671 0 0 1 -0.79419,0.653652 1.0180642,1.0180642 0 0 1 -1.08507,-0.928186 l -0.81706,0.307216 z m 6.30448,-5.219417 h -0.83341 v 0.800724 a 0.67326233,0.67326233 0 0 1 -0.71575,0.759872 h -0.25329 v 0.872626 h 0.89224 v 2.709391 a 1.2484768,1.2484768 0 0 0 1.29586,1.410255 1.8106181,1.8106181 0 0 0 0.62097,-0.09478 V 43.97806 a 2.0965912,2.0965912 0 0 1 -0.35787,0.03922 c -0.47554,0 -0.65366,-0.223876 -0.65366,-0.676531 V 40.77026 h 1.00663 v -0.872626 h -1.00663 v -1.560596 z"
     id="path44"
     inkscape:connector-curvature="0"
     style="fill:#ffffff;stroke-width:1.63413191" />
  <path
     d="m 558.36846,26.360485 a 2.1979074,2.1979074 0 0 0 -2.32701,-1.805716 2.2452972,2.2452972 0 0 0 -2.2649,2.170127 1.9772996,1.9772996 0 0 0 1.67498,1.990373 l 0.98048,0.223876 a 1.1667702,1.1667702 0 0 1 1.02624,1.135721 c 0,0.637312 -0.4641,1.1586 -1.41516,1.1586 a 1.598181,1.598181 0 0 1 -1.64394,-1.560596 l -0.91184,0.307217 a 2.4299541,2.4299541 0 0 0 2.56722,2.170127 2.217517,2.217517 0 0 0 2.37112,-2.158688 2.0622744,2.0622744 0 0 0 -1.77793,-2.047568 l -1.02951,-0.235314 a 1.0376737,1.0376737 0 0 1 -0.88079,-1.057284 1.2403061,1.2403061 0 0 1 1.32855,-1.212526 1.4167923,1.4167923 0 0 1 1.45111,1.240306 l 0.85301,-0.326826 z m 2.53944,-0.872627 h -0.83014 v 0.805627 a 0.67326233,0.67326233 0 0 1 -0.71575,0.761506 h -0.25166 v 0.872626 h 0.89061 v 2.712659 a 1.2452085,1.2452085 0 0 0 1.29586,1.403719 1.9609583,1.9609583 0 0 0 0.62097,-0.08988 v -0.817066 a 1.6341319,1.6341319 0 0 1 -0.36114,0.03922 c -0.47226,0 -0.65365,-0.223876 -0.65365,-0.67653 v -2.572124 h 1.00989 V 27.054991 H 560.903 v -1.567133 z m 2.07044,5.180198 a 1.4886941,1.4886941 0 0 0 1.55406,1.482158 1.6880582,1.6880582 0 0 0 1.50504,-0.817066 3.8679901,3.8679901 0 0 0 0.0474,0.676531 h 0.89223 a 4.4252291,4.4252291 0 0 1 -0.0621,-0.817066 v -2.482247 a 1.7109361,1.7109361 0 0 0 -1.93481,-1.812252 1.8204229,1.8204229 0 0 0 -1.90704,1.604718 l 0.87263,0.212437 a 1.0082594,1.0082594 0 0 1 1.05402,-0.995187 c 0.70757,0 1.00989,0.403631 1.00989,0.884066 0,0.173218 -0.0784,0.326826 -0.36114,0.369314 l -1.25829,0.196095 a 1.4935965,1.4935965 0 0 0 -1.41189,1.503402 v 0 z m 1.68316,0.671629 a 0.72718868,0.72718868 0 0 1 -0.75497,-0.722287 0.72065216,0.72065216 0 0 1 0.67653,-0.738627 l 1.4266,-0.228779 v 0.228779 c 0,1.080161 -0.60463,1.460914 -1.34816,1.460914 z m 3.52482,-0.671629 a 1.4886941,1.4886941 0 0 0 1.55733,1.482158 1.6782534,1.6782534 0 0 0 1.50177,-0.817066 3.7585033,3.7585033 0 0 0 0.0507,0.676531 h 0.88896 a 4.8909567,4.8909567 0 0 1 -0.0588,-0.817066 v -2.482247 a 1.7109361,1.7109361 0 0 0 -1.93815,-1.812252 1.822057,1.822057 0 0 0 -1.90703,1.604718 l 0.87263,0.212437 a 1.0115276,1.0115276 0 0 1 1.05728,-0.995187 c 0.70431,0 1.00663,0.403631 1.00663,0.884066 0,0.173218 -0.0784,0.326826 -0.35788,0.369314 l -1.25991,0.196095 a 1.4935965,1.4935965 0 0 0 -1.41353,1.503402 v 0 z m 1.68316,0.671629 a 0.72718868,0.72718868 0 0 1 -0.75497,-0.722287 0.72065216,0.72065216 0 0 1 0.67653,-0.738627 l 1.4266,-0.228779 v 0.228779 c 0,1.080161 -0.60136,1.460914 -1.34816,1.460914 z m 5.0511,-5.851827 h -0.83177 v 0.805627 a 0.67326233,0.67326233 0 0 1 -0.71575,0.761506 h -0.25166 v 0.872626 h 0.89224 v 2.712659 a 1.2435744,1.2435744 0 0 0 1.29586,1.403719 1.9609583,1.9609583 0 0 0 0.62097,-0.08988 v -0.817066 a 1.6341319,1.6341319 0 0 1 -0.36114,0.03922 c -0.47226,0 -0.65365,-0.223876 -0.65365,-0.67653 v -2.572124 h 1.00989 v -0.872626 h -1.00989 v -1.567133 z m 3.21107,6.505479 v -7.438568 h -0.91021 v 7.438568 z m 2.52146,0 v -4.938346 h -0.9004 v 4.938346 z m -1.1014,-6.812696 a 0.65365275,0.65365275 0 1 0 0.65365,-0.699408 0.66835994,0.66835994 0 0 0 -0.65365,0.699408 z m 4.7161,2.614611 a 1.238672,1.238672 0 0 1 1.24685,1.045845 l 0.81706,-0.369314 a 2.0508355,2.0508355 0 0 0 -2.07208,-1.572035 2.416881,2.416881 0 0 0 -2.34498,2.614611 2.4397589,2.4397589 0 0 0 2.35315,2.634221 2.1603223,2.1603223 0 0 0 2.10313,-1.544255 l -0.80563,-0.367679 a 1.2860618,1.2860618 0 0 1 -1.2975,1.018064 c -0.75496,0 -1.42332,-0.604629 -1.42332,-1.740351 0,-1.135721 0.67653,-1.722375 1.41515,-1.722375 z m 4.22914,1.290965 c 0.0212,-0.727189 0.38729,-1.307306 1.08506,-1.307306 0.81707,0 1.08506,0.553971 1.08506,1.24194 v 2.969218 h 0.91185 v -3.129363 c 0,-1.101404 -0.55397,-1.951153 -1.66845,-1.951153 a 1.622693,1.622693 0 0 0 -1.41352,0.71575 V 24.554769 H 587.59 v 7.438568 h 0.90695 v -2.908754 z m 5.29622,-0.0719 a 1.28933,1.28933 0 0 1 1.26972,-1.264818 1.2157941,1.2157941 0 0 1 1.28116,1.264818 z m 2.68488,1.286061 a 1.2827935,1.2827935 0 0 1 -1.30731,0.995187 1.4265971,1.4265971 0 0 1 -1.40372,-1.498499 h 3.50685 a 2.6456595,2.6456595 0 0 0 0.018,-0.307217 c 0,-1.544255 -0.80073,-2.590099 -2.23877,-2.590099 a 2.4119786,2.4119786 0 0 0 -2.22568,2.614611 2.4021739,2.4021739 0 0 0 2.34334,2.639123 2.1243714,2.1243714 0 0 0 2.09169,-1.565498 l -0.78275,-0.285973 z m 10.18554,1.694595 v -7.283325 h -0.94616 v 3.10485 h -3.50685 v -3.10485 h -0.94779 v 7.281691 h 0.94779 v -3.238849 h 3.50685 v 3.238849 z m 3.83858,-0.704311 c -0.77295,0 -1.45275,-0.62097 -1.45275,-1.773033 0,-1.152063 0.6798,-1.756691 1.45275,-1.756691 0.77294,0 1.45437,0.616067 1.45437,1.756691 0,1.140624 -0.67816,1.773033 -1.45437,1.773033 z m 0,-4.390912 a 2.4299541,2.4299541 0 0 0 -2.3842,2.614611 2.3956373,2.3956373 0 1 0 4.76676,0 2.4266858,2.4266858 0 0 0 -2.38256,-2.614611 z m 5.72763,0.895504 a 1.2484768,1.2484768 0 0 1 1.25338,1.045845 l 0.81706,-0.369314 a 2.0508355,2.0508355 0 0 0 -2.07534,-1.572035 2.416881,2.416881 0 0 0 -2.34335,2.614611 2.441393,2.441393 0 0 0 2.35479,2.634221 2.1603223,2.1603223 0 0 0 2.10312,-1.544255 l -0.80562,-0.367679 a 1.2844277,1.2844277 0 0 1 -1.2975,1.018064 c -0.75497,0 -1.42333,-0.604629 -1.42333,-1.740351 0,-1.135721 0.67816,-1.722375 1.41189,-1.722375 z m 4.23404,1.290964 c 0.0163,-0.727188 0.38565,-1.307305 1.08506,-1.307305 0.81706,0 1.08506,0.553971 1.08506,1.24194 v 2.969218 h 0.90695 v -3.129363 c 0,-1.101404 -0.55071,-1.951153 -1.66192,-1.951153 a 1.6145223,1.6145223 0 0 0 -1.41515,0.71575 v -3.070534 h -0.91185 v 7.438568 h 0.91185 v -2.908754 z m 4.26181,1.634132 a 1.784472,1.784472 0 0 0 1.89723,1.438036 1.5834738,1.5834738 0 0 0 1.70603,-1.532815 1.4707187,1.4707187 0 0 0 -1.28769,-1.470719 l -0.75497,-0.173218 a 0.594824,0.594824 0 0 1 -0.536,-0.598092 0.71901803,0.71901803 0 0 1 0.77785,-0.653653 0.92165038,0.92165038 0 0 1 0.9674,0.817066 l 0.80563,-0.326826 a 1.6766193,1.6766193 0 0 0 -1.77303,-1.325281 1.6243271,1.6243271 0 0 0 -1.65701,1.560596 1.3792073,1.3792073 0 0 0 1.1635,1.387378 l 0.79419,0.184656 c 0.38729,0.09478 0.59973,0.326827 0.59973,0.637312 0,0.352972 -0.27944,0.653653 -0.79419,0.653653 a 1.0131618,1.0131618 0 0 1 -1.08507,-0.928187 l -0.81706,0.312119 z m 6.93199,-2.928364 a 1.238672,1.238672 0 0 1 1.24684,1.045844 l 0.81707,-0.369313 a 2.044299,2.044299 0 0 0 -2.07208,-1.572035 2.416881,2.416881 0 0 0 -2.34498,2.614611 2.441393,2.441393 0 0 0 2.35478,2.63422 2.1586882,2.1586882 0 0 0 2.1015,-1.544254 l -0.80236,-0.36768 a 1.2876959,1.2876959 0 0 1 -1.30731,1.018064 c -0.75497,0 -1.4266,-0.604629 -1.4266,-1.74035 0,-1.135722 0.67817,-1.722375 1.4168,-1.722375 z m 4.2275,1.290964 c 0.0229,-0.727188 0.39219,-1.307305 1.08506,-1.307305 0.81707,0 1.08833,0.55397 1.08833,1.24194 v 2.969218 h 0.90858 v -3.126095 c 0,-1.101404 -0.5507,-1.951153 -1.66681,-1.951153 a 1.6341319,1.6341319 0 0 0 -1.41516,0.71575 v -3.070534 h -0.90531 v 7.438568 h 0.90531 v -2.908754 z m 7.71964,2.315565 a 4.0346716,4.0346716 0 0 0 0.0392,0.59319 h 0.86935 a 8.698484,8.698484 0 0 1 -0.0474,-0.911845 v -4.024867 h -0.91184 v 2.975754 c 0,0.754969 -0.36605,1.263184 -1.10141,1.263184 -0.7664,0 -1.05728,-0.591556 -1.05728,-1.269721 v -2.969217 h -0.91185 v 3.10485 a 1.7861061,1.7861061 0 0 0 1.74526,1.985471 1.5050355,1.5050355 0 0 0 1.37594,-0.750067 z m 3.40716,0.59319 v -7.436934 h -0.91021 v 7.438568 z m 2.28779,-2.980657 a 1.28933,1.28933 0 0 1 1.26972,-1.264818 1.21416,1.21416 0 0 1 1.28116,1.264818 z m 2.68488,1.286062 a 1.2827935,1.2827935 0 0 1 -1.30731,0.995187 1.424963,1.424963 0 0 1 -1.40372,-1.498499 h 3.50521 a 2.0279577,2.0279577 0 0 0 0.0196,-0.307217 c 0,-1.544255 -0.80236,-2.590099 -2.23876,-2.590099 a 2.4119786,2.4119786 0 0 0 -2.22569,2.614611 2.4021739,2.4021739 0 0 0 2.34335,2.639123 2.1243714,2.1243714 0 0 0 2.09332,-1.565499 l -0.78437,-0.285972 z m 7.02676,-2.371125 v -0.872626 h -1.12428 v -0.781115 c 0,-0.683068 0.4167,-0.844847 0.73536,-0.844847 a 0.99028392,0.99028392 0 0 1 0.39709,0.06046 v -0.861187 a 1.1112097,1.1112097 0 0 0 -0.54253,-0.09968 1.5230109,1.5230109 0 0 0 -1.52955,1.694594 v 0.833408 h -0.86118 v 0.872626 h 0.86118 v 4.06572 h 0.93963 v -4.06572 z m 4.19482,3.47253 a 4.5461549,4.5461549 0 0 0 0.0392,0.59319 h 0.87262 a 8.1706594,8.1706594 0 0 1 -0.049,-0.911846 v -4.024866 h -0.91021 v 2.975754 c 0,0.754969 -0.36605,1.263184 -1.10467,1.263184 -0.76641,0 -1.05729,-0.591556 -1.05729,-1.269721 v -2.969217 h -0.90858 v 3.10485 a 1.784472,1.784472 0 0 0 1.74199,1.985471 1.5050355,1.5050355 0 0 0 1.37594,-0.750067 z m -2.61461,-5.788095 a 0.57031202,0.57031202 0 0 0 0.55397,0.598092 0.59645813,0.59645813 0 1 0 -0.55397,-0.598092 z m 1.81225,0 a 0.5637755,0.5637755 0 1 0 1.12428,0 0.56214137,0.56214137 0 1 0 -1.12428,0 z m 5.88287,1.385744 a 2.5263679,2.5263679 0 0 0 -0.30231,-0.02778 1.4445726,1.4445726 0 0 0 -1.39228,0.946162 v -0.861187 h -0.89224 v 4.938346 h 0.90858 v -2.47571 c 0,-1.0916 0.51475,-1.521376 1.28116,-1.521376 a 2.652196,2.652196 0 0 1 0.39709,0.03268 v -1.029504 z"
     id="path46"
     inkscape:connector-curvature="0"
     style="fill:#ffffff;stroke-width:1.63413191" />
</svg>
