<svg id="Ebene_1" data-name="Ebene 1" xmlns="http://www.w3.org/2000/svg" viewBox="0 0 480.334 72.405"><path d="M306.42,37.009c0,1.36-1.5,2.468-3.348,2.468s-3.346-1.108-3.346-2.468,1.5-2.463,3.346-2.463S306.42,35.648,306.42,37.009Z" fill="#fff"/><path d="M317.674,34.546c0,1.359-1.5,2.463-3.35,2.463s-3.345-1.1-3.345-2.463,1.5-2.468,3.345-2.468S317.674,33.184,317.674,34.546Z" fill="#fff"/><rect x="304.757" y="24.855" width="1.709" height="12.154" fill="#fff"/><rect x="315.985" y="22.391" width="1.709" height="12.154" fill="#fff"/><rect x="305.611" y="23.095" width="11.229" height="3.631" fill="#fff"/><path d="M317.694,27.581H304.757v-5.34h12.937Zm-11.229-1.709h9.52V23.949h-9.52Z" fill="#fff"/><path d="M76.356,34.347a8.343,8.343,0,0,0-.751-4.14,2.783,2.783,0,0,0-2.578-1.218c-.379,0-.77.021-1.177.061s-.8.088-1.177.142V45.673H64.624V25.052q.771-.2,1.806-.427t2.193-.405q1.157-.184,2.375-.285t2.395-.1a10.073,10.073,0,0,1,3.754.588,8.473,8.473,0,0,1,2.375,1.4,11.307,11.307,0,0,1,6.089-1.988,10.679,10.679,0,0,1,4.2.71,6.306,6.306,0,0,1,2.617,2.01,7.576,7.576,0,0,1,1.34,3.084,19.885,19.885,0,0,1,.366,3.978V45.673H88.088V34.347a8.343,8.343,0,0,0-.751-4.14,2.785,2.785,0,0,0-2.578-1.218,5.46,5.46,0,0,0-1.36.243,5.247,5.247,0,0,0-1.441.61,9.289,9.289,0,0,1,.365,1.968q.083,1.035.082,2.212V45.673H76.356Z" fill="#fff"/><path d="M117.843,44.942a33.757,33.757,0,0,1-3.979.832,32.7,32.7,0,0,1-5.115.386,12.167,12.167,0,0,1-4.526-.73,6.875,6.875,0,0,1-2.862-2.051,8,8,0,0,1-1.5-3.146,16.9,16.9,0,0,1-.446-4.018V24.32h6.049V35.484a8.659,8.659,0,0,0,.77,4.222,3.07,3.07,0,0,0,2.882,1.3q.651,0,1.381-.062c.486-.04.92-.087,1.3-.141V24.32h6.049Z" fill="#fff"/><path d="M129.655,41.329a6.05,6.05,0,0,0,2.354-.324,1.255,1.255,0,0,0,.69-1.259,1.54,1.54,0,0,0-.894-1.278,16.881,16.881,0,0,0-2.718-1.239,27.4,27.4,0,0,1-2.578-1.095,7.561,7.561,0,0,1-1.969-1.361,5.49,5.49,0,0,1-1.258-1.887,6.963,6.963,0,0,1-.447-2.639,5.707,5.707,0,0,1,2.232-4.749,9.714,9.714,0,0,1,6.13-1.745,19.729,19.729,0,0,1,3.734.344,17.552,17.552,0,0,1,2.842.751l-1.055,4.709a22.108,22.108,0,0,0-2.293-.649,12.51,12.51,0,0,0-2.782-.284q-2.841,0-2.841,1.583a1.636,1.636,0,0,0,.122.649,1.378,1.378,0,0,0,.487.548,6.84,6.84,0,0,0,.994.571q.63.307,1.6.675A24.853,24.853,0,0,1,135.3,34.1a7.857,7.857,0,0,1,2.048,1.546,4.765,4.765,0,0,1,1.056,1.843,8.189,8.189,0,0,1,.305,2.35,5.414,5.414,0,0,1-2.374,4.779,11.847,11.847,0,0,1-6.719,1.62,19.3,19.3,0,0,1-4.729-.487,19.02,19.02,0,0,1-2.619-.812l1.016-4.912a19.668,19.668,0,0,0,3.166.954A15.318,15.318,0,0,0,129.655,41.329Z" fill="#fff"/><path d="M149.829,18.15a3.315,3.315,0,0,1-1.076,2.618,3.85,3.85,0,0,1-5.074,0A3.316,3.316,0,0,1,142.6,18.15a3.323,3.323,0,0,1,1.077-2.618,3.85,3.85,0,0,1,5.074,0A3.322,3.322,0,0,1,149.829,18.15Zm-.568,27.523h-6.049V24.32h6.049Z" fill="#fff"/><path d="M153.929,35a12.6,12.6,0,0,1,.75-4.364,10.2,10.2,0,0,1,5.623-5.988,11.4,11.4,0,0,1,4.627-.892,14.94,14.94,0,0,1,3.125.3,15.3,15.3,0,0,1,2.761.874l-1.259,4.831a15.046,15.046,0,0,0-1.867-.569,9.725,9.725,0,0,0-2.273-.244,4.792,4.792,0,0,0-4,1.664A6.852,6.852,0,0,0,160.1,35a7.093,7.093,0,0,0,1.239,4.465q1.236,1.582,4.322,1.583a14.875,14.875,0,0,0,2.355-.2,9.949,9.949,0,0,0,2.314-.65l.852,4.953a14.24,14.24,0,0,1-2.638.771,17.37,17.37,0,0,1-3.491.325,13.149,13.149,0,0,1-5.035-.873,9.486,9.486,0,0,1-3.47-2.374,9.252,9.252,0,0,1-1.989-3.553A15.053,15.053,0,0,1,153.929,35Z" fill="#fff"/><path d="M181.167,43.034a9.429,9.429,0,0,0,1.724-.162,5.2,5.2,0,0,0,1.543-.528,3.09,3.09,0,0,0,1.1-1,2.72,2.72,0,0,0,.426-1.562,2.682,2.682,0,0,0-.2-1.076,2.587,2.587,0,0,0-.649-.873,6.543,6.543,0,0,0-1.117-.791q-.669-.385-1.6-.873-.934-.445-1.7-.893a6.194,6.194,0,0,1-1.36-1.056,4.279,4.279,0,0,1-.913-1.441,5.5,5.5,0,0,1-.325-2.009,6.075,6.075,0,0,1,2.192-4.891q2.193-1.848,6.373-1.848a13.7,13.7,0,0,1,3.431.386,9.394,9.394,0,0,1,2.049.711l-1.42,3.085a9.025,9.025,0,0,0-1.826-.691,10.067,10.067,0,0,0-2.8-.365,7.543,7.543,0,0,0-1.542.162,4.383,4.383,0,0,0-1.4.549,3.035,3.035,0,0,0-1.016,1.015,2.847,2.847,0,0,0-.385,1.522,2.246,2.246,0,0,0,.852,1.806,11.528,11.528,0,0,0,2.557,1.482,18.531,18.531,0,0,1,1.888.994,6.769,6.769,0,0,1,1.421,1.137,4.228,4.228,0,0,1,.893,1.481,6.051,6.051,0,0,1,.3,2.03,6.648,6.648,0,0,1-.649,3,5.919,5.919,0,0,1-1.807,2.152,8.145,8.145,0,0,1-2.74,1.278A13.243,13.243,0,0,1,181,46.2a15.509,15.509,0,0,1-2.5-.183,16.348,16.348,0,0,1-1.948-.425,8.987,8.987,0,0,1-1.38-.508q-.549-.264-.833-.426l1.461-3.085q.285.162.792.405a11.175,11.175,0,0,0,1.218.488,11.522,11.522,0,0,0,1.563.406A9.555,9.555,0,0,0,181.167,43.034Z" fill="#fff"/><path d="M200.853,46.2a9.778,9.778,0,0,1-3.571-.588,7.067,7.067,0,0,1-2.518-1.624,6.505,6.505,0,0,1-1.5-2.415,8.734,8.734,0,0,1-.486-2.923,17.7,17.7,0,0,1,.852-5.48,15.045,15.045,0,0,1,2.435-4.668,11.845,11.845,0,0,1,3.857-3.228,10.892,10.892,0,0,1,5.155-1.2,8.556,8.556,0,0,1,2.861.427,5.28,5.28,0,0,1,1.95,1.156A4.647,4.647,0,0,1,211,27.345a5.474,5.474,0,0,1,.365,1.968,6.9,6.9,0,0,1-.69,3.228,6.748,6.748,0,0,1-1.827,2.212,8.434,8.434,0,0,1-2.658,1.381,23.4,23.4,0,0,1-3.167.77,29.9,29.9,0,0,1-3.329.386q-1.684.1-3.185.182a4.278,4.278,0,0,0-.041.529v.324a6.819,6.819,0,0,0,.222,1.766,3.309,3.309,0,0,0,.832,1.462,4.157,4.157,0,0,0,1.686.994,8.959,8.959,0,0,0,2.82.365,9.5,9.5,0,0,0,1.6-.142,13.5,13.5,0,0,0,1.584-.365c.5-.148.947-.3,1.339-.446a3.049,3.049,0,0,0,.832-.427l.325,3.207a13.3,13.3,0,0,1-2.618.954A15.8,15.8,0,0,1,200.853,46.2ZM197,34.591q2.353-.081,4.3-.3a13.7,13.7,0,0,0,3.369-.771,5.36,5.36,0,0,0,2.213-1.482,3.64,3.64,0,0,0,.791-2.436,2.331,2.331,0,0,0-.142-.771,2,2,0,0,0-.487-.751,2.6,2.6,0,0,0-.953-.567,4.4,4.4,0,0,0-1.5-.224,5.957,5.957,0,0,0-2.66.608,8.057,8.057,0,0,0-2.211,1.6,9.656,9.656,0,0,0-1.665,2.314A12.561,12.561,0,0,0,197,34.591Z" fill="#fff"/><path d="M226.468,45.916q-.2-.445-.407-.994a7.773,7.773,0,0,1-.324-1.158,12.206,12.206,0,0,1-2.394,1.624,7.681,7.681,0,0,1-3.695.812,7.511,7.511,0,0,1-3.065-.568,5.465,5.465,0,0,1-2.09-1.583,6.613,6.613,0,0,1-1.2-2.395,11.252,11.252,0,0,1-.387-3.045,15.923,15.923,0,0,1,.914-5.317,13.58,13.58,0,0,1,2.74-4.628,13.725,13.725,0,0,1,4.587-3.288,15.441,15.441,0,0,1,6.454-1.258,15.861,15.861,0,0,1,2.558.243,8.122,8.122,0,0,1,2.517.812L229.554,37.92c-.137.622-.251,1.218-.346,1.786a10.707,10.707,0,0,0-.143,1.786,11.249,11.249,0,0,0,.163,1.887,11.567,11.567,0,0,0,.568,2.051Zm-6.049-2.922a5.588,5.588,0,0,0,2.924-.731,9.388,9.388,0,0,0,2.11-1.706q.039-.689.142-1.44t.263-1.522l2.436-10.068a2.59,2.59,0,0,0-.669-.121c-.312-.027-.589-.041-.833-.041a9.554,9.554,0,0,0-4.18.894,9.935,9.935,0,0,0-3.187,2.374,10.481,10.481,0,0,0-2.03,3.45,12.04,12.04,0,0,0-.711,4.121,9.528,9.528,0,0,0,.162,1.725,4.3,4.3,0,0,0,.59,1.542,3.373,3.373,0,0,0,1.137,1.1A3.55,3.55,0,0,0,220.419,42.994Z" fill="#fff"/><path d="M245.384,24.118c.325,0,.69.014,1.1.04a11.479,11.479,0,0,1,1.2.143c.391.067.751.135,1.075.2a3.132,3.132,0,0,1,.73.222l-1.1,3.288a8.655,8.655,0,0,0-1.867-.487,13.514,13.514,0,0,0-2.029-.162,11.67,11.67,0,0,0-1.686.122,8.6,8.6,0,0,0-1.44.324l-4.3,17.862h-3.775l4.871-20.3a23.463,23.463,0,0,1,3.491-.913A20.511,20.511,0,0,1,245.384,24.118Z" fill="#fff"/><path d="M248.347,38.122a17.067,17.067,0,0,1,.832-5.317,13.429,13.429,0,0,1,2.457-4.506,11.8,11.8,0,0,1,9.376-4.263,17.056,17.056,0,0,1,2.557.184,8.027,8.027,0,0,1,2.315.71L264.463,28.1a5.763,5.763,0,0,0-1.523-.569,10.259,10.259,0,0,0-2.252-.2,7.279,7.279,0,0,0-3.572.873,8.672,8.672,0,0,0-2.7,2.315,10.373,10.373,0,0,0-1.7,3.328,13.029,13.029,0,0,0-.59,3.917,8.464,8.464,0,0,0,.224,1.989,4.125,4.125,0,0,0,.791,1.644,3.818,3.818,0,0,0,1.522,1.117,6.222,6.222,0,0,0,2.416.405,8.962,8.962,0,0,0,1.543-.142,13.682,13.682,0,0,0,1.5-.344q.688-.2,1.237-.427a3.105,3.105,0,0,0,.792-.426l.324,3.207a9.718,9.718,0,0,1-2.394.953,13.361,13.361,0,0,1-3.694.467,9.419,9.419,0,0,1-3.451-.588,6.81,6.81,0,0,1-2.517-1.665,7.174,7.174,0,0,1-1.542-2.557A9.652,9.652,0,0,1,248.347,38.122Z" fill="#fff"/><path d="M264.868,45.673,272.3,14.822l3.937-.649-2.6,10.675a14.654,14.654,0,0,1,1.969-.528,10.864,10.864,0,0,1,2.091-.2,8.775,8.775,0,0,1,3.146.507,5.621,5.621,0,0,1,2.131,1.381,5.427,5.427,0,0,1,1.2,2.11,9.08,9.08,0,0,1,.384,2.7,16.936,16.936,0,0,1-.568,4.06l-2.6,10.8h-3.775l2.4-9.987c.188-.756.372-1.528.547-2.313a10.2,10.2,0,0,0,.264-2.233,4.09,4.09,0,0,0-.892-2.7q-.894-1.075-3.33-1.076a11.516,11.516,0,0,0-2.008.183,6.93,6.93,0,0,0-1.726.507l-4.222,17.618Z" fill="#fff"/><path d="M370.636,23.95a6.3,6.3,0,0,1,2.062-4.414,6.605,6.605,0,0,1,4.494-1.646,5.593,5.593,0,0,1,3.5,1.087,3.128,3.128,0,0,1,1.118,2.445,2.275,2.275,0,0,1-2.257,2.288H379.5a2.272,2.272,0,0,1-2.5-2.337,2.461,2.461,0,0,1,1.92-2.427,1.312,1.312,0,0,0-1.184-.466,2.008,2.008,0,0,0-1.775.862c-.448.656-.653,2.08-.653,4.608Zm-14.645-2.8h4.525v9.575c.271-3.289,2.136-5.269,5.216-5.269,3.171,0,4.858,2.147,4.858,5.546v8.116h-4.42v-6.58c0-2.074-.719-3.324-2.789-3.324-1.994,0-2.865,1.431-2.865,3.705v6.2h-4.525Zm38.69,4.306a4.8,4.8,0,0,0-5.115,4.782v-.093c0-3.438-2.289-4.689-4.806-4.689a5.426,5.426,0,0,0-5.137,4.9h-4.5v8.758h4.525V32.924c0-2.278.743-3.709,2.737-3.709,2.069,0,2.632,1.254,2.632,3.324v6.58h4.553V32.948c0-2.275.944-3.733,2.709-3.733,2.1,0,2.611,1.254,2.611,3.324v6.58h4.55V31C399.436,27.6,397.9,25.457,394.681,25.457Zm-19.562,17.6a6.3,6.3,0,0,1-2.063,4.414,6.61,6.61,0,0,1-4.494,1.649,5.619,5.619,0,0,1-3.5-1.087,3.136,3.136,0,0,1-1.122-2.448A2.273,2.273,0,0,1,366.2,43.3h.059a2.266,2.266,0,0,1,2.493,2.333,2.462,2.462,0,0,1-1.917,2.431,1.319,1.319,0,0,0,1.184.462,1.989,1.989,0,0,0,1.775-.861c.448-.656.656-2.08.656-4.608Zm4.723,1.118h1.177v2.9h1.1v-2.9h1.2v-.9h-3.48Zm7.314,2.42-.212-.562a.783.783,0,0,0-.677-.518.938.938,0,0,0,.9-.975v-.018c0-.826-.524-1.24-1.556-1.24H383.9v3.8h1.1V45.919h.361a.459.459,0,0,1,.514.389l.111.344a.955.955,0,0,0,.24.424l.007.007h1.229l-.041-.039a1.174,1.174,0,0,1-.257-.448Zm-2.164-2.434h.524c.351,0,.525.149.525.462s-.156.451-.525.451h-.524Zm4.7-.976a2,2,0,1,0,1.928,2.007,1.79,1.79,0,0,0-1.928-2.007Zm0,3.042c-.5,0-.771-.357-.771-1.035,0-.7.261-1.055.771-1.055s.782.354.782,1.055c0,.678-.271,1.039-.782,1.039Zm4.46-1.448-.539-.111c-.271-.052-.385-.16-.385-.358s.166-.326.437-.326c.32,0,.48.125.5.4v.025l1.06-.126v-.02c-.021-.684-.57-1.077-1.5-1.077-.584,0-1.563.16-1.563,1.233a1.131,1.131,0,0,0,1.018,1.177l.576.132c.372.1.469.15.469.355s-.163.3-.5.3a.769.769,0,0,1-.83-.528l-.007-.028-.854.361,0,.018c.115.646.663.972,1.639.972,1.042,0,1.615-.417,1.615-1.177a1.231,1.231,0,0,0-1.132-1.219Zm3.729,0-.538-.111c-.271-.052-.385-.16-.385-.358s.166-.326.437-.326c.32,0,.476.125.5.4l0,.025,1.063-.126v-.02c-.024-.684-.573-1.077-1.507-1.077-.584,0-1.56.16-1.56,1.233a1.129,1.129,0,0,0,1.018,1.177l.576.132c.372.1.466.15.466.355s-.163.3-.5.3a.765.765,0,0,1-.827-.528l-.007-.028-.854.361,0,.018c.112.646.664.972,1.639.972,1.042,0,1.615-.417,1.615-1.177a1.236,1.236,0,0,0-1.135-1.219Zm1.9,2.3h1.1v-3.8h-1.1Zm4.824-2.6c0,.468.021.83.027.955a3.3,3.3,0,0,0-.375-.577l-1.222-1.58h-1.16v3.8h1.1V45.77c0-.517-.031-.882-.042-1.007a4.57,4.57,0,0,0,.427.649l1.344,1.671h1v-3.8h-1.1Zm3.764-.414c.358,0,.587.2.705.615l.007.028.959-.5-.011-.018a1.577,1.577,0,0,0-1.636-1.007,1.81,1.81,0,0,0-1.92,2.014,1.738,1.738,0,0,0,1.7,1.976,1.033,1.033,0,0,0,.983-.514l.149.421h.726V45.037h-1.646v.757h.659a.588.588,0,0,1-.653.514h0c-.506,0-.812-.424-.812-1.132,0-.962.493-1.108.788-1.108Zm2.58,3.015h2.886v-.9h-1.785v-.569H413.6V44.78h-1.546v-.6h1.785v-.9h-2.886Zm6.5-3.8v1.2c0,.468.021.83.028.955a3.265,3.265,0,0,0-.375-.58l-1.223-1.577H414.72v3.8h1.1V45.77c0-.521-.031-.882-.041-1.007a4.4,4.4,0,0,0,.427.649l1.344,1.667h1v-3.8Z" fill="#fff"/></svg>