<svg id="Ebene_1" data-name="Ebene 1" xmlns="http://www.w3.org/2000/svg" viewBox="0 0 700 105.5"><path d="M366.964,54.867c0,1.986-2.192,3.6-4.89,3.6s-4.886-1.618-4.886-3.6,2.188-3.6,4.886-3.6S366.964,52.878,366.964,54.867Z" fill="#fff"/><path d="M383.4,51.269c0,1.986-2.186,3.6-4.893,3.6s-4.886-1.612-4.886-3.6,2.188-3.6,4.886-3.6S383.4,49.28,383.4,51.269Z" fill="#fff"/><rect x="364.535" y="37.116" width="2.495" height="17.751" fill="#fff"/><rect x="380.934" y="33.518" width="2.495" height="17.751" fill="#fff"/><rect x="365.782" y="34.545" width="16.399" height="5.303" fill="#fff"/><path d="M383.43,41.1H364.535V33.3H383.43Zm-16.4-2.5h13.9V35.793h-13.9Z" fill="#fff"/><path d="M39.722,55.359q0-4.269-1.1-6.047a4.069,4.069,0,0,0-3.765-1.778,17.047,17.047,0,0,0-1.719.089c-.593.058-1.166.129-1.719.207V71.9H22.588V41.783q1.125-.3,2.638-.623t3.2-.593q1.689-.267,3.468-.415t3.5-.148a14.726,14.726,0,0,1,5.484.86,12.4,12.4,0,0,1,3.468,2.045A16.521,16.521,0,0,1,53.238,40a15.572,15.572,0,0,1,6.137,1.038A9.248,9.248,0,0,1,63.2,43.976a11.111,11.111,0,0,1,1.956,4.506,29.061,29.061,0,0,1,.533,5.81V71.9H56.855V55.359q0-4.269-1.1-6.047a4.072,4.072,0,0,0-3.765-1.778,7.953,7.953,0,0,0-1.986.355,7.715,7.715,0,0,0-2.105.89,13.622,13.622,0,0,1,.534,2.875q.118,1.512.118,3.231V71.9H39.722Z" fill="#fff"/><path d="M100.312,70.833a49.124,49.124,0,0,1-5.81,1.215,47.8,47.8,0,0,1-7.471.564,17.765,17.765,0,0,1-6.61-1.067,10.031,10.031,0,0,1-4.18-3,11.666,11.666,0,0,1-2.193-4.594,24.659,24.659,0,0,1-.652-5.87V40.715H82.23v16.3q0,4.269,1.125,6.166t4.21,1.9q.948,0,2.016-.089t1.9-.207V40.715h8.833Z" fill="#fff"/><path d="M117.563,65.556A8.809,8.809,0,0,0,121,65.082a1.831,1.831,0,0,0,1.008-1.838,2.254,2.254,0,0,0-1.3-1.867,24.778,24.778,0,0,0-3.973-1.808,40.272,40.272,0,0,1-3.764-1.6,11.021,11.021,0,0,1-2.875-1.985,8.02,8.02,0,0,1-1.838-2.757,10.178,10.178,0,0,1-.652-3.853,8.332,8.332,0,0,1,3.26-6.937q3.26-2.549,8.952-2.55a28.793,28.793,0,0,1,5.455.5,25.52,25.52,0,0,1,4.15,1.1l-1.542,6.878a32.264,32.264,0,0,0-3.35-.949,18.243,18.243,0,0,0-4.06-.415q-4.152,0-4.151,2.312a2.389,2.389,0,0,0,.178.948,2.02,2.02,0,0,0,.712.8,9.953,9.953,0,0,0,1.452.834q.918.449,2.342.985A36.207,36.207,0,0,1,125.8,55a11.481,11.481,0,0,1,2.994,2.258,6.991,6.991,0,0,1,1.542,2.692,11.959,11.959,0,0,1,.444,3.43,7.9,7.9,0,0,1-3.468,6.981q-3.468,2.365-9.812,2.366a28.153,28.153,0,0,1-6.906-.712,27.727,27.727,0,0,1-3.825-1.185l1.483-7.174a28.73,28.73,0,0,0,4.624,1.393A22.474,22.474,0,0,0,117.563,65.556Z" fill="#fff"/><path d="M147.027,31.7a4.847,4.847,0,0,1-1.57,3.824,5.625,5.625,0,0,1-7.411,0,4.844,4.844,0,0,1-1.571-3.824,4.847,4.847,0,0,1,1.571-3.824,5.625,5.625,0,0,1,7.411,0A4.85,4.85,0,0,1,147.027,31.7ZM146.2,71.9h-8.834V40.715H146.2Z" fill="#fff"/><path d="M153.015,56.308a18.394,18.394,0,0,1,1.1-6.374,14.915,14.915,0,0,1,8.211-8.744,16.642,16.642,0,0,1,6.759-1.3,21.855,21.855,0,0,1,4.566.445,22.261,22.261,0,0,1,4.031,1.275L175.84,48.66a22.238,22.238,0,0,0-2.728-.83,14.2,14.2,0,0,0-3.319-.356,7,7,0,0,0-5.84,2.431,10.008,10.008,0,0,0-1.927,6.4,10.358,10.358,0,0,0,1.809,6.522q1.807,2.311,6.313,2.311a21.5,21.5,0,0,0,3.439-.3,14.556,14.556,0,0,0,3.38-.949l1.244,7.233a20.6,20.6,0,0,1-3.854,1.126,25.353,25.353,0,0,1-5.1.475,19.207,19.207,0,0,1-7.352-1.274,13.844,13.844,0,0,1-5.068-3.469,13.509,13.509,0,0,1-2.905-5.188A21.971,21.971,0,0,1,153.015,56.308Z" fill="#fff"/><path d="M192.8,68.046a13.756,13.756,0,0,0,2.519-.237,7.553,7.553,0,0,0,2.253-.77,4.514,4.514,0,0,0,1.6-1.453,3.978,3.978,0,0,0,.622-2.283,3.924,3.924,0,0,0-.3-1.571,3.8,3.8,0,0,0-.948-1.274,9.479,9.479,0,0,0-1.631-1.157q-.978-.562-2.342-1.274-1.364-.653-2.49-1.3a8.99,8.99,0,0,1-1.985-1.542,6.223,6.223,0,0,1-1.334-2.1,8.042,8.042,0,0,1-.475-2.935,8.879,8.879,0,0,1,3.2-7.144q3.2-2.7,9.309-2.7a20.013,20.013,0,0,1,5.009.564A13.817,13.817,0,0,1,208.8,41.9l-2.075,4.506A13.167,13.167,0,0,0,204.06,45.4a14.675,14.675,0,0,0-4.09-.533,10.9,10.9,0,0,0-2.253.237,6.4,6.4,0,0,0-2.046.8,4.444,4.444,0,0,0-1.483,1.482,4.185,4.185,0,0,0-.562,2.223,3.287,3.287,0,0,0,1.245,2.639,16.748,16.748,0,0,0,3.734,2.164,27.3,27.3,0,0,1,2.757,1.452,9.9,9.9,0,0,1,2.076,1.66,6.187,6.187,0,0,1,1.3,2.164,8.841,8.841,0,0,1,.445,2.964,9.7,9.7,0,0,1-.949,4.388A8.638,8.638,0,0,1,201.6,70.18a11.869,11.869,0,0,1-4,1.868,19.343,19.343,0,0,1-5.039.622,22.7,22.7,0,0,1-3.647-.266,24.342,24.342,0,0,1-2.846-.622,13.5,13.5,0,0,1-2.015-.741c-.533-.257-.94-.465-1.215-.623l2.134-4.506q.414.238,1.156.592a16.859,16.859,0,0,0,4.062,1.3A13.915,13.915,0,0,0,192.8,68.046Z" fill="#fff"/><path d="M221.549,72.67a14.3,14.3,0,0,1-5.217-.859,10.333,10.333,0,0,1-3.676-2.371,9.484,9.484,0,0,1-2.193-3.528,12.708,12.708,0,0,1-.712-4.269,25.88,25.88,0,0,1,1.245-8,21.933,21.933,0,0,1,3.558-6.818,17.268,17.268,0,0,1,5.632-4.713,15.9,15.9,0,0,1,7.529-1.749,12.5,12.5,0,0,1,4.18.622,7.748,7.748,0,0,1,2.845,1.689,6.792,6.792,0,0,1,1.63,2.461,7.95,7.95,0,0,1,.534,2.875,10.081,10.081,0,0,1-1.007,4.714,9.9,9.9,0,0,1-2.668,3.231,12.255,12.255,0,0,1-3.884,2.015,34.159,34.159,0,0,1-4.624,1.127,44.079,44.079,0,0,1-4.862.564q-2.46.147-4.654.266a6.579,6.579,0,0,0-.058.771v.475a9.894,9.894,0,0,0,.326,2.579,4.8,4.8,0,0,0,1.215,2.133,6.057,6.057,0,0,0,2.46,1.453,13.092,13.092,0,0,0,4.121.534,13.846,13.846,0,0,0,2.341-.208,19.867,19.867,0,0,0,2.312-.533q1.1-.325,1.957-.653a4.472,4.472,0,0,0,1.215-.622l.474,4.684a19.426,19.426,0,0,1-3.824,1.392A23.041,23.041,0,0,1,221.549,72.67Zm-5.632-16.956q3.438-.117,6.284-.444a20.1,20.1,0,0,0,4.921-1.126,7.837,7.837,0,0,0,3.232-2.164,5.316,5.316,0,0,0,1.155-3.558A3.449,3.449,0,0,0,231.3,47.3a2.927,2.927,0,0,0-.712-1.1,3.773,3.773,0,0,0-1.393-.83A6.428,6.428,0,0,0,227,45.044a8.673,8.673,0,0,0-3.883.888,11.786,11.786,0,0,0-3.231,2.342,14.227,14.227,0,0,0-2.431,3.38A18.286,18.286,0,0,0,215.917,55.714Z" fill="#fff"/><path d="M258.958,72.255q-.3-.651-.594-1.452a11.016,11.016,0,0,1-.473-1.689,17.8,17.8,0,0,1-3.5,2.371A11.234,11.234,0,0,1,249,72.67a10.953,10.953,0,0,1-4.475-.83,7.971,7.971,0,0,1-3.054-2.311,9.706,9.706,0,0,1-1.749-3.5,16.469,16.469,0,0,1-.563-4.446,23.265,23.265,0,0,1,1.334-7.767,19.839,19.839,0,0,1,4-6.759,20.078,20.078,0,0,1,6.7-4.8,22.553,22.553,0,0,1,9.426-1.837,23.107,23.107,0,0,1,3.736.355,11.832,11.832,0,0,1,3.675,1.186l-4.565,18.616q-.3,1.364-.5,2.608a15.779,15.779,0,0,0-.207,2.609,16.4,16.4,0,0,0,.237,2.756,16.831,16.831,0,0,0,.83,3Zm-8.834-4.268a8.153,8.153,0,0,0,4.269-1.067,13.783,13.783,0,0,0,3.083-2.49q.058-1.008.207-2.1t.385-2.224l3.557-14.7a3.786,3.786,0,0,0-.978-.178q-.682-.058-1.215-.059a13.983,13.983,0,0,0-6.107,1.3,14.567,14.567,0,0,0-4.653,3.468,15.3,15.3,0,0,0-2.965,5.04,17.587,17.587,0,0,0-1.037,6.018,13.754,13.754,0,0,0,.236,2.519,6.293,6.293,0,0,0,.861,2.253,4.944,4.944,0,0,0,1.66,1.6A5.184,5.184,0,0,0,250.124,67.987Z" fill="#fff"/><path d="M286.584,40.42c.475,0,1.008.019,1.6.058a17.024,17.024,0,0,1,1.748.208q.859.148,1.571.3a4.693,4.693,0,0,1,1.067.326l-1.6,4.8a12.464,12.464,0,0,0-2.728-.712,19.639,19.639,0,0,0-2.964-.237,17.056,17.056,0,0,0-2.461.177,12.584,12.584,0,0,0-2.1.475L274.431,71.9h-5.514l7.114-29.643a34.3,34.3,0,0,1,5.1-1.334A29.941,29.941,0,0,1,286.584,40.42Z" fill="#fff"/><path d="M290.913,60.873a24.92,24.92,0,0,1,1.215-7.767,19.651,19.651,0,0,1,3.587-6.58,17.231,17.231,0,0,1,13.7-6.226,25.181,25.181,0,0,1,3.736.267,11.765,11.765,0,0,1,3.378,1.038l-2.075,4.624a8.46,8.46,0,0,0-2.222-.83,15.019,15.019,0,0,0-3.291-.3,10.619,10.619,0,0,0-5.217,1.275,12.687,12.687,0,0,0-3.943,3.378,15.253,15.253,0,0,0-2.49,4.862,19.11,19.11,0,0,0-.859,5.721,12.467,12.467,0,0,0,.325,2.905,6.018,6.018,0,0,0,1.156,2.4,5.57,5.57,0,0,0,2.224,1.631,9.06,9.06,0,0,0,3.527.593,13.024,13.024,0,0,0,2.253-.208,19.819,19.819,0,0,0,2.193-.5,18.812,18.812,0,0,0,1.809-.622,4.561,4.561,0,0,0,1.156-.623l.474,4.683a14.2,14.2,0,0,1-3.5,1.394,19.577,19.577,0,0,1-5.4.681,13.761,13.761,0,0,1-5.039-.859,9.93,9.93,0,0,1-3.675-2.431,10.45,10.45,0,0,1-2.253-3.735A14.1,14.1,0,0,1,290.913,60.873Z" fill="#fff"/><path d="M315.041,71.9l10.85-45.058,5.751-.948-3.8,15.592a21.336,21.336,0,0,1,2.876-.771,15.856,15.856,0,0,1,3.052-.3,12.825,12.825,0,0,1,4.6.74,8.2,8.2,0,0,1,3.112,2.016,7.917,7.917,0,0,1,1.749,3.082A13.227,13.227,0,0,1,343.8,50.2a24.743,24.743,0,0,1-.83,5.927L339.171,71.9h-5.514l3.5-14.584q.414-1.659.8-3.38a14.907,14.907,0,0,0,.386-3.261,5.969,5.969,0,0,0-1.305-3.942q-1.305-1.57-4.861-1.571a16.969,16.969,0,0,0-2.935.266,10.131,10.131,0,0,0-2.519.742L320.555,71.9Z" fill="#fff"/><path d="M472.075,38.472a9.2,9.2,0,0,1,3.013-6.447,9.637,9.637,0,0,1,6.563-2.4,8.167,8.167,0,0,1,5.113,1.587,4.57,4.57,0,0,1,1.633,3.571,3.323,3.323,0,0,1-3.3,3.343h-.086a3.319,3.319,0,0,1-3.647-3.414,3.6,3.6,0,0,1,2.805-3.545,1.915,1.915,0,0,0-1.73-.68,2.929,2.929,0,0,0-2.591,1.258c-.655.959-.954,3.038-.954,6.731Zm-21.388-4.088H457.3V48.367c.4-4.8,3.12-7.694,7.619-7.694,4.63,0,7.1,3.134,7.1,8.1V60.626h-6.456V51.015c0-3.028-1.05-4.854-4.073-4.854-2.912,0-4.185,2.089-4.185,5.412v9.053h-6.608Zm56.507,6.289c-3.819,0-7.066,2.125-7.471,6.984V47.52c0-5.021-3.343-6.847-7.02-6.847s-6.938,3.013-7.5,7.162h-6.579V60.626h6.609V51.578c0-3.328,1.086-5.417,4-5.417,3.023,0,3.844,1.831,3.844,4.854v9.611h6.65V51.613c0-3.322,1.379-5.452,3.956-5.452,3.063,0,3.814,1.831,3.814,4.854v9.611h6.645V48.773C514.138,43.807,511.9,40.673,507.194,40.673ZM478.623,66.378a9.2,9.2,0,0,1-3.013,6.446,9.647,9.647,0,0,1-6.563,2.409,8.2,8.2,0,0,1-5.112-1.587A4.585,4.585,0,0,1,462.3,70.07a3.319,3.319,0,0,1,3.3-3.337h.087a3.31,3.31,0,0,1,3.641,3.408,3.6,3.6,0,0,1-2.8,3.551,1.927,1.927,0,0,0,1.729.674,2.9,2.9,0,0,0,2.592-1.258c.654-.958.958-3.038.958-6.73Zm6.9,1.633h1.719v4.24h1.608v-4.24H490.6V66.7h-5.082ZM496.2,71.546l-.309-.821a1.143,1.143,0,0,0-.99-.756,1.372,1.372,0,0,0,1.314-1.425v-.026c0-1.207-.766-1.811-2.272-1.811H491.44v5.549h1.6v-1.7h.527a.671.671,0,0,1,.751.568l.162.5a1.4,1.4,0,0,0,.35.619l.011.01h1.8l-.061-.055a1.729,1.729,0,0,1-.375-.655Zm-3.16-3.555h.766c.512,0,.766.218.766.674s-.228.66-.766.66h-.766Zm6.867-1.425a2.915,2.915,0,1,0,2.815,2.931,2.614,2.614,0,0,0-2.815-2.931Zm0,4.443c-.735,0-1.125-.523-1.125-1.512,0-1.024.38-1.542,1.125-1.542s1.142.518,1.142,1.542c0,.989-.4,1.517-1.142,1.517Zm6.513-2.116-.786-.162c-.4-.076-.563-.233-.563-.522s.243-.477.639-.477c.466,0,.7.183.73.583v.036l1.547-.183v-.03c-.03-1-.832-1.572-2.2-1.572-.852,0-2.282.233-2.282,1.8A1.652,1.652,0,0,0,505,70.085l.842.193c.542.142.684.218.684.518s-.238.431-.73.431a1.122,1.122,0,0,1-1.212-.771l-.01-.041-1.248.528,0,.025c.167.944.969,1.42,2.394,1.42,1.522,0,2.358-.608,2.358-1.719a1.8,1.8,0,0,0-1.653-1.78Zm5.447,0-.786-.162c-.4-.076-.563-.233-.563-.522s.243-.477.639-.477c.467,0,.695.183.726.583l0,.036,1.553-.183v-.03c-.036-1-.837-1.572-2.2-1.572-.852,0-2.277.233-2.277,1.8a1.649,1.649,0,0,0,1.486,1.719l.842.193c.543.142.68.218.68.518s-.239.431-.731.431a1.117,1.117,0,0,1-1.207-.771l-.01-.041-1.248.528.006.025c.162.944.968,1.42,2.393,1.42,1.522,0,2.359-.608,2.359-1.719a1.807,1.807,0,0,0-1.659-1.78Zm2.775,3.363h1.613V66.7h-1.613Zm7.045-3.8c0,.685.03,1.213.04,1.4a4.961,4.961,0,0,0-.547-.842L519.4,66.7H517.7v5.553h1.608V70.339c0-.756-.046-1.288-.061-1.471a6.554,6.554,0,0,0,.624.949l1.963,2.439H523.3V66.7H521.69Zm5.5-.6c.522,0,.857.294,1.029.9l.01.04,1.4-.73-.015-.025a2.3,2.3,0,0,0-2.389-1.471,2.643,2.643,0,0,0-2.8,2.941c0,1.75.979,2.886,2.486,2.886a1.509,1.509,0,0,0,1.435-.75l.218.613h1.06V69.269h-2.4v1.106h.964a.861.861,0,0,1-.954.75h0c-.74,0-1.187-.619-1.187-1.653,0-1.405.721-1.618,1.152-1.618Zm3.768,4.4h4.215V70.943h-2.607v-.832h2.257V68.893h-2.257v-.882h2.607V66.7h-4.215Zm9.49-5.553v1.754c0,.685.03,1.213.04,1.4a4.781,4.781,0,0,0-.547-.847l-1.786-2.3H536.46v5.553h1.607V70.339c0-.761-.045-1.288-.061-1.471a6.554,6.554,0,0,0,.624.949l1.963,2.434h1.461V66.7Z" fill="#fff"/></svg>