<svg id="Ebene_1" data-name="Ebene 1" xmlns="http://www.w3.org/2000/svg" viewBox="0 0 142.362 47.682"><path d="M15.8,29.192h1.3v7.166H15.8V33.184H12.691v3.174h-1.3V29.192h1.3v2.863H15.8Z" fill="#1e1e1c"/><path d="M20.39,29.192q.228.393.507.961t.569,1.2q.289.624.574,1.272t.522,1.2q.238-.547.518-1.2t.568-1.272q.29-.627.569-1.2t.507-.961H25.9q.095.785.179,1.67t.153,1.81c.045.618.087,1.237.126,1.862s.072,1.232.1,1.824H25.173q-.04-1.251-.1-2.574T24.9,31.219c-.076.159-.166.348-.27.569s-.213.459-.33.718-.236.526-.357.8-.237.543-.352.8-.218.5-.315.723l-.248.574h-.973l-.248-.578c-.1-.229-.2-.471-.315-.731s-.231-.525-.352-.8-.239-.541-.356-.8-.228-.495-.331-.719-.194-.412-.269-.563q-.117,1.24-.175,2.565t-.1,2.574H18.627q.043-.888.1-1.84c.039-.635.081-1.263.127-1.888s.1-1.229.152-1.815.116-1.127.179-1.623Z" fill="#1e1e1c"/><path d="M34.047,32.77a4.155,4.155,0,0,1-.289,1.619,3.082,3.082,0,0,1-.822,1.147,3.428,3.428,0,0,1-1.283.683,5.8,5.8,0,0,1-1.659.223c-.29,0-.618-.014-.983-.037a6.59,6.59,0,0,1-1.045-.15V29.3a6.1,6.1,0,0,1,1.055-.145q.558-.032.993-.031a6.014,6.014,0,0,1,1.645.211,3.412,3.412,0,0,1,1.277.662,2.986,2.986,0,0,1,.822,1.138A4.2,4.2,0,0,1,34.047,32.77Zm-4.778,2.514c.076.006.176.012.3.013s.293.006.507.006a2.617,2.617,0,0,0,1.96-.666,2.577,2.577,0,0,0,.646-1.867,2.586,2.586,0,0,0-.631-1.873,2.613,2.613,0,0,0-1.954-.65,7.271,7.271,0,0,0-.828.031Z" fill="#1e1e1c"/><path d="M39.756,36.358q-.267-.413-.62-.869T38.4,34.61c-.259-.281-.526-.551-.8-.807a7.76,7.76,0,0,0-.817-.662v3.217h-1.3V29.192h1.3v2.957c.227-.227.466-.471.714-.728s.5-.522.739-.788.477-.521.7-.769.421-.473.6-.672h1.562c-.227.262-.469.533-.724.816s-.517.567-.786.854-.54.57-.812.853-.54.551-.8.807a9.6,9.6,0,0,1,.885.77q.45.439.884.941c.29.334.567.684.833,1.045s.508.723.728,1.08Z" fill="#1e1e1c"/><path d="M47,35.317a1.844,1.844,0,0,0,1.1-.256.837.837,0,0,0,.344-.719.933.933,0,0,0-.116-.476,1.222,1.222,0,0,0-.332-.361,2.953,2.953,0,0,0-.527-.3c-.207-.092-.443-.182-.71-.272s-.522-.2-.769-.316a2.536,2.536,0,0,1-.654-.426,1.852,1.852,0,0,1-.626-1.463,2.008,2.008,0,0,1,.72-1.635,3,3,0,0,1,1.961-.591,4.61,4.61,0,0,1,1.28.16,3.94,3.94,0,0,1,.881.349l-.432,1.129a3.418,3.418,0,0,0-.825-.32,3.842,3.842,0,0,0-.926-.111,1.471,1.471,0,0,0-.881.232.768.768,0,0,0-.316.654.864.864,0,0,0,.106.438,1.1,1.1,0,0,0,.3.328,2.69,2.69,0,0,0,.454.266c.174.08.364.158.571.232q.541.2.97.4a2.721,2.721,0,0,1,.72.489,1.9,1.9,0,0,1,.449.664,2.462,2.462,0,0,1,.155.925,1.922,1.922,0,0,1-.737,1.612,3.468,3.468,0,0,1-2.156.57,5.549,5.549,0,0,1-.87-.061,5.713,5.713,0,0,1-.7-.148,4.912,4.912,0,0,1-.526-.184,3.085,3.085,0,0,1-.355-.171l.41-1.141a4.932,4.932,0,0,0,.81.332A3.98,3.98,0,0,0,47,35.317Z" fill="#1e1e1c"/><path d="M50.988,29.034l1.341-.221v1.75h2.06v1.119h-2.06v2.362a1.713,1.713,0,0,0,.221,1,.878.878,0,0,0,.753.3,2.5,2.5,0,0,0,.649-.076,4.23,4.23,0,0,0,.448-.144l.222,1.062a4.38,4.38,0,0,1-.61.2,3.28,3.28,0,0,1-.886.106,2.8,2.8,0,0,1-1.036-.166,1.541,1.541,0,0,1-.66-.483,1.909,1.909,0,0,1-.343-.763,4.787,4.787,0,0,1-.1-1.026Z" fill="#1e1e1c"/><path d="M60.439,36.18c-.258.069-.595.137-1.008.2a8.085,8.085,0,0,1-1.363.106,3.025,3.025,0,0,1-1.169-.2,1.867,1.867,0,0,1-.753-.553,2.185,2.185,0,0,1-.405-.848,4.526,4.526,0,0,1-.121-1.082V30.563h1.34V33.6a2.434,2.434,0,0,0,.272,1.328,1.058,1.058,0,0,0,.947.4c.162,0,.334-.008.515-.024a2.662,2.662,0,0,0,.4-.054V30.563h1.341Z" fill="#1e1e1c"/><path d="M62.08,29.034l1.34-.221v1.75h2.061v1.119H63.42v2.362a1.712,1.712,0,0,0,.222,1,.877.877,0,0,0,.753.3,2.484,2.484,0,0,0,.648-.076,4.26,4.26,0,0,0,.449-.144l.221,1.062a4.316,4.316,0,0,1-.609.2,3.28,3.28,0,0,1-.886.106,2.8,2.8,0,0,1-1.036-.166,1.541,1.541,0,0,1-.66-.483,1.909,1.909,0,0,1-.343-.763,4.787,4.787,0,0,1-.1-1.026Z" fill="#1e1e1c"/><path d="M66.711,29.034l1.341-.221v1.75h2.061v1.119H68.052v2.362a1.7,1.7,0,0,0,.222,1,.876.876,0,0,0,.753.3,2.484,2.484,0,0,0,.648-.076,4.155,4.155,0,0,0,.448-.144l.222,1.062a4.316,4.316,0,0,1-.609.2,3.28,3.28,0,0,1-.886.106,2.8,2.8,0,0,1-1.036-.166,1.541,1.541,0,0,1-.66-.483,1.9,1.9,0,0,1-.343-.763,4.783,4.783,0,0,1-.1-1.026Z" fill="#1e1e1c"/><path d="M76.1,35.772a2.623,2.623,0,0,1-.7,2.027,3.113,3.113,0,0,1-2.155.643,6.13,6.13,0,0,1-1.95-.322l.244-1.141a4.12,4.12,0,0,0,.781.233,4.85,4.85,0,0,0,.947.087,1.625,1.625,0,0,0,1.153-.332,1.312,1.312,0,0,0,.343-.986V35.76a3.461,3.461,0,0,1-.526.2,2.591,2.591,0,0,1-.748.1,2.764,2.764,0,0,1-1.015-.178,2.122,2.122,0,0,1-.786-.519,2.4,2.4,0,0,1-.51-.859,3.559,3.559,0,0,1-.182-1.192,3.385,3.385,0,0,1,.193-1.164,2.486,2.486,0,0,1,.566-.908,2.6,2.6,0,0,1,.9-.588,3.285,3.285,0,0,1,1.207-.209,7.357,7.357,0,0,1,1.241.1q.588.1,1,.211Zm-3.733-2.461a1.764,1.764,0,0,0,.371,1.246,1.251,1.251,0,0,0,.958.395,1.974,1.974,0,0,0,.6-.09,1.767,1.767,0,0,0,.46-.209v-3c-.1-.021-.215-.043-.355-.061a4.116,4.116,0,0,0-.531-.027,1.353,1.353,0,0,0-1.12.481A1.97,1.97,0,0,0,72.363,33.311Z" fill="#1e1e1c"/><path d="M79.731,30.419a3.3,3.3,0,0,1,1.119.166,1.8,1.8,0,0,1,.726.466,1.744,1.744,0,0,1,.387.725,3.545,3.545,0,0,1,.118.937v3.512q-.312.068-.937.16a9.268,9.268,0,0,1-1.413.1,4.205,4.205,0,0,1-.953-.1,1.983,1.983,0,0,1-.737-.322,1.516,1.516,0,0,1-.476-.576,1.986,1.986,0,0,1-.172-.875,1.694,1.694,0,0,1,.193-.842,1.589,1.589,0,0,1,.527-.56,2.3,2.3,0,0,1,.77-.311A4.392,4.392,0,0,1,79.8,32.8a4.257,4.257,0,0,1,.466.028,4.565,4.565,0,0,1,.521.095V32.7a1.743,1.743,0,0,0-.056-.444.883.883,0,0,0-.56-.621,1.6,1.6,0,0,0-.57-.088,4.987,4.987,0,0,0-.853.067,3.953,3.953,0,0,0-.632.154l-.166-1.086a5.454,5.454,0,0,1,.742-.176A5.746,5.746,0,0,1,79.731,30.419Zm.11,5a4.941,4.941,0,0,0,.943-.067V33.866a2.294,2.294,0,0,0-.322-.067A2.9,2.9,0,0,0,80,33.766a2.988,2.988,0,0,0-.449.033,1.4,1.4,0,0,0-.41.122.731.731,0,0,0-.294.25.845.845,0,0,0,.189,1.062A1.527,1.527,0,0,0,79.841,35.417Z" fill="#1e1e1c"/><path d="M87.022,31.77c-.11-.035-.265-.074-.46-.115a3.352,3.352,0,0,0-.682-.061,2.737,2.737,0,0,0-.47.043c-.166.032-.283.057-.349.078v4.643H83.72V30.84a7.322,7.322,0,0,1,.97-.271,5.97,5.97,0,0,1,1.29-.127c.089,0,.192.006.31.016s.237.025.355.045.233.041.344.066a2.582,2.582,0,0,1,.265.072Z" fill="#1e1e1c"/><path d="M88.12,29.034l1.34-.221v1.75h2.061v1.119H89.46v2.362a1.712,1.712,0,0,0,.222,1,.878.878,0,0,0,.753.3,2.484,2.484,0,0,0,.648-.076,4.26,4.26,0,0,0,.449-.144l.221,1.062a4.316,4.316,0,0,1-.609.2,3.28,3.28,0,0,1-.886.106,2.8,2.8,0,0,1-1.036-.166,1.541,1.541,0,0,1-.66-.483,1.909,1.909,0,0,1-.343-.763,4.787,4.787,0,0,1-.1-1.026Z" fill="#1e1e1c"/><path d="M129.72,18.591c0,.67-.739,1.216-1.649,1.216s-1.649-.546-1.649-1.216.738-1.214,1.649-1.214S129.72,17.92,129.72,18.591Z" fill="#1e1e1c"/><path d="M135.265,17.377c0,.67-.737,1.214-1.65,1.214s-1.649-.544-1.649-1.214.738-1.216,1.649-1.216S135.265,16.706,135.265,17.377Z" fill="#1e1e1c"/><rect x="128.901" y="12.602" width="0.842" height="5.988" fill="#1e1e1c"/><rect x="134.433" y="11.389" width="0.842" height="5.988" fill="#1e1e1c"/><rect x="129.322" y="11.735" width="5.532" height="1.789" fill="#1e1e1c"/><path d="M135.275,13.945H128.9V11.314h6.374Zm-5.533-.842h4.691v-.947h-4.691Z" fill="#1e1e1c"/><path d="M16.37,17.279A4.093,4.093,0,0,0,16,15.239a1.37,1.37,0,0,0-1.269-.6q-.281,0-.58.03c-.2.02-.394.044-.58.07v8.12H10.59V12.7q.38-.1.89-.21t1.08-.2q.57-.09,1.17-.14t1.18-.05a4.965,4.965,0,0,1,1.85.29,4.191,4.191,0,0,1,1.17.69,5.572,5.572,0,0,1,3-.98,5.237,5.237,0,0,1,2.069.35,3.111,3.111,0,0,1,1.291.99,3.752,3.752,0,0,1,.66,1.52,9.812,9.812,0,0,1,.18,1.96v5.94H22.15v-5.58a4.106,4.106,0,0,0-.37-2.04,1.372,1.372,0,0,0-1.27-.6,2.68,2.68,0,0,0-.67.12,2.614,2.614,0,0,0-.71.3,4.587,4.587,0,0,1,.18.97c.026.34.04.7.04,1.09v5.74H16.37Z" fill="#1e1e1c"/><path d="M36.81,22.5a16.423,16.423,0,0,1-1.96.41,16.062,16.062,0,0,1-2.519.19,5.986,5.986,0,0,1-2.231-.36,3.377,3.377,0,0,1-1.41-1.01,3.94,3.94,0,0,1-.74-1.55,8.319,8.319,0,0,1-.22-1.98v-5.86h2.98v5.5a4.253,4.253,0,0,0,.38,2.08,1.511,1.511,0,0,0,1.42.64q.319,0,.68-.03c.24-.02.453-.043.641-.07v-8.12H36.81Z" fill="#1e1e1c"/><path d="M42.63,20.719a2.965,2.965,0,0,0,1.16-.16.617.617,0,0,0,.34-.62.759.759,0,0,0-.439-.63,8.308,8.308,0,0,0-1.341-.61,13.379,13.379,0,0,1-1.269-.54,3.73,3.73,0,0,1-.97-.67,2.682,2.682,0,0,1-.62-.93,3.415,3.415,0,0,1-.221-1.3,2.811,2.811,0,0,1,1.1-2.34,4.785,4.785,0,0,1,3.019-.86,9.7,9.7,0,0,1,1.84.17,8.433,8.433,0,0,1,1.4.37l-.519,2.32a10.951,10.951,0,0,0-1.131-.32,6.093,6.093,0,0,0-1.369-.14q-1.4,0-1.4.78a.808.808,0,0,0,.06.32.681.681,0,0,0,.24.27,3.381,3.381,0,0,0,.49.281c.206.1.47.212.79.333a12.06,12.06,0,0,1,1.621.716,3.863,3.863,0,0,1,1.009.762,2.356,2.356,0,0,1,.521.908,4.062,4.062,0,0,1,.149,1.157,2.663,2.663,0,0,1-1.17,2.354,5.825,5.825,0,0,1-3.309.8,9.509,9.509,0,0,1-2.33-.24,9.351,9.351,0,0,1-1.29-.4l.5-2.42a9.719,9.719,0,0,0,1.559.47A7.546,7.546,0,0,0,42.63,20.719Z" fill="#1e1e1c"/><path d="M52.57,9.3a1.636,1.636,0,0,1-.53,1.29,1.9,1.9,0,0,1-2.5,0,1.633,1.633,0,0,1-.531-1.29,1.636,1.636,0,0,1,.531-1.29,1.9,1.9,0,0,1,2.5,0A1.639,1.639,0,0,1,52.57,9.3Zm-.28,13.56H49.31V12.339h2.98Z" fill="#1e1e1c"/><path d="M54.589,17.6a6.219,6.219,0,0,1,.369-2.15,5.037,5.037,0,0,1,2.771-2.95,5.617,5.617,0,0,1,2.28-.44,7.361,7.361,0,0,1,1.54.15,7.566,7.566,0,0,1,1.36.43l-.62,2.38a7.647,7.647,0,0,0-.92-.28,4.811,4.811,0,0,0-1.121-.12,2.359,2.359,0,0,0-1.969.82,3.373,3.373,0,0,0-.65,2.16,3.494,3.494,0,0,0,.61,2.2,2.556,2.556,0,0,0,2.13.78,7.266,7.266,0,0,0,1.16-.1,4.892,4.892,0,0,0,1.14-.32l.42,2.44a7,7,0,0,1-1.3.38,8.548,8.548,0,0,1-1.72.16,6.466,6.466,0,0,1-2.48-.43,4.674,4.674,0,0,1-1.71-1.17,4.557,4.557,0,0,1-.98-1.75A7.417,7.417,0,0,1,54.589,17.6Z" fill="#1e1e1c"/><path d="M68.009,21.559a4.569,4.569,0,0,0,.85-.08,2.585,2.585,0,0,0,.761-.26,1.527,1.527,0,0,0,.539-.49,1.482,1.482,0,0,0,.11-1.3,1.257,1.257,0,0,0-.32-.43,3.173,3.173,0,0,0-.55-.39q-.33-.191-.79-.43-.46-.219-.84-.44a3.062,3.062,0,0,1-.67-.52,2.1,2.1,0,0,1-.45-.71,2.717,2.717,0,0,1-.16-.99,2.994,2.994,0,0,1,1.08-2.41,4.759,4.759,0,0,1,3.14-.91,6.724,6.724,0,0,1,1.69.19,4.639,4.639,0,0,1,1.01.35l-.7,1.52a4.441,4.441,0,0,0-.9-.34,4.939,4.939,0,0,0-1.38-.18,3.7,3.7,0,0,0-.76.08,2.189,2.189,0,0,0-.69.27,1.485,1.485,0,0,0-.5.5,1.407,1.407,0,0,0-.189.75,1.107,1.107,0,0,0,.419.89,5.632,5.632,0,0,0,1.26.73,9.353,9.353,0,0,1,.93.49,3.31,3.31,0,0,1,.7.56,2.094,2.094,0,0,1,.441.73,3,3,0,0,1,.149,1,3.283,3.283,0,0,1-.319,1.48,2.925,2.925,0,0,1-.891,1.06,4.006,4.006,0,0,1-1.35.63,6.526,6.526,0,0,1-1.7.21,7.662,7.662,0,0,1-1.23-.09,8.1,8.1,0,0,1-.96-.21,4.458,4.458,0,0,1-.68-.25c-.18-.087-.316-.156-.41-.21l.721-1.52c.092.053.222.12.389.2a5.487,5.487,0,0,0,.6.24,5.7,5.7,0,0,0,.77.2A4.646,4.646,0,0,0,68.009,21.559Z" fill="#1e1e1c"/><path d="M77.708,23.119a4.824,4.824,0,0,1-1.76-.29,3.489,3.489,0,0,1-1.24-.8,3.187,3.187,0,0,1-.74-1.19,4.292,4.292,0,0,1-.24-1.44,8.726,8.726,0,0,1,.42-2.7,7.414,7.414,0,0,1,1.2-2.3,5.829,5.829,0,0,1,1.9-1.59,5.37,5.37,0,0,1,2.54-.59,4.222,4.222,0,0,1,1.41.21,2.6,2.6,0,0,1,.96.57,2.288,2.288,0,0,1,.55.83,2.686,2.686,0,0,1,.18.97,3.394,3.394,0,0,1-.34,1.59,3.329,3.329,0,0,1-.9,1.09,4.143,4.143,0,0,1-1.31.68,11.538,11.538,0,0,1-1.56.38,14.882,14.882,0,0,1-1.64.19c-.554.033-1.077.064-1.57.09a2.042,2.042,0,0,0-.02.26v.16a3.313,3.313,0,0,0,.11.87,1.621,1.621,0,0,0,.41.72,2.041,2.041,0,0,0,.83.49,4.418,4.418,0,0,0,1.39.18,4.669,4.669,0,0,0,.79-.07,6.647,6.647,0,0,0,.78-.18q.37-.111.66-.22a1.5,1.5,0,0,0,.41-.21l.16,1.58a6.525,6.525,0,0,1-1.29.47A7.759,7.759,0,0,1,77.708,23.119Zm-1.9-5.72q1.159-.039,2.12-.15a6.8,6.8,0,0,0,1.66-.38,2.639,2.639,0,0,0,1.09-.73,1.791,1.791,0,0,0,.39-1.2,1.167,1.167,0,0,0-.07-.38.97.97,0,0,0-.24-.37,1.273,1.273,0,0,0-.47-.28,2.174,2.174,0,0,0-.74-.11,2.928,2.928,0,0,0-1.31.3,3.954,3.954,0,0,0-1.09.79,4.761,4.761,0,0,0-.82,1.14A6.173,6.173,0,0,0,75.808,17.4Z" fill="#1e1e1c"/><path d="M90.328,22.979c-.067-.146-.133-.31-.2-.49a3.726,3.726,0,0,1-.16-.57,6,6,0,0,1-1.18.8,3.785,3.785,0,0,1-1.82.4,3.7,3.7,0,0,1-1.511-.28,2.708,2.708,0,0,1-1.029-.78,3.251,3.251,0,0,1-.59-1.18,5.558,5.558,0,0,1-.19-1.5,7.85,7.85,0,0,1,.45-2.62,6.6,6.6,0,0,1,3.609-3.9,7.614,7.614,0,0,1,3.181-.62,7.791,7.791,0,0,1,1.26.12,4.008,4.008,0,0,1,1.24.4l-1.54,6.28q-.1.46-.17.88a5.318,5.318,0,0,0-.07.88,5.46,5.46,0,0,0,.08.93,5.568,5.568,0,0,0,.28,1.01Zm-2.98-1.44a2.748,2.748,0,0,0,1.44-.36,4.624,4.624,0,0,0,1.04-.84c.013-.226.037-.463.07-.71s.076-.5.13-.75l1.2-4.96a1.292,1.292,0,0,0-.33-.06c-.153-.013-.29-.02-.41-.02a4.718,4.718,0,0,0-2.06.44,4.935,4.935,0,0,0-1.57,1.17,5.154,5.154,0,0,0-1,1.7,5.919,5.919,0,0,0-.35,2.03,4.663,4.663,0,0,0,.08.85,2.115,2.115,0,0,0,.29.76,1.674,1.674,0,0,0,.56.54A1.749,1.749,0,0,0,87.348,21.539Z" fill="#1e1e1c"/><path d="M99.648,12.239c.159,0,.34.007.539.02a5.744,5.744,0,0,1,.591.07c.192.034.37.067.529.1a1.592,1.592,0,0,1,.36.11l-.54,1.62a4.148,4.148,0,0,0-.92-.24,6.605,6.605,0,0,0-1-.08,5.731,5.731,0,0,0-.83.06,4.275,4.275,0,0,0-.71.16l-2.12,8.8h-1.86l2.4-10a11.515,11.515,0,0,1,1.72-.45A10.139,10.139,0,0,1,99.648,12.239Z" fill="#1e1e1c"/><path d="M101.108,19.139a8.422,8.422,0,0,1,.41-2.62,6.636,6.636,0,0,1,1.21-2.22,5.813,5.813,0,0,1,4.62-2.1,8.5,8.5,0,0,1,1.26.09,3.949,3.949,0,0,1,1.14.35l-.7,1.56a2.863,2.863,0,0,0-.75-.28,5.03,5.03,0,0,0-1.11-.1,3.592,3.592,0,0,0-1.76.43,4.282,4.282,0,0,0-1.33,1.14,5.151,5.151,0,0,0-.84,1.64,6.459,6.459,0,0,0-.29,1.93,4.168,4.168,0,0,0,.11.98,2.023,2.023,0,0,0,.39.81,1.885,1.885,0,0,0,.75.55,3.062,3.062,0,0,0,1.19.2,4.365,4.365,0,0,0,.759-.07,6.772,6.772,0,0,0,.741-.17,6.414,6.414,0,0,0,.61-.21,1.524,1.524,0,0,0,.39-.21l.16,1.58a4.792,4.792,0,0,1-1.18.47,6.572,6.572,0,0,1-1.82.23,4.641,4.641,0,0,1-1.7-.29,3.354,3.354,0,0,1-1.241-.82,3.535,3.535,0,0,1-.759-1.26A4.778,4.778,0,0,1,101.108,19.139Z" fill="#1e1e1c"/><path d="M109.247,22.859l3.66-15.2,1.94-.32-1.28,5.26a7.24,7.24,0,0,1,.97-.26,5.312,5.312,0,0,1,1.03-.1,4.331,4.331,0,0,1,1.55.25,2.762,2.762,0,0,1,1.05.68,2.666,2.666,0,0,1,.59,1.04,4.476,4.476,0,0,1,.19,1.33,8.325,8.325,0,0,1-.28,2l-1.28,5.32h-1.86l1.18-4.92q.139-.559.27-1.14a5.008,5.008,0,0,0,.13-1.1,2.014,2.014,0,0,0-.44-1.33,2.058,2.058,0,0,0-1.64-.53,5.694,5.694,0,0,0-.99.09,3.434,3.434,0,0,0-.85.25l-2.08,8.68Z" fill="#1e1e1c"/></svg>