<svg id="Ebene_1" data-name="Ebene 1" xmlns="http://www.w3.org/2000/svg" viewBox="0 0 142.362 47.682"><path d="M15.8,29.439h1.3v7.167H15.8V33.431H12.69v3.175h-1.3V29.439h1.3V32.3H15.8Z" fill="#1e1e1c"/><path d="M20.389,29.439q.228.393.507.962t.569,1.194q.29.626.575,1.273c.189.43.363.829.521,1.194.159-.365.331-.764.518-1.194s.376-.856.568-1.273.383-.815.569-1.194.355-.7.507-.962H25.9q.095.786.179,1.67t.153,1.81q.068.927.126,1.862t.1,1.825H25.172q-.041-1.251-.1-2.575T24.9,31.466q-.114.237-.27.569c-.1.22-.213.46-.33.718s-.236.527-.357.8-.237.543-.352.8-.218.5-.315.723-.18.416-.248.575h-.973l-.248-.579c-.1-.228-.2-.471-.315-.73s-.231-.525-.352-.8-.239-.541-.356-.8l-.331-.718c-.1-.225-.194-.412-.269-.564q-.117,1.24-.175,2.565t-.1,2.575H18.626q.043-.89.1-1.841t.127-1.888q.067-.936.152-1.814t.179-1.624Z" fill="#1e1e1c"/><path d="M34.046,33.017a4.155,4.155,0,0,1-.289,1.619,3.066,3.066,0,0,1-.822,1.148,3.427,3.427,0,0,1-1.283.682,5.8,5.8,0,0,1-1.659.223c-.29,0-.618-.013-.983-.036a6.589,6.589,0,0,1-1.045-.151v-6.96A6.2,6.2,0,0,1,29.02,29.4c.372-.022.7-.031.993-.031a5.975,5.975,0,0,1,1.645.212,3.383,3.383,0,0,1,1.277.662,2.957,2.957,0,0,1,.822,1.137A4.21,4.21,0,0,1,34.046,33.017Zm-4.778,2.514c.076.007.176.011.3.014s.293.006.507.006a2.613,2.613,0,0,0,1.96-.667,3.056,3.056,0,0,0,.015-3.739,2.613,2.613,0,0,0-1.954-.651,7.518,7.518,0,0,0-.828.031Z" fill="#1e1e1c"/><path d="M39.755,36.606q-.267-.414-.62-.869t-.739-.879c-.259-.282-.526-.552-.8-.807a7.514,7.514,0,0,0-.817-.662v3.217h-1.3V29.439h1.3V32.4c.227-.228.466-.471.714-.73s.495-.52.739-.786.478-.522.7-.77l.6-.672H41.09q-.341.393-.724.817t-.786.853q-.4.429-.812.853c-.272.284-.54.552-.8.807a9.6,9.6,0,0,1,.885.77q.45.439.884.942t.833,1.044q.4.543.728,1.081Z" fill="#1e1e1c"/><path d="M46.815,28.927c.162.28.344.624.543,1.03s.4.833.609,1.281.411.9.616,1.362.389.889.559,1.28q.255-.587.554-1.28t.609-1.362q.31-.672.61-1.281t.543-1.03h1.257c.069.562.132,1.157.193,1.789s.114,1.279.163,1.94.094,1.326.136,1.994.077,1.321.107,1.956H51.94q-.045-1.341-.107-2.759T51.646,31.1c-.081.17-.178.373-.288.609s-.23.494-.355.77-.253.563-.382.859-.255.581-.376.859-.236.536-.338.775l-.267.615H48.6q-.111-.255-.266-.62c-.1-.244-.216-.505-.338-.781s-.247-.564-.377-.859-.256-.58-.382-.853l-.355-.77q-.166-.361-.288-.6-.125,1.329-.186,2.748T46.3,36.606H44.925q.047-.953.108-1.973t.135-2.021q.074-1,.164-1.946t.192-1.739Z" fill="#1e1e1c"/><path d="M56.792,30.666a3.3,3.3,0,0,1,1.12.166,1.8,1.8,0,0,1,.725.466,1.727,1.727,0,0,1,.388.726,3.533,3.533,0,0,1,.117.936v3.513c-.207.044-.519.1-.936.16a9.411,9.411,0,0,1-1.414.095,4.212,4.212,0,0,1-.953-.1,1.986,1.986,0,0,1-.736-.321,1.528,1.528,0,0,1-.477-.576,1.991,1.991,0,0,1-.171-.876,1.694,1.694,0,0,1,.193-.842,1.592,1.592,0,0,1,.526-.559,2.271,2.271,0,0,1,.771-.311,4.319,4.319,0,0,1,.914-.094,4.035,4.035,0,0,1,.466.028,4.107,4.107,0,0,1,.52.094V32.95a1.731,1.731,0,0,0-.055-.444.889.889,0,0,0-.56-.621,1.606,1.606,0,0,0-.57-.088,5,5,0,0,0-.854.067,3.748,3.748,0,0,0-.632.154l-.166-1.086a5.428,5.428,0,0,1,.742-.177A5.846,5.846,0,0,1,56.792,30.666Zm.111,5a4.929,4.929,0,0,0,.942-.067V34.113a2.562,2.562,0,0,0-.321-.067,3.031,3.031,0,0,0-.466-.033,3.111,3.111,0,0,0-.448.033,1.423,1.423,0,0,0-.41.122.744.744,0,0,0-.294.249.845.845,0,0,0,.188,1.064A1.541,1.541,0,0,0,56.9,35.664Z" fill="#1e1e1c"/><path d="M60.782,31a9.005,9.005,0,0,1,1.008-.211,8.763,8.763,0,0,1,1.374-.1,3.164,3.164,0,0,1,1.185.193,1.868,1.868,0,0,1,.76.543,2.093,2.093,0,0,1,.4.843,4.668,4.668,0,0,1,.117,1.08v3.258H64.283V33.559a4.47,4.47,0,0,0-.061-.793,1.407,1.407,0,0,0-.2-.531.8.8,0,0,0-.377-.3,1.584,1.584,0,0,0-.582-.094,4.492,4.492,0,0,0-.532.033c-.185.023-.322.041-.409.056v4.676H60.782Z" fill="#1e1e1c"/><path d="M67.264,31a9.054,9.054,0,0,1,1.008-.211,8.763,8.763,0,0,1,1.374-.1,3.169,3.169,0,0,1,1.186.193,1.858,1.858,0,0,1,.759.543,2.081,2.081,0,0,1,.4.843,4.669,4.669,0,0,1,.116,1.08v3.258H70.765V33.559a4.479,4.479,0,0,0-.06-.793,1.407,1.407,0,0,0-.2-.531.8.8,0,0,0-.377-.3,1.581,1.581,0,0,0-.582-.094,4.505,4.505,0,0,0-.532.033c-.184.023-.321.041-.409.056v4.676H67.264Z" fill="#1e1e1c"/><path d="M73.747,36.606V28.229l1.34-.222v2.87a3.726,3.726,0,0,1,.515-.132,3.05,3.05,0,0,1,.582-.056,3,3,0,0,1,1.158.193,1.835,1.835,0,0,1,.737.543,2.126,2.126,0,0,1,.393.837,4.668,4.668,0,0,1,.116,1.086v3.258h-1.34V33.559a4.47,4.47,0,0,0-.061-.793,1.407,1.407,0,0,0-.2-.531.809.809,0,0,0-.371-.3,1.545,1.545,0,0,0-.577-.094,2.759,2.759,0,0,0-.543.056,3.843,3.843,0,0,0-.41.1v4.61Z" fill="#1e1e1c"/><path d="M79.875,33.736A3.655,3.655,0,0,1,80.1,32.4a2.8,2.8,0,0,1,.605-.958,2.491,2.491,0,0,1,.864-.576,2.657,2.657,0,0,1,1-.2,2.387,2.387,0,0,1,1.867.743,3.218,3.218,0,0,1,.67,2.216c0,.074,0,.158,0,.249s-.01.176-.016.249H81.259a1.531,1.531,0,0,0,.493,1.082,1.879,1.879,0,0,0,1.269.381,4.132,4.132,0,0,0,.893-.089,3.536,3.536,0,0,0,.636-.188l.178,1.1a2.185,2.185,0,0,1-.306.116,4.131,4.131,0,0,1-.442.11c-.167.033-.346.062-.538.083a4.936,4.936,0,0,1-.587.034,3.564,3.564,0,0,1-1.33-.227,2.487,2.487,0,0,1-.931-.632,2.6,2.6,0,0,1-.543-.953A3.892,3.892,0,0,1,79.875,33.736Zm3.888-.6a1.746,1.746,0,0,0-.077-.525,1.269,1.269,0,0,0-.228-.433,1.062,1.062,0,0,0-.365-.288,1.168,1.168,0,0,0-.515-.1,1.206,1.206,0,0,0-.543.116,1.253,1.253,0,0,0-.394.3,1.449,1.449,0,0,0-.249.433,2.337,2.337,0,0,0-.122.5Z" fill="#1e1e1c"/><path d="M88.019,29.116a.767.767,0,0,1-.244.6.824.824,0,0,1-.576.222.838.838,0,0,1-.588-.222.766.766,0,0,1-.243-.6.784.784,0,0,1,.243-.61.842.842,0,0,1,.588-.221.828.828,0,0,1,.576.221A.785.785,0,0,1,88.019,29.116Zm-.144,7.49H86.534v-5.8h1.341Z" fill="#1e1e1c"/><path d="M92.883,33.559a2.826,2.826,0,0,0-.227-1.313.886.886,0,0,0-.848-.405,3.994,3.994,0,0,0-.487.033c-.177.023-.311.041-.4.056v4.676h-1.34V31a8.886,8.886,0,0,1,1.013-.211,8.475,8.475,0,0,1,1.324-.1,2.647,2.647,0,0,1,.981.155,1.9,1.9,0,0,1,.637.41,2.588,2.588,0,0,1,.31-.188,3.3,3.3,0,0,1,.421-.184,4.068,4.068,0,0,1,.493-.137,2.464,2.464,0,0,1,.527-.056,2.77,2.77,0,0,1,1.114.193,1.648,1.648,0,0,1,.686.543,2.112,2.112,0,0,1,.344.843,5.738,5.738,0,0,1,.094,1.08v3.258H96.185V33.559a2.863,2.863,0,0,0-.222-1.313.881.881,0,0,0-.852-.405,1.743,1.743,0,0,0-.61.106,1.952,1.952,0,0,0-.432.205,3.007,3.007,0,0,1,.122.587,6.3,6.3,0,0,1,.033.665v3.2H92.883Z" fill="#1e1e1c"/><path d="M129.72,18.345c0,.67-.739,1.215-1.649,1.215s-1.649-.545-1.649-1.215.738-1.214,1.649-1.214S129.72,17.674,129.72,18.345Z" fill="#1e1e1c"/><path d="M135.265,17.131c0,.67-.737,1.214-1.65,1.214s-1.649-.544-1.649-1.214.738-1.216,1.649-1.216S135.265,16.46,135.265,17.131Z" fill="#1e1e1c"/><rect x="128.901" y="12.356" width="0.842" height="5.988" fill="#1e1e1c"/><rect x="134.433" y="11.142" width="0.842" height="5.988" fill="#1e1e1c"/><rect x="129.322" y="11.489" width="5.532" height="1.789" fill="#1e1e1c"/><path d="M135.275,13.7H128.9V11.068h6.374Zm-5.533-.842h4.691V11.91h-4.691Z" fill="#1e1e1c"/><path d="M16.37,17.034A4.108,4.108,0,0,0,16,14.993a1.374,1.374,0,0,0-1.27-.6q-.281,0-.58.029c-.2.022-.394.045-.58.071v8.121H10.59V12.454q.38-.1.89-.211t1.08-.2q.57-.09,1.17-.14t1.18-.049a4.967,4.967,0,0,1,1.85.289,4.2,4.2,0,0,1,1.17.689,5.592,5.592,0,0,1,3-.978A5.228,5.228,0,0,1,23,12.2a3.1,3.1,0,0,1,1.29.99,3.742,3.742,0,0,1,.66,1.519,9.809,9.809,0,0,1,.18,1.959v5.942H22.15v-5.58a4.108,4.108,0,0,0-.37-2.041,1.374,1.374,0,0,0-1.27-.6,2.69,2.69,0,0,0-.67.121,2.646,2.646,0,0,0-.71.3,4.6,4.6,0,0,1,.18.971c.026.339.04.7.04,1.089v5.741H16.37Z" fill="#1e1e1c"/><path d="M36.81,22.252a15.825,15.825,0,0,1-1.96.411,16.181,16.181,0,0,1-2.519.191,5.984,5.984,0,0,1-2.231-.361,3.4,3.4,0,0,1-1.41-1.01,3.942,3.942,0,0,1-.74-1.549,8.343,8.343,0,0,1-.22-1.98v-5.86h2.98v5.5a4.247,4.247,0,0,0,.38,2.078,1.509,1.509,0,0,0,1.42.641q.319,0,.68-.029c.24-.02.453-.043.641-.071V12.094H36.81Z" fill="#1e1e1c"/><path d="M42.63,20.473a2.974,2.974,0,0,0,1.161-.16.617.617,0,0,0,.339-.619.76.76,0,0,0-.439-.631,8.321,8.321,0,0,0-1.341-.609,13.636,13.636,0,0,1-1.269-.541,3.73,3.73,0,0,1-.97-.67,2.691,2.691,0,0,1-.62-.93,3.41,3.41,0,0,1-.221-1.3,2.813,2.813,0,0,1,1.1-2.342,4.791,4.791,0,0,1,3.019-.859,9.7,9.7,0,0,1,1.84.17,8.324,8.324,0,0,1,1.4.371l-.519,2.318a10.962,10.962,0,0,0-1.131-.318,6.09,6.09,0,0,0-1.369-.141q-1.4,0-1.4.78a.8.8,0,0,0,.06.32.672.672,0,0,0,.24.269,3.2,3.2,0,0,0,.49.282c.207.1.47.213.791.334a12.237,12.237,0,0,1,1.62.715,3.928,3.928,0,0,1,1.009.761,2.378,2.378,0,0,1,.521.908,4.036,4.036,0,0,1,.149,1.159,2.661,2.661,0,0,1-1.17,2.353,5.825,5.825,0,0,1-3.309.8,9.509,9.509,0,0,1-2.33-.24,9.176,9.176,0,0,1-1.29-.4l.5-2.42a9.523,9.523,0,0,0,1.559.471A7.613,7.613,0,0,0,42.63,20.473Z" fill="#1e1e1c"/><path d="M52.57,9.053a1.639,1.639,0,0,1-.53,1.291,1.9,1.9,0,0,1-2.5,0,1.637,1.637,0,0,1-.531-1.291,1.631,1.631,0,0,1,.531-1.289,1.894,1.894,0,0,1,2.5,0A1.634,1.634,0,0,1,52.57,9.053Zm-.28,13.561H49.31V12.094h2.98Z" fill="#1e1e1c"/><path d="M54.589,17.354a6.215,6.215,0,0,1,.369-2.15,5.048,5.048,0,0,1,2.771-2.952,5.617,5.617,0,0,1,2.28-.439,7.421,7.421,0,0,1,1.54.15,7.566,7.566,0,0,1,1.36.43l-.62,2.381a7.3,7.3,0,0,0-.92-.281,4.808,4.808,0,0,0-1.12-.12,2.36,2.36,0,0,0-1.97.821,3.37,3.37,0,0,0-.65,2.16,3.5,3.5,0,0,0,.61,2.2,2.555,2.555,0,0,0,2.13.779,7.377,7.377,0,0,0,1.16-.1,4.892,4.892,0,0,0,1.14-.32l.42,2.441a7.162,7.162,0,0,1-1.3.379,8.548,8.548,0,0,1-1.72.16,6.466,6.466,0,0,1-2.48-.43,4.661,4.661,0,0,1-1.71-1.17,4.565,4.565,0,0,1-.98-1.75A7.41,7.41,0,0,1,54.589,17.354Z" fill="#1e1e1c"/><path d="M68.009,21.313a4.485,4.485,0,0,0,.85-.08,2.528,2.528,0,0,0,.761-.26,1.518,1.518,0,0,0,.539-.49,1.342,1.342,0,0,0,.211-.77,1.324,1.324,0,0,0-.1-.529,1.273,1.273,0,0,0-.32-.432,3.226,3.226,0,0,0-.55-.388q-.33-.191-.79-.43-.46-.219-.84-.441a3.093,3.093,0,0,1-.67-.52,2.089,2.089,0,0,1-.45-.709,2.717,2.717,0,0,1-.16-.99,2.993,2.993,0,0,1,1.08-2.41,4.748,4.748,0,0,1,3.14-.91,6.727,6.727,0,0,1,1.69.189,4.694,4.694,0,0,1,1.01.35l-.7,1.521a4.481,4.481,0,0,0-.9-.342,4.977,4.977,0,0,0-1.38-.179,3.7,3.7,0,0,0-.76.08,2.176,2.176,0,0,0-.69.271,1.476,1.476,0,0,0-.5.5,1.4,1.4,0,0,0-.189.75,1.1,1.1,0,0,0,.419.889,5.671,5.671,0,0,0,1.26.73,9.349,9.349,0,0,1,.93.491,3.279,3.279,0,0,1,.7.56,2.08,2.08,0,0,1,.441.729,3.009,3.009,0,0,1,.149,1,3.27,3.27,0,0,1-.319,1.48,2.937,2.937,0,0,1-.891,1.061,4,4,0,0,1-1.35.629,6.526,6.526,0,0,1-1.7.21,7.669,7.669,0,0,1-1.23-.089,8.331,8.331,0,0,1-.96-.211,4.354,4.354,0,0,1-.68-.25c-.18-.086-.316-.157-.41-.209l.721-1.52c.092.053.222.119.389.2a5.474,5.474,0,0,0,.6.241,5.562,5.562,0,0,0,.77.2A4.565,4.565,0,0,0,68.009,21.313Z" fill="#1e1e1c"/><path d="M77.708,22.873a4.8,4.8,0,0,1-1.76-.291,3.471,3.471,0,0,1-1.24-.8,3.207,3.207,0,0,1-.74-1.19,4.294,4.294,0,0,1-.24-1.441,8.72,8.72,0,0,1,.42-2.7,7.408,7.408,0,0,1,1.2-2.3,5.842,5.842,0,0,1,1.9-1.59,5.37,5.37,0,0,1,2.54-.59,4.2,4.2,0,0,1,1.41.211,2.615,2.615,0,0,1,.96.568,2.3,2.3,0,0,1,.55.83,2.7,2.7,0,0,1,.18.971,3.394,3.394,0,0,1-.34,1.59,3.329,3.329,0,0,1-.9,1.09,4.164,4.164,0,0,1-1.31.68,11.538,11.538,0,0,1-1.56.38,14.644,14.644,0,0,1-1.64.19c-.554.033-1.077.064-1.57.09a2.054,2.054,0,0,0-.02.259v.161a3.331,3.331,0,0,0,.11.871,1.609,1.609,0,0,0,.41.718,2.031,2.031,0,0,0,.83.491,4.393,4.393,0,0,0,1.39.179,4.66,4.66,0,0,0,.79-.068,6.45,6.45,0,0,0,.78-.182c.247-.072.467-.146.66-.218a1.523,1.523,0,0,0,.41-.211l.16,1.58a6.591,6.591,0,0,1-1.29.47A7.8,7.8,0,0,1,77.708,22.873Zm-1.9-5.72q1.161-.039,2.12-.151a6.71,6.71,0,0,0,1.66-.379,2.629,2.629,0,0,0,1.09-.73,1.792,1.792,0,0,0,.39-1.2,1.168,1.168,0,0,0-.07-.381.974.974,0,0,0-.24-.369,1.274,1.274,0,0,0-.47-.281,2.174,2.174,0,0,0-.74-.11,2.919,2.919,0,0,0-1.31.3,3.966,3.966,0,0,0-1.09.789,4.747,4.747,0,0,0-.82,1.141A6.128,6.128,0,0,0,75.808,17.153Z" fill="#1e1e1c"/><path d="M90.328,22.733c-.067-.147-.133-.311-.2-.49a3.707,3.707,0,0,1-.16-.571,5.955,5.955,0,0,1-1.18.8,3.773,3.773,0,0,1-1.82.4,3.711,3.711,0,0,1-1.51-.279,2.7,2.7,0,0,1-1.03-.781,3.251,3.251,0,0,1-.59-1.18,5.548,5.548,0,0,1-.19-1.5,7.848,7.848,0,0,1,.45-2.619,6.594,6.594,0,0,1,3.61-3.9,7.591,7.591,0,0,1,3.18-.621,7.8,7.8,0,0,1,1.26.121,3.982,3.982,0,0,1,1.24.4l-1.54,6.279q-.1.461-.17.879a5.339,5.339,0,0,0-.07.881,5.46,5.46,0,0,0,.08.93,5.568,5.568,0,0,0,.28,1.01Zm-2.98-1.44a2.767,2.767,0,0,0,1.44-.359,4.652,4.652,0,0,0,1.04-.84c.013-.226.037-.465.07-.711s.076-.5.13-.75l1.2-4.961a1.359,1.359,0,0,0-.33-.058c-.153-.014-.29-.02-.41-.02a4.718,4.718,0,0,0-2.06.44,4.906,4.906,0,0,0-1.57,1.17,5.13,5.13,0,0,0-1,1.7,5.945,5.945,0,0,0-.35,2.031,4.688,4.688,0,0,0,.08.85,2.11,2.11,0,0,0,.29.759,1.643,1.643,0,0,0,.56.539A1.739,1.739,0,0,0,87.348,21.293Z" fill="#1e1e1c"/><path d="M99.648,11.993c.159,0,.34.007.539.021a5.479,5.479,0,0,1,.591.068c.192.036.37.069.529.1a1.5,1.5,0,0,1,.36.109l-.54,1.62a4.323,4.323,0,0,0-.919-.241,6.748,6.748,0,0,0-1-.078,5.879,5.879,0,0,0-.831.059,4.275,4.275,0,0,0-.71.16l-2.12,8.8h-1.86l2.4-10a11.394,11.394,0,0,1,1.72-.451A10.05,10.05,0,0,1,99.648,11.993Z" fill="#1e1e1c"/><path d="M101.108,18.893a8.42,8.42,0,0,1,.41-2.619,6.65,6.65,0,0,1,1.21-2.221,5.816,5.816,0,0,1,4.62-2.1,8.494,8.494,0,0,1,1.26.089,3.98,3.98,0,0,1,1.14.35l-.7,1.561a2.864,2.864,0,0,0-.75-.282,5.1,5.1,0,0,0-1.11-.1,3.6,3.6,0,0,0-1.76.429,4.285,4.285,0,0,0-1.33,1.141,5.156,5.156,0,0,0-.84,1.641,6.448,6.448,0,0,0-.29,1.929,4.171,4.171,0,0,0,.11.981,2.015,2.015,0,0,0,.39.808,1.869,1.869,0,0,0,.75.551,3.063,3.063,0,0,0,1.19.2,4.355,4.355,0,0,0,.759-.068,7.012,7.012,0,0,0,.741-.17c.226-.068.43-.137.61-.211a1.5,1.5,0,0,0,.39-.209l.16,1.578a4.748,4.748,0,0,1-1.18.471,6.572,6.572,0,0,1-1.82.23,4.62,4.62,0,0,1-1.7-.291,3.334,3.334,0,0,1-1.241-.818,3.527,3.527,0,0,1-.759-1.262A4.764,4.764,0,0,1,101.108,18.893Z" fill="#1e1e1c"/><path d="M109.247,22.614l3.66-15.2,1.94-.319-1.28,5.26a6.99,6.99,0,0,1,.97-.26,5.236,5.236,0,0,1,1.03-.1,4.331,4.331,0,0,1,1.55.25,2.8,2.8,0,0,1,1.05.679,2.677,2.677,0,0,1,.59,1.041,4.476,4.476,0,0,1,.19,1.33,8.332,8.332,0,0,1-.28,2l-1.28,5.321h-1.86l1.181-4.92q.138-.559.269-1.141a5.02,5.02,0,0,0,.13-1.1,2.017,2.017,0,0,0-.44-1.331,2.057,2.057,0,0,0-1.64-.529,5.606,5.606,0,0,0-.99.09,3.351,3.351,0,0,0-.85.25l-2.08,8.68Z" fill="#1e1e1c"/></svg>