<svg id="Ebene_1" data-name="Ebene 1" xmlns="http://www.w3.org/2000/svg" viewBox="0 0 700 105.5"><path d="M366.99,54.867c0,1.986-2.192,3.6-4.89,3.6s-4.886-1.618-4.886-3.6,2.188-3.6,4.886-3.6S366.99,52.878,366.99,54.867Z" fill="#1e1e1c"/><path d="M383.426,51.269c0,1.986-2.185,3.6-4.892,3.6s-4.886-1.612-4.886-3.6,2.188-3.6,4.886-3.6S383.426,49.28,383.426,51.269Z" fill="#1e1e1c"/><rect x="364.561" y="37.116" width="2.495" height="17.751" fill="#1e1e1c"/><rect x="380.96" y="33.518" width="2.495" height="17.751" fill="#1e1e1c"/><rect x="365.808" y="34.545" width="16.399" height="5.303" fill="#1e1e1c"/><path d="M383.455,41.1H364.561V33.3h18.894Zm-16.4-2.5h13.9V35.793h-13.9Z" fill="#1e1e1c"/><path d="M39.747,55.361q0-4.269-1.1-6.047a4.071,4.071,0,0,0-3.765-1.778,17.062,17.062,0,0,0-1.719.089c-.593.058-1.167.129-1.719.207V71.9H22.614V41.785q1.125-.3,2.638-.623t3.2-.593q1.689-.267,3.468-.415t3.5-.147a14.732,14.732,0,0,1,5.484.859,12.409,12.409,0,0,1,3.468,2.045,16.508,16.508,0,0,1,8.893-2.9A15.571,15.571,0,0,1,59.4,41.044a9.263,9.263,0,0,1,3.824,2.934,11.111,11.111,0,0,1,1.956,4.506,29.057,29.057,0,0,1,.534,5.81V71.9H56.881V55.361q0-4.269-1.1-6.047a4.071,4.071,0,0,0-3.765-1.778,7.945,7.945,0,0,0-1.986.355,7.746,7.746,0,0,0-2.1.89,13.5,13.5,0,0,1,.533,2.875q.118,1.512.119,3.232V71.9H39.747Z" fill="#1e1e1c"/><path d="M100.338,70.835a49.142,49.142,0,0,1-5.81,1.216,47.812,47.812,0,0,1-7.47.563,17.743,17.743,0,0,1-6.611-1.067,10.038,10.038,0,0,1-4.18-2.994,11.691,11.691,0,0,1-2.193-4.595,24.7,24.7,0,0,1-.652-5.869V40.718h8.833v16.3q0,4.269,1.127,6.166t4.209,1.9q.948,0,2.016-.089t1.9-.207V40.718h8.834Z" fill="#1e1e1c"/><path d="M117.589,65.558a8.812,8.812,0,0,0,3.439-.474,1.831,1.831,0,0,0,1.008-1.838,2.254,2.254,0,0,0-1.3-1.867,24.891,24.891,0,0,0-3.972-1.808A40.342,40.342,0,0,1,113,57.97a11.048,11.048,0,0,1-2.875-1.986,8.02,8.02,0,0,1-1.838-2.757,10.177,10.177,0,0,1-.653-3.853,8.334,8.334,0,0,1,3.261-6.937q3.26-2.548,8.952-2.549a28.794,28.794,0,0,1,5.455.5,25.652,25.652,0,0,1,4.15,1.1l-1.542,6.878a32.492,32.492,0,0,0-3.349-.949A18.252,18.252,0,0,0,120.5,47q-4.152,0-4.15,2.312a2.4,2.4,0,0,0,.177.949,2.025,2.025,0,0,0,.712.8,9.953,9.953,0,0,0,1.452.834q.919.449,2.342.986a36.087,36.087,0,0,1,4.8,2.122,11.444,11.444,0,0,1,2.994,2.259,6.988,6.988,0,0,1,1.542,2.691,11.962,11.962,0,0,1,.444,3.431,7.9,7.9,0,0,1-3.468,6.98q-3.468,2.365-9.812,2.366a28.162,28.162,0,0,1-6.907-.712,27.794,27.794,0,0,1-3.824-1.185l1.483-7.174a28.733,28.733,0,0,0,4.624,1.394A22.54,22.54,0,0,0,117.589,65.558Z" fill="#1e1e1c"/><path d="M147.054,31.706a4.848,4.848,0,0,1-1.571,3.824,5.622,5.622,0,0,1-7.411,0,4.844,4.844,0,0,1-1.571-3.824,4.844,4.844,0,0,1,1.571-3.823,5.622,5.622,0,0,1,7.411,0A4.847,4.847,0,0,1,147.054,31.706Zm-.83,40.2H137.39V40.718h8.834Z" fill="#1e1e1c"/><path d="M153.041,56.31a18.371,18.371,0,0,1,1.1-6.374,14.914,14.914,0,0,1,8.211-8.744,16.634,16.634,0,0,1,6.758-1.3,21.847,21.847,0,0,1,4.565.444,22.3,22.3,0,0,1,4.032,1.275l-1.838,7.055a22.505,22.505,0,0,0-2.727-.83,14.273,14.273,0,0,0-3.32-.356,7,7,0,0,0-5.84,2.431,10.008,10.008,0,0,0-1.927,6.4,10.358,10.358,0,0,0,1.809,6.522q1.808,2.312,6.314,2.311a21.6,21.6,0,0,0,3.438-.3,14.605,14.605,0,0,0,3.38-.95l1.244,7.234a20.781,20.781,0,0,1-3.853,1.126,25.447,25.447,0,0,1-5.1.474,19.2,19.2,0,0,1-7.351-1.274,13.831,13.831,0,0,1-5.069-3.469A13.5,13.5,0,0,1,153.96,62.8,22.016,22.016,0,0,1,153.041,56.31Z" fill="#1e1e1c"/><path d="M192.822,68.049a13.671,13.671,0,0,0,2.519-.238,7.553,7.553,0,0,0,2.253-.77,4.523,4.523,0,0,0,1.6-1.453,3.975,3.975,0,0,0,.622-2.282,3.925,3.925,0,0,0-.3-1.572,3.788,3.788,0,0,0-.948-1.274,9.478,9.478,0,0,0-1.631-1.156q-.978-.562-2.342-1.275-1.363-.651-2.49-1.3a9.019,9.019,0,0,1-1.986-1.542,6.25,6.25,0,0,1-1.334-2.1,8.085,8.085,0,0,1-.474-2.935,8.881,8.881,0,0,1,3.2-7.144q3.2-2.7,9.309-2.7a20.01,20.01,0,0,1,5.009.563,13.817,13.817,0,0,1,2.994,1.037l-2.075,4.506a13.29,13.29,0,0,0-2.668-1.008,14.675,14.675,0,0,0-4.09-.533,10.9,10.9,0,0,0-2.253.237,6.425,6.425,0,0,0-2.046.8,4.425,4.425,0,0,0-1.482,1.483,4.171,4.171,0,0,0-.563,2.222,3.286,3.286,0,0,0,1.245,2.639,16.759,16.759,0,0,0,3.735,2.164,27.73,27.73,0,0,1,2.757,1.452,9.918,9.918,0,0,1,2.075,1.66,6.181,6.181,0,0,1,1.3,2.164,8.847,8.847,0,0,1,.444,2.964,9.7,9.7,0,0,1-.948,4.388,8.648,8.648,0,0,1-2.638,3.141,11.869,11.869,0,0,1-4,1.869,19.351,19.351,0,0,1-5.04.622,22.684,22.684,0,0,1-3.646-.267,24.276,24.276,0,0,1-2.845-.622,13.366,13.366,0,0,1-2.016-.741q-.8-.386-1.215-.623L185,65.914q.414.238,1.156.593a16.775,16.775,0,0,0,1.779.712,16.454,16.454,0,0,0,2.282.592A13.841,13.841,0,0,0,192.822,68.049Z" fill="#1e1e1c"/><path d="M221.575,72.673a14.282,14.282,0,0,1-5.217-.86,10.333,10.333,0,0,1-3.676-2.371,9.476,9.476,0,0,1-2.193-3.528,12.708,12.708,0,0,1-.712-4.269,25.88,25.88,0,0,1,1.245-8,21.944,21.944,0,0,1,3.558-6.818,17.265,17.265,0,0,1,5.631-4.713,15.91,15.91,0,0,1,7.53-1.749,12.5,12.5,0,0,1,4.179.622,7.733,7.733,0,0,1,2.846,1.69,6.784,6.784,0,0,1,1.63,2.461,7.964,7.964,0,0,1,.534,2.875,10.067,10.067,0,0,1-1.008,4.713,9.863,9.863,0,0,1-2.668,3.231,12.261,12.261,0,0,1-3.883,2.016,34.424,34.424,0,0,1-4.624,1.127,44.33,44.33,0,0,1-4.861.563q-2.461.149-4.655.267a6.585,6.585,0,0,0-.059.77v.475a9.936,9.936,0,0,0,.326,2.579,4.82,4.82,0,0,0,1.216,2.134,6.067,6.067,0,0,0,2.46,1.452,13.1,13.1,0,0,0,4.12.534,13.746,13.746,0,0,0,2.342-.208,19.619,19.619,0,0,0,2.312-.533q1.1-.326,1.957-.653a4.415,4.415,0,0,0,1.215-.622l.475,4.684a19.466,19.466,0,0,1-3.825,1.392A23,23,0,0,1,221.575,72.673Zm-5.632-16.956q3.438-.117,6.284-.445a20.014,20.014,0,0,0,4.921-1.126,7.827,7.827,0,0,0,3.231-2.164,5.309,5.309,0,0,0,1.156-3.557,3.414,3.414,0,0,0-.207-1.126,2.923,2.923,0,0,0-.712-1.1,3.786,3.786,0,0,0-1.393-.83,6.432,6.432,0,0,0-2.194-.326,8.687,8.687,0,0,0-3.883.888,11.786,11.786,0,0,0-3.231,2.342,14.255,14.255,0,0,0-2.431,3.38A18.324,18.324,0,0,0,215.943,55.717Z" fill="#1e1e1c"/><path d="M258.984,72.258q-.3-.653-.593-1.452a11.063,11.063,0,0,1-.475-1.69,17.775,17.775,0,0,1-3.5,2.371,11.227,11.227,0,0,1-5.4,1.186,10.975,10.975,0,0,1-4.476-.83,8,8,0,0,1-3.053-2.312,9.706,9.706,0,0,1-1.749-3.5,16.469,16.469,0,0,1-.563-4.446,23.265,23.265,0,0,1,1.334-7.767,19.839,19.839,0,0,1,4-6.759,20.052,20.052,0,0,1,6.7-4.8,22.537,22.537,0,0,1,9.426-1.838,23.107,23.107,0,0,1,3.736.355,11.849,11.849,0,0,1,3.675,1.186l-4.565,18.616q-.3,1.363-.5,2.608a15.9,15.9,0,0,0-.207,2.609,16.42,16.42,0,0,0,.237,2.757,16.761,16.761,0,0,0,.83,2.994Zm-8.834-4.269a8.137,8.137,0,0,0,4.268-1.067,13.689,13.689,0,0,0,3.083-2.49q.059-1.007.208-2.1t.385-2.224l3.557-14.7a3.839,3.839,0,0,0-.978-.178q-.683-.059-1.215-.059a13.969,13.969,0,0,0-6.107,1.3,14.564,14.564,0,0,0-4.653,3.467,15.3,15.3,0,0,0-2.965,5.04,17.587,17.587,0,0,0-1.037,6.018,13.688,13.688,0,0,0,.237,2.52,6.275,6.275,0,0,0,.859,2.252,4.956,4.956,0,0,0,1.661,1.6A5.184,5.184,0,0,0,250.15,67.989Z" fill="#1e1e1c"/><path d="M286.61,40.422q.712,0,1.6.058a17.258,17.258,0,0,1,1.749.208c.573.1,1.1.2,1.571.3a4.738,4.738,0,0,1,1.068.326l-1.6,4.8a12.454,12.454,0,0,0-2.727-.712,19.639,19.639,0,0,0-2.964-.237,16.891,16.891,0,0,0-2.46.178,12.483,12.483,0,0,0-2.105.474L274.457,71.9h-5.514l7.115-29.642a34.167,34.167,0,0,1,5.1-1.334A29.951,29.951,0,0,1,286.61,40.422Z" fill="#1e1e1c"/><path d="M290.939,60.875a24.949,24.949,0,0,1,1.215-7.767,19.661,19.661,0,0,1,3.587-6.58A17.226,17.226,0,0,1,309.436,40.3a25.16,25.16,0,0,1,3.735.266,11.793,11.793,0,0,1,3.379,1.038l-2.075,4.624a8.441,8.441,0,0,0-2.223-.83,15,15,0,0,0-3.29-.3,10.619,10.619,0,0,0-5.217,1.275,12.688,12.688,0,0,0-3.943,3.379,15.278,15.278,0,0,0-2.49,4.861,19.111,19.111,0,0,0-.859,5.722,12.465,12.465,0,0,0,.325,2.9,6.018,6.018,0,0,0,1.156,2.4,5.551,5.551,0,0,0,2.224,1.631,9.045,9.045,0,0,0,3.527.593,12.926,12.926,0,0,0,2.253-.208,19.944,19.944,0,0,0,2.194-.5,18.883,18.883,0,0,0,1.808-.622,4.543,4.543,0,0,0,1.156-.623l.474,4.684a14.245,14.245,0,0,1-3.5,1.393,19.573,19.573,0,0,1-5.395.682,13.742,13.742,0,0,1-5.04-.86,9.94,9.94,0,0,1-3.676-2.43,10.5,10.5,0,0,1-2.253-3.736A14.124,14.124,0,0,1,290.939,60.875Z" fill="#1e1e1c"/><path d="M315.067,71.9l10.849-45.057,5.751-.949-3.794,15.592a21.36,21.36,0,0,1,2.875-.77,15.8,15.8,0,0,1,3.054-.3,12.823,12.823,0,0,1,4.594.74,8.193,8.193,0,0,1,3.113,2.017,7.91,7.91,0,0,1,1.749,3.082,13.221,13.221,0,0,1,.563,3.943,24.757,24.757,0,0,1-.83,5.928L339.2,71.9h-5.514l3.5-14.584q.414-1.659.8-3.38a14.906,14.906,0,0,0,.386-3.26,5.972,5.972,0,0,0-1.305-3.943q-1.305-1.57-4.861-1.571a16.866,16.866,0,0,0-2.935.267,10.1,10.1,0,0,0-2.52.741L320.581,71.9Z" fill="#1e1e1c"/><g id="_-Symbols" data-name="💎-Symbols"><g id="Logo"><g id="Bildmarke"><path id="Combined-Shape" d="M465.8,67.959h-2.148v3.225h-2.154V67.959h-3.225V65.811h3.225V63.658h-3.225V61.51h3.225V59.362H438.919V57.208h22.574V55.06H438.919V52.912h22.574V50.758H438.919V48.61h22.574V46.462H438.919V44.309h22.574V42.16H438.919V40.012h22.574V36.788h2.154v3.224H465.8V36.788h2.148v3.224h3.225V42.16h-3.225v2.149h3.225v2.153h-3.225V48.61h22.573v2.148H467.943v2.154h22.573V55.06H467.943v2.148h22.573v2.154H467.943V61.51h22.573v2.148H467.943v2.153h22.573v2.148H467.943v3.225H465.8Zm0-2.148V63.658h-2.148v2.153Zm0-4.3V59.362h-2.148V61.51Zm0-4.3V55.06h-2.148v2.148Zm0-4.3V50.758h-2.148v2.154Zm0-4.3V46.462h-2.148V48.61Zm0-4.3V42.16h-2.148v2.149Z" fill="#1e1e1c" fill-rule="evenodd"/><path id="Combined-Shape-2" data-name="Combined-Shape" d="M470.629,46.462h-9.136V37.326a9.136,9.136,0,1,1,9.136,9.136Zm0-2.153a6.986,6.986,0,1,0-6.982-6.983v6.983ZM458.806,79.782a9.136,9.136,0,1,1,0-18.272h9.137v9.136A9.133,9.133,0,0,1,458.806,79.782Zm0-2.148a6.986,6.986,0,0,0,6.989-6.988V63.658h-6.989a6.988,6.988,0,0,0,0,13.976Z" fill="#1e1e1c" fill-rule="evenodd"/><path id="Combined-Shape-3" data-name="Combined-Shape" d="M470.629,42.16H465.8V37.326a4.837,4.837,0,1,1,4.834,4.834Zm0-2.148a2.689,2.689,0,1,0-2.686-2.686v2.686ZM458.806,75.486a4.838,4.838,0,0,1,0-9.675h4.841v4.835A4.842,4.842,0,0,1,458.806,75.486Zm0-2.154a2.684,2.684,0,0,0,2.687-2.686V67.959h-2.687a2.687,2.687,0,0,0,0,5.373Z" fill="#1e1e1c" fill-rule="evenodd"/></g><g id="Wortmarke"><path id="Hochschule-für-Musik" d="M510.323,50.758V46.109h-3.7v4.649h-1.986V40.36h1.986v4.169h3.7V40.36h2v10.4Zm9.119-8.186a3.478,3.478,0,0,1,2.75,1.123,4.513,4.513,0,0,1,.984,3.08,5.1,5.1,0,0,1-.452,2.2,3.409,3.409,0,0,1-1.3,1.482,3.671,3.671,0,0,1-2,.527,3.49,3.49,0,0,1-2.756-1.117,4.509,4.509,0,0,1-.99-3.092,4.977,4.977,0,0,1,.452-2.2,3.384,3.384,0,0,1,1.3-1.476A3.772,3.772,0,0,1,519.442,42.572Zm0,1.464c-1.153,0-1.732.909-1.732,2.739a4,4,0,0,0,.429,2.084,1.434,1.434,0,0,0,1.291.666,1.416,1.416,0,0,0,1.285-.677,3.968,3.968,0,0,0,.429-2.073,3.939,3.939,0,0,0-.429-2.073A1.411,1.411,0,0,0,519.442,44.036Zm10.247-1.464a4.088,4.088,0,0,1,1.407.225,3.8,3.8,0,0,1,1.187.712l-.863,1.158a3.015,3.015,0,0,0-.781-.44,2.531,2.531,0,0,0-.828-.133q-1.789,0-1.789,2.722a3.309,3.309,0,0,0,.469,2,1.557,1.557,0,0,0,1.32.608,2.225,2.225,0,0,0,.776-.134,4.927,4.927,0,0,0,.833-.439l.863,1.221a3.964,3.964,0,0,1-2.576.915,3.787,3.787,0,0,1-1.986-.5,3.288,3.288,0,0,1-1.3-1.436,4.979,4.979,0,0,1-.452-2.194,5.225,5.225,0,0,1,.452-2.235,3.443,3.443,0,0,1,1.3-1.505A3.58,3.58,0,0,1,529.689,42.572Zm9.738,0a2.15,2.15,0,0,1,1.656.648,2.52,2.52,0,0,1,.6,1.778v5.76h-1.928V45.3a1.515,1.515,0,0,0-.249-1,.9.9,0,0,0-.729-.284,1.455,1.455,0,0,0-.886.307,3.465,3.465,0,0,0-.781.88v5.552h-1.928V39.625l1.928-.2v4.319A2.9,2.9,0,0,1,539.427,42.572Zm8.517,0a4.477,4.477,0,0,1,2.831.949l-.753,1.129a3.772,3.772,0,0,0-2-.648,1.553,1.553,0,0,0-.886.22.674.674,0,0,0-.318.579.719.719,0,0,0,.139.451,1.263,1.263,0,0,0,.486.342,8.993,8.993,0,0,0,1.048.353,4.519,4.519,0,0,1,1.917.915,2.058,2.058,0,0,1,.625,1.6,2.136,2.136,0,0,1-.961,1.858,4.1,4.1,0,0,1-2.391.666,4.984,4.984,0,0,1-1.784-.3,4.262,4.262,0,0,1-1.395-.828l.961-1.083a3.582,3.582,0,0,0,2.171.788,1.81,1.81,0,0,0,1.031-.261.8.8,0,0,0,.382-.706.919.919,0,0,0-.145-.55,1.134,1.134,0,0,0-.509-.359,10.878,10.878,0,0,0-1.152-.382,3.922,3.922,0,0,1-1.789-.927,2.053,2.053,0,0,1-.573-1.482,1.976,1.976,0,0,1,.382-1.192,2.608,2.608,0,0,1,1.088-.828A4.051,4.051,0,0,1,547.944,42.572Zm9.362,0a4.137,4.137,0,0,1,1.407.225,3.717,3.717,0,0,1,1.181.712l-.857,1.158a3.2,3.2,0,0,0-.781-.44,2.535,2.535,0,0,0-.828-.133q-1.789,0-1.789,2.722a3.357,3.357,0,0,0,.463,2,1.574,1.574,0,0,0,1.326.608,2.244,2.244,0,0,0,.775-.134,4.894,4.894,0,0,0,.834-.439l.857,1.221a3.951,3.951,0,0,1-2.571.915,3.792,3.792,0,0,1-1.986-.5,3.292,3.292,0,0,1-1.3-1.436,4.965,4.965,0,0,1-.452-2.194,5.21,5.21,0,0,1,.452-2.235,3.447,3.447,0,0,1,1.3-1.505A3.572,3.572,0,0,1,557.306,42.572Zm9.738,0a2.16,2.16,0,0,1,1.656.648A2.52,2.52,0,0,1,569.3,45v5.76h-1.928V45.3a1.515,1.515,0,0,0-.249-1,.9.9,0,0,0-.729-.284,1.453,1.453,0,0,0-.886.307,3.486,3.486,0,0,0-.782.88v5.552H562.8V39.625l1.928-.2v4.319A2.908,2.908,0,0,1,567.044,42.572Zm12.372,8.186h-1.673l-.1-1.112a2.941,2.941,0,0,1-1.03,1.008,2.874,2.874,0,0,1-1.407.33,2.08,2.08,0,0,1-1.65-.654,2.623,2.623,0,0,1-.579-1.812V42.8H574.9V48.28a1.531,1.531,0,0,0,.231.961.91.91,0,0,0,.747.284,1.952,1.952,0,0,0,1.61-1.129V42.8h1.927Zm5.7.226a1.909,1.909,0,0,1-1.442-.533,2.084,2.084,0,0,1-.516-1.511V39.607l1.923-.208v9.478c0,.376.15.561.451.561a1.55,1.55,0,0,0,.452-.075l.411,1.355A3.116,3.116,0,0,1,585.12,50.984Zm10.519-4.394c0,.1-.017.364-.046.787h-5a2.5,2.5,0,0,0,.6,1.65,1.847,1.847,0,0,0,1.355.5,2.8,2.8,0,0,0,.99-.174,4.518,4.518,0,0,0,1-.532l.8,1.1a4.6,4.6,0,0,1-2.953,1.065,3.556,3.556,0,0,1-2.807-1.112,4.428,4.428,0,0,1-.985-3.039,5.4,5.4,0,0,1,.423-2.189,3.5,3.5,0,0,1,1.216-1.522,3.273,3.273,0,0,1,1.9-.55,3.232,3.232,0,0,1,2.588,1.065A4.359,4.359,0,0,1,595.639,46.59Zm-1.916-.556q0-2.092-1.546-2.09a1.309,1.309,0,0,0-1.106.521,3.039,3.039,0,0,0-.475,1.661h3.127Zm13.634-5.176a1.067,1.067,0,0,0-.816.266,1.169,1.169,0,0,0-.249.834V42.8H608.2l-.209,1.39h-1.7v6.571h-1.928V44.187h-1.291V42.8h1.291v-.868a2.416,2.416,0,0,1,.73-1.83,2.86,2.86,0,0,1,2.073-.7,4.84,4.84,0,0,1,2.061.469l-.556,1.291A3.061,3.061,0,0,0,607.357,40.858Zm9.878,9.9h-1.674l-.1-1.112a2.941,2.941,0,0,1-1.03,1.008,2.874,2.874,0,0,1-1.407.33,2.08,2.08,0,0,1-1.65-.654,2.623,2.623,0,0,1-.579-1.812V42.8h1.928V48.28a1.531,1.531,0,0,0,.231.961.911.911,0,0,0,.747.284,1.952,1.952,0,0,0,1.61-1.129V42.8h1.928Zm-4.892-11.811a.99.99,0,0,1,.735.3,1.04,1.04,0,0,1-.735,1.778,1.077,1.077,0,0,1-.765-.3,1.042,1.042,0,0,1,0-1.477A1.056,1.056,0,0,1,612.343,38.947Zm3.323,0a1.007,1.007,0,0,1,.752.3,1.056,1.056,0,0,1,0,1.477,1.076,1.076,0,0,1-1.493,0,1.028,1.028,0,0,1,0-1.477A1.009,1.009,0,0,1,615.666,38.947Zm9.315,3.642a2.859,2.859,0,0,1,.8.1l-.33,1.864a3.07,3.07,0,0,0-.706-.087,1.343,1.343,0,0,0-1.112.5,3.8,3.8,0,0,0-.648,1.54v4.244h-1.928V42.8h1.673l.179,1.569a2.862,2.862,0,0,1,.828-1.32A1.864,1.864,0,0,1,624.981,42.589Zm18.7,8.169h-1.945l-.267-4.348c-.092-1.552-.139-2.791-.139-3.7v-.545l-1.893,7.463h-1.881l-2.015-7.474c.017.66.029,1.164.029,1.5,0,.909-.029,1.847-.093,2.814l-.255,4.284h-1.928l.828-10.4h2.559l1.853,7.283,1.743-7.283h2.588Zm9.721,0h-1.673l-.1-1.112a2.9,2.9,0,0,1-1.031,1.008,2.842,2.842,0,0,1-1.407.33,2.08,2.08,0,0,1-1.65-.654,2.652,2.652,0,0,1-.579-1.812V42.8h1.928V48.28a1.564,1.564,0,0,0,.232.961.908.908,0,0,0,.746.284,1.943,1.943,0,0,0,1.61-1.129V42.8H653.4Zm6.334-8.186a4.479,4.479,0,0,1,2.831.949l-.753,1.129a3.772,3.772,0,0,0-2-.648,1.54,1.54,0,0,0-.886.22.661.661,0,0,0-.318.579.719.719,0,0,0,.139.451,1.217,1.217,0,0,0,.486.342,8.927,8.927,0,0,0,1.048.353,4.514,4.514,0,0,1,1.916.915,2.059,2.059,0,0,1,.626,1.6,2.136,2.136,0,0,1-.961,1.858,4.1,4.1,0,0,1-2.4.666,5.03,5.03,0,0,1-1.784-.3,4.3,4.3,0,0,1-1.389-.828l.961-1.083a3.58,3.58,0,0,0,2.171.788,1.81,1.81,0,0,0,1.031-.261.8.8,0,0,0,.382-.706.919.919,0,0,0-.145-.55,1.176,1.176,0,0,0-.509-.359,11.419,11.419,0,0,0-1.153-.382,3.933,3.933,0,0,1-1.789-.927,2.057,2.057,0,0,1-.573-1.482,1.983,1.983,0,0,1,.382-1.192,2.6,2.6,0,0,1,1.083-.828A4.1,4.1,0,0,1,659.731,42.572Zm8.082.225v7.961h-1.928V42.8Zm-.978-4.029a1.191,1.191,0,0,1,.88.336,1.135,1.135,0,0,1,.341.833,1.107,1.107,0,0,1-.341.828,1.191,1.191,0,0,1-.88.336,1.159,1.159,0,0,1-.863-.336,1.1,1.1,0,0,1-.342-.828,1.132,1.132,0,0,1,.342-.833A1.159,1.159,0,0,1,666.835,38.768Zm6.727.631V50.758h-1.928V39.607Zm4.771,3.4-2.652,3.509,2.907,4.452h-2.212l-2.738-4.348L676.3,42.8ZM506.623,58.638v10.4h-1.986v-10.4Zm5.836,0-3.595,4.707,3.885,5.691h-2.363l-3.676-5.552,3.6-4.846Zm8.609,8.291a1.255,1.255,0,0,0,.145.683.919.919,0,0,0,.458.341l-.406,1.274a2.342,2.342,0,0,1-1.106-.33,1.672,1.672,0,0,1-.654-.828,2.551,2.551,0,0,1-1.019.9,3.078,3.078,0,0,1-1.36.3,2.576,2.576,0,0,1-1.882-.678,2.363,2.363,0,0,1-.689-1.777,2.3,2.3,0,0,1,.938-1.98,4.505,4.505,0,0,1,2.686-.683h1v-.452a1.377,1.377,0,0,0-.359-1.077,1.718,1.718,0,0,0-1.134-.307,6.655,6.655,0,0,0-2.108.423l-.451-1.314a8.153,8.153,0,0,1,2.889-.568q3.056,0,3.056,2.739Zm-3.433.932a1.71,1.71,0,0,0,1.54-.979V65.273h-.8q-1.868,0-1.87,1.384a1.263,1.263,0,0,0,.29.885A1.059,1.059,0,0,0,517.635,67.861Zm11.2-7a2.885,2.885,0,0,1,.8.1l-.33,1.871a2.736,2.736,0,0,0-.706-.093,1.359,1.359,0,0,0-1.117.5,3.87,3.87,0,0,0-.643,1.546v4.244h-1.928V61.075h1.668l.185,1.563a2.8,2.8,0,0,1,.828-1.314A1.867,1.867,0,0,1,528.832,60.861Zm5.39,8.4a1.892,1.892,0,0,1-1.435-.538,2.064,2.064,0,0,1-.521-1.512V57.885l1.928-.214v9.484q0,.555.451.555a1.373,1.373,0,0,0,.452-.075l.4,1.355A3.122,3.122,0,0,1,534.222,69.262Zm6.578-8.413a4.47,4.47,0,0,1,2.825.944l-.753,1.129a3.743,3.743,0,0,0-2-.642,1.576,1.576,0,0,0-.892.214.677.677,0,0,0-.312.579.73.73,0,0,0,.133.451,1.223,1.223,0,0,0,.492.342,8.757,8.757,0,0,0,1.042.353,4.689,4.689,0,0,1,1.922.915,2.058,2.058,0,0,1,.625,1.6,2.138,2.138,0,0,1-.967,1.858,4.083,4.083,0,0,1-2.391.672,5.142,5.142,0,0,1-1.783-.3,4.382,4.382,0,0,1-1.389-.828l.961-1.083a3.545,3.545,0,0,0,2.165.782,1.845,1.845,0,0,0,1.031-.255.822.822,0,0,0,.388-.712.95.95,0,0,0-.145-.544,1.151,1.151,0,0,0-.515-.365,11.019,11.019,0,0,0-1.147-.382,3.878,3.878,0,0,1-1.795-.926,2.051,2.051,0,0,1-.573-1.483,1.964,1.964,0,0,1,.388-1.186,2.469,2.469,0,0,1,1.083-.828A4,4,0,0,1,540.8,60.849Zm10.079.012a2.885,2.885,0,0,1,.8.1l-.33,1.871a2.736,2.736,0,0,0-.706-.093,1.359,1.359,0,0,0-1.117.5,3.87,3.87,0,0,0-.643,1.546v4.244h-1.928V61.075h1.668l.185,1.563a2.749,2.749,0,0,1,.828-1.314A1.867,1.867,0,0,1,550.879,60.861Zm9.872,8.175h-1.668l-.1-1.117a3,3,0,0,1-1.03,1.007,2.812,2.812,0,0,1-1.407.336,2.1,2.1,0,0,1-1.65-.654,2.646,2.646,0,0,1-.579-1.818V61.075h1.928v5.477a1.531,1.531,0,0,0,.231.961.911.911,0,0,0,.747.29,1.952,1.952,0,0,0,1.61-1.129v-5.6h1.922Zm8.07-8.187a2.168,2.168,0,0,1,1.656.643,2.519,2.519,0,0,1,.6,1.777v5.767h-1.928V63.571a1.545,1.545,0,0,0-.248-.99.922.922,0,0,0-.73-.29,1.456,1.456,0,0,0-.891.307,3.751,3.751,0,0,0-.782.886v5.552h-1.922V57.9l1.922-.2v4.319A2.911,2.911,0,0,1,568.821,60.849Zm12.535,4.019c0,.1-.017.359-.046.781h-5a2.516,2.516,0,0,0,.6,1.656,1.867,1.867,0,0,0,1.354.5,2.831,2.831,0,0,0,1-.174,4.717,4.717,0,0,0,.99-.538l.8,1.1a4.591,4.591,0,0,1-2.953,1.071,3.532,3.532,0,0,1-2.8-1.117,4.408,4.408,0,0,1-.99-3.04,5.506,5.506,0,0,1,.423-2.189,3.469,3.469,0,0,1,1.221-1.516,3.624,3.624,0,0,1,4.482.509A4.367,4.367,0,0,1,581.356,64.868Zm-1.91-.556c0-1.4-.522-2.1-1.552-2.1a1.32,1.32,0,0,0-1.106.521,3.1,3.1,0,0,0-.475,1.662h3.133Z" fill="#1e1e1c" fill-rule="evenodd"/></g></g></g></svg>