<svg id="Ebene_1" data-name="Ebene 1" xmlns="http://www.w3.org/2000/svg" viewBox="0 0 142.362 47.682"><path d="M15.8,29.685h1.3v7.167H15.8V33.677H12.69v3.175h-1.3V29.685h1.3v2.864H15.8Z" fill="#1e1e1c"/><path d="M21.178,28.253a3.646,3.646,0,0,1,.82.083,4.854,4.854,0,0,1,.532.15l-.255,1.108a2.123,2.123,0,0,0-.438-.144A2.476,2.476,0,0,0,21.3,29.4a1.39,1.39,0,0,0-.543.094.884.884,0,0,0-.354.26,1.006,1.006,0,0,0-.189.405,2.274,2.274,0,0,0-.054.515v.388h2.105v1.119H20.159v4.676H18.818v-6.2a2.493,2.493,0,0,1,.587-1.757A2.294,2.294,0,0,1,21.178,28.253Z" fill="#1e1e1c"/><path d="M24.822,29.685q.228.393.507.962t.569,1.194q.288.626.574,1.273c.19.43.363.829.522,1.194.159-.365.331-.764.517-1.194s.376-.856.569-1.273.382-.815.569-1.194.354-.7.507-.962H30.33q.095.786.178,1.67t.154,1.81q.068.927.126,1.862t.1,1.825H29.605c-.027-.834-.062-1.692-.1-2.575s-.1-1.738-.173-2.565c-.077.158-.166.348-.27.569s-.213.46-.33.718-.236.527-.357.8l-.352.8c-.113.258-.219.5-.315.723l-.249.575h-.972q-.1-.239-.248-.579c-.1-.228-.2-.471-.316-.73l-.351-.8c-.12-.275-.239-.541-.357-.8s-.227-.495-.331-.718-.193-.412-.268-.564q-.117,1.241-.175,2.565t-.1,2.575H23.059q.042-.889.1-1.841t.127-1.888q.067-.936.152-1.814t.179-1.624Z" fill="#1e1e1c"/><path d="M39.915,36.852q-.288-.442-.665-.931c-.251-.325-.515-.638-.792-.942s-.564-.591-.859-.864a8.066,8.066,0,0,0-.876-.709v3.446H35.328V29.173h1.395v3.169q.366-.366.765-.781t.793-.842c.261-.285.51-.559.748-.826s.45-.506.642-.72h1.673q-.366.42-.775.875t-.843.914q-.432.46-.869.914T38,32.741a10.207,10.207,0,0,1,.947.826q.483.47.948,1.008t.892,1.119q.426.581.781,1.158Z" fill="#1e1e1c"/><path d="M44.4,30.912a3.3,3.3,0,0,1,1.119.166,1.805,1.805,0,0,1,.726.466,1.736,1.736,0,0,1,.387.726,3.533,3.533,0,0,1,.117.936v3.513c-.207.044-.519.1-.936.16a9.407,9.407,0,0,1-1.413.095,4.205,4.205,0,0,1-.953-.1,1.991,1.991,0,0,1-.737-.321,1.516,1.516,0,0,1-.476-.576,1.991,1.991,0,0,1-.172-.876,1.694,1.694,0,0,1,.193-.842,1.586,1.586,0,0,1,.527-.559,2.257,2.257,0,0,1,.77-.311,4.326,4.326,0,0,1,.914-.094,4.022,4.022,0,0,1,.466.028,4.153,4.153,0,0,1,.521.094V33.2a1.731,1.731,0,0,0-.056-.444.935.935,0,0,0-.193-.371.924.924,0,0,0-.367-.25,1.6,1.6,0,0,0-.57-.088,5,5,0,0,0-.854.067,3.758,3.758,0,0,0-.631.154l-.166-1.086A5.428,5.428,0,0,1,43.361,31,5.837,5.837,0,0,1,44.4,30.912Zm.11,5a4.941,4.941,0,0,0,.943-.067V34.359a2.626,2.626,0,0,0-.322-.067,3.021,3.021,0,0,0-.466-.033,3.122,3.122,0,0,0-.448.033,1.433,1.433,0,0,0-.41.122.744.744,0,0,0-.294.249.848.848,0,0,0,.189,1.064A1.537,1.537,0,0,0,44.513,35.91Z" fill="#1e1e1c"/><path d="M51.694,32.264a4.7,4.7,0,0,0-.46-.116,3.425,3.425,0,0,0-.682-.061,2.742,2.742,0,0,0-.47.044,2.915,2.915,0,0,0-.349.078v4.643H48.392V31.333a7.479,7.479,0,0,1,.97-.271,6.033,6.033,0,0,1,1.29-.127c.089,0,.192.006.31.016s.237.026.355.044.233.041.344.067.2.05.265.072Z" fill="#1e1e1c"/><path d="M54.875,36.962a3.64,3.64,0,0,1-.993-.133,1.54,1.54,0,0,1-.626-.348,1.251,1.251,0,0,1-.327-.566,2.891,2.891,0,0,1-.094-.769V28.475l1.341-.222v6.638a1.817,1.817,0,0,0,.039.409.654.654,0,0,0,.139.283.614.614,0,0,0,.271.177,2.149,2.149,0,0,0,.438.095Z" fill="#1e1e1c"/><path d="M57.6,35.888a1.756,1.756,0,0,0,.775-.128.45.45,0,0,0,.245-.437.569.569,0,0,0-.261-.477,3.846,3.846,0,0,0-.859-.41,6.639,6.639,0,0,1-.669-.282,2.266,2.266,0,0,1-.527-.349,1.443,1.443,0,0,1-.349-.482,1.682,1.682,0,0,1-.127-.693,1.51,1.51,0,0,1,.587-1.258,2.523,2.523,0,0,1,1.595-.46,4.886,4.886,0,0,1,.975.1,4.658,4.658,0,0,1,.7.183l-.243,1.086a3.268,3.268,0,0,0-.565-.183,3.393,3.393,0,0,0-.8-.084,1.392,1.392,0,0,0-.665.139.456.456,0,0,0-.255.427.6.6,0,0,0,.05.254.542.542,0,0,0,.171.206,1.817,1.817,0,0,0,.322.188c.133.062.3.127.487.194a7.519,7.519,0,0,1,.81.349,2.161,2.161,0,0,1,.547.388,1.321,1.321,0,0,1,.317.493,1.978,1.978,0,0,1,.1.665,1.433,1.433,0,0,1-.615,1.258A3.063,3.063,0,0,1,57.589,37a4.8,4.8,0,0,1-1.23-.128,6.02,6.02,0,0,1-.653-.205l.232-1.119a6.029,6.029,0,0,0,.715.233A3.68,3.68,0,0,0,57.6,35.888Z" fill="#1e1e1c"/><path d="M64.514,32.264a4.557,4.557,0,0,0-.46-.116,3.422,3.422,0,0,0-.681-.061,2.745,2.745,0,0,0-.471.044,2.963,2.963,0,0,0-.349.078v4.643H61.212V31.333a7.479,7.479,0,0,1,.97-.271,6.04,6.04,0,0,1,1.29-.127c.089,0,.193.006.311.016s.236.026.354.044.234.041.344.067.2.05.266.072Z" fill="#1e1e1c"/><path d="M70.431,36.674c-.258.068-.595.136-1.008.2a8.085,8.085,0,0,1-1.363.106,3.009,3.009,0,0,1-1.169-.2,1.871,1.871,0,0,1-.753-.553,2.206,2.206,0,0,1-.405-.848,4.517,4.517,0,0,1-.121-1.081V31.057h1.341v3.036a2.437,2.437,0,0,0,.271,1.329,1.06,1.06,0,0,0,.947.4c.162,0,.334-.008.515-.023a2.473,2.473,0,0,0,.4-.056V31.057h1.341Z" fill="#1e1e1c"/><path d="M72.138,36.852V28.475l1.341-.222v2.87a3.653,3.653,0,0,1,.515-.132,3.043,3.043,0,0,1,.582-.056,3.005,3.005,0,0,1,1.158.193,1.825,1.825,0,0,1,.736.543,2.114,2.114,0,0,1,.394.837,4.668,4.668,0,0,1,.116,1.086v3.258H75.639V33.805a4.479,4.479,0,0,0-.06-.793,1.413,1.413,0,0,0-.2-.531.8.8,0,0,0-.371-.3,1.538,1.538,0,0,0-.577-.094,2.766,2.766,0,0,0-.543.056,3.591,3.591,0,0,0-.409.1v4.609Z" fill="#1e1e1c"/><path d="M78.266,33.982a3.633,3.633,0,0,1,.227-1.341,2.8,2.8,0,0,1,.6-.958,2.491,2.491,0,0,1,.864-.576,2.665,2.665,0,0,1,1-.2,2.391,2.391,0,0,1,1.868.743,3.218,3.218,0,0,1,.67,2.216c0,.074,0,.158,0,.249s-.01.176-.017.249H79.651a1.531,1.531,0,0,0,.493,1.082,1.879,1.879,0,0,0,1.269.381,4.116,4.116,0,0,0,.892-.089,3.525,3.525,0,0,0,.637-.188l.178,1.1a2.236,2.236,0,0,1-.306.116,4.131,4.131,0,0,1-.442.11c-.167.033-.346.062-.539.083a4.919,4.919,0,0,1-.586.034,3.569,3.569,0,0,1-1.331-.227,2.48,2.48,0,0,1-.93-.632,2.589,2.589,0,0,1-.543-.953A3.892,3.892,0,0,1,78.266,33.982Zm3.889-.6a1.778,1.778,0,0,0-.077-.525,1.269,1.269,0,0,0-.228-.433,1.081,1.081,0,0,0-.365-.288,1.176,1.176,0,0,0-.516-.105,1.209,1.209,0,0,0-.543.116,1.249,1.249,0,0,0-.393.3,1.407,1.407,0,0,0-.249.433,2.337,2.337,0,0,0-.122.5Z" fill="#1e1e1c"/><path d="M129.72,18.1c0,.669-.739,1.215-1.649,1.215s-1.649-.546-1.649-1.215.738-1.214,1.649-1.214S129.72,17.428,129.72,18.1Z" fill="#1e1e1c"/><path d="M135.265,16.885c0,.67-.737,1.214-1.65,1.214s-1.649-.544-1.649-1.214.738-1.216,1.649-1.216S135.265,16.214,135.265,16.885Z" fill="#1e1e1c"/><rect x="128.901" y="12.11" width="0.842" height="5.988" fill="#1e1e1c"/><rect x="134.433" y="10.896" width="0.842" height="5.988" fill="#1e1e1c"/><rect x="129.322" y="11.243" width="5.532" height="1.789" fill="#1e1e1c"/><path d="M135.275,13.453H128.9V10.822h6.374Zm-5.533-.842h4.691v-.947h-4.691Z" fill="#1e1e1c"/><path d="M16.37,16.787a4.109,4.109,0,0,0-.37-2.04,1.374,1.374,0,0,0-1.27-.6q-.281,0-.58.029c-.2.021-.394.044-.58.07v8.121H10.59V12.207q.38-.1.89-.21t1.08-.2q.57-.089,1.17-.139t1.18-.05a4.945,4.945,0,0,1,1.85.29,4.176,4.176,0,0,1,1.17.689,5.582,5.582,0,0,1,3-.979,5.265,5.265,0,0,1,2.07.349,3.124,3.124,0,0,1,1.29.991,3.742,3.742,0,0,1,.66,1.519,9.812,9.812,0,0,1,.18,1.96v5.941H22.15V16.787a4.109,4.109,0,0,0-.37-2.04,1.374,1.374,0,0,0-1.27-.6,2.68,2.68,0,0,0-.67.12,2.614,2.614,0,0,0-.71.3,4.578,4.578,0,0,1,.18.969c.026.34.04.7.04,1.09v5.741H16.37Z" fill="#1e1e1c"/><path d="M36.81,22.007a16.227,16.227,0,0,1-1.96.41,16.06,16.06,0,0,1-2.519.191,5.964,5.964,0,0,1-2.231-.361,3.384,3.384,0,0,1-1.41-1.009,3.953,3.953,0,0,1-.74-1.55,8.334,8.334,0,0,1-.22-1.981V11.848h2.98v5.5a4.249,4.249,0,0,0,.38,2.079,1.509,1.509,0,0,0,1.42.641q.319,0,.68-.031c.24-.019.453-.043.641-.07V11.848H36.81Z" fill="#1e1e1c"/><path d="M42.63,20.228a2.994,2.994,0,0,0,1.161-.16.619.619,0,0,0,.339-.62.756.756,0,0,0-.439-.63,8.3,8.3,0,0,0-1.341-.611,12.879,12.879,0,0,1-1.269-.54,3.706,3.706,0,0,1-.97-.67,2.678,2.678,0,0,1-.62-.929,3.419,3.419,0,0,1-.221-1.3,2.813,2.813,0,0,1,1.1-2.341,4.791,4.791,0,0,1,3.019-.859,9.618,9.618,0,0,1,1.84.17,8.433,8.433,0,0,1,1.4.37l-.519,2.319a11.213,11.213,0,0,0-1.131-.319,6.09,6.09,0,0,0-1.369-.141q-1.4,0-1.4.78a.81.81,0,0,0,.06.321.685.685,0,0,0,.24.269,3.29,3.29,0,0,0,.49.281c.207.1.47.212.791.333a12.36,12.36,0,0,1,1.62.716,3.907,3.907,0,0,1,1.009.762,2.356,2.356,0,0,1,.521.908,4.031,4.031,0,0,1,.149,1.157,2.663,2.663,0,0,1-1.17,2.355,5.833,5.833,0,0,1-3.309.8,9.509,9.509,0,0,1-2.33-.24,9.316,9.316,0,0,1-1.29-.4l.5-2.42a9.723,9.723,0,0,0,1.559.471A7.613,7.613,0,0,0,42.63,20.228Z" fill="#1e1e1c"/><path d="M52.57,8.808a1.636,1.636,0,0,1-.53,1.29,1.9,1.9,0,0,1-2.5,0,1.633,1.633,0,0,1-.531-1.29,1.633,1.633,0,0,1,.531-1.29,1.894,1.894,0,0,1,2.5,0A1.636,1.636,0,0,1,52.57,8.808Zm-.28,13.56H49.31V11.848h2.98Z" fill="#1e1e1c"/><path d="M54.589,17.108a6.225,6.225,0,0,1,.369-2.151,5.045,5.045,0,0,1,2.771-2.95,5.617,5.617,0,0,1,2.28-.439,7.424,7.424,0,0,1,1.54.149,7.569,7.569,0,0,1,1.36.431l-.62,2.38a7.467,7.467,0,0,0-.92-.281,4.808,4.808,0,0,0-1.12-.12,2.36,2.36,0,0,0-1.97.821,3.37,3.37,0,0,0-.65,2.16,3.5,3.5,0,0,0,.61,2.2,2.558,2.558,0,0,0,2.13.779,7.377,7.377,0,0,0,1.16-.1,4.892,4.892,0,0,0,1.14-.321l.42,2.441a7.156,7.156,0,0,1-1.3.38,8.622,8.622,0,0,1-1.72.16,6.466,6.466,0,0,1-2.48-.431,4.661,4.661,0,0,1-1.71-1.17,4.557,4.557,0,0,1-.98-1.75A7.41,7.41,0,0,1,54.589,17.108Z" fill="#1e1e1c"/><path d="M68.009,21.068a4.655,4.655,0,0,0,.85-.08,2.585,2.585,0,0,0,.761-.26,1.527,1.527,0,0,0,.539-.49,1.343,1.343,0,0,0,.211-.771,1.327,1.327,0,0,0-.1-.529,1.27,1.27,0,0,0-.32-.431,3.119,3.119,0,0,0-.55-.389q-.33-.19-.79-.43c-.307-.147-.587-.293-.84-.441a3.059,3.059,0,0,1-.67-.519,2.113,2.113,0,0,1-.45-.71,2.725,2.725,0,0,1-.16-.99,2.994,2.994,0,0,1,1.08-2.41,4.753,4.753,0,0,1,3.14-.911,6.721,6.721,0,0,1,1.69.191,4.706,4.706,0,0,1,1.01.349l-.7,1.521a4.371,4.371,0,0,0-.9-.341,4.976,4.976,0,0,0-1.38-.18,3.766,3.766,0,0,0-.76.08,2.176,2.176,0,0,0-.69.271,1.485,1.485,0,0,0-.5.5,1.4,1.4,0,0,0-.189.75,1.11,1.11,0,0,0,.419.89,5.674,5.674,0,0,0,1.26.729,9.353,9.353,0,0,1,.93.49,3.314,3.314,0,0,1,.7.561,2.089,2.089,0,0,1,.441.729,3.013,3.013,0,0,1,.149,1,3.274,3.274,0,0,1-.319,1.481,2.922,2.922,0,0,1-.891,1.059,3.968,3.968,0,0,1-1.35.63,6.484,6.484,0,0,1-1.7.21,7.549,7.549,0,0,1-1.23-.09,7.756,7.756,0,0,1-.96-.21,4.458,4.458,0,0,1-.68-.25c-.18-.086-.316-.156-.41-.209l.721-1.52c.092.053.222.119.389.2a5.487,5.487,0,0,0,.6.24,5.556,5.556,0,0,0,.77.2A4.729,4.729,0,0,0,68.009,21.068Z" fill="#1e1e1c"/><path d="M77.708,22.627a4.8,4.8,0,0,1-1.76-.29,3.475,3.475,0,0,1-1.24-.8,3.2,3.2,0,0,1-.74-1.189,4.3,4.3,0,0,1-.24-1.44,8.737,8.737,0,0,1,.42-2.7,7.409,7.409,0,0,1,1.2-2.3,5.817,5.817,0,0,1,1.9-1.59,5.359,5.359,0,0,1,2.54-.59,4.2,4.2,0,0,1,1.41.21,2.6,2.6,0,0,1,.96.569,2.3,2.3,0,0,1,.55.83,2.7,2.7,0,0,1,.18.971,3.4,3.4,0,0,1-.34,1.59,3.339,3.339,0,0,1-.9,1.09,4.141,4.141,0,0,1-1.31.679,11.538,11.538,0,0,1-1.56.38,14.883,14.883,0,0,1-1.64.191q-.831.05-1.57.089a2.068,2.068,0,0,0-.02.26v.16a3.326,3.326,0,0,0,.11.871,1.618,1.618,0,0,0,.41.719,2.041,2.041,0,0,0,.83.49,4.389,4.389,0,0,0,1.39.18,4.665,4.665,0,0,0,.79-.069,6.646,6.646,0,0,0,.78-.181q.37-.11.66-.22a1.47,1.47,0,0,0,.41-.21l.16,1.581a6.6,6.6,0,0,1-1.29.469A7.759,7.759,0,0,1,77.708,22.627Zm-1.9-5.719q1.161-.041,2.12-.151a6.708,6.708,0,0,0,1.66-.38,2.637,2.637,0,0,0,1.09-.729,1.793,1.793,0,0,0,.39-1.2,1.162,1.162,0,0,0-.07-.38.97.97,0,0,0-.24-.37,1.274,1.274,0,0,0-.47-.281,2.176,2.176,0,0,0-.74-.109,2.932,2.932,0,0,0-1.31.3,3.969,3.969,0,0,0-1.09.79,4.775,4.775,0,0,0-.82,1.139A6.162,6.162,0,0,0,75.808,16.908Z" fill="#1e1e1c"/><path d="M90.328,22.488c-.067-.147-.133-.311-.2-.491a3.694,3.694,0,0,1-.16-.57,6,6,0,0,1-1.18.8,3.8,3.8,0,0,1-1.82.4,3.7,3.7,0,0,1-1.51-.279,2.714,2.714,0,0,1-1.03-.78,3.255,3.255,0,0,1-.59-1.181,5.548,5.548,0,0,1-.19-1.5,7.84,7.84,0,0,1,.45-2.619,6.688,6.688,0,0,1,1.35-2.28,6.757,6.757,0,0,1,2.26-1.62,7.591,7.591,0,0,1,3.18-.621,7.692,7.692,0,0,1,1.26.121,3.982,3.982,0,0,1,1.24.4l-1.54,6.279q-.1.462-.17.88a5.321,5.321,0,0,0-.07.881,5.469,5.469,0,0,0,.08.93,5.581,5.581,0,0,0,.28,1.009Zm-2.98-1.441a2.757,2.757,0,0,0,1.44-.359,4.652,4.652,0,0,0,1.04-.84c.013-.227.037-.464.07-.711s.076-.5.13-.75l1.2-4.96a1.3,1.3,0,0,0-.33-.059c-.153-.013-.29-.02-.41-.02a4.717,4.717,0,0,0-2.06.439,4.935,4.935,0,0,0-1.57,1.17,5.159,5.159,0,0,0-1,1.7,5.939,5.939,0,0,0-.35,2.03,4.661,4.661,0,0,0,.08.849,2.108,2.108,0,0,0,.29.76,1.655,1.655,0,0,0,.56.54A1.739,1.739,0,0,0,87.348,21.047Z" fill="#1e1e1c"/><path d="M99.648,11.747c.159,0,.34.007.539.021a5.743,5.743,0,0,1,.591.069c.192.034.37.068.529.1a1.549,1.549,0,0,1,.36.109l-.54,1.62a4.266,4.266,0,0,0-.919-.24,6.62,6.62,0,0,0-1-.079,5.735,5.735,0,0,0-.831.06,4.177,4.177,0,0,0-.71.16l-2.12,8.8h-1.86l2.4-10a11.636,11.636,0,0,1,1.72-.451A10.139,10.139,0,0,1,99.648,11.747Z" fill="#1e1e1c"/><path d="M101.108,18.648a8.422,8.422,0,0,1,.41-2.62,6.636,6.636,0,0,1,1.21-2.22,5.818,5.818,0,0,1,4.62-2.1,8.628,8.628,0,0,1,1.26.09,3.982,3.982,0,0,1,1.14.351l-.7,1.559a2.863,2.863,0,0,0-.75-.28,5.091,5.091,0,0,0-1.11-.1,3.592,3.592,0,0,0-1.76.43A4.272,4.272,0,0,0,104.1,14.9a5.135,5.135,0,0,0-.84,1.639,6.464,6.464,0,0,0-.29,1.93,4.171,4.171,0,0,0,.11.981,2.019,2.019,0,0,0,.39.809,1.887,1.887,0,0,0,.75.551,3.063,3.063,0,0,0,1.19.2,4.36,4.36,0,0,0,.759-.069,7.012,7.012,0,0,0,.741-.17c.226-.067.43-.137.61-.21a1.556,1.556,0,0,0,.39-.21l.16,1.579a4.827,4.827,0,0,1-1.18.471,6.611,6.611,0,0,1-1.82.229,4.62,4.62,0,0,1-1.7-.29,3.36,3.36,0,0,1-1.241-.819,3.548,3.548,0,0,1-.759-1.261A4.768,4.768,0,0,1,101.108,18.648Z" fill="#1e1e1c"/><path d="M109.247,22.368l3.66-15.2,1.94-.319-1.28,5.26a6.99,6.99,0,0,1,.97-.26,5.313,5.313,0,0,1,1.03-.1,4.331,4.331,0,0,1,1.55.25,2.774,2.774,0,0,1,1.05.68,2.673,2.673,0,0,1,.59,1.04,4.481,4.481,0,0,1,.19,1.33,8.325,8.325,0,0,1-.28,2l-1.28,5.321h-1.86l1.181-4.92q.138-.559.269-1.14a5.024,5.024,0,0,0,.13-1.1,2.016,2.016,0,0,0-.44-1.33,2.061,2.061,0,0,0-1.64-.529,5.606,5.606,0,0,0-.99.09,3.351,3.351,0,0,0-.85.25l-2.08,8.68Z" fill="#1e1e1c"/></svg>