<?xml version="1.0" encoding="utf-8"?>
<!-- Generator: Adobe Illustrator 16.0.4, SVG Export Plug-In . SVG Version: 6.00 Build 0)  -->
<!DOCTYPE svg PUBLIC "-//W3C//DTD SVG 1.1//EN" "http://www.w3.org/Graphics/SVG/1.1/DTD/svg11.dtd">
<svg version="1.1" id="Icons" xmlns="http://www.w3.org/2000/svg" xmlns:xlink="http://www.w3.org/1999/xlink" x="0px" y="0px"
	 width="245px" height="245px" viewBox="0 0 245 245" enable-background="new 0 0 245 245" xml:space="preserve">
<symbol  id="artikel" viewBox="-60 -60 120 120">
	<polygon fill="none" points="60,-60 -60,-60 -60,60 60,60 	"/>
	<g>
		<g>
			<g>
				<path fill="#FFFFFF" stroke="#000000" stroke-width="1.53" stroke-miterlimit="10" d="M20.003-17.611l-8.923-8.95l-28.907-0.236
					c-0.837-0.01-1.52,0.664-1.525,1.5l-0.416,50.594c-0.006,0.836,0.665,1.521,1.5,1.525l36.392,0.299
					c0.835,0.008,1.52-0.664,1.525-1.5L20.003-17.611z"/>
			</g>
		</g>
		<path fill="#A6A29C" stroke="#000000" stroke-width="1.53" stroke-miterlimit="10" d="M19.47-17.615l-6.949-0.057
			c-0.836-0.008-1.508-0.691-1.501-1.527l0.056-6.83"/>
		<g>
			<path d="M-4.491,11.16h-5.904l-0.702-1.592c-0.23-0.543-0.346-0.974-0.346-1.326c0-0.469,0.366-0.807,0.744-1.026
				c0.222-0.133,0.816-0.222,1.816-0.288V6.16h-6v0.768c1,0.092,1.136,0.34,1.523,0.746c0.386,0.406,0.884,1.062,1.452,2.335
				l6,13.151h0.234L0.354,9.638c0.575-1.297,1.129-2.021,1.499-2.359c0.279-0.254,0.265-0.31,1.265-0.351V6.16h-8v1h0.084
				c0.648,0,1.104-0.024,1.368,0.155c0.181,0.131,0.271,0.263,0.271,0.509c0,0.147-0.025,0.271-0.074,0.428
				c-0.017,0.074-0.14,0.333-0.37,0.874L-4.491,11.16z M-4.91,12.16l-2.49,5.756l-2.563-5.756H-4.91z"/>
		</g>
		<g>
			
				<line fill="none" stroke="#A6A29C" stroke-width="2" stroke-linecap="round" stroke-linejoin="round" stroke-miterlimit="10" x1="12.118" y1="12.16" x2="5.118" y2="12.16"/>
			
				<line fill="none" stroke="#A6A29C" stroke-width="2" stroke-linecap="round" stroke-linejoin="round" stroke-miterlimit="10" x1="12.118" y1="8.16" x2="5.118" y2="8.16"/>
			
				<line fill="none" stroke="#A6A29C" stroke-width="1.53" stroke-linecap="round" stroke-linejoin="round" stroke-miterlimit="10" x1="11.928" y1="2.949" x2="-13.226" y2="2.744"/>
			
				<line fill="none" stroke="#A6A29C" stroke-width="1.53" stroke-linecap="round" stroke-linejoin="round" stroke-miterlimit="10" x1="11.929" y1="-1.775" x2="-13.226" y2="-1.982"/>
			
				<line fill="none" stroke="#A6A29C" stroke-width="1.53" stroke-linecap="round" stroke-linejoin="round" stroke-miterlimit="10" x1="11.928" y1="-6.502" x2="-13.226" y2="-6.709"/>
			
				<line fill="none" stroke="#A6A29C" stroke-width="1.53" stroke-linecap="round" stroke-linejoin="round" stroke-miterlimit="10" x1="11.929" y1="-11.229" x2="-13.226" y2="-11.436"/>
			
				<line fill="none" stroke="#A6A29C" stroke-width="1.53" stroke-linecap="round" stroke-linejoin="round" stroke-miterlimit="10" x1="11.929" y1="-15.955" x2="-13.226" y2="-16.162"/>
			
				<line fill="none" stroke="#A6A29C" stroke-width="1.53" stroke-linecap="round" stroke-linejoin="round" stroke-miterlimit="10" x1="2.618" y1="-20.684" x2="-13.226" y2="-20.85"/>
		</g>
	</g>
</symbol>
<symbol  id="artikel-e" viewBox="-60 -60 120 120">
	<polygon fill="none" points="60,-60 -60,-60 -60,60 60,60 	"/>
	<g>
		<g>
			<g>
				<path fill="#FFFFFF" stroke="#000000" stroke-width="1.53" stroke-miterlimit="10" d="M19.885-17.771l-8.922-8.95l-28.908-0.236
					c-0.836-0.01-1.52,0.664-1.525,1.5l-0.416,50.594c-0.006,0.836,0.666,1.521,1.5,1.525l36.393,0.299
					c0.834,0.008,1.52-0.664,1.525-1.5L19.885-17.771z"/>
			</g>
		</g>
		<path fill="#A6A29C" stroke="#000000" stroke-width="1.53" stroke-miterlimit="10" d="M19.352-17.775l-6.949-0.057
			c-0.836-0.008-1.508-0.691-1.5-1.527l0.055-6.83"/>
		<g>
			<path d="M-4.609,11.07h-5.904l-0.703-1.627c-0.23-0.543-0.346-0.99-0.346-1.345c0-0.469,0.189-0.813,0.568-1.034
				c0.221-0.134,0.768-0.23,1.639-0.298V6.312h-5.559v0.455c0.6,0.093,1.092,0.341,1.479,0.746c0.387,0.406,0.863,1.248,1.43,2.521
				l5.979,13.338h0.234L0.234,9.664C0.81,8.367,1.283,7.549,1.652,7.211c0.279-0.254,0.674-0.402,1.184-0.443V6.312H-5.25v0.455
				h0.332c0.648,0,1.105,0.093,1.369,0.271c0.18,0.131,0.271,0.32,0.271,0.565c0,0.148-0.025,0.302-0.074,0.457
				C-3.37,8.135-3.493,8.444-3.723,8.985L-4.609,11.07z M-5.029,11.982l-2.49,5.756l-2.562-5.756H-5.029z"/>
		</g>
		<g>
			
				<line fill="none" stroke="#A6A29C" stroke-width="1.53" stroke-linecap="round" stroke-linejoin="round" stroke-miterlimit="10" x1="11.811" y1="12.242" x2="5.072" y2="12.242"/>
			
				<line fill="none" stroke="#A6A29C" stroke-width="1.53" stroke-linecap="round" stroke-linejoin="round" stroke-miterlimit="10" x1="11.811" y1="7.518" x2="5.072" y2="7.518"/>
			
				<line fill="none" stroke="#A6A29C" stroke-width="1.53" stroke-linecap="round" stroke-linejoin="round" stroke-miterlimit="10" x1="11.811" y1="2.789" x2="-13.344" y2="2.584"/>
			
				<line fill="none" stroke="#A6A29C" stroke-width="1.53" stroke-linecap="round" stroke-linejoin="round" stroke-miterlimit="10" x1="11.811" y1="-1.936" x2="-13.344" y2="-2.143"/>
			
				<line fill="none" stroke="#A6A29C" stroke-width="1.53" stroke-linecap="round" stroke-linejoin="round" stroke-miterlimit="10" x1="11.811" y1="-6.662" x2="-13.344" y2="-6.869"/>
			
				<line fill="none" stroke="#A6A29C" stroke-width="1.53" stroke-linecap="round" stroke-linejoin="round" stroke-miterlimit="10" x1="11.811" y1="-11.389" x2="-13.344" y2="-11.596"/>
			
				<line fill="none" stroke="#A6A29C" stroke-width="1.53" stroke-linecap="round" stroke-linejoin="round" stroke-miterlimit="10" x1="11.811" y1="-16.115" x2="-13.344" y2="-16.322"/>
			
				<line fill="none" stroke="#A6A29C" stroke-width="1.53" stroke-linecap="round" stroke-linejoin="round" stroke-miterlimit="10" x1="2.5" y1="-20.844" x2="-13.344" y2="-21.01"/>
		</g>
	</g>
	<g>
		<path fill="none" stroke="#FFFFFF" stroke-width="3" stroke-miterlimit="10" d="M18.426-9.976C13.398-8.853,9.643-4.364,9.643,1
			c0,5.266,3.619,9.686,8.506,10.909"/>
		<g>
			<path fill="#A6A29C" d="M20.889-9.826C14.919-9.826,10.062-4.97,10.062,1s4.857,10.826,10.827,10.826
				c5.97,0,10.826-4.856,10.826-10.826S26.858-9.826,20.889-9.826z"/>
			<path d="M20.889,10.977c5.51,0,9.977-4.467,9.977-9.977s-4.467-9.977-9.977-9.977c-5.51,0-9.977,4.467-9.977,9.977
				S15.379,10.977,20.889,10.977 M20.889,12.677C14.45,12.677,9.212,7.438,9.212,1s5.238-11.677,11.677-11.677
				S32.565-5.438,32.565,1S27.327,12.677,20.889,12.677L20.889,12.677z"/>
		</g>
		<g>
			<path d="M21.309-5.276c-0.812,0-1.572,0.136-2.277,0.403c-0.705,0.268-1.318,0.658-1.84,1.173
				c-0.521,0.515-0.928,1.14-1.219,1.874c-0.291,0.736-0.438,1.579-0.438,2.53c0,0.92,0.154,1.752,0.461,2.495
				c0.307,0.744,0.709,1.372,1.207,1.887c0.498,0.513,1.07,0.908,1.713,1.184c0.645,0.276,1.311,0.414,2.002,0.414
				c0.812,0,1.521-0.138,2.127-0.414c0.605-0.274,1.111-0.658,1.518-1.148c0.406-0.491,0.709-1.069,0.908-1.736
				c0.199-0.667,0.301-1.392,0.301-2.174c0-0.307-0.016-0.598-0.047-0.874c-0.031-0.276-0.062-0.483-0.092-0.621h-6.832
				c0.154-0.828,0.496-1.438,1.023-1.828c0.53-0.393,1.178-0.588,1.944-0.588c0.814,0,1.635,0.253,2.463,0.759l1.127-2.047
				c-0.584-0.397-1.23-0.713-1.945-0.941C22.699-5.161,21.998-5.276,21.309-5.276z M18.779,1.946h4.117
				c0,0.644-0.146,1.165-0.438,1.562c-0.292,0.398-0.783,0.6-1.473,0.6c-0.537,0-1.008-0.178-1.414-0.529
				C19.165,3.227,18.9,2.682,18.779,1.946z"/>
		</g>
	</g>
</symbol>
<symbol  id="buch" viewBox="-60 -60 120 120">
	<polygon fill="none" points="60,-60 -60,-60 -60,60 60,60 	"/>
	<g>
		<path fill="#A6A29C" d="M-20.737,27.414l0.26-47.502c0,0-0.202-5.007,0.906-6.56c0.81-1.134,2.076-1.333,4.065-1.445
			l-0.393,53.473l-2.287,0.579l-1.778,0.972L-20.737,27.414z"/>
		
			<path fill="#FFFFFF" stroke="#000000" stroke-width="1.397" stroke-linecap="round" stroke-linejoin="round" stroke-miterlimit="10" d="
			M-15.897,25.484c-1.989,0.112-3.227,0.463-4.066,1.445c-1.322,1.549-0.014,3.963,2.129,4.077l1.022,0.009l31.784,0.232
			c1.244,0.009,2.08-0.917,2.09-2.068l0.023-3.147"/>
		
			<path fill="none" stroke="#000000" stroke-width="1.397" stroke-linecap="round" stroke-linejoin="round" stroke-miterlimit="10" d="
			M-15.505-28.093c-1.989,0.112-3.256,0.312-4.065,1.445c-1.108,1.553-0.906,6.56-0.906,6.56l-0.26,47.502"/>
		<g>
			
				<polyline fill="#FFFFFF" stroke="#000000" stroke-width="0.9" stroke-linecap="round" stroke-linejoin="round" stroke-miterlimit="10" points="
				-17.798,30.767 15.843,31.028 15.876,26.41 			"/>
			
				<polyline fill="#FFFFFF" stroke="#000000" stroke-width="0.9" stroke-linecap="round" stroke-linejoin="round" stroke-miterlimit="10" points="
				-17.501,29.163 17.354,29.427 17.386,25.361 			"/>
			
				<polyline fill="#FFFFFF" stroke="#000000" stroke-width="0.9" stroke-linecap="round" stroke-linejoin="round" stroke-miterlimit="10" points="
				-16.508,27.445 19.017,27.713 19.03,25.923 			"/>
		</g>
		
			<path fill="#FFFFFF" stroke="#000000" stroke-width="1.397" stroke-linecap="round" stroke-linejoin="round" stroke-miterlimit="10" d="
			M19.226-27.921l-34.73-0.254l-0.394,53.555c0,0.059,0.041,0.104,0.093,0.105l34.638,0.253c0.973,0.007,1.769-0.872,1.776-1.964
			l0.361-49.706C20.979-27.024,20.2-27.913,19.226-27.921z"/>
		<g>
			
				<line fill="none" stroke="#A6A29C" stroke-width="1.3754" stroke-linecap="round" stroke-linejoin="round" stroke-miterlimit="10" x1="-6.681" y1="15.938" x2="11.729" y2="16.073"/>
			
				<line fill="none" stroke="#A6A29C" stroke-width="1.3754" stroke-linecap="round" stroke-linejoin="round" stroke-miterlimit="10" x1="-4.033" y1="12.521" x2="9.119" y2="12.617"/>
			
				<line fill="none" stroke="#A6A29C" stroke-width="1.3754" stroke-linecap="round" stroke-linejoin="round" stroke-miterlimit="10" x1="-6.205" y1="9.069" x2="11.328" y2="9.198"/>
		</g>
	</g>
</symbol>
<symbol  id="buch-e" viewBox="-60 -60 120 120">
	<g id="buch-e_1_">
		<polygon fill="none" points="60,-60 -60,-60 -60,60 60,60 		"/>
		<g>
			<path fill="#A6A29C" d="M-20.855,25.877l0.26-47.502c0,0-0.201-5.007,0.906-6.559c0.811-1.135,2.076-1.333,4.066-1.446
				l-0.393,53.473l-2.287,0.579l-1.779,0.972L-20.855,25.877z"/>
			
				<path fill="#FFFFFF" stroke="#000000" stroke-width="1.397" stroke-linecap="round" stroke-linejoin="round" stroke-miterlimit="10" d="
				M-16.016,23.947c-1.988,0.112-3.227,0.463-4.066,1.445c-1.322,1.55-0.014,3.964,2.129,4.077l1.023,0.009l31.783,0.232
				c1.244,0.009,2.08-0.917,2.09-2.068l0.023-3.147"/>
			
				<path fill="none" stroke="#000000" stroke-width="1.397" stroke-linecap="round" stroke-linejoin="round" stroke-miterlimit="10" d="
				M-15.623-29.63c-1.99,0.113-3.256,0.312-4.066,1.446c-1.107,1.552-0.906,6.559-0.906,6.559l-0.26,47.502"/>
			<g>
				
					<polyline fill="#FFFFFF" stroke="#000000" stroke-width="0.9" stroke-linecap="round" stroke-linejoin="round" stroke-miterlimit="10" points="
					-17.916,29.229 15.725,29.491 15.758,24.873 				"/>
				
					<polyline fill="#FFFFFF" stroke="#000000" stroke-width="0.9" stroke-linecap="round" stroke-linejoin="round" stroke-miterlimit="10" points="
					-17.619,27.626 17.236,27.89 17.268,23.824 				"/>
				
					<polyline fill="#FFFFFF" stroke="#000000" stroke-width="0.9" stroke-linecap="round" stroke-linejoin="round" stroke-miterlimit="10" points="
					-16.627,25.908 18.898,26.176 18.912,24.386 				"/>
			</g>
			
				<path fill="#FFFFFF" stroke="#000000" stroke-width="1.397" stroke-linecap="round" stroke-linejoin="round" stroke-miterlimit="10" d="
				M19.107-29.458l-34.73-0.254l-0.393,53.555c0,0.059,0.041,0.104,0.092,0.105l34.639,0.253c0.973,0.007,1.768-0.872,1.775-1.964
				l0.363-49.706C20.861-28.562,20.082-29.45,19.107-29.458z"/>
			<g>
				
					<line fill="none" stroke="#A6A29C" stroke-width="1.3754" stroke-linecap="round" stroke-linejoin="round" stroke-miterlimit="10" x1="-6.799" y1="14.4" x2="11.611" y2="14.536"/>
				
					<line fill="none" stroke="#A6A29C" stroke-width="1.3754" stroke-linecap="round" stroke-linejoin="round" stroke-miterlimit="10" x1="-4.15" y1="10.983" x2="9.002" y2="11.08"/>
				
					<line fill="none" stroke="#A6A29C" stroke-width="1.3754" stroke-linecap="round" stroke-linejoin="round" stroke-miterlimit="10" x1="-6.322" y1="7.532" x2="11.211" y2="7.661"/>
			</g>
		</g>
	</g>
	<g>
		<path fill="none" stroke="#FFFFFF" stroke-width="1.9165" stroke-miterlimit="10" d="M18.533-23.093
			C12.895-22.485,8.504-17.71,8.504-11.911c0,5.768,4.342,10.521,9.934,11.171"/>
		<g>
			<path fill="#A6A29C" d="M19.752-22.737c-5.97,0-10.827,4.856-10.827,10.826S13.782-1.085,19.752-1.085
				c5.97,0,10.827-4.856,10.827-10.826S25.722-22.737,19.752-22.737z"/>
			<path d="M19.752-1.935c5.51,0,9.977-4.468,9.977-9.978s-4.467-9.977-9.977-9.977c-5.51,0-9.977,4.467-9.977,9.977
				S14.242-1.935,19.752-1.935 M19.752-0.234c-6.438,0-11.677-5.237-11.677-11.677c0-6.438,5.238-11.677,11.677-11.677
				s11.677,5.238,11.677,11.677C31.429-5.472,26.19-0.234,19.752-0.234L19.752-0.234z"/>
		</g>
		<g>
			<path d="M20.172-18.188c-0.812,0-1.572,0.136-2.277,0.403c-0.705,0.269-1.318,0.658-1.84,1.173
				c-0.521,0.515-0.928,1.14-1.219,1.874c-0.291,0.736-0.438,1.579-0.438,2.53c0,0.92,0.154,1.752,0.461,2.495
				c0.307,0.744,0.709,1.372,1.207,1.887c0.498,0.513,1.07,0.908,1.713,1.185c0.645,0.275,1.311,0.414,2.002,0.414
				c0.812,0,1.521-0.139,2.127-0.414c0.605-0.275,1.111-0.659,1.518-1.149c0.406-0.491,0.709-1.069,0.908-1.736
				s0.301-1.392,0.301-2.174c0-0.307-0.016-0.598-0.047-0.874c-0.031-0.275-0.062-0.482-0.092-0.621h-6.832
				c0.154-0.828,0.496-1.438,1.023-1.828c0.529-0.392,1.178-0.587,1.943-0.587c0.814,0,1.635,0.253,2.463,0.76l1.127-2.048
				c-0.584-0.397-1.23-0.713-1.945-0.941C21.562-18.072,20.861-18.188,20.172-18.188z M17.643-10.965h4.117
				c0,0.644-0.146,1.165-0.438,1.562c-0.292,0.398-0.783,0.6-1.473,0.6c-0.537,0-1.008-0.178-1.414-0.529
				C18.029-9.684,17.764-10.229,17.643-10.965z"/>
		</g>
	</g>
</symbol>
<use xlink:href="#buch"  width="120" height="120" x="-60" y="-60" transform="matrix(1 0 0 -1 60 184.9998)" overflow="visible"/>
<use xlink:href="#buch-e"  width="120" height="120" id="XMLID_4_" x="-60" y="-60" transform="matrix(1 0 0 -1 185.001 184.9998)" overflow="visible"/>
<use xlink:href="#artikel-e"  width="120" height="120" id="XMLID_3_" x="-60" y="-60" transform="matrix(1 0 0 -1 185.001 59.9998)" overflow="visible"/>
<use xlink:href="#artikel"  width="120" height="120" x="-60" y="-60" transform="matrix(1 0 0 -1 60 59.9998)" overflow="visible"/>
<g>
</g>
<g>
</g>
<g>
</g>
<g>
</g>
<g>
</g>
<g>
</g>
<g>
</g>
<g>
</g>
<g>
</g>
<g>
</g>
<g>
</g>
<g>
</g>
</svg>
